<?xml version="1.0" encoding="UTF-8"?><svg xmlns="http://www.w3.org/2000/svg" xmlns:xlink="http://www.w3.org/1999/xlink" viewBox="0 0 48 48" version="1.1"><g id="surface1" fill-rule="evenodd"><path d="M22.902 3.285a2.262 2.262 0 0 1 2.196 0c3.351 1.883 13.449 7.55 16.804 9.434A2.125 2.125 0 0 1 43 14.566v18.868c0 .761-.418 1.464-1.098 1.847l-16.804 9.434a2.262 2.262 0 0 1-2.196 0L6.098 35.28A2.125 2.125 0 0 1 5 33.434V14.566c0-.761.418-1.464 1.098-1.847 3.351-1.883 13.453-7.551 16.804-9.434z" fill="#283593"/><path d="M5.305 34.402C5.039 34.047 5 33.711 5 33.254V14.496a2.11 2.11 0 0 1 1.094-1.836c3.343-1.87 13.406-7.508 16.75-9.379.676-.379 1.593-.37 2.27.008 3.343 1.871 13.37 7.457 16.714 9.328.27.153.477.336.66.578z" fill="#5C6BC0"/><path d="M24 10c7.727 0 14 6.273 14 14s-6.273 14-14 14-14-6.273-14-14 6.273-14 14-14zm0 7c3.863 0 7 3.137 7 7s-3.137 7-7 7-7-3.137-7-7 3.137-7 7-7z" fill="#FFF"/><path d="M42.484 13.203c.516.485.508 1.211.508 1.785 0 3.797-.031 14.59.008 18.383.004.399-.129.816-.324 1.129L23.594 24z" fill="#3949AB"/></g><metadata><rdf:RDF xmlns:rdf="http://www.w3.org/1999/02/22-rdf-syntax-ns#" xmlns:rdfs="http://www.w3.org/2000/01/rdf-schema#" xmlns:dc="http://purl.org/dc/elements/1.1/"><rdf:Description about="https://iconscout.com/legal#licenses" dc:title="c,programming" dc:description="c,programming" dc:publisher="Iconscout" dc:date="2017-12-15" dc:format="image/svg+xml" dc:language="en"><dc:creator><rdf:Bag><rdf:li>Icons8</rdf:li></rdf:Bag></dc:creator></rdf:Description></rdf:RDF></metadata></svg>