<svg id="SvgjsSvg1016" width="288" height="288" xmlns="http://www.w3.org/2000/svg" version="1.1" xmlns:xlink="http://www.w3.org/1999/xlink" xmlns:svgjs="http://svgjs.com/svgjs"><defs id="SvgjsDefs1017"></defs><g id="SvgjsG1018" transform="matrix(1,0,0,1,0,0)"><svg xmlns="http://www.w3.org/2000/svg" enable-background="new 0 0 80 80" viewBox="0 0 80 80" width="288" height="288"><path d="M12,7v66c0,1.1044922,0.8955078,2,2,2h52c1.1044922,0,2-0.8955078,2-2V7c0-1.1044922-0.8955078-2-2-2H14	C12.8955078,5,12,5.8955078,12,7z M16,9h48v62H16V9z" fill="#0022ff" class="color000 svgShape"></path><path d="M32.769043 31c2.1689453 0 4.2553711-.9448242 5.7241211-2.5927734.7348633-.8242188.6621094-2.0883789-.1625977-2.8237305-.8232422-.734375-2.0883789-.6616211-2.8237305.1625977C34.7861328 26.5546875 33.8139648 27 32.769043 27 30.690918 27 29 25.2055664 29 23s1.690918-4 3.769043-4c1.0449219 0 2.0170898.4453125 2.737793 1.2539062.7353516.824707 2.0004883.8969727 2.8237305.1625977.824707-.7353516.8974609-1.9995117.1625977-2.8237305C37.0244141 15.9448242 34.9379883 15 32.769043 15 28.4853516 15 25 18.5888672 25 23S28.4853516 31 32.769043 31zM46.1538086 29.769043C46.4643555 30.5146484 47.1923828 31 48 31s1.5356445-.4853516 1.8461914-1.230957l5-12c.4248047-1.0195312-.0571289-2.1904297-1.0771484-2.6152344s-2.1899414.0581055-2.6152344 1.0771484L48 23.7998047l-3.1538086-7.5688477c-.4257812-1.0195312-1.5957031-1.5004883-2.6152344-1.0771484-1.0200195.4248047-1.5019531 1.5957031-1.0771484 2.6152344L46.1538086 29.769043zM59 39H21c-1.1044922 0-2 .8955078-2 2s.8955078 2 2 2h38c1.1044922 0 2-.8955078 2-2S60.1044922 39 59 39zM59 50H21c-1.1044922 0-2 .8955078-2 2s.8955078 2 2 2h38c1.1044922 0 2-.8955078 2-2S60.1044922 50 59 50zM59 61H21c-1.1044922 0-2 .8955078-2 2s.8955078 2 2 2h38c1.1044922 0 2-.8955078 2-2S60.1044922 61 59 61z" fill="#0022ff" class="color000 svgShape"></path></svg></g></svg>