<svg id="SvgjsSvg1022" width="288" height="288" xmlns="http://www.w3.org/2000/svg" version="1.1" xmlns:xlink="http://www.w3.org/1999/xlink" xmlns:svgjs="http://svgjs.com/svgjs"><defs id="SvgjsDefs1023"></defs><g id="SvgjsG1024" transform="matrix(1,0,0,1,0,0)"><svg xmlns="http://www.w3.org/2000/svg" width="288" height="288" viewBox="0 0 100 100"><path d="M88 23H12c-1.1 0-2 .9-2 2v50c0 1.1.9 2 2 2h76c1.1 0 2-.9 2-2V25c0-1.1-.9-2-2-2zm-4.8 4L50 60.2 16.8 27h66.4zM14 29.8L34.2 50 14 70.2V29.8zM16.9 73L37 52.9l11.6 11.6c.8.8 2 .8 2.8 0L63 52.9 83.1 73H16.9zM86 70.2L65.8 50 86 29.8v40.4z" fill="#00aaff" class="color000 svgShape"></path><path fill="#0000ff" d="M804-510v1684H-980V-510H804m8-8H-988v1700H812V-518z" class="color00F svgShape"></path></svg></g></svg>