<svg id="SvgjsSvg1001" width="288" height="288" xmlns="http://www.w3.org/2000/svg" version="1.1" xmlns:xlink="http://www.w3.org/1999/xlink" xmlns:svgjs="http://svgjs.com/svgjs"><defs id="SvgjsDefs1002"></defs><g id="SvgjsG1008" transform="matrix(1,0,0,1,0,0)"><svg xmlns="http://www.w3.org/2000/svg" data-name="Layer 2" viewBox="0 0 32 32" width="288" height="288"><path d="M29.94,6.68a1,1,0,0,0-.09-.18.94.94,0,0,0-.05-.11l0,0a1.6,1.6,0,0,0-.31-.24l-.17-.06-.2,0H2.94a1,1,0,0,0-.21,0l-.17.06a1,1,0,0,0-.15.1,1,1,0,0,0-.15.13l0,0a.93.93,0,0,0-.05.11A.79.79,0,0,0,2,6.88.93.93,0,0,0,2,7V25a1,1,0,0,0,1,1H29a1,1,0,0,0,1-1V7a.93.93,0,0,0,0-.12A1,1,0,0,0,29.94,6.68ZM26.06,8,16,15.74,5.94,8ZM28,24H4V9l11.39,8.76a1,1,0,0,0,1.22,0L28,9Z" fill="#3857e8" class="color000 svgShape"></path></svg></g></svg>