<svg xmlns="http://www.w3.org/2000/svg"  viewBox="0 0 64 64" width="64px" height="64px"><g data-name="Color copy 2"><path fill="#fff" d="M14,54h0a2,2,0,0,1,2,2v5a0,0,0,0,1,0,0H12a0,0,0,0,1,0,0V56A2,2,0,0,1,14,54Z" transform="rotate(180 14 57.5)"/><path fill="#cff09e" d="M16,56V54H12v5a2,2,0,0,0,2,2V58A2,2,0,0,1,16,56Z"/><path fill="#fff" d="M50,54h0a2,2,0,0,1,2,2v5a0,0,0,0,1,0,0H48a0,0,0,0,1,0,0V56A2,2,0,0,1,50,54Z" transform="rotate(180 50 57.5)"/><path fill="#cff09e" d="M52,56V54H48v5a2,2,0,0,0,2,2V58A2,2,0,0,1,52,56Z"/><path fill="#fff" d="M32,55h0a2,2,0,0,1,2,2v4a0,0,0,0,1,0,0H30a0,0,0,0,1,0,0V57A2,2,0,0,1,32,55Z" transform="rotate(180 32 58)"/><path fill="#fff" d="M41,55h0a2,2,0,0,1,2,2v4a0,0,0,0,1,0,0H39a0,0,0,0,1,0,0V57a2,2,0,0,1,2-2Z" transform="rotate(180 41 58)"/><path fill="#fff" d="M23,55h0a2,2,0,0,1,2,2v4a0,0,0,0,1,0,0H21a0,0,0,0,1,0,0V57A2,2,0,0,1,23,55Z" transform="rotate(180 23 58)"/><path fill="#cff09e" d="M43,56V55H39v4a2,2,0,0,0,2,2V58A2,2,0,0,1,43,56Z"/><path fill="#cff09e" d="M34,56V55H30v4a2,2,0,0,0,2,2V58A2,2,0,0,1,34,56Z"/><path fill="#cff09e" d="M25,56V55H21v4a2,2,0,0,0,2,2V58A2,2,0,0,1,25,56Z"/><path fill="#fff" d="M12,3h4a0,0,0,0,1,0,0V8a2,2,0,0,1-2,2h0a2,2,0,0,1-2-2V3A0,0,0,0,1,12,3Z" transform="rotate(180 14 6.5)"/><path fill="#cff09e" d="M16,8v2H12V5a2,2,0,0,1,2-2V6A2,2,0,0,0,16,8Z"/><path fill="#fff" d="M48,3h4a0,0,0,0,1,0,0V8a2,2,0,0,1-2,2h0a2,2,0,0,1-2-2V3A0,0,0,0,1,48,3Z" transform="rotate(180 50 6.5)"/><path fill="#cff09e" d="M52,8v2H48V5a2,2,0,0,1,2-2V6A2,2,0,0,0,52,8Z"/><path fill="#fff" d="M30,3h4a0,0,0,0,1,0,0V7a2,2,0,0,1-2,2h0a2,2,0,0,1-2-2V3A0,0,0,0,1,30,3Z" transform="rotate(180 32 6)"/><path fill="#fff" d="M39,3h4a0,0,0,0,1,0,0V7a2,2,0,0,1-2,2h0a2,2,0,0,1-2-2V3A0,0,0,0,1,39,3Z" transform="rotate(180 41 6)"/><path fill="#fff" d="M21,3h4a0,0,0,0,1,0,0V7a2,2,0,0,1-2,2h0a2,2,0,0,1-2-2V3A0,0,0,0,1,21,3Z" transform="rotate(180 23 6)"/><path fill="#cff09e" d="M43,8V9H39V5a2,2,0,0,1,2-2V6A2,2,0,0,0,43,8Z"/><path fill="#cff09e" d="M34,8V9H30V5a2,2,0,0,1,2-2V6A2,2,0,0,0,34,8Z"/><path fill="#cff09e" d="M25,8V9H21V5a2,2,0,0,1,2-2V6A2,2,0,0,0,25,8Z"/><path fill="#fff" d="M57.5,46.5h0a2,2,0,0,1,2,2v5a0,0,0,0,1,0,0h-4a0,0,0,0,1,0,0v-5a2,2,0,0,1,2-2Z" transform="rotate(90 57.5 50)"/><path fill="#cff09e" d="M56,48H54v4h5a2,2,0,0,0,2-2H58A2,2,0,0,1,56,48Z"/><path fill="#fff" d="M57.5,10.5h0a2,2,0,0,1,2,2v5a0,0,0,0,1,0,0h-4a0,0,0,0,1,0,0v-5a2,2,0,0,1,2-2Z" transform="rotate(90 57.5 14)"/><path fill="#cff09e" d="M56,12H54v4h5a2,2,0,0,0,2-2H58A2,2,0,0,1,56,12Z"/><path fill="#fff" d="M58,29h0a2,2,0,0,1,2,2v4a0,0,0,0,1,0,0H56a0,0,0,0,1,0,0V31A2,2,0,0,1,58,29Z" transform="rotate(90 58 32)"/><path fill="#fff" d="M58,20h0a2,2,0,0,1,2,2v4a0,0,0,0,1,0,0H56a0,0,0,0,1,0,0V22a2,2,0,0,1,2-2Z" transform="rotate(90 58 23)"/><path fill="#fff" d="M58,38h0a2,2,0,0,1,2,2v4a0,0,0,0,1,0,0H56a0,0,0,0,1,0,0V40A2,2,0,0,1,58,38Z" transform="rotate(90 58 41)"/><path fill="#cff09e" d="M56,21H55v4h4a2,2,0,0,0,2-2H58A2,2,0,0,1,56,21Z"/><path fill="#cff09e" d="M56,30H55v4h4a2,2,0,0,0,2-2H58A2,2,0,0,1,56,30Z"/><path fill="#cff09e" d="M56,39H55v4h4a2,2,0,0,0,2-2H58A2,2,0,0,1,56,39Z"/><path fill="#fff" d="M4.5,46.5h4a0,0,0,0,1,0,0v5a2,2,0,0,1-2,2h0a2,2,0,0,1-2-2v-5A0,0,0,0,1,4.5,46.5Z" transform="rotate(90 6.5 50)"/><path fill="#cff09e" d="M8,48h2v4H5a2,2,0,0,1-2-2H6A2,2,0,0,0,8,48Z"/><path fill="#fff" d="M4.5,10.5h4a0,0,0,0,1,0,0v5a2,2,0,0,1-2,2h0a2,2,0,0,1-2-2v-5A0,0,0,0,1,4.5,10.5Z" transform="rotate(90 6.5 14)"/><path fill="#cff09e" d="M8,12h2v4H5a2,2,0,0,1-2-2H6A2,2,0,0,0,8,12Z"/><path fill="#fff" d="M4,29H8a0,0,0,0,1,0,0v4a2,2,0,0,1-2,2H6a2,2,0,0,1-2-2V29a0,0,0,0,1,0,0Z" transform="rotate(90 6 32)"/><path fill="#fff" d="M4,20H8a0,0,0,0,1,0,0v4a2,2,0,0,1-2,2H6a2,2,0,0,1-2-2V20A0,0,0,0,1,4,20Z" transform="rotate(90 6 23)"/><path fill="#fff" d="M4,38H8a0,0,0,0,1,0,0v4a2,2,0,0,1-2,2H6a2,2,0,0,1-2-2V38A0,0,0,0,1,4,38Z" transform="rotate(90 6 41)"/><path fill="#cff09e" d="M8,21H9v4H5a2,2,0,0,1-2-2H6A2,2,0,0,0,8,21Z"/><path fill="#cff09e" d="M8,30H9v4H5a2,2,0,0,1-2-2H6A2,2,0,0,0,8,30Z"/><path fill="#cff09e" d="M8,39H9v4H5a2,2,0,0,1-2-2H6A2,2,0,0,0,8,39Z"/><rect width="46" height="46" x="9" y="9" fill="#79bd9a" rx="4"/><rect width="22" height="22" x="21" y="21" fill="#fff" rx="2"/><path fill="#cff09e" d="M42,38A16,16,0,0,1,26,22V21H23a2,2,0,0,0-2,2V41a2,2,0,0,0,2,2H41a2,2,0,0,0,2-2V38Z"/><circle cx="36" cy="15" r="2" fill="#cff09e"/><circle cx="25" cy="15" r="2" fill="#cff09e"/><circle cx="15" cy="32" r="2" fill="#cff09e"/><circle cx="15" cy="42" r="2" fill="#cff09e"/><circle cx="40" cy="49" r="2" fill="#cff09e"/><circle cx="49" cy="44" r="2" fill="#cff09e"/></g><g data-name="Stroke Close copy"><path fill="#3b8686" d="M59,26a3,3,0,0,0,0-6H56V17h3a3,3,0,0,0,0-6H55.576A5.021,5.021,0,0,0,53,8.424V5a3,3,0,0,0-6,0V8H44V5a3,3,0,0,0-6,0V8H35V5a3,3,0,0,0-6,0V8H26V5a3,3,0,0,0-6,0V8H17V5a3,3,0,0,0-6,0V8.424A5.021,5.021,0,0,0,8.424,11H5a3,3,0,0,0,0,6H8v3H5a3,3,0,0,0,0,6H8v3H5a3,3,0,0,0,0,6H8v3H5a3,3,0,0,0,0,6H8v3H5a3,3,0,0,0,0,6H8.424A5.021,5.021,0,0,0,11,55.576V59a3,3,0,0,0,6,0V56h3v3a3,3,0,0,0,6,0V56h3v3a3,3,0,0,0,6,0V56h3v3a3,3,0,0,0,6,0V56h3v3a3,3,0,0,0,6,0V55.576A5.021,5.021,0,0,0,55.576,53H59a3,3,0,0,0,0-6H56V44h3a3,3,0,0,0,0-6H56V35h3a3,3,0,0,0,0-6H56V26Zm1-3a1,1,0,0,1-1,1H56V22h3A1,1,0,0,1,60,23Zm-6,7H48a1,1,0,0,0-.9.553l-1.612,3.224L44,33.279V28h7a1,1,0,0,0,.986-.835L52.847,22H54ZM23,42a1,1,0,0,1-1-1V23a1,1,0,0,1,1-1H41a1,1,0,0,1,1,1V41a1,1,0,0,1-1,1ZM59,13a1,1,0,0,1,0,2H56V13ZM49,5a1,1,0,0,1,2,0V8H49ZM40,5a1,1,0,0,1,2,0V8H40ZM31,5a1,1,0,0,1,2,0V8H31ZM22,5a1,1,0,0,1,2,0V8H22ZM13,5a1,1,0,0,1,2,0V8H13Zm0,5H49v3a1,1,0,0,0,2,0V10a3,3,0,0,1,3,3v7H49.618L46.9,14.553A1,1,0,0,0,46,14H38.816a3,3,0,1,0,0,2h6.566l2.723,5.447A1,1,0,0,0,49,22h1.82l-.667,4H44V23a3,3,0,0,0-3-3H23a3,3,0,0,0-2.816,2H17.82l-.84-4.2A1,1,0,0,0,16,17H13a1,1,0,0,0,0,2h2.18l.84,4.2A1,1,0,0,0,17,24h3v7H17.816a2.982,2.982,0,0,0-5.632,0H10V14h6.382l.723,1.447A1,1,0,0,0,18,16h4.184a3,3,0,1,0,0-2H18.618L17.9,12.553A1,1,0,0,0,17,12H10.184A3,3,0,0,1,13,10Zm24,5a1,1,0,1,1-1-1A1,1,0,0,1,37,15ZM16,32a1,1,0,1,1-1-1A1,1,0,0,1,16,32Zm8-17a1,1,0,1,1,1,1A1,1,0,0,1,24,15ZM5,15a1,1,0,0,1,0-2H8v2Zm0,9a1,1,0,0,1,0-2H8v2Zm0,9a1,1,0,0,1,0-2H8v2Zm0,9a1,1,0,0,1,0-2H8v2Zm0,9a1,1,0,0,1,0-2H8v2Zm5,0V33h2.184a2.982,2.982,0,0,0,5.632,0H20v8a3,3,0,0,0,3,3h6v2H26a1,1,0,0,0-1,1v4a1,1,0,0,0,1,1h3v2H20V51a1,1,0,0,0-.553-.9L16,48.382V44.816a3,3,0,1,0-2,0V49a1,1,0,0,0,.553.9L18,51.618V54H13A3,3,0,0,1,10,51Zm5-8a1,1,0,1,1,1-1A1,1,0,0,1,15,43Zm0,16a1,1,0,0,1-2,0V56h2Zm9,0a1,1,0,0,1-2,0V56h2Zm9,0a1,1,0,0,1-2,0V56h2Zm9,0a1,1,0,0,1-2,0V56h2Zm9,0a1,1,0,0,1-2,0V56h2Zm0-5H31V51a1,1,0,0,0-1-1H27V48h3a1,1,0,0,0,1-1V44H41a3,3,0,0,0,3-3V35.388l4,1.333v4.463a3,3,0,1,0,2,0V36a1,1,0,0,0-.684-.949l-1.906-.635L48.618,32H54V50H48.618L47.9,48.553A1,1,0,0,0,47,48H42.816a3,3,0,1,0,0,2h3.566l.723,1.447A1,1,0,0,0,48,52h5.816A3,3,0,0,1,51,54ZM49,43a1,1,0,1,1-1,1A1,1,0,0,1,49,43Zm-8,6a1,1,0,1,1-1-1A1,1,0,0,1,41,49Zm18,0a1,1,0,0,1,0,2H56V49Zm0-9a1,1,0,0,1,0,2H56V40Zm0-9a1,1,0,0,1,0,2H56V31Z"/><path fill="#3b8686" d="M28,27a4,4,0,0,0-4,4v5a1,1,0,0,0,2,0V34h4v2a1,1,0,0,0,2,0V31A4,4,0,0,0,28,27Zm-2,5V31a2,2,0,0,1,4,0v1Z"/><path fill="#3b8686" d="M39,29a1,1,0,0,0,0-2H35a1,1,0,0,0,0,2h1v6H35a1,1,0,0,0,0,2h4a1,1,0,0,0,0-2H38V29Z"/></g></svg>