<svg xmlns="http://www.w3.org/2000/svg"  viewBox="0 0 48 48" width="48px" height="48px"><path fill="#00838f" d="M22.55,18.294c1.264,1.867,4.069,1.642,5.031-0.398C28.678,15.573,30.052,13.28,34,14 c2.201,0.402,3,3,3,3l11,2.003c0,0-9.312-0.307-11.382,0.727c0,0-0.285,2.32-3.858,5.571c-1.082,0.985,0.384,7.416-5.363,9.593 c-6.879,3.164-6.994,1.64-16.256,7.106c0,0,1.689-1.648-1.454-1.419c0,0,3.436-1.947-0.851-1.249c0,0,2.632-1.615-0.511-2.429 c0,0,7.143-1.867,8.948-3.444c0.462-0.404,0.837-1.716,1.155-2.823l-3.539,3.58c0,0,0,0,0-1.035c0-1.035-1.801,1.657-1.801,1.657 l-0.268-1.657L9.715,35.88c0,0-0.271-1.388,0.379-2.574l-3.484,1.945c0,0,0.497-2.459,1.591-3.123l-2.63,1.224 c0,0,0.195-1.68,1.04-2.24l-2.299,0.779c0,0,0.007-1.287,1.041-2.322l-1.807,0.634c0,0,0.359-1.783,1.137-2.035l-1.707,0.316 c0,0,0.3-1.696,1.551-2.321l-2.289,0.45c0,0,0.35-1.851,2.088-2.526L1.7,24.164c0,0,1.351-1.963,2.739-2.163l-3.051,0.138 c0,0,1.163-1.613,2.076-1.851L1,20.187c0,0,0.725-1.301,1.851-1.663L1,18.436c0,0,0.588-1.238,1.688-1.563L1,16.523 c0,0,1.501-1.426,2.489-1.413l-2.351-0.45c0,0,1.025-1.563,3.151-1.463l-2.226-1.038c0,0,1.413-1.088,3.639-0.65L3.213,10.02 c0,0,1.576-1.075,3.727-0.263L4.426,7.807c0,0,1.163-0.625,2.288-0.163L6,5C14.889,8.232,19.79,14.217,22.55,18.294z"/><circle cx="32.779" cy="17" r="1.061" fill="#00c853"/><circle cx="32.779" cy="17" r="1.061" fill="none" stroke="#fff" stroke-linecap="round" stroke-linejoin="round" stroke-miterlimit="10" stroke-width=".25"/><path fill="none" stroke="#fff" stroke-linecap="round" stroke-linejoin="round" stroke-miterlimit="10" stroke-width=".25" d="M37,17c0,0-1.997,0.64-3.16,0.414"/><path fill="none" stroke="#fff" stroke-linecap="round" stroke-linejoin="round" stroke-miterlimit="10" stroke-width=".25" d="M6.715,7.644c0,0,6.755,3.804,8.183,5.417"/><path fill="none" stroke="#fff" stroke-linecap="round" stroke-linejoin="round" stroke-miterlimit="10" stroke-width=".25" d="M6.94,9.757c0,0,7.037,3.408,8.401,5.335"/><path fill="none" stroke="#fff" stroke-linecap="round" stroke-linejoin="round" stroke-miterlimit="10" stroke-width=".25" d="M5.702,11.508c0,0,5.64,1.302,9.195,5.274"/><path fill="none" stroke="#fff" stroke-linecap="round" stroke-linejoin="round" stroke-miterlimit="10" stroke-width=".25" d="M4.289,13.196c0,0,6.045,0.91,10.101,5.344"/><path fill="none" stroke="#fff" stroke-linecap="round" stroke-linejoin="round" stroke-miterlimit="10" stroke-width=".25" d="M3.489,15.11c0,0,5.964,0.757,10.273,4.688"/><path fill="none" stroke="#fff" stroke-linecap="round" stroke-linejoin="round" stroke-miterlimit="10" stroke-width=".25" d="M2.688,16.873c0,0,4.343-0.912,10.664,4.466"/><path fill="none" stroke="#fff" stroke-linecap="round" stroke-linejoin="round" stroke-miterlimit="10" stroke-width=".25" d="M2.851,18.524c0,0,4.715-0.644,9.527,3.696"/><path fill="none" stroke="#fff" stroke-linecap="round" stroke-linejoin="round" stroke-miterlimit="10" stroke-width=".25" d="M3.464,20.287c0,0,3.609-0.803,7.677,2.53"/><path fill="none" stroke="#fff" stroke-linecap="round" stroke-linejoin="round" stroke-miterlimit="10" stroke-width=".25" d="M4.439,22c0,0,2.75-0.458,5.328,1.61"/><path fill="none" stroke="#fff" stroke-linecap="round" stroke-linejoin="round" stroke-miterlimit="10" stroke-width=".25" d="M4.326,24.089c0,0,1.188-1.177,4.298,0.17"/><path fill="none" stroke="#fff" stroke-linecap="round" stroke-linejoin="round" stroke-miterlimit="10" stroke-width=".25" d="M4.527,26.164c0,0,1.045-1.266,3.944-0.65"/><path fill="none" stroke="#fff" stroke-linecap="round" stroke-linejoin="round" stroke-miterlimit="10" stroke-width=".25" d="M4.683,28.169c0,0,1.664-2.175,5.751-1.559"/><path fill="none" stroke="#fff" stroke-linecap="round" stroke-linejoin="round" stroke-miterlimit="10" stroke-width=".25" d="M5.353,29.569c0,0,1.951-2.114,5.787-1.863"/><path fill="none" stroke="#fff" stroke-linecap="round" stroke-linejoin="round" stroke-miterlimit="10" stroke-width=".25" d="M6.611,31.112c0,0,1.677-2.63,5.603-2.699"/><path fill="none" stroke="#fff" stroke-linecap="round" stroke-linejoin="round" stroke-miterlimit="10" stroke-width=".25" d="M8.202,32.128c0,0,0.721-2.346,4.547-2.757"/><path fill="none" stroke="#fff" stroke-linecap="round" stroke-linejoin="round" stroke-miterlimit="10" stroke-width=".25" d="M10.095,33.307c0,0,1.962-2.661,3.95-3.028"/><path fill="none" stroke="#fff" stroke-linecap="round" stroke-linejoin="round" stroke-miterlimit="10" stroke-width=".25" d="M12.82,33.182c0,0,0.966-2.143,2.479-2.069"/><path fill="none" stroke="#fff" stroke-linecap="round" stroke-linejoin="round" stroke-miterlimit="10" stroke-width=".25" d="M31.871,17.692c0,0-0.767,0.278-1.584,0.148c0,0,0.119,0.781-0.884,1.319c0,0,1.133,1.337-0.576,1.82c0,0-0.13,0.724-0.891,0.984 c0,0-0.019,1.207,1.337,0.947c0,0-0.111,1.456,1.467,1.09c0,0,0.546,1.626,1.898,1.456"/><path fill="none" stroke="#fff" stroke-linecap="round" stroke-linejoin="round" stroke-miterlimit="10" stroke-width=".25" d="M36.618,19.73c0,0-1.656-1.038-1.338-2.342"/></svg>