<?xml version="1.0"?><svg fill="#000000" xmlns="http://www.w3.org/2000/svg"  viewBox="0 0 50 50" width="50px" height="50px">    <path d="M 19.361328 2 C 15.282328 2 12.300094 4.4832344 11.246094 7.1152344 C 7.1350938 8.0162344 4 12.649 4 18 C 4 19.599 4.3106094 21.201 4.9746094 23 L 10.183594 23 C 10.597594 21.839 11.698 21 13 21 C 14.654 21 16 22.346 16 24 C 16 25.654 14.654 27 13 27 C 11.698 27 10.597594 26.161 10.183594 25 L 5.296875 25 C 4.561875 26.003 4 27.237 4 29 C 4 31.778 5.738375 34.199438 8.609375 35.523438 C 7.812375 37.377437 7.8465625 39.203953 8.7265625 40.751953 C 9.7605625 42.570953 11.835953 43.76375 14.251953 43.96875 C 15.424953 47.12875 18.576328 48 20.361328 48 C 22.021328 48 24 47.189031 24 43.332031 L 24 30 L 18 30 L 18 34.183594 C 19.161 34.597594 20 35.698 20 37 C 20 38.654 18.654 40 17 40 C 15.346 40 14 38.654 14 37 C 14 35.698 14.839 34.597594 16 34.183594 L 16 28 L 24 28 L 24 20 L 18 20 L 18 15 L 15.816406 15 C 15.402406 16.161 14.302 17 13 17 C 11.346 17 10 15.654 10 14 C 10 12.346 11.346 11 13 11 C 14.302 11 15.402406 11.839 15.816406 13 L 20 13 L 20 18 L 24 18 L 24 7.1875 C 24 2.3495 22.247328 2 19.361328 2 z M 30.638672 2 C 27.752672 2 26 2.3495 26 7.1875 L 26 13 L 34.183594 13 C 34.660594 11.664 36.044609 10.754594 37.599609 11.058594 C 38.774609 11.288594 39.730266 12.257547 39.947266 13.435547 C 40.296266 15.336547 38.839 17 37 17 C 35.698 17 34.597594 16.161 34.183594 15 L 26 15 L 26 36 L 30.183594 36 C 30.660594 34.664 32.044609 33.754594 33.599609 34.058594 C 34.774609 34.288594 35.730266 35.257547 35.947266 36.435547 C 36.296266 38.336547 34.839 40 33 40 C 31.698 40 30.597594 39.161 30.183594 38 L 26 38 L 26 43.333984 C 26 47.190984 27.978672 48 29.638672 48 C 31.423672 48 34.575094 47.12875 35.746094 43.96875 C 38.162094 43.76375 40.239438 42.570953 41.273438 40.751953 C 41.695437 40.009953 41.919172 39.203328 41.951172 38.361328 C 41.991172 37.319328 41.54675 36.351109 41.09375 35.412109 C 41.03475 35.287109 41 35.149 41 35 L 41 31 L 32 31 L 32 25.816406 C 30.664 25.340406 29.754594 23.955391 30.058594 22.400391 C 30.288594 21.225391 31.257547 20.269734 32.435547 20.052734 C 34.336547 19.703734 36 21.161 36 23 C 36 24.302 35.161 25.402406 34 25.816406 L 34 29 L 43 29 L 43 34.5625 C 44.89 33.1765 46 31.206 46 29 C 46 26.985 45.266906 25.660031 44.378906 24.582031 C 45.497906 22.104031 46 20.052 46 18 C 46 12.649 42.864906 8.0162344 38.753906 7.1152344 C 37.698906 4.4822344 34.717672 2 30.638672 2 z M 13 13 A 1 1 0 0 0 12 14 A 1 1 0 0 0 13 15 A 1 1 0 0 0 14 14 A 1 1 0 0 0 13 13 z M 37 13 A 1 1 0 0 0 36 14 A 1 1 0 0 0 37 15 A 1 1 0 0 0 38 14 A 1 1 0 0 0 37 13 z M 33 22 A 1 1 0 0 0 32 23 A 1 1 0 0 0 33 24 A 1 1 0 0 0 34 23 A 1 1 0 0 0 33 22 z M 13 23 A 1 1 0 0 0 12 24 A 1 1 0 0 0 13 25 A 1 1 0 0 0 14 24 A 1 1 0 0 0 13 23 z M 17 36 A 1 1 0 0 0 16 37 A 1 1 0 0 0 17 38 A 1 1 0 0 0 18 37 A 1 1 0 0 0 17 36 z M 33 36 A 1 1 0 0 0 32 37 A 1 1 0 0 0 33 38 A 1 1 0 0 0 34 37 A 1 1 0 0 0 33 36 z"/></svg>