<?xml version="1.0"?><svg fill="#000000" xmlns="http://www.w3.org/2000/svg"  viewBox="0 0 50 50" width="50px" height="50px">    <path d="M 12.984375 0.98632812 A 1.0001 1.0001 0 0 0 12 2 L 12 3 L 12 5 L 14 5 L 14 3 L 14 2 A 1.0001 1.0001 0 0 0 12.984375 0.98632812 z M 18.984375 0.98632812 A 1.0001 1.0001 0 0 0 18 2 L 18 3 L 18 5 L 20 5 L 20 3 L 20 2 A 1.0001 1.0001 0 0 0 18.984375 0.98632812 z M 24.984375 0.98632812 A 1.0001 1.0001 0 0 0 24 2 L 24 3 L 24 5 L 26 5 L 26 3 L 26 2 A 1.0001 1.0001 0 0 0 24.984375 0.98632812 z M 30.984375 0.98632812 A 1.0001 1.0001 0 0 0 30 2 L 30 3 L 30 5 L 32 5 L 32 3 L 32 2 A 1.0001 1.0001 0 0 0 30.984375 0.98632812 z M 36.984375 0.98632812 A 1.0001 1.0001 0 0 0 36 2 L 36 3 L 36 5 L 38 5 L 38 3 L 38 2 A 1.0001 1.0001 0 0 0 36.984375 0.98632812 z M 9 6 C 7.343 6 6 7.343 6 9 L 6 41 C 6 42.657 7.343 44 9 44 L 41 44 C 42.657 44 44 42.657 44 41 L 44 9 C 44 7.343 42.657 6 41 6 L 9 6 z M 2 12 A 1.0001 1.0001 0 1 0 2 14 L 3 14 L 5 14 L 5 12 L 3 12 L 2 12 z M 45 12 L 45 14 L 47 14 L 48 14 A 1.0001 1.0001 0 1 0 48 12 L 47 12 L 45 12 z M 2 18 A 1.0001 1.0001 0 1 0 2 20 L 3 20 L 5 20 L 5 18 L 3 18 L 2 18 z M 16 18 L 34 18 L 34 32 L 16 32 L 16 18 z M 45 18 L 45 20 L 47 20 L 48 20 A 1.0001 1.0001 0 1 0 48 18 L 47 18 L 45 18 z M 2 24 A 1.0001 1.0001 0 1 0 2 26 L 3 26 L 5 26 L 5 24 L 3 24 L 2 24 z M 45 24 L 45 26 L 47 26 L 48 26 A 1.0001 1.0001 0 1 0 48 24 L 47 24 L 45 24 z M 2 30 A 1.0001 1.0001 0 1 0 2 32 L 3 32 L 5 32 L 5 30 L 3 30 L 2 30 z M 45 30 L 45 32 L 47 32 L 48 32 A 1.0001 1.0001 0 1 0 48 30 L 47 30 L 45 30 z M 2 36 A 1.0001 1.0001 0 1 0 2 38 L 3 38 L 5 38 L 5 36 L 3 36 L 2 36 z M 45 36 L 45 38 L 47 38 L 48 38 A 1.0001 1.0001 0 1 0 48 36 L 47 36 L 45 36 z M 12 45 L 12 47 L 12 48 A 1.0001 1.0001 0 1 0 14 48 L 14 47 L 14 45 L 12 45 z M 18 45 L 18 47 L 18 48 A 1.0001 1.0001 0 1 0 20 48 L 20 47 L 20 45 L 18 45 z M 24 45 L 24 47 L 24 48 A 1.0001 1.0001 0 1 0 26 48 L 26 47 L 26 45 L 24 45 z M 30 45 L 30 47 L 30 48 A 1.0001 1.0001 0 1 0 32 48 L 32 47 L 32 45 L 30 45 z M 36 45 L 36 47 L 36 48 A 1.0001 1.0001 0 1 0 38 48 L 38 47 L 38 45 L 36 45 z"/></svg>