<svg fill="#000000" xmlns="http://www.w3.org/2000/svg"  viewBox="0 0 50 50" width="50px" height="50px"><path d="M 5 8 C 3.897 8 3 8.897 3 10 L 3 18 L 1 18 A 1.0001 1.0001 0 0 0 0 19 L 0 26 A 1.0001 1.0001 0 0 0 1 27 L 3 27 L 3 30 L 2 30 A 1.0001 1.0001 0 0 0 1 31 L 1 37 A 1.0001 1.0001 0 0 0 2 38 L 3 38 L 3 40 C 3 41.103 3.897 42 5 42 L 47 42 C 47.552 42 48 41.552 48 41 L 48 39.414062 L 49.707031 37.707031 C 49.895031 37.520031 50 37.265 50 37 L 50 19 C 50 18.735 49.895031 18.479969 49.707031 18.292969 L 48 16.585938 L 48 11 C 48 10.728 47.888406 10.467297 47.691406 10.279297 L 45.609375 8.2792969 C 45.423375 8.1002969 45.175969 8 44.917969 8 L 5 8 z M 8 12 L 10 12 C 10.552 12 11 12.448 11 13 L 11 15 C 11 15.552 10.552 16 10 16 L 8 16 C 7.448 16 7 15.552 7 15 L 7 13 C 7 12.448 7.448 12 8 12 z M 14 12 C 14.552 12 15 12.448 15 13 C 15 13.552 14.552 14 14 14 C 13.448 14 13 13.552 13 13 C 13 12.448 13.448 12 14 12 z M 18 12 L 31 12 C 31.552 12 32 12.448 32 13 C 32 13.552 31.552 14 31 14 L 18 14 C 17.448 14 17 13.552 17 13 C 17 12.448 17.448 12 18 12 z M 35 12 L 43 12 C 43.552 12 44 12.448 44 13 C 44 13.552 43.552 14 43 14 L 35 14 C 34.448 14 34 13.552 34 13 C 34 12.448 34.448 12 35 12 z M 27.5 16 C 29.171 16 30.299 16.848109 31 17.662109 C 31.701 16.848109 32.829 16 34.5 16 C 36.43 16 38 17.57 38 19.5 C 38 21.43 36.43 23 34.5 23 C 32.829 23 31.701 22.151891 31 21.337891 C 30.299 22.151891 29.171 23 27.5 23 C 25.57 23 24 21.43 24 19.5 C 24 17.57 25.57 16 27.5 16 z M 27.5 18 C 26.673 18 26 18.673 26 19.5 C 26 20.327 26.673 21 27.5 21 C 28.793 21 29.550906 20.046953 29.878906 19.501953 C 29.548906 18.952953 28.791 18 27.5 18 z M 34.5 18 C 33.207 18 32.448094 18.954 32.121094 19.5 C 32.449094 20.046 33.208 21 34.5 21 C 35.327 21 36 20.327 36 19.5 C 36 18.673 35.327 18 34.5 18 z M 2 20 L 9 20 L 9 25 L 2 25 L 2 20 z M 46 20 C 46.552 20 47 20.448 47 21 C 47 21.552 46.552 22 46 22 C 45.448 22 45 21.552 45 21 C 45 20.448 45.448 20 46 20 z M 15 21 L 17 21 C 17.552 21 18 21.448 18 22 L 18 24 C 18 24.552 17.552 25 17 25 L 15 25 C 14.448 25 14 24.552 14 24 L 14 22 C 14 21.448 14.448 21 15 21 z M 23 25 L 46 25 C 46.552 25 47 25.448 47 26 L 47 30 C 47 30.552 46.552 31 46 31 L 23 31 C 22.448 31 22 30.552 22 30 L 22 26 C 22 25.448 22.448 25 23 25 z M 13.5 30 C 14.328 30 15 30.672 15 31.5 C 15 32.328 14.328 33 13.5 33 C 12.672 33 12 32.328 12 31.5 C 12 30.672 12.672 30 13.5 30 z M 18.5 30 C 19.328 30 20 30.672 20 31.5 C 20 32.328 19.328 33 18.5 33 C 17.672 33 17 32.328 17 31.5 C 17 30.672 17.672 30 18.5 30 z M 3 32 L 5 32 L 9 32 L 9 36 L 3 36 L 3 32 z M 46 34 C 46.552 34 47 34.448 47 35 C 47 35.552 46.552 36 46 36 C 45.448 36 45 35.552 45 35 C 45 34.448 45.448 34 46 34 z M 14 36 C 14.552 36 15 36.448 15 37 C 15 37.552 14.552 38 14 38 C 13.448 38 13 37.552 13 37 C 13 36.448 13.448 36 14 36 z M 21 36 L 31 36 C 31.552 36 32 36.448 32 37 C 32 37.552 31.552 38 31 38 L 21 38 C 20.448 38 20 37.552 20 37 C 20 36.448 20.448 36 21 36 z M 35 36 L 41 36 C 41.552 36 42 36.448 42 37 C 42 37.552 41.552 38 41 38 L 35 38 C 34.448 38 34 37.552 34 37 C 34 36.448 34.448 36 35 36 z"/></svg>