<svg xmlns="http://www.w3.org/2000/svg"  viewBox="0 0 48 48" width="48px" height="48px"><path fill="#43a047" d="M42,8c1.1,0,2,0.9,2,2v30c0,1.1-0.9,2-2,2H6c-1.1,0-2-0.9-2-2V10c0-1.1,0.9-2,2-2H42z"/><path fill="#2e7d32" d="M7 10A1 1 0 1 0 7 12 1 1 0 1 0 7 10zM41 10A1 1 0 1 0 41 12 1 1 0 1 0 41 10zM7 38A1 1 0 1 0 7 40 1 1 0 1 0 7 38zM41 38A1 1 0 1 0 41 40 1 1 0 1 0 41 38z"/><path fill="#f06292" d="M26 6H36V12H26z"/><path fill="#cfd8dc" d="M22 6H24V10H22zM16 6H20V11H16zM24 15H38V29H24z"/><path fill="#37474f" d="M26 17H36V27H26z"/><path fill="#ffecb3" d="M20 36H38V38H20z"/><path fill="#b3e5fc" d="M20 32H38V34H20z"/><path fill="#ffecb3" d="M10 15H12V29H10zM14 15H16V29H14zM18 15H20V29H18z"/><path fill="#cfd8dc" d="M10 32H16V38H10zM28 6H34V8H28z"/><path fill="#b0bec5" d="M10 34H16V36H10z"/></svg>