<svg xmlns="http://www.w3.org/2000/svg"  viewBox="0 0 48 48" width="48px" height="48px"><linearGradient id="9_8BsHgLms0A4KZvKO4QUa" x1="8" x2="15" y1="38" y2="38" gradientUnits="userSpaceOnUse"><stop offset="0" stop-color="#4c4c4c"/><stop offset="1" stop-color="#343434"/></linearGradient><path fill="url(#9_8BsHgLms0A4KZvKO4QUa)" d="M14,41H9c-0.552,0-1-0.448-1-1v-4c0-0.552,0.448-1,1-1h5c0.552,0,1,0.448,1,1v4	C15,40.552,14.552,41,14,41z"/><linearGradient id="9_8BsHgLms0A4KZvKO4QUb" x1="5.008" x2="43.306" y1="6.534" y2="40.747" gradientUnits="userSpaceOnUse"><stop offset="0" stop-color="#21ad64"/><stop offset="1" stop-color="#088242"/></linearGradient><path fill="url(#9_8BsHgLms0A4KZvKO4QUb)" d="M43,39H5c-2.209,0-4-1.791-4-4V12c0-2.209,1.791-4,4-4h38c2.209,0,4,1.791,4,4v23	C47,37.209,45.209,39,43,39z"/><circle cx="42.5" cy="12.5" r="3.5" opacity=".05"/><circle cx="42.5" cy="12.5" r="3" opacity=".07"/><circle cx="42.5" cy="12.5" r="2.5" fill="#edbe00"/><circle cx="42.5" cy="34.5" r="3.5" opacity=".05"/><circle cx="42.5" cy="34.5" r="3" opacity=".07"/><circle cx="42.5" cy="34.5" r="2.5" fill="#edbe00"/><circle cx="5.5" cy="34.5" r="3.5" opacity=".05"/><circle cx="5.5" cy="34.5" r="3" opacity=".07"/><circle cx="5.5" cy="34.5" r="2.5" fill="#edbe00"/><circle cx="5.5" cy="12.5" r="3.5" opacity=".05"/><circle cx="5.5" cy="12.5" r="3" opacity=".07"/><circle cx="5.5" cy="12.5" r="2.5" fill="#edbe00"/><circle cx="20.5" cy="12.5" r="2.5" opacity=".05"/><circle cx="20.5" cy="12.5" r="2" opacity=".07"/><circle cx="20.5" cy="12.5" r="1.5" fill="#edbe00"/><circle cx="13.5" cy="12.5" r="2.5" opacity=".05"/><circle cx="13.5" cy="12.5" r="2" opacity=".07"/><circle cx="13.5" cy="12.5" r="1.5" fill="#edbe00"/><circle cx="27.5" cy="12.5" r="2.5" opacity=".05"/><circle cx="27.5" cy="12.5" r="2" opacity=".07"/><path fill="#edbe00" d="M27.5,11c-0.828,0-1.5,0.672-1.5,1.5s0.672,1.5,1.5,1.5s1.5-0.672,1.5-1.5S28.328,11,27.5,11L27.5,11	z"/><circle cx="34.5" cy="12.5" r="2.5" opacity=".05"/><circle cx="34.5" cy="12.5" r="2" opacity=".07"/><circle cx="34.5" cy="12.5" r="1.5" fill="#edbe00"/><path fill="#edbe00" d="M31,24c-0.552,0-1-0.448-1-1s0.448-1,1-1h2c0.552,0,1,0.448,1,1s-0.448,1-1,1H31z"/><path fill="#edbe00" d="M15,24c-0.552,0-1-0.448-1-1s0.448-1,1-1h2c0.552,0,1,0.448,1,1s-0.448,1-1,1H15z"/><path fill="#edbe00" d="M31,29c-0.552,0-1-0.448-1-1s0.448-1,1-1h2c0.552,0,1,0.448,1,1s-0.448,1-1,1H31z"/><path fill="#edbe00" d="M27,31c0-0.552,0.448-1,1-1s1,0.448,1,1v2c0,0.552-0.448,1-1,1s-1-0.448-1-1V31z"/><path fill="#edbe00" d="M19,31c0-0.552,0.448-1,1-1s1,0.448,1,1v2c0,0.552-0.448,1-1,1s-1-0.448-1-1V31z"/><path fill="#edbe00" d="M27,18c0-0.552,0.448-1,1-1s1,0.448,1,1v2c0,0.552-0.448,1-1,1s-1-0.448-1-1V18z"/><path fill="#edbe00" d="M19,18c0-0.552,0.448-1,1-1s1,0.448,1,1v2c0,0.552-0.448,1-1,1s-1-0.448-1-1V18z"/><path fill="#edbe00" d="M15,29c-0.552,0-1-0.448-1-1s0.448-1,1-1h2c0.552,0,1,0.448,1,1s-0.448,1-1,1H15z"/><path d="M38,24c-1.103,0-2-0.897-2-2v-2c0-1.103,0.897-2,2-2h6c1.103,0,2,0.897,2,2v2c0,1.103-0.897,2-2,2H38	z" opacity=".05"/><path d="M38,23.5c-0.827,0-1.5-0.673-1.5-1.5v-2c0-0.827,0.673-1.5,1.5-1.5h6c0.827,0,1.5,0.673,1.5,1.5v2	c0,0.827-0.673,1.5-1.5,1.5H38z" opacity=".07"/><path fill="#ccc" d="M44,23h-6c-0.55,0-1-0.45-1-1v-2c0-0.55,0.45-1,1-1h6c0.55,0,1,0.45,1,1v2C45,22.55,44.55,23,44,23z"/><path d="M28,35c-1.103,0-2-0.897-2-2h-4c0,1.103-0.897,2-2,2s-2-0.897-2-2h-1c-1.103,0-2-0.897-2-2v-1	c-1.103,0-2-0.897-2-2s0.897-2,2-2v-1c-1.103,0-2-0.897-2-2s0.897-2,2-2h0.586L18,18.586V18c0-1.103,0.897-2,2-2s2,0.897,2,2h4	c0-1.103,0.897-2,2-2s2,0.897,2,2h0.941C32.076,18,33,18.897,33,20v1c1.103,0,2,0.897,2,2s-0.897,2-2,2v1c1.103,0,2,0.897,2,2	s-0.897,2-2,2v1c0,1.103-0.924,2-2.059,2H30C30,34.103,29.103,35,28,35z" opacity=".05"/><path d="M28,34.5c-0.827,0-1.5-0.673-1.5-1.5v-0.5h-5V33c0,0.827-0.673,1.5-1.5,1.5s-1.5-0.673-1.5-1.5v-0.5	H17c-0.827,0-1.5-0.673-1.5-1.5v-1.5H15c-0.827,0-1.5-0.673-1.5-1.5s0.673-1.5,1.5-1.5h0.5v-2H15c-0.827,0-1.5-0.673-1.5-1.5	s0.673-1.5,1.5-1.5h0.813c0.04-0.053,0.082-0.102,0.126-0.146l2.414-2.414c0.045-0.045,0.094-0.087,0.146-0.126V18	c0-0.827,0.673-1.5,1.5-1.5s1.5,0.673,1.5,1.5v0.5h5V18c0-0.827,0.673-1.5,1.5-1.5s1.5,0.673,1.5,1.5v0.5h1.441	c0.86,0,1.559,0.673,1.559,1.5v1.5H33c0.827,0,1.5,0.673,1.5,1.5s-0.673,1.5-1.5,1.5h-0.5v2H33c0.827,0,1.5,0.673,1.5,1.5	s-0.673,1.5-1.5,1.5h-0.5V31c0,0.827-0.699,1.5-1.559,1.5H29.5V33C29.5,33.827,28.827,34.5,28,34.5z" opacity=".07"/><path d="M4,29c-1.103,0-2-0.897-2-2v-7c0-1.103,0.897-2,2-2h6c1.103,0,2,0.897,2,2v7c0,1.103-0.897,2-2,2H4z" opacity=".05"/><path d="M4,28.5c-0.827,0-1.5-0.673-1.5-1.5v-7c0-0.827,0.673-1.5,1.5-1.5h6c0.827,0,1.5,0.673,1.5,1.5v7	c0,0.827-0.673,1.5-1.5,1.5H4z" opacity=".07"/><path fill="#ccc" d="M10,28H4c-0.55,0-1-0.45-1-1v-7c0-0.55,0.45-1,1-1h6c0.55,0,1,0.45,1,1v7C11,27.55,10.55,28,10,28z"/><path d="M38,29c-1.103,0-2-0.897-2-2v-1c0-1.103,0.897-2,2-2h6c1.103,0,2,0.897,2,2v1c0,1.103-0.897,2-2,2H38	z" opacity=".05"/><path d="M38,28.5c-0.827,0-1.5-0.673-1.5-1.5v-1c0-0.827,0.673-1.5,1.5-1.5h6c0.827,0,1.5,0.673,1.5,1.5v1	c0,0.827-0.673,1.5-1.5,1.5H38z" opacity=".07"/><path fill="#ccc" d="M44,28h-6c-0.55,0-1-0.45-1-1v-1c0-0.55,0.45-1,1-1h6c0.55,0,1,0.45,1,1v1C45,27.55,44.55,28,44,28z"/><linearGradient id="9_8BsHgLms0A4KZvKO4QUc" x1="41.5" x2="43.5" y1="12.5" y2="12.5" gradientUnits="userSpaceOnUse"><stop offset="0" stop-color="#4c4c4c"/><stop offset="1" stop-color="#343434"/></linearGradient><circle cx="42.5" cy="12.5" r="1" fill="url(#9_8BsHgLms0A4KZvKO4QUc)"/><linearGradient id="9_8BsHgLms0A4KZvKO4QUd" x1="41.5" x2="43.5" y1="34.5" y2="34.5" gradientUnits="userSpaceOnUse"><stop offset="0" stop-color="#4c4c4c"/><stop offset="1" stop-color="#343434"/></linearGradient><circle cx="42.5" cy="34.5" r="1" fill="url(#9_8BsHgLms0A4KZvKO4QUd)"/><linearGradient id="9_8BsHgLms0A4KZvKO4QUe" x1="4.5" x2="6.5" y1="34.5" y2="34.5" gradientUnits="userSpaceOnUse"><stop offset="0" stop-color="#4c4c4c"/><stop offset="1" stop-color="#343434"/></linearGradient><circle cx="5.5" cy="34.5" r="1" fill="url(#9_8BsHgLms0A4KZvKO4QUe)"/><linearGradient id="9_8BsHgLms0A4KZvKO4QUf" x1="4.5" x2="6.5" y1="12.5" y2="12.5" gradientUnits="userSpaceOnUse"><stop offset="0" stop-color="#4c4c4c"/><stop offset="1" stop-color="#343434"/></linearGradient><circle cx="5.5" cy="12.5" r="1" fill="url(#9_8BsHgLms0A4KZvKO4QUf)"/><linearGradient id="9_8BsHgLms0A4KZvKO4QUg" x1="15.924" x2="33.232" y1="19.867" y2="31.957" gradientUnits="userSpaceOnUse"><stop offset="0" stop-color="#4c4c4c"/><stop offset="1" stop-color="#343434"/></linearGradient><path fill="url(#9_8BsHgLms0A4KZvKO4QUg)" d="M30.941,32H17c-0.552,0-1-0.448-1-1v-8.586c0-0.265,0.105-0.52,0.293-0.707l2.414-2.414	C18.895,19.105,19.149,19,19.414,19h11.527C31.526,19,32,19.448,32,20v11C32,31.552,31.526,32,30.941,32z"/></svg>