<svg fill="#000000" xmlns="http://www.w3.org/2000/svg"  viewBox="0 0 50 50" width="50px" height="50px"><path d="M 5 8 C 3.9069372 8 3 8.9069372 3 10 L 3 18 L 1 18 A 1.0001 1.0001 0 0 0 0 19 L 0 26 A 1.0001 1.0001 0 0 0 1 27 L 3 27 L 3 30 L 2 30 A 1.0001 1.0001 0 0 0 1 31 L 1 37 A 1.0001 1.0001 0 0 0 2 38 L 3 38 L 3 40 C 3 41.093063 3.9069372 42 5 42 L 47 42 A 1.0001 1.0001 0 0 0 48 41 L 48 39.414062 L 49.707031 37.707031 A 1.0001 1.0001 0 0 0 50 37 L 50 19 A 1.0001 1.0001 0 0 0 49.707031 18.292969 L 48 16.585938 L 48 11 A 1.0001 1.0001 0 0 0 47.693359 10.279297 L 45.609375 8.2792969 A 1.0001 1.0001 0 0 0 44.917969 8 L 5 8 z M 5 10 L 44.513672 10 L 46 11.425781 L 46 17 A 1.0001 1.0001 0 0 0 46.292969 17.707031 L 48 19.414062 L 48 36.585938 L 46.292969 38.292969 A 1.0001 1.0001 0 0 0 46 39 L 46 40 L 5 40 L 5 38 L 9 38 A 1.0001 1.0001 0 0 0 10 37 L 10 31 A 1.0001 1.0001 0 0 0 9 30 L 5 30 L 5 27 L 9 27 A 1.0001 1.0001 0 0 0 10 26 L 10 19 A 1.0001 1.0001 0 0 0 9 18 L 5 18 L 5 10 z M 8 12 C 7.448 12 7 12.448 7 13 L 7 15 C 7 15.552 7.448 16 8 16 L 10 16 C 10.552 16 11 15.552 11 15 L 11 13 C 11 12.448 10.552 12 10 12 L 8 12 z M 14 12 A 1 1 0 0 0 13 13 A 1 1 0 0 0 14 14 A 1 1 0 0 0 15 13 A 1 1 0 0 0 14 12 z M 18 12 A 1.0001 1.0001 0 1 0 18 14 L 31 14 A 1.0001 1.0001 0 1 0 31 12 L 18 12 z M 35 12 A 1.0001 1.0001 0 1 0 35 14 L 43 14 A 1.0001 1.0001 0 1 0 43 12 L 35 12 z M 27.5 16 C 25.578812 16 24 17.578812 24 19.5 C 24 21.421188 25.578812 23 27.5 23 C 29.169255 23 30.295353 22.132793 31 21.310547 C 31.704647 22.132793 32.830745 23 34.5 23 C 36.421188 23 38 21.421188 38 19.5 C 38 17.578812 36.421188 16 34.5 16 C 32.830745 16 31.704647 16.867207 31 17.689453 C 30.295353 16.867207 29.169255 16 27.5 16 z M 27.5 18 C 28.969533 18 29.587885 19.022809 29.833984 19.5 C 29.587885 19.977191 28.969533 21 27.5 21 C 26.659188 21 26 20.340812 26 19.5 C 26 18.659188 26.659188 18 27.5 18 z M 34.5 18 C 35.340812 18 36 18.659188 36 19.5 C 36 20.340812 35.340812 21 34.5 21 C 33.030467 21 32.412115 19.977191 32.166016 19.5 C 32.412115 19.022809 33.030467 18 34.5 18 z M 2 20 L 8 20 L 8 25 L 2 25 L 2 20 z M 45 20 A 1 1 0 0 0 44 21 A 1 1 0 0 0 45 22 A 1 1 0 0 0 46 21 A 1 1 0 0 0 45 20 z M 14 21 A 1.0001 1.0001 0 0 0 13 22 L 13 26 A 1.0001 1.0001 0 0 0 14 27 L 18 27 A 1.0001 1.0001 0 0 0 19 26 L 19 22 A 1.0001 1.0001 0 0 0 18 21 L 14 21 z M 15 23 L 17 23 L 17 25 L 15 25 L 15 23 z M 23 25 A 1.0001 1.0001 0 0 0 22 26 L 22 31 A 1.0001 1.0001 0 0 0 23 32 L 45 32 A 1.0001 1.0001 0 0 0 46 31 L 46 26 A 1.0001 1.0001 0 0 0 45 25 L 23 25 z M 24 27 L 44 27 L 44 30 L 24 30 L 24 27 z M 13.5 30 A 1.5 1.5 0 0 0 12 31.5 A 1.5 1.5 0 0 0 13.5 33 A 1.5 1.5 0 0 0 15 31.5 A 1.5 1.5 0 0 0 13.5 30 z M 18.5 30 A 1.5 1.5 0 0 0 17 31.5 A 1.5 1.5 0 0 0 18.5 33 A 1.5 1.5 0 0 0 20 31.5 A 1.5 1.5 0 0 0 18.5 30 z M 3 32 L 8 32 L 8 36 L 3 36 L 3 32 z M 45 35 A 1 1 0 0 0 44 36 A 1 1 0 0 0 45 37 A 1 1 0 0 0 46 36 A 1 1 0 0 0 45 35 z M 14 36 A 1 1 0 0 0 13 37 A 1 1 0 0 0 14 38 A 1 1 0 0 0 15 37 A 1 1 0 0 0 14 36 z M 21 36 A 1.0001 1.0001 0 1 0 21 38 L 31 38 A 1.0001 1.0001 0 1 0 31 36 L 21 36 z M 35 36 A 1.0001 1.0001 0 1 0 35 38 L 41 38 A 1.0001 1.0001 0 1 0 41 36 L 35 36 z"/></svg>