<?xml version="1.0" encoding="UTF-8"?>
<svg xmlns="http://www.w3.org/2000/svg" xmlns:xlink="http://www.w3.org/1999/xlink" viewBox="0 0 50 50" width="50px" height="50px">
<g id="surface3903871">
<path style=" stroke:none;fill-rule:nonzero;fill:rgb(0%,0%,0%);fill-opacity:1;" d="M 21.363281 2 C 15.910156 2 12.40625 4.519531 11.3125 7.222656 C 7.019531 8.132812 4 12.832031 4 17.996094 C 4 20.125 4.617188 22.253906 5.683594 24.617188 C 4.8125 25.6875 4 27.027344 4 29 C 4 31.585938 5.695312 34.082031 8.710938 35.46875 C 7.765625 37.675781 7.96875 39.800781 9.097656 41.316406 C 10.269531 42.890625 12.242188 43.707031 14.359375 43.867188 C 15 45.554688 16.15625 46.726562 17.4375 47.28125 C 18.894531 47.917969 20.386719 48 21.359375 48 C 22.847656 48 24.152344 47.296875 25 46.210938 C 25.847656 47.292969 27.148438 47.988281 28.628906 48 L 28.632812 48 C 29.554688 48.007812 31.039062 47.921875 32.507812 47.289062 C 33.777344 46.742188 34.933594 45.589844 35.59375 43.949219 C 37.191406 43.898438 38.847656 43.660156 40.246094 42.871094 C 41.824219 41.984375 43 40.304688 43 38 C 43 37.097656 42.675781 36.265625 42.289062 35.429688 C 43.574219 34.792969 44.585938 33.976562 45.140625 32.964844 C 45.839844 31.695312 46 30.300781 46 29 C 46 27.007812 45.058594 25.808594 44.144531 24.828125 C 45.230469 22.464844 46.035156 20.179688 46 17.980469 C 45.90625 12.148438 41.976562 8.050781 37.710938 7.207031 C 36.761719 4.707031 34.058594 2 28.636719 2 C 27.273438 2 25.949219 2.351562 25.113281 3.429688 C 25.070312 3.480469 25.039062 3.539062 25 3.597656 C 24.960938 3.539062 24.929688 3.480469 24.886719 3.429688 C 24.050781 2.351562 22.726562 2 21.359375 2 Z M 21.363281 4 C 22.441406 4 22.933594 4.171875 23.308594 4.652344 C 23.679688 5.132812 24 6.210938 24 8.183594 L 24 13.832031 C 23.980469 13.941406 23.980469 14.050781 24 14.160156 L 24 18 L 21 18 L 21 13 L 16.8125 13 C 16.394531 11.84375 15.292969 11 14 11 C 12.355469 11 11 12.355469 11 14 C 11 15.644531 12.355469 17 14 17 C 15.292969 17 16.394531 16.15625 16.8125 15 L 19 15 L 19 20 L 24 20 L 24 28 L 17 28 L 17 34.1875 C 15.84375 34.605469 15 35.707031 15 37 C 15 38.644531 16.355469 40 18 40 C 19.644531 40 21 38.644531 21 37 C 21 35.707031 20.15625 34.605469 19 34.1875 L 19 30 L 24 30 L 24 36.832031 C 23.980469 36.941406 23.980469 37.050781 24 37.160156 L 24 43.332031 C 24 44.96875 22.941406 46 21.363281 46 C 20.519531 46 19.28125 45.902344 18.238281 45.449219 C 17.191406 44.996094 16.347656 44.285156 15.972656 42.757812 L 15.785156 42 L 15 42 C 13.167969 42 11.535156 41.238281 10.699219 40.121094 C 9.867188 39.003906 9.648438 37.546875 10.859375 35.511719 L 11.492188 34.445312 L 10.320312 34.050781 C 7.265625 33.027344 6 30.976562 6 29 C 6 27.28125 6.636719 26.414062 7.542969 25.425781 L 7.929688 25 L 11.1875 25 C 11.605469 26.15625 12.707031 27 14 27 C 15.644531 27 17 25.644531 17 24 C 17 22.355469 15.644531 21 14 21 C 12.707031 21 11.605469 21.84375 11.1875 23 L 7.132812 23 C 6.375 21.152344 6 19.5625 6 17.996094 C 6 13.40625 8.875 9.390625 12.121094 8.992188 L 12.78125 8.910156 L 12.960938 8.273438 C 13.410156 6.699219 16.238281 4 21.363281 4 Z M 28.636719 4 C 33.761719 4 35.515625 6.433594 36.039062 8.273438 L 36.222656 8.914062 L 36.878906 8.992188 C 40.25 9.40625 43.917969 12.828125 44 18.015625 C 44.03125 19.855469 43.277344 22.101562 42.097656 24.570312 L 41.796875 25.203125 L 42.289062 25.703125 C 43.328125 26.757812 44 27.320312 44 29 C 44 30.128906 43.847656 31.167969 43.386719 32.003906 C 43.09375 32.539062 42.652344 33.007812 42 33.417969 L 42 29 L 33 29 L 33 25.8125 C 34.15625 25.394531 35 24.292969 35 23 C 35 21.355469 33.644531 20 32 20 C 30.355469 20 29 21.355469 29 23 C 29 24.292969 29.84375 25.394531 31 25.8125 L 31 31 L 40 31 L 40 34.859375 C 39.964844 35.085938 40.011719 35.320312 40.128906 35.519531 C 40.128906 35.519531 40.128906 35.519531 40.132812 35.519531 C 40.648438 36.578125 41 37.472656 41 38 C 41 39.695312 40.351562 40.515625 39.265625 41.128906 C 38.179688 41.742188 36.574219 42 35 42 L 34.21875 42 L 34.03125 42.761719 C 33.65625 44.273438 32.78125 44.996094 31.71875 45.453125 C 30.65625 45.910156 29.410156 46.003906 28.648438 46 C 27.058594 45.988281 26 44.96875 26 43.332031 L 26 38 L 30.1875 38 C 30.605469 39.15625 31.707031 40 33 40 C 34.644531 40 36 38.644531 36 37 C 36 35.355469 34.644531 34 33 34 C 31.707031 34 30.605469 34.84375 30.1875 36 L 26 36 L 26 29.167969 C 26.019531 29.058594 26.019531 28.949219 26 28.84375 L 26 19.167969 C 26.019531 19.058594 26.019531 18.949219 26 18.84375 L 26 15 L 34.1875 15 C 34.605469 16.15625 35.707031 17 37 17 C 38.644531 17 40 15.644531 40 14 C 40 12.355469 38.644531 11 37 11 C 35.707031 11 34.605469 11.84375 34.1875 13 L 26 13 L 26 8.1875 C 26 6.210938 26.320312 5.132812 26.695312 4.652344 C 27.066406 4.171875 27.558594 4 28.640625 4 Z M 14 13 C 14.542969 13 14.957031 13.410156 14.988281 13.941406 C 14.984375 13.980469 14.984375 14.019531 14.988281 14.058594 C 14.957031 14.59375 14.542969 15 14 15 C 13.4375 15 13 14.5625 13 14 C 13 13.4375 13.4375 13 14 13 Z M 37 13 C 37.5625 13 38 13.4375 38 14 C 38 14.5625 37.5625 15 37 15 C 36.457031 15 36.042969 14.589844 36.011719 14.058594 C 36.015625 14.019531 36.015625 13.980469 36.011719 13.941406 C 36.042969 13.40625 36.457031 13 37 13 Z M 32 22 C 32.5625 22 33 22.4375 33 23 C 33 23.542969 32.589844 23.957031 32.058594 23.988281 C 32.03125 23.988281 32.007812 23.984375 31.984375 23.988281 C 31.96875 23.988281 31.957031 23.988281 31.941406 23.988281 C 31.40625 23.957031 31 23.542969 31 23 C 31 22.4375 31.4375 22 32 22 Z M 14 23 C 14.5625 23 15 23.4375 15 24 C 15 24.5625 14.5625 25 14 25 C 13.457031 25 13.042969 24.589844 13.011719 24.058594 C 13.015625 24.019531 13.015625 23.980469 13.011719 23.941406 C 13.042969 23.40625 13.457031 23 14 23 Z M 33 36 C 33.5625 36 34 36.4375 34 37 C 34 37.5625 33.5625 38 33 38 C 32.457031 38 32.042969 37.589844 32.011719 37.058594 C 32.015625 37.019531 32.015625 36.980469 32.011719 36.941406 C 32.042969 36.40625 32.457031 36 33 36 Z M 17.941406 36.011719 C 17.980469 36.015625 18.019531 36.015625 18.058594 36.011719 C 18.59375 36.042969 19 36.457031 19 37 C 19 37.5625 18.5625 38 18 38 C 17.4375 38 17 37.5625 17 37 C 17 36.457031 17.410156 36.042969 17.941406 36.011719 Z M 17.941406 36.011719 "/>
</g>
</svg>
