<svg fill="#000000" xmlns="http://www.w3.org/2000/svg"  viewBox="0 0 80 80" width="80px" height="80px"><path d="M 11.421875 17 C 10.101843 17 9 18.082999 9 19.40625 L 9 31 L 6 31 A 1.0001 1.0001 0 0 0 5 32 L 5 42 A 1.0001 1.0001 0 0 0 6 43 L 9 43 L 9 48 L 7 48 A 1.0001 1.0001 0 0 0 6 49 L 6 58 A 1.0001 1.0001 0 0 0 7 59 L 9 59 L 9 61.59375 C 9 62.917001 10.101843 64 11.421875 64 L 71 64 A 1.0001 1.0001 0 0 0 72 63 L 72 60.414062 L 74.707031 57.707031 A 1.0001 1.0001 0 0 0 75 57 L 75 32.0625 A 1.0001 1.0001 0 0 0 74.703125 31.351562 L 72.15625 28.832031 L 72.15625 20.810547 A 1.0001 1.0001 0 0 0 71.84375 20.085938 L 68.880859 17.275391 A 1.0001 1.0001 0 0 0 68.193359 17 L 11.421875 17 z M 11.421875 19 L 67.794922 19 L 70.15625 21.240234 L 70.15625 29.248047 A 1.0001 1.0001 0 0 0 70.453125 29.960938 L 73 32.478516 L 73 56.585938 L 70.292969 59.292969 A 1.0001 1.0001 0 0 0 70 60 L 70 62 L 11.421875 62 C 11.171907 62 11 61.822499 11 61.59375 L 11 59 L 18 59 A 1.0001 1.0001 0 0 0 19 58 L 19 49 A 1.0001 1.0001 0 0 0 18 48 L 11 48 L 11 43 L 18 43 A 1.0001 1.0001 0 0 0 19 42 L 19 32 A 1.0001 1.0001 0 0 0 18 31 L 11 31 L 11 19.40625 C 11 19.177501 11.171907 19 11.421875 19 z M 15.5 22 C 14.672 22 14 22.672 14 23.5 L 14 26.5 C 14 27.328 14.672 28 15.5 28 L 18.5 28 C 19.328 28 20 27.328 20 26.5 L 20 23.5 C 20 22.672 19.328 22 18.5 22 L 15.5 22 z M 24.5 22 A 1.5 1.5 0 0 0 24.5 25 A 1.5 1.5 0 0 0 24.5 22 z M 30 23 A 1.0001 1.0001 0 1 0 30 25 A 1.0001 1.0001 0 1 0 30 23 z M 33.599609 23 L 32.798828 23.402344 L 32.640625 24.283203 L 33.253906 24.9375 L 33.599609 25 L 34.400391 24.597656 L 34.558594 23.716797 L 33.947266 23.0625 L 33.599609 23 z M 37.199219 23 L 36.398438 23.402344 L 36.240234 24.283203 L 36.853516 24.9375 L 37.199219 25 L 38.001953 24.597656 L 38.158203 23.716797 L 37.546875 23.0625 L 37.199219 23 z M 40.800781 23 L 39.998047 23.402344 L 39.841797 24.283203 L 40.453125 24.9375 L 40.800781 25 L 41.601562 24.597656 L 41.759766 23.716797 L 41.146484 23.0625 L 40.800781 23 z M 44.400391 23 L 43.599609 23.402344 L 43.441406 24.283203 L 44.052734 24.9375 L 44.400391 25 L 45.201172 24.597656 L 45.359375 23.716797 L 44.746094 23.0625 L 44.400391 23 z M 48 23 A 1.0001 1.0001 0 1 0 48 25 L 48 23 z M 54 23 L 54 25 A 1.0001 1.0001 0 1 0 54 23 z M 58 23 L 57.199219 23.402344 L 57.041016 24.283203 L 57.652344 24.9375 L 58 25 L 58.800781 24.597656 L 58.958984 23.716797 L 58.347656 23.0625 L 58 23 z M 62 23 L 61.199219 23.402344 L 61.041016 24.283203 L 61.652344 24.9375 L 62 25 L 62.800781 24.597656 L 62.958984 23.716797 L 62.347656 23.0625 L 62 23 z M 66 23 A 1.0001 1.0001 0 1 0 66 25 L 66 23 z M 43.542969 28 C 41.052158 28 39 30.020354 39 32.5 C 39 34.979646 41.052158 37 43.542969 37 C 46.319345 37 47.681886 35.49532 48.5 34.273438 C 49.318163 35.495375 50.680738 37 53.457031 37 C 55.947842 37 58 34.979646 58 32.5 C 58 30.020354 55.947842 28 53.457031 28 C 50.680655 28 49.318114 29.504679 48.5 30.726562 C 47.681886 29.504679 46.319345 28 43.542969 28 z M 43.542969 30 C 46.048829 30 47.058664 31.932552 47.328125 32.5 C 47.058664 33.067448 46.048829 35 43.542969 35 C 42.119779 35 41 33.886354 41 32.5 C 41 31.113646 42.119779 30 43.542969 30 z M 53.457031 30 C 54.880221 30 56 31.113646 56 32.5 C 56 33.886354 54.880221 35 53.457031 35 C 50.95014 35 49.941102 33.067403 49.671875 32.5 C 49.941336 31.932552 50.951171 30 53.457031 30 z M 7 33 L 17 33 L 17 41 L 7 41 L 7 33 z M 68.5 34 C 67.672 34 67 34.672 67 35.5 C 67 36.328 67.672 37 68.5 37 C 69.328 37 70 36.328 70 35.5 C 70 34.672 69.328 34 68.5 34 z M 24 35 A 1.0001 1.0001 0 0 0 23 36 L 23 42 A 1.0001 1.0001 0 0 0 24 43 L 30 43 A 1.0001 1.0001 0 0 0 31 42 L 31 36 A 1.0001 1.0001 0 0 0 30 35 L 24 35 z M 25 37 L 29 37 L 29 41 L 25 41 L 25 37 z M 37 41 A 1.0001 1.0001 0 0 0 36 42 L 36 49 A 1.0001 1.0001 0 0 0 37 50 L 68 50 A 1.0001 1.0001 0 0 0 69 49 L 69 42 A 1.0001 1.0001 0 0 0 68 41 L 37 41 z M 38 43 L 67 43 L 67 48 L 38 48 L 38 43 z M 24 48 A 2 2 0 0 0 24 52 A 2 2 0 0 0 24 48 z M 31 48 A 2 2 0 0 0 31 52 A 2 2 0 0 0 31 48 z M 8 50 L 17 50 L 17 57 L 8 57 L 8 50 z M 68.5 53 C 67.672 53 67 53.672 67 54.5 C 67 55.328 67.672 56 68.5 56 C 69.328 56 70 55.328 70 54.5 C 70 53.672 69.328 53 68.5 53 z M 24.5 56 A 1.5 1.5 0 0 0 24.5 59 A 1.5 1.5 0 0 0 24.5 56 z M 34 57 L 34 59 A 1.0001 1.0001 0 1 0 34 57 z M 37.75 57 L 36.949219 57.402344 L 36.791016 58.283203 L 37.402344 58.9375 L 37.75 59 L 38.550781 58.597656 L 38.708984 57.716797 L 38.097656 57.0625 L 37.75 57 z M 41.5 57 L 40.699219 57.402344 L 40.541016 58.283203 L 41.152344 58.9375 L 41.5 59 L 42.300781 58.597656 L 42.458984 57.716797 L 41.847656 57.0625 L 41.5 57 z M 45.25 57 L 44.449219 57.402344 L 44.291016 58.283203 L 44.902344 58.9375 L 45.25 59 L 46.050781 58.597656 L 46.208984 57.716797 L 45.597656 57.0625 L 45.25 57 z M 49 57 A 1.0001 1.0001 0 1 0 49 59 L 49 57 z M 55 57 L 55 59 A 1.0001 1.0001 0 1 0 55 57 z M 59 57 L 58.199219 57.402344 L 58.041016 58.283203 L 58.652344 58.9375 L 59 59 L 59.800781 58.597656 L 59.958984 57.716797 L 59.347656 57.0625 L 59 57 z M 63 57 A 1.0001 1.0001 0 1 0 63 59 A 1.0001 1.0001 0 1 0 63 57 z"/></svg>