<svg xmlns="http://www.w3.org/2000/svg" data-name="Layer 1" viewBox="0 0 64 64"><path fill="#e3fcfd" d="M51.86,14.87a26.86821,26.86821,0,0,1-9.27,7.25C40.78,12.09,36.27,5,31,5A26.90629,26.90629,0,0,1,51.86,14.87Z"/><path fill="#e3fcfd" d="M58 32a26.82522 26.82522 0 0 1-6.14 17.13 26.86679 26.86679 0 0 0-9.27-7.25A55.12569 55.12569 0 0 0 43.46 32a55.12569 55.12569 0 0 0-.87-9.88 26.86821 26.86821 0 0 0 9.27-7.25A26.82509 26.82509 0 0 1 58 32zM18.54 32a55.12569 55.12569 0 0 0 .87 9.88 26.86679 26.86679 0 0 0-9.27 7.25 26.96548 26.96548 0 0 1 0-34.26 26.86821 26.86821 0 0 0 9.27 7.25A55.12569 55.12569 0 0 0 18.54 32z"/><path fill="#e3fcfd" d="M31 5c-5.27 0-9.78 7.09-11.59 17.12a26.86821 26.86821 0 0 1-9.27-7.25A26.90629 26.90629 0 0 1 31 5zM31 59a26.90648 26.90648 0 0 1-20.86-9.87 26.86679 26.86679 0 0 1 9.27-7.25C21.22 51.91 25.73 59 31 59zM51.86 49.13A26.90648 26.90648 0 0 1 31 59c5.27 0 9.78-7.09 11.59-17.12A26.86679 26.86679 0 0 1 51.86 49.13z"/><path fill="#e3fcfd" d="M42.59,22.12A26.90839,26.90839,0,0,1,31,24.73a26.90839,26.90839,0,0,1-11.59-2.61C21.22,12.09,25.73,5,31,5S40.78,12.09,42.59,22.12Z"/><path fill="#e3fcfd" d="M43.46,32a55.12569,55.12569,0,0,1-.87,9.88,27.03811,27.03811,0,0,0-23.18006,0,56.53587,56.53587,0,0,1,0-19.76A26.90839,26.90839,0,0,0,31,24.73a26.90839,26.90839,0,0,0,11.59-2.61A55.12569,55.12569,0,0,1,43.46,32Z"/><path fill="#e3fcfd" d="M42.59,41.88C40.78,51.91,36.27,59,31,59s-9.78-7.09-11.59-17.12a27.03811,27.03811,0,0,1,23.18006,0Z"/><path fill="#42eaf5" d="M53.967,58.703l-5.736-5.736L45.11663,56.0814a1.014,1.014,0,0,1-1.68543-.41646L38.04706,38.316a1.014,1.014,0,0,1,1.269-1.269L56.66494,42.4312a1.014,1.014,0,0,1,.41646,1.68543L53.967,47.231l5.736,5.736a1.014,1.014,0,0,1,0,1.434l-4.302,4.302A1.014,1.014,0,0,1,53.967,58.703Z"/><path fill="#007da1" d="M37.42676,56.17792A25.30043,25.30043,0,0,1,31,57.01091c-3.78931,0-7.51862-5.65251-9.31348-13.93187A24.78113,24.78113,0,0,1,31,41.281c1.48341.16225,3.03532-.16769,3.12888-1.92491.01722-1.7886-1.6448-2.21014-3.12892-2.075a28.76167,28.76167,0,0,0-10.00588,1.78447,54.34651,54.34651,0,0,1-.454-7.05462,55.01644,55.01644,0,0,1,.44592-7.0531A29.015,29.015,0,0,0,31,26.74189a29.01516,29.01516,0,0,0,10.0105-1.78278A55.30194,55.30194,0,0,1,41.46,32.06073a2.00036,2.00036,0,0,0,4-.04989c-.25583-13.33408-2.78549-5.32792,6.25143-13.98689A24.85873,24.85873,0,0,1,56,32.01093a25.12269,25.12269,0,0,1-.34277,4.12109,1.99947,1.99947,0,0,0,1.64355,2.30176c3.2.33432,2.46409-4.36989,2.69941-6.42281C59.75261,4.64676,25.74377-7.25288,8.51143,13.72661c-8.56749,10.06784-8.676,26.41422.06851,36.6645a29.077,29.077,0,0,0,29.87416,9.653,2.00019,2.00019,0,0,0-1.02734-3.86621ZM31,22.74189a25.0011,25.0011,0,0,1-9.32373-1.79731C23.54523,12.3899,27.41992,7.01093,31,7.01093c3.5777,0,7.44965,5.37146,9.32007,13.935A25.00057,25.00057,0,0,1,31,22.74189Zm18.18652-7.8581a24.95313,24.95313,0,0,1-5.189,4.21973A32.32033,32.32033,0,0,0,39.58362,8.52924,25.06918,25.06918,0,0,1,49.18652,14.88379ZM22.41638,8.52924a32.32033,32.32033,0,0,0-4.41394,10.57428,24.95313,24.95313,0,0,1-5.189-4.21973A25.06918,25.06918,0,0,1,22.41638,8.52924ZM10.28894,18.02381a28.90225,28.90225,0,0,0,6.89789,5.22863A58.995,58.995,0,0,0,17.208,40.76782a29.10884,29.10884,0,0,0-6.91653,5.22675A25.12683,25.12683,0,0,1,10.28894,18.02381ZM12.80988,49.1413a25.10984,25.10984,0,0,1,5.20166-4.22064,31.97987,31.97987,0,0,0,4.3811,10.5592A24.89777,24.89777,0,0,1,12.80988,49.1413Z"/><path fill="#007da1" d="M56.79492 47.24189l1.7002-1.69922A3.03278 3.03278 0 0 0 57.25773 40.532L39.9082 35.14716a3.03477 3.03477 0 0 0-3.7714 3.77253l5.38468 17.34807a3.03163 3.03163 0 0 0 5.00881 1.23918l1.70116-1.7006 4.32128 4.32178a3.01884 3.01884 0 0 0 4.2627 0l4.30273-4.30274a3.01985 3.01985 0 0 0-.001-4.26172zm-2.11035 9.36084l-5.03906-5.03907a2.01151 2.01151 0 0 0-2.82813-.00046l-1.96 1.95994-4.34472-14 14 4.34472-1.96 1.96a2.011 2.011 0 0 0 0 2.82813l5.039 5.03906zM31 14.01093a2.00021 2.00021 0 0 0 .00009 4A2.00021 2.00021 0 0 0 31 14.01093z"/></svg>