<svg xmlns="http://www.w3.org/2000/svg" enable-background="new 0 0 24 24" viewBox="0 0 24 24"><path d="M7.691,0c-0.121,0.004-0.252,0.049-0.4,0.166c-0.363-0.14-0.715-0.189-1.03,0.096C5.774,0.199,5.616,0.329,5.496,0.481C5.389,0.479,4.698,0.372,4.38,0.845C3.583,0.751,3.331,1.314,3.616,1.839C3.453,2.091,3.285,2.341,3.665,2.821c-0.135,0.268-0.051,0.558,0.266,0.91C3.848,4.107,4.013,4.373,4.308,4.58C4.253,5.095,4.78,5.394,4.938,5.501c0.06,0.3,0.187,0.583,0.789,0.74c0.099,0.447,0.461,0.524,0.812,0.618c-1.159,0.674-2.153,1.56-2.146,3.735l-0.17,0.303c-1.329,0.808-2.525,3.406-0.655,5.517c0.122,0.661,0.327,1.136,0.509,1.661C4.35,20.191,6.13,21.182,6.6,21.3c0.688,0.524,1.421,1.021,2.412,1.37c0.935,0.964,1.947,1.331,2.965,1.331c0.015,0,2.076-0.367,3.011-1.331c0.992-0.348,1.724-0.846,2.412-1.37c0.469-0.117,2.249-1.109,2.522-3.225c0.182-0.525,0.387-1,0.509-1.661c1.87-2.111,0.674-4.709-0.655-5.517l-0.17-0.303c0.007-2.175-0.987-3.061-2.146-3.735c0.351-0.094,0.713-0.171,0.812-0.618c0.602-0.157,0.729-0.44,0.789-0.74c0.158-0.107,0.685-0.406,0.63-0.921c0.295-0.207,0.46-0.472,0.376-0.849c0.317-0.351,0.401-0.642,0.266-0.91c0.381-0.48,0.212-0.73,0.049-0.982c0.285-0.525,0.034-1.089-0.764-0.994c-0.317-0.473-1.009-0.366-1.116-0.364c-0.12-0.152-0.278-0.282-0.764-0.219c-0.315-0.285-0.667-0.236-1.03-0.096c-0.431-0.34-0.717-0.068-1.042,0.036c-0.522-0.171-0.642,0.063-0.898,0.158c-0.569-0.12-0.742,0.142-1.015,0.418l-0.318-0.006c-0.859,0.506-1.285,1.537-1.437,2.066c-0.151-0.53-0.577-1.56-1.436-2.066l-0.318,0.006C9.973,0.501,9.8,0.239,9.231,0.36C8.974,0.264,8.855,0.031,8.332,0.201C8.119,0.134,7.922-0.007,7.691,0L7.691,0z"/><path fill="#75A928" d="M5.981,2.227c2.278,1.175,3.603,2.125,4.329,2.934C9.938,6.651,7.999,6.719,7.29,6.677C7.435,6.609,7.557,6.528,7.6,6.404C7.422,6.278,6.791,6.391,6.351,6.143C6.52,6.108,6.599,6.074,6.678,5.949C6.262,5.817,5.814,5.702,5.55,5.482c0.142,0.002,0.275,0.032,0.461-0.097c-0.373-0.201-0.77-0.36-1.079-0.667c0.193-0.005,0.4-0.002,0.461-0.073C5.052,4.435,4.764,4.2,4.526,3.943C4.795,3.975,4.909,3.947,4.974,3.9C4.717,3.636,4.39,3.413,4.235,3.088c0.2,0.069,0.383,0.095,0.515-0.006C4.662,2.884,4.287,2.768,4.071,2.306c0.211,0.02,0.434,0.046,0.479,0C4.452,1.907,4.284,1.683,4.12,1.451c0.451-0.007,1.134,0.002,1.103-0.036L4.944,1.13c0.441-0.119,0.891,0.019,1.219,0.121C6.31,1.135,6.16,0.988,5.981,0.839C6.355,0.889,6.694,0.975,7,1.093c0.163-0.147-0.106-0.295-0.236-0.443c0.578,0.11,0.823,0.264,1.067,0.418C8.007,0.9,7.84,0.756,7.721,0.608c0.436,0.162,0.661,0.37,0.897,0.576c0.08-0.108,0.204-0.188,0.055-0.449c0.31,0.178,0.543,0.389,0.715,0.624C9.58,1.238,9.502,1.071,9.503,0.918c0.322,0.262,0.526,0.54,0.776,0.812c0.05-0.037,0.094-0.161,0.133-0.358c0.768,0.745,1.852,2.621,0.279,3.365C9.352,3.632,7.753,2.829,5.981,2.227L5.981,2.227L5.981,2.227z M18.07,2.227c-2.278,1.175-3.603,2.125-4.328,2.934c0.372,1.489,2.31,1.557,3.019,1.516c-0.145-0.068-0.266-0.149-0.309-0.273c0.178-0.126,0.809-0.013,1.249-0.261c-0.169-0.035-0.248-0.069-0.327-0.194c0.416-0.133,0.864-0.247,1.128-0.467c-0.142,0.002-0.275,0.032-0.461-0.097c0.373-0.201,0.77-0.36,1.079-0.667c-0.193-0.005-0.4-0.002-0.461-0.073C19,4.435,19.287,4.2,19.526,3.943c-0.27,0.033-0.383,0.005-0.449-0.042c0.258-0.264,0.584-0.487,0.74-0.812c-0.2,0.069-0.383,0.095-0.515-0.006c0.088-0.198,0.463-0.314,0.679-0.776c-0.211,0.02-0.434,0.046-0.479,0c0.098-0.399,0.266-0.623,0.43-0.855c-0.451-0.007-1.134,0.002-1.103-0.036l0.279-0.285c-0.441-0.119-0.891,0.019-1.219,0.121c-0.147-0.116,0.003-0.263,0.182-0.412c-0.374,0.05-0.713,0.136-1.018,0.255c-0.163-0.147,0.106-0.295,0.236-0.443c-0.578,0.11-0.823,0.264-1.067,0.418c-0.177-0.169-0.01-0.313,0.109-0.461c-0.436,0.162-0.661,0.37-0.897,0.576c-0.08-0.108-0.204-0.188-0.055-0.449c-0.31,0.178-0.543,0.389-0.715,0.624c-0.192-0.122-0.114-0.289-0.115-0.443c-0.322,0.262-0.526,0.54-0.776,0.812c-0.05-0.037-0.094-0.161-0.133-0.358c-0.768,0.745-1.852,2.621-0.279,3.365C14.698,3.632,16.298,2.829,18.07,2.227L18.07,2.227L18.07,2.227z"/><path fill="#BC1142" d="M14.785,17.394c0.008,1.39-1.208,2.523-2.715,2.53c-1.507,0.007-2.736-1.113-2.744-2.503c0-0.009,0-0.018,0-0.027c-0.008-1.39,1.207-2.523,2.715-2.53s2.736,1.113,2.744,2.503L14.785,17.394L14.785,17.394z M10.476,10.205c1.131,0.741,1.335,2.42,0.455,3.751c-0.879,1.331-2.509,1.809-3.64,1.068c-1.131-0.741-1.335-2.42-0.455-3.751C7.716,9.942,9.346,9.464,10.476,10.205L10.476,10.205z M13.529,10.07c-1.131,0.741-1.335,2.42-0.455,3.751c0.879,1.331,2.509,1.809,3.64,1.068c1.131-0.741,1.335-2.42,0.455-3.751C16.289,9.808,14.66,9.33,13.529,10.07L13.529,10.07z M4.825,11.416c1.221-0.327,0.412,5.051-0.581,4.61C3.151,15.147,2.799,12.573,4.825,11.416L4.825,11.416z M18.934,11.349c-1.221-0.327-0.412,5.051,0.581,4.61C20.608,15.08,20.96,12.506,18.934,11.349L18.934,11.349z M14.786,7.344c2.107-0.356,3.86,0.896,3.789,3.181C18.506,11.401,14.009,7.474,14.786,7.344L14.786,7.344z M8.964,7.277c-2.107-0.356-3.86,0.896-3.789,3.181C5.244,11.333,9.74,7.407,8.964,7.277L8.964,7.277z M11.991,6.744c-1.258-0.033-2.464,0.933-2.467,1.494c-0.003,0.681,0.994,1.378,2.476,1.396c1.513,0.011,2.479-0.558,2.483-1.261C14.488,7.576,13.107,6.732,11.991,6.744L11.991,6.744L11.991,6.744z M12.068,20.705c1.096-0.048,2.568,0.353,2.571,0.885c0.018,0.517-1.334,1.684-2.643,1.661c-1.356,0.059-2.685-1.11-2.668-1.516C9.307,21.142,10.978,20.678,12.068,20.705L12.068,20.705z M8.018,17.553c0.781,0.94,1.137,2.593,0.485,3.08c-0.616,0.372-2.113,0.219-3.177-1.31c-0.717-1.282-0.625-2.587-0.121-2.971C5.958,15.893,7.122,16.513,8.018,17.553L8.018,17.553L8.018,17.553z M15.961,17.255c-0.845,0.989-1.315,2.794-0.699,3.375c0.589,0.451,2.171,0.388,3.339-1.233c0.848-1.089,0.564-2.907,0.08-3.389C17.961,15.451,16.927,16.163,15.961,17.255L15.961,17.255L15.961,17.255z"/><path d="M18.098,2.337c-0.135,0.07-0.256,0.136-0.384,0.204c0.116-0.041,0.226-0.089,0.343-0.129L18.098,2.337z"/></svg>