<svg xmlns="http://www.w3.org/2000/svg" width="64" height="64" version="1">
 <rect style="opacity:0.2" width="56" height="50" x="4" y="8" rx="4.2" ry="4.167"/>
 <rect style="fill:#f44336" width="56" height="50" x="4" y="7" rx="4.2" ry="4.167"/>
 <rect style="opacity:0.2" width="17" height="6" x="26" y="30" rx="1.417" ry="1.5"/>
 <rect style="fill:#ffffff" width="17" height="6" x="26" y="29" rx="1.417" ry="1.5"/>
 <rect style="opacity:0.2" width="16.763" height="5.588" x="-17.21" y="30.21" rx="1.397" ry="1.397" transform="matrix(0.72400601,-0.68979366,0.72400601,0.68979366,0,0)"/>
 <rect style="fill:#faa19b" width="16.763" height="5.588" x="-16.49" y="29.48" rx="1.397" ry="1.397" transform="matrix(0.72400601,-0.68979366,0.72400601,0.68979366,0,0)"/>
 <rect style="opacity:0.2" width="16.763" height="5.588" x="19.03" y="-6.04" rx="1.397" ry="1.397" transform="matrix(0.72400601,0.68979366,0.72400601,-0.68979366,0,0)"/>
 <rect style="fill:#ffffff" width="16.763" height="5.588" x="18.31" y="-5.31" rx="1.397" ry="1.397" transform="matrix(0.72400601,0.68979366,0.72400601,-0.68979366,0,0)"/>
 <path style="opacity:0.2;fill:#ffffff" d="M 8.1992188 7 C 5.8724187 7 4 8.8596354 4 11.167969 L 4 12.167969 C 4 9.8596354 5.8724187 8 8.1992188 8 L 55.800781 8 C 58.127581 8 60 9.8596354 60 12.167969 L 60 11.167969 C 60 8.8596354 58.127581 7 55.800781 7 L 8.1992188 7 z"/>
</svg>
