<svg xmlns="http://www.w3.org/2000/svg" width="2490" height="2500" preserveAspectRatio="xMinYMin meet" viewBox="0 0 256 257"><path fill="#019833" d="M128.286 1.952L1.945 127.885 128.286 254.4l125.761-126.515L128.286 1.952"/><path fill="#66FE98" d="M128.264 13.516V2.885L2.774 127.908h10.753L128.264 13.516"/><path fill="#45FE02" d="M128.264 13.516V2.885l125.88 125.023h-11.636L128.264 13.516"/><path fill="#017D17" d="M128.264 242.836v11.769L2.774 127.908h10.753l114.737 114.928"/><path fill="#005D04" d="M128.264 242.836v11.769l125.88-126.697h-11.636L128.264 242.836"/><path d="M65.226 230.591H40.9l-9.5-9.258V44.55h-7.54l-6.455-6.464V18.325l6.687-7.253h85.075l7.649 7.658v18.756l-6.356 7.747h-6.428v59.758l60.487-59.758h-3.377l-7.035-7.587V17.758l6.912-6.345h85.872l6.796 6.805v18.81L65.226 230.591"/><path d="M128.264 256.342L0 127.908 128.264 0 256 127.908 128.264 256.342zM3.929 127.908L128.264 252.41l123.805-124.502L128.264 3.935 3.929 127.908z"/><path fill="#FEFEFE" d="M108.075 22.742l3.779-2.441-3.861-4.008H26.156l-4.158 4.164v15.75l4.61 4.616 2.199-4.616-2.892-2.897V22.207l2.169-1.931 77.264.095 2.727 2.371"/><path fill="#FEFEFE" d="M41.458 35.833v184.334l2.592 2.468-2.077 3.925-5.451-5.369V40.612l4.936-4.779"/><path fill="gray" d="M28.236 35.833l-1.628 4.99h9.886l5.719-4.99H28.236"/><path fill="#FEFEFE" d="M166.531 35.897l-3.457-2.442v-9.896l3.616-3.621h75.449l2.893 3.862 4.117-3.249-4.238-3.872h-81.114l-4.038 4.043v15.871l4.252 3.848m-65.615 76.31l-7.879 19.144 88.948-89.309-.435-10.804-80.634 80.969"/><path fill="gray" d="M107.897 22.671l3.957-2.37v15.532l-4.517 4.523h-8.778l-.163 76.395-7.849 19.1V35.833h14.659l2.727-2.219-.036-10.943M244.764 22.722l4.385-2.171v14.183L62.408 226.56H41.973l1.994-3.77 15.695.001L244.791 31.379l-.027-8.657M179.03 35.782l-4.548 4.569-10.471.09 2.557-4.59 12.462-.069"/><path fill="#CCC" d="M165.973 19.79l-2.89 2.893v10.624l2.531 2.534h13.372v10.265l-88.46 89.783V35.968h14.701l3.016-3.02V22.197l-2.784-2.154H28.093l-2.531 2.535V33.56l2.573 2.577h13.457v184.002l2.531 2.534h15.292L244.794 31.131v-8.448l-2.89-2.893h-75.931"/><path fill="gray" d="M59.519 222.918H44.022l-2.674-2.678V36.381H28.034l-2.716-2.72V22.476l2.674-2.677h77.551l2.945 2.278v10.972l-3.159 3.163H90.77v99.081l87.972-89.288v-9.919h-13.229l-2.674-2.678V22.582l3.032-3.037h76.134l3.033 3.037v8.648l-.068.071L59.519 222.918zm-15.294-.489h15.087L244.55 31.033v-8.249l-2.747-2.75h-75.729l-2.747 2.75v10.422l2.388 2.391h13.516v10.609l-.07.071-88.879 90.208V35.724h14.844l2.873-2.878V22.317l-2.623-2.03H28.194l-2.388 2.392v10.78l2.431 2.434h13.599v184.144l2.389 2.392z"/><path fill="#CCC" d="M134.566 143.819a.834.834 0 0 0-.38.19l-3.585 3.083a.84.84 0 0 0-.232.359l-3.586 10.054a.835.835 0 0 0 .19.866l2.742 2.745a.835.835 0 0 0 .591.233h11.073a.83.83 0 0 0 .59-.233l2.89-2.914c.1-.1.172-.224.211-.359l3.08-10.582a.835.835 0 0 0-.211-.823l-2.384-2.387a.827.827 0 0 0-.59-.232h-10.23a.796.796 0 0 0-.169 0zm-20.29 28.343a.833.833 0 0 0-.633.613l-1.371 5.449a.833.833 0 0 0 .801 1.035h6.518l-16.157 46.19a.833.833 0 0 0 .781 1.099h23.517a.834.834 0 0 0 .802-.571l1.54-4.963a.834.834 0 0 0-.802-1.077h-5.315l15.988-46.676a.833.833 0 0 0-.781-1.099h-24.72a.943.943 0 0 0-.168 0zm74.835.169a.835.835 0 0 0-.465.275l-4.893 5.533h-7.783l-5.189-5.385a.828.828 0 0 0-.59-.254h-18.582a.832.832 0 0 0-.781.549l-1.708 5.112a.834.834 0 0 0 .78 1.098h4.978l-15.482 45.683a.835.835 0 0 0 .781 1.099h19.784a.833.833 0 0 0 .781-.549l1.518-4.457a.833.833 0 0 0-.78-1.098h-3.459l9.871-31.111h17.865l-11.263 36.138a.832.832 0 0 0 .801 1.077h19.088a.834.834 0 0 0 .76-.507l1.708-4.098a.832.832 0 0 0-.759-1.14h-3.459l10.04-31.639h17l-11.432 36.307a.833.833 0 0 0 .802 1.077h20.965a.835.835 0 0 0 .781-.528l1.708-4.457a.833.833 0 0 0-.78-1.119h-4.156l12.635-41.079a.836.836 0 0 0-.127-.761l-3.923-5.28a.832.832 0 0 0-.675-.317h-14.996a.829.829 0 0 0-.612.254l-4.725 5.195h-8.268l-4.893-5.364a.83.83 0 0 0-.612-.254h-12.086a.943.943 0 0 0-.168 0z"/><path d="M128.359 162.524c.523.504 1.207.78 1.901.78l.046-.001h11.039c.742.023 1.444-.263 2.013-.81l2.883-2.909c.334-.334.579-.751.706-1.195l3.079-10.58a2.785 2.785 0 0 0-.705-2.752l-2.409-2.413a2.713 2.713 0 0 0-1.947-.78h-10.16a2.756 2.756 0 0 0-.436.01l-.205.032c-.47.099-.909.318-1.252.62l-3.586 3.084-.041.037c-.349.318-.612.72-.764 1.167l-3.578 10.031a2.81 2.81 0 0 0 .647 2.907l2.769 2.772zm16.154-16.751l1.575 1.577-2.816 9.676-2.346 2.368-10.168.001-1.897-1.9 3.257-9.13 3.014-2.592h9.381zM241.638 176.931l-3.923-5.28-.035-.045a2.792 2.792 0 0 0-2.225-1.06h-14.948a2.763 2.763 0 0 0-2.049.848l-4.184 4.601h-6.541l-4.312-4.727-.04-.043a2.818 2.818 0 0 0-2.016-.848h-12.016a2.759 2.759 0 0 0-.436.01l-.202.031a2.78 2.78 0 0 0-1.529.893l-4.31 4.874h-6.071l-4.615-4.79a2.81 2.81 0 0 0-1.995-.849h-18.588a2.796 2.796 0 0 0-2.612 1.837l-1.724 5.155a2.792 2.792 0 0 0 2.633 3.675h2.252l-14.61 43.11a2.794 2.794 0 0 0 1.757 3.528c.277.092.565.141.878.144h19.79a2.807 2.807 0 0 0 2.625-1.873l1.522-4.466a2.793 2.793 0 0 0-2.634-3.674h-.789l8.631-27.201H183.1l-10.476 33.611a2.791 2.791 0 0 0 1.847 3.48 3.1 3.1 0 0 0 .824.123H194.4a2.79 2.79 0 0 0 2.547-1.709l1.722-4.13a2.79 2.79 0 0 0-2.577-3.815h-.788l8.799-27.729h12.905l-10.637 33.782a2.792 2.792 0 0 0 2.657 3.601H229.995a2.817 2.817 0 0 0 2.619-1.783l1.719-4.485a2.791 2.791 0 0 0-2.616-3.745h-1.51l11.847-38.518a2.788 2.788 0 0 0-.416-2.533zm-16.723 44.96h5.169l-.842 2.195h-18.676l11.772-37.383h-21.096l-11.28 35.548h4.432l-.765 1.835h-16.815l11.599-37.214h-21.952l-11.111 35.019h4.554l-.748 2.195H141.75l15.854-46.782h-6.137l.952-2.849h17.287l5.433 5.639h9.495l5.135-5.808 11.114-.001 5.124 5.619h9.996l4.955-5.449h13.97l3.236 4.356-13.249 43.08zM130.096 218.105a3.01 3.01 0 0 0-.824-.123h-2.58l15.106-44.099a2.792 2.792 0 0 0-2.634-3.675h-24.65a2.771 2.771 0 0 0-.437.01l-.213.034a2.769 2.769 0 0 0-2.117 2.046l-1.372 5.454a2.794 2.794 0 0 0 2.034 3.38c.212.052.431.08.664.081h3.763l-15.255 43.615a2.792 2.792 0 0 0 2.634 3.674h23.53c1.204 0 2.263-.763 2.656-1.946l1.542-4.971a2.791 2.791 0 0 0-1.847-3.48zm-24.292 6.488l16.541-47.289h-7.826l.802-3.187h22.264l-16.364 47.774h6.534l-.838 2.702h-21.113z"/></svg>