<svg version="1.1" xmlns="http://www.w3.org/2000/svg" xmlns:xlink="http://www.w3.org/1999/xlink" width="500" height="500"><defs><clipPath id="qfMyxVCfLdHs"><path fill="none" stroke="none" d=" M 0 0 L 500 0 L 500 500 L 0 500 L 0 0 Z"/></clipPath></defs><g transform="scale(1,1)" clip-path="url(#qfMyxVCfLdHs)"><g><rect fill="rgb(255,255,255)" stroke="none" x="0" y="0" width="500" height="500" fill-opacity="1"/><path fill="none" stroke="rgb(0,0,0)" paint-order="fill stroke markers" d=" M 369.19753178535336 374.2567567567566 C 369.19753178535336 437.8785967799554 317.6218400231987 489.45428854211013 253.9999999999999 489.45428854211013 C 190.37815997680107 489.45428854211013 138.8024682146464 437.8785967799554 138.8024682146464 374.2567567567566 C 138.8024682146464 310.63491673355776 190.37815997680107 259.05922497140307 253.9999999999999 259.05922497140307 C 317.6218400231987 259.05922497140307 369.19753178535336 310.63491673355776 369.19753178535336 374.2567567567566 Z" stroke-opacity="0.6980392156862745" stroke-linecap="round" stroke-linejoin="round" stroke-miterlimit="10" stroke-width="1.5"/><path fill="none" stroke="rgb(0,0,0)" paint-order="fill stroke markers" d=" M 421.6142971663659 259.05922497140307 C 421.6142971663659 351.63004514999375 346.57082017859057 426.67352213776906 253.99999999999994 426.67352213776906 C 161.42917982140926 426.67352213776906 86.38570283363401 351.63004514999375 86.38570283363401 259.05922497140307 C 86.38570283363401 166.48840479281236 161.42917982140926 91.44492780503705 253.99999999999994 91.44492780503705 C 346.57082017859057 91.44492780503705 421.6142971663659 166.48840479281236 421.6142971663659 259.05922497140307 Z" stroke-opacity="0.6980392156862745" stroke-linecap="round" stroke-linejoin="round" stroke-miterlimit="10" stroke-width="0.5"/><path fill="none" stroke="rgb(0,0,0)" paint-order="fill stroke markers" d=" M 48.61664407276527 319.82589934193237 C 51.703718824325406 315.2648159252128 52.773274392351865 309.6325601941389 51.573087691239095 304.25733328372235 L 32.0537334002818 308.6156366306783 Z" stroke-opacity="1" stroke-linecap="round" stroke-linejoin="round" stroke-miterlimit="10"/><path fill="none" stroke="rgb(0,0,0)" paint-order="fill stroke markers" d=" M 185.48064570904268 274.3583033469557 C 186.68083241015546 279.7335302573723 190.04452362394116 284.37592566832257 194.77849214245697 287.19071776041307 L 204.99999999999994 269.9999999999999 Z" stroke-opacity="1" stroke-linecap="round" stroke-linejoin="round" stroke-miterlimit="10"/><path fill="none" stroke="rgb(0,0,0)" paint-order="fill stroke markers" d=" M 221.5629106724834 281.2102627112539 C 224.64998542404356 276.6491792945344 225.71954099207 271.0169235634604 224.51935429095724 265.64169665304394 L 204.99999999999994 269.9999999999999 Z" stroke-opacity="1" stroke-linecap="round" stroke-linejoin="round" stroke-miterlimit="10"/><path fill="none" stroke="rgb(0,0,0)" paint-order="fill stroke markers" d=" M 450.69034983562386 215.14198277043232 C 451.89053653673665 220.51720968084882 455.2542277505224 225.15960509179916 459.98819626903816 227.97439718388964 L 470.20970412658113 210.7836794234764 Z" stroke-opacity="1" stroke-linecap="round" stroke-linejoin="round" stroke-miterlimit="10"/><path fill="none" stroke="rgb(0,0,0)" paint-order="fill stroke markers" d=" M 367.13491183271174 164.2411230471149 C 370.6726377672195 168.4622612429461 375.79449104458604 171.03769766002978 381.29263387100707 171.36009169885284 L 382.4633609063411 151.39438614636262 Z" stroke-opacity="1" stroke-linecap="round" stroke-linejoin="round" stroke-miterlimit="10"/><path fill="none" stroke="rgb(0,0,0)" paint-order="fill stroke markers" d=" M 126.70736612899266 171.36009169885284 C 132.2055089554137 171.03769766002978 137.3273622327803 168.4622612429461 140.86508816728804 164.24112304711485 L 125.53663909365864 151.39438614636262 Z" stroke-opacity="1" stroke-linecap="round" stroke-linejoin="round" stroke-miterlimit="10"/><path fill="none" stroke="rgb(0,0,0)" paint-order="fill stroke markers" d=" M 449.50606578597683 196.77085103440882 C 445.64722234652663 202.47220530530822 444.31027788649357 209.51252496915066 445.8105112628846 216.2315586071713 L 470.20970412658113 210.7836794234764 Z" stroke-opacity="1" stroke-linecap="round" stroke-linejoin="round" stroke-miterlimit="10"/><path fill="none" stroke="rgb(0,0,0)" paint-order="fill stroke markers" d=" M 453.6467934540977 199.57341671222233 C 450.5597187025375 204.13450012894185 449.4901631345111 209.76675586001582 450.69034983562386 215.14198277043232" stroke-opacity="1" stroke-linecap="round" stroke-linejoin="round" stroke-miterlimit="10"/><path fill="none" stroke="rgb(0,0,0)" paint-order="fill stroke markers" d=" M 56.45292626397841 303.1677574469834 C 54.95269288758743 296.44872380896277 50.7480788703553 290.64572954527483 44.830618222210546 287.12723943016175 L 32.0537334002818 308.6156366306783 Z" stroke-opacity="1" stroke-linecap="round" stroke-linejoin="round" stroke-miterlimit="10"/><path fill="none" stroke="rgb(0,0,0)" paint-order="fill stroke markers" d=" M 51.573087691239095 304.2573332837224 C 50.3729009901263 298.8821063733059 47.0092097763406 294.23971096235556 42.27524125782479 291.42491887026506" stroke-opacity="1" stroke-linecap="round" stroke-linejoin="round" stroke-miterlimit="10"/><path fill="none" stroke="rgb(0,0,0)" paint-order="fill stroke markers" d=" M 370.4634087941673 356.04286805938705 C 363.59073026114106 355.63987551085825 356.85604343176453 358.08885790534845 351.84752524931423 362.8122950890691 L 368.9999999999998 380.99999999999983 Z" stroke-opacity="1" stroke-linecap="round" stroke-linejoin="round" stroke-miterlimit="10"/><path fill="none" stroke="rgb(0,0,0)" paint-order="fill stroke markers" d=" M 370.1707270353338 361.03429444750964 C 364.6725842089128 360.7119004086866 359.28483474541156 362.67108632427875 355.27802019945136 366.4498360712552" stroke-opacity="1" stroke-linecap="round" stroke-linejoin="round" stroke-miterlimit="10"/><path fill="none" stroke="rgb(0,0,0)" paint-order="fill stroke markers" d=" M 156.15247475068557 362.8122950890691 C 151.14395656823524 358.08885790534845 144.40926973885877 355.63987551085825 137.53659120583245 356.04286805938705 L 139 380.99999999999983 Z" stroke-opacity="1" stroke-linecap="round" stroke-linejoin="round" stroke-miterlimit="10"/><path fill="none" stroke="rgb(0,0,0)" paint-order="fill stroke markers" d=" M 152.72197980054844 366.4498360712552 C 148.7151652545882 362.67108632427875 143.32741579108702 360.7119004086866 137.82927296466596 361.03429444750964" stroke-opacity="1" stroke-linecap="round" stroke-linejoin="round" stroke-miterlimit="10"/><path fill="none" stroke="rgb(0,0,0)" paint-order="fill stroke markers" d=" M 139 380.99999999999983 L 368.9999999999998 380.99999999999983" stroke-opacity="0.6980392156862745" stroke-linecap="round" stroke-linejoin="round" stroke-miterlimit="10" stroke-width="1.5"/><path fill="none" stroke="rgb(0,0,0)" paint-order="fill stroke markers" d=" M 139 380.99999999999983 L 204.99999999999994 269.9999999999999" stroke-opacity="0.6980392156862745" stroke-linecap="round" stroke-linejoin="round" stroke-miterlimit="10" stroke-width="1.5"/><path fill="none" stroke="rgb(0,0,0)" paint-order="fill stroke markers" d=" M 204.99999999999994 269.9999999999999 L 368.9999999999998 380.99999999999983" stroke-opacity="0.6980392156862745" stroke-linecap="round" stroke-linejoin="round" stroke-miterlimit="10" stroke-width="1.5"/><path fill="none" stroke="rgb(0,0,0)" paint-order="fill stroke markers" d=" M 32.0537334002818 308.6156366306783 L 470.20970412658113 210.7836794234764" stroke-opacity="0.6980392156862745" stroke-linecap="round" stroke-linejoin="round" stroke-miterlimit="10" stroke-width="1.5"/><path fill="none" stroke="rgb(255,85,0)" paint-order="fill stroke markers" d=" M 32.0537334002818 308.6156366306783 L 199.26343752686324 27.399316054154838" stroke-opacity="0.6980392156862745" stroke-linecap="round" stroke-linejoin="round" stroke-miterlimit="10" stroke-width="1.5"/><path fill="none" stroke="rgb(255,85,0)" paint-order="fill stroke markers" d=" M 199.26343752686324 27.399316054154838 L 470.20970412658113 210.7836794234764" stroke-opacity="0.6980392156862745" stroke-linecap="round" stroke-linejoin="round" stroke-miterlimit="10" stroke-width="1.5"/><path fill="none" stroke="rgb(0,0,0)" paint-order="fill stroke markers" d=" M 382.4633609063411 151.39438614636262 L 368.9999999999998 380.99999999999983" stroke-opacity="0.6980392156862745" stroke-linecap="round" stroke-linejoin="round" stroke-miterlimit="10" stroke-width="1.5"/><path fill="none" stroke="rgb(0,0,0)" paint-order="fill stroke markers" d=" M 125.53663909365862 151.39438614636262 L 139 380.99999999999983" stroke-opacity="0.6980392156862745" stroke-linecap="round" stroke-linejoin="round" stroke-miterlimit="10" stroke-width="1.5"/><path fill="none" stroke="rgb(0,0,0)" paint-order="fill stroke markers" d=" M 32.0537334002818 308.6156366306783 L 139 380.99999999999983" stroke-opacity="0.6980392156862745" stroke-linejoin="round" stroke-miterlimit="10" stroke-width="1.5" stroke-dasharray="9.5,8"/><path fill="none" stroke="rgb(0,0,0)" paint-order="fill stroke markers" d=" M 368.9999999999998 380.99999999999983 L 470.20970412658113 210.7836794234764" stroke-opacity="0.6980392156862745" stroke-linejoin="round" stroke-miterlimit="10" stroke-width="1.5" stroke-dasharray="9.5,8"/><path fill="none" stroke="rgb(0,0,0)" paint-order="fill stroke markers" d=" M 125.53663909365862 151.39438614636262 L 382.4633609063411 151.39438614636262" stroke-opacity="0.6980392156862745" stroke-linecap="round" stroke-linejoin="round" stroke-miterlimit="10" stroke-width="1.5"/><path fill="none" stroke="rgb(0,0,0)" paint-order="fill stroke markers" d=" M 125.53663909365862 151.39438614636262 L 253.99999999999994 259.05922497140307" stroke-opacity="0.6980392156862745" stroke-linejoin="round" stroke-miterlimit="10" stroke-width="1.5" stroke-dasharray="1.5,3"/><path fill="none" stroke="rgb(0,0,0)" paint-order="fill stroke markers" d=" M 253.99999999999994 259.05922497140307 L 382.4633609063411 151.39438614636262" stroke-opacity="0.6980392156862745" stroke-linejoin="round" stroke-miterlimit="10" stroke-width="1.5" stroke-dasharray="1.5,3"/><path fill="none" stroke="rgb(0,0,0)" paint-order="fill stroke markers" d=" M 253.99999999999994 259.05922497140307 L 368.9999999999998 380.99999999999983" stroke-opacity="0.6980392156862745" stroke-linejoin="round" stroke-miterlimit="10" stroke-width="1.5" stroke-dasharray="1.5,3"/><path fill="none" stroke="rgb(0,0,0)" paint-order="fill stroke markers" d=" M 253.99999999999994 259.05922497140307 L 139 380.99999999999983" stroke-opacity="0.6980392156862745" stroke-linejoin="round" stroke-miterlimit="10" stroke-width="1.5" stroke-dasharray="1.5,3"/><path fill="none" stroke="rgb(0,204,0)" paint-order="fill stroke markers" d=" M 125.53663909365862 151.39438614636262 L 368.9999999999998 380.99999999999983" stroke-opacity="0.6980392156862745" stroke-linecap="round" stroke-linejoin="round" stroke-miterlimit="10" stroke-width="1.5"/><path fill="none" stroke="rgb(0,204,0)" paint-order="fill stroke markers" d=" M 139 380.99999999999983 L 382.4633609063411 151.39438614636262" stroke-opacity="0.6980392156862745" stroke-linecap="round" stroke-linejoin="round" stroke-miterlimit="10" stroke-width="1.5"/><path fill="rgb(0,0,0)" stroke="none" paint-order="stroke fill markers" d=" M 143 380.99999999999983 C 143 383.209138999323 141.20913899932316 384.99999999999983 139 384.99999999999983 C 136.7908610006768 384.99999999999983 135 383.209138999323 135 380.99999999999983 C 135 378.79086100067667 136.7908610006768 376.99999999999983 139 376.99999999999983 C 141.20913899932316 376.99999999999983 143 378.79086100067667 143 380.99999999999983 Z" fill-opacity="1"/><path fill="rgb(0,0,0)" stroke="none" paint-order="stroke fill markers" d=" M 372.9999999999998 380.99999999999983 C 372.9999999999998 383.209138999323 371.20913899932293 384.99999999999983 368.9999999999998 384.99999999999983 C 366.7908610006766 384.99999999999983 364.9999999999998 383.209138999323 364.9999999999998 380.99999999999983 C 364.9999999999998 378.79086100067667 366.7908610006766 376.99999999999983 368.9999999999998 376.99999999999983 C 371.20913899932293 376.99999999999983 372.9999999999998 378.79086100067667 372.9999999999998 380.99999999999983 Z" fill-opacity="1"/><path fill="rgb(0,0,0)" stroke="none" paint-order="stroke fill markers" d=" M 208.99999999999994 269.9999999999999 C 208.99999999999994 272.20913899932305 207.2091389993231 273.9999999999999 204.99999999999994 273.9999999999999 C 202.79086100067676 273.9999999999999 200.99999999999994 272.20913899932305 200.99999999999994 269.9999999999999 C 200.99999999999994 267.7908610006767 202.79086100067676 265.9999999999999 204.99999999999994 265.9999999999999 C 207.2091389993231 265.9999999999999 208.99999999999994 267.7908610006767 208.99999999999994 269.9999999999999 Z" fill-opacity="1"/><path fill="rgb(0,0,0)" stroke="none" paint-order="stroke fill markers" d=" M 129.5366390936586 151.39438614636262 C 129.5366390936586 153.6035251456858 127.7457780929818 155.39438614636262 125.53663909365862 155.39438614636262 C 123.32750009433545 155.39438614636262 121.53663909365862 153.6035251456858 121.53663909365862 151.39438614636262 C 121.53663909365862 149.18524714703943 123.32750009433545 147.39438614636262 125.53663909365862 147.39438614636262 C 127.7457780929818 147.39438614636262 129.5366390936586 149.18524714703943 129.5366390936586 151.39438614636262 Z" fill-opacity="1"/><path fill="rgb(0,0,0)" stroke="none" paint-order="stroke fill markers" d=" M 386.4633609063411 151.39438614636262 C 386.4633609063411 153.6035251456858 384.67249990566427 155.39438614636262 382.4633609063411 155.39438614636262 C 380.25422190701795 155.39438614636262 378.4633609063411 153.6035251456858 378.4633609063411 151.39438614636262 C 378.4633609063411 149.18524714703943 380.25422190701795 147.39438614636262 382.4633609063411 147.39438614636262 C 384.67249990566427 147.39438614636262 386.4633609063411 149.18524714703943 386.4633609063411 151.39438614636262 Z" fill-opacity="1"/><path fill="rgb(0,0,0)" stroke="none" paint-order="stroke fill markers" d=" M 36.0537334002818 308.6156366306783 C 36.0537334002818 310.82477563000145 34.26287239960497 312.6156366306783 32.0537334002818 312.6156366306783 C 29.844594400958627 312.6156366306783 28.0537334002818 310.82477563000145 28.0537334002818 308.6156366306783 C 28.0537334002818 306.40649763135514 29.844594400958627 304.6156366306783 32.0537334002818 304.6156366306783 C 34.26287239960497 304.6156366306783 36.0537334002818 306.40649763135514 36.0537334002818 308.6156366306783 Z" fill-opacity="1"/><path fill="rgb(0,0,0)" stroke="none" paint-order="stroke fill markers" d=" M 474.20970412658113 210.7836794234764 C 474.20970412658113 212.9928184227996 472.4188431259043 214.7836794234764 470.20970412658113 214.7836794234764 C 468.00056512725797 214.7836794234764 466.20970412658113 212.9928184227996 466.20970412658113 210.7836794234764 C 466.20970412658113 208.5745404241532 468.00056512725797 206.7836794234764 470.20970412658113 206.7836794234764 C 472.4188431259043 206.7836794234764 474.20970412658113 208.5745404241532 474.20970412658113 210.7836794234764 Z" fill-opacity="1"/><path fill="rgb(0,0,0)" stroke="none" paint-order="stroke fill markers" d=" M 203.26343752686324 27.399316054154838 C 203.26343752686324 29.60845505347801 201.4725765261864 31.399316054154838 199.26343752686324 31.399316054154838 C 197.05429852754006 31.399316054154838 195.26343752686324 29.60845505347801 195.26343752686324 27.399316054154838 C 195.26343752686324 25.190177054831665 197.05429852754006 23.399316054154838 199.26343752686324 23.399316054154838 C 201.4725765261864 23.399316054154838 203.26343752686324 25.190177054831665 203.26343752686324 27.399316054154838 Z" fill-opacity="1"/><path fill="rgb(0,0,0)" stroke="none" paint-order="stroke fill markers" d=" M 257.99999999999994 259.05922497140307 C 257.99999999999994 261.2683639707262 256.2091389993231 263.05922497140307 253.99999999999994 263.05922497140307 C 251.79086100067676 263.05922497140307 249.99999999999994 261.2683639707262 249.99999999999994 259.05922497140307 C 249.99999999999994 256.8500859720799 251.79086100067676 255.05922497140307 253.99999999999994 255.05922497140307 C 256.2091389993231 255.05922497140307 257.99999999999994 256.8500859720799 257.99999999999994 259.05922497140307 Z" fill-opacity="1"/><g transform="scale(19,19)"><g transform="translate(10.631578947368421,15.419842105263157)"><path fill="rgb(0,0,0)" stroke="none" paint-order="stroke fill markers" d=" M 0.179 -0.115 L 0.527 -0.6990000000000001 Q 0.537 -0.715 0.553 -0.716 Q 0.5680000000000001 -0.716 0.5700000000000001 -0.706 Q 0.5710000000000001 -0.7030000000000001 0.5720000000000001 -0.6920000000000001 L 0.633 -0.067 Q 0.636 -0.042 0.645 -0.037 L 0.646 -0.037 L 0.646 -0.037 L 0.646 -0.037 L 0.646 -0.037 L 0.646 -0.036000000000000004 Q 0.658 -0.031 0.6980000000000001 -0.031 Q 0.72 -0.031 0.721 -0.02 Q 0.721 0 0.7030000000000001 0 L 0.591 -0.003 L 0.59 -0.003 L 0.466 0 L 0.465 0 Q 0.451 0 0.451 -0.011 Q 0.459 -0.03 0.47500000000000003 -0.031 Q 0.547 -0.031 0.547 -0.064 Q 0.547 -0.063 0.531 -0.231 L 0.28 -0.231 L 0.20400000000000001 -0.10300000000000001 Q 0.19 -0.078 0.19 -0.066 Q 0.19 -0.035 0.23700000000000002 -0.031 Q 0.253 -0.031 0.253 -0.019 Q 0.253 0 0.234 0 L 0.138 -0.003 L 0.134 -0.003 L 0.05 0 L 0.048 0 Q 0.035 0 0.035 -0.011 Q 0.035 -0.029 0.05 -0.03 L 0.05 -0.031 L 0.056 -0.031 Q 0.11900000000000001 -0.035 0.159 -0.085 Q 0.169 -0.098 0.179 -0.115 M 0.299 -0.262 L 0.528 -0.262 L 0.496 -0.592 L 0.299 -0.262 Z"/></g></g><g transform="scale(19,19)"><g transform="translate(7.526315789473684,20.99878947368421)"><path fill="rgb(0,0,0)" stroke="none" paint-order="stroke fill markers" d=" M 0.16 -0.078 L 0.294 -0.615 Q 0.298 -0.631 0.298 -0.634 Q 0.298 -0.646 0.28200000000000003 -0.649 L 0.281 -0.649 L 0.28 -0.649 Q 0.277 -0.649 0.271 -0.65 Q 0.254 -0.652 0.233 -0.652 Q 0.20700000000000002 -0.652 0.20500000000000002 -0.663 Q 0.20500000000000002 -0.681 0.22 -0.683 L 0.221 -0.683 L 0.222 -0.683 L 0.234 -0.683 L 0.5700000000000001 -0.683 Q 0.685 -0.683 0.734 -0.615 Q 0.756 -0.583 0.756 -0.545 Q 0.756 -0.464 0.666 -0.404 Q 0.665 -0.404 0.664 -0.403 Q 0.611 -0.369 0.547 -0.357 Q 0.649 -0.34500000000000003 0.687 -0.277 Q 0.7020000000000001 -0.249 0.7020000000000001 -0.216 Q 0.7020000000000001 -0.14300000000000002 0.632 -0.079 L 0.631 -0.078 Q 0.545 0 0.426 0 L 0.069 0 Q 0.044 0 0.042 -0.011 Q 0.042 -0.029 0.057 -0.031 L 0.069 -0.031 Q 0.134 -0.031 0.147 -0.045 Q 0.153 -0.052000000000000005 0.159 -0.073 Q 0.159 -0.074 0.16 -0.078 M 0.311 -0.366 L 0.457 -0.366 Q 0.556 -0.366 0.62 -0.438 Q 0.665 -0.489 0.665 -0.549 Q 0.665 -0.622 0.605 -0.644 Q 0.584 -0.652 0.556 -0.652 L 0.427 -0.652 Q 0.391 -0.652 0.383 -0.642 L 0.383 -0.642 L 0.383 -0.641 L 0.382 -0.641 L 0.382 -0.64 Q 0.378 -0.634 0.373 -0.614 L 0.311 -0.366 M 0.266 -0.031 L 0.402 -0.031 Q 0.498 -0.031 0.561 -0.10300000000000001 Q 0.609 -0.159 0.609 -0.227 Q 0.609 -0.3 0.557 -0.33 Q 0.531 -0.34400000000000003 0.494 -0.34400000000000003 L 0.305 -0.34400000000000003 L 0.23600000000000002 -0.065 Q 0.231 -0.047 0.231 -0.042 Q 0.231 -0.034 0.24 -0.032 L 0.24 -0.032 L 0.24 -0.032 L 0.244 -0.032 Q 0.25 -0.031 0.266 -0.031 Z"/></g></g><g transform="scale(19,19)"><g transform="translate(18.31578947368421,20.99878947368421)"><path fill="rgb(0,0,0)" stroke="none" paint-order="stroke fill markers" d=" M 0.76 -0.6950000000000001 L 0.6970000000000001 -0.44 Q 0.6920000000000001 -0.422 0.687 -0.421 L 0.686 -0.42 L 0.679 -0.42 Q 0.664 -0.42 0.664 -0.43 L 0.667 -0.47900000000000004 L 0.667 -0.481 Q 0.667 -0.605 0.589 -0.652 L 0.588 -0.653 Q 0.553 -0.674 0.506 -0.674 Q 0.4 -0.674 0.305 -0.595 Q 0.281 -0.5760000000000001 0.262 -0.553 Q 0.167 -0.442 0.145 -0.271 Q 0.14100000000000001 -0.24 0.14100000000000001 -0.217 Q 0.14100000000000001 -0.077 0.247 -0.028 Q 0.28800000000000003 -0.009000000000000001 0.337 -0.009000000000000001 Q 0.431 -0.009000000000000001 0.521 -0.082 Q 0.591 -0.14100000000000001 0.622 -0.24 Q 0.624 -0.25 0.635 -0.25 Q 0.647 -0.25 0.647 -0.24 Q 0.647 -0.222 0.624 -0.176 Q 0.593 -0.113 0.537 -0.064 Q 0.438 0.022 0.321 0.022 Q 0.193 0.022 0.116 -0.066 Q 0.05 -0.14100000000000001 0.05 -0.252 Q 0.05 -0.401 0.159 -0.531 Q 0.26 -0.652 0.398 -0.6910000000000001 Q 0.449 -0.705 0.498 -0.705 Q 0.607 -0.705 0.664 -0.616 L 0.734 -0.6930000000000001 Q 0.746 -0.705 0.749 -0.705 Q 0.76 -0.705 0.76 -0.6950000000000001 Z"/></g></g><g transform="scale(19,19)"><g transform="translate(5.7894736842105265,7.840894736842105)"><path fill="rgb(0,0,0)" stroke="none" paint-order="stroke fill markers" d=" M 0.303 -0.316 L 0.303 -0.316 L 0.241 -0.066 L 0.23800000000000002 -0.049 Q 0.23800000000000002 -0.032 0.28400000000000003 -0.031 L 0.28400000000000003 -0.031 L 0.28400000000000003 -0.031 L 0.303 -0.031 Q 0.329 -0.031 0.331 -0.02 Q 0.331 0 0.311 0 L 0.247 -0.002 L 0.246 -0.002 L 0.184 -0.003 L 0.182 -0.003 L 0.056 0 L 0.055 0 Q 0.04 0 0.04 -0.012 Q 0.04 -0.029 0.056 -0.031 L 0.068 -0.031 Q 0.133 -0.031 0.146 -0.045 Q 0.152 -0.052000000000000005 0.158 -0.073 Q 0.158 -0.074 0.159 -0.078 L 0.293 -0.615 Q 0.297 -0.631 0.297 -0.634 Q 0.297 -0.646 0.281 -0.649 L 0.28 -0.649 L 0.28 -0.649 Q 0.278 -0.65 0.275 -0.65 Q 0.251 -0.652 0.232 -0.652 Q 0.20600000000000002 -0.652 0.20400000000000001 -0.66 Q 0.203 -0.662 0.203 -0.664 Q 0.203 -0.681 0.22 -0.683 L 0.22 -0.683 L 0.233 -0.683 L 0.557 -0.683 Q 0.678 -0.683 0.73 -0.609 Q 0.754 -0.5740000000000001 0.754 -0.532 Q 0.754 -0.451 0.671 -0.385 Q 0.583 -0.316 0.47300000000000003 -0.316 L 0.303 -0.316 M 0.375 -0.614 L 0.307 -0.342 L 0.448 -0.342 Q 0.543 -0.342 0.602 -0.395 Q 0.643 -0.433 0.658 -0.522 L 0.658 -0.523 Q 0.661 -0.542 0.661 -0.556 Q 0.661 -0.652 0.525 -0.652 L 0.429 -0.652 Q 0.393 -0.652 0.385 -0.642 L 0.385 -0.642 L 0.385 -0.641 L 0.384 -0.641 L 0.384 -0.64 Q 0.38 -0.634 0.375 -0.614 Z"/></g></g><g transform="scale(19,19)"><g transform="translate(20.31578947368421,7.788263157894737)"><path fill="rgb(0,0,0)" stroke="none" paint-order="stroke fill markers" d=" M 0.438 -0.006 L 0.438 -0.006 Q 0.448 0.073 0.47500000000000003 0.089 Q 0.488 0.097 0.509 0.097 Q 0.558 0.097 0.596 0.054 Q 0.616 0.032 0.626 0.001 Q 0.63 -0.01 0.638 -0.01 Q 0.649 -0.01 0.649 0 Q 0.649 0.019 0.625 0.07200000000000001 Q 0.5690000000000001 0.194 0.482 0.194 Q 0.399 0.194 0.399 0.084 Q 0.399 0.069 0.403 0.007 Q 0.35000000000000003 0.022 0.305 0.022 Q 0.18 0.022 0.108 -0.066 Q 0.049 -0.138 0.049 -0.245 Q 0.049 -0.395 0.156 -0.529 Q 0.255 -0.65 0.388 -0.6900000000000001 Q 0.437 -0.705 0.485 -0.705 Q 0.612 -0.705 0.684 -0.613 Q 0.74 -0.541 0.74 -0.436 Q 0.74 -0.28200000000000003 0.63 -0.149 Q 0.546 -0.047 0.438 -0.006 M 0.249 -0.014 L 0.243 -0.037 L 0.243 -0.046 Q 0.243 -0.095 0.28700000000000003 -0.128 Q 0.314 -0.148 0.34500000000000003 -0.148 Q 0.41600000000000004 -0.148 0.432 -0.049 Q 0.432 -0.046 0.433 -0.04 Q 0.5660000000000001 -0.114 0.624 -0.305 Q 0.652 -0.394 0.652 -0.468 Q 0.652 -0.598 0.5720000000000001 -0.652 L 0.5710000000000001 -0.653 L 0.5710000000000001 -0.653 Q 0.531 -0.68 0.47900000000000004 -0.68 Q 0.384 -0.68 0.295 -0.596 Q 0.265 -0.5680000000000001 0.23900000000000002 -0.532 Q 0.161 -0.42 0.14100000000000001 -0.266 Q 0.137 -0.23600000000000002 0.137 -0.213 Q 0.137 -0.08 0.223 -0.027 Q 0.23500000000000001 -0.02 0.249 -0.014 M 0.311 -0.003 L 0.311 -0.003 Q 0.352 -0.003 0.395 -0.021 Q 0.405 -0.034 0.406 -0.041 Q 0.406 -0.117 0.36 -0.125 L 0.359 -0.125 Q 0.353 -0.126 0.34500000000000003 -0.126 Q 0.304 -0.126 0.278 -0.088 Q 0.265 -0.067 0.265 -0.046 Q 0.265 -0.003 0.311 -0.003 Z"/></g></g><g transform="scale(19,19)"><g transform="translate(1.0526315789473684,17.36721052631579)"><path fill="rgb(0,0,0)" stroke="none" paint-order="stroke fill markers" d=" M 0.509 -0.404 L 0.509 -0.404 L 0.651 -0.076 Q 0.666 -0.042 0.6880000000000001 -0.035 L 0.6890000000000001 -0.035 L 0.6900000000000001 -0.035 L 0.6900000000000001 -0.035 Q 0.7010000000000001 -0.031 0.72 -0.031 Q 0.74 -0.031 0.74 -0.02 Q 0.74 0 0.722 0 L 0.625 -0.003 L 0.624 -0.003 L 0.505 0 L 0.502 0 Q 0.488 0 0.488 -0.011 Q 0.494 -0.03 0.51 -0.031 Q 0.562 -0.031 0.562 -0.062 Q 0.562 -0.07 0.55 -0.097 L 0.434 -0.366 L 0.28500000000000003 -0.25 Q 0.256 -0.132 0.245 -0.093 Q 0.23600000000000002 -0.048 0.23600000000000002 -0.049 Q 0.23600000000000002 -0.032 0.28200000000000003 -0.031 L 0.28200000000000003 -0.031 L 0.28200000000000003 -0.031 L 0.301 -0.031 Q 0.327 -0.031 0.329 -0.02 Q 0.329 0 0.309 0 L 0.245 -0.002 L 0.244 -0.002 L 0.182 -0.003 L 0.18 -0.003 L 0.054 0 L 0.053 0 Q 0.038 0 0.038 -0.012 Q 0.038 -0.029 0.054 -0.031 L 0.066 -0.031 Q 0.131 -0.031 0.14400000000000002 -0.045 Q 0.15 -0.052000000000000005 0.156 -0.073 Q 0.156 -0.074 0.157 -0.078 L 0.291 -0.615 Q 0.295 -0.631 0.295 -0.634 Q 0.295 -0.646 0.279 -0.649 L 0.278 -0.649 L 0.278 -0.649 Q 0.276 -0.65 0.273 -0.65 Q 0.249 -0.652 0.23 -0.652 Q 0.20400000000000001 -0.652 0.202 -0.66 Q 0.201 -0.662 0.201 -0.664 Q 0.201 -0.683 0.221 -0.683 L 0.34900000000000003 -0.68 L 0.35000000000000003 -0.68 L 0.47700000000000004 -0.683 L 0.47800000000000004 -0.683 Q 0.492 -0.683 0.492 -0.672 Q 0.492 -0.655 0.47700000000000004 -0.653 L 0.47700000000000004 -0.653 Q 0.47200000000000003 -0.652 0.458 -0.652 Q 0.397 -0.652 0.385 -0.636 Q 0.38 -0.629 0.374 -0.606 L 0.294 -0.28500000000000003 L 0.684 -0.585 Q 0.72 -0.615 0.72 -0.631 Q 0.72 -0.648 0.6930000000000001 -0.652 L 0.6930000000000001 -0.652 L 0.6890000000000001 -0.652 Q 0.677 -0.654 0.677 -0.663 Q 0.677 -0.683 0.6960000000000001 -0.683 L 0.806 -0.68 L 0.807 -0.68 L 0.877 -0.683 L 0.878 -0.683 Q 0.889 -0.683 0.889 -0.672 Q 0.889 -0.655 0.871 -0.652 Q 0.8160000000000001 -0.646 0.753 -0.607 Q 0.732 -0.594 0.708 -0.5760000000000001 L 0.533 -0.441 Q 0.504 -0.42 0.504 -0.418 L 0.509 -0.404 Z"/></g></g><g transform="scale(19,19)"><g transform="translate(24.94736842105263,12.051421052631579)"><path fill="rgb(0,0,0)" stroke="none" paint-order="stroke fill markers" d=" M 0.374 -0.605 L 0.23900000000000002 -0.065 Q 0.234 -0.047 0.234 -0.042 Q 0.234 -0.034 0.243 -0.032 L 0.243 -0.032 L 0.243 -0.032 L 0.247 -0.032 Q 0.253 -0.031 0.269 -0.031 L 0.363 -0.031 Q 0.509 -0.031 0.5750000000000001 -0.147 Q 0.592 -0.177 0.614 -0.23700000000000002 Q 0.622 -0.256 0.627 -0.257 L 0.628 -0.258 L 0.631 -0.258 Q 0.642 -0.258 0.643 -0.247 Q 0.643 -0.244 0.639 -0.233 L 0.56 -0.017 Q 0.555 -0.002 0.547 -0.001 L 0.547 -0.001 L 0.546 -0.001 Q 0.542 0 0.529 0 L 0.066 0 Q 0.041 0 0.039 -0.011 Q 0.039 -0.029 0.054 -0.031 L 0.066 -0.031 Q 0.131 -0.031 0.14400000000000002 -0.045 Q 0.15 -0.052000000000000005 0.156 -0.073 Q 0.156 -0.074 0.157 -0.078 L 0.291 -0.615 Q 0.295 -0.631 0.295 -0.634 Q 0.295 -0.646 0.279 -0.649 L 0.278 -0.649 L 0.277 -0.649 Q 0.274 -0.649 0.268 -0.65 Q 0.251 -0.652 0.23 -0.652 Q 0.20400000000000001 -0.652 0.202 -0.663 Q 0.202 -0.683 0.221 -0.683 L 0.353 -0.68 L 0.354 -0.68 L 0.501 -0.683 L 0.502 -0.683 Q 0.518 -0.683 0.518 -0.671 Q 0.518 -0.655 0.505 -0.653 Q 0.499 -0.652 0.48 -0.652 Q 0.401 -0.652 0.386 -0.635 Q 0.38 -0.628 0.374 -0.605 Z"/></g></g><g transform="scale(19,19)"><g transform="translate(10.789473684210526,1.4198421052631578)"><path fill="rgb(0,0,0)" stroke="none" paint-order="stroke fill markers" d=" M 0.926 -0.606 L 0.793 -0.073 Q 0.788 -0.055 0.788 -0.049 Q 0.788 -0.032 0.835 -0.031 L 0.836 -0.031 L 0.853 -0.031 Q 0.879 -0.031 0.881 -0.02 Q 0.881 0 0.862 0 L 0.738 -0.003 L 0.737 -0.003 L 0.614 0 L 0.613 0 Q 0.598 0 0.598 -0.012 Q 0.598 -0.029 0.614 -0.031 L 0.626 -0.031 Q 0.6910000000000001 -0.031 0.704 -0.045 Q 0.71 -0.052000000000000005 0.716 -0.073 Q 0.716 -0.074 0.717 -0.078 L 0.86 -0.651 L 0.859 -0.651 L 0.455 -0.018000000000000002 Q 0.443 -0.001 0.433 0 Q 0.422 0 0.418 -0.023 L 0.332 -0.643 L 0.331 -0.643 L 0.195 -0.098 Q 0.191 -0.083 0.191 -0.075 Q 0.191 -0.038 0.23900000000000002 -0.032 Q 0.248 -0.031 0.259 -0.031 Q 0.277 -0.031 0.277 -0.02 Q 0.277 0 0.259 0 L 0.159 -0.003 L 0.156 -0.003 L 0.057 0 L 0.056 0 Q 0.042 0 0.042 -0.012 Q 0.042 -0.031 0.06 -0.031 Q 0.139 -0.034 0.16 -0.081 Q 0.164 -0.091 0.168 -0.106 L 0.295 -0.615 Q 0.299 -0.631 0.299 -0.634 Q 0.299 -0.646 0.28300000000000003 -0.649 L 0.28200000000000003 -0.649 L 0.28200000000000003 -0.649 Q 0.28 -0.65 0.277 -0.65 Q 0.253 -0.652 0.234 -0.652 Q 0.20800000000000002 -0.652 0.20600000000000002 -0.66 Q 0.20500000000000002 -0.662 0.20500000000000002 -0.664 Q 0.20500000000000002 -0.681 0.222 -0.683 L 0.222 -0.683 L 0.23500000000000001 -0.683 L 0.372 -0.683 Q 0.395 -0.683 0.399 -0.678 L 0.399 -0.677 Q 0.401 -0.673 0.403 -0.66 L 0.481 -0.094 L 0.846 -0.664 Q 0.857 -0.681 0.866 -0.682 Q 0.87 -0.683 0.885 -0.683 L 1.0170000000000001 -0.683 Q 1.042 -0.683 1.044 -0.672 Q 1.044 -0.655 1.03 -0.653 Q 1.025 -0.652 1.012 -0.652 Q 0.9490000000000001 -0.652 0.937 -0.636 L 0.936 -0.635 L 0.936 -0.634 Q 0.931 -0.627 0.926 -0.606 Z"/></g></g><g transform="scale(19,19)"><g transform="translate(13.052631578947368,13.156684210526315)"><path fill="rgb(0,0,0)" stroke="none" paint-order="stroke fill markers" d=" M 0.541 -0.61 L 0.424 -0.14300000000000002 Q 0.403 -0.059000000000000004 0.318 -0.01 Q 0.262 0.022 0.203 0.022 Q 0.122 0.022 0.08700000000000001 -0.032 Q 0.07100000000000001 -0.057 0.07100000000000001 -0.08700000000000001 Q 0.07100000000000001 -0.151 0.122 -0.165 Q 0.131 -0.167 0.138 -0.167 Q 0.169 -0.167 0.179 -0.14200000000000002 L 0.179 -0.14100000000000001 Q 0.182 -0.134 0.182 -0.125 Q 0.182 -0.091 0.152 -0.07100000000000001 Q 0.136 -0.061 0.117 -0.061 Q 0.108 -0.061 0.105 -0.062 Q 0.122 -0.007 0.189 -0.001 Q 0.195 0 0.2 0 Q 0.253 0 0.299 -0.057 Q 0.331 -0.096 0.34400000000000003 -0.15 L 0.459 -0.609 Q 0.463 -0.625 0.463 -0.63 Q 0.463 -0.644 0.447 -0.647 Q 0.442 -0.649 0.432 -0.65 Q 0.40700000000000003 -0.652 0.374 -0.652 Q 0.343 -0.652 0.341 -0.658 Q 0.34 -0.66 0.34 -0.663 Q 0.34 -0.683 0.361 -0.683 L 0.507 -0.68 L 0.508 -0.68 L 0.618 -0.683 L 0.619 -0.683 Q 0.633 -0.683 0.633 -0.671 Q 0.623 -0.653 0.606 -0.652 Q 0.559 -0.652 0.55 -0.637 Q 0.546 -0.63 0.541 -0.61 Z"/></g></g></g></g></svg>