<?xml version="1.0" standalone="no"?>
<!DOCTYPE svg PUBLIC "-//W3C//DTD SVG 20010904//EN"
 "http://www.w3.org/TR/2001/REC-SVG-20010904/DTD/svg10.dtd">
<svg version="1.0" xmlns="http://www.w3.org/2000/svg"
 width="1500.000000pt" height="1500.000000pt" viewBox="0 0 1500.000000 1500.000000"
 preserveAspectRatio="xMidYMid meet">
<metadata>
Created by potrace 1.14, written by Peter Selinger 2001-2017
</metadata>
<g transform="translate(0.000000,1500.000000) scale(0.100000,-0.100000)"
fill="#000000" stroke="none">
<path d="M737 13883 c-12 -11 -8 -12671 3 -12678 6 -4 16 -3 23 2 7 5 2951 9
6769 8 l6758 0 0 6330 0 6330 -6761 0 c-3718 0 -6763 3 -6766 8 -5 9 -17 9
-26 0z m3483 -2743 c0 -5 8 -10 18 -10 9 0 29 -11 43 -24 14 -13 35 -27 47
-30 12 -4 22 -11 22 -15 0 -3 14 -15 30 -24 17 -10 30 -27 30 -37 0 -21 76
-100 97 -100 7 0 13 -7 13 -15 0 -8 3 -15 8 -15 18 0 252 -241 252 -260 0 -5
7 -10 15 -10 8 0 15 -4 15 -10 0 -5 6 -10 13 -10 6 -1 26 -19 42 -40 17 -21
36 -39 43 -40 6 0 12 -5 12 -11 0 -12 77 -88 129 -128 17 -13 31 -29 31 -35 0
-6 12 -20 26 -31 37 -29 104 -95 105 -103 0 -4 16 -20 35 -37 20 -16 76 -69
125 -117 50 -49 92 -88 95 -88 6 0 131 -129 166 -172 53 -66 66 -78 77 -78 6
0 11 -4 11 -10 0 -5 11 -12 25 -16 15 -4 25 -13 25 -25 0 -10 37 -53 82 -96
44 -43 93 -90 107 -105 14 -16 29 -28 34 -28 11 0 67 -61 67 -72 0 -5 7 -8 15
-8 8 0 15 -3 15 -7 0 -5 29 -39 65 -78 36 -38 65 -73 65 -77 0 -4 17 -15 37
-25 41 -19 73 -47 73 -63 0 -6 7 -13 15 -16 8 -4 15 -14 15 -23 1 -9 15 -27
32 -41 30 -24 200 -188 325 -312 35 -34 66 -70 69 -80 3 -10 9 -18 14 -18 5 0
32 -22 59 -50 27 -27 52 -50 55 -50 3 0 30 -25 61 -55 30 -30 59 -55 65 -55 5
0 10 -6 10 -13 0 -8 11 -20 25 -27 14 -7 25 -17 25 -22 0 -11 111 -128 123
-128 10 0 36 -31 75 -89 13 -19 80 -90 149 -158 122 -120 126 -123 169 -123
43 0 44 -1 70 -52 40 -79 169 -238 192 -238 6 0 14 -9 17 -20 3 -11 11 -20 16
-20 5 0 9 -9 9 -20 0 -11 -4 -20 -10 -20 -5 0 -10 -9 -10 -20 0 -11 -5 -20
-11 -20 -12 0 -199 -184 -199 -197 0 -11 -39 -45 -70 -62 -14 -7 -45 -38 -70
-68 -25 -30 -58 -69 -75 -88 -16 -18 -39 -43 -51 -56 -11 -13 -33 -33 -48 -44
-24 -18 -79 -70 -127 -123 -8 -9 -38 -39 -65 -65 -59 -57 -84 -85 -84 -93 0
-8 -90 -93 -130 -124 -33 -25 -44 -36 -137 -132 -28 -29 -63 -64 -77 -77 -14
-13 -26 -29 -26 -37 0 -8 -4 -14 -10 -14 -5 0 -10 -6 -10 -13 0 -12 -60 -69
-113 -106 -31 -22 -57 -50 -57 -61 0 -5 -4 -10 -9 -10 -5 0 -49 -38 -97 -85
-48 -46 -95 -87 -105 -90 -11 -4 -19 -10 -19 -15 0 -12 -56 -75 -124 -139 -32
-31 -90 -90 -130 -131 -39 -41 -118 -120 -176 -176 -58 -57 -112 -110 -120
-119 -8 -8 -42 -44 -75 -78 -33 -35 -71 -77 -85 -95 -14 -17 -31 -31 -37 -32
-7 0 -13 -6 -13 -14 0 -7 -17 -26 -37 -42 -21 -15 -49 -42 -63 -58 -14 -17
-41 -45 -60 -63 -67 -62 -85 -80 -110 -111 -14 -17 -28 -31 -33 -32 -11 0
-114 -105 -167 -170 -54 -66 -188 -200 -199 -200 -12 0 -97 -76 -141 -124 -19
-22 -55 -58 -79 -80 -24 -23 -53 -52 -65 -65 -12 -13 -65 -68 -118 -123 -54
-54 -98 -103 -98 -107 0 -5 -10 -11 -23 -15 -12 -3 -31 -14 -42 -24 -12 -10
-42 -22 -68 -25 -27 -4 -58 -14 -70 -22 -15 -11 -48 -15 -118 -15 -83 0 -98 3
-114 20 -10 11 -24 20 -31 20 -7 0 -19 6 -26 13 -7 7 -29 19 -48 27 -50 20
-79 44 -123 103 -21 29 -44 59 -51 68 -8 9 -17 36 -21 60 -4 24 -12 49 -17 56
-12 15 1 243 13 243 5 0 9 15 9 33 0 24 6 35 22 42 13 6 25 19 27 30 2 11 21
37 42 59 22 21 39 42 39 47 0 5 6 9 14 9 8 0 36 25 63 56 26 30 77 83 112 117
116 113 265 263 309 310 23 26 46 47 50 47 4 0 39 33 77 74 39 40 92 90 119
110 27 21 67 60 89 87 22 27 44 49 49 49 4 0 8 7 8 15 0 8 6 15 14 15 7 0 21
11 30 25 9 14 23 25 31 25 8 0 15 6 15 13 0 7 9 19 20 27 11 8 20 18 20 22 0
5 41 49 90 98 50 49 90 92 90 96 0 3 11 15 25 26 14 11 25 25 25 31 0 7 18 25
40 41 22 17 40 33 40 38 0 4 7 8 15 8 8 0 15 4 15 9 0 12 59 71 71 71 5 0 9 7
9 15 0 8 4 15 10 15 12 0 150 137 150 149 0 14 144 156 178 176 18 11 32 23
32 28 0 5 20 29 45 54 25 24 45 48 45 53 0 5 8 11 18 14 23 8 76 57 85 79 4
10 15 20 24 24 10 4 20 9 23 12 3 4 34 31 70 61 36 30 74 63 84 73 11 9 23 17
28 17 4 0 8 7 8 15 0 8 7 15 15 15 8 0 15 4 15 10 0 5 17 27 38 49 21 22 45
53 53 68 19 37 152 165 228 220 57 41 141 135 148 166 3 15 8 27 12 27 3 0 18
11 33 24 14 14 43 34 64 45 21 12 34 21 28 21 -14 0 -194 178 -224 223 -14 20
-28 37 -32 37 -4 0 -18 10 -30 23 -13 12 -45 40 -72 62 -81 68 -158 137 -216
195 -63 63 -170 180 -170 185 0 10 -169 175 -178 175 -7 0 -12 5 -12 10 0 12
-44 65 -79 95 -13 11 -50 46 -83 78 -32 31 -61 57 -64 57 -3 0 -27 22 -52 48
-26 27 -68 71 -94 98 -41 43 -83 81 -155 141 -47 39 -59 51 -95 91 -21 23 -38
44 -38 48 0 11 -88 94 -100 94 -5 0 -10 7 -10 15 0 8 -4 15 -8 15 -4 0 -22 15
-40 33 -17 17 -122 125 -234 239 -112 115 -221 228 -243 253 -22 25 -46 45
-53 45 -7 0 -15 7 -18 15 -4 8 -10 15 -15 15 -5 0 -44 36 -87 81 -142 149
-284 289 -293 289 -5 0 -9 7 -9 15 0 8 -12 25 -27 38 -39 32 -74 67 -108 110
-16 20 -38 37 -47 37 -10 0 -18 7 -18 15 0 8 -18 34 -40 57 -22 24 -40 51 -40
60 0 9 -4 20 -10 23 -5 3 -12 28 -16 55 -4 28 -11 50 -16 50 -15 0 -5 197 10
212 7 7 12 23 12 36 0 24 44 107 63 120 7 4 17 16 23 27 5 11 30 30 54 42 24
13 48 30 53 38 4 8 21 15 37 15 17 0 30 3 30 8 0 14 62 42 93 42 18 0 39 5 47
10 20 13 170 13 170 0z m8760 -6338 c31 -8 67 -28 82 -43 14 -15 35 -30 46
-33 13 -5 23 -23 32 -64 8 -31 18 -60 24 -64 5 -4 12 -62 14 -129 4 -103 2
-123 -11 -130 -9 -5 -21 -25 -27 -44 -6 -19 -16 -35 -21 -35 -5 0 -9 -7 -9
-15 0 -8 -7 -15 -15 -15 -8 0 -15 -7 -15 -15 0 -8 -7 -15 -15 -15 -8 0 -15 -4
-15 -10 0 -5 -5 -10 -12 -10 -6 0 -32 -10 -57 -22 l-46 -23 -1804 -3 c-1501
-2 -1808 0 -1825 11 -12 8 -34 17 -50 21 -42 10 -139 113 -154 163 -7 22 -19
46 -27 53 -22 18 -22 200 0 200 9 0 15 9 15 25 0 14 5 25 10 25 6 0 10 9 10
20 0 31 78 104 141 134 l56 26 1449 1 c797 1 1589 5 1759 8 345 8 386 6 465
-17z"/>
<path d="M6100 8210 c0 -5 5 -10 11 -10 5 0 7 5 4 10 -3 6 -8 10 -11 10 -2 0
-4 -4 -4 -10z"/>
</g>
</svg>
