<?xml version="1.0" standalone="no"?>
<!DOCTYPE svg PUBLIC "-//W3C//DTD SVG 20010904//EN"
 "http://www.w3.org/TR/2001/REC-SVG-20010904/DTD/svg10.dtd">
<svg version="1.0" xmlns="http://www.w3.org/2000/svg"
 width="608.000000pt" height="608.000000pt" viewBox="0 0 608.000000 608.000000"
 preserveAspectRatio="xMidYMid meet">
<metadata>
Created by potrace 1.14, written by Peter Selinger 2001-2017
</metadata>
<g transform="translate(0.000000,608.000000) scale(0.100000,-0.100000)"
fill="#000000" stroke="none">
<path d="M2846 6069 c-186 -20 -352 -64 -541 -144 -514 -220 -915 -687 -1056
-1232 -46 -181 -59 -292 -59 -535 0 -120 -4 -229 -10 -245 -6 -15 -50 -65 -98
-110 l-87 -81 1 -114 c2 -160 43 -1273 50 -1333 2 -28 13 -62 22 -76 9 -14 96
-100 192 -191 96 -90 192 -184 213 -206 l37 -42 0 -326 c0 -370 -7 -337 94
-468 35 -45 146 -189 247 -321 102 -132 251 -327 333 -433 88 -115 158 -197
173 -203 14 -5 302 -9 700 -9 l676 0 36 38 c20 21 96 117 169 213 72 95 214
280 313 409 100 129 213 277 253 329 l71 94 5 343 5 343 45 46 c25 25 125 121
223 213 139 131 179 175 186 202 5 19 12 105 15 190 35 906 46 1267 42 1286
-3 12 -40 53 -82 91 -112 99 -113 104 -114 363 -1 311 -35 511 -130 750 -156
393 -443 721 -809 928 -337 190 -729 272 -1115 231z m-457 -596 c22 -83 150
-595 176 -708 49 -213 140 -570 148 -582 6 -10 84 -13 332 -13 302 0 325 1
334 18 5 10 46 166 91 348 158 642 240 968 245 973 17 16 246 -98 391 -194
169 -112 329 -262 448 -418 l29 -38 -32 -92 c-84 -248 -109 -416 -121 -842 -6
-180 -6 -410 -2 -525 5 -113 7 -213 4 -223 -12 -47 -271 -185 -452 -242 -337
-105 -594 -147 -915 -147 -292 0 -556 33 -815 102 -186 50 -467 176 -548 246
l-37 32 -1 473 c0 425 -3 493 -22 659 -25 207 -55 346 -101 465 -17 44 -31 84
-31 89 0 4 33 47 73 94 194 230 371 371 615 491 177 87 177 87 191 34z m-885
-973 c48 -234 51 -285 52 -925 1 -514 4 -630 18 -735 10 -69 23 -135 31 -146
16 -25 139 -72 300 -115 114 -30 276 -53 450 -64 129 -7 150 3 220 105 l52 75
184 -5 c264 -7 429 -6 549 3 l105 9 49 -77 c72 -111 67 -109 254 -101 248 11
379 34 575 102 121 43 134 49 146 73 6 10 18 85 28 167 15 128 17 222 15 674
-1 319 2 566 8 630 15 147 60 403 72 416 3 2 18 -10 34 -27 l29 -30 7 -292
c10 -456 58 -769 169 -1099 32 -98 59 -195 59 -217 0 -73 -150 -322 -328 -546
-128 -160 -386 -415 -551 -545 -204 -160 -184 -133 -234 -310 -56 -196 -95
-339 -99 -365 -3 -20 -12 -20 -644 -23 -506 -2 -644 1 -651 10 -11 14 -23 55
-99 333 -25 94 -51 181 -58 195 -6 13 -52 55 -101 93 -204 155 -375 313 -523
480 -171 195 -249 303 -359 497 -109 190 -105 151 -35 362 84 253 145 543 167
788 3 36 10 195 15 354 l9 289 27 28 c15 16 31 26 35 22 4 -5 14 -42 23 -83z
m357 -2617 c101 -94 204 -186 229 -205 55 -42 81 -79 114 -166 49 -127 119
-418 118 -487 0 -22 -8 -89 -16 -149 -9 -60 -16 -113 -16 -117 0 -33 -79 -52
-113 -26 -11 7 -37 77 -67 182 -58 203 -88 289 -174 506 -100 253 -117 292
-205 466 -44 90 -81 165 -81 169 0 19 47 -19 211 -173z m2573 155 c-4 -13 -42
-94 -86 -181 -170 -341 -269 -595 -373 -957 -41 -143 -58 -174 -103 -178 -51
-5 -67 21 -86 141 -22 143 -20 206 8 317 59 227 67 258 88 320 12 36 29 78 40
95 22 36 488 464 506 464 9 1 11 -6 6 -21z m-768 -1040 c-7 -40 -42 -352 -52
-461 -4 -52 -12 -85 -24 -100 l-18 -22 -520 -3 c-488 -2 -520 -1 -541 16 -21
16 -25 37 -46 227 -13 116 -26 247 -30 293 l-7 82 622 0 622 0 -6 -32z"/>
</g>
</svg>
