<svg viewBox="0 0 1498 400" xmlns="http://www.w3.org/2000/svg"><g><g><g><g><g><line x1="61.953125" y1="375.2000000000005" x2="56.953125" y2="375.2000000000005" style="visibility: inherit;" fill="rgb(0, 0, 0)" stroke="rgb(204, 204, 204)" stroke-width="1px"></line><line x1="61.953125" y1="337.4000000000005" x2="56.953125" y2="337.4000000000005" style="visibility: inherit;" fill="rgb(0, 0, 0)" stroke="rgb(204, 204, 204)" stroke-width="1px"></line><line x1="61.953125" y1="299.6000000000005" x2="56.953125" y2="299.6000000000005" style="visibility: inherit;" fill="rgb(0, 0, 0)" stroke="rgb(204, 204, 204)" stroke-width="1px"></line><line x1="61.953125" y1="261.8000000000004" x2="56.953125" y2="261.8000000000004" style="visibility: inherit;" fill="rgb(0, 0, 0)" stroke="rgb(204, 204, 204)" stroke-width="1px"></line><line x1="61.953125" y1="224.0000000000004" x2="56.953125" y2="224.0000000000004" style="visibility: inherit;" fill="rgb(0, 0, 0)" stroke="rgb(204, 204, 204)" stroke-width="1px"></line><line x1="61.953125" y1="186.20000000000033" x2="56.953125" y2="186.20000000000033" style="visibility: inherit;" fill="rgb(0, 0, 0)" stroke="rgb(204, 204, 204)" stroke-width="1px"></line><line x1="61.953125" y1="148.4000000000003" x2="56.953125" y2="148.4000000000003" style="visibility: inherit;" fill="rgb(0, 0, 0)" stroke="rgb(204, 204, 204)" stroke-width="1px"></line><line x1="61.953125" y1="110.60000000000026" x2="56.953125" y2="110.60000000000026" style="visibility: inherit;" fill="rgb(0, 0, 0)" stroke="rgb(204, 204, 204)" stroke-width="1px"></line><line x1="61.953125" y1="72.80000000000022" x2="56.953125" y2="72.80000000000022" style="visibility: inherit;" fill="rgb(0, 0, 0)" stroke="rgb(204, 204, 204)" stroke-width="1px"></line><line x1="61.953125" y1="35.0000000000002" x2="56.953125" y2="35.0000000000002" style="visibility: inherit;" fill="rgb(0, 0, 0)" stroke="rgb(204, 204, 204)" stroke-width="1px"></line></g><g transform="translate(51.953125, 0)"><text x="0" y="375.2000000000005" dx="0em" dy="0.3em" style="text-anchor: end; visibility: hidden; font-family: Roboto, sans-serif; font-size: 12px; font-weight: 200;" fill="rgb(50, 49, 63)" stroke="none" stroke-width="1px">-0.15</text><text x="0" y="337.4000000000005" dx="0em" dy="0.3em" style="text-anchor: end; visibility: inherit; font-family: Roboto, sans-serif; font-size: 12px; font-weight: 200;" fill="rgb(50, 49, 63)" stroke="none" stroke-width="1px">-0.1</text><text x="0" y="299.6000000000005" dx="0em" dy="0.3em" style="text-anchor: end; visibility: inherit; font-family: Roboto, sans-serif; font-size: 12px; font-weight: 200;" fill="rgb(50, 49, 63)" stroke="none" stroke-width="1px">-0.05</text><text x="0" y="261.8000000000004" dx="0em" dy="0.3em" style="text-anchor: end; visibility: inherit; font-family: Roboto, sans-serif; font-size: 12px; font-weight: 200;" fill="rgb(50, 49, 63)" stroke="none" stroke-width="1px">0</text><text x="0" y="224.0000000000004" dx="0em" dy="0.3em" style="text-anchor: end; visibility: inherit; font-family: Roboto, sans-serif; font-size: 12px; font-weight: 200;" fill="rgb(50, 49, 63)" stroke="none" stroke-width="1px">0.05</text><text x="0" y="186.20000000000033" dx="0em" dy="0.3em" style="text-anchor: end; visibility: inherit; font-family: Roboto, sans-serif; font-size: 12px; font-weight: 200;" fill="rgb(50, 49, 63)" stroke="none" stroke-width="1px">0.1</text><text x="0" y="148.4000000000003" dx="0em" dy="0.3em" style="text-anchor: end; visibility: inherit; font-family: Roboto, sans-serif; font-size: 12px; font-weight: 200;" fill="rgb(50, 49, 63)" stroke="none" stroke-width="1px">0.15</text><text x="0" y="110.60000000000026" dx="0em" dy="0.3em" style="text-anchor: end; visibility: inherit; font-family: Roboto, sans-serif; font-size: 12px; font-weight: 200;" fill="rgb(50, 49, 63)" stroke="none" stroke-width="1px">0.2</text><text x="0" y="72.80000000000022" dx="0em" dy="0.3em" style="text-anchor: end; visibility: inherit; font-family: Roboto, sans-serif; font-size: 12px; font-weight: 200;" fill="rgb(50, 49, 63)" stroke="none" stroke-width="1px">0.25</text><text x="0" y="35.0000000000002" dx="0em" dy="0.3em" style="text-anchor: end; visibility: inherit; font-family: Roboto, sans-serif; font-size: 12px; font-weight: 200;" fill="rgb(50, 49, 63)" stroke="none" stroke-width="1px">0.3</text></g><line x1="61.953125" y1="0" x2="61.953125" y2="378" fill="rgb(0, 0, 0)" stroke="rgb(204, 204, 204)" stroke-width="1px"></line></g></g><g transform="translate(61, 0)" clip-path="url(#clip_0)"><clipPath id="clip_0"><rect width="1436" height="378"></rect></clipPath><g><g><g><line x1="3.5607638888889848" y1="0" x2="3.5607638888889848" y2="378" fill="rgb(0, 0, 0)" stroke="rgb(60, 60, 60)" stroke-width="1px" opacity="0.25"></line><line x1="163.12152777777794" y1="0" x2="163.12152777777794" y2="378" fill="rgb(0, 0, 0)" stroke="rgb(60, 60, 60)" stroke-width="1px" opacity="0.25"></line><line x1="322.6822916666669" y1="0" x2="322.6822916666669" y2="378" fill="rgb(0, 0, 0)" stroke="rgb(60, 60, 60)" stroke-width="1px" opacity="0.25"></line><line x1="482.2430555555558" y1="0" x2="482.2430555555558" y2="378" fill="rgb(0, 0, 0)" stroke="rgb(60, 60, 60)" stroke-width="1px" opacity="0.25"></line><line x1="641.8038194444448" y1="0" x2="641.8038194444448" y2="378" fill="rgb(0, 0, 0)" stroke="rgb(60, 60, 60)" stroke-width="1px" opacity="0.25"></line><line x1="801.3645833333337" y1="0" x2="801.3645833333337" y2="378" fill="rgb(0, 0, 0)" stroke="rgb(60, 60, 60)" stroke-width="1px" opacity="0.25"></line><line x1="960.9253472222225" y1="0" x2="960.9253472222225" y2="378" fill="rgb(0, 0, 0)" stroke="rgb(60, 60, 60)" stroke-width="1px" opacity="0.25"></line><line x1="1120.4861111111115" y1="0" x2="1120.4861111111115" y2="378" fill="rgb(0, 0, 0)" stroke="rgb(60, 60, 60)" stroke-width="1px" opacity="0.25"></line><line x1="1280.0468750000005" y1="0" x2="1280.0468750000005" y2="378" fill="rgb(0, 0, 0)" stroke="rgb(60, 60, 60)" stroke-width="1px" opacity="0.25"></line></g><g><line x1="0" y1="375.2000000000005" x2="1436.046875" y2="375.2000000000005" fill="rgb(0, 0, 0)" stroke="rgb(60, 60, 60)" stroke-width="1px" opacity="0.25"></line><line x1="0" y1="337.4000000000005" x2="1436.046875" y2="337.4000000000005" fill="rgb(0, 0, 0)" stroke="rgb(60, 60, 60)" stroke-width="1px" opacity="0.25"></line><line x1="0" y1="299.6000000000005" x2="1436.046875" y2="299.6000000000005" fill="rgb(0, 0, 0)" stroke="rgb(60, 60, 60)" stroke-width="1px" opacity="0.25"></line><line x1="0" y1="261.8000000000004" x2="1436.046875" y2="261.8000000000004" fill="rgb(0, 0, 0)" stroke="rgb(60, 60, 60)" stroke-width="1px" opacity="0.25"></line><line x1="0" y1="224.0000000000004" x2="1436.046875" y2="224.0000000000004" fill="rgb(0, 0, 0)" stroke="rgb(60, 60, 60)" stroke-width="1px" opacity="0.25"></line><line x1="0" y1="186.20000000000033" x2="1436.046875" y2="186.20000000000033" fill="rgb(0, 0, 0)" stroke="rgb(60, 60, 60)" stroke-width="1px" opacity="0.25"></line><line x1="0" y1="148.4000000000003" x2="1436.046875" y2="148.4000000000003" fill="rgb(0, 0, 0)" stroke="rgb(60, 60, 60)" stroke-width="1px" opacity="0.25"></line><line x1="0" y1="110.60000000000026" x2="1436.046875" y2="110.60000000000026" fill="rgb(0, 0, 0)" stroke="rgb(60, 60, 60)" stroke-width="1px" opacity="0.25"></line><line x1="0" y1="72.80000000000022" x2="1436.046875" y2="72.80000000000022" fill="rgb(0, 0, 0)" stroke="rgb(60, 60, 60)" stroke-width="1px" opacity="0.25"></line><line x1="0" y1="35.0000000000002" x2="1436.046875" y2="35.0000000000002" fill="rgb(0, 0, 0)" stroke="rgb(60, 60, 60)" stroke-width="1px" opacity="0.25"></line></g></g></g><g><g><line x1="0" y1="261.8000000000004" x2="1436.046875" y2="261.8000000000004" fill="rgb(0, 0, 0)" stroke="rgb(153, 153, 153)" stroke-width="1.5px"></line></g></g><g><g><line x1="3.5607638888889848" y1="0" x2="3.5607638888889848" y2="378" fill="rgb(0, 0, 0)" stroke="rgb(153, 153, 153)" stroke-width="1.5px"></line></g></g><g><g><g><g><g><path style="fill: none;" stroke="rgb(255, 112, 67)" stroke-width="2px" d="M35.47291666666678,-18.622055721282855L37.06852430555566,0.02948181629195612L38.664131944444556,9.998396563530115L40.25973958333344,21.487808394432257L41.855347222222335,31.81293122768421L43.45095486111122,40.46723310947437L45.046562500000114,45.07959835529346L46.64217013888901,55.99198012352009L48.23777777777789,64.54212324619316L49.833385416666786,69.80521600246452L51.42899305555567,72.95772515535377L53.024600694444565,81.03263126611732L54.62020833333345,84.84469990730308L56.21581597222234,90.65246884822868L57.81142361111123,94.0728775739672L59.40703125000012,99.16856830120109L61.00263888888901,102.47952358722709L62.59824652777791,106.41223208904293L64.1938541666668,109.58951358795193L65.78946180555569,112.34319810867336L67.38506944444457,116.31735156774548L68.98067708333346,119.18043320179012L70.57628472222235,122.32416670322445L72.17189236111125,125.32488750219372L73.76750000000013,127.8469128489497L75.36310763888902,128.95780442953136L76.95871527777791,132.00334976911572L78.5543229166668,135.05322097539928L80.14993055555568,137.2463114738467L81.74553819444458,139.0562811374667L83.34114583333347,140.73418794870403L84.93675347222235,140.33580266237286L86.53236111111124,152.1659328222278L88.12796875000014,156.4637489795688L89.72357638888903,155.1261549472812L91.31918402777792,161.00294624567064L92.9147916666668,162.62843571901354L94.5103993055557,161.74924837350878L96.10600694444459,169.38146849274668L97.70161458333348,169.23340331316027L99.29722222222236,171.7853154420856L100.89282986111125,176.5929530143741L102.48843750000013,175.9313770413402L104.08404513888904,174.71748139262232L105.67965277777792,176.38564373850855L107.27526041666681,177.66007899045977L108.87086805555569,178.4483104825023L110.4664756944446,178.99749277830156L112.06208333333348,183.46864213347467L113.65769097222237,182.11969270110163L115.25329861111125,185.75008620619806L116.84890625000016,188.0084139287475L118.44451388888903,188.88562985062632L120.04012152777793,186.57423703670534L121.6357291666668,192.1734518885616L123.23133680555571,191.29645000696217L124.82694444444459,192.0113952338699L126.42255208333349,193.01135199070012L128.01815972222235,194.28359614610707L129.61376736111126,196.58781861066853L131.20937500000014,197.50881703496015L132.80498263888904,196.38342704176938L134.40059027777792,198.77198700904881L135.99619791666683,199.24972491264379L137.5918055555557,200.80772410631215L139.1874131944446,202.03473817110097L140.78302083333347,202.6664949536327L142.37862847222237,205.2571033120159L143.97423611111128,205.48052756786382L145.56984375000016,208.32087587118184L147.16545138888907,207.73893977999722L148.76105902777795,205.77719866037404L150.35666666666683,208.5300946116451L151.9522743055557,209.73266302347218L153.5478819444446,210.08226965665853L155.1434895833335,211.18819888234174L156.7390972222224,211.82085125446355L158.33470486111128,210.66852598190343L159.93031250000016,211.56570397615468L161.52592013888903,215.8455125868324L163.12152777777794,213.29371874332463L164.71713541666682,212.60337125062978L166.31274305555573,212.64914770722424L167.9083506944446,217.94394095540082L169.50395833333351,214.25185878872907L171.0995659722224,215.74702026248013L172.69517361111127,218.67896372377908L174.29078125000015,220.7793015569452L175.88638888888906,219.61060501933133L177.48199652777794,221.2203850626949L179.07760416666684,224.4809113323692L180.67321180555572,217.29364997446572L182.2688194444446,225.03742169141805L183.8644270833335,226.2411814063791L185.4600347222224,222.22468176782166L187.0556423611113,223.1413909375671L188.65125000000015,224.17975102663075L190.24685763888905,223.6537385910753L191.84246527777796,225.38656363189256L193.43807291666684,225.88717568218743L195.03368055555572,224.71112573444879L196.6292881944446,229.6167120814327L198.2248958333335,229.4071272194389L199.8205034722224,230.7299186766151L201.41611111111132,231.79647293984925L203.01171875000017,229.75072382688558L204.60732638888902,231.6440678119663L206.20293402777793,234.08016725182569L207.79854166666684,233.09072099924123L209.39414930555571,234.7725086987022L210.9897569444446,235.33874099254643L212.58536458333347,233.94511910080945L214.18097222222238,240.04039201438462L215.7765798611113,237.14858392179048L217.37218750000017,235.46505292058026L218.96779513888904,238.43521665334737L220.56340277777792,234.99732421636617L222.15901041666683,240.0987405210737L223.75461805555574,238.43624883443152L225.3502256944446,237.18595084846055L226.9458333333335,240.64089891612565L228.5414409722224,241.44336549490725L230.13704861111128,236.25574869215524L231.73265625000016,238.94795014262235L233.32826388888904,239.94099705964362L234.92387152777795,239.75270075649058L236.51947916666686,243.35914146453183L238.1150868055557,236.67060663104093L239.7106944444446,242.5297579124574L241.30630208333352,242.66868554353755L242.9019097222224,244.23574906140607L244.49751736111128,246.3191734880213L246.09312500000016,245.94052637666505L247.68873263888906,243.03177108168643L249.28434027777797,244.42527468800586L250.87994791666682,245.18811001926701L252.47555555555573,241.7808788523082L254.0711631944446,247.8232824087147L255.66677083333352,247.78943024873774L257.2623784722224,245.36391453743022L258.8579861111113,249.4666343882684L260.45359375000015,247.62381235808175L262.04920138888906,249.68297560066026L263.6448090277779,248.89105050563853L265.2404166666668,250.770708586276L266.8360243055557,251.54959130585235L268.43163194444463,251.7842667579655L270.02723958333354,250.563865411282L271.6228472222224,251.64641425684135L273.2184548611113,245.71150327771943L274.8140625000002,254.99919259101193L276.4096701388891,251.838554836065L278.00527777777796,251.38456061780494L279.60088541666687,253.38305400237482L281.1964930555557,251.49636357203167L282.7921006944446,257.5131579834972L284.3877083333335,253.26175653114956L285.9833159722224,253.14784415364306L287.5789236111113,254.98981072679203L289.1745312500002,253.83322084248107L290.77013888888905,255.6261489570145L292.36574652777796,256.2152807444338L293.96135416666687,256.4092614363883L295.5569618055558,259.0773192841564L297.1525694444446,256.8039647370581L298.74817708333353,257.22611025460105L300.34378472222244,260.31553737185936L301.93939236111135,257.30011080876034L303.5350000000002,259.2261042093862L305.1306076388891,258.18112664967816L306.72621527777795,258.0926128972326L308.32182291666686,260.0706131571908L309.9174305555557,260.42372232368257L311.5130381944446,261.2362474314407L313.1086458333335,259.35969614721876L314.70425347222243,258.2582790173594L316.2998611111113,262.83659320063936L317.8954687500002,261.58005220450036L319.4910763888891,257.9289319302891L321.086684027778,263.5436347790067L322.6822916666669,263.89641100373166L324.27789930555576,256.9676942855124L325.87350694444467,260.50237834192853L327.4691145833335,263.4432784032081L329.06472222222243,259.34020140785765L330.6603298611113,262.87293797936337L332.2559375000002,263.8534309763466L333.8515451388891,263.2671370708388L335.447152777778,264.9628450453286L337.04276041666685,264.4301141036679L338.63836805555576,262.6514671050948L340.23397569444467,265.3774857755755L341.8295833333336,261.0469290243466L343.4251909722224,264.4048798812558L345.02079861111133,266.0345915455376L346.61640625000024,264.66005303449975L348.2120138888891,263.60899944156455L349.807621527778,265.38144164830493L351.40322916666685,267.9254483684902L352.99883680555575,267.98619778752374L354.59444444444466,266.8063028596346L356.1900520833335,268.45334351360844L357.7856597222224,267.52216303832876L359.3812673611113,267.1784541301434L360.97687500000023,268.244383874536L362.57248263888914,266.50225512236403L364.16809027777805,267.8272714719181L365.76369791666684,267.49286733120726L367.35930555555575,269.11550598517107L368.95491319444466,270.70003702044534L370.55052083333356,269.90420850664424L372.1461284722224,267.76160546317743L373.7417361111113,269.8988807342951L375.33734375000023,270.2589021168654L376.93295138888914,266.7304167795931L378.52855902777804,268.71245124116587L380.12416666666684,271.00469660311984L381.71977430555575,273.3665881372993L383.31538194444465,267.58227596916305L384.91098958333356,270.4662332192068L386.50659722222247,270.6787435330455L388.1022048611114,269.6361955769365L389.6978125000002,270.5387738637631L391.29342013888913,273.76305339783477L392.889027777778,272.5530879229312L394.4846354166669,271.3167933814232L396.0802430555558,271.42096692621755L397.67585069444465,272.7787757955496L399.27145833333356,272.66358832940506L400.86706597222246,275.663319896162L402.46267361111137,275.62346475124406L404.0582812500003,270.73086726963567L405.65388888888907,275.1371342569594L407.249496527778,274.47942086607264L408.84510416666694,275.9467613279824L410.44071180555585,274.95965684503363L412.03631944444476,270.405538014323L413.6319270833336,259.58887484781485L415.22753472222246,276.99559108465957L416.82314236111137,277.22608852684544L418.4187500000003,277.7934501647954L420.0143576388892,277.031000669301L421.6099652777781,272.55672731176065L423.205572916667,273.5709867469971L424.8011805555559,274.2954053685074L426.3967881944447,277.2438595026736L427.9923958333336,276.32297795563983L429.5880034722225,274.50767981559085L431.1836111111114,277.1136596456175L432.77921875000027,278.51041328460025L434.3748263888892,276.2364831522112L435.9704340277781,276.32133604139136L437.566041666667,276.0987440079455L439.1616493055558,278.0375856339936L440.7572569444447,277.0253356426959L442.3528645833336,278.83398163616704L443.9484722222225,276.96940353810834L445.5440798611114,277.9883394718175L447.1396875000003,279.8118908360605L448.7352951388892,278.62955345511483L450.3309027777781,280.08349668532657L451.92651041666693,276.6161159753804L453.52211805555584,278.9007438972597L455.11772569444474,280.7779503718023L456.7133333333336,277.20026287734555L458.3089409722225,280.5123953849082L459.9045486111114,277.5503384277229L461.5001562500003,282.3745880603795L463.0957638888892,278.15979559272574L464.69137152777813,275.8727498605852L466.2869791666669,283.9497696191077L467.88258680555583,283.4962422057991L469.47819444444474,279.6573044687514L471.07380208333365,279.6051110282545L472.66940972222255,280.49271212816285L474.2650173611114,281.8189423114066L475.8606250000003,281.6758859559898L477.4562326388892,279.7852019846444L479.05184027777807,282.45071176737594L480.6474479166669,283.75058824122L482.2430555555558,282.74189103692817L483.83866319444473,283.1272212743764L485.43427083333364,280.72072135210084L487.02987847222255,281.4418371349578L488.62548611111146,285.5442373335366L490.22109375000036,283.4587893813853L491.81670138888916,283.86892153620767L493.41230902777806,284.55819741934584L495.007916666667,285.348244029284L496.6035243055559,283.6575835153465L498.19913194444473,285.4616234183316L499.79473958333364,284.65710374265956L501.39034722222254,283.960135082901L502.98595486111145,283.645680341125L504.5815625000003,288.6099024593835L506.17717013888915,284.36918295472907L507.77277777777806,284.7853378087287L509.36838541666697,285.0704014405613L510.9639930555559,284.9800595447426L512.5596006944447,285.9736415624623L514.1552083333337,286.3123434066777L515.7508159722225,281.0535441294317L517.3464236111115,287.11415519118356L518.9420312500002,287.33582206368493L520.5376388888892,287.7065144807105L522.133246527778,285.4830809563403L523.728854166667,285.1113873377447L525.3244618055559,283.7540987834339L526.9200694444448,289.1122493624692L528.5156770833337,284.74916500151204L530.1112847222225,287.7075452536349L531.7068923611114,283.952592979372L533.3025000000004,287.6717047721152L534.8981076388892,280.1059976696973L536.493715277778,285.9790094673638L538.089322916667,284.77055917233275L539.6849305555559,288.3071312189107L541.2805381944448,288.51845375001477L542.8761458333337,286.9174578070645L544.4717534722225,289.3616569817071L546.0673611111114,287.4666288375859L547.6629687500003,287.5502340972428L549.2585763888892,287.80093440711545L550.8541840277782,288.9156364679341L552.449791666667,288.4380844414239L554.0453993055559,290.5156466990714L555.6410069444448,288.0230209112172L557.2366145833337,290.38341768384026L558.8322222222225,288.8107623636727L560.4278298611114,287.8874939858918L562.0234375000003,284.7054191112523L563.6190451388892,289.97945326864766L565.2146527777782,289.1173609822993L566.810260416667,288.5571443468337L568.405868055556,285.4383831501012L570.0014756944448,285.64822148084687L571.5970833333337,287.59799042642163L573.1926909722225,290.0920919656758L574.7882986111115,289.6181448280816L576.3839062500003,290.96375128924893L577.9795138888892,291.24830094277905L579.5751215277782,290.72868436873006L581.170729166667,291.4463417112832L582.766336805556,286.87820676267194L584.3619444444447,287.78587836325215L585.9575520833337,292.10490703880834L587.5531597222225,293.09515312612103L589.1487673611115,288.81473619043874L590.7443750000003,292.6796840459113L592.3399826388893,292.7908779710536L593.9355902777781,293.37262255251454L595.531197916667,289.928855273128L597.1268055555558,291.9335424482827L598.7224131944448,290.6179861158137L600.3180208333337,291.0937469631438L601.9136284722225,290.95657812356995L603.5092361111115,290.4739848852162L605.1048437500003,289.0787999361758L606.7004513888893,293.93195486366795L608.2960590277781,292.2553998857741L609.891666666667,292.417197439075L611.4872743055558,292.04231433868455L613.0828819444448,292.0909042984252L614.6784895833337,292.54153794348287L616.2740972222226,290.8343329608445L617.8697048611115,293.259074184299L619.4653125000003,290.31527965068864L621.0609201388893,291.2022682011132L622.6565277777781,292.5333649843936L624.252135416667,292.9189388334756L625.8477430555558,284.8820741578941L627.4433506944448,292.0099942564969L629.0389583333337,294.94434567093896L630.6345659722226,293.51666321158456L632.2301736111115,292.3762340724473L633.8257812500004,291.83810019791173L635.4213888888893,294.83417688608216L637.0169965277781,293.76647356450604L638.612604166667,294.49648328423547L640.208211805556,292.63617754280614L641.8038194444448,292.33297822177457L643.3994270833336,296.11235221028375L644.9950347222226,295.5708584666257L646.5906423611115,293.1734101951127L648.1862500000004,289.0312154024844L649.7818576388893,294.9778401583438L651.3774652777781,293.40857568681287L652.973072916667,294.28192480206536L654.5686805555559,293.5522558569913L656.1642881944448,291.19181402325677L657.7598958333338,295.5003800719981L659.3555034722226,291.74445194304036L660.9511111111116,295.1212499618535L662.5467187500003,293.54278457462834L664.1423263888893,292.5260960638528L665.7379340277781,292.8619083642964L667.3335416666671,294.7516728073363L668.9291493055559,278.69808577299165L670.5247569444448,294.4267033368354L672.1203645833338,295.32614846825646L673.7159722222226,292.54253773689317L675.3115798611116,292.81609811186837L676.9071875000003,297.2257953763013L678.5027951388893,293.48936181068467L680.0984027777781,296.77040496766614L681.6940104166671,297.0341110408311L683.2896180555559,294.74045822322415L684.8852256944449,297.9322268694644L686.4808333333337,295.92884646654176L688.0764409722226,295.8607337802653L689.6720486111114,294.8228383839135L691.2676562500004,295.2443005919461L692.8632638888893,295.8390650182967L694.4588715277781,293.1729567676787L696.0544791666671,296.17800061702775L697.6500868055559,295.85565032362985L699.2456944444449,296.79790914356755L700.8413020833337,295.20640138089703L702.4369097222226,296.5313783019786L704.0325173611114,299.66072322726296L705.6281250000004,298.3642784386878L707.2237326388893,294.4198146194224L708.8193402777782,296.7666536301379L710.4149479166671,296.6001978844409L712.0105555555559,293.75729236304807L713.6061631944449,296.4581652611499L715.2017708333337,296.03998969793366L716.7973784722226,297.07127237618016L718.3929861111114,294.9170161068444L719.9885937500005,297.83415136039304L721.5842013888893,293.53778560757684L723.1798090277781,299.4176664084201L724.7754166666671,298.7328755140309L726.3710243055559,296.7780315607791L727.9666319444449,294.9691349148755L729.5622395833337,300.0223358303313L731.1578472222227,295.8993793159728L732.7534548611115,296.9512239426379L734.3490625000005,298.08852415084885L735.9446701388893,299.9404851377015L737.5402777777781,298.38571344614076L739.1358854166671,299.13671601116704L740.7314930555559,299.2890901595359L742.3271006944449,296.80812111794995L743.9227083333337,299.76791797876405L745.5183159722227,296.67960964441346L747.1139236111115,295.669714096189L748.7095312500003,297.6893840909009L750.3051388888894,293.14047615528153L751.9007465277781,295.876167210937L753.4963541666671,296.1840359896426L755.0919618055559,299.00749200880574L756.6875694444449,299.70848800540017L758.2831770833337,298.673735621572L759.8787847222227,297.46374057531403L761.4743923611115,299.9054135113959L763.0700000000004,298.74871449470567L764.6656076388894,300.28551806807565L766.2612152777781,297.46957598924683L767.8568229166672,299.66674733459996L769.4524305555559,300.9312944889073L771.0480381944449,300.69370414614724L772.6436458333337,301.31952975988435L774.2392534722226,300.9850383132701L775.8348611111115,294.98034949898766L777.4304687500004,298.24299927353906L779.0260763888894,299.3495424568658L780.6216840277782,295.34055675864266L782.2172916666672,298.9711445897822L783.8128993055559,301.1879062533383L785.408506944445,298.70737655758904L787.0041145833337,296.1304949402814L788.5997222222226,297.84483929276513L790.1953298611115,300.68258250057744L791.7909375000004,298.4162817776208L793.3865451388893,298.84858963191556L794.9821527777782,289.5707011103635L796.5777604166672,301.03497729003476L798.173368055556,301.476426917315L799.768975694445,300.47916256189393L801.3645833333337,302.92194794416474L802.9601909722226,300.66282038688706L804.5557986111115,292.443380761147L806.1514062500004,299.185773479939L807.7470138888893,300.49497056305455L809.3426215277782,300.43958482444333L810.9382291666672,298.5046297192578L812.533836805556,298.3681367963557L814.1294444444447,299.0615540772681L815.7250520833338,297.67261009216355L817.3206597222226,299.66651921272324L818.9162673611114,299.91896000802564L820.5118750000004,298.8952222496276L822.1074826388892,301.8937350541358L823.7030902777782,301.36707204878377L825.298697916667,301.3331889092927L826.8943055555559,301.8174634903674L828.4899131944449,299.6458277136092L830.0855208333336,303.5588501423602L831.6811284722227,305.7649717509751L833.2767361111114,301.29230158329057L834.8723437500004,302.9649475097661L836.4679513888892,301.72546841502236L838.0635590277782,305.7854069650178L839.659166666667,306.3587560981517L841.2547743055559,305.8687249600892L842.8503819444448,308.8212331861262L844.4459895833337,307.4321878135209L846.0415972222227,307.98728719651746L847.6372048611114,313.1508202433591L849.2328125000005,309.01105593442963L850.8284201388892,297.73661940097855L852.4240277777781,311.9291064918046L854.019635416667,311.4870457232003L855.6152430555559,311.7402835369115L857.2108506944448,314.4841109395032L858.8064583333337,312.25006552338647L860.4020659722227,316.8793512165551L861.9976736111115,313.56141709089326L863.5932812500005,315.4363536119466L865.1888888888892,316.78120248317765L866.7844965277781,317.94944559335755L868.380104166667,305.1835538625722L869.9757118055559,320.19051491022157L871.5713194444448,316.24314464926766L873.1669270833337,318.7264061748986L874.7625347222227,305.71688309609937L876.3581423611115,323.57406927943276L877.9537500000002,323.29391871690797L879.5493576388893,319.8866847336297L881.144965277778,318.8560807883744L882.740572916667,314.7680973291402L884.3361805555559,326.43949972391175L885.9317881944448,321.94609017968224L887.5273958333337,324.32385801076936L889.1230034722226,319.19125660061883L890.7186111111115,327.1521806299691L892.3142187500004,326.23960300087975L893.9098263888893,323.0896285355096L895.505434027778,325.4333414316182L897.1010416666671,329.1063909113412L898.6966493055559,325.7905014336114L900.2922569444448,322.850438523293L901.8878645833337,321.7804004728799L903.4834722222226,327.52666099667596L905.0790798611115,326.9232307553296L906.6746875000003,318.5622710764413L908.2702951388893,327.5401455342774L909.8659027777782,324.58619816899346L911.4615104166671,329.6800639212136L913.0571180555559,331.39707251191186L914.6527256944449,326.59539990425156L916.2483333333337,324.68597473502206L917.8439409722225,324.6036030232911L919.4395486111115,329.7855632483964L921.0351562500003,314.05516858696984L922.6307638888893,332.63251300454186L924.2263715277782,329.8400477647786L925.8219791666671,332.531446564198L927.417586805556,314.0615559995179L929.0131944444449,332.0776924371724L930.6088020833337,327.1439795076852L932.2044097222225,322.75430627465295L933.8000173611115,316.4083781123166L935.3956250000003,334.23037438392686L936.9912326388893,332.0780698239808L938.5868402777782,324.033591228724L940.1824479166671,326.8707345604901L941.778055555556,327.93592854142236L943.3736631944449,329.89559684991883L944.9692708333338,324.3758416354661L946.5648784722225,330.33683525323914L948.1604861111115,326.2957097172742L949.7560937500003,318.3404577553277L951.3517013888893,325.2452957808976L952.9473090277781,331.12848575711297L954.5429166666671,326.5793412506585L956.138524305556,328.52747954726266L957.7341319444448,325.07795007824944L959.3297395833338,316.4072459518914L960.9253472222225,330.5452259957795L962.5209548611116,322.8279417634015L964.1165625000003,323.6612625300889L965.7121701388893,328.9811491847043L967.3077777777781,332.5801407277589L968.9033854166671,330.91974015831994L970.498993055556,329.20351450443314L972.0946006944448,323.5249751985078L973.6902083333338,326.2091698527341L975.2858159722226,325.1724263310437L976.8814236111116,324.38500593900727L978.4770312500003,328.65576853156136L980.0726388888894,330.17911573052453L981.6682465277781,325.4691424846654L983.263854166667,333.1221357762818L984.859461805556,329.88054080605554L986.4550694444448,329.6936216831212L988.0506770833338,333.24331073761033L989.6462847222226,331.5769114077096L991.2418923611116,321.8609866380696L992.8375000000004,300.732079315186L994.4331076388894,318.3290234982972L996.0287152777781,323.6638366460805L997.624322916667,328.58194153308915L999.219930555556,317.88601644635247L1000.8155381944448,332.1032871484761L1002.4111458333338,326.254090148211L1004.0067534722226,320.2049682617192L1005.6023611111116,326.8633839666848L1007.1979687500004,323.529791104794L1008.7935763888894,326.4963837444787L1010.3891840277782,305.093372496963L1011.984791666667,330.644602644444L1013.5803993055559,332.9593356132512L1015.1760069444448,319.8377371013169L1016.7716145833338,310.17022486329125L1018.3672222222226,337.4321803927426L1019.9628298611116,328.64746038913773L1021.5584375000004,328.8069710910325L1023.1540451388893,321.56884418726014L1024.7496527777782,329.28149839043664L1026.345260416667,328.2272542595868L1027.940868055556,319.20690970420884L1029.5364756944448,314.4311866641049L1031.1320833333339,317.21559159755753L1032.7276909722227,313.93865745067643L1034.3232986111116,306.070356535912L1035.9189062500004,307.4524568647151L1037.5145138888893,327.678770411015L1039.1101215277781,310.9457434892659L1040.705729166667,320.81536607742356L1042.301336805556,329.8968867242341L1043.896944444445,331.0519663572316L1045.4925520833337,326.4755486130719L1047.0881597222226,319.56237991452264L1048.6837673611114,305.17803106010007L1050.2793750000005,319.09959103465127L1051.8749826388892,333.3048247873788L1053.4705902777782,328.89371936321305L1055.066197916667,338.8792785584931L1056.661805555556,318.9592425704007L1058.2574131944448,326.23086677789735L1059.8530208333339,328.5560313940053L1061.4486284722227,328.0813013195996L1063.0442361111116,333.74980326294946L1064.6398437500004,335.3416771471505L1066.2354513888893,333.19023438096093L1067.8310590277783,328.0358966171746L1069.426666666667,330.1167004585271L1071.022274305556,328.68987979292916L1072.617881944445,325.9811944246297L1074.2134895833337,323.23774440884637L1075.8090972222226,331.450250256062L1077.4047048611114,328.9194661557679L1079.0003125000005,332.5679010033612L1080.5959201388894,324.6843806982045L1082.1915277777782,333.79794542789506L1083.787135416667,337.5212324142461L1085.3827430555561,330.79161452055024L1086.9783506944448,313.4368062198167L1088.5739583333336,302.01120937168645L1090.1695659722227,311.04192643165635L1091.7651736111115,319.1177168667321L1093.3607812500004,322.8395562648778L1094.9563888888893,321.21393160820054L1096.5519965277783,330.536827731133L1098.1476041666672,318.90131087899255L1099.743211805556,320.8475960373883L1101.3388194444449,318.18788646459626L1102.9344270833337,315.841272759438L1104.5300347222226,302.10771619081544L1106.1256423611114,318.7387754499917L1107.7212500000005,332.0513598501687L1109.3168576388894,332.64131681919145L1110.9124652777782,307.7470044523482L1112.508072916667,315.63597996830987L1114.1036805555561,318.26356660127686L1115.699288194445,319.4875897347932L1117.2948958333338,329.35720105767297L1118.8905034722227,324.778344380856L1120.4861111111115,329.79816346168565L1122.0817187500004,315.48161186575936L1123.6773263888892,309.8070548355584L1125.2729340277783,329.73757879734086L1126.8685416666672,336.56911365985917L1128.464149305556,341.94582237601327L1130.0597569444449,310.03116627335595L1131.6553645833337,322.1100168704991L1133.2509722222228,322.23163117766427L1134.8465798611116,328.9130562126641L1136.4421875000005,325.7204933643346L1138.0377951388894,330.3333711802964L1139.6334027777784,333.80102084875153L1141.229010416667,325.1483411669736L1142.824618055556,328.03722028732346L1144.420225694445,330.15522207617806L1146.0158333333338,330.1086401522164L1147.6114409722227,326.80205016136216L1149.2070486111115,317.943345445395L1150.8026562500006,334.59437804222154L1152.3982638888895,314.0506061494355L1153.993871527778,313.2158603250985L1155.5894791666672,309.8107498466973L1157.185086805556,325.5435609102254L1158.7806944444449,327.62355365157174L1160.3763020833337,333.9977069675927L1161.9719097222228,340.52727042436646L1163.5675173611116,328.64685206413316L1165.1631250000005,322.49681581854867L1166.7587326388893,332.7908352196221L1168.3543402777782,341.0542094290261L1169.9499479166673,328.65693448782014L1171.545555555556,343.35579581856774L1173.141163194445,327.347334671021L1174.7367708333338,330.5163925170903L1176.3323784722227,348.10048865079926L1177.9279861111115,337.84393756389665L1179.5235937500006,341.33110432624864L1181.1192013888895,343.59863014817284L1182.7148090277783,342.45199947357224L1184.3104166666672,330.04939042329835L1185.906024305556,342.6219361901288L1187.501631944445,340.50646345615434L1189.0972395833337,327.358233827353L1190.6928472222228,326.1862450122838L1192.2884548611116,328.7738680720334L1193.8840625000005,331.7809199571614L1195.4796701388893,322.8122886598115L1197.0752777777782,351.4909824311738L1198.6708854166673,339.83320538997697L1200.266493055556,332.64789010882424L1201.862100694445,319.0745483219628L1203.4577083333338,336.60959543585824L1205.053315972223,337.7120042622094L1206.6489236111115,327.0465348541741L1208.2445312500004,336.5819053828721L1209.8401388888894,309.22116463184403L1211.4357465277783,338.0098976373677L1213.0313541666671,337.4173045933251L1214.626961805556,347.2592314958577L1216.222569444445,356.4247178912168L1217.818177083334,356.3439007878309" fill="none"></path></g></g></g></g></g></g><g transform="translate(61, 378)" clip-path="url(#clip_1)"><clipPath id="clip_1"><rect width="1436" height="22"></rect></clipPath><g><g><line x1="3.5607638888889848" y1="0" x2="3.5607638888889848" y2="5" style="visibility: inherit;" fill="rgb(0, 0, 0)" stroke="rgb(204, 204, 204)" stroke-width="1px"></line><line x1="163.12152777777794" y1="0" x2="163.12152777777794" y2="5" style="visibility: inherit;" fill="rgb(0, 0, 0)" stroke="rgb(204, 204, 204)" stroke-width="1px"></line><line x1="322.6822916666669" y1="0" x2="322.6822916666669" y2="5" style="visibility: inherit;" fill="rgb(0, 0, 0)" stroke="rgb(204, 204, 204)" stroke-width="1px"></line><line x1="482.2430555555558" y1="0" x2="482.2430555555558" y2="5" style="visibility: inherit;" fill="rgb(0, 0, 0)" stroke="rgb(204, 204, 204)" stroke-width="1px"></line><line x1="641.8038194444448" y1="0" x2="641.8038194444448" y2="5" style="visibility: inherit;" fill="rgb(0, 0, 0)" stroke="rgb(204, 204, 204)" stroke-width="1px"></line><line x1="801.3645833333337" y1="0" x2="801.3645833333337" y2="5" style="visibility: inherit;" fill="rgb(0, 0, 0)" stroke="rgb(204, 204, 204)" stroke-width="1px"></line><line x1="960.9253472222225" y1="0" x2="960.9253472222225" y2="5" style="visibility: inherit;" fill="rgb(0, 0, 0)" stroke="rgb(204, 204, 204)" stroke-width="1px"></line><line x1="1120.4861111111115" y1="0" x2="1120.4861111111115" y2="5" style="visibility: inherit;" fill="rgb(0, 0, 0)" stroke="rgb(204, 204, 204)" stroke-width="1px"></line><line x1="1280.0468750000005" y1="0" x2="1280.0468750000005" y2="5" style="visibility: inherit;" fill="rgb(0, 0, 0)" stroke="rgb(204, 204, 204)" stroke-width="1px"></line></g><g transform="translate(0, 8)"><text x="3.5607638888889848" y="0" dx="0em" dy="0.95em" style="text-anchor: middle; visibility: inherit; font-family: Roboto, sans-serif; font-size: 12px; font-weight: 200;" fill="rgb(50, 49, 63)" stroke="none" stroke-width="1px">0</text><text x="163.12152777777794" y="0" dx="0em" dy="0.95em" style="text-anchor: middle; visibility: inherit; font-family: Roboto, sans-serif; font-size: 12px; font-weight: 200;" fill="rgb(50, 49, 63)" stroke="none" stroke-width="1px">100</text><text x="322.6822916666669" y="0" dx="0em" dy="0.95em" style="text-anchor: middle; visibility: inherit; font-family: Roboto, sans-serif; font-size: 12px; font-weight: 200;" fill="rgb(50, 49, 63)" stroke="none" stroke-width="1px">200</text><text x="482.2430555555558" y="0" dx="0em" dy="0.95em" style="text-anchor: middle; visibility: inherit; font-family: Roboto, sans-serif; font-size: 12px; font-weight: 200;" fill="rgb(50, 49, 63)" stroke="none" stroke-width="1px">300</text><text x="641.8038194444448" y="0" dx="0em" dy="0.95em" style="text-anchor: middle; visibility: inherit; font-family: Roboto, sans-serif; font-size: 12px; font-weight: 200;" fill="rgb(50, 49, 63)" stroke="none" stroke-width="1px">400</text><text x="801.3645833333337" y="0" dx="0em" dy="0.95em" style="text-anchor: middle; visibility: inherit; font-family: Roboto, sans-serif; font-size: 12px; font-weight: 200;" fill="rgb(50, 49, 63)" stroke="none" stroke-width="1px">500</text><text x="960.9253472222225" y="0" dx="0em" dy="0.95em" style="text-anchor: middle; visibility: inherit; font-family: Roboto, sans-serif; font-size: 12px; font-weight: 200;" fill="rgb(50, 49, 63)" stroke="none" stroke-width="1px">600</text><text x="1120.4861111111115" y="0" dx="0em" dy="0.95em" style="text-anchor: middle; visibility: inherit; font-family: Roboto, sans-serif; font-size: 12px; font-weight: 200;" fill="rgb(50, 49, 63)" stroke="none" stroke-width="1px">700</text><text x="1280.0468750000005" y="0" dx="0em" dy="0.95em" style="text-anchor: middle; visibility: inherit; font-family: Roboto, sans-serif; font-size: 12px; font-weight: 200;" fill="rgb(50, 49, 63)" stroke="none" stroke-width="1px">800</text></g><line x1="0" y1="0" x2="1436.046875" y2="0" fill="rgb(0, 0, 0)" stroke="rgb(204, 204, 204)" stroke-width="1px"></line></g></g></g></g></svg>