<svg viewBox="0 0 1498 400" xmlns="http://www.w3.org/2000/svg"><g><g><g><g><g><line x1="61.953125" y1="374.6983971331952" x2="56.953125" y2="374.6983971331952" style="visibility: inherit;" fill="rgb(0, 0, 0)" stroke="rgb(204, 204, 204)" stroke-width="1px"></line><line x1="61.953125" y1="338.43813567306927" x2="56.953125" y2="338.43813567306927" style="visibility: inherit;" fill="rgb(0, 0, 0)" stroke="rgb(204, 204, 204)" stroke-width="1px"></line><line x1="61.953125" y1="302.17787421294327" x2="56.953125" y2="302.17787421294327" style="visibility: inherit;" fill="rgb(0, 0, 0)" stroke="rgb(204, 204, 204)" stroke-width="1px"></line><line x1="61.953125" y1="265.9176127528172" x2="56.953125" y2="265.9176127528172" style="visibility: inherit;" fill="rgb(0, 0, 0)" stroke="rgb(204, 204, 204)" stroke-width="1px"></line><line x1="61.953125" y1="229.65735129269117" x2="56.953125" y2="229.65735129269117" style="visibility: inherit;" fill="rgb(0, 0, 0)" stroke="rgb(204, 204, 204)" stroke-width="1px"></line><line x1="61.953125" y1="193.3970898325652" x2="56.953125" y2="193.3970898325652" style="visibility: inherit;" fill="rgb(0, 0, 0)" stroke="rgb(204, 204, 204)" stroke-width="1px"></line><line x1="61.953125" y1="157.1368283724392" x2="56.953125" y2="157.1368283724392" style="visibility: inherit;" fill="rgb(0, 0, 0)" stroke="rgb(204, 204, 204)" stroke-width="1px"></line><line x1="61.953125" y1="120.87656691231317" x2="56.953125" y2="120.87656691231317" style="visibility: inherit;" fill="rgb(0, 0, 0)" stroke="rgb(204, 204, 204)" stroke-width="1px"></line><line x1="61.953125" y1="84.61630545218722" x2="56.953125" y2="84.61630545218722" style="visibility: inherit;" fill="rgb(0, 0, 0)" stroke="rgb(204, 204, 204)" stroke-width="1px"></line><line x1="61.953125" y1="48.356043992061146" x2="56.953125" y2="48.356043992061146" style="visibility: inherit;" fill="rgb(0, 0, 0)" stroke="rgb(204, 204, 204)" stroke-width="1px"></line><line x1="61.953125" y1="12.095782531935201" x2="56.953125" y2="12.095782531935201" style="visibility: inherit;" fill="rgb(0, 0, 0)" stroke="rgb(204, 204, 204)" stroke-width="1px"></line></g><g transform="translate(51.953125, 0)"><text x="0" y="374.6983971331952" dx="0em" dy="0.3em" style="text-anchor: end; visibility: hidden; font-family: Roboto, sans-serif; font-size: 12px; font-weight: 200;" fill="rgb(50, 49, 63)" stroke="none" stroke-width="1px">-0.15</text><text x="0" y="338.43813567306927" dx="0em" dy="0.3em" style="text-anchor: end; visibility: inherit; font-family: Roboto, sans-serif; font-size: 12px; font-weight: 200;" fill="rgb(50, 49, 63)" stroke="none" stroke-width="1px">-0.1</text><text x="0" y="302.17787421294327" dx="0em" dy="0.3em" style="text-anchor: end; visibility: inherit; font-family: Roboto, sans-serif; font-size: 12px; font-weight: 200;" fill="rgb(50, 49, 63)" stroke="none" stroke-width="1px">-0.05</text><text x="0" y="265.9176127528172" dx="0em" dy="0.3em" style="text-anchor: end; visibility: inherit; font-family: Roboto, sans-serif; font-size: 12px; font-weight: 200;" fill="rgb(50, 49, 63)" stroke="none" stroke-width="1px">0</text><text x="0" y="229.65735129269117" dx="0em" dy="0.3em" style="text-anchor: end; visibility: inherit; font-family: Roboto, sans-serif; font-size: 12px; font-weight: 200;" fill="rgb(50, 49, 63)" stroke="none" stroke-width="1px">0.05</text><text x="0" y="193.3970898325652" dx="0em" dy="0.3em" style="text-anchor: end; visibility: inherit; font-family: Roboto, sans-serif; font-size: 12px; font-weight: 200;" fill="rgb(50, 49, 63)" stroke="none" stroke-width="1px">0.1</text><text x="0" y="157.1368283724392" dx="0em" dy="0.3em" style="text-anchor: end; visibility: inherit; font-family: Roboto, sans-serif; font-size: 12px; font-weight: 200;" fill="rgb(50, 49, 63)" stroke="none" stroke-width="1px">0.15</text><text x="0" y="120.87656691231317" dx="0em" dy="0.3em" style="text-anchor: end; visibility: inherit; font-family: Roboto, sans-serif; font-size: 12px; font-weight: 200;" fill="rgb(50, 49, 63)" stroke="none" stroke-width="1px">0.2</text><text x="0" y="84.61630545218722" dx="0em" dy="0.3em" style="text-anchor: end; visibility: inherit; font-family: Roboto, sans-serif; font-size: 12px; font-weight: 200;" fill="rgb(50, 49, 63)" stroke="none" stroke-width="1px">0.25</text><text x="0" y="48.356043992061146" dx="0em" dy="0.3em" style="text-anchor: end; visibility: inherit; font-family: Roboto, sans-serif; font-size: 12px; font-weight: 200;" fill="rgb(50, 49, 63)" stroke="none" stroke-width="1px">0.3</text><text x="0" y="12.095782531935201" dx="0em" dy="0.3em" style="text-anchor: end; visibility: inherit; font-family: Roboto, sans-serif; font-size: 12px; font-weight: 200;" fill="rgb(50, 49, 63)" stroke="none" stroke-width="1px">0.35</text></g><line x1="61.953125" y1="0" x2="61.953125" y2="378" fill="rgb(0, 0, 0)" stroke="rgb(204, 204, 204)" stroke-width="1px"></line></g></g><g transform="translate(61, 0)" clip-path="url(#clip_0)"><clipPath id="clip_0"><rect width="1436" height="378"></rect></clipPath><g><g><g><line x1="2.226901454816429" y1="0" x2="2.226901454816429" y2="378" fill="rgb(0, 0, 0)" stroke="rgb(60, 60, 60)" stroke-width="1px" opacity="0.25"></line><line x1="157.2014108491477" y1="0" x2="157.2014108491477" y2="378" fill="rgb(0, 0, 0)" stroke="rgb(60, 60, 60)" stroke-width="1px" opacity="0.25"></line><line x1="312.17592024347897" y1="0" x2="312.17592024347897" y2="378" fill="rgb(0, 0, 0)" stroke="rgb(60, 60, 60)" stroke-width="1px" opacity="0.25"></line><line x1="467.1504296378103" y1="0" x2="467.1504296378103" y2="378" fill="rgb(0, 0, 0)" stroke="rgb(60, 60, 60)" stroke-width="1px" opacity="0.25"></line><line x1="622.1249390321415" y1="0" x2="622.1249390321415" y2="378" fill="rgb(0, 0, 0)" stroke="rgb(60, 60, 60)" stroke-width="1px" opacity="0.25"></line><line x1="777.0994484264727" y1="0" x2="777.0994484264727" y2="378" fill="rgb(0, 0, 0)" stroke="rgb(60, 60, 60)" stroke-width="1px" opacity="0.25"></line><line x1="932.073957820804" y1="0" x2="932.073957820804" y2="378" fill="rgb(0, 0, 0)" stroke="rgb(60, 60, 60)" stroke-width="1px" opacity="0.25"></line><line x1="1087.0484672151354" y1="0" x2="1087.0484672151354" y2="378" fill="rgb(0, 0, 0)" stroke="rgb(60, 60, 60)" stroke-width="1px" opacity="0.25"></line><line x1="1242.0229766094665" y1="0" x2="1242.0229766094665" y2="378" fill="rgb(0, 0, 0)" stroke="rgb(60, 60, 60)" stroke-width="1px" opacity="0.25"></line><line x1="1396.9974860037978" y1="0" x2="1396.9974860037978" y2="378" fill="rgb(0, 0, 0)" stroke="rgb(60, 60, 60)" stroke-width="1px" opacity="0.25"></line></g><g><line x1="0" y1="374.6983971331952" x2="1436.046875" y2="374.6983971331952" fill="rgb(0, 0, 0)" stroke="rgb(60, 60, 60)" stroke-width="1px" opacity="0.25"></line><line x1="0" y1="338.43813567306927" x2="1436.046875" y2="338.43813567306927" fill="rgb(0, 0, 0)" stroke="rgb(60, 60, 60)" stroke-width="1px" opacity="0.25"></line><line x1="0" y1="302.17787421294327" x2="1436.046875" y2="302.17787421294327" fill="rgb(0, 0, 0)" stroke="rgb(60, 60, 60)" stroke-width="1px" opacity="0.25"></line><line x1="0" y1="265.9176127528172" x2="1436.046875" y2="265.9176127528172" fill="rgb(0, 0, 0)" stroke="rgb(60, 60, 60)" stroke-width="1px" opacity="0.25"></line><line x1="0" y1="229.65735129269117" x2="1436.046875" y2="229.65735129269117" fill="rgb(0, 0, 0)" stroke="rgb(60, 60, 60)" stroke-width="1px" opacity="0.25"></line><line x1="0" y1="193.3970898325652" x2="1436.046875" y2="193.3970898325652" fill="rgb(0, 0, 0)" stroke="rgb(60, 60, 60)" stroke-width="1px" opacity="0.25"></line><line x1="0" y1="157.1368283724392" x2="1436.046875" y2="157.1368283724392" fill="rgb(0, 0, 0)" stroke="rgb(60, 60, 60)" stroke-width="1px" opacity="0.25"></line><line x1="0" y1="120.87656691231317" x2="1436.046875" y2="120.87656691231317" fill="rgb(0, 0, 0)" stroke="rgb(60, 60, 60)" stroke-width="1px" opacity="0.25"></line><line x1="0" y1="84.61630545218722" x2="1436.046875" y2="84.61630545218722" fill="rgb(0, 0, 0)" stroke="rgb(60, 60, 60)" stroke-width="1px" opacity="0.25"></line><line x1="0" y1="48.356043992061146" x2="1436.046875" y2="48.356043992061146" fill="rgb(0, 0, 0)" stroke="rgb(60, 60, 60)" stroke-width="1px" opacity="0.25"></line><line x1="0" y1="12.095782531935201" x2="1436.046875" y2="12.095782531935201" fill="rgb(0, 0, 0)" stroke="rgb(60, 60, 60)" stroke-width="1px" opacity="0.25"></line></g></g></g><g><g><line x1="0" y1="265.9176127528172" x2="1436.046875" y2="265.9176127528172" fill="rgb(0, 0, 0)" stroke="rgb(153, 153, 153)" stroke-width="1.5px"></line></g></g><g><g><line x1="2.226901454816429" y1="0" x2="2.226901454816429" y2="378" fill="rgb(0, 0, 0)" stroke="rgb(153, 153, 153)" stroke-width="1.5px"></line></g></g><g><g><g><g><g><path stroke="rgb(255, 112, 67)" stroke-width="2px" d="M27.022822957909433,-4.948650801022174L28.572568051852745,10.484552611667086L30.122313145796056,23.284322790933942L31.67205823973937,34.06515486745707L33.221803333682686,44.61622126677687L34.771548427625994,51.69324618799884L36.32129352156931,59.44571433600642L37.871038615512624,66.76205779204845L39.42078370945593,69.36663793742014L40.97052880339925,74.69036768116463L42.52027389734256,83.78728166833204L44.07001899128587,87.34071776736926L45.619764085229185,92.71304389199906L47.16950917917249,95.56838654981092L48.71925427311581,99.47539725106873L50.268999367059116,102.69727138472392L51.818744461002424,105.02804977281501L53.36848955494574,109.98067693350816L54.91823464888905,113.80180917381522L56.46797974283237,116.084553113822L58.01772483677568,118.93123984521866L59.56746993071899,121.90376710483619L61.1172150246623,124.68320560891482L62.666960118605616,128.1884451638674L64.21670521254893,131.45117829599437L65.76645030649225,133.09661479488253L67.31619540043555,135.5622894744104L68.86594049437888,133.54015267726103L70.41568558832218,137.47967983617593L71.96543068226549,138.9891502100254L73.5151757762088,148.02030725307742L75.06492087015212,155.992728867071L76.61466596409542,156.30719510762302L78.16441105803875,161.23351949066995L79.71415615198205,158.12078999720634L81.26390124592537,166.98682524796848L82.81364633986868,166.03186367829227L84.363391433812,167.40195310469716L85.9131365277553,172.9294483271993L87.46288162169863,174.7157894759348L89.01262671564193,174.40297661458573L90.56237180958524,173.13413234995858L92.11211690352856,177.71068058039157L93.66186199747186,178.77979555666812L95.21160709141517,183.60919193474496L96.7613521853585,181.48845214062254L98.31109727930182,186.79747977714123L99.8608423732451,184.74217273513364L101.41058746718844,187.41081321981778L102.96033256113175,190.30436190489667L104.51007765507507,185.5899294134217L106.05982274901837,189.2957681719264L107.60956784296168,194.80210986639142L109.159312936905,192.406806463787L110.70905803084831,196.4867033557483L112.25880312479161,200.02359485635642L113.80854821873493,200.65165742225884L115.35829331267824,198.08869272336017L116.90803840662157,201.36973189711924L118.45778350056486,198.26335656686672L120.00752859450819,201.07969352381014L121.5572736884515,207.67352107458396L123.10701878239482,207.0506023550906L124.65676387633812,208.7606611260922L126.20650897028143,206.88535088600057L127.75625406422475,207.8784320317437L129.30599915816808,210.44612453065062L130.85574425211138,210.81042448489004L132.40548934605468,212.82447269162523L133.955234439998,214.07170955941444L135.5049795339413,210.5039873995522L137.0547246278846,213.84620160381863L138.60446972182794,216.91749395640952L140.15421481577124,219.99336822260847L141.70395990971454,217.51743286626254L143.25370500365787,218.6808606987047L144.80345009760117,220.60318688367883L146.3531951915445,223.6120641713602L147.9029402854878,222.6434946424601L149.45268537943113,221.00922655799152L151.00243047337443,221.13050408380442L152.55217556731776,225.13579359003475L154.10192066126106,223.98849701122097L155.65166575520436,227.55898020628806L157.2014108491477,227.6524258488521L158.751155943091,227.7913394194959L160.3009010370343,231.84413386020958L161.85064613097762,229.19365893395732L163.40039122492092,231.20517844308807L164.95013631886425,228.7559781203891L166.49988141280755,227.19503956484922L168.04962650675088,230.2267696869707L169.59937160069418,229.47282066564733L171.1491166946375,234.00536793680308L172.6988617885808,232.07857870862108L174.24860688252411,235.8230476455936L175.79835197646744,237.71861718412077L177.34809707041074,232.7261441249577L178.89784216435405,240.24590185175686L180.4475872582974,237.9942911502047L181.99733235224068,239.34244628617103L183.54707744618398,241.05475008677655L185.0968225401273,241.29278265999437L186.64656763407064,235.1904328836832L188.19631272801394,240.39280135201466L189.74605782195727,243.16925188648804L191.29580291590057,242.2429786072622L192.8455480098439,245.10404190308407L194.39529310378717,244.99613189409467L195.9450381977305,245.72474125817362L197.4947832916738,244.89576880471853L199.04452838561713,245.96555647939627L200.59427347956043,244.96693705364342L202.14401857350376,250.13871125272127L203.6937636674471,246.8681056581805L205.2435087613904,249.55707163050027L206.79325385533366,246.18931379818903L208.342998949277,251.29101929954382L209.89274404322032,250.11883963388635L211.44248913716362,244.78671061572712L212.99223423110695,250.01668943610701L214.54197932505025,248.17355255047184L216.09172441899358,251.04252613110765L217.6414695129369,254.79908202650134L219.19121460688018,250.62242192717025L220.74095970082348,252.99363921493236L222.2907047947668,255.0191368024876L223.84044988871014,256.3913469848962L225.39019498265344,253.5312089870759L226.93994007659677,255.98494597158285L228.48968517054007,258.3204163634822L230.0394302644834,256.30426563654333L231.58917535842667,256.3255643755807L233.13892045237,253.709571320989L234.6886655463133,257.94641158662574L236.23841064025663,257.1282482347896L237.78815573419993,255.80530037766752L239.33790082814326,260.21833359241356L240.8876459220866,259.1903288634091L242.4373910160299,257.56462552635566L243.98713610997316,257.86876760248947L245.5368812039165,261.9758483313984L247.08662629785982,258.629657709625L248.63637139180312,262.51469258334424L250.18611648574645,261.2745352583674L251.73586157968975,258.77273782287614L253.28560667363308,261.22895217458745L254.83535176757636,263.2839029430944L256.3850968615197,260.5026665242126L257.934841955463,262.9073667670335L259.4845870494063,264.89796559227744L261.0343321433496,265.51077015454064L262.58407723729295,262.9615818005286L264.1338223312363,265.1691085530284L265.6835674251796,265.5159861843248L267.2333125191229,264.57027704590234L268.7830576130662,266.9252583086109L270.3328027070095,265.15933695023625L271.8825478009528,270.09091375024246L273.43229289489614,265.31805164483984L274.98203798883947,269.7577953255577L276.5317830827828,266.4517335526422L278.08152817672607,268.3129799807217L279.63127327066934,268.6658449063911L281.18101836461267,266.86599449125686L282.730763458556,268.61112906379503L284.2805085524993,267.94582105827726L285.83025364644266,270.0814409275258L287.37999874038593,270.0818384004265L288.92974383432926,270.80082837998856L290.4794889282726,268.09864297229547L292.02923402221586,271.47008291656323L293.5789791161592,270.42764117483347L295.1287242101025,271.83455847480303L296.6784693040458,268.1796472402877L298.2282143979891,273.55769501602754L299.77795949193245,271.8800784086829L301.3277045858758,273.4587644500539L302.8774496798191,271.79567704753475L304.4271947737624,274.3240734235727L305.9769398677057,272.35181086411086L307.526684961649,274.1259272728249L309.0764300555923,275.6114682246324L310.62617514953564,274.6132459340803L312.17592024347897,275.6877283141663L313.72566533742224,272.9151809162998L315.2754104313656,276.2242964681081L316.82515552530884,279.87119982250937L318.3749006192522,274.2646213384684L319.9246457131955,277.9388452983176L321.47439080713883,276.54416928566957L323.02413590108216,274.222857303995L324.57388099502543,280.32544684730664L326.12362608896876,274.87167558733387L327.6733711829121,277.55741855084807L329.22311627685536,278.4052265595362L330.7728613707987,277.593865836512L332.322606464742,280.7136775743881L333.8723515586853,279.5080466974719L335.4220966526286,276.6628431444779L336.97184174657195,275.80872689977866L338.5215868405153,279.94612869864085L340.0713319344586,278.91652597323366L341.6210770284019,281.73361262417836L343.1708221223452,282.6283501265488L344.7205672162885,282.18542280577134L346.2703123102318,279.6235387468746L347.82005740417515,282.50787632673735L349.3698024981185,283.001064214003L350.91954759206175,282.92369984546724L352.4692926860051,280.4046483038457L354.01903777994835,279.7152499622356L355.5687828738917,282.4382277278151L357.118527967835,283.6833965208007L358.66827306177834,282.44510059822716L360.21801815572167,284.9562026818348L361.76776324966494,282.126537381268L363.31750834360827,276.71933089897703L364.86725343755154,284.74092838705695L366.4169985314949,283.9126624020031L367.9667436254382,285.63998980023507L369.5164887193815,285.64278325463994L371.0662338133248,283.09266466376386L372.61597890726813,283.42457918794645L374.16572400121146,285.42714694546146L375.71546909515473,282.7646580039881L377.2652141890981,285.72184017557873L378.8149592830414,286.6401883111906L380.3647043769847,286.6263291031663L381.914449470928,283.0341574632611L383.46419456487126,285.4587016335168L385.01393965881465,287.813988936851L386.5636847527579,288.7917141881671L388.11342984670125,289.8583274828393L389.6631749406446,299.0630299069959L391.2129200345879,294.2135174152838L392.7626651285312,302.0564540426501L394.31241022247457,303.26780015437635L395.86215531641784,302.25531611739916L397.41190041036117,304.9543252877366L398.96164550430444,305.9857097183469L400.51139059824783,307.7096466085729L402.0611356921911,305.1531630480856L403.61088078613443,306.2652496740376L405.16062588007776,307.32789972150283L406.7103709740211,312.6952386925239L408.26011606796436,312.10094072348073L409.80986116190763,301.3321334685788L411.359606255851,310.0087892606085L412.9093513497943,313.1745457589652L414.4590964437376,308.1385337141257L416.0088415376809,306.6054216386347L417.5585866316243,313.7952059408546L419.10833172556755,308.2561586767322L420.6580768195109,315.69233970578455L422.2078219134542,311.44026444232105L423.7575670073975,309.2969879009591L425.3073121013408,311.4558580775485L426.8570571952841,315.9166319413782L428.40680228922747,313.2551669063067L429.95654738317074,314.69481172643367L431.5062924771141,315.8415598804465L433.05603757105735,317.19570986682334L434.6057826650007,318.1157235388382L436.155527758944,314.3603482426466L437.7052728528873,312.85592986080593L439.25501794683066,320.35859186277503L440.80476304077393,317.9708205209839L442.35450813471726,318.99572111158284L443.90425322866054,315.0600572406748L445.4539983226039,318.74863817834915L447.0037434165472,320.1182845423532L448.55348851049047,315.9108397109681L450.1032336044338,314.83785604348475L451.6529786983771,319.0965070013597L453.20272379232046,321.50589654638884L454.7524688862637,316.8939789686938L456.3022139802071,320.5714185079486L457.8519590741504,314.9823484181384L459.40170416809366,322.0542457025514L460.951449262037,318.80115728244135L462.50119435598026,319.78361033376575L464.05093944992365,316.37178130057714L465.6006845438669,318.4774299570731L467.1504296378103,315.01874977660225L468.7001747317536,319.6441051127209L470.2499198256969,319.63261790950077L471.7996649196402,320.7748489883057L473.34941001358345,321.4407555670745L474.89915510752684,323.02095382904815L476.4489002014701,325.570923831924L477.99864529541344,311.84295413262794L479.54839038935677,323.8125820656377L481.0981354833001,316.05627224242335L482.64788057724337,325.52014996143487L484.19762567118664,318.58176574925625L485.74737076513003,322.7590337085884L487.2971158590733,318.33804360642847L488.84686095301663,321.6785612058919L490.3966060469599,324.1066350165538L491.9463511409033,319.8533602426882L493.49609623484656,328.546568737947L495.04584132878983,324.6628512319301L496.5955864227332,327.1317786378637L498.1453315166765,322.6342197883693L499.6950766106198,321.0114172943209L501.2448217045631,323.64164643013765L502.7945667985065,324.9445794836246L504.34431189244975,326.6648340930441L505.8940569863931,322.9278080640847L507.44380208033635,325.4292735404754L508.9935471742797,320.5218495510616L510.543292268223,323.45554401221096L512.0930373621663,319.8187419402275L513.6427824561097,322.7835804462315L515.1925275500529,324.07066051089066L516.7422726439963,320.5381239894902L518.2920177379395,325.21915930170655L519.8417628318829,323.9201651810265L521.3915079258262,330.70559560733665L522.9412530197694,327.12881768425854L524.4909981137129,330.7696505434491L526.0407432076561,328.82172129522996L527.5904883015995,322.6500781803972L529.1402333955427,327.06262308094233L530.6899784894861,330.71253871934886L532.2397235834294,326.25651967152737L533.7894686773726,323.77596457917343L535.339213771316,325.3746363819795L536.8889588652593,327.5479601185942L538.4387039592026,329.2835598160406L539.9884490531459,321.6080278329681L541.5381941470893,319.99357328293434L543.0879392410326,320.132975843179L544.6376843349758,311.9244289855709L546.1874294289192,316.06275067923474L547.7371745228625,319.61674871107294L549.2869196168058,317.52903327540844L550.8366647107491,313.6459749597927L552.3864098046924,328.23648449260276L553.9361548986358,321.4201801814384L555.4858999925791,330.0203185565338L557.0356450865224,313.9472952147216L558.5853901804657,307.621952672419L560.135135274409,325.1871615512504L561.6848803683523,324.61906369905324L563.2346254622956,313.0562913235576L564.784370556239,317.10835633227003L566.3341156501823,321.60497502496276L567.8838607441255,323.89431627218113L569.4336058380688,326.1613855289604L570.9833509320122,323.7097105406571L572.5330960259555,313.18508740218374L574.0828411198988,322.7903020270433L575.6325862138422,330.49873949817356L577.1823313077855,319.8593956170988L578.7320764017287,326.3592182941077L580.2818214956721,314.9181746116257L581.8315665896154,322.9385712385036L583.3813116835587,325.24767739135666L584.931056777502,323.69493278863115L586.4808018714454,322.1294258274833L588.0305469653887,323.30033168873854L589.5802920593319,326.157749175354L591.1300371532753,321.3989402022011L592.6797822472186,320.09396473911056L594.2295273411619,310.42079406773166L595.7792724351052,317.57866707069553L597.3290175290484,322.9856601265862L598.8787626229919,324.7724605473225L600.4285077169351,323.60120888126664L601.9782528108785,331.25958030110905L603.5279979048217,330.3636162723364L605.0777429987651,301.75792994372614L606.6274880927084,319.6320883958998L608.1772331866516,294.4903719805697L609.7269782805951,312.1372610339445L611.2767233745383,331.04707244473605L612.8264684684816,315.006641205381L614.3762135624249,339.42940782744915L615.9259586563683,330.156014521572L617.4757037503116,337.867142786307L619.0254488442548,311.2988032628728L620.5751939381983,335.66147549443554L622.1249390321415,326.08899885843334L623.6746841260848,317.91371410008367L625.2244292200281,326.57429267048514L626.7741743139715,330.61556748877865L628.3239194079148,334.5307262156507L629.873664501858,335.1246621702932L631.4234095958014,324.9984277749191L632.9731546897447,342.05770802086255L634.522899783688,335.50060602055316L636.0726448776313,338.4514340289326L637.6223899715746,314.43025484436924L639.172135065518,332.62058694829796L640.7218801594613,329.85127404103713L642.2716252534045,332.2492628340462L643.8213703473479,338.2542118253864L645.3711154412912,331.4712776774806L646.9208605352345,333.45778577376745L648.4706056291778,346.0686708871028L650.0203507231212,336.5208058271438L651.5700958170645,338.9531805850133L653.1198409110077,328.85601000249017L654.669586004951,326.04290415915244L656.2193310988944,326.5956245041226L657.7690761928377,322.57989061227397L659.318821286781,333.48165170820937L660.8685663807244,328.6339276757003L662.4183114746677,305.80167402442396L663.9680565686109,327.9833337657584L665.5178016625543,329.36156581457755L667.0675467564976,340.87846502199267L668.6172918504409,334.49751814839243L670.1670369443842,322.8604409663664L671.7167820383274,314.8016005714211L673.2665271322709,312.311887055051L674.8162722262141,291.5815889730641L676.3660173201575,296.44406914479896L677.9157624141008,303.20507710706624L679.4655075080441,286.86089012037803L681.0152526019874,285.07870943564984L682.5649976959306,278.5896013042598L684.1147427898741,273.4350464282122L685.6644878838173,272.926150763119L687.2142329777606,271.2559429560874L688.763978071704,270.2397452322037L690.3137231656473,272.141633813142L691.8634682595906,268.53027946240314L693.4132133535338,273.2983994999724L694.9629584474773,273.38840465493035L696.5127035414205,271.54104753238784L698.0624486353638,273.8375929337188L699.6121937293071,274.3956401584983L701.1619388232505,272.29148953920503L702.7116839171938,272.8624598676072L704.261429011137,273.41437986357596L705.8111741050805,272.23027938789755L707.3609191990237,273.6923508650639L708.910664292967,276.13004574874265L710.4604093869103,275.77415182291793L712.0101544808537,273.82524662169715L713.559899574797,276.14075961896145L715.1096446687402,277.3786145053342L716.6593897626835,275.5972010750074L718.2091348566269,272.7574716390229L719.7588799505702,274.37950822947L721.3086250445135,275.84009517743374L722.8583701384567,274.95749731468453L724.4081152324002,279.7674583823272L725.9578603263435,279.2616823898395L727.5076054202867,278.23990079644597L729.05735051423,281.04404408176794L730.6070956081734,284.71788238821654L732.1568407021167,294.37719385157106L733.7065857960599,299.3420943810857L735.2563308900034,305.06808155913626L736.8060759839467,318.17425100134096L738.35582107789,310.0803978703342L739.9055661718332,311.99786928009985L741.4553112657766,304.955135767738L743.0050563597199,315.73504659865955L744.5548014536631,319.27835710087896L746.1045465476064,321.0786601184389L747.6542916415499,318.6028706484933L749.2040367354932,308.6942744479012L750.7537818294364,311.59614676259474L752.3035269233798,299.19913111203476L753.8532720173231,311.6262101674475L755.4030171112663,310.337806318786L756.9527622052096,299.22697380168364L758.5025072991531,308.33769836807534L760.0522523930964,312.65154301404715L761.6019974870396,320.4145744180733L763.151742580983,317.3428173902816L764.7014876749263,297.09464684514086L766.2512327688695,277.205878253431L767.8009778628128,277.3809000589382L769.3507229567563,273.7527626935699L770.9004680506996,273.04779165413254L772.4502131446428,274.6473387753401L773.9999582385861,274.2500333738427L775.5497033325295,272.39850126619285L777.0994484264727,275.12530382197906L778.649193520416,271.84427815622007L780.1989386143595,272.92212267751194L781.7486837083028,275.575352560369L783.298428802246,271.62266320623104L784.8481738961893,270.02291954362306L786.3979189901327,272.1689138945899L787.947664084076,273.55398977162105L789.4974091780192,271.3998457065399L791.0471542719625,270.82460110923023L792.596899365906,269.0231732129683L794.1466444598492,269.07345437915654L795.6963895537925,268.95406999954696L797.2461346477359,267.96950699861884L798.7958797416792,269.0020700022313L800.3456248356224,268.7241846076935L801.8953699295657,269.76140162386406L803.4451150235092,266.49764281241033L804.9948601174523,269.646848718163L806.5446052113957,268.38314458524485L808.094350305339,271.83758156520827L809.6440953992824,271.377634839801L811.1938404932256,272.7420812991959L812.7435855871689,267.452312018311L814.2933306811124,269.31678985548365L815.8430757750555,272.54845424985604L817.3928208689989,272.87228963922445L818.9425659629422,272.29307740460774L820.4923110568856,274.1696134957016L822.0420561508288,270.10207439756203L823.5918012447721,271.367397126583L825.1415463387154,271.0753379564704L826.6912914326587,272.44090693066727L828.2410365266021,272.11860605010156L829.7907816205454,272.0264760867398L831.3405267144888,273.4180783539825L832.890271808432,269.7891007910127L834.4400169023753,269.14148607047593L835.9897619963186,269.89088222039135L837.5395070902618,268.0861710358736L839.0892521842053,264.1446659680552L840.6389972781486,269.8869905655845L842.188742372092,270.7576402646127L843.7384874660352,279.24365866540785L845.2882325599785,274.2550799626516L846.8379776539218,273.77984623361743L848.3877227478653,268.6499703047632L849.9374678418084,275.61467029603807L851.4872129357518,280.08693068768804L853.0369580296951,282.77712183561L854.5867031236384,282.8851966421997L856.1364482175817,283.9544237348764L857.686193311525,286.843776835148L859.2359384054685,289.30860321227436L860.7856834994116,284.5076168598474L862.335428593355,281.98482765461927L863.8851736872983,278.4030288079323L865.4349187812415,283.5945692634448L866.9846638751849,282.9587666135288L868.5344089691282,284.16117583243937L870.0841540630715,292.7894770367842L871.6338991570148,277.6469333654052L873.1836442509582,285.9775466160275L874.7333893449015,294.6739132816919L876.2831344388447,272.67679713508136L877.8328795327881,274.92059818641974L879.3826246267314,281.1746340227972L880.9323697206747,279.91666775058917L882.482114814618,280.81410550216435L884.0318599085614,285.009865913529L885.5816050025047,283.2381647352192L887.1313500964479,288.0898587689352L888.6810951903913,287.36942039407063L890.2308402843346,294.6016887071651L891.7805853782779,293.50094339803303L893.3303304722211,293.25038620719323L894.8800755661645,291.18435921636683L896.4298206601079,282.0134348970695L897.9795657540512,290.22120099227624L899.5293108479945,294.68883692011804L901.0790559419378,289.79405101552646L902.6288010358811,283.87292186593334L904.1785461298243,284.53923368470294L905.7282912237677,286.0181503132988L907.2780363177111,288.6784631159683L908.8277814116544,293.5327952620889L910.3775265055976,287.6500018165631L911.927271599541,276.41180844583727L913.4770166934843,281.8816494980382L915.0267617874275,281.4940576993579L916.5765068813708,279.21765441456216L918.1262519753143,283.817452614636L919.6759970692576,293.2638861024169L921.2257421632008,291.2314021772494L922.7754872571442,296.27754252050664L924.3252323510875,298.3359699105197L925.8749774450307,292.79069815998633L927.424722538974,296.95896438810274L928.9744676329174,293.29552994327247L930.5242127268608,291.85352662634136L932.073957820804,294.1163408631132L933.6237029147474,296.9965247329686L935.1734480086907,298.63989180625316L936.7231931026339,287.2138555117976L938.2729381965772,287.7856950800013L939.8226832905206,289.49110980059476L941.372428384464,293.46588203317145L942.9221734784072,300.8282580516943L944.4719185723505,296.89056798078263L946.0216636662939,301.1760647379048L947.5714087602372,280.87725675307524L949.1211538541804,295.45156073825683L950.6708989481237,301.35098523341185L952.2206440420672,294.63031486081536L953.7703891360103,299.25140707212654L955.3201342299537,300.9196126558547L956.8698793238971,299.75792465381556L958.4196244178404,292.2587288046526L959.9693695117836,302.6003752764048L961.5191146057269,295.1506835457287L963.0688596996704,291.11458769464434L964.6186047936135,300.81102454526405L966.1683498875569,291.0561764009418L967.7180949815003,300.79241052123143L969.2678400754436,292.03358826665743L970.8175851693868,282.43399567140773L972.3673302633301,297.3962048408702L973.9170753572735,294.1154358271116L975.4668204512167,303.62980645021173L977.0165655451601,302.7763088719136L978.5663106391034,301.22040880038264L980.1160557330468,291.0786699225813L981.66580082699,290.36425071252734L983.2155459209333,292.60737298686456L984.7652910148767,292.1743011029044L986.3150361088199,291.55846057542345L987.8647812027633,295.3954809253584L989.4145262967066,294.8025850867177L990.96427139065,302.67683866133905L992.5140164845932,292.68014598619226L994.0637615785365,301.2248664403905L995.6135066724798,297.694031926993L997.1632517664231,296.57579916103015L998.7129968603664,286.1233100934834L1000.2627419543098,290.11959381609785L1001.8124870482532,294.6870268481149L1003.3622321421964,299.3363156586756" style="fill: none;" fill="none"></path></g></g></g></g></g></g><g transform="translate(61, 378)" clip-path="url(#clip_1)"><clipPath id="clip_1"><rect width="1436" height="22"></rect></clipPath><g><g><line x1="2.226901454816429" y1="0" x2="2.226901454816429" y2="5" style="visibility: inherit;" fill="rgb(0, 0, 0)" stroke="rgb(204, 204, 204)" stroke-width="1px"></line><line x1="157.2014108491477" y1="0" x2="157.2014108491477" y2="5" style="visibility: inherit;" fill="rgb(0, 0, 0)" stroke="rgb(204, 204, 204)" stroke-width="1px"></line><line x1="312.17592024347897" y1="0" x2="312.17592024347897" y2="5" style="visibility: inherit;" fill="rgb(0, 0, 0)" stroke="rgb(204, 204, 204)" stroke-width="1px"></line><line x1="467.1504296378103" y1="0" x2="467.1504296378103" y2="5" style="visibility: inherit;" fill="rgb(0, 0, 0)" stroke="rgb(204, 204, 204)" stroke-width="1px"></line><line x1="622.1249390321415" y1="0" x2="622.1249390321415" y2="5" style="visibility: inherit;" fill="rgb(0, 0, 0)" stroke="rgb(204, 204, 204)" stroke-width="1px"></line><line x1="777.0994484264727" y1="0" x2="777.0994484264727" y2="5" style="visibility: inherit;" fill="rgb(0, 0, 0)" stroke="rgb(204, 204, 204)" stroke-width="1px"></line><line x1="932.073957820804" y1="0" x2="932.073957820804" y2="5" style="visibility: inherit;" fill="rgb(0, 0, 0)" stroke="rgb(204, 204, 204)" stroke-width="1px"></line><line x1="1087.0484672151354" y1="0" x2="1087.0484672151354" y2="5" style="visibility: inherit;" fill="rgb(0, 0, 0)" stroke="rgb(204, 204, 204)" stroke-width="1px"></line><line x1="1242.0229766094665" y1="0" x2="1242.0229766094665" y2="5" style="visibility: inherit;" fill="rgb(0, 0, 0)" stroke="rgb(204, 204, 204)" stroke-width="1px"></line><line x1="1396.9974860037978" y1="0" x2="1396.9974860037978" y2="5" style="visibility: inherit;" fill="rgb(0, 0, 0)" stroke="rgb(204, 204, 204)" stroke-width="1px"></line></g><g transform="translate(0, 8)"><text x="2.226901454816429" y="0" dx="0em" dy="0.95em" style="text-anchor: middle; visibility: inherit; font-family: Roboto, sans-serif; font-size: 12px; font-weight: 200;" fill="rgb(50, 49, 63)" stroke="none" stroke-width="1px">0</text><text x="157.2014108491477" y="0" dx="0em" dy="0.95em" style="text-anchor: middle; visibility: inherit; font-family: Roboto, sans-serif; font-size: 12px; font-weight: 200;" fill="rgb(50, 49, 63)" stroke="none" stroke-width="1px">100</text><text x="312.17592024347897" y="0" dx="0em" dy="0.95em" style="text-anchor: middle; visibility: inherit; font-family: Roboto, sans-serif; font-size: 12px; font-weight: 200;" fill="rgb(50, 49, 63)" stroke="none" stroke-width="1px">200</text><text x="467.1504296378103" y="0" dx="0em" dy="0.95em" style="text-anchor: middle; visibility: inherit; font-family: Roboto, sans-serif; font-size: 12px; font-weight: 200;" fill="rgb(50, 49, 63)" stroke="none" stroke-width="1px">300</text><text x="622.1249390321415" y="0" dx="0em" dy="0.95em" style="text-anchor: middle; visibility: inherit; font-family: Roboto, sans-serif; font-size: 12px; font-weight: 200;" fill="rgb(50, 49, 63)" stroke="none" stroke-width="1px">400</text><text x="777.0994484264727" y="0" dx="0em" dy="0.95em" style="text-anchor: middle; visibility: inherit; font-family: Roboto, sans-serif; font-size: 12px; font-weight: 200;" fill="rgb(50, 49, 63)" stroke="none" stroke-width="1px">500</text><text x="932.073957820804" y="0" dx="0em" dy="0.95em" style="text-anchor: middle; visibility: inherit; font-family: Roboto, sans-serif; font-size: 12px; font-weight: 200;" fill="rgb(50, 49, 63)" stroke="none" stroke-width="1px">600</text><text x="1087.0484672151354" y="0" dx="0em" dy="0.95em" style="text-anchor: middle; visibility: inherit; font-family: Roboto, sans-serif; font-size: 12px; font-weight: 200;" fill="rgb(50, 49, 63)" stroke="none" stroke-width="1px">700</text><text x="1242.0229766094665" y="0" dx="0em" dy="0.95em" style="text-anchor: middle; visibility: inherit; font-family: Roboto, sans-serif; font-size: 12px; font-weight: 200;" fill="rgb(50, 49, 63)" stroke="none" stroke-width="1px">800</text><text x="1396.9974860037978" y="0" dx="0em" dy="0.95em" style="text-anchor: middle; visibility: inherit; font-family: Roboto, sans-serif; font-size: 12px; font-weight: 200;" fill="rgb(50, 49, 63)" stroke="none" stroke-width="1px">900</text></g><line x1="0" y1="0" x2="1436.046875" y2="0" fill="rgb(0, 0, 0)" stroke="rgb(204, 204, 204)" stroke-width="1px"></line></g></g></g></g></svg>