<?xml version="1.0" ?>
<svg xmlns="http://www.w3.org/2000/svg" version="1.1" width="229" height="229">
  <defs/>
  <g>
    <path d="M 210.94705200195312 224.9792022705078 C 214.51756286621094 221.92037963867188 209.5122528076172 225.32582092285156 210.27537536621094 230.4619903564453" stroke-width="2.0" fill="none" stroke="rgb(198, 41, 135)" stroke-opacity="0.23773105" stroke-linecap="round" stroke-linejoin="round"/>
    <path d="M 116.04776763916016 3.4726250171661377 C 115.46636962890625 8.5670804977417 118.66036987304688 4.908384323120117 120.39855194091797 0.8431957960128784" stroke-width="2.0" fill="none" stroke="rgb(136, 65, 142)" stroke-opacity="0.37958673" stroke-linecap="round" stroke-linejoin="round"/>
    <path d="M 7.10701322555542 56.33949279785156 C 10.356077194213867 56.162689208984375 14.443037033081055 61.175941467285156 11.16398811340332 65.8204574584961" stroke-width="2.0" fill="none" stroke="rgb(21, 174, 210)" stroke-opacity="0.4869876" stroke-linecap="round" stroke-linejoin="round"/>
    <path d="M 208.2793426513672 29.75343132019043 C 210.4553985595703 23.540287017822266 211.49960327148438 22.6901798248291 214.01524353027344 22.619707107543945" stroke-width="2.0" fill="none" stroke="rgb(255, 182, 225)" stroke-opacity="0.4670691" stroke-linecap="round" stroke-linejoin="round"/>
    <path d="M 72.60745239257812 110.59683990478516 C 75.29582214355469 112.92298889160156 73.16847229003906 112.88896942138672 69.42994689941406 110.71121215820312" stroke-width="4.0" fill="none" stroke="rgb(39, 239, 158)" stroke-opacity="0.19052851" stroke-linecap="round" stroke-linejoin="round"/>
    <path d="M 88.42668914794922 5.767608165740967 C 91.9277114868164 6.497379302978516 93.21588134765625 6.840118408203125 88.3763198852539 5.958907604217529" stroke-width="2.0" fill="none" stroke="rgb(54, 226, 150)" stroke-opacity="0.8947256" stroke-linecap="round" stroke-linejoin="round"/>
    <path d="M 34.75385665893555 50.12321853637695 C 32.608882904052734 55.73556900024414 27.690258026123047 58.74208068847656 32.41947555541992 61.935062408447266" stroke-width="2.0" fill="none" stroke="rgb(6, 50, 139)" stroke-opacity="0.7147372" stroke-linecap="round" stroke-linejoin="round"/>
    <path d="M 77.9136734008789 66.57080841064453 C 83.49691009521484 63.71979522705078 83.75120544433594 62.17658996582031 88.4087905883789 63.0264778137207" stroke-width="2.0" fill="none" stroke="rgb(73, 24, 73)" stroke-opacity="0.9725872" stroke-linecap="round" stroke-linejoin="round"/>
    <path d="M 201.6776580810547 48.76021957397461 C 195.72537231445312 48.52645492553711 190.7682647705078 52.10890197753906 195.2094268798828 51.61879348754883" stroke-width="3.5714404582977295" fill="none" stroke="rgb(46, 255, 73)" stroke-opacity="0.69721836" stroke-linecap="round" stroke-linejoin="round"/>
    <path d="M 162.06478881835938 226.77076721191406 C 159.94126892089844 232.791748046875 155.89468383789062 227.08892822265625 159.42822265625 230.97381591796875" stroke-width="4.0" fill="none" stroke="rgb(130, 178, 207)" stroke-opacity="0.31996936" stroke-linecap="round" stroke-linejoin="round"/>
    <path d="M 208.143310546875 222.66127014160156 C 209.44908142089844 219.2320556640625 204.5012664794922 217.88308715820312 200.8711395263672 220.3557586669922" stroke-width="3.89380145072937" fill="none" stroke="rgb(48, 123, 128)" stroke-opacity="0.36808378" stroke-linecap="round" stroke-linejoin="round"/>
    <path d="M 111.58910369873047 156.03811645507812 C 107.71549224853516 155.1221160888672 109.9813232421875 158.14483642578125 114.97042083740234 153.9571990966797" stroke-width="2.0" fill="none" stroke="rgb(224, 17, 69)" stroke-opacity="0.6154636" stroke-linecap="round" stroke-linejoin="round"/>
    <path d="M 182.5685272216797 52.017906188964844 C 180.36346435546875 47.85765838623047 181.02557373046875 47.827919006347656 178.98944091796875 44.38912582397461" stroke-width="2.0" fill="none" stroke="rgb(148, 184, 215)" stroke-opacity="0.15707615" stroke-linecap="round" stroke-linejoin="round"/>
    <path d="M 33.511085510253906 25.661218643188477 C 34.85695266723633 22.105730056762695 33.21624755859375 18.456562042236328 37.9863395690918 19.33152198791504" stroke-width="3.2605061531066895" fill="none" stroke="rgb(219, 134, 178)" stroke-opacity="0.99615514" stroke-linecap="round" stroke-linejoin="round"/>
    <path d="M 39.476619720458984 100.19722747802734 C 33.71731948852539 99.0316162109375 35.61452102661133 98.41336059570312 37.87883377075195 100.38023376464844" stroke-width="2.0" fill="none" stroke="rgb(97, 162, 46)" stroke-opacity="0.97921574" stroke-linecap="round" stroke-linejoin="round"/>
    <path d="M 110.9945297241211 107.74199676513672 C 111.04536437988281 111.76459503173828 116.76872253417969 113.40457153320312 118.45295715332031 114.4649658203125" stroke-width="2.0" fill="none" stroke="rgb(152, 76, 23)" stroke-opacity="0.7528572" stroke-linecap="round" stroke-linejoin="round"/>
    <path d="M 28.174585342407227 94.26873779296875 C 28.39081382751465 96.63665008544922 33.48529815673828 100.62608337402344 32.1233024597168 105.284423828125" stroke-width="2.0" fill="none" stroke="rgb(162, 208, 57)" stroke-opacity="0.593123" stroke-linecap="round" stroke-linejoin="round"/>
    <path d="M 212.5493621826172 138.51319885253906 C 210.67970275878906 136.3052520751953 213.14706420898438 136.34373474121094 219.2709197998047 135.21119689941406" stroke-width="2.0" fill="none" stroke="rgb(157, 89, 61)" stroke-opacity="0.87742126" stroke-linecap="round" stroke-linejoin="round"/>
    <path d="M 166.9762725830078 13.619084358215332 C 167.30833435058594 18.0467529296875 173.41221618652344 14.840230941772461 175.46856689453125 17.633411407470703" stroke-width="3.6298110485076904" fill="none" stroke="rgb(214, 213, 246)" stroke-opacity="0.6955989" stroke-linecap="round" stroke-linejoin="round"/>
    <path d="M 14.070273399353027 114.55612182617188 C 9.078825950622559 110.47552490234375 9.511123657226562 109.51390075683594 7.611068248748779 113.114013671875" stroke-width="2.0" fill="none" stroke="rgb(92, 154, 0)" stroke-opacity="0.6153873" stroke-linecap="round" stroke-linejoin="round"/>
    <path d="M 158.4459991455078 209.68931579589844 C 156.88079833984375 207.72618103027344 157.1132354736328 205.61656188964844 160.90435791015625 211.3239288330078" stroke-width="2.3463399410247803" fill="none" stroke="rgb(198, 111, 162)" stroke-opacity="0.2766242" stroke-linecap="round" stroke-linejoin="round"/>
    <path d="M 111.60260009765625 62.050113677978516 C 115.40898895263672 66.63793182373047 115.7074966430664 71.850341796875 119.93205261230469 70.0237045288086" stroke-width="2.0" fill="none" stroke="rgb(144, 207, 52)" stroke-opacity="0.75157243" stroke-linecap="round" stroke-linejoin="round"/>
    <path d="M 84.87870025634766 60.34262466430664 C 87.17127227783203 56.457550048828125 88.640625 56.66440200805664 86.80846405029297 51.434654235839844" stroke-width="2.0" fill="none" stroke="rgb(158, 170, 38)" stroke-opacity="0.24940869" stroke-linecap="round" stroke-linejoin="round"/>
    <path d="M 172.61416625976562 12.285065650939941 C 170.21029663085938 7.626294136047363 170.89869689941406 4.144432067871094 168.83787536621094 -1.3776952028274536" stroke-width="2.0" fill="none" stroke="rgb(164, 136, 203)" stroke-opacity="0.5337325" stroke-linecap="round" stroke-linejoin="round"/>
    <path d="M 151.3778839111328 174.43116760253906 C 146.33116149902344 170.43031311035156 152.1654052734375 170.2608642578125 150.70196533203125 168.30111694335938" stroke-width="2.0" fill="none" stroke="rgb(228, 139, 23)" stroke-opacity="0.37693098" stroke-linecap="round" stroke-linejoin="round"/>
    <path d="M 93.20850372314453 224.6598663330078 C 89.6974868774414 224.57508850097656 84.88658905029297 222.58255004882812 90.88390350341797 218.01808166503906" stroke-width="3.7110283374786377" fill="none" stroke="rgb(24, 19, 147)" stroke-opacity="0.7987682" stroke-linecap="round" stroke-linejoin="round"/>
    <path d="M 67.99597930908203 205.16676330566406 C 69.02243041992188 206.17495727539062 72.7361831665039 202.5668487548828 67.6582260131836 207.62745666503906" stroke-width="2.0" fill="none" stroke="rgb(189, 70, 228)" stroke-opacity="0.40833446" stroke-linecap="round" stroke-linejoin="round"/>
    <path d="M 79.9477310180664 210.3949432373047 C 83.36002349853516 213.2023162841797 79.25031280517578 216.45545959472656 75.76744079589844 216.2290802001953" stroke-width="2.0" fill="none" stroke="rgb(72, 0, 0)" stroke-opacity="0.17807801" stroke-linecap="round" stroke-linejoin="round"/>
    <path d="M 214.90628051757812 81.27072143554688 C 221.00547790527344 86.15880584716797 222.5995635986328 92.16622924804688 219.83782958984375 89.8686294555664" stroke-width="3.7338061332702637" fill="none" stroke="rgb(78, 255, 130)" stroke-opacity="0.41026607" stroke-linecap="round" stroke-linejoin="round"/>
    <path d="M 50.46607971191406 57.55453872680664 C 46.90069580078125 64.64669799804688 45.87431716918945 67.38352966308594 39.661399841308594 62.67488098144531" stroke-width="4.0" fill="none" stroke="rgb(49, 18, 123)" stroke-opacity="0.07514658" stroke-linecap="round" stroke-linejoin="round"/>
    <path d="M 94.92340850830078 112.42230224609375 C 88.27360534667969 111.47483825683594 86.90335083007812 114.81864929199219 85.63087463378906 114.55850219726562" stroke-width="2.0" fill="none" stroke="rgb(24, 126, 18)" stroke-opacity="0.57482284" stroke-linecap="round" stroke-linejoin="round"/>
    <path d="M 19.486995697021484 211.32725524902344 C 25.569936752319336 210.2663116455078 28.156095504760742 214.0066680908203 22.550254821777344 220.0208282470703" stroke-width="2.193772792816162" fill="none" stroke="rgb(174, 157, 92)" stroke-opacity="0.3465071" stroke-linecap="round" stroke-linejoin="round"/>
    <path d="M 47.18495559692383 34.365196228027344 C 41.57205581665039 32.39024353027344 37.388057708740234 32.61091613769531 38.40117263793945 37.26020431518555" stroke-width="2.0" fill="none" stroke="rgb(47, 127, 171)" stroke-opacity="0.49100804" stroke-linecap="round" stroke-linejoin="round"/>
    <path d="M 192.3134002685547 66.85584259033203 C 193.78041076660156 67.02681732177734 192.20596313476562 72.16938781738281 186.4552001953125 74.11290740966797" stroke-width="2.0" fill="none" stroke="rgb(36, 108, 0)" stroke-opacity="0.99239576" stroke-linecap="round" stroke-linejoin="round"/>
    <path d="M 168.30825805664062 190.1263427734375 C 170.92811584472656 193.99034118652344 171.9681854248047 191.5232391357422 166.5521697998047 196.0034942626953" stroke-width="4.0" fill="none" stroke="rgb(231, 156, 68)" stroke-opacity="0.68765116" stroke-linecap="round" stroke-linejoin="round"/>
    <path d="M 134.84494018554688 165.0419158935547 C 137.48329162597656 164.15493774414062 133.4718017578125 164.19247436523438 133.97747802734375 163.6020965576172" stroke-width="2.0" fill="none" stroke="rgb(16, 108, 98)" stroke-opacity="0.20975882" stroke-linecap="round" stroke-linejoin="round"/>
    <path d="M 141.68460083007812 188.2570343017578 C 138.14376831054688 186.138427734375 137.59120178222656 182.9652099609375 132.72190856933594 178.23382568359375" stroke-width="2.7521355152130127" fill="none" stroke="rgb(84, 221, 163)" stroke-opacity="0.5405467" stroke-linecap="round" stroke-linejoin="round"/>
    <path d="M 90.83049774169922 228.44442749023438 C 91.5142822265625 225.3205108642578 92.02875518798828 227.68617248535156 85.62931060791016 229.5026397705078" stroke-width="4.0" fill="none" stroke="rgb(207, 67, 210)" stroke-opacity="0.6803934" stroke-linecap="round" stroke-linejoin="round"/>
    <path d="M 178.7033233642578 81.15862274169922 C 173.9698028564453 80.25391387939453 179.3199462890625 83.42231750488281 184.51637268066406 84.94538116455078" stroke-width="2.0" fill="none" stroke="rgb(68, 221, 250)" stroke-opacity="0.109405026" stroke-linecap="round" stroke-linejoin="round"/>
    <path d="M 124.41171264648438 31.655759811401367 C 127.19662475585938 33.12331771850586 128.1171417236328 28.85750961303711 129.50811767578125 23.829618453979492" stroke-width="3.981339454650879" fill="none" stroke="rgb(232, 36, 190)" stroke-opacity="0.10423181" stroke-linecap="round" stroke-linejoin="round"/>
    <path d="M 157.00942993164062 146.99618530273438 C 160.15945434570312 142.2648162841797 163.70130920410156 144.23023986816406 167.37222290039062 140.3131561279297" stroke-width="4.0" fill="none" stroke="rgb(98, 185, 53)" stroke-opacity="0.0" stroke-linecap="round" stroke-linejoin="round"/>
    <path d="M 160.17434692382812 199.8488006591797 C 159.52392578125 201.44712829589844 163.0321807861328 203.80923461914062 159.91293334960938 204.69297790527344" stroke-width="4.0" fill="none" stroke="rgb(0, 185, 0)" stroke-opacity="0.4759949" stroke-linecap="round" stroke-linejoin="round"/>
    <path d="M 121.16001892089844 173.58116149902344 C 115.63479614257812 170.21435546875 118.99739074707031 170.08920288085938 121.16700744628906 167.07940673828125" stroke-width="2.0" fill="none" stroke="rgb(141, 0, 168)" stroke-opacity="0.13568845" stroke-linecap="round" stroke-linejoin="round"/>
    <path d="M 102.44178009033203 227.6011962890625 C 102.96354675292969 223.2042694091797 98.99639892578125 228.85118103027344 95.29718780517578 231.2269744873047" stroke-width="4.0" fill="none" stroke="rgb(137, 0, 26)" stroke-opacity="0.90774274" stroke-linecap="round" stroke-linejoin="round"/>
    <path d="M 187.34365844726562 112.7711410522461 C 189.21180725097656 113.59366607666016 186.534912109375 112.5351791381836 187.59910583496094 107.48291778564453" stroke-width="2.0" fill="none" stroke="rgb(187, 156, 18)" stroke-opacity="0.34660468" stroke-linecap="round" stroke-linejoin="round"/>
    <path d="M 118.57093048095703 185.93312072753906 C 115.45672607421875 183.9378204345703 113.75100708007812 185.89881896972656 110.45037078857422 189.84866333007812" stroke-width="2.4773621559143066" fill="none" stroke="rgb(89, 176, 179)" stroke-opacity="0.647915" stroke-linecap="round" stroke-linejoin="round"/>
    <path d="M 20.365856170654297 181.8581085205078 C 16.081350326538086 177.388916015625 19.29952049255371 175.3486785888672 17.825672149658203 170.00450134277344" stroke-width="4.0" fill="none" stroke="rgb(229, 99, 180)" stroke-opacity="0.24356239" stroke-linecap="round" stroke-linejoin="round"/>
    <path d="M 185.9818115234375 29.49032974243164 C 183.48898315429688 28.672544479370117 184.1423797607422 23.789880752563477 185.9104766845703 26.297943115234375" stroke-width="3.5617148876190186" fill="none" stroke="rgb(130, 6, 140)" stroke-opacity="0.33883932" stroke-linecap="round" stroke-linejoin="round"/>
    <path d="M 201.1472930908203 46.956729888916016 C 201.3540496826172 41.93525314331055 197.80572509765625 38.60331344604492 199.53472900390625 33.7513542175293" stroke-width="2.45463490486145" fill="none" stroke="rgb(51, 202, 128)" stroke-opacity="0.41531637" stroke-linecap="round" stroke-linejoin="round"/>
    <path d="M 166.3238067626953 101.05188751220703 C 168.84744262695312 103.0122299194336 169.5691375732422 109.06531524658203 169.6357879638672 104.04766082763672" stroke-width="4.0" fill="none" stroke="rgb(17, 214, 31)" stroke-opacity="0.13502282" stroke-linecap="round" stroke-linejoin="round"/>
    <path d="M 192.89964294433594 110.26770782470703 C 195.5089874267578 114.31958770751953 199.9544677734375 112.41240692138672 203.9986114501953 108.76973724365234" stroke-width="2.0" fill="none" stroke="rgb(252, 45, 164)" stroke-opacity="0.2191551" stroke-linecap="round" stroke-linejoin="round"/>
    <path d="M 126.9633560180664 48.63903045654297 C 124.83094024658203 50.004451751708984 123.6668701171875 44.775718688964844 124.40937042236328 42.05665969848633" stroke-width="2.0" fill="none" stroke="rgb(0, 35, 210)" stroke-opacity="0.50201625" stroke-linecap="round" stroke-linejoin="round"/>
    <path d="M 197.5419921875 20.551612854003906 C 202.63327026367188 14.978621482849121 207.42999267578125 13.08443546295166 211.62559509277344 13.9095458984375" stroke-width="2.0" fill="none" stroke="rgb(228, 136, 86)" stroke-opacity="0.6437751" stroke-linecap="round" stroke-linejoin="round"/>
    <path d="M 165.4375 182.29637145996094 C 168.34994506835938 182.51202392578125 167.43914794921875 178.84918212890625 164.42617797851562 178.28271484375" stroke-width="4.0" fill="none" stroke="rgb(149, 192, 51)" stroke-opacity="0.46634522" stroke-linecap="round" stroke-linejoin="round"/>
    <path d="M 25.290864944458008 167.57424926757812 C 24.0794677734375 161.76571655273438 25.863351821899414 166.89987182617188 23.893327713012695 164.6026153564453" stroke-width="2.0" fill="none" stroke="rgb(35, 98, 152)" stroke-opacity="0.3691758" stroke-linecap="round" stroke-linejoin="round"/>
    <path d="M 36.45017623901367 44.8860969543457 C 33.987388610839844 39.8014030456543 37.4307975769043 36.0772819519043 31.788314819335938 40.825721740722656" stroke-width="4.0" fill="none" stroke="rgb(46, 240, 186)" stroke-opacity="0.3837682" stroke-linecap="round" stroke-linejoin="round"/>
    <path d="M 185.5118865966797 88.16650390625 C 189.458984375 85.79508209228516 194.10548400878906 88.35977935791016 195.00830078125 86.92854309082031" stroke-width="2.0" fill="none" stroke="rgb(138, 205, 65)" stroke-opacity="0.6769725" stroke-linecap="round" stroke-linejoin="round"/>
    <path d="M 22.316368103027344 49.46357727050781 C 21.84368896484375 46.276241302490234 21.81559944152832 45.04376220703125 21.519874572753906 51.92429733276367" stroke-width="4.0" fill="none" stroke="rgb(172, 0, 212)" stroke-opacity="0.21242549" stroke-linecap="round" stroke-linejoin="round"/>
    <path d="M 58.077110290527344 187.06239318847656 C 63.57815170288086 185.93878173828125 67.07383728027344 191.46218872070312 61.391632080078125 195.38246154785156" stroke-width="2.0" fill="none" stroke="rgb(79, 145, 28)" stroke-opacity="0.7073941" stroke-linecap="round" stroke-linejoin="round"/>
    <path d="M 95.04967498779297 88.50321197509766 C 98.48109436035156 84.44280242919922 94.9915771484375 80.80504608154297 93.93077087402344 84.57301330566406" stroke-width="2.0" fill="none" stroke="rgb(149, 179, 241)" stroke-opacity="0.19134001" stroke-linecap="round" stroke-linejoin="round"/>
    <path d="M 137.475341796875 104.98499298095703 C 132.8885040283203 100.58627319335938 137.14495849609375 100.9923095703125 142.30886840820312 102.57906341552734" stroke-width="4.0" fill="none" stroke="rgb(40, 200, 221)" stroke-opacity="0.16999583" stroke-linecap="round" stroke-linejoin="round"/>
    <path d="M 69.8670654296875 163.7098846435547 C 68.25257110595703 165.12875366210938 67.26473236083984 159.70338439941406 64.8238525390625 162.99472045898438" stroke-width="2.0" fill="none" stroke="rgb(22, 235, 202)" stroke-opacity="0.46342605" stroke-linecap="round" stroke-linejoin="round"/>
    <path d="M 180.65769958496094 203.86534118652344 C 175.53900146484375 197.748779296875 171.20816040039062 199.83758544921875 173.04510498046875 202.99600219726562" stroke-width="3.338602066040039" fill="none" stroke="rgb(137, 230, 162)" stroke-opacity="0.77724993" stroke-linecap="round" stroke-linejoin="round"/>
    <path d="M 126.83627319335938 123.01998901367188 C 125.96392822265625 126.58524322509766 121.13712310791016 129.87828063964844 118.8578109741211 125.63548278808594" stroke-width="4.0" fill="none" stroke="rgb(0, 111, 103)" stroke-opacity="0.9843341" stroke-linecap="round" stroke-linejoin="round"/>
    <path d="M 28.154613494873047 82.30615997314453 C 23.13543701171875 83.11627197265625 18.531112670898438 77.73638153076172 15.97205924987793 81.65367889404297" stroke-width="2.0" fill="none" stroke="rgb(123, 23, 241)" stroke-opacity="0.7434553" stroke-linecap="round" stroke-linejoin="round"/>
    <path d="M 128.42919921875 5.078259468078613 C 131.46617126464844 1.763958215713501 128.89602661132812 -0.21915803849697113 124.49512481689453 -0.7007341980934143" stroke-width="2.0" fill="none" stroke="rgb(27, 102, 224)" stroke-opacity="0.5795759" stroke-linecap="round" stroke-linejoin="round"/>
    <path d="M 87.35320281982422 182.28416442871094 C 83.20231628417969 182.17132568359375 80.29362487792969 178.2860870361328 84.21717071533203 175.02243041992188" stroke-width="2.0" fill="none" stroke="rgb(242, 187, 104)" stroke-opacity="0.03322878" stroke-linecap="round" stroke-linejoin="round"/>
    <path d="M 202.8025665283203 173.43344116210938 C 208.034912109375 171.0469970703125 205.43443298339844 177.67787170410156 209.20068359375 179.00521850585938" stroke-width="2.0" fill="none" stroke="rgb(168, 51, 0)" stroke-opacity="0.49138236" stroke-linecap="round" stroke-linejoin="round"/>
    <path d="M 107.45262908935547 228.95553588867188 C 104.2824935913086 224.763671875 102.62181091308594 223.75372314453125 102.30081176757812 228.56683349609375" stroke-width="2.0" fill="none" stroke="rgb(195, 22, 166)" stroke-opacity="0.061462104" stroke-linecap="round" stroke-linejoin="round"/>
    <path d="M 127.95138549804688 38.92194366455078 C 122.76331329345703 42.884517669677734 117.65708923339844 38.4001350402832 116.74494171142578 38.38697052001953" stroke-width="3.926724672317505" fill="none" stroke="rgb(253, 88, 137)" stroke-opacity="0.7039012" stroke-linecap="round" stroke-linejoin="round"/>
    <path d="M 148.0645751953125 222.99847412109375 C 154.16152954101562 219.96348571777344 152.556884765625 215.69674682617188 154.78201293945312 211.51206970214844" stroke-width="2.0" fill="none" stroke="rgb(97, 156, 229)" stroke-opacity="0.71362525" stroke-linecap="round" stroke-linejoin="round"/>
    <path d="M 224.0284881591797 142.20201110839844 C 230.56866455078125 137.2715301513672 234.8333282470703 141.79457092285156 233.572998046875 140.31739807128906" stroke-width="2.0" fill="none" stroke="rgb(79, 82, 160)" stroke-opacity="1.0" stroke-linecap="round" stroke-linejoin="round"/>
    <path d="M 83.33822631835938 34.01518630981445 C 81.54822540283203 38.475868225097656 80.0730972290039 41.8514404296875 83.30585479736328 42.41155242919922" stroke-width="3.953847885131836" fill="none" stroke="rgb(235, 229, 105)" stroke-opacity="0.078354456" stroke-linecap="round" stroke-linejoin="round"/>
    <path d="M 115.49739074707031 193.53392028808594 C 115.13748168945312 195.2314910888672 116.91924285888672 193.32254028320312 118.7424087524414 196.94618225097656" stroke-width="4.0" fill="none" stroke="rgb(204, 47, 228)" stroke-opacity="0.5596287" stroke-linecap="round" stroke-linejoin="round"/>
    <path d="M 145.88323974609375 25.016822814941406 C 147.40789794921875 20.803844451904297 150.91477966308594 21.405107498168945 151.18374633789062 23.511016845703125" stroke-width="2.0" fill="none" stroke="rgb(168, 42, 187)" stroke-opacity="0.94542557" stroke-linecap="round" stroke-linejoin="round"/>
    <path d="M 147.22943115234375 34.909122467041016 C 144.77821350097656 36.93624496459961 146.2391815185547 32.97105407714844 146.40289306640625 36.388145446777344" stroke-width="3.172011137008667" fill="none" stroke="rgb(20, 70, 236)" stroke-opacity="0.089908004" stroke-linecap="round" stroke-linejoin="round"/>
    <path d="M 219.7650146484375 4.981307029724121 C 215.32870483398438 7.951353549957275 215.04891967773438 13.272096633911133 209.00808715820312 15.98245620727539" stroke-width="2.964144229888916" fill="none" stroke="rgb(252, 33, 212)" stroke-opacity="0.7410049" stroke-linecap="round" stroke-linejoin="round"/>
    <path d="M 181.8891143798828 64.90906524658203 C 181.52012634277344 65.94794464111328 180.3608856201172 61.47773742675781 175.56849670410156 64.50746154785156" stroke-width="2.0" fill="none" stroke="rgb(176, 63, 79)" stroke-opacity="0.7720023" stroke-linecap="round" stroke-linejoin="round"/>
    <path d="M 110.12395477294922 12.217032432556152 C 109.82747650146484 10.164633750915527 106.51403045654297 14.487568855285645 108.92666625976562 20.18943214416504" stroke-width="3.870830535888672" fill="none" stroke="rgb(74, 232, 42)" stroke-opacity="0.45000204" stroke-linecap="round" stroke-linejoin="round"/>
    <path d="M 129.89697265625 59.95423126220703 C 133.97589111328125 55.29647445678711 134.7138214111328 57.416316986083984 131.31326293945312 52.199851989746094" stroke-width="3.293821334838867" fill="none" stroke="rgb(54, 230, 182)" stroke-opacity="0.0" stroke-linecap="round" stroke-linejoin="round"/>
    <path d="M 65.78075408935547 114.2938232421875 C 66.18572998046875 116.28531646728516 69.32437133789062 111.99603271484375 70.66195678710938 112.8414306640625" stroke-width="3.428070068359375" fill="none" stroke="rgb(43, 199, 52)" stroke-opacity="1.0" stroke-linecap="round" stroke-linejoin="round"/>
    <path d="M 4.205529689788818 119.2636489868164 C 4.888462543487549 116.68206024169922 4.9578142166137695 114.0344467163086 5.307858943939209 117.84723663330078" stroke-width="3.601935625076294" fill="none" stroke="rgb(143, 88, 46)" stroke-opacity="0.7059669" stroke-linecap="round" stroke-linejoin="round"/>
    <path d="M 119.2974624633789 65.10477447509766 C 120.3255615234375 62.791622161865234 114.85208892822266 67.39861297607422 115.99796295166016 65.39818572998047" stroke-width="4.0" fill="none" stroke="rgb(189, 230, 120)" stroke-opacity="0.74466676" stroke-linecap="round" stroke-linejoin="round"/>
    <path d="M 105.90135192871094 90.63263702392578 C 103.28144836425781 87.85730743408203 101.12144470214844 90.7179183959961 97.63245391845703 95.45242309570312" stroke-width="2.0" fill="none" stroke="rgb(44, 166, 55)" stroke-opacity="0.19796202" stroke-linecap="round" stroke-linejoin="round"/>
    <path d="M 20.630067825317383 26.45055389404297 C 22.989280700683594 22.808086395263672 24.89055824279785 26.697561264038086 19.554201126098633 28.56942367553711" stroke-width="2.580148458480835" fill="none" stroke="rgb(2, 232, 0)" stroke-opacity="0.2641883" stroke-linecap="round" stroke-linejoin="round"/>
    <path d="M 24.95590591430664 41.8078727722168 C 29.688459396362305 38.76737594604492 32.42242431640625 33.861026763916016 32.53555679321289 32.24137878417969" stroke-width="4.0" fill="none" stroke="rgb(14, 81, 222)" stroke-opacity="0.3785083" stroke-linecap="round" stroke-linejoin="round"/>
    <path d="M 54.19957733154297 219.3953857421875 C 50.29172134399414 222.37705993652344 45.79065704345703 222.0596466064453 46.74654006958008 221.46946716308594" stroke-width="3.216684103012085" fill="none" stroke="rgb(99, 255, 80)" stroke-opacity="0.5425442" stroke-linecap="round" stroke-linejoin="round"/>
    <path d="M 130.48269653320312 200.05380249023438 C 128.44100952148438 199.02792358398438 124.30712127685547 196.8973846435547 120.58935546875 193.9862823486328" stroke-width="2.0" fill="none" stroke="rgb(102, 108, 48)" stroke-opacity="0.17775582" stroke-linecap="round" stroke-linejoin="round"/>
    <path d="M 129.4202880859375 7.7890729904174805 C 125.50543212890625 9.770686149597168 124.3330307006836 14.554203033447266 119.9986343383789 12.898355484008789" stroke-width="2.0" fill="none" stroke="rgb(130, 85, 214)" stroke-opacity="0.81270814" stroke-linecap="round" stroke-linejoin="round"/>
    <path d="M 59.92313766479492 38.89579772949219 C 58.95016860961914 38.06997299194336 59.07733154296875 43.5118293762207 59.90507888793945 46.5767707824707" stroke-width="2.0" fill="none" stroke="rgb(184, 10, 36)" stroke-opacity="0.058679976" stroke-linecap="round" stroke-linejoin="round"/>
    <path d="M 50.73749923706055 7.711206436157227 C 46.988162994384766 12.091703414916992 50.41983413696289 10.275787353515625 50.944618225097656 15.268633842468262" stroke-width="2.0" fill="none" stroke="rgb(56, 230, 39)" stroke-opacity="0.86658704" stroke-linecap="round" stroke-linejoin="round"/>
    <path d="M 183.3430633544922 7.236627578735352 C 181.15980529785156 5.7332916259765625 176.6947784423828 9.209434509277344 177.12066650390625 11.577157974243164" stroke-width="2.0" fill="none" stroke="rgb(112, 154, 255)" stroke-opacity="0.0" stroke-linecap="round" stroke-linejoin="round"/>
    <path d="M 221.486083984375 2.8366079330444336 C 226.78050231933594 -2.2685306072235107 231.94143676757812 -7.577878475189209 230.64303588867188 -8.488890647888184" stroke-width="4.0" fill="none" stroke="rgb(32, 70, 15)" stroke-opacity="0.9480064" stroke-linecap="round" stroke-linejoin="round"/>
    <path d="M 56.81525421142578 137.40060424804688 C 57.351104736328125 142.7411651611328 61.934165954589844 137.8829803466797 65.65426635742188 136.3311767578125" stroke-width="4.0" fill="none" stroke="rgb(69, 83, 137)" stroke-opacity="0.7032951" stroke-linecap="round" stroke-linejoin="round"/>
    <path d="M 156.40060424804688 137.640869140625 C 162.55703735351562 142.21731567382812 158.00331115722656 139.2478485107422 154.70223999023438 133.2662811279297" stroke-width="2.0" fill="none" stroke="rgb(23, 194, 195)" stroke-opacity="0.58329934" stroke-linecap="round" stroke-linejoin="round"/>
    <path d="M 64.09527587890625 213.06100463867188 C 61.18622970581055 207.98597717285156 66.28497314453125 208.81906127929688 61.14786148071289 208.38316345214844" stroke-width="2.0" fill="none" stroke="rgb(150, 73, 101)" stroke-opacity="0.4260909" stroke-linecap="round" stroke-linejoin="round"/>
    <path d="M 151.6930389404297 69.84759521484375 C 144.63462829589844 65.02420043945312 146.93258666992188 67.62014770507812 147.9037322998047 67.4331283569336" stroke-width="2.0" fill="none" stroke="rgb(84, 194, 210)" stroke-opacity="0.43319142" stroke-linecap="round" stroke-linejoin="round"/>
    <path d="M 104.99272918701172 104.59159851074219 C 106.47530364990234 106.67579650878906 107.69387817382812 106.16324615478516 111.72976684570312 100.0738296508789" stroke-width="2.0" fill="none" stroke="rgb(153, 126, 97)" stroke-opacity="0.5580996" stroke-linecap="round" stroke-linejoin="round"/>
    <path d="M 190.28311157226562 99.07606506347656 C 191.78152465820312 97.98773956298828 196.64585876464844 97.96854400634766 192.36448669433594 98.00910186767578" stroke-width="2.0" fill="none" stroke="rgb(64, 110, 236)" stroke-opacity="0.5649815" stroke-linecap="round" stroke-linejoin="round"/>
    <path d="M 150.29534912109375 171.60940551757812 C 153.4552764892578 178.0712890625 153.63221740722656 179.27276611328125 149.09104919433594 182.55386352539062" stroke-width="4.0" fill="none" stroke="rgb(156, 164, 52)" stroke-opacity="0.08108726" stroke-linecap="round" stroke-linejoin="round"/>
    <path d="M 109.2295150756836 46.10444259643555 C 112.13432312011719 42.349700927734375 108.5530776977539 46.47853469848633 107.96607208251953 49.870723724365234" stroke-width="2.0" fill="none" stroke="rgb(61, 240, 28)" stroke-opacity="0.44012398" stroke-linecap="round" stroke-linejoin="round"/>
    <path d="M 109.24333190917969 107.91987609863281 C 105.22615814208984 111.08531951904297 100.76319885253906 105.79610443115234 95.25468444824219 102.47933959960938" stroke-width="2.0" fill="none" stroke="rgb(15, 34, 124)" stroke-opacity="0.8613537" stroke-linecap="round" stroke-linejoin="round"/>
    <path d="M 71.84565734863281 6.497790336608887 C 67.75098419189453 10.19915771484375 66.91768646240234 10.377534866333008 70.04188537597656 13.776590347290039" stroke-width="2.0" fill="none" stroke="rgb(218, 159, 219)" stroke-opacity="0.19015346" stroke-linecap="round" stroke-linejoin="round"/>
    <path d="M 115.90663146972656 226.05584716796875 C 110.65250396728516 226.2252655029297 108.83820343017578 228.4561767578125 104.67462921142578 226.4403839111328" stroke-width="4.0" fill="none" stroke="rgb(56, 224, 70)" stroke-opacity="0.73055404" stroke-linecap="round" stroke-linejoin="round"/>
    <path d="M 89.93768310546875 104.66221618652344 C 94.6729507446289 108.49527740478516 98.95655822753906 105.00479125976562 102.60594940185547 107.38868713378906" stroke-width="2.0" fill="none" stroke="rgb(161, 58, 39)" stroke-opacity="0.96006817" stroke-linecap="round" stroke-linejoin="round"/>
    <path d="M 63.851009368896484 222.33602905273438 C 65.1917953491211 223.64169311523438 65.4306411743164 220.0860137939453 60.85905456542969 219.3061065673828" stroke-width="2.0" fill="none" stroke="rgb(72, 67, 254)" stroke-opacity="0.48014832" stroke-linecap="round" stroke-linejoin="round"/>
    <path d="M 37.345130920410156 175.8155975341797 C 36.68054962158203 179.58786010742188 40.16074752807617 177.3384246826172 46.47529220581055 171.90391540527344" stroke-width="2.0" fill="none" stroke="rgb(19, 19, 152)" stroke-opacity="0.51466346" stroke-linecap="round" stroke-linejoin="round"/>
    <path d="M 15.815597534179688 40.00196075439453 C 18.232534408569336 40.898223876953125 15.251627922058105 43.211212158203125 19.054481506347656 47.740943908691406" stroke-width="2.0" fill="none" stroke="rgb(141, 184, 131)" stroke-opacity="0.04234519" stroke-linecap="round" stroke-linejoin="round"/>
    <path d="M 200.4090576171875 203.0658721923828 C 200.02906799316406 205.08558654785156 202.93548583984375 203.26197814941406 199.99740600585938 199.47837829589844" stroke-width="2.0" fill="none" stroke="rgb(1, 57, 0)" stroke-opacity="0.21696037" stroke-linecap="round" stroke-linejoin="round"/>
    <path d="M 193.31680297851562 110.54930877685547 C 196.07867431640625 114.40538024902344 197.9529571533203 119.14543151855469 193.20635986328125 116.60169982910156" stroke-width="2.0" fill="none" stroke="rgb(32, 0, 14)" stroke-opacity="0.3004235" stroke-linecap="round" stroke-linejoin="round"/>
    <path d="M 86.60112762451172 92.56607818603516 C 82.43207550048828 93.5635986328125 85.56443786621094 96.92811584472656 87.41580200195312 100.80978393554688" stroke-width="2.286210298538208" fill="none" stroke="rgb(71, 119, 106)" stroke-opacity="0.25118637" stroke-linecap="round" stroke-linejoin="round"/>
    <path d="M 197.1800994873047 133.12484741210938 C 197.1997833251953 128.23829650878906 200.97657775878906 126.88877868652344 204.67794799804688 129.57098388671875" stroke-width="2.0" fill="none" stroke="rgb(94, 138, 118)" stroke-opacity="0.022801356" stroke-linecap="round" stroke-linejoin="round"/>
    <path d="M 16.607431411743164 99.60940551757812 C 17.944461822509766 93.21647644042969 11.610067367553711 88.16515350341797 16.974363327026367 85.62924194335938" stroke-width="2.0" fill="none" stroke="rgb(14, 45, 159)" stroke-opacity="0.7899212" stroke-linecap="round" stroke-linejoin="round"/>
    <path d="M 203.52027893066406 223.5613555908203 C 204.21607971191406 226.1326904296875 202.48065185546875 230.39646911621094 207.1995086669922 230.6665496826172" stroke-width="4.0" fill="none" stroke="rgb(253, 0, 70)" stroke-opacity="0.24800092" stroke-linecap="round" stroke-linejoin="round"/>
    <path d="M 152.4814453125 45.465457916259766 C 149.5340118408203 45.049224853515625 143.57656860351562 39.70365905761719 146.9166259765625 42.689701080322266" stroke-width="2.0" fill="none" stroke="rgb(19, 138, 145)" stroke-opacity="0.26754692" stroke-linecap="round" stroke-linejoin="round"/>
    <path d="M 48.4663200378418 67.50313568115234 C 49.87909698486328 67.96612548828125 54.68781280517578 63.98297882080078 49.81344223022461 68.7464828491211" stroke-width="2.0" fill="none" stroke="rgb(9, 94, 234)" stroke-opacity="0.2702747" stroke-linecap="round" stroke-linejoin="round"/>
    <path d="M 224.4442138671875 134.21864318847656 C 224.25318908691406 130.28260803222656 220.61363220214844 129.9114990234375 218.5452423095703 133.08995056152344" stroke-width="2.0" fill="none" stroke="rgb(107, 102, 158)" stroke-opacity="0.8087848" stroke-linecap="round" stroke-linejoin="round"/>
    <path d="M 187.70729064941406 124.93165588378906 C 188.10011291503906 125.40777587890625 192.2820587158203 120.4544677734375 188.10232543945312 119.55965423583984" stroke-width="2.0" fill="none" stroke="rgb(0, 132, 66)" stroke-opacity="0.18011612" stroke-linecap="round" stroke-linejoin="round"/>
    <path d="M 162.6942138671875 11.943074226379395 C 158.9925079345703 16.25887107849121 162.22366333007812 21.843050003051758 164.04551696777344 17.08850860595703" stroke-width="2.0" fill="none" stroke="rgb(126, 40, 230)" stroke-opacity="0.17517467" stroke-linecap="round" stroke-linejoin="round"/>
    <path d="M 35.63172912597656 207.20944213867188 C 37.974998474121094 206.1219940185547 33.17089080810547 206.92942810058594 31.655954360961914 208.0406951904297" stroke-width="2.0" fill="none" stroke="rgb(42, 58, 208)" stroke-opacity="0.8891873" stroke-linecap="round" stroke-linejoin="round"/>
    <path d="M 224.40757751464844 113.21863555908203 C 230.4927520751953 115.19169616699219 236.39759826660156 116.6578140258789 240.27978515625 112.43109893798828" stroke-width="2.012718677520752" fill="none" stroke="rgb(70, 91, 21)" stroke-opacity="0.5202554" stroke-linecap="round" stroke-linejoin="round"/>
    <path d="M 27.987720489501953 71.8742446899414 C 23.56313705444336 75.63916015625 19.297941207885742 79.5332260131836 20.060998916625977 72.88490295410156" stroke-width="2.0" fill="none" stroke="rgb(17, 23, 193)" stroke-opacity="0.13196672" stroke-linecap="round" stroke-linejoin="round"/>
    <path d="M 214.50169372558594 60.304805755615234 C 209.11717224121094 61.95694351196289 210.4132080078125 64.4140396118164 207.02618408203125 70.5895004272461" stroke-width="4.0" fill="none" stroke="rgb(150, 0, 72)" stroke-opacity="0.788449" stroke-linecap="round" stroke-linejoin="round"/>
    <path d="M 26.664091110229492 178.59861755371094 C 23.306949615478516 175.44903564453125 27.16471290588379 171.0939178466797 22.87774658203125 176.18836975097656" stroke-width="3.4479217529296875" fill="none" stroke="rgb(200, 224, 242)" stroke-opacity="0.9793417" stroke-linecap="round" stroke-linejoin="round"/>
    <path d="M 38.1496467590332 159.30479431152344 C 43.26173782348633 157.92054748535156 46.38011169433594 154.57257080078125 51.2932014465332 155.96963500976562" stroke-width="2.0" fill="none" stroke="rgb(156, 167, 108)" stroke-opacity="0.2586103" stroke-linecap="round" stroke-linejoin="round"/>
    <path d="M 187.6689453125 120.24132537841797 C 185.56590270996094 120.31401824951172 188.5405731201172 116.99790954589844 190.81773376464844 116.05423736572266" stroke-width="4.0" fill="none" stroke="rgb(106, 199, 75)" stroke-opacity="0.2330749" stroke-linecap="round" stroke-linejoin="round"/>
    <path d="M 115.49882507324219 159.81300354003906 C 118.65522766113281 161.36795043945312 114.34566497802734 157.5831298828125 118.81904602050781 156.9506378173828" stroke-width="2.0" fill="none" stroke="rgb(57, 127, 51)" stroke-opacity="0.25562114" stroke-linecap="round" stroke-linejoin="round"/>
    <path d="M 31.371089935302734 217.35836791992188 C 33.899898529052734 221.820556640625 28.05786895751953 220.0470428466797 30.689407348632812 224.4528350830078" stroke-width="2.0" fill="none" stroke="rgb(255, 223, 74)" stroke-opacity="0.23834492" stroke-linecap="round" stroke-linejoin="round"/>
    <path d="M 221.7632598876953 13.020432472229004 C 221.5595703125 6.57295036315918 226.69932556152344 3.99094295501709 226.66981506347656 8.701899528503418" stroke-width="4.0" fill="none" stroke="rgb(60, 86, 62)" stroke-opacity="0.9427726" stroke-linecap="round" stroke-linejoin="round"/>
    <path d="M 171.11947631835938 128.48411560058594 C 169.96774291992188 125.52322387695312 165.560546875 120.73067474365234 161.52149963378906 117.03827667236328" stroke-width="3.7825090885162354" fill="none" stroke="rgb(97, 210, 193)" stroke-opacity="0.24050203" stroke-linecap="round" stroke-linejoin="round"/>
    <path d="M 45.007389068603516 92.57299041748047 C 44.07451248168945 94.77932739257812 45.59620666503906 98.78668975830078 49.01434326171875 93.58317565917969" stroke-width="2.0" fill="none" stroke="rgb(101, 72, 117)" stroke-opacity="0.2504115" stroke-linecap="round" stroke-linejoin="round"/>
    <path d="M 203.9947509765625 219.05078125 C 203.15855407714844 218.4481964111328 201.04083251953125 215.8750457763672 203.85150146484375 213.24729919433594" stroke-width="4.0" fill="none" stroke="rgb(186, 222, 63)" stroke-opacity="0.18205707" stroke-linecap="round" stroke-linejoin="round"/>
    <path d="M 20.988725662231445 219.9630889892578 C 27.02385902404785 222.43011474609375 22.37944984436035 225.89610290527344 22.955493927001953 222.6432342529297" stroke-width="2.0" fill="none" stroke="rgb(168, 2, 160)" stroke-opacity="0.6461268" stroke-linecap="round" stroke-linejoin="round"/>
    <path d="M 4.877057075500488 166.12828063964844 C 1.3504992723464966 169.64584350585938 -2.0794014930725098 174.36251831054688 0.7781364917755127 177.10977172851562" stroke-width="2.0" fill="none" stroke="rgb(231, 198, 191)" stroke-opacity="0.16422784" stroke-linecap="round" stroke-linejoin="round"/>
    <path d="M 156.74661254882812 103.36537170410156 C 161.52476501464844 98.17412567138672 159.91073608398438 99.82528686523438 157.26922607421875 104.58760833740234" stroke-width="2.8653860092163086" fill="none" stroke="rgb(105, 216, 166)" stroke-opacity="0.0528541" stroke-linecap="round" stroke-linejoin="round"/>
    <path d="M 29.996248245239258 175.8972930908203 C 29.328956604003906 177.5936279296875 31.427385330200195 176.7954559326172 27.021238327026367 178.28065490722656" stroke-width="3.6708590984344482" fill="none" stroke="rgb(116, 142, 13)" stroke-opacity="0.0796439" stroke-linecap="round" stroke-linejoin="round"/>
    <path d="M 30.896093368530273 149.51243591308594 C 33.30070495605469 148.8210906982422 37.926753997802734 143.43601989746094 34.47027587890625 138.73260498046875" stroke-width="2.0" fill="none" stroke="rgb(99, 26, 17)" stroke-opacity="0.999557" stroke-linecap="round" stroke-linejoin="round"/>
    <path d="M 202.05780029296875 14.306771278381348 C 206.0846710205078 12.653910636901855 200.8958740234375 18.708711624145508 195.99908447265625 20.08892822265625" stroke-width="2.0" fill="none" stroke="rgb(118, 151, 98)" stroke-opacity="0.43645215" stroke-linecap="round" stroke-linejoin="round"/>
    <path d="M 44.4200553894043 42.3703498840332 C 49.734554290771484 37.680824279785156 54.25288009643555 35.66448974609375 56.146366119384766 33.01764678955078" stroke-width="2.797680377960205" fill="none" stroke="rgb(174, 233, 72)" stroke-opacity="0.49231184" stroke-linecap="round" stroke-linejoin="round"/>
    <path d="M 139.3650360107422 4.204600811004639 C 141.5077667236328 1.9520094394683838 140.4583282470703 6.827178478240967 142.47293090820312 12.547831535339355" stroke-width="2.0" fill="none" stroke="rgb(50, 179, 51)" stroke-opacity="0.7546244" stroke-linecap="round" stroke-linejoin="round"/>
    <path d="M 82.62588500976562 11.604286193847656 C 86.81302642822266 8.276368141174316 89.96205139160156 2.929234266281128 95.18915557861328 4.740357875823975" stroke-width="3.946134090423584" fill="none" stroke="rgb(244, 138, 178)" stroke-opacity="0.036725514" stroke-linecap="round" stroke-linejoin="round"/>
    <path d="M 146.59764099121094 32.64729690551758 C 142.07705688476562 35.32978057861328 137.52296447753906 38.61794662475586 136.57627868652344 37.000850677490234" stroke-width="2.3102378845214844" fill="none" stroke="rgb(165, 0, 92)" stroke-opacity="1.0" stroke-linecap="round" stroke-linejoin="round"/>
    <path d="M 29.002609252929688 80.44376373291016 C 23.266563415527344 82.93733215332031 19.84837532043457 87.47252655029297 20.14176368713379 81.46673583984375" stroke-width="2.0" fill="none" stroke="rgb(48, 184, 200)" stroke-opacity="0.23638162" stroke-linecap="round" stroke-linejoin="round"/>
    <path d="M 103.9495620727539 83.85176849365234 C 105.21171569824219 88.48345184326172 109.72502899169922 83.70323944091797 106.24580383300781 80.88980865478516" stroke-width="2.0" fill="none" stroke="rgb(202, 174, 155)" stroke-opacity="0.17903458" stroke-linecap="round" stroke-linejoin="round"/>
    <path d="M 186.3627166748047 226.287109375 C 190.56613159179688 228.38677978515625 186.3044891357422 229.6312255859375 187.03201293945312 232.82266235351562" stroke-width="4.0" fill="none" stroke="rgb(17, 141, 72)" stroke-opacity="0.49381435" stroke-linecap="round" stroke-linejoin="round"/>
    <path d="M 51.18296432495117 12.860450744628906 C 51.56895065307617 16.867507934570312 55.53566360473633 21.819612503051758 54.90656661987305 25.174457550048828" stroke-width="2.0" fill="none" stroke="rgb(213, 210, 230)" stroke-opacity="0.097027026" stroke-linecap="round" stroke-linejoin="round"/>
    <path d="M 159.15335083007812 118.62084197998047 C 159.21221923828125 117.4060287475586 159.23345947265625 113.53978729248047 154.62928771972656 117.85025024414062" stroke-width="2.0" fill="none" stroke="rgb(221, 0, 34)" stroke-opacity="0.5333412" stroke-linecap="round" stroke-linejoin="round"/>
    <path d="M 92.53761291503906 26.353179931640625 C 89.73674774169922 31.47622299194336 84.51913452148438 27.76113510131836 82.05596160888672 29.079952239990234" stroke-width="2.0" fill="none" stroke="rgb(174, 215, 176)" stroke-opacity="0.8392804" stroke-linecap="round" stroke-linejoin="round"/>
    <path d="M 218.87957763671875 150.81234741210938 C 220.2609405517578 152.14056396484375 216.59776306152344 147.3502960205078 213.20730590820312 145.13418579101562" stroke-width="3.924241065979004" fill="none" stroke="rgb(55, 157, 94)" stroke-opacity="0.92194504" stroke-linecap="round" stroke-linejoin="round"/>
    <path d="M 217.34710693359375 111.5632553100586 C 220.16024780273438 114.57698822021484 213.8968048095703 117.99391174316406 213.34963989257812 121.78079986572266" stroke-width="2.0" fill="none" stroke="rgb(21, 131, 163)" stroke-opacity="0.81715965" stroke-linecap="round" stroke-linejoin="round"/>
    <path d="M 182.5022430419922 225.71885681152344 C 189.0045623779297 225.4930877685547 189.0141143798828 223.4409942626953 187.98008728027344 222.13450622558594" stroke-width="3.9905266761779785" fill="none" stroke="rgb(138, 103, 219)" stroke-opacity="0.6265293" stroke-linecap="round" stroke-linejoin="round"/>
    <path d="M 92.41613006591797 136.4229736328125 C 87.65071105957031 132.54701232910156 90.04701232910156 132.23963928222656 93.005615234375 137.52822875976562" stroke-width="4.0" fill="none" stroke="rgb(103, 182, 95)" stroke-opacity="0.6135366" stroke-linecap="round" stroke-linejoin="round"/>
    <path d="M 41.796348571777344 67.33506774902344 C 40.619815826416016 69.54481506347656 44.95349884033203 65.07760620117188 46.50053024291992 68.88347625732422" stroke-width="2.3893001079559326" fill="none" stroke="rgb(84, 110, 189)" stroke-opacity="0.5524343" stroke-linecap="round" stroke-linejoin="round"/>
    <path d="M 106.25853729248047 74.69410705566406 C 111.80333709716797 76.48418426513672 114.6823959350586 74.98668670654297 112.59122467041016 75.54060363769531" stroke-width="4.0" fill="none" stroke="rgb(234, 141, 50)" stroke-opacity="0.42400575" stroke-linecap="round" stroke-linejoin="round"/>
    <path d="M 86.56159973144531 150.08935546875 C 81.80345153808594 150.06103515625 82.7524642944336 147.05892944335938 80.56887817382812 146.29400634765625" stroke-width="2.0" fill="none" stroke="rgb(47, 47, 153)" stroke-opacity="0.3318073" stroke-linecap="round" stroke-linejoin="round"/>
    <path d="M 162.4563751220703 102.21046447753906 C 164.3637237548828 97.50962829589844 164.96481323242188 94.57783508300781 169.40426635742188 95.01727294921875" stroke-width="2.0" fill="none" stroke="rgb(208, 64, 211)" stroke-opacity="0.6488252" stroke-linecap="round" stroke-linejoin="round"/>
    <path d="M 116.09298706054688 132.268798828125 C 116.26383972167969 133.25064086914062 112.16572570800781 129.1445770263672 117.30660247802734 126.64473724365234" stroke-width="2.397066831588745" fill="none" stroke="rgb(101, 30, 0)" stroke-opacity="0.12572528" stroke-linecap="round" stroke-linejoin="round"/>
    <path d="M 40.533905029296875 206.1909942626953 C 36.30912399291992 205.33775329589844 31.79912567138672 206.3402557373047 26.99420928955078 204.585205078125" stroke-width="2.0" fill="none" stroke="rgb(81, 117, 159)" stroke-opacity="0.8615317" stroke-linecap="round" stroke-linejoin="round"/>
    <path d="M 10.473135948181152 172.2083282470703 C 8.253443717956543 169.54129028320312 4.8239970207214355 170.65444946289062 5.023804187774658 175.26771545410156" stroke-width="4.0" fill="none" stroke="rgb(100, 67, 136)" stroke-opacity="0.13138919" stroke-linecap="round" stroke-linejoin="round"/>
    <path d="M 189.6993408203125 62.79659652709961 C 194.9429473876953 67.68486022949219 189.90121459960938 69.89319610595703 192.80921936035156 70.11189270019531" stroke-width="2.0" fill="none" stroke="rgb(161, 52, 85)" stroke-opacity="0.5758159" stroke-linecap="round" stroke-linejoin="round"/>
    <path d="M 13.089727401733398 188.8277130126953 C 17.961084365844727 190.85816955566406 16.189226150512695 188.5 17.102703094482422 192.62583923339844" stroke-width="2.0" fill="none" stroke="rgb(12, 51, 53)" stroke-opacity="0.11021047" stroke-linecap="round" stroke-linejoin="round"/>
    <path d="M 181.2917938232422 155.16098022460938 C 180.33511352539062 159.66262817382812 177.00503540039062 156.34725952148438 179.41122436523438 155.4955596923828" stroke-width="2.0" fill="none" stroke="rgb(135, 112, 17)" stroke-opacity="0.9087303" stroke-linecap="round" stroke-linejoin="round"/>
    <path d="M 156.98045349121094 93.31295013427734 C 158.13697814941406 96.98886108398438 159.0428009033203 95.51710510253906 161.43858337402344 100.2657470703125" stroke-width="2.0" fill="none" stroke="rgb(46, 95, 193)" stroke-opacity="0.5975687" stroke-linecap="round" stroke-linejoin="round"/>
    <path d="M 195.55833435058594 80.67289733886719 C 189.54327392578125 80.0174789428711 193.8496551513672 82.55149841308594 196.2260284423828 83.94038391113281" stroke-width="2.2537636756896973" fill="none" stroke="rgb(104, 196, 107)" stroke-opacity="0.4713263" stroke-linecap="round" stroke-linejoin="round"/>
    <path d="M 196.82826232910156 48.53545379638672 C 198.0310516357422 48.22214889526367 200.43394470214844 52.975765228271484 195.71595764160156 48.98550796508789" stroke-width="2.0" fill="none" stroke="rgb(246, 49, 152)" stroke-opacity="0.4551766" stroke-linecap="round" stroke-linejoin="round"/>
    <path d="M 167.00523376464844 220.1958770751953 C 162.6553955078125 220.87478637695312 165.6332244873047 218.27870178222656 162.7809295654297 217.5241241455078" stroke-width="3.925318479537964" fill="none" stroke="rgb(80, 39, 9)" stroke-opacity="0.6309609" stroke-linecap="round" stroke-linejoin="round"/>
    <path d="M 191.1565704345703 197.80357360839844 C 189.92625427246094 202.1257781982422 185.36419677734375 202.39434814453125 186.01377868652344 205.282958984375" stroke-width="2.0" fill="none" stroke="rgb(47, 117, 213)" stroke-opacity="0.51091313" stroke-linecap="round" stroke-linejoin="round"/>
    <path d="M 204.22097778320312 1.8861682415008545 C 209.77072143554688 0.20334401726722717 207.84146118164062 4.39117956161499 206.84165954589844 0.01165449433028698" stroke-width="3.7005858421325684" fill="none" stroke="rgb(125, 238, 174)" stroke-opacity="0.33019945" stroke-linecap="round" stroke-linejoin="round"/>
    <path d="M 197.73313903808594 189.35205078125 C 201.3708953857422 189.11219787597656 197.21725463867188 187.06187438964844 203.03887939453125 188.18067932128906" stroke-width="2.0" fill="none" stroke="rgb(230, 136, 154)" stroke-opacity="0.36755282" stroke-linecap="round" stroke-linejoin="round"/>
    <path d="M 1.1632357835769653 51.22486877441406 C 2.913827419281006 46.13960266113281 6.16312313079834 49.43926239013672 8.585467338562012 46.33027648925781" stroke-width="3.8881564140319824" fill="none" stroke="rgb(225, 14, 66)" stroke-opacity="0.21250935" stroke-linecap="round" stroke-linejoin="round"/>
    <path d="M 144.63685607910156 191.16436767578125 C 142.70523071289062 186.3310089111328 140.17323303222656 180.34519958496094 138.1527862548828 178.10455322265625" stroke-width="2.0" fill="none" stroke="rgb(216, 118, 137)" stroke-opacity="0.585633" stroke-linecap="round" stroke-linejoin="round"/>
    <path d="M 106.442138671875 77.18297576904297 C 106.47779846191406 75.05851745605469 103.58914184570312 77.40042877197266 99.39480590820312 74.02569580078125" stroke-width="2.0" fill="none" stroke="rgb(144, 71, 180)" stroke-opacity="0.5527722" stroke-linecap="round" stroke-linejoin="round"/>
    <path d="M 208.22470092773438 11.318180084228516 C 206.69093322753906 9.53611946105957 202.4290008544922 5.736222267150879 197.99659729003906 9.912162780761719" stroke-width="2.0" fill="none" stroke="rgb(202, 47, 173)" stroke-opacity="0.1432606" stroke-linecap="round" stroke-linejoin="round"/>
    <path d="M 200.4670867919922 160.9560089111328 C 201.94857788085938 166.4799346923828 198.35687255859375 171.41204833984375 196.38009643554688 167.01072692871094" stroke-width="2.0" fill="none" stroke="rgb(186, 168, 89)" stroke-opacity="0.68225664" stroke-linecap="round" stroke-linejoin="round"/>
    <path d="M 120.67684936523438 113.75699615478516 C 122.4920425415039 110.9779052734375 120.9464111328125 114.7983627319336 119.84937286376953 112.24766540527344" stroke-width="2.0" fill="none" stroke="rgb(175, 135, 126)" stroke-opacity="0.9681452" stroke-linecap="round" stroke-linejoin="round"/>
    <path d="M 197.84950256347656 79.01356506347656 C 203.76376342773438 83.74652862548828 207.1507568359375 79.03092193603516 207.0037841796875 79.0732192993164" stroke-width="2.0" fill="none" stroke="rgb(82, 232, 85)" stroke-opacity="0.4463649" stroke-linecap="round" stroke-linejoin="round"/>
    <path d="M 225.96937561035156 52.85700988769531 C 227.3563232421875 48.29063415527344 233.38449096679688 47.70967483520508 229.553955078125 46.06227111816406" stroke-width="2.9451849460601807" fill="none" stroke="rgb(246, 175, 1)" stroke-opacity="0.5727968" stroke-linecap="round" stroke-linejoin="round"/>
    <path d="M 38.9456787109375 121.85718536376953 C 38.84661865234375 120.74095916748047 36.9583854675293 120.15860748291016 39.912391662597656 118.95719146728516" stroke-width="2.0" fill="none" stroke="rgb(193, 238, 179)" stroke-opacity="0.9869345" stroke-linecap="round" stroke-linejoin="round"/>
    <path d="M 28.955284118652344 150.51141357421875 C 23.131763458251953 152.63414001464844 27.753610610961914 155.20925903320312 30.718706130981445 160.02761840820312" stroke-width="4.0" fill="none" stroke="rgb(131, 165, 98)" stroke-opacity="0.9219546" stroke-linecap="round" stroke-linejoin="round"/>
    <path d="M 32.59098815917969 15.894327163696289 C 34.970458984375 16.082487106323242 39.83250045776367 12.085796356201172 35.009090423583984 11.887990951538086" stroke-width="2.0" fill="none" stroke="rgb(7, 38, 18)" stroke-opacity="0.7669399" stroke-linecap="round" stroke-linejoin="round"/>
    <path d="M 119.48200225830078 72.02204132080078 C 119.85926055908203 69.94499206542969 117.40113067626953 70.0965576171875 112.72012329101562 71.0078353881836" stroke-width="2.0" fill="none" stroke="rgb(118, 139, 93)" stroke-opacity="0.0020690165" stroke-linecap="round" stroke-linejoin="round"/>
    <path d="M 102.30227661132812 20.333803176879883 C 108.15283966064453 24.400815963745117 102.78740692138672 27.04241371154785 106.59159088134766 32.023990631103516" stroke-width="2.0" fill="none" stroke="rgb(128, 148, 229)" stroke-opacity="0.82170796" stroke-linecap="round" stroke-linejoin="round"/>
    <path d="M 159.9752655029297 163.7327880859375 C 156.3262481689453 163.1013946533203 159.29180908203125 161.08384704589844 161.72752380371094 161.25076293945312" stroke-width="2.0" fill="none" stroke="rgb(22, 238, 153)" stroke-opacity="0.8683936" stroke-linecap="round" stroke-linejoin="round"/>
    <path d="M 4.303628444671631 201.23062133789062 C 0.2909703552722931 198.6175537109375 0.2953573167324066 197.27786254882812 5.788952827453613 201.4613800048828" stroke-width="2.7633259296417236" fill="none" stroke="rgb(159, 167, 166)" stroke-opacity="0.58265984" stroke-linecap="round" stroke-linejoin="round"/>
    <path d="M 112.01099395751953 148.07374572753906 C 115.33316802978516 152.0243682861328 116.71854400634766 150.849853515625 116.53460693359375 147.46922302246094" stroke-width="2.0" fill="none" stroke="rgb(72, 213, 39)" stroke-opacity="0.29001746" stroke-linecap="round" stroke-linejoin="round"/>
    <path d="M 10.489819526672363 199.42774963378906 C 9.608467102050781 204.8763885498047 4.081852912902832 203.02981567382812 1.6118446588516235 199.60716247558594" stroke-width="2.0" fill="none" stroke="rgb(125, 239, 220)" stroke-opacity="0.27012038" stroke-linecap="round" stroke-linejoin="round"/>
    <path d="M 63.47269821166992 173.57342529296875 C 58.14376449584961 171.30810546875 61.440128326416016 168.24301147460938 65.49528503417969 168.3427734375" stroke-width="3.2193217277526855" fill="none" stroke="rgb(58, 76, 53)" stroke-opacity="0.06888637" stroke-linecap="round" stroke-linejoin="round"/>
    <path d="M 155.67416381835938 73.02928161621094 C 152.4226837158203 73.432373046875 156.0346221923828 71.12742614746094 159.5558624267578 74.93775939941406" stroke-width="2.0" fill="none" stroke="rgb(194, 22, 230)" stroke-opacity="0.89379936" stroke-linecap="round" stroke-linejoin="round"/>
    <path d="M 156.6656036376953 143.89547729492188 C 153.32485961914062 145.37655639648438 156.19776916503906 141.7498321533203 151.26034545898438 140.06158447265625" stroke-width="2.0" fill="none" stroke="rgb(135, 107, 146)" stroke-opacity="0.27662498" stroke-linecap="round" stroke-linejoin="round"/>
    <path d="M 207.78839111328125 12.491915702819824 C 206.9052276611328 8.60722827911377 206.7577362060547 12.655587196350098 209.89109802246094 11.164966583251953" stroke-width="2.0" fill="none" stroke="rgb(125, 197, 228)" stroke-opacity="0.3756619" stroke-linecap="round" stroke-linejoin="round"/>
    <path d="M 26.959699630737305 185.53759765625 C 27.104393005371094 180.0731964111328 28.2127628326416 184.01148986816406 26.907939910888672 185.4060516357422" stroke-width="2.0" fill="none" stroke="rgb(41, 182, 110)" stroke-opacity="0.42197862" stroke-linecap="round" stroke-linejoin="round"/>
    <path d="M 213.52491760253906 36.34090042114258 C 212.7415313720703 41.534332275390625 207.59608459472656 38.58791732788086 210.037841796875 33.834869384765625" stroke-width="2.0" fill="none" stroke="rgb(21, 201, 193)" stroke-opacity="0.8811322" stroke-linecap="round" stroke-linejoin="round"/>
    <path d="M 143.29969787597656 102.88489532470703 C 143.54241943359375 103.60759735107422 142.39306640625 101.99404907226562 145.5475311279297 100.74211120605469" stroke-width="2.467871904373169" fill="none" stroke="rgb(233, 43, 6)" stroke-opacity="0.9773673" stroke-linecap="round" stroke-linejoin="round"/>
    <path d="M 40.33785629272461 26.249420166015625 C 45.71465301513672 30.726640701293945 47.17454147338867 32.63444900512695 47.039241790771484 35.29643630981445" stroke-width="2.0486793518066406" fill="none" stroke="rgb(118, 0, 223)" stroke-opacity="0.13273646" stroke-linecap="round" stroke-linejoin="round"/>
    <path d="M 201.486572265625 188.02261352539062 C 199.70225524902344 185.45130920410156 200.49905395507812 182.3701629638672 196.6523895263672 185.01548767089844" stroke-width="2.0" fill="none" stroke="rgb(213, 194, 94)" stroke-opacity="0.45113456" stroke-linecap="round" stroke-linejoin="round"/>
    <path d="M 205.2273712158203 148.8870849609375 C 205.49513244628906 143.55934143066406 207.38796997070312 144.69546508789062 206.09300231933594 140.29783630371094" stroke-width="2.0" fill="none" stroke="rgb(39, 198, 128)" stroke-opacity="0.47496378" stroke-linecap="round" stroke-linejoin="round"/>
    <path d="M 144.4290008544922 36.6126594543457 C 140.76878356933594 37.12571334838867 139.57998657226562 37.48591232299805 137.41390991210938 41.27467346191406" stroke-width="2.0" fill="none" stroke="rgb(82, 255, 15)" stroke-opacity="0.7265673" stroke-linecap="round" stroke-linejoin="round"/>
    <path d="M 44.24197006225586 59.1977424621582 C 40.25571060180664 59.590187072753906 40.05815887451172 54.284114837646484 44.290592193603516 58.73040771484375" stroke-width="2.0" fill="none" stroke="rgb(97, 50, 251)" stroke-opacity="0.24481957" stroke-linecap="round" stroke-linejoin="round"/>
    <path d="M 184.7103729248047 75.62913513183594 C 182.9766387939453 79.48739624023438 182.8335418701172 78.84832000732422 181.1753692626953 80.2951431274414" stroke-width="4.0" fill="none" stroke="rgb(244, 63, 30)" stroke-opacity="0.30048183" stroke-linecap="round" stroke-linejoin="round"/>
    <path d="M 56.69721984863281 103.15361022949219 C 57.084686279296875 107.46717071533203 59.058250427246094 105.28669738769531 58.365196228027344 101.12635803222656" stroke-width="3.59097957611084" fill="none" stroke="rgb(255, 50, 98)" stroke-opacity="0.057947475" stroke-linecap="round" stroke-linejoin="round"/>
  </g>
</svg>
