<?xml version="1.0" ?>
<svg xmlns="http://www.w3.org/2000/svg" version="1.1" width="229" height="229">
  <defs/>
  <g>
    <path d="M 52.9672737121582 254.16598510742188 C 38.84822463989258 186.29148864746094 63.13279724121094 204.8833465576172 47.329429626464844 178.95265197753906" stroke-width="4.0" fill="none" stroke="rgb(82, 16, 7)" stroke-opacity="1.0" stroke-linecap="round" stroke-linejoin="round"/>
    <path d="M 69.43771362304688 212.76461791992188 C 120.40933990478516 215.44801330566406 73.08840942382812 230.24610900878906 94.61985778808594 186.01878356933594" stroke-width="4.0" fill="none" stroke="rgb(93, 10, 0)" stroke-opacity="0.57776386" stroke-linecap="round" stroke-linejoin="round"/>
    <path d="M 163.46583557128906 50.40690612792969 C 217.82870483398438 11.493163108825684 220.46067810058594 22.73043441772461 152.25259399414062 62.38258361816406" stroke-width="2.4360733032226562" fill="none" stroke="rgb(242, 110, 0)" stroke-opacity="0.5735933" stroke-linecap="round" stroke-linejoin="round"/>
    <path d="M 126.12895965576172 -24.720226287841797 C 107.42707824707031 46.92901611328125 124.16194915771484 -15.439251899719238 101.25613403320312 33.35842514038086" stroke-width="4.0" fill="none" stroke="rgb(255, 244, 224)" stroke-opacity="0.31368864" stroke-linecap="round" stroke-linejoin="round"/>
    <path d="M 51.082218170166016 96.28407287597656 C 44.57783889770508 105.63748931884766 30.75375747680664 176.23684692382812 42.13184356689453 193.45687866210938" stroke-width="4.0" fill="none" stroke="rgb(0, 21, 0)" stroke-opacity="0.9308093" stroke-linecap="round" stroke-linejoin="round"/>
    <path d="M 5.027145862579346 62.548030853271484 C 7.282780647277832 28.037580490112305 15.059510231018066 51.77696228027344 5.203388214111328 -13.325648307800293" stroke-width="2.0" fill="none" stroke="rgb(198, 146, 144)" stroke-opacity="0.1538" stroke-linecap="round" stroke-linejoin="round"/>
    <path d="M 96.5025863647461 63.894718170166016 C 74.43083190917969 46.35091781616211 97.35308074951172 44.91132736206055 86.43827056884766 60.146297454833984" stroke-width="3.2684898376464844" fill="none" stroke="rgb(216, 136, 9)" stroke-opacity="0.98464733" stroke-linecap="round" stroke-linejoin="round"/>
    <path d="M 64.7691650390625 95.22557067871094 C 80.0741958618164 174.38323974609375 56.137699127197266 82.44696044921875 125.40293884277344 66.15410614013672" stroke-width="4.0" fill="none" stroke="rgb(194, 0, 192)" stroke-opacity="0.11844649" stroke-linecap="round" stroke-linejoin="round"/>
    <path d="M 191.19338989257812 150.94564819335938 C 275.9629821777344 155.15557861328125 203.4201202392578 149.6727294921875 194.10447692871094 126.80467987060547" stroke-width="4.0" fill="none" stroke="rgb(75, 44, 65)" stroke-opacity="0.38771853" stroke-linecap="round" stroke-linejoin="round"/>
    <path d="M 9.7649507522583 157.17127990722656 C 6.200657367706299 108.38269805908203 21.060632705688477 166.74456787109375 6.095118045806885 60.30521011352539" stroke-width="4.0" fill="none" stroke="rgb(239, 251, 237)" stroke-opacity="0.11058869" stroke-linecap="round" stroke-linejoin="round"/>
    <path d="M 175.1607666015625 55.08531951904297 C 106.66572570800781 59.90206527709961 158.60870361328125 31.81711769104004 202.20059204101562 29.700414657592773" stroke-width="3.0970659255981445" fill="none" stroke="rgb(200, 52, 0)" stroke-opacity="0.74970907" stroke-linecap="round" stroke-linejoin="round"/>
    <path d="M 16.665090560913086 96.06925201416016 C 21.651256561279297 152.67027282714844 15.120004653930664 109.8611068725586 -3.0340676307678223 194.62001037597656" stroke-width="4.0" fill="none" stroke="rgb(12, 0, 0)" stroke-opacity="1.0" stroke-linecap="round" stroke-linejoin="round"/>
    <path d="M 138.68267822265625 82.08393859863281 C 119.28199768066406 133.98504638671875 142.46339416503906 112.38284301757812 109.39545440673828 104.17697143554688" stroke-width="2.656515598297119" fill="none" stroke="rgb(35, 0, 232)" stroke-opacity="0.98727596" stroke-linecap="round" stroke-linejoin="round"/>
    <path d="M 183.18687438964844 45.38173294067383 C 155.60287475585938 44.841026306152344 183.04629516601562 61.835662841796875 179.9805908203125 43.350914001464844" stroke-width="2.0" fill="none" stroke="rgb(0, 0, 46)" stroke-opacity="1.0" stroke-linecap="round" stroke-linejoin="round"/>
    <path d="M 223.98797607421875 115.4744644165039 C 82.66566467285156 135.50326538085938 180.50714111328125 119.47994232177734 231.1643829345703 139.79588317871094" stroke-width="3.268671751022339" fill="none" stroke="rgb(241, 101, 86)" stroke-opacity="0.13468027" stroke-linecap="round" stroke-linejoin="round"/>
    <path d="M 190.99462890625 22.201271057128906 C 188.22134399414062 54.623104095458984 191.23226928710938 92.5802993774414 142.7776641845703 93.09198760986328" stroke-width="4.0" fill="none" stroke="rgb(90, 62, 13)" stroke-opacity="0.82294154" stroke-linecap="round" stroke-linejoin="round"/>
    <path d="M 155.7587127685547 102.04290771484375 C 211.38104248046875 63.28148651123047 196.90460205078125 34.99087142944336 181.22409057617188 32.600894927978516" stroke-width="4.0" fill="none" stroke="rgb(106, 40, 20)" stroke-opacity="0.9360179" stroke-linecap="round" stroke-linejoin="round"/>
    <path d="M 189.0954132080078 166.24415588378906 C 204.66427612304688 120.22354125976562 225.58657836914062 142.08775329589844 221.46754455566406 147.848876953125" stroke-width="4.0" fill="none" stroke="rgb(123, 128, 133)" stroke-opacity="0.8714091" stroke-linecap="round" stroke-linejoin="round"/>
    <path d="M 202.8609161376953 117.36898040771484 C 235.9550018310547 68.37950134277344 221.12640380859375 88.10879516601562 156.6722869873047 139.6034698486328" stroke-width="4.0" fill="none" stroke="rgb(103, 6, 94)" stroke-opacity="1.0" stroke-linecap="round" stroke-linejoin="round"/>
    <path d="M 40.511680603027344 -29.038150787353516 C 13.583598136901855 14.492469787597656 28.48809051513672 -52.755680084228516 1.1797984838485718 7.414638519287109" stroke-width="4.0" fill="none" stroke="rgb(169, 117, 27)" stroke-opacity="0.20162982" stroke-linecap="round" stroke-linejoin="round"/>
    <path d="M 154.86460876464844 232.54859924316406 C 160.84124755859375 174.183349609375 144.02218627929688 207.6060333251953 130.4549102783203 151.75927734375" stroke-width="3.6109890937805176" fill="none" stroke="rgb(22, 18, 19)" stroke-opacity="1.0" stroke-linecap="round" stroke-linejoin="round"/>
    <path d="M 56.79463577270508 2.0396881103515625 C 64.5211410522461 46.464656829833984 57.781517028808594 -26.18161392211914 59.00174331665039 54.92436218261719" stroke-width="3.7163846492767334" fill="none" stroke="rgb(58, 16, 31)" stroke-opacity="0.21711585" stroke-linecap="round" stroke-linejoin="round"/>
    <path d="M 28.009235382080078 136.60960388183594 C -8.944293022155762 86.64846801757812 6.454362392425537 119.80485534667969 45.16577911376953 105.58643341064453" stroke-width="3.2780067920684814" fill="none" stroke="rgb(224, 13, 177)" stroke-opacity="0.20749693" stroke-linecap="round" stroke-linejoin="round"/>
    <path d="M 178.2438201904297 135.00540161132812 C 217.79598999023438 60.61518096923828 151.61167907714844 77.74992370605469 178.92953491210938 117.15499114990234" stroke-width="4.0" fill="none" stroke="rgb(236, 103, 0)" stroke-opacity="1.0" stroke-linecap="round" stroke-linejoin="round"/>
    <path d="M 125.74813842773438 43.01445388793945 C 177.56768798828125 29.495885848999023 151.13180541992188 64.42410278320312 140.80274963378906 40.62143325805664" stroke-width="3.309364080429077" fill="none" stroke="rgb(18, 17, 3)" stroke-opacity="0.9350865" stroke-linecap="round" stroke-linejoin="round"/>
    <path d="M 64.32328033447266 69.16065216064453 C 97.36394500732422 -6.89723014831543 66.56565856933594 45.285518646240234 87.72341918945312 3.7543063163757324" stroke-width="2.0" fill="none" stroke="rgb(121, 76, 21)" stroke-opacity="0.11200876" stroke-linecap="round" stroke-linejoin="round"/>
    <path d="M 27.82595443725586 104.36363983154297 C 66.228759765625 98.31376647949219 31.0279541015625 82.8410873413086 93.85123443603516 85.40535736083984" stroke-width="4.0" fill="none" stroke="rgb(255, 167, 0)" stroke-opacity="0.37391895" stroke-linecap="round" stroke-linejoin="round"/>
    <path d="M 101.8984375 170.5943603515625 C 51.75302505493164 132.8489990234375 75.54430389404297 164.7642059326172 58.39392852783203 203.07919311523438" stroke-width="3.772373914718628" fill="none" stroke="rgb(0, 17, 109)" stroke-opacity="1.0" stroke-linecap="round" stroke-linejoin="round"/>
    <path d="M 74.9107437133789 224.92857360839844 C 162.225830078125 230.20120239257812 113.96727752685547 239.98529052734375 123.25846099853516 152.65396118164062" stroke-width="4.0" fill="none" stroke="rgb(4, 0, 17)" stroke-opacity="0.9305008" stroke-linecap="round" stroke-linejoin="round"/>
    <path d="M 203.983642578125 188.91787719726562 C 211.00770568847656 194.6910400390625 181.76943969726562 198.53414916992188 203.75021362304688 200.46681213378906" stroke-width="2.0" fill="none" stroke="rgb(232, 122, 19)" stroke-opacity="0.047259603" stroke-linecap="round" stroke-linejoin="round"/>
    <path d="M 170.1865692138672 225.06570434570312 C 233.79324340820312 232.39637756347656 228.92169189453125 237.92140197753906 228.38331604003906 237.55154418945312" stroke-width="2.0" fill="none" stroke="rgb(136, 18, 174)" stroke-opacity="0.06304597" stroke-linecap="round" stroke-linejoin="round"/>
    <path d="M 7.4151129722595215 32.183074951171875 C 33.6313591003418 -48.54676818847656 61.52003860473633 -44.29470443725586 79.3481216430664 -36.526214599609375" stroke-width="2.901874303817749" fill="none" stroke="rgb(241, 215, 168)" stroke-opacity="0.080226146" stroke-linecap="round" stroke-linejoin="round"/>
    <path d="M 206.3397979736328 30.631275177001953 C 178.06654357910156 58.736656188964844 163.64923095703125 91.35457611083984 132.65188598632812 40.307708740234375" stroke-width="4.0" fill="none" stroke="rgb(0, 1, 31)" stroke-opacity="0.9910134" stroke-linecap="round" stroke-linejoin="round"/>
    <path d="M 153.17898559570312 83.27183532714844 C 126.5754623413086 113.54287719726562 124.06536865234375 128.41592407226562 130.86825561523438 84.75752258300781" stroke-width="4.0" fill="none" stroke="rgb(10, 0, 18)" stroke-opacity="0.9921781" stroke-linecap="round" stroke-linejoin="round"/>
    <path d="M 57.44010925292969 61.58158493041992 C 119.60746765136719 19.865459442138672 87.50823974609375 14.527298927307129 108.9141845703125 2.9325363636016846" stroke-width="2.110738515853882" fill="none" stroke="rgb(208, 237, 200)" stroke-opacity="0.5307435" stroke-linecap="round" stroke-linejoin="round"/>
    <path d="M 9.285080909729004 143.33204650878906 C 60.2227783203125 87.72701263427734 35.313411712646484 110.23057556152344 53.599464416503906 92.69084930419922" stroke-width="2.7023117542266846" fill="none" stroke="rgb(96, 16, 0)" stroke-opacity="0.52009857" stroke-linecap="round" stroke-linejoin="round"/>
    <path d="M 44.71546936035156 181.19027709960938 C 27.449018478393555 220.7157440185547 46.15693283081055 194.84434509277344 1.3320640325546265 213.86642456054688" stroke-width="4.0" fill="none" stroke="rgb(45, 0, 20)" stroke-opacity="1.0" stroke-linecap="round" stroke-linejoin="round"/>
    <path d="M 151.10577392578125 66.7127685546875 C 194.46688842773438 7.869515419006348 206.0773162841797 14.789583206176758 181.3104248046875 93.36444854736328" stroke-width="3.1595780849456787" fill="none" stroke="rgb(134, 94, 0)" stroke-opacity="0.7165305" stroke-linecap="round" stroke-linejoin="round"/>
    <path d="M 184.14044189453125 38.66238784790039 C 212.40106201171875 -1.7874972820281982 232.21087646484375 48.56432342529297 141.1948699951172 35.21846008300781" stroke-width="3.194944381713867" fill="none" stroke="rgb(42, 5, 19)" stroke-opacity="0.6218151" stroke-linecap="round" stroke-linejoin="round"/>
    <path d="M 180.84896850585938 169.61398315429688 C 191.45777893066406 171.08499145507812 170.03555297851562 156.98219299316406 237.0726776123047 162.26226806640625" stroke-width="4.0" fill="none" stroke="rgb(98, 59, 46)" stroke-opacity="0.25195825" stroke-linecap="round" stroke-linejoin="round"/>
  </g>
</svg>
