<!DOCTYPE svg PUBLIC "-//W3C//DTD SVG 1.1//EN" "http://www.w3.org/Graphics/SVG/1.1/DTD/svg11.dtd">

<!-- Uploaded to: SVG Repo, www.svgrepo.com, Transformed by: SVG Repo Mixer Tools -->
<svg fill="#4d4d4d" width="256px" height="256px" viewBox="0 0 256.00 256.00" id="Flat" xmlns="http://www.w3.org/2000/svg" stroke="#333333">

<g id="SVGRepo_bgCarrier" stroke-width="0"/>

<g id="SVGRepo_tracerCarrier" stroke-linecap="round" stroke-linejoin="round"/>

<g id="SVGRepo_iconCarrier"> <path d="M224,115.53906v92.46a16.08415,16.08415,0,0,1-8.44379,14.14416,15.40625,15.40625,0,0,1-7.53406,1.85584H159.96484a8,8,0,0,1-8-8V167.9917a8,8,0,0,0-8-8h-32a8,8,0,0,0-8,8V215.999a8,8,0,0,1-8,8H48.002a15.91729,15.91729,0,0,1-11.99132-5.40349A16.47275,16.47275,0,0,1,32,207.63379l0-92.09522a16.03108,16.03108,0,0,1,5.2373-11.83886l79.99317-72.73389a15.93657,15.93657,0,0,1,21.52637-.00146l80.00683,72.73584A16.03567,16.03567,0,0,1,224,115.53906Z"/> </g>

</svg>