<?xml version="1.0" encoding="UTF-8" standalone="no"?>
<!DOCTYPE svg PUBLIC "-//W3C//DTD SVG 1.1//EN"
 "http://www.w3.org/Graphics/SVG/1.1/DTD/svg11.dtd">
<!-- Generated by graphviz version 2.26.3 (20100126.1600)
 -->
<!-- Title: CondensedTrie Pages: 1 -->
<svg width="2000pt" height="98pt"
 viewBox="0.00 0.00 2000.00 98.00" xmlns="http://www.w3.org/2000/svg" xmlns:xlink="http://www.w3.org/1999/xlink">
<g id="graph1" class="graph" transform="scale(1 1) rotate(0) translate(4 94)">
<title>CondensedTrie</title>
<polygon fill="white" stroke="white" points="-4,5 -4,-94 1997,-94 1997,5 -4,5"/>
<!-- 0 -->
<g id="node1" class="node"><title>0</title>
<ellipse fill="none" stroke="black" cx="27" cy="-45" rx="27" ry="18.3848"/>
<text text-anchor="middle" x="27" y="-41.4" font-family="Times Roman,serif" font-size="14.00">, 0</text>
</g>
<!-- archery1 -->
<g id="node3" class="node"><title>archery1</title>
<ellipse fill="none" stroke="black" cx="152" cy="-45" rx="61.0181" ry="18.3848"/>
<text text-anchor="middle" x="152" y="-41.4" font-family="Times Roman,serif" font-size="14.00">archery, 2</text>
</g>
<!-- 0&#45;&gt;archery1 -->
<g id="edge2" class="edge"><title>0&#45;&gt;archery1</title>
<path fill="none" stroke="black" d="M54.1231,-45C61.98,-45 70.9491,-45 80.1961,-45"/>
<polygon fill="black" stroke="black" points="80.2997,-48.5001 90.2996,-45 80.2996,-41.5001 80.2997,-48.5001"/>
</g>
<!-- by2 -->
<g id="node5" class="node"><title>by2</title>
<ellipse fill="none" stroke="black" cx="286" cy="-45" rx="36.0624" ry="18.3848"/>
<text text-anchor="middle" x="286" y="-41.4" font-family="Times Roman,serif" font-size="14.00">by, 2</text>
</g>
<!-- archery1&#45;&gt;by2 -->
<g id="edge4" class="edge"><title>archery1&#45;&gt;by2</title>
<path fill="none" stroke="black" d="M213.509,-45C222.314,-45 231.246,-45 239.691,-45"/>
<polygon fill="black" stroke="black" points="239.71,-48.5001 249.71,-45 239.71,-41.5001 239.71,-48.5001"/>
</g>
<!-- the3 -->
<g id="node7" class="node"><title>the3</title>
<ellipse fill="none" stroke="black" cx="399" cy="-45" rx="41.0122" ry="18.3848"/>
<text text-anchor="middle" x="399" y="-41.4" font-family="Times Roman,serif" font-size="14.00">the, 2</text>
</g>
<!-- by2&#45;&gt;the3 -->
<g id="edge6" class="edge"><title>by2&#45;&gt;the3</title>
<path fill="none" stroke="black" d="M322.065,-45C330.235,-45 339.065,-45 347.729,-45"/>
<polygon fill="black" stroke="black" points="347.775,-48.5001 357.775,-45 347.775,-41.5001 347.775,-48.5001"/>
</g>
<!-- Republic4 -->
<g id="node9" class="node"><title>Republic4</title>
<ellipse fill="none" stroke="black" cx="541" cy="-45" rx="65.0538" ry="18.3848"/>
<text text-anchor="middle" x="541" y="-41.4" font-family="Times Roman,serif" font-size="14.00">Republic, 2</text>
</g>
<!-- the3&#45;&gt;Republic4 -->
<g id="edge8" class="edge"><title>the3&#45;&gt;Republic4</title>
<path fill="none" stroke="black" d="M440.072,-45C448.226,-45 457.023,-45 465.907,-45"/>
<polygon fill="black" stroke="black" points="465.943,-48.5001 475.943,-45 465.943,-41.5001 465.943,-48.5001"/>
</g>
<!-- of5 -->
<g id="node11" class="node"><title>of5</title>
<ellipse fill="none" stroke="black" cx="675" cy="-45" rx="33.234" ry="18.3848"/>
<text text-anchor="middle" x="675" y="-41.4" font-family="Times Roman,serif" font-size="14.00">of, 2</text>
</g>
<!-- Republic4&#45;&gt;of5 -->
<g id="edge10" class="edge"><title>Republic4&#45;&gt;of5</title>
<path fill="none" stroke="black" d="M606.037,-45C614.758,-45 623.523,-45 631.741,-45"/>
<polygon fill="black" stroke="black" points="631.813,-48.5001 641.813,-45 631.813,-41.5001 631.813,-48.5001"/>
</g>
<!-- Korea6 -->
<g id="node13" class="node"><title>Korea6</title>
<ellipse fill="none" stroke="black" cx="797" cy="-45" rx="51.8276" ry="18.3848"/>
<text text-anchor="middle" x="797" y="-41.4" font-family="Times Roman,serif" font-size="14.00">Korea, 2</text>
</g>
<!-- of5&#45;&gt;Korea6 -->
<g id="edge12" class="edge"><title>of5&#45;&gt;Korea6</title>
<path fill="none" stroke="black" d="M708.015,-45C716.116,-45 725.058,-45 734.056,-45"/>
<polygon fill="black" stroke="black" points="734.197,-48.5001 744.197,-45 734.197,-41.5001 734.197,-48.5001"/>
</g>
<!-- and7 -->
<g id="node15" class="node"><title>and7</title>
<ellipse fill="none" stroke="black" cx="929" cy="-72" rx="41.9273" ry="18.3848"/>
<text text-anchor="middle" x="929" y="-68.4" font-family="Times Roman,serif" font-size="14.00">and, 1</text>
</g>
<!-- Korea6&#45;&gt;and7 -->
<g id="edge14" class="edge"><title>Korea6&#45;&gt;and7</title>
<path fill="none" stroke="black" d="M842.427,-54.2919C854.784,-56.8195 868.211,-59.5659 880.72,-62.1246"/>
<polygon fill="black" stroke="black" points="880.019,-65.5536 890.518,-64.1287 881.422,-58.6956 880.019,-65.5536"/>
</g>
<!-- in13 -->
<g id="node27" class="node"><title>in13</title>
<ellipse fill="none" stroke="black" cx="929" cy="-18" rx="33.234" ry="18.3848"/>
<text text-anchor="middle" x="929" y="-14.4" font-family="Times Roman,serif" font-size="14.00">in, 1</text>
</g>
<!-- Korea6&#45;&gt;in13 -->
<g id="edge26" class="edge"><title>Korea6&#45;&gt;in13</title>
<path fill="none" stroke="black" d="M842.427,-35.7081C857.189,-32.6885 873.478,-29.3568 887.905,-26.4057"/>
<polygon fill="black" stroke="black" points="888.938,-29.7671 898.034,-24.334 887.535,-22.9091 888.938,-29.7671"/>
</g>
<!-- the8 -->
<g id="node17" class="node"><title>the8</title>
<ellipse fill="none" stroke="black" cx="1070" cy="-72" rx="41.0122" ry="18.3848"/>
<text text-anchor="middle" x="1070" y="-68.4" font-family="Times Roman,serif" font-size="14.00">the, 1</text>
</g>
<!-- and7&#45;&gt;the8 -->
<g id="edge16" class="edge"><title>and7&#45;&gt;the8</title>
<path fill="none" stroke="black" d="M971.687,-72C986.439,-72 1003.13,-72 1018.51,-72"/>
<polygon fill="black" stroke="black" points="1018.91,-75.5001 1028.91,-72 1018.91,-68.5001 1018.91,-75.5001"/>
</g>
<!-- guy9 -->
<g id="node19" class="node"><title>guy9</title>
<ellipse fill="none" stroke="black" cx="1319" cy="-72" rx="41.9273" ry="18.3848"/>
<text text-anchor="middle" x="1319" y="-68.4" font-family="Times Roman,serif" font-size="14.00">guy, 1</text>
</g>
<!-- the8&#45;&gt;guy9 -->
<g id="edge18" class="edge"><title>the8&#45;&gt;guy9</title>
<path fill="none" stroke="black" d="M1111.12,-72C1153.5,-72 1219.73,-72 1266.01,-72"/>
<polygon fill="black" stroke="black" points="1266.15,-75.5001 1276.15,-72 1266.15,-68.5001 1266.15,-75.5001"/>
</g>
<!-- is10 -->
<g id="node21" class="node"><title>is10</title>
<ellipse fill="none" stroke="black" cx="1680" cy="-47" rx="31.8198" ry="18.3848"/>
<text text-anchor="middle" x="1680" y="-43.4" font-family="Times Roman,serif" font-size="14.00">is, 2</text>
</g>
<!-- guy9&#45;&gt;is10 -->
<g id="edge20" class="edge"><title>guy9&#45;&gt;is10</title>
<path fill="none" stroke="black" d="M1361.12,-69.0833C1430.64,-64.2685 1568.63,-54.7129 1638.04,-49.9055"/>
<polygon fill="black" stroke="black" points="1638.44,-53.3865 1648.18,-49.2039 1637.96,-46.4033 1638.44,-53.3865"/>
</g>
<!-- legally11 -->
<g id="node23" class="node"><title>legally11</title>
<ellipse fill="none" stroke="black" cx="1804" cy="-47" rx="55.8614" ry="18.3848"/>
<text text-anchor="middle" x="1804" y="-43.4" font-family="Times Roman,serif" font-size="14.00">legally, 2</text>
</g>
<!-- is10&#45;&gt;legally11 -->
<g id="edge22" class="edge"><title>is10&#45;&gt;legally11</title>
<path fill="none" stroke="black" d="M1712.26,-47C1720.18,-47 1728.96,-47 1737.84,-47"/>
<polygon fill="black" stroke="black" points="1737.89,-50.5001 1747.89,-47 1737.89,-43.5001 1737.89,-50.5001"/>
</g>
<!-- blind12 -->
<g id="node25" class="node"><title>blind12</title>
<ellipse fill="none" stroke="black" cx="1944" cy="-47" rx="48.0833" ry="18.3848"/>
<text text-anchor="middle" x="1944" y="-43.4" font-family="Times Roman,serif" font-size="14.00">blind, 2</text>
</g>
<!-- legally11&#45;&gt;blind12 -->
<g id="edge24" class="edge"><title>legally11&#45;&gt;blind12</title>
<path fill="none" stroke="black" d="M1860.14,-47C1868.57,-47 1877.29,-47 1885.77,-47"/>
<polygon fill="black" stroke="black" points="1885.96,-50.5001 1895.96,-47 1885.96,-43.5001 1885.96,-50.5001"/>
</g>
<!-- archery14 -->
<g id="node29" class="node"><title>archery14</title>
<ellipse fill="none" stroke="black" cx="1070" cy="-18" rx="61.0181" ry="18.3848"/>
<text text-anchor="middle" x="1070" y="-14.4" font-family="Times Roman,serif" font-size="14.00">archery, 1</text>
</g>
<!-- in13&#45;&gt;archery14 -->
<g id="edge28" class="edge"><title>in13&#45;&gt;archery14</title>
<path fill="none" stroke="black" d="M962.058,-18C972.977,-18 985.584,-18 998.244,-18"/>
<polygon fill="black" stroke="black" points="998.378,-21.5001 1008.38,-18 998.378,-14.5001 998.378,-21.5001"/>
</g>
<!-- by15 -->
<g id="node31" class="node"><title>by15</title>
<ellipse fill="none" stroke="black" cx="1204" cy="-18" rx="36.0624" ry="18.3848"/>
<text text-anchor="middle" x="1204" y="-14.4" font-family="Times Roman,serif" font-size="14.00">by, 1</text>
</g>
<!-- archery14&#45;&gt;by15 -->
<g id="edge30" class="edge"><title>archery14&#45;&gt;by15</title>
<path fill="none" stroke="black" d="M1131.51,-18C1140.31,-18 1149.25,-18 1157.69,-18"/>
<polygon fill="black" stroke="black" points="1157.71,-21.5001 1167.71,-18 1157.71,-14.5001 1157.71,-21.5001"/>
</g>
<!-- a16 -->
<g id="node33" class="node"><title>a16</title>
<ellipse fill="none" stroke="black" cx="1319" cy="-18" rx="29.9071" ry="18.3848"/>
<text text-anchor="middle" x="1319" y="-14.4" font-family="Times Roman,serif" font-size="14.00">a, 1</text>
</g>
<!-- by15&#45;&gt;a16 -->
<g id="edge32" class="edge"><title>by15&#45;&gt;a16</title>
<path fill="none" stroke="black" d="M1240.07,-18C1252.22,-18 1265.85,-18 1278.32,-18"/>
<polygon fill="black" stroke="black" points="1278.47,-21.5001 1288.47,-18 1278.47,-14.5001 1278.47,-21.5001"/>
</g>
<!-- guy17 -->
<g id="node35" class="node"><title>guy17</title>
<ellipse fill="none" stroke="black" cx="1441" cy="-22" rx="41.9273" ry="18.3848"/>
<text text-anchor="middle" x="1441" y="-18.4" font-family="Times Roman,serif" font-size="14.00">guy, 1</text>
</g>
<!-- a16&#45;&gt;guy17 -->
<g id="edge34" class="edge"><title>a16&#45;&gt;guy17</title>
<path fill="none" stroke="black" d="M1349.47,-18.9991C1361.28,-19.3863 1375.15,-19.841 1388.47,-20.2776"/>
<polygon fill="black" stroke="black" points="1388.39,-23.777 1398.5,-20.6067 1388.62,-16.7807 1388.39,-23.777"/>
</g>
<!-- who18 -->
<g id="node37" class="node"><title>who18</title>
<ellipse fill="none" stroke="black" cx="1566" cy="-23" rx="45.9619" ry="18.3848"/>
<text text-anchor="middle" x="1566" y="-19.4" font-family="Times Roman,serif" font-size="14.00">who, 1</text>
</g>
<!-- guy17&#45;&gt;who18 -->
<g id="edge36" class="edge"><title>guy17&#45;&gt;who18</title>
<path fill="none" stroke="black" d="M1483.67,-22.3413C1492.01,-22.408 1500.87,-22.4789 1509.57,-22.5486"/>
<polygon fill="black" stroke="black" points="1509.65,-26.0492 1519.67,-22.6294 1509.7,-19.0494 1509.65,-26.0492"/>
</g>
<!-- who18&#45;&gt;is10 -->
<g id="edge38" class="edge"><title>who18&#45;&gt;is10</title>
<path fill="none" stroke="black" d="M1606.51,-31.5291C1617.38,-33.8162 1629.11,-36.2873 1639.95,-38.569"/>
<polygon fill="black" stroke="black" points="1639.5,-42.0512 1650.01,-40.6864 1640.95,-35.2013 1639.5,-42.0512"/>
</g>
</g>
</svg>
