<?xml version="1.0" standalone="no"?>
<!DOCTYPE svg PUBLIC "-//W3C//DTD SVG 20010904//EN"
 "http://www.w3.org/TR/2001/REC-SVG-20010904/DTD/svg10.dtd">
<svg version="1.0" xmlns="http://www.w3.org/2000/svg"
 width="2740.000000pt" height="2740.000000pt" viewBox="0 0 2740.000000 2740.000000"
 preserveAspectRatio="xMidYMid meet">
<metadata>
Created by potrace 1.14, written by Peter Selinger 2001-2017
</metadata>
<g transform="translate(0.000000,2740.000000) scale(0.100000,-0.100000)"
fill="#000000" stroke="none">
<path d="M4439 18346 c-2 -2 -49 -7 -104 -11 -55 -3 -116 -8 -135 -11 -19 -2
-60 -6 -90 -9 -30 -2 -71 -7 -90 -10 -19 -2 -53 -7 -75 -11 -22 -3 -51 -7 -65
-9 -50 -8 -97 -17 -215 -41 -66 -14 -130 -27 -142 -30 -12 -2 -33 -8 -47 -14
-13 -5 -26 -6 -29 -3 -3 3 -12 1 -19 -3 -7 -5 -22 -10 -33 -11 -11 -2 -27 -6
-35 -10 -8 -3 -24 -8 -35 -10 -11 -2 -27 -6 -35 -10 -19 -8 -31 -11 -50 -15
-8 -2 -20 -6 -25 -10 -6 -3 -27 -9 -48 -13 -20 -4 -40 -11 -42 -16 -3 -4 -12
-6 -20 -2 -8 3 -15 -1 -15 -8 0 -7 -3 -10 -6 -6 -6 5 -83 -19 -139 -43 -11 -5
-65 -27 -120 -48 -128 -51 -191 -79 -345 -155 -133 -66 -360 -195 -389 -221
-10 -9 -21 -16 -26 -16 -9 0 -112 -67 -133 -88 -8 -6 -23 -17 -35 -24 -23 -12
-159 -113 -213 -157 -17 -14 -50 -41 -73 -60 -112 -90 -341 -307 -341 -322 0
-5 -7 -9 -15 -9 -8 0 -15 -3 -15 -7 0 -5 -23 -33 -51 -63 -28 -30 -61 -66 -73
-80 -20 -23 -166 -201 -184 -225 -4 -5 -24 -32 -45 -60 -20 -27 -40 -54 -45
-60 -10 -13 -149 -225 -190 -291 -18 -28 -32 -56 -32 -62 0 -7 -4 -12 -8 -12
-5 0 -14 -16 -22 -35 -8 -19 -18 -35 -22 -35 -5 0 -7 -4 -3 -9 3 -5 1 -12 -5
-16 -11 -7 -93 -171 -90 -181 1 -4 -2 -10 -7 -13 -8 -5 -45 -76 -48 -91 -1 -3
-8 -21 -17 -40 -8 -19 -30 -71 -48 -115 -18 -44 -36 -89 -41 -100 -33 -73
-147 -449 -174 -574 -3 -11 -7 -30 -10 -42 -2 -11 -6 -28 -9 -37 -3 -9 -8 -33
-11 -52 -3 -19 -13 -67 -20 -105 -8 -39 -17 -84 -19 -100 -2 -17 -7 -52 -11
-80 -5 -27 -9 -61 -11 -75 -1 -14 -3 -25 -4 -25 -1 0 -3 -20 -5 -45 -2 -25 -7
-67 -10 -95 -21 -197 -28 -691 -12 -890 10 -126 17 -204 24 -245 3 -19 6 -50
6 -67 1 -18 4 -33 7 -33 3 0 6 -17 7 -38 1 -34 5 -57 19 -132 3 -14 9 -47 14
-75 5 -27 23 -108 40 -180 16 -71 32 -139 35 -150 2 -11 16 -58 30 -105 14
-47 28 -92 30 -100 2 -8 4 -16 5 -17 2 -2 4 -7 5 -13 1 -5 3 -11 5 -12 1 -2 3
-10 5 -18 5 -22 35 -111 50 -145 7 -16 29 -73 50 -125 46 -118 52 -133 136
-305 72 -146 76 -155 146 -271 24 -40 43 -76 43 -81 0 -6 9 -18 20 -28 11 -10
18 -20 16 -22 -2 -3 4 -14 14 -26 11 -12 20 -26 20 -32 1 -5 9 -19 19 -30 9
-11 30 -40 47 -65 16 -25 32 -46 36 -48 5 -2 8 -10 8 -18 0 -8 3 -14 8 -14 4
0 18 -17 32 -37 27 -40 47 -67 67 -88 7 -8 13 -16 13 -19 0 -6 23 -34 65 -80
11 -12 38 -44 60 -71 45 -54 235 -255 279 -294 16 -14 45 -42 65 -61 33 -32
137 -123 186 -163 11 -9 67 -53 125 -97 58 -45 112 -87 121 -95 9 -7 26 -16
38 -20 12 -3 21 -11 21 -16 0 -5 8 -12 17 -16 10 -3 34 -19 54 -35 20 -15 41
-28 47 -28 6 0 12 -3 14 -8 4 -9 177 -112 189 -112 5 0 9 -4 9 -9 0 -5 12 -14
27 -20 16 -5 56 -26 91 -46 35 -19 70 -35 78 -35 8 0 14 -4 14 -8 0 -5 39 -26
88 -48 48 -21 89 -42 90 -46 2 -4 10 -8 18 -8 8 0 33 -9 57 -19 175 -80 578
-217 727 -246 8 -2 15 -4 15 -5 0 -1 7 -3 15 -5 8 -1 69 -14 135 -28 66 -15
147 -31 180 -37 33 -5 71 -12 85 -15 23 -5 60 -10 150 -20 19 -2 35 -5 35 -5
0 -1 20 -3 45 -5 25 -2 62 -6 82 -8 196 -29 822 -30 1048 -1 19 2 58 6 85 8
28 2 50 5 50 6 0 1 14 3 30 5 17 1 46 5 65 9 19 3 53 8 75 11 22 4 74 13 115
21 41 9 86 18 100 20 14 3 54 12 90 20 36 9 72 17 80 19 8 2 15 4 15 5 0 1 7
3 16 5 59 11 265 77 399 127 153 58 382 159 400 178 3 3 11 6 18 8 11 2 152
79 217 119 11 7 27 16 35 20 22 11 261 172 291 197 15 11 39 30 53 40 15 11
35 27 46 35 10 9 35 30 56 46 21 17 48 39 60 50 12 11 46 40 75 65 64 54 253
244 329 329 30 34 66 74 80 89 14 15 38 45 54 67 17 22 33 42 36 45 3 3 28 34
55 70 28 36 55 68 60 72 6 4 7 8 2 8 -4 0 1 9 10 19 24 26 32 37 68 91 17 25
34 50 38 55 13 16 90 135 132 205 21 36 43 67 47 68 4 2 6 7 3 12 -3 4 2 13
10 20 8 7 15 16 15 21 0 9 72 132 81 139 4 3 10 16 14 30 6 24 -2 29 -147 99
-267 129 -507 246 -703 342 -104 51 -192 93 -195 93 -3 1 -43 20 -90 42 -104
51 -374 182 -613 298 -98 47 -179 86 -181 86 -1 0 -20 -35 -42 -77 -21 -43
-43 -81 -49 -85 -5 -4 -6 -8 -1 -8 5 0 4 -6 -2 -12 -5 -7 -25 -40 -43 -73 -67
-124 -214 -319 -315 -419 -114 -113 -248 -221 -374 -301 -90 -58 -256 -145
-325 -170 -27 -10 -55 -22 -61 -27 -6 -4 -19 -9 -30 -11 -10 -2 -27 -7 -36
-11 -9 -4 -22 -8 -30 -10 -7 -1 -17 -4 -23 -7 -9 -5 -27 -11 -80 -25 -19 -5
-150 -36 -170 -40 -11 -3 -38 -7 -60 -10 -22 -3 -53 -7 -70 -10 -16 -2 -61 -6
-100 -9 -38 -2 -70 -5 -70 -5 0 -6 -197 -4 -201 2 -3 4 -12 4 -22 1 -9 -4 -30
-6 -47 -5 -51 4 -120 10 -125 12 -3 1 -9 2 -13 1 -7 -1 -73 9 -212 33 -11 2
-49 12 -85 21 -36 9 -73 19 -83 21 -46 9 -290 100 -322 120 -11 7 -22 13 -25
12 -7 0 -84 35 -90 42 -3 3 -17 11 -32 17 -15 7 -46 25 -70 40 -24 15 -47 26
-51 25 -4 -1 -10 5 -13 13 -4 8 -12 15 -18 15 -13 0 -99 60 -104 72 -2 5 -8 8
-14 8 -10 0 -53 33 -116 90 -18 17 -35 30 -38 30 -6 0 -200 196 -247 250 -37
42 -161 209 -175 237 -7 12 -18 27 -24 35 -7 7 -22 31 -33 53 -11 22 -23 42
-26 45 -36 29 -215 447 -245 570 -2 8 -15 58 -29 110 -24 91 -34 136 -40 190
-2 14 -4 25 -5 25 -2 0 -7 28 -15 90 -2 22 -7 58 -10 79 -24 169 -24 649 0
736 2 8 6 42 10 74 3 32 7 62 9 65 2 3 7 29 10 56 4 28 9 58 12 67 3 9 6 25 8
35 2 10 12 47 21 83 9 36 18 72 20 80 8 38 88 266 96 275 5 5 9 17 9 27 0 10
5 18 10 18 6 0 10 8 10 18 0 16 66 152 126 260 145 260 397 546 639 727 11 8
35 27 53 41 17 14 32 23 32 19 0 -3 12 5 26 18 14 13 55 39 90 57 35 19 64 37
64 41 0 4 12 10 27 14 15 3 38 14 52 24 51 34 333 148 386 156 11 1 20 3 20 4
0 2 7 4 15 6 8 1 42 10 75 18 33 9 76 19 95 22 19 3 42 8 50 10 16 4 84 15
135 21 153 18 404 25 422 12 6 -5 14 -5 18 2 3 6 10 8 15 5 5 -3 35 -8 67 -11
106 -11 193 -23 213 -31 8 -3 29 -7 45 -10 17 -2 62 -14 100 -25 39 -11 77
-22 85 -23 8 -2 15 -4 15 -5 0 -1 7 -3 15 -5 92 -22 340 -140 477 -227 178
-114 379 -287 493 -427 19 -24 43 -53 53 -64 10 -12 26 -34 35 -49 9 -16 20
-28 24 -28 4 0 8 -6 8 -14 0 -8 4 -16 8 -18 10 -4 92 -135 92 -147 0 -4 7 -14
15 -21 8 -7 13 -16 10 -20 -3 -5 -1 -11 4 -15 13 -7 41 -64 41 -82 0 -7 4 -13
8 -13 5 0 17 -18 27 -39 12 -29 22 -38 34 -34 9 3 88 41 176 84 89 44 166 79
172 79 6 0 13 3 15 8 4 8 255 132 269 132 5 0 9 4 9 10 0 5 3 9 8 8 10 -3 206
94 210 104 2 4 11 8 21 8 9 0 27 7 39 16 12 8 22 12 22 8 0 -3 7 -1 15 6 19
16 192 100 206 100 5 0 9 5 9 10 0 6 4 10 9 10 15 0 186 83 189 92 2 4 12 8
23 8 10 0 19 5 19 12 0 6 2 9 6 6 3 -3 67 25 142 63 75 38 142 69 148 69 6 0
17 6 23 14 7 8 24 17 39 21 15 4 34 12 42 19 8 7 36 21 63 31 26 10 47 21 47
26 0 8 -7 22 -61 117 -12 20 -33 57 -47 82 -102 184 -242 394 -394 590 -48 62
-50 64 -153 186 -101 120 -449 458 -504 488 -9 5 -18 13 -21 17 -6 9 -68 58
-100 79 -13 8 -38 27 -55 43 -18 15 -37 27 -43 27 -6 0 -12 3 -14 8 -4 9 -141
101 -180 121 -16 8 -28 18 -28 23 0 4 -4 8 -9 8 -5 0 -56 27 -114 60 -59 33
-111 60 -117 60 -5 0 -10 5 -10 10 0 6 -5 10 -11 10 -6 0 -57 23 -114 50 -57
28 -106 50 -109 50 -3 0 -34 13 -68 28 -60 27 -121 51 -143 55 -5 1 -12 4 -15
7 -9 10 -305 102 -370 115 -8 2 -15 4 -15 5 0 1 -11 3 -24 6 -13 2 -58 13
-100 23 -42 11 -94 22 -116 27 -22 4 -46 8 -53 10 -30 6 -149 25 -177 29 -16
2 -30 4 -30 5 0 1 -18 4 -40 6 -22 2 -62 6 -90 9 -27 3 -77 8 -110 11 -33 3
-73 7 -90 10 -33 6 -681 15 -686 10z"/>
<path d="M9967 18334 c-2 -2 -28 -5 -58 -8 -29 -2 -61 -7 -69 -10 -8 -3 -28
-8 -45 -11 -38 -8 -44 -9 -78 -23 -16 -7 -31 -12 -34 -12 -16 0 -173 -83 -173
-91 0 -5 -6 -9 -12 -9 -13 0 -31 -14 -122 -92 -55 -48 -156 -171 -186 -227
-11 -20 -24 -43 -29 -51 -38 -63 -94 -247 -95 -312 0 -16 -3 -28 -6 -28 -8 0
-4 -205 4 -247 3 -18 9 -48 12 -65 9 -55 52 -175 88 -246 55 -109 157 -234
261 -320 68 -57 217 -137 300 -162 22 -6 45 -13 50 -14 6 -2 12 -3 15 -3 3 0
15 -5 27 -11 16 -9 21 -20 19 -40 -1 -15 1 -39 5 -54 4 -15 4 -30 1 -32 -9 -5
-7 -89 2 -104 4 -7 4 -12 -1 -12 -10 0 -10 -131 1 -148 4 -7 4 -12 -1 -12 -4
0 -8 -56 -8 -125 0 -69 4 -125 9 -125 5 0 4 -6 0 -12 -11 -16 -11 -68 -1 -85
5 -7 5 -13 0 -13 -4 0 -7 -28 -5 -62 3 -71 3 -69 0 -141 -1 -30 2 -59 6 -65 4
-7 4 -12 -1 -12 -10 0 -10 -131 1 -148 4 -7 4 -12 -1 -12 -4 0 -7 -37 -6 -82
2 -46 3 -87 3 -93 0 -5 -1 -61 -2 -123 -2 -61 1 -112 5 -112 5 0 5 -6 0 -12
-10 -18 -10 -70 1 -85 5 -8 5 -13 0 -13 -11 0 -11 -71 -1 -87 4 -7 4 -14 -1
-16 -9 -6 -7 -190 2 -205 3 -6 3 -13 -1 -15 -10 -6 -9 -90 1 -105 4 -7 4 -12
-1 -12 -10 0 -10 -131 1 -148 4 -7 4 -12 -1 -12 -4 0 -8 -56 -8 -125 0 -69 4
-125 9 -125 5 0 4 -6 0 -12 -11 -16 -11 -68 -1 -85 5 -7 5 -13 0 -13 -4 0 -7
-28 -5 -62 3 -71 3 -69 0 -141 -1 -30 2 -59 6 -65 4 -7 4 -12 -1 -12 -10 0
-10 -131 1 -148 4 -7 4 -12 -1 -12 -4 0 -7 -37 -6 -82 2 -46 3 -87 3 -93 0 -5
-1 -61 -2 -123 -2 -61 1 -112 6 -112 5 0 4 -6 0 -12 -11 -16 -11 -68 -1 -85 5
-7 4 -13 0 -13 -10 0 -9 -71 0 -87 4 -7 4 -14 -1 -16 -9 -6 -7 -190 2 -205 3
-6 3 -13 -1 -15 -10 -6 -9 -90 1 -105 4 -7 4 -12 -1 -12 -10 0 -10 -131 1
-148 4 -7 4 -12 -1 -12 -4 0 -8 -56 -8 -125 0 -69 4 -125 9 -125 5 0 4 -6 0
-12 -11 -16 -11 -68 -1 -85 5 -7 5 -13 0 -13 -4 0 -7 -28 -5 -62 3 -71 3 -69
0 -141 -1 -30 2 -59 6 -65 4 -7 4 -12 -1 -12 -10 0 -10 -161 1 -178 4 -6 3
-12 -2 -12 -5 0 -8 -11 -7 -24 3 -28 -9 -36 -76 -49 -42 -8 -207 -82 -244
-110 -5 -4 -39 -29 -75 -56 -36 -26 -88 -73 -117 -105 -58 -62 -143 -178 -143
-194 0 -5 -7 -15 -15 -22 -8 -6 -14 -15 -13 -18 1 -4 -6 -25 -16 -47 -35 -80
-60 -165 -72 -250 -9 -69 -11 -236 -2 -241 4 -3 5 -10 2 -17 -4 -11 2 -50 21
-135 8 -35 50 -143 75 -193 55 -111 170 -252 259 -319 18 -14 38 -30 44 -35
25 -23 171 -104 197 -110 3 -1 18 -7 33 -13 16 -7 33 -12 38 -12 5 0 9 -5 9
-11 0 -5 5 -7 10 -4 6 4 25 2 43 -4 42 -13 80 -20 147 -27 30 -2 67 -6 83 -8
15 -2 27 0 27 3 0 3 24 6 53 6 28 1 72 4 97 7 77 12 239 64 251 81 3 5 10 9
15 9 23 2 44 11 44 19 0 5 5 9 10 9 27 0 213 145 249 194 8 11 23 28 33 38 10
10 18 21 18 25 0 3 8 15 17 25 61 67 153 280 167 384 3 21 7 49 10 61 8 37 10
139 2 151 -4 7 -2 12 4 12 6 0 9 4 6 9 -4 5 -8 31 -11 58 -8 76 -32 183 -52
233 -3 8 -7 17 -8 20 -58 163 -204 346 -367 458 -26 18 -51 32 -57 32 -6 0
-11 3 -11 8 0 13 -175 85 -232 96 -23 4 -42 15 -49 28 -8 16 -8 19 1 13 9 -5
10 -2 3 11 -5 11 -8 30 -6 44 2 14 3 34 3 45 -1 11 -1 32 -1 48 1 15 1 34 1
42 0 56 0 107 0 118 0 6 -1 23 -3 37 -2 14 1 31 6 38 6 7 6 12 0 12 -10 0 -10
60 1 78 4 7 3 12 -1 12 -10 0 -10 61 1 78 4 7 3 12 -1 12 -5 0 -8 19 -6 43 2
23 3 48 3 55 0 15 0 98 0 115 0 6 -1 23 -3 37 -2 14 1 31 6 38 6 7 6 12 0 12
-10 0 -10 60 1 78 4 7 3 12 -1 12 -10 0 -10 61 1 78 4 7 3 12 -1 12 -5 0 -8
19 -6 43 2 23 3 48 3 55 0 15 0 98 0 115 0 6 -1 23 -3 37 -2 14 1 31 6 38 6 7
6 12 0 12 -10 0 -10 60 1 78 4 7 3 12 -1 12 -10 0 -10 61 1 78 4 7 3 12 -1 12
-5 0 -8 19 -6 43 2 23 3 48 3 55 0 15 0 98 0 115 0 6 -1 23 -3 37 -2 14 1 31
6 38 6 7 6 12 0 12 -10 0 -10 60 1 78 4 7 3 12 -1 12 -10 0 -10 61 1 78 4 7 3
12 -1 12 -5 0 -8 19 -6 43 2 23 3 48 3 55 0 15 0 98 0 115 0 6 -1 23 -3 37 -2
14 1 31 6 38 6 7 6 12 0 12 -10 0 -10 60 1 78 4 7 3 12 -1 12 -10 0 -10 61 1
78 4 7 3 12 -1 12 -5 0 -8 19 -6 43 2 23 3 48 3 55 0 15 0 98 0 115 0 6 -1 23
-3 37 -2 14 1 31 6 38 6 7 6 12 0 12 -10 0 -10 60 1 78 4 7 3 12 -1 12 -10 0
-10 61 1 78 4 7 3 12 -1 12 -5 0 -8 19 -6 43 2 23 3 48 3 55 0 15 0 98 0 115
0 6 -1 23 -3 37 -2 14 1 31 6 38 6 7 6 12 0 12 -10 0 -10 60 1 78 4 7 3 12 -1
12 -10 0 -10 61 1 78 4 7 3 12 -1 12 -5 0 -8 19 -6 43 4 48 4 43 0 117 -1 30
1 61 6 68 6 7 6 12 0 12 -5 0 -8 19 -6 43 4 52 4 56 0 87 -2 14 1 31 6 38 6 7
6 12 0 12 -10 0 -10 60 1 78 4 7 3 12 -1 12 -10 0 -10 61 1 78 4 7 3 12 -1 12
-5 0 -7 26 -6 58 4 73 4 70 0 120 -2 23 1 42 6 42 6 0 6 5 1 13 -11 15 -11 38
-1 55 5 6 4 12 0 12 -10 0 -10 61 1 78 4 7 3 12 -2 12 -10 0 -8 42 4 61 4 7 3
10 -2 6 -12 -7 -11 60 1 70 4 5 5 3 2 -3 -3 -6 3 -20 13 -32 11 -12 20 -25 20
-30 0 -5 11 -22 24 -37 14 -16 23 -32 20 -36 -2 -4 -1 -9 3 -11 11 -4 83 -116
83 -127 0 -5 3 -11 8 -13 4 -2 41 -57 82 -123 41 -66 78 -121 82 -123 5 -2 8
-8 8 -12 0 -9 280 -455 299 -477 6 -7 11 -17 11 -22 0 -5 6 -16 13 -23 7 -7
25 -34 40 -60 15 -26 33 -53 40 -60 6 -7 21 -31 32 -52 11 -22 25 -45 30 -51
6 -6 15 -20 22 -30 57 -96 138 -221 145 -223 4 -2 8 -7 8 -12 0 -7 95 -161
169 -275 42 -65 51 -79 58 -95 4 -8 10 -17 14 -20 9 -7 48 -71 55 -92 4 -10
10 -18 15 -18 5 0 9 -5 9 -12 0 -6 7 -19 16 -29 9 -10 23 -30 32 -46 69 -118
85 -143 93 -143 5 0 9 -5 9 -12 0 -6 22 -46 49 -87 128 -199 161 -251 161
-256 0 -3 5 -11 10 -18 21 -25 60 -88 60 -97 0 -6 4 -10 9 -10 5 0 14 -13 21
-30 7 -16 15 -30 19 -30 3 0 12 -14 19 -30 8 -17 19 -36 26 -43 12 -13 94
-143 111 -177 5 -11 13 -20 17 -20 5 0 8 -5 8 -11 0 -5 27 -51 60 -101 33 -49
60 -92 60 -94 0 -3 23 -38 50 -79 28 -41 50 -78 50 -83 0 -4 8 -17 18 -28 20
-23 38 -50 52 -79 6 -11 32 -54 59 -95 28 -41 69 -106 92 -145 23 -38 45 -72
48 -75 11 -9 71 -111 71 -121 0 -5 4 -9 8 -9 5 0 15 -12 23 -27 8 -16 33 -56
56 -91 24 -35 43 -65 43 -66 0 -2 63 -102 139 -222 l140 -219 -72 -33 c-125
-59 -239 -139 -312 -221 -16 -19 -40 -46 -53 -60 -23 -26 -117 -171 -117 -181
0 -3 -4 -11 -8 -17 -12 -20 -66 -178 -72 -215 -18 -97 -21 -132 -18 -223 3
-91 8 -152 13 -165 1 -3 2 -8 1 -12 -2 -18 54 -180 85 -242 36 -71 92 -159
106 -164 4 -2 8 -8 8 -13 0 -15 170 -179 186 -179 2 0 14 -8 25 -18 27 -26
165 -97 217 -113 23 -7 42 -16 42 -21 0 -5 3 -7 8 -4 4 2 34 -2 67 -10 106
-25 233 -36 253 -21 8 6 12 6 12 -2 0 -7 4 -10 10 -6 5 3 31 7 57 9 58 5 170
30 217 50 19 8 37 12 40 8 3 -3 6 0 6 6 0 7 3 11 8 10 15 -5 139 64 203 112
128 96 221 202 281 320 7 14 17 28 23 32 5 4 6 8 1 8 -4 0 -2 10 6 23 30 45
75 198 84 282 7 57 7 203 0 250 -12 91 -43 211 -63 240 -7 11 -13 25 -13 32 0
14 -87 167 -115 203 -42 52 -173 179 -179 173 -3 -3 -6 -2 -6 4 0 19 -214 143
-248 143 -23 0 -22 21 2 53 14 19 23 37 19 40 -3 4 -1 7 6 7 6 0 16 10 21 23
6 12 32 56 60 97 27 41 57 89 66 107 9 18 22 37 30 44 8 6 14 16 14 21 0 11
42 72 53 76 4 2 5 7 2 12 -2 4 4 15 15 25 11 10 20 22 20 27 0 5 23 42 50 83
28 42 54 83 57 93 4 9 9 19 13 22 6 4 135 206 163 255 7 11 15 22 18 25 3 3 9
12 13 20 11 23 29 52 54 87 12 17 22 36 22 42 0 6 5 11 10 11 6 0 10 6 10 14
0 8 3 16 8 18 4 2 27 35 50 73 24 39 86 138 139 220 52 83 103 162 112 177 9
15 104 165 211 334 263 413 259 407 267 424 4 8 11 20 16 25 4 6 28 42 52 80
24 39 48 75 53 80 4 6 11 17 15 25 3 8 47 78 97 155 50 77 93 147 97 155 4 8
9 17 13 20 3 3 19 28 35 55 16 28 35 56 42 63 7 7 13 19 13 27 0 7 3 15 8 17
10 4 202 307 202 319 0 5 3 9 8 9 4 0 16 17 27 38 11 20 24 42 28 47 13 17
103 159 117 184 7 14 17 30 22 35 15 18 178 278 178 285 0 3 11 19 25 35 14
16 25 35 25 43 0 7 4 13 9 13 5 0 14 14 21 30 7 17 16 30 21 30 5 0 9 6 9 13
0 7 9 23 19 34 11 12 18 23 15 26 -2 2 2 10 11 17 8 7 15 17 15 22 0 5 5 14
11 21 5 7 36 53 67 102 32 50 75 118 97 152 22 34 42 58 45 53 3 -4 3 -47 0
-94 -3 -47 -1 -86 3 -86 4 0 3 -9 -3 -21 -8 -14 -8 -24 -1 -33 6 -7 8 -15 5
-19 -9 -9 -10 -407 -1 -407 4 0 3 -9 -3 -21 -8 -14 -8 -24 -1 -33 6 -7 8 -15
5 -19 -9 -9 -10 -407 -1 -407 4 0 3 -9 -3 -21 -8 -14 -8 -24 -1 -33 6 -7 8
-15 5 -19 -9 -9 -10 -407 -1 -407 4 0 3 -9 -3 -21 -8 -14 -8 -24 -1 -33 6 -7
8 -15 5 -19 -9 -9 -10 -407 -1 -407 4 0 3 -9 -3 -21 -8 -14 -8 -24 -1 -33 6
-7 8 -15 5 -18 -4 -5 -8 -2293 -3 -2308 1 -3 0 -9 -1 -15 -1 -5 -2 -31 -1 -57
1 -42 -2 -48 -19 -48 -72 0 -336 -126 -377 -179 -7 -9 -13 -12 -13 -7 -1 24
-230 -234 -230 -260 0 -3 -9 -19 -21 -35 -11 -16 -22 -36 -23 -43 -1 -8 -8
-21 -15 -30 -7 -9 -10 -16 -6 -16 4 0 3 -6 -2 -12 -11 -14 -47 -123 -58 -178
-16 -75 -25 -239 -14 -246 5 -3 4 -15 -1 -28 -5 -13 -7 -26 -4 -29 3 -2 7 -17
10 -33 12 -75 36 -169 50 -195 8 -16 12 -29 8 -29 -4 0 -1 -7 6 -15 7 -8 9
-15 4 -15 -5 0 -4 -4 1 -8 6 -4 21 -29 35 -57 50 -103 167 -243 260 -313 19
-15 37 -29 40 -33 3 -3 12 -9 20 -12 8 -4 29 -16 45 -27 40 -26 151 -79 184
-86 14 -4 31 -9 36 -13 6 -3 19 -7 30 -9 11 -2 25 -5 30 -6 46 -12 66 -16 108
-20 27 -2 51 -6 53 -9 3 -3 21 -1 40 3 18 4 34 4 34 -1 0 -4 6 -6 13 -4 6 2
37 6 67 9 175 15 397 101 496 191 7 5 24 19 39 30 60 43 144 137 200 225 86
134 139 281 149 416 2 23 5 46 8 50 3 9 2 149 -2 149 -1 0 -4 16 -6 35 -12 99
-16 116 -46 205 -33 97 -124 262 -150 273 -4 2 -8 8 -8 13 0 18 -169 178 -216
205 -10 6 -30 17 -44 25 -14 8 -27 17 -30 20 -11 12 -110 54 -190 80 -74 24
-85 31 -92 55 -4 15 -3 35 2 45 7 12 7 20 0 24 -6 4 -7 12 -1 22 4 9 5 30 1
47 -9 43 -9 49 1 68 5 9 5 19 1 22 -4 2 -5 32 -2 66 3 33 4 63 1 66 -4 4 -5
88 -1 109 1 6 2 15 0 20 -4 25 -2 114 4 124 4 5 2 12 -4 16 -7 4 -7 12 0 24 5
10 7 21 4 23 -8 8 -9 162 -1 175 4 6 4 14 -1 17 -4 2 -5 32 -2 66 3 33 4 63 1
66 -4 4 -5 88 -1 109 1 6 2 15 0 20 -4 25 -2 114 4 124 4 5 2 12 -4 16 -7 4
-7 12 0 24 5 10 8 20 5 22 -8 9 -11 89 -3 89 5 0 4 8 -1 18 -6 10 -6 24 -1 32
5 8 6 18 4 22 -5 7 -8 252 -4 273 1 6 2 15 0 20 -4 25 -2 114 4 124 4 5 2 12
-4 16 -7 4 -7 12 0 24 5 10 7 21 4 24 -5 5 -8 161 -4 182 1 6 2 15 1 20 -3 14
-3 138 -1 150 1 6 2 15 0 20 -2 13 -2 117 0 130 1 6 2 15 1 20 -3 14 -3 138
-1 150 1 6 2 15 1 20 -3 14 -3 209 0 221 1 5 1 14 -1 19 -4 25 -2 114 4 124 4
5 2 12 -4 16 -7 4 -7 12 0 24 5 10 7 21 4 24 -5 4 -8 250 -4 272 1 6 2 15 0
20 -4 25 -2 114 4 124 4 5 2 12 -4 16 -7 4 -7 12 0 24 5 10 7 21 4 24 -5 4 -8
250 -4 272 1 6 2 15 1 20 -3 14 -3 199 0 211 1 5 1 14 0 19 -3 14 -3 138 -1
150 1 6 2 15 0 20 -2 13 -2 117 0 130 1 6 2 15 1 20 -3 14 -3 138 -1 150 1 6
2 12 0 15 -6 16 -4 108 2 122 5 9 4 19 0 22 -4 2 -5 32 -2 66 3 33 4 63 1 66
-4 4 -5 88 -1 109 1 6 2 12 1 15 -1 3 -3 31 -4 63 -2 55 -1 57 28 67 17 5 40
11 52 13 12 2 26 6 29 10 4 4 14 7 22 7 24 0 176 75 243 121 182 122 355 366
395 554 2 11 6 31 10 45 28 119 23 372 -8 460 -3 8 -11 35 -18 59 -11 43 -113
250 -128 261 -4 3 -20 22 -36 43 -41 55 -146 154 -213 200 -81 55 -233 128
-278 133 -5 0 -17 4 -25 7 -36 13 -156 29 -240 31 -73 2 -161 -7 -225 -23 -3
0 -7 -2 -10 -2 -3 -1 -13 -2 -22 -4 -10 -1 -27 -5 -38 -9 -107 -39 -132 -49
-145 -57 -8 -5 -25 -13 -37 -19 -23 -10 -104 -60 -113 -70 -3 -4 -23 -19 -44
-36 -47 -35 -95 -82 -145 -144 -20 -25 -38 -47 -41 -50 -16 -16 -113 -200
-105 -200 3 0 -1 -10 -9 -22 -8 -13 -18 -40 -21 -60 -4 -21 -11 -38 -17 -38
-5 0 -7 -4 -3 -9 3 -5 0 -31 -6 -58 -15 -63 -20 -256 -8 -318 5 -28 11 -60 14
-73 4 -24 22 -85 32 -112 4 -8 6 -18 5 -21 -2 -12 72 -152 113 -213 73 -110
259 -278 333 -300 12 -4 22 -11 22 -15 0 -4 23 -15 50 -25 51 -18 73 -37 52
-44 -7 -2 -12 -8 -12 -12 0 -8 -78 -139 -90 -150 -10 -9 -31 -45 -36 -62 -4
-10 -10 -18 -14 -18 -4 0 -11 -8 -14 -17 -7 -19 -12 -27 -69 -115 -20 -31 -37
-62 -37 -68 0 -5 -4 -10 -8 -10 -5 0 -19 -19 -32 -42 -13 -24 -26 -45 -29 -48
-4 -3 -24 -34 -45 -70 -22 -36 -43 -67 -47 -70 -4 -3 -13 -17 -18 -30 -10 -22
-108 -180 -128 -205 -21 -26 -143 -228 -143 -236 0 -5 -5 -9 -10 -9 -6 0 -15
-11 -20 -25 -5 -14 -14 -31 -20 -38 -8 -9 -121 -187 -187 -293 -68 -110 -139
-220 -144 -224 -3 -3 -9 -15 -13 -27 -4 -13 -12 -23 -17 -23 -5 0 -9 -7 -9
-15 0 -8 -4 -15 -10 -15 -5 0 -10 -7 -10 -15 0 -8 -5 -15 -11 -15 -5 0 -8 -4
-5 -9 3 -5 -1 -14 -9 -21 -8 -6 -35 -46 -60 -88 -25 -43 -81 -133 -125 -200
-44 -68 -80 -128 -80 -133 0 -5 -4 -9 -9 -9 -5 0 -13 -10 -17 -22 -3 -12 -11
-26 -16 -32 -13 -15 -98 -147 -98 -152 0 -2 -16 -27 -35 -54 -19 -27 -35 -52
-35 -55 0 -5 -114 -182 -129 -201 -4 -5 -14 -21 -21 -35 -16 -29 -106 -170
-118 -184 -5 -6 -11 -15 -13 -21 -3 -8 -70 -115 -151 -242 -10 -15 -21 -34
-25 -42 -3 -8 -9 -17 -13 -20 -3 -3 -36 -52 -72 -110 -36 -58 -114 -181 -174
-275 -59 -93 -124 -196 -143 -227 -20 -32 -72 -114 -116 -183 -109 -171 -106
-167 -139 -222 -16 -26 -36 -54 -43 -61 -7 -7 -13 -17 -13 -22 0 -8 -59 -102
-80 -127 -6 -7 -10 -16 -10 -21 0 -4 -8 -17 -17 -28 -10 -11 -24 -30 -30 -42
-7 -12 -19 -32 -25 -44 -7 -12 -17 -27 -21 -32 -20 -27 -94 -144 -100 -159
-12 -32 -19 -26 -78 68 -18 28 -51 80 -75 117 -24 37 -44 70 -44 73 0 3 -5 11
-10 18 -6 7 -37 55 -70 107 -33 52 -64 100 -70 107 -5 7 -10 14 -10 17 0 2
-22 39 -50 80 -27 42 -50 80 -50 86 0 5 -4 10 -10 10 -5 0 -10 6 -10 13 0 7
-9 23 -20 35 -11 12 -20 24 -20 27 0 3 -18 33 -40 66 -22 33 -40 62 -40 65 0
2 -18 30 -40 61 -22 32 -40 64 -40 71 0 6 -4 12 -8 12 -5 0 -15 12 -23 28 -8
15 -31 52 -51 82 -21 30 -38 60 -38 67 0 6 -3 13 -8 15 -4 2 -39 53 -77 113
-93 148 -113 178 -125 192 -5 7 -10 15 -10 18 0 3 -20 36 -43 73 -123 190
-157 244 -202 317 -27 44 -53 82 -57 83 -5 2 -8 7 -8 12 0 11 -173 284 -182
288 -5 2 -8 8 -8 14 0 5 -20 40 -44 76 -86 131 -136 213 -136 221 0 5 -3 11
-8 13 -6 2 -31 41 -117 179 -5 9 -22 34 -36 55 -14 21 -34 55 -45 74 -10 19
-27 43 -36 54 -10 11 -18 25 -18 32 0 7 -3 14 -8 16 -8 3 -112 165 -112 174 0
3 -5 10 -10 17 -27 32 -110 163 -110 175 0 6 -4 12 -10 12 -5 0 -10 7 -10 15
0 8 -4 15 -10 15 -5 0 -10 7 -10 15 0 8 -4 15 -10 15 -5 0 -10 6 -10 13 0 7
-8 22 -18 33 -9 10 -23 30 -29 44 -13 26 -32 56 -46 74 -5 6 -66 103 -137 216
-71 113 -133 210 -139 217 -6 7 -11 15 -11 18 0 3 -28 49 -63 103 -86 132
-228 356 -251 395 -10 18 -21 34 -25 37 -4 3 -10 13 -14 22 -3 10 -29 51 -57
93 -27 41 -50 79 -50 85 0 5 -4 10 -10 10 -5 0 -10 5 -10 11 0 6 -9 22 -20 36
-26 33 -25 40 3 49 29 8 129 55 142 66 5 5 33 23 60 40 28 18 74 55 104 83 70
66 66 61 127 140 39 51 106 165 96 165 -4 0 -2 4 4 8 13 9 65 157 80 228 20
102 17 328 -5 388 -6 14 -8 26 -6 26 7 0 -42 135 -71 198 -63 138 -228 330
-327 381 -15 8 -27 18 -27 23 0 4 -5 8 -11 8 -6 0 -23 8 -37 18 -42 28 -216
99 -233 94 -4 -1 -22 3 -40 9 -19 5 -48 12 -65 15 -37 6 -212 13 -217 8z"/>
<path d="M19335 18324 c-44 -7 -87 -15 -95 -17 -55 -14 -106 -30 -115 -37 -5
-5 -13 -8 -18 -9 -16 0 -77 -25 -77 -31 0 -4 -16 -12 -35 -20 -19 -8 -35 -17
-35 -22 0 -4 -5 -8 -11 -8 -21 0 -229 -178 -229 -196 0 -3 -14 -22 -45 -58
-18 -21 -95 -156 -100 -176 -1 -3 -9 -21 -17 -40 -9 -19 -14 -38 -12 -42 3 -5
1 -8 -4 -8 -5 0 -9 -6 -9 -12 0 -7 -6 -33 -12 -58 -7 -25 -14 -56 -17 -70 -9
-46 -12 -270 -3 -308 4 -20 10 -48 12 -62 13 -72 71 -238 87 -250 4 -3 17 -24
28 -46 31 -60 130 -182 191 -234 29 -25 59 -51 66 -57 8 -7 16 -13 18 -13 3 0
27 -15 55 -33 57 -39 195 -99 267 -116 l50 -12 -1 -2552 c-1 -1404 -2 -2558
-3 -2564 0 -7 -8 -13 -16 -13 -54 0 -288 -103 -348 -153 -14 -12 -37 -31 -51
-41 -36 -26 -116 -105 -146 -145 -14 -18 -31 -39 -37 -46 -7 -8 -13 -19 -13
-25 0 -6 -7 -13 -15 -16 -8 -4 -13 -10 -10 -14 3 -4 -3 -18 -13 -31 -19 -25
-46 -83 -40 -85 1 0 -3 -8 -9 -16 -15 -18 -46 -117 -69 -223 -3 -11 -7 -69 -9
-130 -4 -111 12 -245 39 -320 38 -105 60 -161 66 -165 4 -3 17 -25 31 -50 13
-25 42 -67 64 -95 55 -69 194 -205 210 -205 2 0 23 -13 47 -29 37 -25 114 -64
183 -92 50 -21 179 -50 240 -54 36 -2 70 -7 75 -10 6 -4 10 -1 10 6 0 8 3 9
13 0 8 -6 16 -9 18 -7 2 3 36 7 74 10 92 8 115 12 210 43 108 34 219 92 310
163 49 37 164 161 200 215 58 86 146 275 128 275 -3 0 -1 6 5 13 6 6 11 15 11
20 1 4 1 8 2 10 22 71 31 288 17 382 -28 180 -105 352 -215 486 -35 41 -115
119 -124 119 -5 0 -9 4 -9 8 0 11 -101 80 -165 114 -56 29 -159 69 -220 86
l-41 12 1 657 c0 370 4 664 9 672 6 9 5 12 0 8 -13 -7 -12 1253 0 1272 6 9 5
12 0 8 -13 -7 -12 1253 0 1272 6 9 5 12 0 8 -6 -3 -10 224 -10 606 l1 612 54
17 c30 9 58 15 63 12 4 -3 8 -2 8 3 0 4 28 19 62 32 64 25 148 73 182 104 11
9 23 17 27 17 4 0 41 33 82 73 78 75 167 189 167 213 0 8 4 14 9 14 9 0 78
152 84 187 2 10 7 25 10 33 6 15 10 34 24 115 12 66 6 327 -7 343 -2 1 -3 5
-4 10 -45 200 -134 358 -283 506 -38 38 -71 66 -79 66 -2 0 -17 11 -31 25 -31
28 -213 121 -258 131 -16 4 -34 9 -40 13 -5 3 -19 6 -30 8 -11 1 -27 4 -35 6
-88 23 -238 28 -345 11z"/>
<path d="M22837 11284 c-1 -1 -22 -5 -47 -9 -193 -27 -392 -129 -539 -276 -59
-58 -121 -134 -121 -148 0 -6 -3 -11 -7 -11 -5 0 -13 -10 -19 -23 -6 -12 -25
-50 -43 -85 -18 -35 -34 -69 -35 -75 -1 -7 -5 -17 -9 -23 -19 -31 -49 -200
-53 -296 -2 -59 -5 -111 -5 -115 -1 -5 0 -15 3 -23 5 -15 34 -150 42 -199 3
-13 8 -27 13 -30 4 -3 10 -15 11 -26 12 -68 126 -242 221 -336 83 -82 221
-181 271 -193 3 -1 14 -7 25 -13 37 -20 178 -64 191 -59 7 3 14 1 16 -4 2 -5
34 -12 72 -15 38 -3 72 -8 77 -10 4 -3 11 -1 14 5 4 7 12 7 18 2 7 -4 21 -7
32 -6 122 10 168 17 215 30 73 20 71 20 100 31 14 6 28 9 33 6 4 -2 7 1 7 6 0
6 7 11 16 11 14 0 164 84 199 111 56 45 139 127 186 186 65 82 156 253 163
308 1 6 4 15 8 20 3 6 9 31 13 55 3 25 10 59 14 75 19 76 13 242 -15 372 -3
16 -8 40 -11 56 -3 15 -9 30 -14 33 -5 3 -9 12 -9 20 0 15 -58 140 -82 179
-104 162 -251 297 -403 369 -78 37 -185 75 -232 82 -21 3 -47 8 -58 11 -18 6
-253 12 -258 7z"/>
<path d="M26300 11279 c0 -4 -8 -6 -17 -5 -24 4 -136 -22 -200 -46 -29 -11
-54 -18 -56 -16 -2 2 -10 -2 -18 -9 -8 -6 -34 -22 -59 -35 -59 -32 -94 -52
-100 -58 -3 -3 -34 -30 -70 -60 -77 -65 -85 -73 -154 -165 -70 -92 -131 -220
-162 -341 -37 -142 -38 -342 -2 -479 6 -22 11 -44 13 -50 1 -5 7 -23 13 -38 7
-16 12 -31 12 -34 0 -16 59 -126 102 -190 59 -89 188 -221 246 -252 11 -6 26
-17 34 -24 22 -22 180 -95 248 -115 99 -30 271 -53 310 -42 3 1 30 3 60 5 327
20 643 234 798 541 32 63 70 180 86 263 13 68 15 298 3 341 -2 8 -7 29 -11 45
-20 86 -56 179 -99 260 -27 50 -53 92 -58 93 -5 2 -9 8 -9 13 0 15 -99 121
-166 179 -110 94 -298 185 -429 206 -11 2 -38 6 -60 10 -56 9 -255 12 -255 3z"/>
</g>
</svg>
