<svg xmlns="http://www.w3.org/2000/svg" viewBox="0 0 350 200">
  <defs>
    <style>.cls-1{fill:none;}.cls-2{fill:#bbbcc1;}.cls-3{fill:#221e1f;}.cls-4{fill:#fdd34f;}</style>
  </defs>
  <title>IETF-Logo</title>
  <g id="Layer_2" data-name="Layer 2">
    <g id="svg2"><rect class="cls-1" width="350" height="200"/>
      <path id="path6" class="cls-2" d="M122.57,20.48h.07C129.42,27.26,136.23,34,143,40.84c-3,3.11-6.15,6.16-9.21,9.24L122.68,61.17a.57.57,0,0,0-.34-.18c-.78-.68-1.48-1.46-2.22-2.18L102.3,41c-.17-.12,0-.28.08-.38q7.94-7.9,15.84-15.84C119.72,23.39,121.12,21.91,122.57,20.48Z"/>
      <path id="path8" class="cls-2" d="M170.54,20.48h.06C175.44,25.2,180.19,30,185,34.81c1.91,1.93,3.88,3.8,5.74,5.78L170.35,61a10.44,10.44,0,0,1-.77-.71c-6.39-6.34-12.72-12.73-19.1-19.07-.09-.12-.33-.27-.18-.44C157,34,163.81,27.25,170.54,20.48Z"/>
      <path id="path10" class="cls-2" d="M218.57,20.48h.07q8.63,8.64,17.27,17.26c1,1,2,1.92,2.9,3-6.69,6.69-13.4,13.36-20.06,20.08-1.65-1.54-3.19-3.18-4.8-4.75l-15.39-15.4a2.65,2.65,0,0,1,.77-.93Z"/>
      <path id="path12" class="cls-2" d="M50.25,44.45c.14-.2.32,0,.44.11,4.33,4.37,8.72,8.7,13.08,13.06,1.4,1.44,2.87,2.8,4.23,4.28H34.75c0-.52,0-1,0-1.55l-.29,0a7,7,0,0,1,.82-.9Z"/>
      <path id="path14" class="cls-2" d="M98.2,44.47c.12-.17.34-.09.45.05q10,10,20.09,20.09Q108.66,74.69,98.57,84.77,88.4,74.55,78.19,64.37l.28-.17Q88.33,54.33,98.2,44.47Z"/>
      <path id="path16" class="cls-2" d="M145.75,45c.22-.2.39-.49.68-.59a3.06,3.06,0,0,1,.69.61l11.66,11.65c2.63,2.67,5.32,5.27,7.92,8q-10.14,10.14-20.28,20.27c-3.58-3.55-7.13-7.13-10.7-10.69-3.16-3.19-6.38-6.3-9.53-9.49a1,1,0,0,1,.25-.45C132.89,57.82,139.3,51.37,145.75,45Z"/>
      <path id="path18" class="cls-2" d="M274.25,60.78c5.51-5.49,11-11,16.52-16.48L304.6,58.12c.72.76,1.52,1.45,2.2,2.25-.39,0-.78,0-1.16,0,0,.59,0,1.19,0,1.78-10.88,0-21.77,0-32.66,0C273.35,61.65,273.81,61.23,274.25,60.78Z"/>
      <path id="path20" class="cls-2" d="M194.35,45c.12-.21.29,0,.39.1L214.56,65c-6.66,6.74-13.41,13.4-20.09,20.13a23.82,23.82,0,0,1-1.78-1.7L177.21,67.89c-.94-1-2-1.86-2.83-2.89Q184.37,55,194.35,45Z"/>
      <path id="path22" class="cls-2" d="M236.48,50.85c2-2,4-4,6-5.93.62.5,1.14,1.13,1.72,1.68L262.55,65q-9.65,9.69-19.33,19.35a3.93,3.93,0,0,1-.87.76c-1.1-1.18-2.27-2.29-3.4-3.44-5.54-5.56-11.11-11.08-16.64-16.66C227,60.28,231.74,55.55,236.48,50.85Z"/>
      <path id="path24" class="cls-2" d="M34.75,67.4H68a3.58,3.58,0,0,1-.47.56L54.32,81.18c-1.32,1.3-2.6,2.66-4,3.92-4.8-4.84-9.64-9.64-14.45-14.47a11.2,11.2,0,0,1-1.16-1.23C34.77,68.73,34.75,68.07,34.75,67.4Z"/>
      <path id="path26" class="cls-2" d="M273.51,67.78h32.12v1.61h.73a8.79,8.79,0,0,1-1.1,1.18l-9.47,9.47c-1.7,1.67-3.34,3.41-5.09,5q-7.63-7.65-15.3-15.3A21.1,21.1,0,0,1,273.51,67.78Z"/>
      <path id="path28" class="cls-2" d="M218.48,68.84l.27-.29c2.73,2.76,5.52,5.46,8.26,8.21,4,4,8,8,12,12-.88,1.07-2,1.94-2.94,2.94l-12.37,12.38c-1.72,1.68-3.38,3.44-5.13,5.08Q211,101.61,203.39,94c-1.74-1.72-3.43-3.49-5.21-5.17.92-1.08,2-2,3-3,5.72-5.7,11.41-11.43,17.14-17.12Z"/>
      <path id="path30" class="cls-2" d="M150.39,89q10.19-10.17,20.36-20.36c1,.82,1.83,1.8,2.76,2.68L191,88.79Q180.81,99,170.6,109.19c-1.86-1.79-3.65-3.65-5.48-5.45C160.21,98.82,155.29,93.92,150.39,89Z"/>
      <path id="path32" class="cls-2" d="M102.42,89l20.15-20.15L142.75,89q-8.43,8.46-16.89,16.9c-1.11,1.07-2.15,2.22-3.29,3.25-5.48-5.43-10.91-10.91-16.37-16.35C105,91.54,103.63,90.32,102.42,89Z"/>
      <path id="path35" class="cls-3" d="M194.58,36.7c1.36,1.28,2.65,2.64,4,3.94L214,56c1.61,1.57,3.15,3.21,4.8,4.75,6.66-6.72,13.37-13.39,20.06-20.08,1.26-1.24,2.49-2.51,3.76-3.74,8.4,8.39,16.79,16.81,25.22,25.17,1.72,0,3.44,0,5.16,0,10.89,0,21.78,0,32.66,0,0-.59,0-1.19,0-1.78.38,0,.77,0,1.16,0,2.86,0,5.72,0,8.59,0v9c-3,0-6,0-9,0h-.73V67.78H273.51c-2.72,0-5.44,0-8.16,0-.93-.93-1.86-1.87-2.8-2.8L244.16,46.6c-.58-.55-1.1-1.18-1.72-1.68-2,1.95-4,4-6,5.93-4.74,4.7-9.44,9.43-14.17,14.14l-3.56,3.56-.27.29-.18-.16L214.56,65,194.74,45.12c-.1-.1-.27-.31-.39-.1q-10,10-20,20-1.83,1.8-3.63,3.63Q160.57,78.82,150.39,89c-1.29,1.27-2.55,2.56-3.84,3.82L142.75,89,122.57,68.85,102.42,89c-1.25,1.22-2.46,2.48-3.72,3.69Q86.07,80,73.44,67.41c-1.81,0-3.62,0-5.43,0H34.75c0,.67,0,1.33,0,2-3.25,0-6.5,0-9.75,0v-9h8.34a5.76,5.76,0,0,0,1.1,0l.29,0c.05.52,0,1,0,1.55h41c.82.83,1.65,1.64,2.47,2.47q10.2,10.18,20.38,20.4,10.09-10.06,20.17-20.16c1.2-1.21,2.42-2.39,3.6-3.62a.57.57,0,0,1,.34.18c1.16,1.19,2.34,2.35,3.51,3.52,3.15,3.19,6.37,6.3,9.53,9.49,3.57,3.56,7.12,7.14,10.7,10.69Q156.57,74.76,166.7,64.6L170.35,61l20.37-20.37c1.29-1.29,2.6-2.57,3.86-3.89m0,1.31c-1.76,1.84-3.59,3.6-5.38,5.42Q167.8,64.79,146.41,86.18q-12-12-24-24Q110.52,74.12,98.6,86.07c-2.47-2.41-4.88-4.88-7.33-7.31L78.48,66c-1.08-1.06-2.11-2.16-3.22-3.17-13.49,0-27,0-40.49,0,0,1.23,0,2.46,0,3.69,12.77,0,25.54,0,38.31,0,.27,0,.61-.1.83.1L98.72,91.4q11.86-11.9,23.76-23.76l.15,0L136.7,81.67c3.26,3.28,6.57,6.52,9.79,9.83a4.33,4.33,0,0,0,.75-.67q23.63-23.62,47.26-47.25c8,8,16,16,24,24,2.17-2.27,4.46-4.43,6.67-6.67l17.2-17.2c.33-.11.51.42.78.58q11.31,11.3,22.62,22.61,19.94,0,39.88,0V63H267.34c-7.58-7.65-15.24-15.22-22.85-22.83-.67-.63-1.27-1.35-2-1.93a9.69,9.69,0,0,1-.94,1c-7.59,7.62-15.22,15.2-22.79,22.82a2,2,0,0,1-.61-.5L199.72,43.11C198,41.42,196.33,39.67,194.57,38Z"/>
      <path id="path37" class="cls-3" d="M314.31,148.78A5.54,5.54,0,0,1,325,150.16v1.19A5.55,5.55,0,0,1,315,154a5.52,5.52,0,0,1-.72-5.21m4.26-2.38a4.42,4.42,0,1,0,4.4,7,4.42,4.42,0,0,0-4.4-7Z"/>
      <path id="path39" class="cls-3" d="M33.51,145.56h12q0,17,0,34h-12Q33.53,162.54,33.51,145.56Z"/>
      <path id="path41" class="cls-3" d="M107.39,145.55h25.48c0,2.41,0,4.82,0,7.22-4.51,0-9,0-13.53,0,0,2,0,4,0,5.94,4.14,0,8.27,0,12.41,0v7.17h-12.4c0,2.15,0,4.3,0,6.45,4.59,0,9.18,0,13.76,0,0,2.39,0,4.78,0,7.17H107.39Q107.38,162.54,107.39,145.55Z"/>
      <path id="path43" class="cls-3" d="M191.5,145.56h33.19c0,2.86,0,5.71,0,8.56H214.05q0,12.7,0,25.41H202.14c0-8.47,0-16.94,0-25.41H191.51C191.5,151.26,191.51,148.41,191.5,145.56Z"/>
      <path id="path45" class="cls-3" d="M284.25,145.55H309.1c0,2.4,0,4.81,0,7.22q-6.45,0-12.89,0,0,3,0,6.1h12.13v7.21c-4.05,0-8.09,0-12.13,0,0,4.47,0,9,0,13.42H284.25Z"/>
      <path id="path47" class="cls-3" d="M317,147.78h3.08a1.63,1.63,0,0,1,1.63,2.2A1.54,1.54,0,0,1,320.2,151c.66.3,1,1,1.32,1.57.2.36.44.7.61,1.08h-1.51a7.69,7.69,0,0,0-1.39-2.19,1.43,1.43,0,0,0-1-.21c0,.8,0,1.6,0,2.4a10.26,10.26,0,0,1-1.24,0c0-2,0-3.92,0-5.88m1.25.95c0,.52,0,1,0,1.56a5.58,5.58,0,0,0,1.87-.14.72.72,0,0,0,.07-1.25A5.39,5.39,0,0,0,318.23,148.73Z"/>
      <path id="path50" class="cls-4" d="M194.57,38c1.76,1.66,3.43,3.41,5.15,5.1l18.45,18.46a2,2,0,0,0,.61.5c7.57-7.62,15.2-15.2,22.79-22.82a9.69,9.69,0,0,0,.94-1c.71.58,1.31,1.3,2,1.93,7.61,7.61,15.27,15.18,22.85,22.83h38.29v3.83q-19.94,0-39.88,0-11.33-11.3-22.62-22.61c-.27-.16-.45-.69-.78-.58l-17.2,17.2c-2.21,2.24-4.5,4.4-6.67,6.67-8-8-16-16-24-24q-23.66,23.61-47.26,47.25a4.33,4.33,0,0,1-.75.67c-3.22-3.31-6.53-6.55-9.79-9.83L122.63,67.6l-.15,0Q110.6,79.51,98.72,91.4L73.89,66.58c-.22-.2-.56-.06-.83-.1-12.77,0-25.54,0-38.31,0,0-1.23,0-2.46,0-3.69,13.5,0,27,0,40.49,0,1.11,1,2.14,2.11,3.22,3.17L91.27,78.76c2.45,2.43,4.86,4.9,7.33,7.31q11.93-11.94,23.86-23.85,12,12,24,24,21.43-21.34,42.78-42.75C191,41.61,192.81,39.85,194.57,38Z"/>
    </g>
  </g>
</svg>