<?xml version="1.0" encoding="UTF-8" standalone="no"?>
<!DOCTYPE svg PUBLIC "-//W3C//DTD SVG 1.1//EN"
 "http://www.w3.org/Graphics/SVG/1.1/DTD/svg11.dtd">
<!-- Generated by graphviz version 2.43.0 (0)
 -->
<!-- Title: G Pages: 1 -->
<svg width="479pt" height="45pt"
 viewBox="0.00 0.00 479.00 45.00" xmlns="http://www.w3.org/2000/svg" xmlns:xlink="http://www.w3.org/1999/xlink">
<g id="graph0" class="graph" transform="scale(1 1) rotate(0) translate(4 41)">
<title>G</title>
<polygon fill="white" stroke="transparent" points="-4,4 -4,-41 475,-41 475,4 -4,4"/>
<!-- A -->
<g id="node1" class="node">
<title>A</title>
<text text-anchor="middle" x="82" y="-14.8" font-family="Times,serif" font-size="14.00">Physical Phenomena</text>
</g>
<!-- B -->
<g id="node2" class="node">
<title>B</title>
<polygon fill="none" stroke="black" points="200,-0.5 200,-36.5 310,-36.5 310,-0.5 200,-0.5"/>
<text text-anchor="middle" x="255" y="-14.8" font-family="Times,serif" font-size="14.00">Transduction</text>
</g>
<!-- A&#45;&gt;B -->
<g id="edge1" class="edge">
<title>A&#45;&gt;B</title>
<path fill="none" stroke="black" d="M164.24,-18.5C172.82,-18.5 181.45,-18.5 189.8,-18.5"/>
<polygon fill="black" stroke="black" points="189.81,-22 199.81,-18.5 189.81,-15 189.81,-22"/>
</g>
<!-- C -->
<g id="node3" class="node">
<title>C</title>
<text text-anchor="middle" x="408.5" y="-14.8" font-family="Times,serif" font-size="14.00">Neural Activity</text>
</g>
<!-- B&#45;&gt;C -->
<g id="edge2" class="edge">
<title>B&#45;&gt;C</title>
<path fill="none" stroke="black" d="M310.27,-18.5C318.57,-18.5 327.24,-18.5 335.84,-18.5"/>
<polygon fill="black" stroke="black" points="335.89,-22 345.89,-18.5 335.89,-15 335.89,-22"/>
</g>
</g>
</svg>
