<svg xmlns="http://www.w3.org/2000/svg" style="max-width:40rem" viewBox="0 0 612 239">
  <path fill="#003a70" d="M52.28 148.26 46.81 134h-27.7l-5.35 14.27H5.08L30 87.63h6l25 60.63Zm-30.8-20.45h23L33 97.49ZM82.58 141h35.54v7.25H74.73V87.73h7.85Zm49.31-53.27h23.54c13.8 0 18.67 5.47 18.67 15.46 0 4.64-2.5 9.69-6.06 11.6 5.58 2.25 8.91 9.1 8.91 15.52 0 10.22-4.75 17.95-19.49 17.95h-25.57Zm25.21 24.08c7.73 0 9-3.75 9-8.62s-1.42-8.2-9.74-8.2h-16.62v16.82Zm-.24 7.26h-17.12V141h17.12c9.87 0 11.65-4.88 11.65-10.7s-1.78-11.23-11.65-11.23Zm75.33 1.78H200.8V141h35.55v7.25H193V87.73h43.39V95H200.8v18.6h31.39Zm29.55 2.79v24.62h-7.85V87.73h25.45c14.74 0 19.61 7.73 19.61 18 0 8-3 14.38-11.17 16.88l14.15 25.69h-9.28l-12.72-24.62Zm28.77-18c0-5.71-2.14-10.7-12-10.7h-16.77v21.4h16.76c9.87.05 12.01-4.95 12.01-10.65ZM338.14 95v53.27h-8.45V95h-19.85v-7.27H358V95Zm67.15 53.26L399.82 134h-27.7l-5.35 14.27h-8.68l25-60.63H389l25 60.63Zm-30.79-20.45h22.95L386 97.49Z"/>
  <path fill="#00abd9" d="M494.47 27.76a15.66 15.66 0 0 0 1.65 12l59.12 100.64a15.87 15.87 0 0 0 13.66 7.8h.1a15.83 15.83 0 0 0 7.89-2.18l.53-.31a15.82 15.82 0 0 0 5.58-21.63L523.91 23.41a15.71 15.71 0 0 0-9.65-7.28 15.92 15.92 0 0 0-4-.52 15.7 15.7 0 0 0-7.94 2.17l-.55.32a15.69 15.69 0 0 0-7.3 9.66Zm7.78 2a7.67 7.67 0 0 1 3.56-4.76l.55-.32a7.53 7.53 0 0 1 3.85-1.06 7.78 7.78 0 0 1 6.79 3.86l59.1 100.67a7.79 7.79 0 0 1-2.76 10.63l-.54.32a7.8 7.8 0 0 1-10.63-2.76L503.05 35.66a7.74 7.74 0 0 1-.8-5.88Z"/>
  <path fill="#00b189" d="m496.16 23.57-59.05 100.34a16.15 16.15 0 0 0 13.79 24.35 16.22 16.22 0 0 0 14.06-8L524 40a16.16 16.16 0 0 0-27.85-16.39Zm13.93.1h.06a8.11 8.11 0 0 1 6.91 12.2L458 136.21a8 8 0 0 1-5 3.73 7.87 7.87 0 0 1-2 .26 8 8 0 0 1-3.95-1l-.12-.08a8.12 8.12 0 0 1-2.87-11.12l59-100.34a8.13 8.13 0 0 1 7.03-3.99Z"/>
  <path fill="#003a70" d="M510 99.92a131.78 131.78 0 0 0-66.06 17.54 16.3 16.3 0 1 0 16.14 28.26A100.49 100.49 0 0 1 510 132.43h.14A100.62 100.62 0 0 1 560 145.7a16.29 16.29 0 1 0 16.18-28.22 131.75 131.75 0 0 0-66.08-17.56h-.1Zm.3 8.09a123.67 123.67 0 0 1 61.81 16.45l.45.25a8.21 8.21 0 1 1-8.12 14.23l-.36-.23a108.76 108.76 0 0 0-53.87-14.37H510a108.75 108.75 0 0 0-54 14.37l-.37.23a8.21 8.21 0 1 1-8.12-14.24l.46-.24A123.63 123.63 0 0 1 509.78 108ZM74.73 229v-60.58h11.65V229Zm74.99 0-31-38.11.12 38.11H107v-60.58h8.2l31 38.11-.12-38.11h11.77V229Zm71.07 0-31-38.11.12 38.11h-11.8v-60.58h8.2l31 38.11-.12-38.11H229V229Zm51.31 1c-20.57 0-27.7-13.08-27.7-31.27s7.13-31.27 27.7-31.27 27.7 13.08 27.7 31.27S292.78 230 272.1 230Zm0-51.24c-13.08 0-15.81 8.68-15.81 20s2.73 20 15.81 20 15.81-8.68 15.81-20-2.85-20.05-15.81-20.05ZM365.69 168l-25.09 61h-8.32l-25.08-61h13.07l16.17 43 16.17-43Zm42.96 61-5.17-12.93h-23L375.44 229h-13l25.39-61.18h8.42l25.4 61.18Zm-24.18-23.16h15L392.05 186ZM523.21 203h-29.12v14.75h33.05V229h-44.82v-61.12h44.82v11.17h-33.05v12.79h29.12Zm42.02-10.62c17.12 1.55 23.06 6.3 23.06 17.83 0 10.59-6.65 19.74-26.15 19.74-5.95 0-16.76-1.55-20.33-3.09v-11.18c3.92 1.43 12.72 3 20.45 3 10.58 0 14.26-3.1 14.26-8.33 0-4.51-3-6.3-12.36-7.13-17.48-1.55-23.42-5.59-23.42-16.41 0-11.29 6.78-19.38 25-19.38 5.82 0 13.67.48 19.85 3.1v10.93a65 65 0 0 0-20-2.73c-9.87 0-13.32 2.5-13.32 7.49 0 4.26 3.73 5.33 12.96 6.16ZM451.78 179v49.89h-12.25V179h-18.42v-11.18h49.1V179Z"/>
</svg>
