<svg xmlns="http://www.w3.org/2000/svg" width="171" height="29" viewBox="0 0 171 29">
    <g fill="none" fill-rule="evenodd">
        <path fill="#232F3E" fill-rule="nonzero" d="M106.864 14.008c0-.352-.114-.638-.341-.858-.199-.193-.541-.385-1.026-.577l-2.087-.787c-1.628-.601-2.442-1.628-2.442-3.08 0-.953.37-1.723 1.111-2.31.74-.587 1.712-.88 2.915-.88 1.159 0 2.251.235 3.278.704v1.54c-1.144-.367-2.2-.55-3.168-.55-1.408 0-2.112.477-2.112 1.43 0 .381.117.682.352.902.235.22.697.462 1.386.726l1.716.66c.865.337 1.489.737 1.87 1.199.381.462.572 1.06.572 1.793 0 1.041-.389 1.87-1.166 2.486-.777.616-1.811.924-3.102.924-1.452 0-2.713-.279-3.784-.836v-1.54c1.379.455 2.655.682 3.828.682.719 0 1.265-.14 1.639-.418.374-.279.561-.682.561-1.21zm11.99 2.574c-.85.44-1.833.66-2.948.66-1.73 0-3.054-.495-3.971-1.485-.917-.99-1.375-2.424-1.375-4.301 0-1.863.473-3.304 1.419-4.323.946-1.02 2.284-1.529 4.015-1.529.983 0 1.907.205 2.772.616v1.562a8.154 8.154 0 0 0-2.464-.396c-1.232 0-2.12.312-2.662.935-.543.623-.814 1.617-.814 2.981v.286c0 1.335.275 2.314.825 2.937.55.623 1.419.935 2.607.935.792 0 1.657-.147 2.596-.44v1.562zm2.508.418V5.846h2.178V17h-2.178zm1.1-13.134c-.425 0-.759-.121-1.001-.363-.242-.242-.363-.561-.363-.957 0-.396.121-.715.363-.957s.576-.363 1.001-.363c.425 0 .759.121 1.001.363.242.242.363.561.363.957 0 .396-.121.715-.363.957s-.576.363-1.001.363zm5.962 8.03c.03 1.261.341 2.193.935 2.794.594.601 1.514.902 2.761.902 1.159 0 2.34-.227 3.542-.682v1.562c-1.056.572-2.347.858-3.872.858-1.804 0-3.168-.499-4.092-1.496-.924-.997-1.386-2.471-1.386-4.422 0-1.863.462-3.311 1.386-4.345.924-1.034 2.215-1.551 3.872-1.551 1.393 0 2.464.392 3.212 1.177.748.785 1.122 1.896 1.122 3.333 0 .69-.059 1.313-.176 1.87h-7.304zm3.036-4.73c-.924 0-1.643.275-2.156.825-.513.55-.807 1.368-.88 2.453h5.478l.014-.176c.005-.106.008-.238.008-.396 0-.895-.209-1.57-.627-2.024-.418-.455-1.03-.682-1.837-.682zM146.068 17V9.542c0-.777-.158-1.35-.473-1.716-.315-.367-.81-.55-1.485-.55-1.159 0-2.295.374-3.41 1.122V17h-2.178V5.846h1.826l.22 1.232c1.393-1.041 2.86-1.562 4.4-1.562 1.07 0 1.885.282 2.442.847.557.565.836 1.382.836 2.453V17h-2.178zm13.112-.418c-.85.44-1.833.66-2.948.66-1.73 0-3.054-.495-3.971-1.485-.917-.99-1.375-2.424-1.375-4.301 0-1.863.473-3.304 1.419-4.323.946-1.02 2.284-1.529 4.015-1.529.983 0 1.907.205 2.772.616v1.562a8.154 8.154 0 0 0-2.464-.396c-1.232 0-2.12.312-2.662.935-.543.623-.814 1.617-.814 2.981v.286c0 1.335.275 2.314.825 2.937.55.623 1.419.935 2.607.935.792 0 1.657-.147 2.596-.44v1.562zm7.106-11.066c1.393 0 2.464.392 3.212 1.177.748.785 1.122 1.896 1.122 3.333 0 .69-.059 1.313-.176 1.87h-7.304c.03 1.261.341 2.193.935 2.794.594.601 1.514.902 2.761.902 1.159 0 2.34-.227 3.542-.682v1.562c-1.056.572-2.347.858-3.872.858-1.804 0-3.168-.499-4.092-1.496-.924-.997-1.386-2.471-1.386-4.422 0-1.863.462-3.311 1.386-4.345.924-1.034 2.215-1.551 3.872-1.551zm-.11 1.65c-.924 0-1.643.275-2.156.825-.513.55-.807 1.368-.88 2.453h5.478c.009-.07.015-.167.018-.29l.004-.282c0-.895-.209-1.57-.627-2.024-.418-.455-1.03-.682-1.837-.682z"/>
        <path fill="#232F3E" d="M89 0h1v22h-1z"/>
        <path d="M11.135 20.13h38.179v8.759H11.135z"/>
        <path fill="#F90" d="M48.976 23.614c-4.583 3.444-11.228 5.275-16.95 5.275-8.019 0-15.24-3.018-20.705-8.042-.43-.394-.047-.933.47-.627 5.895 3.492 13.186 5.596 20.717 5.596 5.08 0 10.664-1.073 15.802-3.292.775-.335 1.425.52.666 1.09"/>
        <path fill="#F90" d="M51.146 21.465c-.594-.773-3.927-.366-5.424-.184-.454.056-.524-.347-.116-.64 2.66-1.897 7.016-1.35 7.523-.714.51.641-.135 5.081-2.626 7.2-.384.326-.748.152-.578-.278.56-1.423 1.816-4.61 1.221-5.384"/>
        <path fill="#232F3E" d="M45.79 7.978v-1.74a.434.434 0 0 1 .45-.441h7.944c.254 0 .458.18.458.438v1.493c-.002.25-.217.577-.598 1.096l-4.115 5.77c1.527-.036 3.143.19 4.531.955.313.173.397.428.422.68v1.856c0 .256-.286.552-.586.398-2.445-1.258-5.69-1.395-8.394.016-.276.144-.565-.148-.565-.404V16.33c0-.283.005-.766.296-1.197L50.4 8.417h-4.152c-.254 0-.457-.178-.46-.439M61.222 7.634c-1.81 0-1.925 2.523-1.925 4.098 0 1.574-.023 4.94 1.902 4.94 1.902 0 1.994-2.714 1.994-4.37 0-1.085-.046-2.388-.368-3.42-.274-.896-.824-1.248-1.603-1.248zM61.199 5c3.643 0 5.613 3.203 5.613 7.275 0 3.936-2.176 7.058-5.613 7.058-3.574 0-5.522-3.204-5.522-7.194 0-4.017 1.97-7.139 5.522-7.139zM41.686 19.123c-.165.149-.466.154-.59.058-.852-.663-1.43-1.67-1.43-1.67-1.37 1.401-2.34 1.822-4.115 1.822-2.101 0-3.736-1.303-3.736-3.909 0-2.035 1.098-3.42 2.662-4.099 1.354-.597 3.246-.705 4.693-.869 0 0 .12-1.571-.303-2.144-.329-.444-.888-.652-1.401-.652-.926-.004-1.82.503-1.998 1.476-.05.278-.255.512-.47.489l-2.39-.26a.442.442 0 0 1-.374-.525C32.79 5.89 35.44 5 37.816 5c1.214 0 2.802.325 3.759 1.249 1.214 1.14 1.097 2.66 1.097 4.317v3.906c0 1.176.486 1.691.942 2.324.159.23.195.5-.008.667-.51.43-1.92 1.66-1.92 1.66zm-2.516-6.115c0 .978.023 1.792-.467 2.66-.397.706-1.027 1.14-1.728 1.14-.957 0-1.517-.732-1.517-1.818 0-2.136 1.907-2.524 3.712-2.524v.542zM9.87 19.123c-.164.149-.466.154-.589.058-.853-.663-1.43-1.67-1.43-1.67-1.37 1.401-2.34 1.822-4.115 1.822C1.634 19.333 0 18.03 0 15.424c0-2.035 1.097-3.42 2.662-4.099 1.354-.597 3.245-.705 4.692-.869 0 0 .121-1.571-.303-2.144-.329-.444-.887-.652-1.4-.652-.927-.004-1.821.503-1.998 1.476-.051.278-.256.512-.471.489l-2.39-.26a.442.442 0 0 1-.373-.525C.975 5.89 3.625 5 6 5c1.214 0 2.802.325 3.76 1.249 1.213 1.14 1.097 2.66 1.097 4.317v3.906c0 1.176.486 1.691.942 2.324.159.23.195.5-.008.667-.51.43-1.92 1.66-1.92 1.66zm-2.516-6.115c0 .978.024 1.792-.467 2.66-.396.706-1.027 1.14-1.727 1.14-.957 0-1.518-.732-1.518-1.818 0-2.136 1.907-2.524 3.712-2.524v.542zM16.924 11.507c0-1.437-.07-3.423 1.713-3.423 1.759 0 1.527 2.038 1.527 3.423l.003 6.584c0 .238.196.43.445.446h2.477c.264 0 .478-.199.478-.447v-6.583c0-.706-.023-1.75.232-2.378.254-.627.88-1.02 1.482-1.02.717 0 1.272.236 1.457 1.073.116.496.07 1.803.07 2.325v6.584c0 .238.196.43.446.446h2.476c.265 0 .479-.199.479-.447l.002-7.837c0-1.333.162-2.849-.625-3.894C28.89 5.418 27.757 5 26.716 5c-1.459 0-2.825.732-3.427 2.3-.694-1.568-1.666-2.3-3.217-2.3-1.528 0-2.662.732-3.263 2.3h-.047V5.714a.458.458 0 0 0-.463-.452h-2.314a.458.458 0 0 0-.463.452v12.37c0 .25.207.453.463.453h2.476a.458.458 0 0 0 .463-.452v-6.578M71.858 18.085c0 .25-.21.452-.47.452h-2.515a.461.461 0 0 1-.47-.452V5.714c0-.25.21-.452.47-.452h2.325c.272 0 .47.21.47.353V7.51h.049C72.422 5.809 73.408 5 75.147 5c1.128 0 2.233.392 2.938 1.464.658.992.658 2.665.658 3.867v7.815c-.028.22-.234.391-.483.391h-2.523c-.233-.014-.421-.179-.448-.39l.004-7.505c0-2.51-1-2.584-1.579-2.584-.671 0-1.212.504-1.448.974-.353.759-.409 1.534-.409 2.371v6.682"/>
    </g>
</svg>
