<?xml version="1.0" encoding="UTF-8" standalone="no"?>
<!DOCTYPE svg PUBLIC "-//W3C//DTD SVG 1.1//EN"
 "http://www.w3.org/Graphics/SVG/1.1/DTD/svg11.dtd">
<!-- Generated by graphviz version 2.26.3 (20100126.1600)
 -->
<!-- Title: Automaton Pages: 1 -->
<svg width="6728pt" height="98pt"
 viewBox="0.00 0.00 6728.00 98.00" xmlns="http://www.w3.org/2000/svg" xmlns:xlink="http://www.w3.org/1999/xlink">
<g id="graph1" class="graph" transform="scale(1 1) rotate(0) translate(4 94)">
<title>Automaton</title>
<polygon fill="white" stroke="white" points="-4,5 -4,-94 6725,-94 6725,5 -4,5"/>
<!-- 0 -->
<g id="node1" class="node"><title>0</title>
<ellipse fill="none" stroke="black" cx="1772" cy="-41" rx="18" ry="18"/>
</g>
<!-- 73 -->
<g id="node3" class="node"><title>73</title>
<ellipse fill="none" stroke="black" cx="1854" cy="-41" rx="18" ry="18"/>
</g>
<!-- 0&#45;&gt;73 -->
<g id="edge2" class="edge"><title>0&#45;&gt;73</title>
<path fill="none" stroke="black" d="M1790.2,-41C1800.6,-41 1813.88,-41 1825.62,-41"/>
<polygon fill="black" stroke="black" points="1825.85,-44.5001 1835.85,-41 1825.85,-37.5001 1825.85,-44.5001"/>
<text text-anchor="middle" x="1813" y="-46.4" font-family="Times Roman,serif" font-size="14.00">u</text>
</g>
<!-- 55 -->
<g id="node136" class="node"><title>55</title>
<ellipse fill="none" stroke="black" cx="1936" cy="-41" rx="18" ry="18"/>
</g>
<!-- 73&#45;&gt;55 -->
<g id="edge150" class="edge"><title>73&#45;&gt;55</title>
<path fill="none" stroke="black" d="M1872.2,-41C1882.6,-41 1895.88,-41 1907.62,-41"/>
<polygon fill="black" stroke="black" points="1907.85,-44.5001 1917.85,-41 1907.85,-37.5001 1907.85,-44.5001"/>
<text text-anchor="middle" x="1895" y="-46.4" font-family="Times Roman,serif" font-size="14.00">b</text>
</g>
<!-- 1 -->
<g id="node4" class="node"><title>1</title>
<ellipse fill="none" stroke="black" cx="3734" cy="-72" rx="18" ry="18"/>
</g>
<!-- 12 -->
<g id="node6" class="node"><title>12</title>
<ellipse fill="none" stroke="black" cx="3852" cy="-72" rx="18" ry="18"/>
</g>
<!-- 1&#45;&gt;12 -->
<g id="edge4" class="edge"><title>1&#45;&gt;12</title>
<path fill="none" stroke="black" d="M3752.18,-72C3771.29,-72 3801.61,-72 3823.82,-72"/>
<polygon fill="black" stroke="black" points="3823.99,-75.5001 3833.99,-72 3823.99,-68.5001 3823.99,-75.5001"/>
<text text-anchor="middle" x="3793" y="-77.4" font-family="Times Roman,serif" font-size="14.00">u0020</text>
</g>
<!-- 82 -->
<g id="node36" class="node"><title>82</title>
<ellipse fill="none" stroke="black" cx="3934" cy="-72" rx="18" ry="18"/>
</g>
<!-- 12&#45;&gt;82 -->
<g id="edge26" class="edge"><title>12&#45;&gt;82</title>
<path fill="none" stroke="black" d="M3870.2,-72C3880.6,-72 3893.88,-72 3905.62,-72"/>
<polygon fill="black" stroke="black" points="3905.85,-75.5001 3915.85,-72 3905.85,-68.5001 3905.85,-75.5001"/>
<text text-anchor="middle" x="3893" y="-77.4" font-family="Times Roman,serif" font-size="14.00">g</text>
</g>
<!-- 2 -->
<g id="node7" class="node"><title>2</title>
<ellipse fill="none" stroke="black" cx="602" cy="-41" rx="18" ry="18"/>
</g>
<!-- 18 -->
<g id="node9" class="node"><title>18</title>
<ellipse fill="none" stroke="black" cx="682" cy="-41" rx="18" ry="18"/>
</g>
<!-- 2&#45;&gt;18 -->
<g id="edge6" class="edge"><title>2&#45;&gt;18</title>
<path fill="none" stroke="black" d="M620.153,-41C630.075,-41 642.583,-41 653.751,-41"/>
<polygon fill="black" stroke="black" points="653.919,-44.5001 663.919,-41 653.919,-37.5001 653.919,-44.5001"/>
<text text-anchor="middle" x="642" y="-46.4" font-family="Times Roman,serif" font-size="14.00">r</text>
</g>
<!-- 70 -->
<g id="node55" class="node"><title>70</title>
<ellipse fill="none" stroke="black" cx="764" cy="-41" rx="18" ry="18"/>
</g>
<!-- 18&#45;&gt;70 -->
<g id="edge42" class="edge"><title>18&#45;&gt;70</title>
<path fill="none" stroke="black" d="M700.198,-41C710.602,-41 723.878,-41 735.623,-41"/>
<polygon fill="black" stroke="black" points="735.852,-44.5001 745.852,-41 735.852,-37.5001 735.852,-44.5001"/>
<text text-anchor="middle" x="723" y="-46.4" font-family="Times Roman,serif" font-size="14.00">y</text>
</g>
<!-- 3 -->
<g id="node10" class="node"><title>3</title>
<ellipse fill="none" stroke="black" cx="1526" cy="-41" rx="18" ry="18"/>
</g>
<!-- 16 -->
<g id="node12" class="node"><title>16</title>
<ellipse fill="none" stroke="black" cx="1608" cy="-41" rx="18" ry="18"/>
</g>
<!-- 3&#45;&gt;16 -->
<g id="edge8" class="edge"><title>3&#45;&gt;16</title>
<path fill="none" stroke="black" d="M1544.2,-41C1554.6,-41 1567.88,-41 1579.62,-41"/>
<polygon fill="black" stroke="black" points="1579.85,-44.5001 1589.85,-41 1579.85,-37.5001 1579.85,-44.5001"/>
<text text-anchor="middle" x="1567" y="-46.4" font-family="Times Roman,serif" font-size="14.00">R</text>
</g>
<!-- 36 -->
<g id="node48" class="node"><title>36</title>
<ellipse fill="none" stroke="black" cx="1690" cy="-41" rx="18" ry="18"/>
</g>
<!-- 16&#45;&gt;36 -->
<g id="edge36" class="edge"><title>16&#45;&gt;36</title>
<path fill="none" stroke="black" d="M1626.2,-41C1636.6,-41 1649.88,-41 1661.62,-41"/>
<polygon fill="black" stroke="black" points="1661.85,-44.5001 1671.85,-41 1661.85,-37.5001 1661.85,-44.5001"/>
<text text-anchor="middle" x="1649" y="-46.4" font-family="Times Roman,serif" font-size="14.00">e</text>
</g>
<!-- 4 -->
<g id="node13" class="node"><title>4</title>
<ellipse fill="none" stroke="black" cx="3652" cy="-18" rx="18" ry="18"/>
</g>
<!-- 7 -->
<g id="node15" class="node"><title>7</title>
<ellipse fill="none" stroke="black" cx="3734" cy="-18" rx="18" ry="18"/>
</g>
<!-- 4&#45;&gt;7 -->
<g id="edge10" class="edge"><title>4&#45;&gt;7</title>
<path fill="none" stroke="black" d="M3670.2,-18C3680.6,-18 3693.88,-18 3705.62,-18"/>
<polygon fill="black" stroke="black" points="3705.85,-21.5001 3715.85,-18 3705.85,-14.5001 3705.85,-21.5001"/>
<text text-anchor="middle" x="3693" y="-23.4" font-family="Times Roman,serif" font-size="14.00">h</text>
</g>
<!-- 5 -->
<g id="node16" class="node"><title>5</title>
<ellipse fill="none" stroke="black" cx="3852" cy="-18" rx="18" ry="18"/>
</g>
<!-- 7&#45;&gt;5 -->
<g id="edge16" class="edge"><title>7&#45;&gt;5</title>
<path fill="none" stroke="black" d="M3752.18,-18C3771.29,-18 3801.61,-18 3823.82,-18"/>
<polygon fill="black" stroke="black" points="3823.99,-21.5001 3833.99,-18 3823.99,-14.5001 3823.99,-21.5001"/>
<text text-anchor="middle" x="3793" y="-23.4" font-family="Times Roman,serif" font-size="14.00">e</text>
</g>
<!-- 15 -->
<g id="node18" class="node"><title>15</title>
<ellipse fill="none" stroke="black" cx="3934" cy="-18" rx="18" ry="18"/>
</g>
<!-- 5&#45;&gt;15 -->
<g id="edge12" class="edge"><title>5&#45;&gt;15</title>
<path fill="none" stroke="black" d="M3870.2,-18C3880.6,-18 3893.88,-18 3905.62,-18"/>
<polygon fill="black" stroke="black" points="3905.85,-21.5001 3915.85,-18 3905.85,-14.5001 3905.85,-21.5001"/>
<text text-anchor="middle" x="3893" y="-23.4" font-family="Times Roman,serif" font-size="14.00">r</text>
</g>
<!-- 54 -->
<g id="node46" class="node"><title>54</title>
<ellipse fill="none" stroke="black" cx="4016" cy="-24" rx="18" ry="18"/>
</g>
<!-- 15&#45;&gt;54 -->
<g id="edge34" class="edge"><title>15&#45;&gt;54</title>
<path fill="none" stroke="black" d="M3952.2,-19.3316C3962.6,-20.0929 3975.88,-21.0643 3987.62,-21.9237"/>
<polygon fill="black" stroke="black" points="3987.62,-25.4329 3997.85,-22.6721 3988.13,-18.4516 3987.62,-25.4329"/>
<text text-anchor="middle" x="3975" y="-27.4" font-family="Times Roman,serif" font-size="14.00">y</text>
</g>
<!-- 6 -->
<g id="node19" class="node"><title>6</title>
<ellipse fill="none" stroke="black" cx="6612" cy="-51" rx="18" ry="18"/>
</g>
<!-- 71 -->
<g id="node21" class="node"><title>71</title>
<ellipse fill="none" stroke="black" cx="6698" cy="-51" rx="18" ry="18"/>
<ellipse fill="none" stroke="black" cx="6698" cy="-51" rx="22" ry="22"/>
</g>
<!-- 6&#45;&gt;71 -->
<g id="edge14" class="edge"><title>6&#45;&gt;71</title>
<path fill="none" stroke="black" d="M6630.24,-51C6640.53,-51 6653.7,-51 6665.69,-51"/>
<polygon fill="black" stroke="black" points="6665.82,-54.5001 6675.82,-51 6665.82,-47.5001 6665.82,-54.5001"/>
<text text-anchor="middle" x="6653" y="-56.4" font-family="Times Roman,serif" font-size="14.00">d</text>
</g>
<!-- 8 -->
<g id="node23" class="node"><title>8</title>
<ellipse fill="none" stroke="black" cx="6378" cy="-51" rx="18" ry="18"/>
</g>
<!-- 26 -->
<g id="node25" class="node"><title>26</title>
<ellipse fill="none" stroke="black" cx="6454" cy="-51" rx="18" ry="18"/>
</g>
<!-- 8&#45;&gt;26 -->
<g id="edge18" class="edge"><title>8&#45;&gt;26</title>
<path fill="none" stroke="black" d="M6396.01,-51C6404.84,-51 6415.69,-51 6425.6,-51"/>
<polygon fill="black" stroke="black" points="6425.85,-54.5001 6435.85,-51 6425.85,-47.5001 6425.85,-54.5001"/>
<text text-anchor="middle" x="6416" y="-56.4" font-family="Times Roman,serif" font-size="14.00">l</text>
</g>
<!-- 22 -->
<g id="node64" class="node"><title>22</title>
<ellipse fill="none" stroke="black" cx="6530" cy="-51" rx="18" ry="18"/>
</g>
<!-- 26&#45;&gt;22 -->
<g id="edge58" class="edge"><title>26&#45;&gt;22</title>
<path fill="none" stroke="black" d="M6472.01,-51C6480.84,-51 6491.69,-51 6501.6,-51"/>
<polygon fill="black" stroke="black" points="6501.85,-54.5001 6511.85,-51 6501.85,-47.5001 6501.85,-54.5001"/>
<text text-anchor="middle" x="6492" y="-56.4" font-family="Times Roman,serif" font-size="14.00">i</text>
</g>
<!-- 9 -->
<g id="node26" class="node"><title>9</title>
<ellipse fill="none" stroke="black" cx="3372" cy="-18" rx="18" ry="18"/>
</g>
<!-- 20 -->
<g id="node28" class="node"><title>20</title>
<ellipse fill="none" stroke="black" cx="3490" cy="-18" rx="18" ry="18"/>
</g>
<!-- 9&#45;&gt;20 -->
<g id="edge20" class="edge"><title>9&#45;&gt;20</title>
<path fill="none" stroke="black" d="M3390.18,-18C3409.29,-18 3439.61,-18 3461.82,-18"/>
<polygon fill="black" stroke="black" points="3461.99,-21.5001 3471.99,-18 3461.99,-14.5001 3461.99,-21.5001"/>
<text text-anchor="middle" x="3431" y="-23.4" font-family="Times Roman,serif" font-size="14.00">a</text>
</g>
<!-- 83 -->
<g id="node60" class="node"><title>83</title>
<ellipse fill="none" stroke="black" cx="3570" cy="-18" rx="18" ry="18"/>
</g>
<!-- 20&#45;&gt;83 -->
<g id="edge46" class="edge"><title>20&#45;&gt;83</title>
<path fill="none" stroke="black" d="M3508.15,-18C3518.07,-18 3530.58,-18 3541.75,-18"/>
<polygon fill="black" stroke="black" points="3541.92,-21.5001 3551.92,-18 3541.92,-14.5001 3541.92,-21.5001"/>
<text text-anchor="middle" x="3530" y="-23.4" font-family="Times Roman,serif" font-size="14.00">r</text>
</g>
<!-- 10 -->
<g id="node29" class="node"><title>10</title>
<ellipse fill="none" stroke="black" cx="1164" cy="-41" rx="18" ry="18"/>
</g>
<!-- 72 -->
<g id="node31" class="node"><title>72</title>
<ellipse fill="none" stroke="black" cx="1244" cy="-41" rx="18" ry="18"/>
</g>
<!-- 10&#45;&gt;72 -->
<g id="edge22" class="edge"><title>10&#45;&gt;72</title>
<path fill="none" stroke="black" d="M1182.15,-41C1192.07,-41 1204.58,-41 1215.75,-41"/>
<polygon fill="black" stroke="black" points="1215.92,-44.5001 1225.92,-41 1215.92,-37.5001 1215.92,-44.5001"/>
<text text-anchor="middle" x="1204" y="-46.4" font-family="Times Roman,serif" font-size="14.00">t</text>
</g>
<!-- 66 -->
<g id="node153" class="node"><title>66</title>
<ellipse fill="none" stroke="black" cx="1326" cy="-41" rx="18" ry="18"/>
</g>
<!-- 72&#45;&gt;66 -->
<g id="edge148" class="edge"><title>72&#45;&gt;66</title>
<path fill="none" stroke="black" d="M1262.2,-41C1272.6,-41 1285.88,-41 1297.62,-41"/>
<polygon fill="black" stroke="black" points="1297.85,-44.5001 1307.85,-41 1297.85,-37.5001 1297.85,-44.5001"/>
<text text-anchor="middle" x="1285" y="-46.4" font-family="Times Roman,serif" font-size="14.00">h</text>
</g>
<!-- 11 -->
<g id="node32" class="node"><title>11</title>
<ellipse fill="none" stroke="black" cx="6178" cy="-51" rx="18" ry="18"/>
</g>
<!-- 78 -->
<g id="node34" class="node"><title>78</title>
<ellipse fill="none" stroke="black" cx="6296" cy="-51" rx="18" ry="18"/>
</g>
<!-- 11&#45;&gt;78 -->
<g id="edge24" class="edge"><title>11&#45;&gt;78</title>
<path fill="none" stroke="black" d="M6196.18,-51C6215.29,-51 6245.61,-51 6267.82,-51"/>
<polygon fill="black" stroke="black" points="6267.99,-54.5001 6277.99,-51 6267.99,-47.5001 6267.99,-54.5001"/>
<text text-anchor="middle" x="6237" y="-56.4" font-family="Times Roman,serif" font-size="14.00">u0020</text>
</g>
<!-- 78&#45;&gt;8 -->
<g id="edge160" class="edge"><title>78&#45;&gt;8</title>
<path fill="none" stroke="black" d="M6314.2,-51C6324.6,-51 6337.88,-51 6349.62,-51"/>
<polygon fill="black" stroke="black" points="6349.85,-54.5001 6359.85,-51 6349.85,-47.5001 6349.85,-54.5001"/>
<text text-anchor="middle" x="6337" y="-56.4" font-family="Times Roman,serif" font-size="14.00">b</text>
</g>
<!-- 58 -->
<g id="node142" class="node"><title>58</title>
<ellipse fill="none" stroke="black" cx="4075" cy="-71" rx="18" ry="18"/>
</g>
<!-- 82&#45;&gt;58 -->
<g id="edge168" class="edge"><title>82&#45;&gt;58</title>
<path fill="none" stroke="black" d="M3952.14,-71.8713C3976.15,-71.7011 4018.71,-71.3992 4046.9,-71.1993"/>
<polygon fill="black" stroke="black" points="4046.95,-74.6991 4056.93,-71.1282 4046.9,-67.6993 4046.95,-74.6991"/>
<text text-anchor="middle" x="3975" y="-76.4" font-family="Times Roman,serif" font-size="14.00">u</text>
</g>
<!-- 13 -->
<g id="node37" class="node"><title>13</title>
<ellipse fill="none" stroke="black" cx="3090" cy="-41" rx="18" ry="18"/>
</g>
<!-- 50 -->
<g id="node39" class="node"><title>50</title>
<ellipse fill="none" stroke="black" cx="3172" cy="-72" rx="18" ry="18"/>
</g>
<!-- 13&#45;&gt;50 -->
<g id="edge28" class="edge"><title>13&#45;&gt;50</title>
<path fill="none" stroke="black" d="M3106.99,-47.4232C3118.1,-51.6213 3132.83,-57.191 3145.46,-61.9667"/>
<polygon fill="black" stroke="black" points="3144.44,-65.3226 3155.03,-65.585 3146.92,-58.7749 3144.44,-65.3226"/>
<text text-anchor="middle" x="3131" y="-63.4" font-family="Times Roman,serif" font-size="14.00">a</text>
</g>
<!-- 56 -->
<g id="node41" class="node"><title>56</title>
<ellipse fill="none" stroke="black" cx="3172" cy="-18" rx="18" ry="18"/>
</g>
<!-- 13&#45;&gt;56 -->
<g id="edge30" class="edge"><title>13&#45;&gt;56</title>
<path fill="none" stroke="black" d="M3107.06,-34.3154C3113,-32.1289 3119.74,-29.8015 3126,-28 3131.69,-26.3608 3137.85,-24.8481 3143.76,-23.5216"/>
<polygon fill="black" stroke="black" points="3144.9,-26.8565 3153.95,-21.348 3143.44,-20.0104 3144.9,-26.8565"/>
<text text-anchor="middle" x="3131" y="-33.4" font-family="Times Roman,serif" font-size="14.00">i</text>
</g>
<!-- 48 -->
<g id="node126" class="node"><title>48</title>
<ellipse fill="none" stroke="black" cx="3254" cy="-72" rx="18" ry="18"/>
</g>
<!-- 50&#45;&gt;48 -->
<g id="edge106" class="edge"><title>50&#45;&gt;48</title>
<path fill="none" stroke="black" d="M3190.2,-72C3200.6,-72 3213.88,-72 3225.62,-72"/>
<polygon fill="black" stroke="black" points="3225.85,-75.5001 3235.85,-72 3225.85,-68.5001 3225.85,-75.5001"/>
<text text-anchor="middle" x="3213" y="-77.4" font-family="Times Roman,serif" font-size="14.00">n</text>
</g>
<!-- 61 -->
<g id="node139" class="node"><title>61</title>
<ellipse fill="none" stroke="black" cx="3254" cy="-18" rx="18" ry="18"/>
</g>
<!-- 56&#45;&gt;61 -->
<g id="edge118" class="edge"><title>56&#45;&gt;61</title>
<path fill="none" stroke="black" d="M3190.2,-18C3200.6,-18 3213.88,-18 3225.62,-18"/>
<polygon fill="black" stroke="black" points="3225.85,-21.5001 3235.85,-18 3225.85,-14.5001 3225.85,-21.5001"/>
<text text-anchor="middle" x="3213" y="-23.4" font-family="Times Roman,serif" font-size="14.00">n</text>
</g>
<!-- 14 -->
<g id="node42" class="node"><title>14</title>
<ellipse fill="none" stroke="black" cx="5622" cy="-51" rx="18" ry="18"/>
</g>
<!-- 77 -->
<g id="node44" class="node"><title>77</title>
<ellipse fill="none" stroke="black" cx="5698" cy="-51" rx="18" ry="18"/>
</g>
<!-- 14&#45;&gt;77 -->
<g id="edge32" class="edge"><title>14&#45;&gt;77</title>
<path fill="none" stroke="black" d="M5640.01,-51C5648.84,-51 5659.69,-51 5669.6,-51"/>
<polygon fill="black" stroke="black" points="5669.85,-54.5001 5679.85,-51 5669.85,-47.5001 5669.85,-54.5001"/>
<text text-anchor="middle" x="5660" y="-56.4" font-family="Times Roman,serif" font-size="14.00">l</text>
</g>
<!-- 60 -->
<g id="node145" class="node"><title>60</title>
<ellipse fill="none" stroke="black" cx="5780" cy="-51" rx="18" ry="18"/>
</g>
<!-- 77&#45;&gt;60 -->
<g id="edge158" class="edge"><title>77&#45;&gt;60</title>
<path fill="none" stroke="black" d="M5716.2,-51C5726.6,-51 5739.88,-51 5751.62,-51"/>
<polygon fill="black" stroke="black" points="5751.85,-54.5001 5761.85,-51 5751.85,-47.5001 5751.85,-54.5001"/>
<text text-anchor="middle" x="5739" y="-56.4" font-family="Times Roman,serif" font-size="14.00">e</text>
</g>
<!-- 74 -->
<g id="node135" class="node"><title>74</title>
<ellipse fill="none" stroke="black" cx="4134" cy="-25" rx="18" ry="18"/>
</g>
<!-- 54&#45;&gt;74 -->
<g id="edge114" class="edge"><title>54&#45;&gt;74</title>
<path fill="none" stroke="black" d="M4034.18,-24.1541C4053.29,-24.316 4083.61,-24.573 4105.82,-24.7612"/>
<polygon fill="black" stroke="black" points="4105.96,-28.2624 4115.99,-24.8474 4106.02,-21.2627 4105.96,-28.2624"/>
<text text-anchor="middle" x="4075" y="-30.4" font-family="Times Roman,serif" font-size="14.00">u0020</text>
</g>
<!-- 36&#45;&gt;0 -->
<g id="edge78" class="edge"><title>36&#45;&gt;0</title>
<path fill="none" stroke="black" d="M1708.2,-41C1718.6,-41 1731.88,-41 1743.62,-41"/>
<polygon fill="black" stroke="black" points="1743.85,-44.5001 1753.85,-41 1743.85,-37.5001 1743.85,-44.5001"/>
<text text-anchor="middle" x="1731" y="-46.4" font-family="Times Roman,serif" font-size="14.00">p</text>
</g>
<!-- 17 -->
<g id="node49" class="node"><title>17</title>
<ellipse fill="none" stroke="black" cx="110" cy="-41" rx="18" ry="18"/>
</g>
<!-- 63 -->
<g id="node53" class="node"><title>63</title>
<ellipse fill="none" stroke="black" cx="196" cy="-41" rx="18" ry="18"/>
</g>
<!-- 17&#45;&gt;63 -->
<g id="edge40" class="edge"><title>17&#45;&gt;63</title>
<path fill="none" stroke="black" d="M128.238,-41C139.64,-41 154.566,-41 167.506,-41"/>
<polygon fill="black" stroke="black" points="167.788,-44.5001 177.788,-41 167.788,-37.5001 167.788,-44.5001"/>
<text text-anchor="middle" x="153" y="-46.4" font-family="Times Roman,serif" font-size="14.00">#</text>
</g>
<!-- initial -->
<g id="node50" class="node"><title>initial</title>
</g>
<!-- initial&#45;&gt;17 -->
<g id="edge38" class="edge"><title>initial&#45;&gt;17</title>
<path fill="none" stroke="black" d="M54.1773,-41C62.9836,-41 72.7705,-41 81.6592,-41"/>
<polygon fill="black" stroke="black" points="81.9295,-44.5001 91.9295,-41 81.9294,-37.5001 81.9295,-44.5001"/>
</g>
<!-- 29 -->
<g id="node78" class="node"><title>29</title>
<ellipse fill="none" stroke="black" cx="278" cy="-41" rx="18" ry="18"/>
</g>
<!-- 63&#45;&gt;29 -->
<g id="edge132" class="edge"><title>63&#45;&gt;29</title>
<path fill="none" stroke="black" d="M214.198,-41C224.602,-41 237.878,-41 249.623,-41"/>
<polygon fill="black" stroke="black" points="249.852,-44.5001 259.852,-41 249.852,-37.5001 249.852,-44.5001"/>
<text text-anchor="middle" x="237" y="-46.4" font-family="Times Roman,serif" font-size="14.00">a</text>
</g>
<!-- 32 -->
<g id="node86" class="node"><title>32</title>
<ellipse fill="none" stroke="black" cx="882" cy="-41" rx="18" ry="18"/>
</g>
<!-- 70&#45;&gt;32 -->
<g id="edge146" class="edge"><title>70&#45;&gt;32</title>
<path fill="none" stroke="black" d="M782.179,-41C801.291,-41 831.611,-41 853.825,-41"/>
<polygon fill="black" stroke="black" points="853.994,-44.5001 863.994,-41 853.994,-37.5001 853.994,-44.5001"/>
<text text-anchor="middle" x="823" y="-46.4" font-family="Times Roman,serif" font-size="14.00">u0020</text>
</g>
<!-- 19 -->
<g id="node56" class="node"><title>19</title>
<ellipse fill="none" stroke="black" cx="3490" cy="-72" rx="18" ry="18"/>
</g>
<!-- 68 -->
<g id="node58" class="node"><title>68</title>
<ellipse fill="none" stroke="black" cx="3570" cy="-72" rx="18" ry="18"/>
</g>
<!-- 19&#45;&gt;68 -->
<g id="edge44" class="edge"><title>19&#45;&gt;68</title>
<path fill="none" stroke="black" d="M3508.15,-72C3518.07,-72 3530.58,-72 3541.75,-72"/>
<polygon fill="black" stroke="black" points="3541.92,-75.5001 3551.92,-72 3541.92,-68.5001 3541.92,-75.5001"/>
<text text-anchor="middle" x="3530" y="-77.4" font-family="Times Roman,serif" font-size="14.00">t</text>
</g>
<!-- 57 -->
<g id="node140" class="node"><title>57</title>
<ellipse fill="none" stroke="black" cx="3652" cy="-72" rx="18" ry="18"/>
</g>
<!-- 68&#45;&gt;57 -->
<g id="edge142" class="edge"><title>68&#45;&gt;57</title>
<path fill="none" stroke="black" d="M3588.2,-72C3598.6,-72 3611.88,-72 3623.62,-72"/>
<polygon fill="black" stroke="black" points="3623.85,-75.5001 3633.85,-72 3623.85,-68.5001 3623.85,-75.5001"/>
<text text-anchor="middle" x="3611" y="-77.4" font-family="Times Roman,serif" font-size="14.00">h</text>
</g>
<!-- 83&#45;&gt;4 -->
<g id="edge170" class="edge"><title>83&#45;&gt;4</title>
<path fill="none" stroke="black" d="M3588.2,-18C3598.6,-18 3611.88,-18 3623.62,-18"/>
<polygon fill="black" stroke="black" points="3623.85,-21.5001 3633.85,-18 3623.85,-14.5001 3623.85,-21.5001"/>
<text text-anchor="middle" x="3611" y="-23.4" font-family="Times Roman,serif" font-size="14.00">c</text>
</g>
<!-- 21 -->
<g id="node61" class="node"><title>21</title>
<ellipse fill="none" stroke="black" cx="5348" cy="-51" rx="18" ry="18"/>
</g>
<!-- 24 -->
<g id="node63" class="node"><title>24</title>
<ellipse fill="none" stroke="black" cx="5424" cy="-51" rx="18" ry="18"/>
</g>
<!-- 21&#45;&gt;24 -->
<g id="edge48" class="edge"><title>21&#45;&gt;24</title>
<path fill="none" stroke="black" d="M5366.01,-51C5374.84,-51 5385.69,-51 5395.6,-51"/>
<polygon fill="black" stroke="black" points="5395.85,-54.5001 5405.85,-51 5395.85,-47.5001 5395.85,-54.5001"/>
<text text-anchor="middle" x="5386" y="-56.4" font-family="Times Roman,serif" font-size="14.00">i</text>
</g>
<!-- 28 -->
<g id="node70" class="node"><title>28</title>
<ellipse fill="none" stroke="black" cx="5504" cy="-51" rx="18" ry="18"/>
</g>
<!-- 24&#45;&gt;28 -->
<g id="edge54" class="edge"><title>24&#45;&gt;28</title>
<path fill="none" stroke="black" d="M5442.15,-51C5452.07,-51 5464.58,-51 5475.75,-51"/>
<polygon fill="black" stroke="black" points="5475.92,-54.5001 5485.92,-51 5475.92,-47.5001 5475.92,-54.5001"/>
<text text-anchor="middle" x="5464" y="-56.4" font-family="Times Roman,serif" font-size="14.00">s</text>
</g>
<!-- 22&#45;&gt;6 -->
<g id="edge50" class="edge"><title>22&#45;&gt;6</title>
<path fill="none" stroke="black" d="M6548.2,-51C6558.6,-51 6571.88,-51 6583.62,-51"/>
<polygon fill="black" stroke="black" points="6583.85,-54.5001 6593.85,-51 6583.85,-47.5001 6583.85,-54.5001"/>
<text text-anchor="middle" x="6571" y="-56.4" font-family="Times Roman,serif" font-size="14.00">n</text>
</g>
<!-- 23 -->
<g id="node66" class="node"><title>23</title>
<ellipse fill="none" stroke="black" cx="4862" cy="-25" rx="18" ry="18"/>
</g>
<!-- 80 -->
<g id="node68" class="node"><title>80</title>
<ellipse fill="none" stroke="black" cx="4980" cy="-25" rx="18" ry="18"/>
</g>
<!-- 23&#45;&gt;80 -->
<g id="edge52" class="edge"><title>23&#45;&gt;80</title>
<path fill="none" stroke="black" d="M4880.18,-25C4899.29,-25 4929.61,-25 4951.82,-25"/>
<polygon fill="black" stroke="black" points="4951.99,-28.5001 4961.99,-25 4951.99,-21.5001 4951.99,-28.5001"/>
<text text-anchor="middle" x="4921" y="-30.4" font-family="Times Roman,serif" font-size="14.00">u0020</text>
</g>
<!-- 65 -->
<g id="node151" class="node"><title>65</title>
<ellipse fill="none" stroke="black" cx="5066" cy="-25" rx="18" ry="18"/>
</g>
<!-- 80&#45;&gt;65 -->
<g id="edge164" class="edge"><title>80&#45;&gt;65</title>
<path fill="none" stroke="black" d="M4998.24,-25C5009.64,-25 5024.57,-25 5037.51,-25"/>
<polygon fill="black" stroke="black" points="5037.79,-28.5001 5047.79,-25 5037.79,-21.5001 5037.79,-28.5001"/>
<text text-anchor="middle" x="5023" y="-30.4" font-family="Times Roman,serif" font-size="14.00">w</text>
</g>
<!-- 28&#45;&gt;14 -->
<g id="edge62" class="edge"><title>28&#45;&gt;14</title>
<path fill="none" stroke="black" d="M5522.18,-51C5541.29,-51 5571.61,-51 5593.82,-51"/>
<polygon fill="black" stroke="black" points="5593.99,-54.5001 5603.99,-51 5593.99,-47.5001 5593.99,-54.5001"/>
<text text-anchor="middle" x="5563" y="-56.4" font-family="Times Roman,serif" font-size="14.00">u0020</text>
</g>
<!-- 25 -->
<g id="node71" class="node"><title>25</title>
<ellipse fill="none" stroke="black" cx="1046" cy="-41" rx="18" ry="18"/>
</g>
<!-- 25&#45;&gt;10 -->
<g id="edge56" class="edge"><title>25&#45;&gt;10</title>
<path fill="none" stroke="black" d="M1064.18,-41C1083.29,-41 1113.61,-41 1135.82,-41"/>
<polygon fill="black" stroke="black" points="1135.99,-44.5001 1145.99,-41 1135.99,-37.5001 1135.99,-44.5001"/>
<text text-anchor="middle" x="1105" y="-46.4" font-family="Times Roman,serif" font-size="14.00">u0020</text>
</g>
<!-- 27 -->
<g id="node74" class="node"><title>27</title>
<ellipse fill="none" stroke="black" cx="438" cy="-41" rx="18" ry="18"/>
</g>
<!-- 52 -->
<g id="node76" class="node"><title>52</title>
<ellipse fill="none" stroke="black" cx="520" cy="-41" rx="18" ry="18"/>
</g>
<!-- 27&#45;&gt;52 -->
<g id="edge60" class="edge"><title>27&#45;&gt;52</title>
<path fill="none" stroke="black" d="M456.198,-41C466.602,-41 479.878,-41 491.623,-41"/>
<polygon fill="black" stroke="black" points="491.852,-44.5001 501.852,-41 491.852,-37.5001 491.852,-44.5001"/>
<text text-anchor="middle" x="479" y="-46.4" font-family="Times Roman,serif" font-size="14.00">h</text>
</g>
<!-- 52&#45;&gt;2 -->
<g id="edge110" class="edge"><title>52&#45;&gt;2</title>
<path fill="none" stroke="black" d="M538.198,-41C548.602,-41 561.878,-41 573.623,-41"/>
<polygon fill="black" stroke="black" points="573.852,-44.5001 583.852,-41 573.852,-37.5001 573.852,-44.5001"/>
<text text-anchor="middle" x="561" y="-46.4" font-family="Times Roman,serif" font-size="14.00">e</text>
</g>
<!-- 81 -->
<g id="node80" class="node"><title>81</title>
<ellipse fill="none" stroke="black" cx="358" cy="-41" rx="18" ry="18"/>
</g>
<!-- 29&#45;&gt;81 -->
<g id="edge64" class="edge"><title>29&#45;&gt;81</title>
<path fill="none" stroke="black" d="M296.153,-41C306.075,-41 318.583,-41 329.751,-41"/>
<polygon fill="black" stroke="black" points="329.919,-44.5001 339.919,-41 329.919,-37.5001 329.919,-44.5001"/>
<text text-anchor="middle" x="318" y="-46.4" font-family="Times Roman,serif" font-size="14.00">r</text>
</g>
<!-- 81&#45;&gt;27 -->
<g id="edge166" class="edge"><title>81&#45;&gt;27</title>
<path fill="none" stroke="black" d="M376.153,-41C386.075,-41 398.583,-41 409.751,-41"/>
<polygon fill="black" stroke="black" points="409.919,-44.5001 419.919,-41 409.919,-37.5001 409.919,-44.5001"/>
<text text-anchor="middle" x="398" y="-46.4" font-family="Times Roman,serif" font-size="14.00">c</text>
</g>
<!-- 30 -->
<g id="node81" class="node"><title>30</title>
<ellipse fill="none" stroke="black" cx="4780" cy="-25" rx="18" ry="18"/>
</g>
<!-- 30&#45;&gt;23 -->
<g id="edge66" class="edge"><title>30&#45;&gt;23</title>
<path fill="none" stroke="black" d="M4798.2,-25C4808.6,-25 4821.88,-25 4833.62,-25"/>
<polygon fill="black" stroke="black" points="4833.85,-28.5001 4843.85,-25 4833.85,-21.5001 4833.85,-28.5001"/>
<text text-anchor="middle" x="4821" y="-30.4" font-family="Times Roman,serif" font-size="14.00">y</text>
</g>
<!-- 31 -->
<g id="node83" class="node"><title>31</title>
<ellipse fill="none" stroke="black" cx="4216" cy="-25" rx="18" ry="18"/>
</g>
<!-- 62 -->
<g id="node85" class="node"><title>62</title>
<ellipse fill="none" stroke="black" cx="4298" cy="-25" rx="18" ry="18"/>
</g>
<!-- 31&#45;&gt;62 -->
<g id="edge68" class="edge"><title>31&#45;&gt;62</title>
<path fill="none" stroke="black" d="M4234.2,-25C4244.6,-25 4257.88,-25 4269.62,-25"/>
<polygon fill="black" stroke="black" points="4269.85,-28.5001 4279.85,-25 4269.85,-21.5001 4269.85,-28.5001"/>
<text text-anchor="middle" x="4257" y="-30.4" font-family="Times Roman,serif" font-size="14.00">y</text>
</g>
<!-- 41 -->
<g id="node109" class="node"><title>41</title>
<ellipse fill="none" stroke="black" cx="4416" cy="-25" rx="18" ry="18"/>
</g>
<!-- 62&#45;&gt;41 -->
<g id="edge130" class="edge"><title>62&#45;&gt;41</title>
<path fill="none" stroke="black" d="M4316.18,-25C4335.29,-25 4365.61,-25 4387.82,-25"/>
<polygon fill="black" stroke="black" points="4387.99,-28.5001 4397.99,-25 4387.99,-21.5001 4387.99,-28.5001"/>
<text text-anchor="middle" x="4357" y="-30.4" font-family="Times Roman,serif" font-size="14.00">u0020</text>
</g>
<!-- 59 -->
<g id="node88" class="node"><title>59</title>
<ellipse fill="none" stroke="black" cx="964" cy="-41" rx="18" ry="18"/>
</g>
<!-- 32&#45;&gt;59 -->
<g id="edge70" class="edge"><title>32&#45;&gt;59</title>
<path fill="none" stroke="black" d="M900.198,-41C910.602,-41 923.878,-41 935.623,-41"/>
<polygon fill="black" stroke="black" points="935.852,-44.5001 945.852,-41 935.852,-37.5001 935.852,-44.5001"/>
<text text-anchor="middle" x="923" y="-46.4" font-family="Times Roman,serif" font-size="14.00">b</text>
</g>
<!-- 59&#45;&gt;25 -->
<g id="edge124" class="edge"><title>59&#45;&gt;25</title>
<path fill="none" stroke="black" d="M982.198,-41C992.602,-41 1005.88,-41 1017.62,-41"/>
<polygon fill="black" stroke="black" points="1017.85,-44.5001 1027.85,-41 1017.85,-37.5001 1017.85,-44.5001"/>
<text text-anchor="middle" x="1005" y="-46.4" font-family="Times Roman,serif" font-size="14.00">y</text>
</g>
<!-- 33 -->
<g id="node89" class="node"><title>33</title>
<ellipse fill="none" stroke="black" cx="3372" cy="-72" rx="18" ry="18"/>
</g>
<!-- 33&#45;&gt;19 -->
<g id="edge72" class="edge"><title>33&#45;&gt;19</title>
<path fill="none" stroke="black" d="M3390.18,-72C3409.29,-72 3439.61,-72 3461.82,-72"/>
<polygon fill="black" stroke="black" points="3461.99,-75.5001 3471.99,-72 3461.99,-68.5001 3461.99,-75.5001"/>
<text text-anchor="middle" x="3431" y="-77.4" font-family="Times Roman,serif" font-size="14.00">u0020</text>
</g>
<!-- 34 -->
<g id="node91" class="node"><title>34</title>
<ellipse fill="none" stroke="black" cx="2564" cy="-41" rx="18" ry="18"/>
</g>
<!-- 75 -->
<g id="node93" class="node"><title>75</title>
<ellipse fill="none" stroke="black" cx="2646" cy="-41" rx="18" ry="18"/>
</g>
<!-- 34&#45;&gt;75 -->
<g id="edge74" class="edge"><title>34&#45;&gt;75</title>
<path fill="none" stroke="black" d="M2582.2,-41C2592.6,-41 2605.88,-41 2617.62,-41"/>
<polygon fill="black" stroke="black" points="2617.85,-44.5001 2627.85,-41 2617.85,-37.5001 2617.85,-44.5001"/>
<text text-anchor="middle" x="2605" y="-46.4" font-family="Times Roman,serif" font-size="14.00">K</text>
</g>
<!-- 44 -->
<g id="node116" class="node"><title>44</title>
<ellipse fill="none" stroke="black" cx="2728" cy="-41" rx="18" ry="18"/>
</g>
<!-- 75&#45;&gt;44 -->
<g id="edge154" class="edge"><title>75&#45;&gt;44</title>
<path fill="none" stroke="black" d="M2664.2,-41C2674.6,-41 2687.88,-41 2699.62,-41"/>
<polygon fill="black" stroke="black" points="2699.85,-44.5001 2709.85,-41 2699.85,-37.5001 2699.85,-44.5001"/>
<text text-anchor="middle" x="2687" y="-46.4" font-family="Times Roman,serif" font-size="14.00">o</text>
</g>
<!-- 35 -->
<g id="node94" class="node"><title>35</title>
<ellipse fill="none" stroke="black" cx="5862" cy="-51" rx="18" ry="18"/>
</g>
<!-- 69 -->
<g id="node96" class="node"><title>69</title>
<ellipse fill="none" stroke="black" cx="5944" cy="-51" rx="18" ry="18"/>
</g>
<!-- 35&#45;&gt;69 -->
<g id="edge76" class="edge"><title>35&#45;&gt;69</title>
<path fill="none" stroke="black" d="M5880.2,-51C5890.6,-51 5903.88,-51 5915.62,-51"/>
<polygon fill="black" stroke="black" points="5915.85,-54.5001 5925.85,-51 5915.85,-47.5001 5915.85,-54.5001"/>
<text text-anchor="middle" x="5903" y="-56.4" font-family="Times Roman,serif" font-size="14.00">a</text>
</g>
<!-- 38 -->
<g id="node100" class="node"><title>38</title>
<ellipse fill="none" stroke="black" cx="6020" cy="-51" rx="18" ry="18"/>
</g>
<!-- 69&#45;&gt;38 -->
<g id="edge144" class="edge"><title>69&#45;&gt;38</title>
<path fill="none" stroke="black" d="M5962.01,-51C5970.84,-51 5981.69,-51 5991.6,-51"/>
<polygon fill="black" stroke="black" points="5991.85,-54.5001 6001.85,-51 5991.85,-47.5001 5991.85,-54.5001"/>
<text text-anchor="middle" x="5982" y="-56.4" font-family="Times Roman,serif" font-size="14.00">l</text>
</g>
<!-- 37 -->
<g id="node98" class="node"><title>37</title>
<ellipse fill="none" stroke="black" cx="1408" cy="-41" rx="18" ry="18"/>
</g>
<!-- 37&#45;&gt;3 -->
<g id="edge80" class="edge"><title>37&#45;&gt;3</title>
<path fill="none" stroke="black" d="M1426.18,-41C1445.29,-41 1475.61,-41 1497.82,-41"/>
<polygon fill="black" stroke="black" points="1497.99,-44.5001 1507.99,-41 1497.99,-37.5001 1497.99,-44.5001"/>
<text text-anchor="middle" x="1467" y="-46.4" font-family="Times Roman,serif" font-size="14.00">u0020</text>
</g>
<!-- 79 -->
<g id="node102" class="node"><title>79</title>
<ellipse fill="none" stroke="black" cx="6096" cy="-51" rx="18" ry="18"/>
</g>
<!-- 38&#45;&gt;79 -->
<g id="edge82" class="edge"><title>38&#45;&gt;79</title>
<path fill="none" stroke="black" d="M6038.01,-51C6046.84,-51 6057.69,-51 6067.6,-51"/>
<polygon fill="black" stroke="black" points="6067.85,-54.5001 6077.85,-51 6067.85,-47.5001 6067.85,-54.5001"/>
<text text-anchor="middle" x="6058" y="-56.4" font-family="Times Roman,serif" font-size="14.00">l</text>
</g>
<!-- 79&#45;&gt;11 -->
<g id="edge162" class="edge"><title>79&#45;&gt;11</title>
<path fill="none" stroke="black" d="M6114.2,-51C6124.6,-51 6137.88,-51 6149.62,-51"/>
<polygon fill="black" stroke="black" points="6149.85,-54.5001 6159.85,-51 6149.85,-47.5001 6149.85,-54.5001"/>
<text text-anchor="middle" x="6137" y="-56.4" font-family="Times Roman,serif" font-size="14.00">y</text>
</g>
<!-- 39 -->
<g id="node103" class="node"><title>39</title>
<ellipse fill="none" stroke="black" cx="2890" cy="-41" rx="18" ry="18"/>
</g>
<!-- 49 -->
<g id="node105" class="node"><title>49</title>
<ellipse fill="none" stroke="black" cx="2972" cy="-41" rx="18" ry="18"/>
</g>
<!-- 39&#45;&gt;49 -->
<g id="edge84" class="edge"><title>39&#45;&gt;49</title>
<path fill="none" stroke="black" d="M2908.2,-41C2918.6,-41 2931.88,-41 2943.62,-41"/>
<polygon fill="black" stroke="black" points="2943.85,-44.5001 2953.85,-41 2943.85,-37.5001 2943.85,-44.5001"/>
<text text-anchor="middle" x="2931" y="-46.4" font-family="Times Roman,serif" font-size="14.00">a</text>
</g>
<!-- 49&#45;&gt;13 -->
<g id="edge104" class="edge"><title>49&#45;&gt;13</title>
<path fill="none" stroke="black" d="M2990.18,-41C3009.29,-41 3039.61,-41 3061.82,-41"/>
<polygon fill="black" stroke="black" points="3061.99,-44.5001 3071.99,-41 3061.99,-37.5001 3061.99,-44.5001"/>
<text text-anchor="middle" x="3031" y="-46.4" font-family="Times Roman,serif" font-size="14.00">u0020</text>
</g>
<!-- 40 -->
<g id="node106" class="node"><title>40</title>
<ellipse fill="none" stroke="black" cx="2012" cy="-41" rx="18" ry="18"/>
</g>
<!-- 43 -->
<g id="node108" class="node"><title>43</title>
<ellipse fill="none" stroke="black" cx="2088" cy="-41" rx="18" ry="18"/>
</g>
<!-- 40&#45;&gt;43 -->
<g id="edge86" class="edge"><title>40&#45;&gt;43</title>
<path fill="none" stroke="black" d="M2030.01,-41C2038.84,-41 2049.69,-41 2059.6,-41"/>
<polygon fill="black" stroke="black" points="2059.85,-44.5001 2069.85,-41 2059.85,-37.5001 2059.85,-44.5001"/>
<text text-anchor="middle" x="2050" y="-46.4" font-family="Times Roman,serif" font-size="14.00">i</text>
</g>
<!-- 45 -->
<g id="node115" class="node"><title>45</title>
<ellipse fill="none" stroke="black" cx="2168" cy="-41" rx="18" ry="18"/>
</g>
<!-- 43&#45;&gt;45 -->
<g id="edge92" class="edge"><title>43&#45;&gt;45</title>
<path fill="none" stroke="black" d="M2106.15,-41C2116.07,-41 2128.58,-41 2139.75,-41"/>
<polygon fill="black" stroke="black" points="2139.92,-44.5001 2149.92,-41 2139.92,-37.5001 2139.92,-44.5001"/>
<text text-anchor="middle" x="2128" y="-46.4" font-family="Times Roman,serif" font-size="14.00">c</text>
</g>
<!-- 51 -->
<g id="node111" class="node"><title>51</title>
<ellipse fill="none" stroke="black" cx="4498" cy="-25" rx="18" ry="18"/>
</g>
<!-- 41&#45;&gt;51 -->
<g id="edge88" class="edge"><title>41&#45;&gt;51</title>
<path fill="none" stroke="black" d="M4434.2,-25C4444.6,-25 4457.88,-25 4469.62,-25"/>
<polygon fill="black" stroke="black" points="4469.85,-28.5001 4479.85,-25 4469.85,-21.5001 4469.85,-28.5001"/>
<text text-anchor="middle" x="4457" y="-30.4" font-family="Times Roman,serif" font-size="14.00">a</text>
</g>
<!-- 53 -->
<g id="node131" class="node"><title>53</title>
<ellipse fill="none" stroke="black" cx="4616" cy="-25" rx="18" ry="18"/>
</g>
<!-- 51&#45;&gt;53 -->
<g id="edge108" class="edge"><title>51&#45;&gt;53</title>
<path fill="none" stroke="black" d="M4516.18,-25C4535.29,-25 4565.61,-25 4587.82,-25"/>
<polygon fill="black" stroke="black" points="4587.99,-28.5001 4597.99,-25 4587.99,-21.5001 4587.99,-28.5001"/>
<text text-anchor="middle" x="4557" y="-30.4" font-family="Times Roman,serif" font-size="14.00">u0020</text>
</g>
<!-- 42 -->
<g id="node112" class="node"><title>42</title>
<ellipse fill="none" stroke="black" cx="2446" cy="-41" rx="18" ry="18"/>
</g>
<!-- 42&#45;&gt;34 -->
<g id="edge90" class="edge"><title>42&#45;&gt;34</title>
<path fill="none" stroke="black" d="M2464.18,-41C2483.29,-41 2513.61,-41 2535.82,-41"/>
<polygon fill="black" stroke="black" points="2535.99,-44.5001 2545.99,-41 2535.99,-37.5001 2535.99,-44.5001"/>
<text text-anchor="middle" x="2505" y="-46.4" font-family="Times Roman,serif" font-size="14.00">u0020</text>
</g>
<!-- 84 -->
<g id="node120" class="node"><title>84</title>
<ellipse fill="none" stroke="black" cx="2286" cy="-41" rx="18" ry="18"/>
</g>
<!-- 45&#45;&gt;84 -->
<g id="edge96" class="edge"><title>45&#45;&gt;84</title>
<path fill="none" stroke="black" d="M2186.18,-41C2205.29,-41 2235.61,-41 2257.82,-41"/>
<polygon fill="black" stroke="black" points="2257.99,-44.5001 2267.99,-41 2257.99,-37.5001 2257.99,-44.5001"/>
<text text-anchor="middle" x="2227" y="-46.4" font-family="Times Roman,serif" font-size="14.00">u0020</text>
</g>
<!-- 64 -->
<g id="node118" class="node"><title>64</title>
<ellipse fill="none" stroke="black" cx="2808" cy="-41" rx="18" ry="18"/>
</g>
<!-- 44&#45;&gt;64 -->
<g id="edge94" class="edge"><title>44&#45;&gt;64</title>
<path fill="none" stroke="black" d="M2746.15,-41C2756.07,-41 2768.58,-41 2779.75,-41"/>
<polygon fill="black" stroke="black" points="2779.92,-44.5001 2789.92,-41 2779.92,-37.5001 2779.92,-44.5001"/>
<text text-anchor="middle" x="2768" y="-46.4" font-family="Times Roman,serif" font-size="14.00">r</text>
</g>
<!-- 64&#45;&gt;39 -->
<g id="edge134" class="edge"><title>64&#45;&gt;39</title>
<path fill="none" stroke="black" d="M2826.2,-41C2836.6,-41 2849.88,-41 2861.62,-41"/>
<polygon fill="black" stroke="black" points="2861.85,-44.5001 2871.85,-41 2861.85,-37.5001 2861.85,-44.5001"/>
<text text-anchor="middle" x="2849" y="-46.4" font-family="Times Roman,serif" font-size="14.00">e</text>
</g>
<!-- 67 -->
<g id="node155" class="node"><title>67</title>
<ellipse fill="none" stroke="black" cx="2368" cy="-41" rx="18" ry="18"/>
</g>
<!-- 84&#45;&gt;67 -->
<g id="edge172" class="edge"><title>84&#45;&gt;67</title>
<path fill="none" stroke="black" d="M2304.2,-41C2314.6,-41 2327.88,-41 2339.62,-41"/>
<polygon fill="black" stroke="black" points="2339.85,-44.5001 2349.85,-41 2339.85,-37.5001 2339.85,-44.5001"/>
<text text-anchor="middle" x="2327" y="-46.4" font-family="Times Roman,serif" font-size="14.00">o</text>
</g>
<!-- 46 -->
<g id="node121" class="node"><title>46</title>
<ellipse fill="none" stroke="black" cx="4698" cy="-25" rx="18" ry="18"/>
</g>
<!-- 46&#45;&gt;30 -->
<g id="edge98" class="edge"><title>46&#45;&gt;30</title>
<path fill="none" stroke="black" d="M4716.2,-25C4726.6,-25 4739.88,-25 4751.62,-25"/>
<polygon fill="black" stroke="black" points="4751.85,-28.5001 4761.85,-25 4751.85,-21.5001 4751.85,-28.5001"/>
<text text-anchor="middle" x="4739" y="-30.4" font-family="Times Roman,serif" font-size="14.00">u</text>
</g>
<!-- 47 -->
<g id="node123" class="node"><title>47</title>
<ellipse fill="none" stroke="black" cx="5148" cy="-25" rx="18" ry="18"/>
</g>
<!-- 76 -->
<g id="node125" class="node"><title>76</title>
<ellipse fill="none" stroke="black" cx="5230" cy="-51" rx="18" ry="18"/>
</g>
<!-- 47&#45;&gt;76 -->
<g id="edge100" class="edge"><title>47&#45;&gt;76</title>
<path fill="none" stroke="black" d="M5165.51,-30.2105C5174.11,-32.8 5184.61,-36.0082 5194,-39 5196.98,-39.9498 5200.09,-40.96 5203.19,-41.9755"/>
<polygon fill="black" stroke="black" points="5202.22,-45.344 5212.82,-45.1701 5204.43,-38.6999 5202.22,-45.344"/>
<text text-anchor="middle" x="5189" y="-45.4" font-family="Times Roman,serif" font-size="14.00">o</text>
</g>
<!-- 76&#45;&gt;21 -->
<g id="edge156" class="edge"><title>76&#45;&gt;21</title>
<path fill="none" stroke="black" d="M5248.18,-51C5267.29,-51 5297.61,-51 5319.82,-51"/>
<polygon fill="black" stroke="black" points="5319.99,-54.5001 5329.99,-51 5319.99,-47.5001 5319.99,-54.5001"/>
<text text-anchor="middle" x="5289" y="-56.4" font-family="Times Roman,serif" font-size="14.00">u0020</text>
</g>
<!-- 48&#45;&gt;33 -->
<g id="edge102" class="edge"><title>48&#45;&gt;33</title>
<path fill="none" stroke="black" d="M3272.18,-72C3291.29,-72 3321.61,-72 3343.82,-72"/>
<polygon fill="black" stroke="black" points="3343.99,-75.5001 3353.99,-72 3343.99,-68.5001 3343.99,-75.5001"/>
<text text-anchor="middle" x="3313" y="-77.4" font-family="Times Roman,serif" font-size="14.00">d</text>
</g>
<!-- 53&#45;&gt;46 -->
<g id="edge112" class="edge"><title>53&#45;&gt;46</title>
<path fill="none" stroke="black" d="M4634.2,-25C4644.6,-25 4657.88,-25 4669.62,-25"/>
<polygon fill="black" stroke="black" points="4669.85,-28.5001 4679.85,-25 4669.85,-21.5001 4669.85,-28.5001"/>
<text text-anchor="middle" x="4657" y="-30.4" font-family="Times Roman,serif" font-size="14.00">g</text>
</g>
<!-- 74&#45;&gt;31 -->
<g id="edge152" class="edge"><title>74&#45;&gt;31</title>
<path fill="none" stroke="black" d="M4152.2,-25C4162.6,-25 4175.88,-25 4187.62,-25"/>
<polygon fill="black" stroke="black" points="4187.85,-28.5001 4197.85,-25 4187.85,-21.5001 4187.85,-28.5001"/>
<text text-anchor="middle" x="4175" y="-30.4" font-family="Times Roman,serif" font-size="14.00">b</text>
</g>
<!-- 55&#45;&gt;40 -->
<g id="edge116" class="edge"><title>55&#45;&gt;40</title>
<path fill="none" stroke="black" d="M1954.01,-41C1962.84,-41 1973.69,-41 1983.6,-41"/>
<polygon fill="black" stroke="black" points="1983.85,-44.5001 1993.85,-41 1983.85,-37.5001 1983.85,-44.5001"/>
<text text-anchor="middle" x="1974" y="-46.4" font-family="Times Roman,serif" font-size="14.00">l</text>
</g>
<!-- 61&#45;&gt;9 -->
<g id="edge128" class="edge"><title>61&#45;&gt;9</title>
<path fill="none" stroke="black" d="M3272.18,-18C3291.29,-18 3321.61,-18 3343.82,-18"/>
<polygon fill="black" stroke="black" points="3343.99,-21.5001 3353.99,-18 3343.99,-14.5001 3343.99,-21.5001"/>
<text text-anchor="middle" x="3313" y="-23.4" font-family="Times Roman,serif" font-size="14.00">u0020</text>
</g>
<!-- 57&#45;&gt;1 -->
<g id="edge120" class="edge"><title>57&#45;&gt;1</title>
<path fill="none" stroke="black" d="M3670.2,-72C3680.6,-72 3693.88,-72 3705.62,-72"/>
<polygon fill="black" stroke="black" points="3705.85,-75.5001 3715.85,-72 3705.85,-68.5001 3705.85,-75.5001"/>
<text text-anchor="middle" x="3693" y="-77.4" font-family="Times Roman,serif" font-size="14.00">e</text>
</g>
<!-- 58&#45;&gt;76 -->
<g id="edge122" class="edge"><title>58&#45;&gt;76</title>
<path fill="none" stroke="black" d="M4093.07,-71C4113.09,-71 4146.35,-71 4175,-71 4175,-71 4175,-71 5148,-71 5166.87,-71 5187.51,-65.9382 5203.36,-60.9075"/>
<polygon fill="black" stroke="black" points="5204.65,-64.1647 5213.02,-57.6597 5202.42,-57.5299 5204.65,-64.1647"/>
<text text-anchor="middle" x="4657" y="-76.4" font-family="Times Roman,serif" font-size="14.00">y</text>
</g>
<!-- 60&#45;&gt;35 -->
<g id="edge126" class="edge"><title>60&#45;&gt;35</title>
<path fill="none" stroke="black" d="M5798.2,-51C5808.6,-51 5821.88,-51 5833.62,-51"/>
<polygon fill="black" stroke="black" points="5833.85,-54.5001 5843.85,-51 5833.85,-47.5001 5833.85,-54.5001"/>
<text text-anchor="middle" x="5821" y="-56.4" font-family="Times Roman,serif" font-size="14.00">g</text>
</g>
<!-- 65&#45;&gt;47 -->
<g id="edge136" class="edge"><title>65&#45;&gt;47</title>
<path fill="none" stroke="black" d="M5084.2,-25C5094.6,-25 5107.88,-25 5119.62,-25"/>
<polygon fill="black" stroke="black" points="5119.85,-28.5001 5129.85,-25 5119.85,-21.5001 5119.85,-28.5001"/>
<text text-anchor="middle" x="5107" y="-30.4" font-family="Times Roman,serif" font-size="14.00">h</text>
</g>
<!-- 66&#45;&gt;37 -->
<g id="edge138" class="edge"><title>66&#45;&gt;37</title>
<path fill="none" stroke="black" d="M1344.2,-41C1354.6,-41 1367.88,-41 1379.62,-41"/>
<polygon fill="black" stroke="black" points="1379.85,-44.5001 1389.85,-41 1379.85,-37.5001 1379.85,-44.5001"/>
<text text-anchor="middle" x="1367" y="-46.4" font-family="Times Roman,serif" font-size="14.00">e</text>
</g>
<!-- 67&#45;&gt;42 -->
<g id="edge140" class="edge"><title>67&#45;&gt;42</title>
<path fill="none" stroke="black" d="M2386.09,-41C2395.47,-41 2407.15,-41 2417.7,-41"/>
<polygon fill="black" stroke="black" points="2417.74,-44.5001 2427.74,-41 2417.74,-37.5001 2417.74,-44.5001"/>
<text text-anchor="middle" x="2407" y="-46.4" font-family="Times Roman,serif" font-size="14.00">f</text>
</g>
</g>
</svg>
