<svg xmlns="http://www.w3.org/2000/svg" xmlns:xlink="http://www.w3.org/1999/xlink" viewBox="0 0 800 429.56"><defs><style>.cls-1{fill:url(#Gradiente_sem_nome_34);}.cls-2{fill:url(#Gradiente_sem_nome_34-2);}.cls-3{fill:url(#Gradiente_sem_nome_34-3);}.cls-4{fill:url(#Gradiente_sem_nome_34-4);}.cls-5{fill:url(#Gradiente_sem_nome_34-5);}.cls-6{fill:url(#Gradiente_sem_nome_34-6);}.cls-7{fill:url(#Gradiente_sem_nome_34-7);}.cls-8{fill:url(#Gradiente_sem_nome_34-8);}.cls-9{fill:url(#Gradiente_sem_nome_34-9);}.cls-10{fill:url(#Gradiente_sem_nome_34-10);}.cls-11{fill:url(#Gradiente_sem_nome_34-11);}.cls-12{fill:url(#Gradiente_sem_nome_34-12);}.cls-13{fill:#1e1e1c;}</style><linearGradient id="Gradiente_sem_nome_34" x1="363.05" y1="402.22" x2="130.34" y2="-0.86" gradientUnits="userSpaceOnUse"><stop offset="0.02" stop-color="#ff263a"/><stop offset="0.53" stop-color="#47c128"/><stop offset="1" stop-color="#00a6e4"/></linearGradient><linearGradient id="Gradiente_sem_nome_34-2" x1="282.23" y1="402.29" x2="69.07" y2="33.09" xlink:href="#Gradiente_sem_nome_34"/><linearGradient id="Gradiente_sem_nome_34-3" x1="316.84" y1="403.4" x2="97.6" y2="23.67" xlink:href="#Gradiente_sem_nome_34"/><linearGradient id="Gradiente_sem_nome_34-4" x1="258.36" y1="416.46" x2="23.52" y2="9.71" xlink:href="#Gradiente_sem_nome_34"/><linearGradient id="Gradiente_sem_nome_34-5" x1="125.46" y1="476.4" x2="-84.29" y2="113.09" xlink:href="#Gradiente_sem_nome_34"/><linearGradient id="Gradiente_sem_nome_34-6" x1="278.69" y1="404.24" x2="67.87" y2="39.09" xlink:href="#Gradiente_sem_nome_34"/><linearGradient id="Gradiente_sem_nome_34-7" x1="149.57" y1="466.52" x2="-62.05" y2="99.98" xlink:href="#Gradiente_sem_nome_34"/><linearGradient id="Gradiente_sem_nome_34-8" x1="275.44" y1="406.34" x2="63.81" y2="39.79" xlink:href="#Gradiente_sem_nome_34"/><linearGradient id="Gradiente_sem_nome_34-9" x1="396.25" y1="349.08" x2="184.63" y2="-17.46" xlink:href="#Gradiente_sem_nome_34"/><linearGradient id="Gradiente_sem_nome_34-10" x1="232.34" y1="427.35" x2="20.72" y2="60.81" xlink:href="#Gradiente_sem_nome_34"/><linearGradient id="Gradiente_sem_nome_34-11" x1="123.71" y1="479.38" x2="-87.92" y2="112.84" xlink:href="#Gradiente_sem_nome_34"/><linearGradient id="Gradiente_sem_nome_34-12" x1="397.72" y1="348.95" x2="186.1" y2="-17.6" xlink:href="#Gradiente_sem_nome_34"/></defs><title>Asset 2</title><g id="Layer_2" data-name="Layer 2"><g id="Layer_1-2" data-name="Layer 1"><path class="cls-1" d="M116.46,86.94l.21.15a11.88,11.88,0,0,0,12.86,1,93,93,0,0,1,47-11.65,91.36,91.36,0,0,1,45.69,13.18,11.91,11.91,0,0,0,16.22-3.78l.13-.21A11.93,11.93,0,0,0,234.67,69a114.61,114.61,0,0,0-60.2-17,117.06,117.06,0,0,0-56.74,14.73A12.06,12.06,0,0,0,116.46,86.94Z"/><path class="cls-2" d="M264.29,123.49l-.24.25a11.74,11.74,0,0,0-2.47,12.4,96,96,0,0,1,6.84,35.63v86.17c0,51.3-40.58,94.26-91.86,95.24a93.8,93.8,0,0,1-95.5-93.67V170.05a93.11,93.11,0,0,1,7-35.44,12.19,12.19,0,0,0-3.56-14.18l-.19-.16a12,12,0,0,0-18.67,4.89,117.08,117.08,0,0,0-8.9,44.89v87.67c0,64.77,51.43,118.82,116.19,119.8a118.15,118.15,0,0,0,119.86-118V172A119,119,0,0,0,284,127.16,11.91,11.91,0,0,0,264.29,123.49Z"/><path class="cls-3" d="M15.05,197.23h.25a12.06,12.06,0,0,0,11.55-12.05v-11c0-81.43,65-149,146.44-149.78,82.21-.79,149.35,65.85,149.35,147.89v30a12,12,0,0,0,12.22,12h.29a12,12,0,0,0,11.83-12v-30C347,76.7,268.79-.92,173,0,78.22.93,2.5,79.61,2.5,174.44v10.75A12.06,12.06,0,0,0,15.05,197.23Z"/><path class="cls-4" d="M333.19,268.39h-.25a12,12,0,0,0-12.11,10.09C310,348.82,250.44,404,177.28,405.2a147,147,0,0,1-78.22-20.87,11.67,11.67,0,0,0-15.69,3.49c-.16.25-.33.49-.49.73a11.71,11.71,0,0,0,3.58,16.61,171.17,171.17,0,0,0,91.61,24.37c85-1.61,154.09-65.68,166.78-147.4A12,12,0,0,0,333.19,268.39Z"/><path class="cls-5" d="M53,356.3a11.82,11.82,0,0,0,.54-14.42A147,147,0,0,1,27.3,269a12.48,12.48,0,0,0-11.16-11.64A12.16,12.16,0,0,0,3,270.31a171,171,0,0,0,30.82,85.87,11.73,11.73,0,0,0,18.58.8Z"/><path class="cls-6" d="M127.31,268.37h-.24A12.06,12.06,0,0,0,115,280.42v4.09a21.74,21.74,0,0,0,21.74,21.74H177.3A64.25,64.25,0,0,0,241.55,242V187.57a64.24,64.24,0,0,0-64.25-64.25H136.75A21.74,21.74,0,0,0,115,145.05v67.64a12.07,12.07,0,0,0,11.84,12.06h.24a12,12,0,0,0,12.27-12.05v-65H177.3a39.91,39.91,0,0,1,39.91,39.91V242A39.91,39.91,0,0,1,177.3,281.9H139.36v-1.48A12.06,12.06,0,0,0,127.31,268.37Z"/><path class="cls-7" d="M12.52,241.67A12.52,12.52,0,1,0,0,229.15,12.52,12.52,0,0,0,12.52,241.67Z"/><path class="cls-8" d="M99,113.2a12.52,12.52,0,1,0-12.52-12.52A12.53,12.53,0,0,0,99,113.2Z"/><path class="cls-9" d="M254.55,116.16A12.52,12.52,0,1,0,242,103.64,12.53,12.53,0,0,0,254.55,116.16Z"/><path class="cls-10" d="M127.21,257.77a12.52,12.52,0,1,0-12.52-12.52A12.53,12.53,0,0,0,127.21,257.77Z"/><path class="cls-11" d="M64.15,363.7a12.52,12.52,0,1,0,12.52,12.52A12.52,12.52,0,0,0,64.15,363.7Z"/><path class="cls-12" d="M335.49,228.63A12.52,12.52,0,1,0,348,241.15,12.53,12.53,0,0,0,335.49,228.63Z"/><path class="cls-13" d="M421,269.47V143.69a2.64,2.64,0,0,1,2.63-2.64H465q7.47,0,13.26.49a79.44,79.44,0,0,1,10.61,1.57,48.84,48.84,0,0,1,9,2.95,69.19,69.19,0,0,1,8.35,4.42,54.57,54.57,0,0,1,15.92,15.13q12,16.71,12,40.48a78.94,78.94,0,0,1-4.43,27.11A60.08,60.08,0,0,1,517.26,254a54.92,54.92,0,0,1-19.45,13.36,65.79,65.79,0,0,1-25.35,4.72H423.61A2.64,2.64,0,0,1,421,269.47ZM454.38,240a2.64,2.64,0,0,0,2.64,2.63h11.7q15.72,0,23.88-9.13t8.15-26.43q0-17.69-8.25-27.12t-23.58-9.43H457a2.64,2.64,0,0,0-2.64,2.64Z"/><path class="cls-13" d="M575,143.69v17.12a2.64,2.64,0,0,1-2.63,2.64h-24a2.64,2.64,0,0,1-2.63-2.64V143.69a2.64,2.64,0,0,1,2.63-2.64h24A2.64,2.64,0,0,1,575,143.69Zm0,32.81v93a2.64,2.64,0,0,1-2.63,2.64h-24a2.64,2.64,0,0,1-2.63-2.64v-93a2.64,2.64,0,0,1,2.63-2.64h24A2.64,2.64,0,0,1,575,176.5Z"/><path class="cls-13" d="M690.48,173.77a2.64,2.64,0,0,1,2.63,2.64v83.87q0,8.27-.29,13.77a51.34,51.34,0,0,1-1.28,9.43,29.56,29.56,0,0,1-2.65,7,36,36,0,0,1-4.42,6.2A53.48,53.48,0,0,1,664.23,311a69.76,69.76,0,0,1-26.72,4.91,67.32,67.32,0,0,1-18.57-2.45,50.24,50.24,0,0,1-15-7,37.85,37.85,0,0,1-10.52-10.9,33.63,33.63,0,0,1-4.46-11,2.66,2.66,0,0,1,2.58-3.24h29.22a2.74,2.74,0,0,1,2.37,1.48q4.46,8.15,16.57,8.15,11.39,0,17.58-7t6.19-19.48V261.4a20.64,20.64,0,0,1-4.52,5.56,28.23,28.23,0,0,1-6.87,4.49,43.43,43.43,0,0,1-8.55,2.93,41.41,41.41,0,0,1-9.33,1.07,44.38,44.38,0,0,1-18.77-4,46.23,46.23,0,0,1-15.13-11.1,54.63,54.63,0,0,1-13.85-36.74,57.26,57.26,0,0,1,3.83-21.13,51.91,51.91,0,0,1,10.51-16.8,48.45,48.45,0,0,1,15.82-11.1,49,49,0,0,1,19.94-4q14.93,0,24.33,7.86a2.63,2.63,0,0,0,4.36-2h0a2.64,2.64,0,0,1,2.64-2.64Zm-50.81,24.07a23.39,23.39,0,0,0-9.43,1.88,23.09,23.09,0,0,0-7.57,5.25,24.93,24.93,0,0,0-5.11,7.92,25.38,25.38,0,0,0-1.86,9.7q0,11.08,6.68,18.32a22.23,22.23,0,0,0,17.09,7.23q10.6,0,17.29-6.93t6.68-17.83q0-11.28-6.58-18.42T639.67,197.84Z"/><path class="cls-13" d="M738.11,143.69v17.12a2.64,2.64,0,0,1-2.64,2.64h-24a2.64,2.64,0,0,1-2.64-2.64V143.69a2.64,2.64,0,0,1,2.64-2.64h24A2.64,2.64,0,0,1,738.11,143.69Zm0,32.81v93a2.64,2.64,0,0,1-2.64,2.64h-24a2.64,2.64,0,0,1-2.64-2.64v-93a2.64,2.64,0,0,1,2.64-2.64h24A2.64,2.64,0,0,1,738.11,176.5Z"/><path class="cls-13" d="M785.85,143.69v27.54a2.64,2.64,0,0,0,2.64,2.63h8.88A2.64,2.64,0,0,1,800,176.5v16.93a2.64,2.64,0,0,1-2.63,2.64h-8.88a2.63,2.63,0,0,0-2.64,2.63v70.77a2.64,2.64,0,0,1-2.63,2.64h-24a2.64,2.64,0,0,1-2.63-2.64V198.7a2.63,2.63,0,0,0-2.64-2.63h-9.07a2.64,2.64,0,0,1-2.64-2.64V176.5a2.64,2.64,0,0,1,2.64-2.64h9.07a2.64,2.64,0,0,0,2.64-2.63V143.69a2.64,2.64,0,0,1,2.63-2.64h24A2.64,2.64,0,0,1,785.85,143.69Z"/></g></g></svg>