<?xml version="1.0" encoding="utf-8"?>
<svg xmlns="http://www.w3.org/2000/svg" viewBox="4 197 1640.3375 456.407" width="1640.34px" height="456.407px" preserveAspectRatio="none"><g id="object-0" transform="matrix(0.9999999999999999, 0, 0, 0.9999999999999999, 0, 0)"><text fill="#FF671F" fill-opacity="1" font-family="Arial,Arial_MSFontService,sans-serif" font-style="normal" font-variant="normal" font-weight="700" font-stretch="normal" font-size="64" text-anchor="start" direction="ltr" writing-mode="lr-tb" unicode-bidi="normal" text-decoration="none" style="white-space: pre; font-size: 64px;" x="1120.7" y="639.407">Distilled </text><text fill="#FF671F" fill-opacity="1" font-family="Arial,Arial_MSFontService,sans-serif" font-style="normal" font-variant="normal" font-weight="700" font-stretch="normal" font-size="64" text-anchor="start" direction="ltr" writing-mode="lr-tb" unicode-bidi="normal" text-decoration="none" style="white-space: pre; font-size: 64px;" x="1406.15" y="638.367">Student</text><text fill="#FF671F" fill-opacity="1" font-family="Arial,Arial_MSFontService,sans-serif" font-style="normal" font-variant="normal" font-weight="700" font-stretch="normal" font-size="64" text-anchor="start" direction="ltr" writing-mode="lr-tb" unicode-bidi="normal" text-decoration="none" style="white-space: pre; font-size: 64px;" x="253.424" y="635.258">Teacher</text><path d="M 1370 233.5 C 1370 216.655 1383.88 203 1401 203 C 1418.12 203 1432 216.655 1432 233.5 C 1432 250.345 1418.12 264 1401 264 C 1383.88 264 1370 250.345 1370 233.5 Z" fill="#FF671F" fill-rule="evenodd" fill-opacity="1"/><path d="M 1506 233.5 C 1506 216.655 1519.66 203 1536.5 203 C 1553.34 203 1567 216.655 1567 233.5 C 1567 250.345 1553.34 264 1536.5 264 C 1519.66 264 1506 250.345 1506 233.5 Z" fill="#FF671F" fill-rule="evenodd" fill-opacity="1"/><path d="M 1234 233.5 C 1234 216.655 1247.88 203 1265 203 C 1282.12 203 1296 216.655 1296 233.5 C 1296 250.345 1282.12 264 1265 264 C 1247.88 264 1234 250.345 1234 233.5 Z" fill="#FF671F" fill-rule="evenodd" fill-opacity="1"/><path d="M 1265.5 264.499 L 1265.5 479.097" stroke="#595959" stroke-width="6.875" stroke-linecap="butt" stroke-linejoin="round" stroke-miterlimit="10" stroke-opacity="1" fill="none" fill-rule="evenodd"/><path d="M 1401.5 264.499 L 1401.5 479.097" stroke="#595959" stroke-width="6.875" stroke-linecap="butt" stroke-linejoin="round" stroke-miterlimit="10" stroke-opacity="1" fill="none" fill-rule="evenodd"/><path d="M 1537.5 264.499 L 1537.5 479.097" stroke="#595959" stroke-width="6.875" stroke-linecap="butt" stroke-linejoin="round" stroke-miterlimit="10" stroke-opacity="1" fill="none" fill-rule="evenodd"/><path d="M 1265.5 264.5 L 1401.38 479.1" stroke="#595959" stroke-width="6.875" stroke-linecap="butt" stroke-linejoin="round" stroke-miterlimit="10" stroke-opacity="1" fill="none" fill-rule="evenodd"/><path d="M 1265.5 479.101 L 1401.38 264.5" stroke="#595959" stroke-width="6.875" stroke-linecap="butt" stroke-linejoin="round" stroke-miterlimit="10" stroke-opacity="1" fill="none" fill-rule="evenodd" style="transform-box: fill-box; transform-origin: 50% 50%;" transform="matrix(-1, 0, 0, -1, 0.000206, -0.000029)"/><path d="M 1401.5 264.5 L 1537.38 479.1" stroke="#595959" stroke-width="6.875" stroke-linecap="butt" stroke-linejoin="round" stroke-miterlimit="10" stroke-opacity="1" fill="none" fill-rule="evenodd"/><path d="M 1401.5 479.101 L 1537.38 264.5" stroke="#666666" stroke-width="6.875" stroke-linecap="butt" stroke-linejoin="round" stroke-miterlimit="10" stroke-opacity="1" fill="none" fill-rule="evenodd" style="transform-box: fill-box; transform-origin: 50% 50%;" transform="matrix(-1, 0, 0, -1, 0.000033, -0.000029)"/><path d="M 1265.5 264.5 L 1537.26 479.1" stroke="#595959" stroke-width="6.875" stroke-linecap="butt" stroke-linejoin="round" stroke-miterlimit="10" stroke-opacity="1" fill="none" fill-rule="evenodd"/><path d="M 1265.5 479.101 L 1537.26 264.5" stroke="#595959" stroke-width="6.875" stroke-linecap="butt" stroke-linejoin="round" stroke-miterlimit="10" stroke-opacity="1" fill="none" fill-rule="evenodd" style="transform-box: fill-box; transform-origin: 50% 50%;" transform="matrix(-1, 0, 0, -1, 0.000022, -0.000029)"/><path d="M 1370 509.5 C 1370 492.66 1383.88 479 1401 479 C 1418.12 479 1432 492.66 1432 509.5 C 1432 526.34 1418.12 540 1401 540 C 1383.88 540 1370 526.34 1370 509.5 Z" fill="#FF671F" fill-rule="evenodd" fill-opacity="1"/><path d="M 1506 509.5 C 1506 492.66 1519.66 479 1536.5 479 C 1553.34 479 1567 492.66 1567 509.5 C 1567 526.34 1553.34 540 1536.5 540 C 1519.66 540 1506 526.34 1506 509.5 Z" fill="#FF671F" fill-rule="evenodd" fill-opacity="1"/><path d="M 1234 509.5 C 1234 492.66 1247.88 479 1265 479 C 1282.12 479 1296 492.66 1296 509.5 C 1296 526.34 1282.12 540 1265 540 C 1247.88 540 1234 526.34 1234 509.5 Z" fill="#FF671F" fill-rule="evenodd" fill-opacity="1"/><path d="M 140 227.5 C 140 210.655 153.655 197 170.5 197 C 187.345 197 201 210.655 201 227.5 C 201 244.345 187.345 258 170.5 258 C 153.655 258 140 244.345 140 227.5 Z" fill="#FF671F" fill-rule="evenodd" fill-opacity="1"/><path d="M 276 227.5 C 276 210.655 289.655 197 306.5 197 C 323.345 197 337 210.655 337 227.5 C 337 244.345 323.345 258 306.5 258 C 289.655 258 276 244.345 276 227.5 Z" fill="#FF671F" fill-rule="evenodd" fill-opacity="1"/><path d="M 4 227.5 C 4 210.655 17.655 197 34.5 197 C 51.345 197 65 210.655 65 227.5 C 65 244.345 51.345 258 34.5 258 C 17.655 258 4 244.345 4 227.5 Z" fill="#FF671F" fill-rule="evenodd" fill-opacity="1"/><path d="M 35.5 258.5 L 35.5 473.1" stroke="#595959" stroke-width="6.875" stroke-linecap="butt" stroke-linejoin="round" stroke-miterlimit="10" stroke-opacity="1" fill="none" fill-rule="evenodd"/><path d="M 170.5 258.5 L 170.5 473.1" stroke="#595959" stroke-width="6.875" stroke-linecap="butt" stroke-linejoin="round" stroke-miterlimit="10" stroke-opacity="1" fill="none" fill-rule="evenodd"/><path d="M 306.5 258.5 L 306.5 473.1" stroke="#595959" stroke-width="6.875" stroke-linecap="butt" stroke-linejoin="round" stroke-miterlimit="10" stroke-opacity="1" fill="none" fill-rule="evenodd"/><path d="M 35.5 258.5 L 171.382 473.1" stroke="#595959" stroke-width="6.875" stroke-linecap="butt" stroke-linejoin="round" stroke-miterlimit="10" stroke-opacity="1" fill="none" fill-rule="evenodd"/><path d="M 35.5 473.101 L 171.382 258.5" stroke="#595959" stroke-width="6.875" stroke-linecap="butt" stroke-linejoin="round" stroke-miterlimit="10" stroke-opacity="1" fill="none" fill-rule="evenodd" style="transform-box: fill-box; transform-origin: 50% 50%;" transform="matrix(-1, 0, 0, -1, 0.000003, 0.00003)"/><path d="M 170.5 258.5 L 306.382 473.1" stroke="#595959" stroke-width="6.875" stroke-linecap="butt" stroke-linejoin="round" stroke-miterlimit="10" stroke-opacity="1" fill="none" fill-rule="evenodd"/><path d="M 170.5 473.101 L 306.382 258.5" stroke="#666666" stroke-width="6.875" stroke-linecap="butt" stroke-linejoin="round" stroke-miterlimit="10" stroke-opacity="1" fill="none" fill-rule="evenodd" style="transform-box: fill-box; transform-origin: 50% 50%;" transform="matrix(-1, 0, 0, -1, 0.000001, 0.00003)"/><path d="M 35.5 258.5 L 307.264 473.1" stroke="#595959" stroke-width="6.875" stroke-linecap="butt" stroke-linejoin="round" stroke-miterlimit="10" stroke-opacity="1" fill="none" fill-rule="evenodd"/><path d="M 35.5 473.101 L 307.264 258.5" stroke="#595959" stroke-width="6.875" stroke-linecap="butt" stroke-linejoin="round" stroke-miterlimit="10" stroke-opacity="1" fill="none" fill-rule="evenodd" style="transform-box: fill-box; transform-origin: 50% 50%;" transform="matrix(-1, 0, 0, -1, -0.000012, 0.00003)"/><path d="M 140 503.5 C 140 486.66 153.655 473 170.5 473 C 187.345 473 201 486.66 201 503.5 C 201 520.34 187.345 534 170.5 534 C 153.655 534 140 520.34 140 503.5 Z" fill="#FF671F" fill-rule="evenodd" fill-opacity="1"/><path d="M 276 503.5 C 276 486.66 289.655 473 306.5 473 C 323.345 473 337 486.66 337 503.5 C 337 520.34 323.345 534 306.5 534 C 289.655 534 276 520.34 276 503.5 Z" fill="#FF671F" fill-rule="evenodd" fill-opacity="1"/><path d="M 4 503.5 C 4 486.66 17.655 473 34.5 473 C 51.345 473 65 486.66 65 503.5 C 65 520.34 51.345 534 34.5 534 C 17.655 534 4 520.34 4 503.5 Z" fill="#FF671F" fill-rule="evenodd" fill-opacity="1"/><path d="M 306.5 258.5 L 442.372 473.12" stroke="#595959" stroke-width="6.875" stroke-linecap="butt" stroke-linejoin="round" stroke-miterlimit="10" stroke-opacity="1" fill="none" fill-rule="evenodd"/><path d="M 35.5 258.5 L 443.117 473.12" stroke="#595959" stroke-width="6.875" stroke-linecap="butt" stroke-linejoin="round" stroke-miterlimit="10" stroke-opacity="1" fill="none" fill-rule="evenodd"/><path d="M 306.5 473.118 L 442.372 258.5" stroke="#595959" stroke-width="6.875" stroke-linecap="butt" stroke-linejoin="round" stroke-miterlimit="10" stroke-opacity="1" fill="none" fill-rule="evenodd" style="transform-box: fill-box; transform-origin: 50% 50%;" transform="matrix(-1, 0, 0, -1, -0.000031, -0.000022)"/><path d="M 170.5 258.5 L 442.245 473.12" stroke="#595959" stroke-width="6.875" stroke-linecap="butt" stroke-linejoin="round" stroke-miterlimit="10" stroke-opacity="1" fill="none" fill-rule="evenodd"/><path d="M 35.5 473.118 L 443.117 258.5" stroke="#595959" stroke-width="6.875" stroke-linecap="butt" stroke-linejoin="round" stroke-miterlimit="10" stroke-opacity="1" fill="none" fill-rule="evenodd" style="transform-box: fill-box; transform-origin: 50% 50%;" transform="matrix(-1, 0, 0, -1, -0.000011, -0.000022)"/><path d="M 35.5 473.118 L 578.99 258.5" stroke="#595959" stroke-width="6.875" stroke-linecap="butt" stroke-linejoin="round" stroke-miterlimit="10" stroke-opacity="1" fill="none" fill-rule="evenodd" style="transform-box: fill-box; transform-origin: 50% 50%;" transform="matrix(-1, 0, 0, -1, -0.000019, -0.000022)"/><path d="M 35.5 258.5 L 578.99 473.12" stroke="#595959" stroke-width="6.875" stroke-linecap="butt" stroke-linejoin="round" stroke-miterlimit="10" stroke-opacity="1" fill="none" fill-rule="evenodd"/><path d="M 35.497 473.118 L 714.86 258.5" stroke="#595959" stroke-width="6.875" stroke-linecap="butt" stroke-linejoin="round" stroke-miterlimit="10" stroke-opacity="1" fill="none" fill-rule="evenodd" style="transform-box: fill-box; transform-origin: 50% 50%;" transform="matrix(-1, 0, 0, -1, -0.000009, -0.000022)"/><path d="M 35.5 258.5 L 714.86 473.12" stroke="#595959" stroke-width="6.875" stroke-linecap="butt" stroke-linejoin="round" stroke-miterlimit="10" stroke-opacity="1" fill="none" fill-rule="evenodd"/><path d="M 170.5 258.5 L 578.117 473.12" stroke="#595959" stroke-width="6.875" stroke-linecap="butt" stroke-linejoin="round" stroke-miterlimit="10" stroke-opacity="1" fill="none" fill-rule="evenodd"/><path d="M 170.5 258.5 L 713.99 473.12" stroke="#595959" stroke-width="6.875" stroke-linecap="butt" stroke-linejoin="round" stroke-miterlimit="10" stroke-opacity="1" fill="none" fill-rule="evenodd"/><path d="M 306.5 258.5 L 578.245 473.12" stroke="#595959" stroke-width="6.875" stroke-linecap="butt" stroke-linejoin="round" stroke-miterlimit="10" stroke-opacity="1" fill="none" fill-rule="evenodd"/><path d="M 306.5 258.5 L 714.12 473.12" stroke="#595959" stroke-width="6.875" stroke-linecap="butt" stroke-linejoin="round" stroke-miterlimit="10" stroke-opacity="1" fill="none" fill-rule="evenodd"/><path d="M 170.5 473.118 L 442.245 258.5" stroke="#595959" stroke-width="6.875" stroke-linecap="butt" stroke-linejoin="round" stroke-miterlimit="10" stroke-opacity="1" fill="none" fill-rule="evenodd" style="transform-box: fill-box; transform-origin: 50% 50%;" transform="matrix(-1, 0, 0, -1, 0.000004, -0.000022)"/><path d="M 170.5 473.118 L 578.117 258.5" stroke="#595959" stroke-width="6.875" stroke-linecap="butt" stroke-linejoin="round" stroke-miterlimit="10" stroke-opacity="1" fill="none" fill-rule="evenodd" style="transform-box: fill-box; transform-origin: 50% 50%;" transform="matrix(-1, 0, 0, -1, -0.000029, -0.000022)"/><path d="M 170.5 473.118 L 713.99 258.5" stroke="#595959" stroke-width="6.875" stroke-linecap="butt" stroke-linejoin="round" stroke-miterlimit="10" stroke-opacity="1" fill="none" fill-rule="evenodd" style="transform-box: fill-box; transform-origin: 50% 50%;" transform="matrix(-1, 0, 0, -1, -0.000037, -0.000022)"/><path d="M 306.5 473.118 L 578.245 258.5" stroke="#595959" stroke-width="6.875" stroke-linecap="butt" stroke-linejoin="round" stroke-miterlimit="10" stroke-opacity="1" fill="none" fill-rule="evenodd" style="transform-box: fill-box; transform-origin: 50% 50%;" transform="matrix(-1, 0, 0, -1, -0.000038, -0.000022)"/><path d="M 547 227.5 C 547 210.655 560.879 197 578 197 C 595.121 197 609 210.655 609 227.5 C 609 244.345 595.121 258 578 258 C 560.879 258 547 244.345 547 227.5 Z" fill="#FF671F" fill-rule="evenodd" fill-opacity="1"/><path d="M 683 227.5 C 683 210.655 696.879 197 714 197 C 731.12 197 745 210.655 745 227.5 C 745 244.345 731.12 258 714 258 C 696.879 258 683 244.345 683 227.5 Z" fill="#FF671F" fill-rule="evenodd" fill-opacity="1"/><path d="M 411 227.5 C 411 210.655 424.879 197 442 197 C 459.121 197 473 210.655 473 227.5 C 473 244.345 459.121 258 442 258 C 424.879 258 411 244.345 411 227.5 Z" fill="#FF671F" fill-rule="evenodd" fill-opacity="1"/><path d="M 442.5 258.5 L 442.5 473.1" stroke="#595959" stroke-width="6.875" stroke-linecap="butt" stroke-linejoin="round" stroke-miterlimit="10" stroke-opacity="1" fill="none" fill-rule="evenodd"/><path d="M 578.5 258.5 L 578.5 473.1" stroke="#595959" stroke-width="6.875" stroke-linecap="butt" stroke-linejoin="round" stroke-miterlimit="10" stroke-opacity="1" fill="none" fill-rule="evenodd"/><path d="M 714.501 258.5 L 714.501 473.1" stroke="#595959" stroke-width="6.875" stroke-linecap="butt" stroke-linejoin="round" stroke-miterlimit="10" stroke-opacity="1" fill="none" fill-rule="evenodd"/><path d="M 442.5 258.5 L 578.382 473.1" stroke="#595959" stroke-width="6.875" stroke-linecap="butt" stroke-linejoin="round" stroke-miterlimit="10" stroke-opacity="1" fill="none" fill-rule="evenodd"/><path d="M 442.5 473.101 L 578.382 258.5" stroke="#595959" stroke-width="6.875" stroke-linecap="butt" stroke-linejoin="round" stroke-miterlimit="10" stroke-opacity="1" fill="none" fill-rule="evenodd" style="transform-box: fill-box; transform-origin: 50% 50%;" transform="matrix(-1, 0, 0, -1, -0.000027, 0.00003)"/><path d="M 578.5 258.5 L 714.38 473.1" stroke="#595959" stroke-width="6.875" stroke-linecap="butt" stroke-linejoin="round" stroke-miterlimit="10" stroke-opacity="1" fill="none" fill-rule="evenodd"/><path d="M 578.498 473.101 L 714.38 258.5" stroke="#666666" stroke-width="6.875" stroke-linecap="butt" stroke-linejoin="round" stroke-miterlimit="10" stroke-opacity="1" fill="none" fill-rule="evenodd" style="transform-box: fill-box; transform-origin: 50% 50%;" transform="matrix(-1, 0, 0, -1, 0.000059, 0.00003)"/><path d="M 442.5 258.5 L 714.26 473.1" stroke="#595959" stroke-width="6.875" stroke-linecap="butt" stroke-linejoin="round" stroke-miterlimit="10" stroke-opacity="1" fill="none" fill-rule="evenodd"/><path d="M 442.496 473.101 L 714.26 258.5" stroke="#595959" stroke-width="6.875" stroke-linecap="butt" stroke-linejoin="round" stroke-miterlimit="10" stroke-opacity="1" fill="none" fill-rule="evenodd" style="transform-box: fill-box; transform-origin: 50% 50%;" transform="matrix(-1, 0, 0, -1, 0.000033, 0.00003)"/><path d="M 547 503.5 C 547 486.66 560.879 473 578 473 C 595.121 473 609 486.66 609 503.5 C 609 520.34 595.121 534 578 534 C 560.879 534 547 520.34 547 503.5 Z" fill="#FF671F" fill-rule="evenodd" fill-opacity="1"/><path d="M 683 503.5 C 683 486.66 696.879 473 714 473 C 731.12 473 745 486.66 745 503.5 C 745 520.34 731.12 534 714 534 C 696.879 534 683 520.34 683 503.5 Z" fill="#FF671F" fill-rule="evenodd" fill-opacity="1"/><path d="M 411 503.5 C 411 486.66 424.879 473 442 473 C 459.121 473 473 486.66 473 503.5 C 473 520.34 459.121 534 442 534 C 424.879 534 411 520.34 411 503.5 Z" fill="#FF671F" fill-rule="evenodd" fill-opacity="1"/><path d="M 306.503 473.118 L 714.12 258.5" stroke="#666666" stroke-width="6.875" stroke-linecap="butt" stroke-linejoin="round" stroke-miterlimit="10" stroke-opacity="1" fill="none" fill-rule="evenodd" style="transform-box: fill-box; transform-origin: 50% 50%;" transform="matrix(-1, 0, 0, -1, -0.000002, -0.000022)"/><path d="M 753.5 369.78 L 1198.21 369.78 L 1198.21 373.22 L 753.5 373.22 L 753.5 369.78 Z M 1193.63 357.75 L 1221.13 371.5 L 1193.63 385.25 L 1193.63 357.75 Z" fill="#ED2624" fill-rule="nonzero" fill-opacity="1"/><text fill="#666666" fill-opacity="1" font-family="Arial,Arial_MSFontService,sans-serif" font-style="normal" font-variant="normal" font-weight="400" font-stretch="normal" font-size="64" text-anchor="start" direction="ltr" writing-mode="lr-tb" unicode-bidi="normal" text-decoration="none" style="white-space: pre; font-size: 64px;" x="845.7" y="356">distillation</text></g></svg>