<svg width="1357" height="994" xmlns="http://www.w3.org/2000/svg" xmlns:xlink="http://www.w3.org/1999/xlink" xml:space="preserve" overflow="hidden"><g transform="translate(-1906 -449)"><g><text fill="#FF671F" fill-opacity="1" font-family="Arial,Arial_MSFontService,sans-serif" font-style="normal" font-variant="normal" font-weight="700" font-stretch="normal" font-size="64" text-anchor="start" direction="ltr" writing-mode="lr-tb" unicode-bidi="normal" text-decoration="none" transform="matrix(1 0 0 1 2830.17 1297)">Student</text><text fill="#FF671F" fill-opacity="1" font-family="Arial,Arial_MSFontService,sans-serif" font-style="normal" font-variant="normal" font-weight="700" font-stretch="normal" font-size="64" text-anchor="start" direction="ltr" writing-mode="lr-tb" unicode-bidi="normal" text-decoration="none" transform="matrix(1 0 0 1 2147.7 1297)">Teacher</text><path d="M2916 683C2916 665.879 2929.66 652 2946.5 652 2963.34 652 2977 665.879 2977 683 2977 700.121 2963.34 714 2946.5 714 2929.66 714 2916 700.121 2916 683Z" fill="#FF671F" fill-rule="evenodd" fill-opacity="1"/><path d="M3052 683C3052 665.879 3065.66 652 3082.5 652 3099.34 652 3113 665.879 3113 683 3113 700.121 3099.34 714 3082.5 714 3065.66 714 3052 700.121 3052 683Z" fill="#FF671F" fill-rule="evenodd" fill-opacity="1"/><path d="M2780 683C2780 665.879 2793.66 652 2810.5 652 2827.34 652 2841 665.879 2841 683 2841 700.121 2827.34 714 2810.5 714 2793.66 714 2780 700.121 2780 683Z" fill="#FF671F" fill-rule="evenodd" fill-opacity="1"/><path d="M2811.5 714.5 2811.5 929.102" stroke="#595959" stroke-width="6.875" stroke-linecap="butt" stroke-linejoin="round" stroke-miterlimit="10" stroke-opacity="1" fill="none" fill-rule="evenodd"/><path d="M2947.5 714.5 2947.5 929.102" stroke="#595959" stroke-width="6.875" stroke-linecap="butt" stroke-linejoin="round" stroke-miterlimit="10" stroke-opacity="1" fill="none" fill-rule="evenodd"/><path d="M3083.5 714.5 3083.5 929.102" stroke="#595959" stroke-width="6.875" stroke-linecap="butt" stroke-linejoin="round" stroke-miterlimit="10" stroke-opacity="1" fill="none" fill-rule="evenodd"/><path d="M2811.5 714.5 2947.38 929.102" stroke="#595959" stroke-width="6.875" stroke-linecap="butt" stroke-linejoin="round" stroke-miterlimit="10" stroke-opacity="1" fill="none" fill-rule="evenodd"/><path d="M0 0 135.882 214.601" stroke="#595959" stroke-width="6.875" stroke-linecap="butt" stroke-linejoin="round" stroke-miterlimit="10" stroke-opacity="1" fill="none" fill-rule="evenodd" transform="matrix(-1 0 0 1 2947.38 714.5)"/><path d="M2947.5 714.5 3083.38 929.102" stroke="#595959" stroke-width="6.875" stroke-linecap="butt" stroke-linejoin="round" stroke-miterlimit="10" stroke-opacity="1" fill="none" fill-rule="evenodd"/><path d="M0 0 135.882 214.601" stroke="#666666" stroke-width="6.875" stroke-linecap="butt" stroke-linejoin="round" stroke-miterlimit="10" stroke-opacity="1" fill="none" fill-rule="evenodd" transform="matrix(-1 0 0 1 3083.38 714.5)"/><path d="M2811.5 714.5 3083.26 929.102" stroke="#595959" stroke-width="6.875" stroke-linecap="butt" stroke-linejoin="round" stroke-miterlimit="10" stroke-opacity="1" fill="none" fill-rule="evenodd"/><path d="M0 0 271.764 214.601" stroke="#595959" stroke-width="6.875" stroke-linecap="butt" stroke-linejoin="round" stroke-miterlimit="10" stroke-opacity="1" fill="none" fill-rule="evenodd" transform="matrix(-1 0 0 1 3083.26 714.5)"/><path d="M2916 959C2916 941.879 2929.66 928 2946.5 928 2963.34 928 2977 941.879 2977 959 2977 976.121 2963.34 990 2946.5 990 2929.66 990 2916 976.121 2916 959Z" fill="#FF671F" fill-rule="evenodd" fill-opacity="1"/><path d="M3052 959C3052 941.879 3065.66 928 3082.5 928 3099.34 928 3113 941.879 3113 959 3113 976.121 3099.34 990 3082.5 990 3065.66 990 3052 976.121 3052 959Z" fill="#FF671F" fill-rule="evenodd" fill-opacity="1"/><path d="M2780 959C2780 941.879 2793.66 928 2810.5 928 2827.34 928 2841 941.879 2841 959 2841 976.121 2827.34 990 2810.5 990 2793.66 990 2780 976.121 2780 959Z" fill="#FF671F" fill-rule="evenodd" fill-opacity="1"/><text fill="#000000" fill-opacity="1" font-family="Cambria Math,Cambria Math_MSFontService,sans-serif" font-style="normal" font-variant="normal" font-weight="400" font-stretch="normal" font-size="64" text-anchor="start" direction="ltr" writing-mode="lr-tb" unicode-bidi="normal" text-decoration="none" transform="matrix(1 0 0 1 2930.36 535)">ğ’™</text><text fill="#000000" fill-opacity="1" font-family="Cambria Math,Cambria Math_MSFontService,sans-serif" font-style="normal" font-variant="normal" font-weight="400" font-stretch="normal" font-size="64" text-anchor="start" direction="ltr" writing-mode="lr-tb" unicode-bidi="normal" text-decoration="none" transform="matrix(1 0 0 1 2930.36 1169)">ğ‘¦</text><path d="M1.71875-7.29672e-06 1.71901 62.0919-1.71849 62.0919-1.71875 7.29672e-06ZM13.7502 57.5085 0.000360892 85.0086-13.7498 57.5086Z" fill="#ED2624" fill-rule="nonzero" fill-opacity="1" transform="matrix(-1 0 0 1 2947.5 557.5)"/><path d="M1.71875-7.29672e-06 1.71901 62.0919-1.71849 62.0919-1.71875 7.29672e-06ZM13.7502 57.5085 0.000360892 85.0086-13.7498 57.5086Z" fill="#ED2624" fill-rule="nonzero" fill-opacity="1" transform="matrix(-1 0 0 1 2947.5 1005.5)"/><text fill="#000000" fill-opacity="1" font-family="Cambria Math,Cambria Math_MSFontService,sans-serif" font-style="normal" font-variant="normal" font-weight="400" font-stretch="normal" font-size="64" text-anchor="start" direction="ltr" writing-mode="lr-tb" unicode-bidi="normal" text-decoration="none" transform="matrix(1 0 0 1 2153.51 1397)">ğ‘“</text><path d="M2256.81 1348.75C2262.89 1350.35 2267.56 1353.82 2270.82 1359.14 2274.08 1364.46 2275.72 1370.89 2275.72 1378.41 2275.72 1385.95 2274.09 1392.37 2270.84 1397.67 2267.59 1402.97 2262.91 1406.43 2256.81 1408.03L2256.06 1405.63C2260.87 1404.02 2264.45 1400.85 2266.79 1396.13 2269.14 1391.4 2270.31 1385.39 2270.31 1378.09 2270.31 1371.05 2269.14 1365.2 2266.81 1360.55 2264.48 1355.89 2260.86 1352.76 2255.97 1351.16ZM2215.44 1348.75 2216.28 1351.16C2211.41 1352.76 2207.8 1355.89 2205.46 1360.55 2203.11 1365.2 2201.94 1371.05 2201.94 1378.09 2201.94 1385.39 2203.11 1391.4 2205.46 1396.13 2207.8 1400.85 2211.38 1404.02 2216.19 1405.63L2215.44 1408.03C2209.34 1406.43 2204.66 1402.97 2201.41 1397.67 2198.16 1392.37 2196.53 1385.95 2196.53 1378.41 2196.53 1370.89 2198.16 1364.46 2201.42 1359.14 2204.69 1353.82 2209.36 1350.35 2215.44 1348.75Z" fill="#000000" fill-rule="evenodd" fill-opacity="1"/><text fill="#000000" fill-opacity="1" font-family="Cambria Math,Cambria Math_MSFontService,sans-serif" font-style="normal" font-variant="normal" font-weight="400" font-stretch="normal" font-size="64" text-anchor="start" direction="ltr" writing-mode="lr-tb" unicode-bidi="normal" text-decoration="none" transform="matrix(1 0 0 1 2217.54 1397)">ğ’™</text><text fill="#000000" fill-opacity="1" font-family="Cambria Math,Cambria Math_MSFontService,sans-serif" font-style="normal" font-variant="normal" font-weight="400" font-stretch="normal" font-size="64" text-anchor="start" direction="ltr" writing-mode="lr-tb" unicode-bidi="normal" text-decoration="none" transform="matrix(1 0 0 1 2299.24 1397)">=</text><text fill="#000000" fill-opacity="1" font-family="Cambria Math,Cambria Math_MSFontService,sans-serif" font-style="normal" font-variant="normal" font-weight="400" font-stretch="normal" font-size="64" text-anchor="start" direction="ltr" writing-mode="lr-tb" unicode-bidi="normal" text-decoration="none" transform="matrix(1 0 0 1 2365.19 1397)">ğ‘¦</text><text fill="#000000" fill-opacity="1" font-family="Cambria Math,Cambria Math_MSFontService,sans-serif" font-style="normal" font-variant="normal" font-weight="400" font-stretch="normal" font-size="64" text-anchor="start" direction="ltr" writing-mode="lr-tb" unicode-bidi="normal" text-decoration="none" transform="matrix(1 0 0 1 2820.45 1397)">ğ‘”</text><path d="M2926.98 1348.75C2933.06 1350.35 2937.73 1353.82 2940.99 1359.14 2944.25 1364.46 2945.88 1370.89 2945.88 1378.41 2945.88 1385.95 2944.26 1392.37 2941.01 1397.67 2937.76 1402.97 2933.08 1406.43 2926.98 1408.03L2926.23 1405.63C2931.04 1404.02 2934.62 1400.85 2936.96 1396.13 2939.31 1391.4 2940.48 1385.39 2940.48 1378.09 2940.48 1371.05 2939.31 1365.2 2936.98 1360.55 2934.65 1355.89 2931.03 1352.76 2926.13 1351.16ZM2885.61 1348.75 2886.45 1351.16C2881.58 1352.76 2877.97 1355.89 2875.63 1360.55 2873.28 1365.2 2872.11 1371.05 2872.11 1378.09 2872.11 1385.39 2873.28 1391.4 2875.63 1396.13 2877.97 1400.85 2881.55 1404.02 2886.36 1405.63L2885.61 1408.03C2879.51 1406.43 2874.83 1402.97 2871.58 1397.67 2868.33 1392.37 2866.7 1385.95 2866.7 1378.41 2866.7 1370.89 2868.33 1364.46 2871.59 1359.14 2874.85 1353.82 2879.53 1350.35 2885.61 1348.75Z" fill="#000000" fill-rule="evenodd" fill-opacity="1"/><text fill="#000000" fill-opacity="1" font-family="Cambria Math,Cambria Math_MSFontService,sans-serif" font-style="normal" font-variant="normal" font-weight="400" font-stretch="normal" font-size="64" text-anchor="start" direction="ltr" writing-mode="lr-tb" unicode-bidi="normal" text-decoration="none" transform="matrix(1 0 0 1 2887.71 1397)">ğ’™</text><text fill="#000000" fill-opacity="1" font-family="Cambria Math,Cambria Math_MSFontService,sans-serif" font-style="normal" font-variant="normal" font-weight="400" font-stretch="normal" font-size="64" text-anchor="start" direction="ltr" writing-mode="lr-tb" unicode-bidi="normal" text-decoration="none" transform="matrix(1 0 0 1 2969.41 1397)">=</text><text fill="#000000" fill-opacity="1" font-family="Cambria Math,Cambria Math_MSFontService,sans-serif" font-style="normal" font-variant="normal" font-weight="400" font-stretch="normal" font-size="64" text-anchor="start" direction="ltr" writing-mode="lr-tb" unicode-bidi="normal" text-decoration="none" transform="matrix(1 0 0 1 3035.36 1397)">ğ‘¦</text><path d="M2044 677C2044 659.879 2057.66 646 2074.5 646 2091.34 646 2105 659.879 2105 677 2105 694.121 2091.34 708 2074.5 708 2057.66 708 2044 694.121 2044 677Z" fill="#FF671F" fill-rule="evenodd" fill-opacity="1"/><path d="M2179 677C2179 659.879 2192.88 646 2210 646 2227.12 646 2241 659.879 2241 677 2241 694.121 2227.12 708 2210 708 2192.88 708 2179 694.121 2179 677Z" fill="#FF671F" fill-rule="evenodd" fill-opacity="1"/><path d="M1908 677C1908 659.879 1921.66 646 1938.5 646 1955.34 646 1969 659.879 1969 677 1969 694.121 1955.34 708 1938.5 708 1921.66 708 1908 694.121 1908 677Z" fill="#FF671F" fill-rule="evenodd" fill-opacity="1"/><path d="M1938.5 708.5 1938.5 923.101" stroke="#595959" stroke-width="6.875" stroke-linecap="butt" stroke-linejoin="round" stroke-miterlimit="10" stroke-opacity="1" fill="none" fill-rule="evenodd"/><path d="M2074.5 708.5 2074.5 923.101" stroke="#595959" stroke-width="6.875" stroke-linecap="butt" stroke-linejoin="round" stroke-miterlimit="10" stroke-opacity="1" fill="none" fill-rule="evenodd"/><path d="M2210.5 708.5 2210.5 923.101" stroke="#595959" stroke-width="6.875" stroke-linecap="butt" stroke-linejoin="round" stroke-miterlimit="10" stroke-opacity="1" fill="none" fill-rule="evenodd"/><path d="M1938.5 708.5 2074.38 923.101" stroke="#595959" stroke-width="6.875" stroke-linecap="butt" stroke-linejoin="round" stroke-miterlimit="10" stroke-opacity="1" fill="none" fill-rule="evenodd"/><path d="M0 0 135.882 214.601" stroke="#595959" stroke-width="6.875" stroke-linecap="butt" stroke-linejoin="round" stroke-miterlimit="10" stroke-opacity="1" fill="none" fill-rule="evenodd" transform="matrix(-1 0 0 1 2074.38 708.5)"/><path d="M2074.5 708.5 2210.38 923.101" stroke="#595959" stroke-width="6.875" stroke-linecap="butt" stroke-linejoin="round" stroke-miterlimit="10" stroke-opacity="1" fill="none" fill-rule="evenodd"/><path d="M0 0 135.882 214.601" stroke="#666666" stroke-width="6.875" stroke-linecap="butt" stroke-linejoin="round" stroke-miterlimit="10" stroke-opacity="1" fill="none" fill-rule="evenodd" transform="matrix(-1 0 0 1 2210.38 708.5)"/><path d="M1938.5 708.5 2210.26 923.101" stroke="#595959" stroke-width="6.875" stroke-linecap="butt" stroke-linejoin="round" stroke-miterlimit="10" stroke-opacity="1" fill="none" fill-rule="evenodd"/><path d="M0 0 271.764 214.601" stroke="#595959" stroke-width="6.875" stroke-linecap="butt" stroke-linejoin="round" stroke-miterlimit="10" stroke-opacity="1" fill="none" fill-rule="evenodd" transform="matrix(-1 0 0 1 2210.26 708.5)"/><path d="M2044 953C2044 935.879 2057.66 922 2074.5 922 2091.34 922 2105 935.879 2105 953 2105 970.121 2091.34 984 2074.5 984 2057.66 984 2044 970.121 2044 953Z" fill="#FF671F" fill-rule="evenodd" fill-opacity="1"/><path d="M2179 953C2179 935.879 2192.88 922 2210 922 2227.12 922 2241 935.879 2241 953 2241 970.121 2227.12 984 2210 984 2192.88 984 2179 970.121 2179 953Z" fill="#FF671F" fill-rule="evenodd" fill-opacity="1"/><path d="M1908 953C1908 935.879 1921.66 922 1938.5 922 1955.34 922 1969 935.879 1969 953 1969 970.121 1955.34 984 1938.5 984 1921.66 984 1908 970.121 1908 953Z" fill="#FF671F" fill-rule="evenodd" fill-opacity="1"/><path d="M2210.5 708.5 2346.37 923.118" stroke="#595959" stroke-width="6.875" stroke-linecap="butt" stroke-linejoin="round" stroke-miterlimit="10" stroke-opacity="1" fill="none" fill-rule="evenodd"/><path d="M1938.5 708.5 2346.12 923.118" stroke="#595959" stroke-width="6.875" stroke-linecap="butt" stroke-linejoin="round" stroke-miterlimit="10" stroke-opacity="1" fill="none" fill-rule="evenodd"/><path d="M0 0 135.872 214.618" stroke="#595959" stroke-width="6.875" stroke-linecap="butt" stroke-linejoin="round" stroke-miterlimit="10" stroke-opacity="1" fill="none" fill-rule="evenodd" transform="matrix(-1 0 0 1 2346.37 708.5)"/><path d="M2074.5 708.5 2346.24 923.118" stroke="#595959" stroke-width="6.875" stroke-linecap="butt" stroke-linejoin="round" stroke-miterlimit="10" stroke-opacity="1" fill="none" fill-rule="evenodd"/><path d="M0 0 407.617 214.618" stroke="#595959" stroke-width="6.875" stroke-linecap="butt" stroke-linejoin="round" stroke-miterlimit="10" stroke-opacity="1" fill="none" fill-rule="evenodd" transform="matrix(-1 0 0 1 2346.12 708.5)"/><path d="M0 0 543.49 214.618" stroke="#595959" stroke-width="6.875" stroke-linecap="butt" stroke-linejoin="round" stroke-miterlimit="10" stroke-opacity="1" fill="none" fill-rule="evenodd" transform="matrix(-1 0 0 1 2481.99 708.5)"/><path d="M1938.5 708.5 2481.99 923.118" stroke="#595959" stroke-width="6.875" stroke-linecap="butt" stroke-linejoin="round" stroke-miterlimit="10" stroke-opacity="1" fill="none" fill-rule="evenodd"/><path d="M0 0 679.363 214.618" stroke="#595959" stroke-width="6.875" stroke-linecap="butt" stroke-linejoin="round" stroke-miterlimit="10" stroke-opacity="1" fill="none" fill-rule="evenodd" transform="matrix(-1 0 0 1 2617.86 708.5)"/><path d="M1938.5 708.5 2617.86 923.118" stroke="#595959" stroke-width="6.875" stroke-linecap="butt" stroke-linejoin="round" stroke-miterlimit="10" stroke-opacity="1" fill="none" fill-rule="evenodd"/><path d="M2074.5 708.5 2482.12 923.118" stroke="#595959" stroke-width="6.875" stroke-linecap="butt" stroke-linejoin="round" stroke-miterlimit="10" stroke-opacity="1" fill="none" fill-rule="evenodd"/><path d="M2074.5 708.5 2617.99 923.118" stroke="#595959" stroke-width="6.875" stroke-linecap="butt" stroke-linejoin="round" stroke-miterlimit="10" stroke-opacity="1" fill="none" fill-rule="evenodd"/><path d="M2210.5 708.5 2482.24 923.118" stroke="#595959" stroke-width="6.875" stroke-linecap="butt" stroke-linejoin="round" stroke-miterlimit="10" stroke-opacity="1" fill="none" fill-rule="evenodd"/><path d="M2210.5 708.5 2618.12 923.118" stroke="#595959" stroke-width="6.875" stroke-linecap="butt" stroke-linejoin="round" stroke-miterlimit="10" stroke-opacity="1" fill="none" fill-rule="evenodd"/><path d="M0 0 271.745 214.618" stroke="#595959" stroke-width="6.875" stroke-linecap="butt" stroke-linejoin="round" stroke-miterlimit="10" stroke-opacity="1" fill="none" fill-rule="evenodd" transform="matrix(-1 0 0 1 2346.24 708.5)"/><path d="M0 0 407.617 214.618" stroke="#595959" stroke-width="6.875" stroke-linecap="butt" stroke-linejoin="round" stroke-miterlimit="10" stroke-opacity="1" fill="none" fill-rule="evenodd" transform="matrix(-1 0 0 1 2482.12 708.5)"/><path d="M0 0 543.49 214.618" stroke="#595959" stroke-width="6.875" stroke-linecap="butt" stroke-linejoin="round" stroke-miterlimit="10" stroke-opacity="1" fill="none" fill-rule="evenodd" transform="matrix(-1 0 0 1 2617.99 708.5)"/><path d="M0 0 271.745 214.618" stroke="#595959" stroke-width="6.875" stroke-linecap="butt" stroke-linejoin="round" stroke-miterlimit="10" stroke-opacity="1" fill="none" fill-rule="evenodd" transform="matrix(-1 0 0 1 2482.24 708.5)"/><path d="M2451 677C2451 659.879 2464.88 646 2482 646 2499.12 646 2513 659.879 2513 677 2513 694.121 2499.12 708 2482 708 2464.88 708 2451 694.121 2451 677Z" fill="#FF671F" fill-rule="evenodd" fill-opacity="1"/><path d="M2587 677C2587 659.879 2600.66 646 2617.5 646 2634.34 646 2648 659.879 2648 677 2648 694.121 2634.34 708 2617.5 708 2600.66 708 2587 694.121 2587 677Z" fill="#FF671F" fill-rule="evenodd" fill-opacity="1"/><path d="M2315 677C2315 659.879 2328.88 646 2346 646 2363.12 646 2377 659.879 2377 677 2377 694.121 2363.12 708 2346 708 2328.88 708 2315 694.121 2315 677Z" fill="#FF671F" fill-rule="evenodd" fill-opacity="1"/><path d="M2346.5 708.5 2346.5 923.101" stroke="#595959" stroke-width="6.875" stroke-linecap="butt" stroke-linejoin="round" stroke-miterlimit="10" stroke-opacity="1" fill="none" fill-rule="evenodd"/><path d="M2482.5 708.5 2482.5 923.101" stroke="#595959" stroke-width="6.875" stroke-linecap="butt" stroke-linejoin="round" stroke-miterlimit="10" stroke-opacity="1" fill="none" fill-rule="evenodd"/><path d="M2618.5 708.5 2618.5 923.101" stroke="#595959" stroke-width="6.875" stroke-linecap="butt" stroke-linejoin="round" stroke-miterlimit="10" stroke-opacity="1" fill="none" fill-rule="evenodd"/><path d="M2346.5 708.5 2482.38 923.101" stroke="#595959" stroke-width="6.875" stroke-linecap="butt" stroke-linejoin="round" stroke-miterlimit="10" stroke-opacity="1" fill="none" fill-rule="evenodd"/><path d="M0 0 135.882 214.601" stroke="#595959" stroke-width="6.875" stroke-linecap="butt" stroke-linejoin="round" stroke-miterlimit="10" stroke-opacity="1" fill="none" fill-rule="evenodd" transform="matrix(-1 0 0 1 2482.38 708.5)"/><path d="M2482.5 708.5 2618.38 923.101" stroke="#595959" stroke-width="6.875" stroke-linecap="butt" stroke-linejoin="round" stroke-miterlimit="10" stroke-opacity="1" fill="none" fill-rule="evenodd"/><path d="M0 0 135.882 214.601" stroke="#666666" stroke-width="6.875" stroke-linecap="butt" stroke-linejoin="round" stroke-miterlimit="10" stroke-opacity="1" fill="none" fill-rule="evenodd" transform="matrix(-1 0 0 1 2618.38 708.5)"/><path d="M2346.5 708.5 2618.26 923.101" stroke="#595959" stroke-width="6.875" stroke-linecap="butt" stroke-linejoin="round" stroke-miterlimit="10" stroke-opacity="1" fill="none" fill-rule="evenodd"/><path d="M0 0 271.764 214.601" stroke="#595959" stroke-width="6.875" stroke-linecap="butt" stroke-linejoin="round" stroke-miterlimit="10" stroke-opacity="1" fill="none" fill-rule="evenodd" transform="matrix(-1 0 0 1 2618.26 708.5)"/><path d="M2451 953C2451 935.879 2464.88 922 2482 922 2499.12 922 2513 935.879 2513 953 2513 970.121 2499.12 984 2482 984 2464.88 984 2451 970.121 2451 953Z" fill="#FF671F" fill-rule="evenodd" fill-opacity="1"/><path d="M2587 953C2587 935.879 2600.66 922 2617.5 922 2634.34 922 2648 935.879 2648 953 2648 970.121 2634.34 984 2617.5 984 2600.66 984 2587 970.121 2587 953Z" fill="#FF671F" fill-rule="evenodd" fill-opacity="1"/><path d="M2315 953C2315 935.879 2328.88 922 2346 922 2363.12 922 2377 935.879 2377 953 2377 970.121 2363.12 984 2346 984 2328.88 984 2315 970.121 2315 953Z" fill="#FF671F" fill-rule="evenodd" fill-opacity="1"/><path d="M0 0 407.617 214.618" stroke="#666666" stroke-width="6.875" stroke-linecap="butt" stroke-linejoin="round" stroke-miterlimit="10" stroke-opacity="1" fill="none" fill-rule="evenodd" transform="matrix(-1 0 0 1 2618.12 708.5)"/><text fill="#000000" fill-opacity="1" font-family="Cambria Math,Cambria Math_MSFontService,sans-serif" font-style="normal" font-variant="normal" font-weight="400" font-stretch="normal" font-size="64" text-anchor="start" direction="ltr" writing-mode="lr-tb" unicode-bidi="normal" text-decoration="none" transform="matrix(1 0 0 1 2258.5 530)">ğ’™</text><text fill="#000000" fill-opacity="1" font-family="Cambria Math,Cambria Math_MSFontService,sans-serif" font-style="normal" font-variant="normal" font-weight="400" font-stretch="normal" font-size="64" text-anchor="start" direction="ltr" writing-mode="lr-tb" unicode-bidi="normal" text-decoration="none" transform="matrix(1 0 0 1 2258.5 1164)">ğ‘¦</text><path d="M1.71875-7.29672e-06 1.71901 62.0919-1.71849 62.0919-1.71875 7.29672e-06ZM13.7502 57.5085 0.000360892 85.0086-13.7498 57.5086Z" fill="#ED2624" fill-rule="nonzero" fill-opacity="1" transform="matrix(-1 0 0 1 2275.5 552.5)"/><path d="M1.71875-7.29672e-06 1.71901 62.0919-1.71849 62.0919-1.71875 7.29672e-06ZM13.7502 57.5085 0.000360892 85.0086-13.7498 57.5086Z" fill="#ED2624" fill-rule="nonzero" fill-opacity="1" transform="matrix(-1 0 0 1 2275.5 1000.5)"/></g></g></svg>