<svg width="2792" height="1064" xmlns="http://www.w3.org/2000/svg" xmlns:xlink="http://www.w3.org/1999/xlink" xml:space="preserve" overflow="hidden"><g transform="translate(-297 -673)"><g><text fill="#FF671F" fill-opacity="1" font-family="Arial,Arial_MSFontService,sans-serif" font-style="normal" font-variant="normal" font-weight="700" font-stretch="normal" font-size="64" text-anchor="start" direction="ltr" writing-mode="lr-tb" unicode-bidi="normal" text-decoration="none" transform="matrix(1 0 0 1 2208.65 1520)">Non</text><text fill="#FF671F" fill-opacity="1" font-family="Arial,Arial_MSFontService,sans-serif" font-style="normal" font-variant="normal" font-weight="700" font-stretch="normal" font-size="64" text-anchor="start" direction="ltr" writing-mode="lr-tb" unicode-bidi="normal" text-decoration="none" transform="matrix(1 0 0 1 2332.97 1520)">-</text><text fill="#FF671F" fill-opacity="1" font-family="Arial,Arial_MSFontService,sans-serif" font-style="normal" font-variant="normal" font-weight="700" font-stretch="normal" font-size="64" text-anchor="start" direction="ltr" writing-mode="lr-tb" unicode-bidi="normal" text-decoration="none" transform="matrix(1 0 0 1 2354.17 1520)">Distilled </text><text fill="#FF671F" fill-opacity="1" font-family="Arial,Arial_MSFontService,sans-serif" font-style="normal" font-variant="normal" font-weight="700" font-stretch="normal" font-size="64" text-anchor="start" direction="ltr" writing-mode="lr-tb" unicode-bidi="normal" text-decoration="none" transform="matrix(1 0 0 1 2277.97 1597)">Student</text><text fill="#FF671F" fill-opacity="1" font-family="Arial,Arial_MSFontService,sans-serif" font-style="normal" font-variant="normal" font-weight="700" font-stretch="normal" font-size="64" text-anchor="start" direction="ltr" writing-mode="lr-tb" unicode-bidi="normal" text-decoration="none" transform="matrix(1 0 0 1 1561.95 1514)">Distilled </text><text fill="#FF671F" fill-opacity="1" font-family="Arial,Arial_MSFontService,sans-serif" font-style="normal" font-variant="normal" font-weight="700" font-stretch="normal" font-size="64" text-anchor="start" direction="ltr" writing-mode="lr-tb" unicode-bidi="normal" text-decoration="none" transform="matrix(1 0 0 1 1558.51 1591)">Student</text><text fill="#FF671F" fill-opacity="1" font-family="Arial,Arial_MSFontService,sans-serif" font-style="normal" font-variant="normal" font-weight="700" font-stretch="normal" font-size="64" text-anchor="start" direction="ltr" writing-mode="lr-tb" unicode-bidi="normal" text-decoration="none" transform="matrix(1 0 0 1 540.835 1520)">Teacher</text><path d="M1667 906.5C1667 889.655 1680.88 876 1698 876 1715.12 876 1729 889.655 1729 906.5 1729 923.345 1715.12 937 1698 937 1680.88 937 1667 923.345 1667 906.5Z" fill="#FF671F" fill-rule="evenodd" fill-opacity="1"/><path d="M1803 906.5C1803 889.655 1816.66 876 1833.5 876 1850.34 876 1864 889.655 1864 906.5 1864 923.345 1850.34 937 1833.5 937 1816.66 937 1803 923.345 1803 906.5Z" fill="#FF671F" fill-rule="evenodd" fill-opacity="1"/><path d="M1531 906.5C1531 889.655 1544.88 876 1562 876 1579.12 876 1593 889.655 1593 906.5 1593 923.345 1579.12 937 1562 937 1544.88 937 1531 923.345 1531 906.5Z" fill="#FF671F" fill-rule="evenodd" fill-opacity="1"/><path d="M1562.5 937.5 1562.5 1152.1" stroke="#595959" stroke-width="6.875" stroke-linecap="butt" stroke-linejoin="round" stroke-miterlimit="10" stroke-opacity="1" fill="none" fill-rule="evenodd"/><path d="M1698.5 937.5 1698.5 1152.1" stroke="#595959" stroke-width="6.875" stroke-linecap="butt" stroke-linejoin="round" stroke-miterlimit="10" stroke-opacity="1" fill="none" fill-rule="evenodd"/><path d="M1834.5 937.5 1834.5 1152.1" stroke="#595959" stroke-width="6.875" stroke-linecap="butt" stroke-linejoin="round" stroke-miterlimit="10" stroke-opacity="1" fill="none" fill-rule="evenodd"/><path d="M1562.5 937.5 1698.38 1152.1" stroke="#595959" stroke-width="6.875" stroke-linecap="butt" stroke-linejoin="round" stroke-miterlimit="10" stroke-opacity="1" fill="none" fill-rule="evenodd"/><path d="M0 0 135.882 214.601" stroke="#595959" stroke-width="6.875" stroke-linecap="butt" stroke-linejoin="round" stroke-miterlimit="10" stroke-opacity="1" fill="none" fill-rule="evenodd" transform="matrix(-1 0 0 1 1698.38 937.5)"/><path d="M1698.5 937.5 1834.38 1152.1" stroke="#595959" stroke-width="6.875" stroke-linecap="butt" stroke-linejoin="round" stroke-miterlimit="10" stroke-opacity="1" fill="none" fill-rule="evenodd"/><path d="M0 0 135.882 214.601" stroke="#666666" stroke-width="6.875" stroke-linecap="butt" stroke-linejoin="round" stroke-miterlimit="10" stroke-opacity="1" fill="none" fill-rule="evenodd" transform="matrix(-1 0 0 1 1834.38 937.5)"/><path d="M1562.5 937.5 1834.26 1152.1" stroke="#595959" stroke-width="6.875" stroke-linecap="butt" stroke-linejoin="round" stroke-miterlimit="10" stroke-opacity="1" fill="none" fill-rule="evenodd"/><path d="M0 0 271.764 214.601" stroke="#595959" stroke-width="6.875" stroke-linecap="butt" stroke-linejoin="round" stroke-miterlimit="10" stroke-opacity="1" fill="none" fill-rule="evenodd" transform="matrix(-1 0 0 1 1834.26 937.5)"/><path d="M1667 1182.5C1667 1165.66 1680.88 1152 1698 1152 1715.12 1152 1729 1165.66 1729 1182.5 1729 1199.34 1715.12 1213 1698 1213 1680.88 1213 1667 1199.34 1667 1182.5Z" fill="#FF671F" fill-rule="evenodd" fill-opacity="1"/><path d="M1803 1182.5C1803 1165.66 1816.66 1152 1833.5 1152 1850.34 1152 1864 1165.66 1864 1182.5 1864 1199.34 1850.34 1213 1833.5 1213 1816.66 1213 1803 1199.34 1803 1182.5Z" fill="#FF671F" fill-rule="evenodd" fill-opacity="1"/><path d="M1531 1182.5C1531 1165.66 1544.88 1152 1562 1152 1579.12 1152 1593 1165.66 1593 1182.5 1593 1199.34 1579.12 1213 1562 1213 1544.88 1213 1531 1199.34 1531 1182.5Z" fill="#FF671F" fill-rule="evenodd" fill-opacity="1"/><text fill="#000000" fill-opacity="1" font-family="Cambria Math,Cambria Math_MSFontService,sans-serif" font-style="normal" font-variant="normal" font-weight="400" font-stretch="normal" font-size="64" text-anchor="start" direction="ltr" writing-mode="lr-tb" unicode-bidi="normal" text-decoration="none" transform="matrix(1 0 0 1 1681.53 759)">ğ’™</text><text fill="#000000" fill-opacity="1" font-family="Cambria Math,Cambria Math_MSFontService,sans-serif" font-style="normal" font-variant="normal" font-weight="400" font-stretch="normal" font-size="64" text-anchor="start" direction="ltr" writing-mode="lr-tb" unicode-bidi="normal" text-decoration="none" transform="matrix(1 0 0 1 1681.53 1392)">ğ‘¦</text><path d="M1.71875-7.29672e-06 1.71901 62.0919-1.71849 62.0919-1.71875 7.29672e-06ZM13.7502 57.5085 0.000360892 85.0086-13.7498 57.5086Z" fill="#ED2624" fill-rule="nonzero" fill-opacity="1" transform="matrix(-1 0 0 1 1698.5 781.5)"/><path d="M1.71875-7.29672e-06 1.71901 62.0919-1.71849 62.0919-1.71875 7.29672e-06ZM13.7502 57.5085 0.000360892 85.0086-13.7498 57.5086Z" fill="#ED2624" fill-rule="nonzero" fill-opacity="1" transform="matrix(-1 0 0 1 1698.5 1229.5)"/><text fill="#000000" fill-opacity="1" font-family="Cambria Math,Cambria Math_MSFontService,sans-serif" font-style="normal" font-variant="normal" font-weight="400" font-stretch="normal" font-size="64" text-anchor="start" direction="ltr" writing-mode="lr-tb" unicode-bidi="normal" text-decoration="none" transform="matrix(1 0 0 1 546.647 1689)">ğ‘“</text><path d="M649.947 1641.26C656.031 1642.86 660.702 1646.33 663.963 1651.65 667.223 1656.97 668.854 1663.39 668.854 1670.92 668.854 1678.46 667.229 1684.88 663.979 1690.18 660.729 1695.48 656.051 1698.94 649.947 1700.54L649.197 1698.13C654.01 1696.53 657.588 1693.36 659.932 1688.63 662.275 1683.9 663.447 1677.89 663.447 1670.6 663.447 1663.56 662.281 1657.71 659.947 1653.06 657.614 1648.4 653.999 1645.27 649.104 1643.67ZM608.578 1641.26 609.422 1643.67C604.547 1645.27 600.938 1648.4 598.594 1653.06 596.25 1657.71 595.078 1663.56 595.078 1670.6 595.078 1677.89 596.25 1683.9 598.594 1688.63 600.938 1693.36 604.516 1696.53 609.328 1698.13L608.578 1700.54C602.474 1698.94 597.797 1695.48 594.547 1690.18 591.297 1684.88 589.672 1678.46 589.672 1670.92 589.672 1663.39 591.302 1656.97 594.563 1651.65 597.823 1646.33 602.495 1642.86 608.578 1641.26Z" fill="#000000" fill-rule="evenodd" fill-opacity="1"/><text fill="#000000" fill-opacity="1" font-family="Cambria Math,Cambria Math_MSFontService,sans-serif" font-style="normal" font-variant="normal" font-weight="400" font-stretch="normal" font-size="64" text-anchor="start" direction="ltr" writing-mode="lr-tb" unicode-bidi="normal" text-decoration="none" transform="matrix(1 0 0 1 610.676 1689)">ğ’™</text><text fill="#000000" fill-opacity="1" font-family="Cambria Math,Cambria Math_MSFontService,sans-serif" font-style="normal" font-variant="normal" font-weight="400" font-stretch="normal" font-size="64" text-anchor="start" direction="ltr" writing-mode="lr-tb" unicode-bidi="normal" text-decoration="none" transform="matrix(1 0 0 1 692.374 1689)">=</text><text fill="#000000" fill-opacity="1" font-family="Cambria Math,Cambria Math_MSFontService,sans-serif" font-style="normal" font-variant="normal" font-weight="400" font-stretch="normal" font-size="64" text-anchor="start" direction="ltr" writing-mode="lr-tb" unicode-bidi="normal" text-decoration="none" transform="matrix(1 0 0 1 758.329 1689)">ğ‘¦</text><text fill="#000000" fill-opacity="1" font-family="Cambria Math,Cambria Math_MSFontService,sans-serif" font-style="normal" font-variant="normal" font-weight="400" font-stretch="normal" font-size="64" text-anchor="start" direction="ltr" writing-mode="lr-tb" unicode-bidi="normal" text-decoration="none" transform="matrix(1 0 0 1 1571.62 1689)">ğ‘”</text><path d="M1678.15 1641.26C1684.24 1642.86 1688.91 1646.33 1692.17 1651.65 1695.43 1656.97 1697.06 1663.39 1697.06 1670.92 1697.06 1678.46 1695.44 1684.88 1692.19 1690.18 1688.94 1695.48 1684.26 1698.94 1678.15 1700.54L1677.4 1698.13C1682.22 1696.53 1685.8 1693.36 1688.14 1688.63 1690.48 1683.9 1691.65 1677.89 1691.65 1670.6 1691.65 1663.56 1690.49 1657.71 1688.15 1653.06 1685.82 1648.4 1682.21 1645.27 1677.31 1643.67ZM1636.79 1641.26 1637.63 1643.67C1632.75 1645.27 1629.15 1648.4 1626.8 1653.06 1624.46 1657.71 1623.29 1663.56 1623.29 1670.6 1623.29 1677.89 1624.46 1683.9 1626.8 1688.63 1629.15 1693.36 1632.72 1696.53 1637.54 1698.13L1636.79 1700.54C1630.68 1698.94 1626 1695.48 1622.75 1690.18 1619.5 1684.88 1617.88 1678.46 1617.88 1670.92 1617.88 1663.39 1619.51 1656.97 1622.77 1651.65 1626.03 1646.33 1630.7 1642.86 1636.79 1641.26Z" fill="#000000" fill-rule="evenodd" fill-opacity="1"/><text fill="#000000" fill-opacity="1" font-family="Cambria Math,Cambria Math_MSFontService,sans-serif" font-style="normal" font-variant="normal" font-weight="400" font-stretch="normal" font-size="64" text-anchor="start" direction="ltr" writing-mode="lr-tb" unicode-bidi="normal" text-decoration="none" transform="matrix(1 0 0 1 1638.88 1689)">ğ’™</text><text fill="#000000" fill-opacity="1" font-family="Cambria Math,Cambria Math_MSFontService,sans-serif" font-style="normal" font-variant="normal" font-weight="400" font-stretch="normal" font-size="64" text-anchor="start" direction="ltr" writing-mode="lr-tb" unicode-bidi="normal" text-decoration="none" transform="matrix(1 0 0 1 1720.58 1689)">=</text><text fill="#000000" fill-opacity="1" font-family="Cambria Math,Cambria Math_MSFontService,sans-serif" font-style="normal" font-variant="normal" font-weight="400" font-stretch="normal" font-size="64" text-anchor="start" direction="ltr" writing-mode="lr-tb" unicode-bidi="normal" text-decoration="none" transform="matrix(1 0 0 1 1786.54 1689)">ğ‘¦</text><path d="M437 900.5C437 883.655 450.655 870 467.5 870 484.345 870 498 883.655 498 900.5 498 917.345 484.345 931 467.5 931 450.655 931 437 917.345 437 900.5Z" fill="#FF671F" fill-rule="evenodd" fill-opacity="1"/><path d="M573 900.5C573 883.655 586.655 870 603.5 870 620.345 870 634 883.655 634 900.5 634 917.345 620.345 931 603.5 931 586.655 931 573 917.345 573 900.5Z" fill="#FF671F" fill-rule="evenodd" fill-opacity="1"/><path d="M301 900.5C301 883.655 314.655 870 331.5 870 348.345 870 362 883.655 362 900.5 362 917.345 348.345 931 331.5 931 314.655 931 301 917.345 301 900.5Z" fill="#FF671F" fill-rule="evenodd" fill-opacity="1"/><path d="M332.5 931.5 332.5 1146.1" stroke="#595959" stroke-width="6.875" stroke-linecap="butt" stroke-linejoin="round" stroke-miterlimit="10" stroke-opacity="1" fill="none" fill-rule="evenodd"/><path d="M467.5 931.5 467.5 1146.1" stroke="#595959" stroke-width="6.875" stroke-linecap="butt" stroke-linejoin="round" stroke-miterlimit="10" stroke-opacity="1" fill="none" fill-rule="evenodd"/><path d="M603.5 931.5 603.5 1146.1" stroke="#595959" stroke-width="6.875" stroke-linecap="butt" stroke-linejoin="round" stroke-miterlimit="10" stroke-opacity="1" fill="none" fill-rule="evenodd"/><path d="M332.5 931.5 468.382 1146.1" stroke="#595959" stroke-width="6.875" stroke-linecap="butt" stroke-linejoin="round" stroke-miterlimit="10" stroke-opacity="1" fill="none" fill-rule="evenodd"/><path d="M0 0 135.882 214.601" stroke="#595959" stroke-width="6.875" stroke-linecap="butt" stroke-linejoin="round" stroke-miterlimit="10" stroke-opacity="1" fill="none" fill-rule="evenodd" transform="matrix(-1 0 0 1 468.382 931.5)"/><path d="M467.5 931.5 603.382 1146.1" stroke="#595959" stroke-width="6.875" stroke-linecap="butt" stroke-linejoin="round" stroke-miterlimit="10" stroke-opacity="1" fill="none" fill-rule="evenodd"/><path d="M0 0 135.882 214.601" stroke="#666666" stroke-width="6.875" stroke-linecap="butt" stroke-linejoin="round" stroke-miterlimit="10" stroke-opacity="1" fill="none" fill-rule="evenodd" transform="matrix(-1 0 0 1 603.382 931.5)"/><path d="M332.5 931.5 604.264 1146.1" stroke="#595959" stroke-width="6.875" stroke-linecap="butt" stroke-linejoin="round" stroke-miterlimit="10" stroke-opacity="1" fill="none" fill-rule="evenodd"/><path d="M0 0 271.764 214.601" stroke="#595959" stroke-width="6.875" stroke-linecap="butt" stroke-linejoin="round" stroke-miterlimit="10" stroke-opacity="1" fill="none" fill-rule="evenodd" transform="matrix(-1 0 0 1 604.264 931.5)"/><path d="M437 1176.5C437 1159.66 450.655 1146 467.5 1146 484.345 1146 498 1159.66 498 1176.5 498 1193.34 484.345 1207 467.5 1207 450.655 1207 437 1193.34 437 1176.5Z" fill="#FF671F" fill-rule="evenodd" fill-opacity="1"/><path d="M573 1176.5C573 1159.66 586.655 1146 603.5 1146 620.345 1146 634 1159.66 634 1176.5 634 1193.34 620.345 1207 603.5 1207 586.655 1207 573 1193.34 573 1176.5Z" fill="#FF671F" fill-rule="evenodd" fill-opacity="1"/><path d="M301 1176.5C301 1159.66 314.655 1146 331.5 1146 348.345 1146 362 1159.66 362 1176.5 362 1193.34 348.345 1207 331.5 1207 314.655 1207 301 1193.34 301 1176.5Z" fill="#FF671F" fill-rule="evenodd" fill-opacity="1"/><path d="M603.5 931.5 739.372 1146.12" stroke="#595959" stroke-width="6.875" stroke-linecap="butt" stroke-linejoin="round" stroke-miterlimit="10" stroke-opacity="1" fill="none" fill-rule="evenodd"/><path d="M332.5 931.5 740.117 1146.12" stroke="#595959" stroke-width="6.875" stroke-linecap="butt" stroke-linejoin="round" stroke-miterlimit="10" stroke-opacity="1" fill="none" fill-rule="evenodd"/><path d="M0 0 135.872 214.618" stroke="#595959" stroke-width="6.875" stroke-linecap="butt" stroke-linejoin="round" stroke-miterlimit="10" stroke-opacity="1" fill="none" fill-rule="evenodd" transform="matrix(-1 0 0 1 739.372 931.5)"/><path d="M467.5 931.5 739.245 1146.12" stroke="#595959" stroke-width="6.875" stroke-linecap="butt" stroke-linejoin="round" stroke-miterlimit="10" stroke-opacity="1" fill="none" fill-rule="evenodd"/><path d="M0 0 407.617 214.618" stroke="#595959" stroke-width="6.875" stroke-linecap="butt" stroke-linejoin="round" stroke-miterlimit="10" stroke-opacity="1" fill="none" fill-rule="evenodd" transform="matrix(-1 0 0 1 740.117 931.5)"/><path d="M0 0 543.49 214.618" stroke="#595959" stroke-width="6.875" stroke-linecap="butt" stroke-linejoin="round" stroke-miterlimit="10" stroke-opacity="1" fill="none" fill-rule="evenodd" transform="matrix(-1 0 0 1 875.99 931.5)"/><path d="M332.5 931.5 875.99 1146.12" stroke="#595959" stroke-width="6.875" stroke-linecap="butt" stroke-linejoin="round" stroke-miterlimit="10" stroke-opacity="1" fill="none" fill-rule="evenodd"/><path d="M0 0 679.363 214.618" stroke="#595959" stroke-width="6.875" stroke-linecap="butt" stroke-linejoin="round" stroke-miterlimit="10" stroke-opacity="1" fill="none" fill-rule="evenodd" transform="matrix(-1 0 0 1 1011.86 931.5)"/><path d="M332.5 931.5 1011.86 1146.12" stroke="#595959" stroke-width="6.875" stroke-linecap="butt" stroke-linejoin="round" stroke-miterlimit="10" stroke-opacity="1" fill="none" fill-rule="evenodd"/><path d="M467.5 931.5 875.117 1146.12" stroke="#595959" stroke-width="6.875" stroke-linecap="butt" stroke-linejoin="round" stroke-miterlimit="10" stroke-opacity="1" fill="none" fill-rule="evenodd"/><path d="M467.5 931.5 1010.99 1146.12" stroke="#595959" stroke-width="6.875" stroke-linecap="butt" stroke-linejoin="round" stroke-miterlimit="10" stroke-opacity="1" fill="none" fill-rule="evenodd"/><path d="M603.5 931.5 875.245 1146.12" stroke="#595959" stroke-width="6.875" stroke-linecap="butt" stroke-linejoin="round" stroke-miterlimit="10" stroke-opacity="1" fill="none" fill-rule="evenodd"/><path d="M603.5 931.5 1011.12 1146.12" stroke="#595959" stroke-width="6.875" stroke-linecap="butt" stroke-linejoin="round" stroke-miterlimit="10" stroke-opacity="1" fill="none" fill-rule="evenodd"/><path d="M0 0 271.745 214.618" stroke="#595959" stroke-width="6.875" stroke-linecap="butt" stroke-linejoin="round" stroke-miterlimit="10" stroke-opacity="1" fill="none" fill-rule="evenodd" transform="matrix(-1 0 0 1 739.245 931.5)"/><path d="M0 0 407.617 214.618" stroke="#595959" stroke-width="6.875" stroke-linecap="butt" stroke-linejoin="round" stroke-miterlimit="10" stroke-opacity="1" fill="none" fill-rule="evenodd" transform="matrix(-1 0 0 1 875.117 931.5)"/><path d="M0 0 543.49 214.618" stroke="#595959" stroke-width="6.875" stroke-linecap="butt" stroke-linejoin="round" stroke-miterlimit="10" stroke-opacity="1" fill="none" fill-rule="evenodd" transform="matrix(-1 0 0 1 1010.99 931.5)"/><path d="M0 0 271.745 214.618" stroke="#595959" stroke-width="6.875" stroke-linecap="butt" stroke-linejoin="round" stroke-miterlimit="10" stroke-opacity="1" fill="none" fill-rule="evenodd" transform="matrix(-1 0 0 1 875.245 931.5)"/><path d="M844 900.5C844 883.655 857.879 870 875 870 892.121 870 906 883.655 906 900.5 906 917.345 892.121 931 875 931 857.879 931 844 917.345 844 900.5Z" fill="#FF671F" fill-rule="evenodd" fill-opacity="1"/><path d="M980 900.5C980 883.655 993.879 870 1011 870 1028.12 870 1042 883.655 1042 900.5 1042 917.345 1028.12 931 1011 931 993.879 931 980 917.345 980 900.5Z" fill="#FF671F" fill-rule="evenodd" fill-opacity="1"/><path d="M708 900.5C708 883.655 721.879 870 739 870 756.121 870 770 883.655 770 900.5 770 917.345 756.121 931 739 931 721.879 931 708 917.345 708 900.5Z" fill="#FF671F" fill-rule="evenodd" fill-opacity="1"/><path d="M739.5 931.5 739.5 1146.1" stroke="#595959" stroke-width="6.875" stroke-linecap="butt" stroke-linejoin="round" stroke-miterlimit="10" stroke-opacity="1" fill="none" fill-rule="evenodd"/><path d="M875.5 931.5 875.5 1146.1" stroke="#595959" stroke-width="6.875" stroke-linecap="butt" stroke-linejoin="round" stroke-miterlimit="10" stroke-opacity="1" fill="none" fill-rule="evenodd"/><path d="M1011.5 931.5 1011.5 1146.1" stroke="#595959" stroke-width="6.875" stroke-linecap="butt" stroke-linejoin="round" stroke-miterlimit="10" stroke-opacity="1" fill="none" fill-rule="evenodd"/><path d="M739.5 931.5 875.382 1146.1" stroke="#595959" stroke-width="6.875" stroke-linecap="butt" stroke-linejoin="round" stroke-miterlimit="10" stroke-opacity="1" fill="none" fill-rule="evenodd"/><path d="M0 0 135.882 214.601" stroke="#595959" stroke-width="6.875" stroke-linecap="butt" stroke-linejoin="round" stroke-miterlimit="10" stroke-opacity="1" fill="none" fill-rule="evenodd" transform="matrix(-1 0 0 1 875.382 931.5)"/><path d="M875.5 931.5 1011.38 1146.1" stroke="#595959" stroke-width="6.875" stroke-linecap="butt" stroke-linejoin="round" stroke-miterlimit="10" stroke-opacity="1" fill="none" fill-rule="evenodd"/><path d="M0 0 135.882 214.601" stroke="#666666" stroke-width="6.875" stroke-linecap="butt" stroke-linejoin="round" stroke-miterlimit="10" stroke-opacity="1" fill="none" fill-rule="evenodd" transform="matrix(-1 0 0 1 1011.38 931.5)"/><path d="M739.5 931.5 1011.26 1146.1" stroke="#595959" stroke-width="6.875" stroke-linecap="butt" stroke-linejoin="round" stroke-miterlimit="10" stroke-opacity="1" fill="none" fill-rule="evenodd"/><path d="M0 0 271.764 214.601" stroke="#595959" stroke-width="6.875" stroke-linecap="butt" stroke-linejoin="round" stroke-miterlimit="10" stroke-opacity="1" fill="none" fill-rule="evenodd" transform="matrix(-1 0 0 1 1011.26 931.5)"/><path d="M844 1176.5C844 1159.66 857.879 1146 875 1146 892.121 1146 906 1159.66 906 1176.5 906 1193.34 892.121 1207 875 1207 857.879 1207 844 1193.34 844 1176.5Z" fill="#FF671F" fill-rule="evenodd" fill-opacity="1"/><path d="M980 1176.5C980 1159.66 993.879 1146 1011 1146 1028.12 1146 1042 1159.66 1042 1176.5 1042 1193.34 1028.12 1207 1011 1207 993.879 1207 980 1193.34 980 1176.5Z" fill="#FF671F" fill-rule="evenodd" fill-opacity="1"/><path d="M708 1176.5C708 1159.66 721.879 1146 739 1146 756.121 1146 770 1159.66 770 1176.5 770 1193.34 756.121 1207 739 1207 721.879 1207 708 1193.34 708 1176.5Z" fill="#FF671F" fill-rule="evenodd" fill-opacity="1"/><path d="M0 0 407.617 214.618" stroke="#666666" stroke-width="6.875" stroke-linecap="butt" stroke-linejoin="round" stroke-miterlimit="10" stroke-opacity="1" fill="none" fill-rule="evenodd" transform="matrix(-1 0 0 1 1011.12 931.5)"/><text fill="#000000" fill-opacity="1" font-family="Cambria Math,Cambria Math_MSFontService,sans-serif" font-style="normal" font-variant="normal" font-weight="400" font-stretch="normal" font-size="64" text-anchor="start" direction="ltr" writing-mode="lr-tb" unicode-bidi="normal" text-decoration="none" transform="matrix(1 0 0 1 651.638 753)">ğ’™</text><text fill="#000000" fill-opacity="1" font-family="Cambria Math,Cambria Math_MSFontService,sans-serif" font-style="normal" font-variant="normal" font-weight="400" font-stretch="normal" font-size="64" text-anchor="start" direction="ltr" writing-mode="lr-tb" unicode-bidi="normal" text-decoration="none" transform="matrix(1 0 0 1 651.637 1387)">ğ‘¦</text><path d="M1.71875-7.29672e-06 1.71901 62.0919-1.71849 62.0919-1.71875 7.29672e-06ZM13.7502 57.5085 0.000360892 85.0086-13.7498 57.5086Z" fill="#ED2624" fill-rule="nonzero" fill-opacity="1" transform="matrix(-1 0 0 1 668.5 775.5)"/><path d="M1.71875-7.29672e-06 1.71901 62.0919-1.71849 62.0919-1.71875 7.29672e-06ZM13.7502 57.5085 0.000360892 85.0086-13.7498 57.5086Z" fill="#ED2624" fill-rule="nonzero" fill-opacity="1" transform="matrix(-1 0 0 1 668.5 1224.5)"/><path d="M2373 906.5C2373 889.655 2386.66 876 2403.5 876 2420.34 876 2434 889.655 2434 906.5 2434 923.345 2420.34 937 2403.5 937 2386.66 937 2373 923.345 2373 906.5Z" fill="#FF671F" fill-rule="evenodd" fill-opacity="1"/><path d="M2509 906.5C2509 889.655 2522.66 876 2539.5 876 2556.34 876 2570 889.655 2570 906.5 2570 923.345 2556.34 937 2539.5 937 2522.66 937 2509 923.345 2509 906.5Z" fill="#FF671F" fill-rule="evenodd" fill-opacity="1"/><path d="M2237 906.5C2237 889.655 2250.66 876 2267.5 876 2284.34 876 2298 889.655 2298 906.5 2298 923.345 2284.34 937 2267.5 937 2250.66 937 2237 923.345 2237 906.5Z" fill="#FF671F" fill-rule="evenodd" fill-opacity="1"/><path d="M2267.5 937.5 2267.5 1152.1" stroke="#595959" stroke-width="6.875" stroke-linecap="butt" stroke-linejoin="round" stroke-miterlimit="10" stroke-opacity="1" fill="none" fill-rule="evenodd"/><path d="M2403.5 937.5 2403.5 1152.1" stroke="#595959" stroke-width="6.875" stroke-linecap="butt" stroke-linejoin="round" stroke-miterlimit="10" stroke-opacity="1" fill="none" fill-rule="evenodd"/><path d="M2539.5 937.5 2539.5 1152.1" stroke="#595959" stroke-width="6.875" stroke-linecap="butt" stroke-linejoin="round" stroke-miterlimit="10" stroke-opacity="1" fill="none" fill-rule="evenodd"/><path d="M2267.5 937.5 2403.38 1152.1" stroke="#595959" stroke-width="6.875" stroke-linecap="butt" stroke-linejoin="round" stroke-miterlimit="10" stroke-opacity="1" fill="none" fill-rule="evenodd"/><path d="M0 0 135.882 214.601" stroke="#595959" stroke-width="6.875" stroke-linecap="butt" stroke-linejoin="round" stroke-miterlimit="10" stroke-opacity="1" fill="none" fill-rule="evenodd" transform="matrix(-1 0 0 1 2403.38 937.5)"/><path d="M2403.5 937.5 2539.38 1152.1" stroke="#595959" stroke-width="6.875" stroke-linecap="butt" stroke-linejoin="round" stroke-miterlimit="10" stroke-opacity="1" fill="none" fill-rule="evenodd"/><path d="M0 0 135.882 214.601" stroke="#666666" stroke-width="6.875" stroke-linecap="butt" stroke-linejoin="round" stroke-miterlimit="10" stroke-opacity="1" fill="none" fill-rule="evenodd" transform="matrix(-1 0 0 1 2539.38 937.5)"/><path d="M2267.5 937.5 2539.26 1152.1" stroke="#595959" stroke-width="6.875" stroke-linecap="butt" stroke-linejoin="round" stroke-miterlimit="10" stroke-opacity="1" fill="none" fill-rule="evenodd"/><path d="M0 0 271.764 214.601" stroke="#595959" stroke-width="6.875" stroke-linecap="butt" stroke-linejoin="round" stroke-miterlimit="10" stroke-opacity="1" fill="none" fill-rule="evenodd" transform="matrix(-1 0 0 1 2539.26 937.5)"/><path d="M2373 1182.5C2373 1165.66 2386.66 1152 2403.5 1152 2420.34 1152 2434 1165.66 2434 1182.5 2434 1199.34 2420.34 1213 2403.5 1213 2386.66 1213 2373 1199.34 2373 1182.5Z" fill="#FF671F" fill-rule="evenodd" fill-opacity="1"/><path d="M2509 1182.5C2509 1165.66 2522.66 1152 2539.5 1152 2556.34 1152 2570 1165.66 2570 1182.5 2570 1199.34 2556.34 1213 2539.5 1213 2522.66 1213 2509 1199.34 2509 1182.5Z" fill="#FF671F" fill-rule="evenodd" fill-opacity="1"/><path d="M2237 1182.5C2237 1165.66 2250.66 1152 2267.5 1152 2284.34 1152 2298 1165.66 2298 1182.5 2298 1199.34 2284.34 1213 2267.5 1213 2250.66 1213 2237 1199.34 2237 1182.5Z" fill="#FF671F" fill-rule="evenodd" fill-opacity="1"/><text fill="#000000" fill-opacity="1" font-family="Cambria Math,Cambria Math_MSFontService,sans-serif" font-style="normal" font-variant="normal" font-weight="400" font-stretch="normal" font-size="64" text-anchor="start" direction="ltr" writing-mode="lr-tb" unicode-bidi="normal" text-decoration="none" transform="matrix(1 0 0 1 2387.04 759)">ğ’™</text><text fill="#000000" fill-opacity="1" font-family="Cambria Math,Cambria Math_MSFontService,sans-serif" font-style="normal" font-variant="normal" font-weight="400" font-stretch="normal" font-size="64" text-anchor="start" direction="ltr" writing-mode="lr-tb" unicode-bidi="normal" text-decoration="none" transform="matrix(1 0 0 1 2387.04 1392)">ğ‘¦</text><path d="M1.71875-7.29672e-06 1.71901 62.0919-1.71849 62.0919-1.71875 7.29672e-06ZM13.7502 57.5085 0.000360892 85.0086-13.7498 57.5086Z" fill="#ED2624" fill-rule="nonzero" fill-opacity="1" transform="matrix(-1 0 0 1 2403.5 781.5)"/><path d="M1.71875-7.29672e-06 1.71901 62.0919-1.71849 62.0919-1.71875 7.29672e-06ZM13.7502 57.5085 0.000360892 85.0086-13.7498 57.5086Z" fill="#ED2624" fill-rule="nonzero" fill-opacity="1" transform="matrix(-1 0 0 1 2403.5 1229.5)"/><text fill="#000000" fill-opacity="1" font-family="Cambria Math,Cambria Math_MSFontService,sans-serif" font-style="normal" font-variant="normal" font-weight="400" font-stretch="normal" font-size="64" text-anchor="start" direction="ltr" writing-mode="lr-tb" unicode-bidi="normal" text-decoration="none" transform="matrix(1 0 0 1 2279.14 1689)">â„</text><path d="M2381.66 1641.26C2387.75 1642.86 2392.42 1646.33 2395.68 1651.65 2398.94 1656.97 2400.57 1663.39 2400.57 1670.92 2400.57 1678.46 2398.94 1684.88 2395.69 1690.18 2392.44 1695.48 2387.77 1698.94 2381.66 1700.54L2380.91 1698.13C2385.73 1696.53 2389.3 1693.36 2391.65 1688.63 2393.99 1683.9 2395.16 1677.89 2395.16 1670.6 2395.16 1663.56 2394 1657.71 2391.66 1653.06 2389.33 1648.4 2385.72 1645.27 2380.82 1643.67ZM2340.29 1641.26 2341.14 1643.67C2336.26 1645.27 2332.65 1648.4 2330.31 1653.06 2327.97 1657.71 2326.79 1663.56 2326.79 1670.6 2326.79 1677.89 2327.97 1683.9 2330.31 1688.63 2332.65 1693.36 2336.23 1696.53 2341.04 1698.13L2340.29 1700.54C2334.19 1698.94 2329.51 1695.48 2326.26 1690.18 2323.01 1684.88 2321.39 1678.46 2321.39 1670.92 2321.39 1663.39 2323.02 1656.97 2326.28 1651.65 2329.54 1646.33 2334.21 1642.86 2340.29 1641.26Z" fill="#000000" fill-rule="evenodd" fill-opacity="1"/><text fill="#000000" fill-opacity="1" font-family="Cambria Math,Cambria Math_MSFontService,sans-serif" font-style="normal" font-variant="normal" font-weight="400" font-stretch="normal" font-size="64" text-anchor="start" direction="ltr" writing-mode="lr-tb" unicode-bidi="normal" text-decoration="none" transform="matrix(1 0 0 1 2342.39 1689)">ğ’™</text><text fill="#000000" fill-opacity="1" font-family="Cambria Math,Cambria Math_MSFontService,sans-serif" font-style="normal" font-variant="normal" font-weight="400" font-stretch="normal" font-size="64" text-anchor="start" direction="ltr" writing-mode="lr-tb" unicode-bidi="normal" text-decoration="none" transform="matrix(1 0 0 1 2424.09 1689)">=</text><text fill="#000000" fill-opacity="1" font-family="Cambria Math,Cambria Math_MSFontService,sans-serif" font-style="normal" font-variant="normal" font-weight="400" font-stretch="normal" font-size="64" text-anchor="start" direction="ltr" writing-mode="lr-tb" unicode-bidi="normal" text-decoration="none" transform="matrix(1 0 0 1 2490.04 1689)">ğ‘¦</text><path d="M1050.5 1042.78 1495.21 1042.78 1495.21 1046.22 1050.5 1046.22ZM1490.63 1030.75 1518.13 1044.5 1490.63 1058.25Z" fill="#ED2624" fill-rule="nonzero" fill-opacity="1"/><text fill="#666666" fill-opacity="1" font-family="Arial,Arial_MSFontService,sans-serif" font-style="normal" font-variant="normal" font-weight="400" font-stretch="normal" font-size="64" text-anchor="start" direction="ltr" writing-mode="lr-tb" unicode-bidi="normal" text-decoration="none" transform="matrix(1 0 0 1 1142.7 1029)">distillation</text><path d="M1.32644e-06-1.71875 444.712-1.71841 444.712 1.71909-1.32644e-06 1.71875ZM440.129-13.7497 467.629 0.000360892 440.129 13.7503Z" fill="#ED2624" fill-rule="nonzero" fill-opacity="1" transform="matrix(-1 0 0 1 3084.13 1044.5)"/><text fill="#666666" fill-opacity="1" font-family="Arial,Arial_MSFontService,sans-serif" font-style="normal" font-variant="normal" font-weight="400" font-stretch="normal" font-size="64" text-anchor="start" direction="ltr" writing-mode="lr-tb" unicode-bidi="normal" text-decoration="none" transform="matrix(1 0 0 1 2727.57 1029)">training</text></g></g></svg>