<?xml version="1.0" encoding="utf-8"?>
<!-- Generator: Adobe Illustrator 14.0.0, SVG Export Plug-In . SVG Version: 6.00 Build 43363)  -->
<!DOCTYPE svg PUBLIC "-//W3C//DTD SVG 1.1//EN" "http://www.w3.org/Graphics/SVG/1.1/DTD/svg11.dtd">
<svg version="1.1" id="Layer_1" xmlns="http://www.w3.org/2000/svg" xmlns:xlink="http://www.w3.org/1999/xlink" x="0px" y="0px"
	 width="250px" height="43px" viewBox="0 0 250 43" enable-background="new 0 0 250 43" xml:space="preserve">
<g>
	<rect x="5" y="5.062" fill="#FFFFFF" width="63.53" height="32.824"/>
	<path fill="#FF0000" d="M36.611,35.871l0.876,0.066l-0.116-6.096l6.703,0.737l-0.676-3.2l5.85-5.229l-1.541-1.055l0.985-4.18
		l-3.387,0.307l-0.859-2.087c0,0-2.59,2.642-3.515,3.318c-0.919,0.682-0.798-0.182-0.798-0.182l1.477-8.004L38.97,11.56
		l-2.359-4.249l-2.356,4.249l-2.645-1.292l1.477,8.004c0,0,0.124,0.864-0.801,0.182c-0.925-0.677-3.512-3.318-3.512-3.318
		l-0.861,2.087l-3.388-0.307l0.985,4.18l-1.541,1.055l5.854,5.229l-0.68,3.2l6.706-0.737l-0.119,6.096L36.611,35.871"/>
	<rect x="52.115" y="5.062" fill="#FF0000" width="16.415" height="32.824"/>
	<rect x="5" y="5.062" fill="#FF0000" width="16.415" height="32.824"/>
	<path d="M91.68,17.8h4.223c1.179-0.038,2.431-0.122,3.451-0.775c1.85-1.179,2.694-3.168,2.694-5.582
		c0-2.411-0.844-4.399-2.694-5.579c-1.02-0.65-2.272-0.74-3.451-0.774H91.68V17.8 M93.441,6.605h2.569
		c1.778,0,2.729,0.723,3.22,1.442c0.757,1.092,0.971,2.217,0.971,3.396c0,1.18-0.214,2.307-0.971,3.399
		c-0.492,0.723-1.442,1.445-3.22,1.445h-2.569V6.605z"/>
	<path d="M105.147,12.537c0-1.442,0.827-2.622,2.217-2.622c1.619,0,2.286,1.142,2.254,2.622H105.147 M111.376,13.699v-0.827
		c0-2.448-1.249-4.119-3.888-4.174c-2.798,0-4.104,2.167-4.104,4.752c0,2.607,1.127,4.613,3.963,4.613c2.113,0,3.663-1,3.922-3.012
		h-1.757c-0.193,1.289-0.847,1.798-2.147,1.798c-1.708,0-2.341-1.601-2.217-3.15H111.376z M108.139,5.091l-1.442,2.535h1.142
		l2.13-2.535H108.139z"/>
	<path d="M113.929,17.8v-7.677h-1.723V8.961h1.723V7.273c0.052-1.937,1.517-2.445,2.763-2.445c0.405,0,0.792,0.104,1.199,0.173
		v1.391c-0.28-0.015-0.563-0.052-0.844-0.052c-0.954,0-1.497,0.249-1.448,1.214v1.408h2.043v1.162h-2.043V17.8H113.929"/>
	<path d="M126.323,13.699v-0.827c0-2.448-1.252-4.119-3.891-4.174c-2.798,0-4.102,2.167-4.102,4.752c0,2.607,1.127,4.613,3.96,4.613
		c2.113,0,3.663-1,3.928-3.012h-1.763c-0.191,1.289-0.844,1.798-2.145,1.798c-1.708,0-2.344-1.601-2.217-3.15H126.323
		 M120.094,12.537c0-1.442,0.824-2.622,2.217-2.622c1.619,0,2.286,1.142,2.251,2.622H120.094z"/>
	<path d="M130.089,10.265h0.038c0.563-1.107,1.795-1.566,2.674-1.566c0.615,0,3.344,0.156,3.344,2.994V17.8h-1.671v-5.564
		c0-1.459-0.615-2.251-2.022-2.251c0,0-0.917-0.052-1.619,0.65c-0.249,0.246-0.705,0.636-0.705,2.358V17.8h-1.671V8.961h1.633
		V10.265"/>
	<path d="M141.674,8.698c1.674,0,3.559,0.702,3.435,2.711h-1.761c0.069-1.127-0.795-1.494-1.763-1.494
		c-0.896,0-1.619,0.419-1.619,1.408c0,0.985,1.515,1.055,2.147,1.251c1.498,0.488,3.221,0.667,3.221,2.653
		c0,2.168-2.11,2.835-3.923,2.835c-1.85,0-3.399-0.844-3.382-2.884h1.761c0.037,1.089,0.774,1.67,1.795,1.67
		c0.988,0,1.988-0.387,1.988-1.532c0-1.974-5.364-0.495-5.364-3.943C138.209,9.528,140.07,8.698,141.674,8.698"/>
	<path d="M154.609,13.699v-0.827c0-2.448-1.246-4.119-3.885-4.174c-2.801,0-4.104,2.167-4.104,4.752
		c0,2.607,1.127,4.613,3.963,4.613c2.112,0,3.659-1,3.925-3.012h-1.76c-0.197,1.289-0.851,1.798-2.15,1.798
		c-1.706,0-2.342-1.601-2.218-3.15H154.609 M148.38,12.537c0-1.442,0.83-2.622,2.218-2.622c1.618,0,2.289,1.142,2.254,2.622H148.38z
		"/>
	<path d="M93.351,30.374h0.038c0.561-1.11,1.792-1.566,2.674-1.566c0.616,0,3.344,0.158,3.344,2.994v6.104h-1.671v-5.562
		c0-1.462-0.616-2.248-2.023-2.248c0,0-0.919-0.059-1.622,0.647c-0.246,0.248-0.703,0.636-0.703,2.358v4.804h-1.676v-8.833h1.639
		V30.374"/>
	<path d="M105.763,32.452c-2.095,0-4.298,0.723-4.298,3.199c0,1.729,1.549,2.521,3.084,2.521c1.214,0,2.2-0.474,2.746-1.584h0.032
		c0.02,0.405,0.055,0.792,0.089,1.197c0.018,0.211,0.318,0.121,0.474,0.121h1.13c-0.055-0.737-0.072-1.479-0.072-1.861v-4.226
		c0-2.466-1.795-3.012-3.61-3.012c-1.74,0-3.254,0.688-3.344,2.624h1.763c0.015-0.916,0.807-1.41,1.653-1.41
		c1.778,0,1.864,0.901,1.864,2.431H105.763 M107.274,33.614c0.038,1.639-0.335,3.344-2.304,3.344c-0.985,0-1.746-0.543-1.746-1.636
		c0-1.283,1.358-1.656,2.379-1.708H107.274z"/>
	<path d="M111.642,29.073v-1.885l1.671-0.526v2.411l2.043-0.055v1.251l-2.043-0.018v5.7c0,0.636,0.494,0.937,1.092,0.937
		c0.266,0,0.616-0.034,0.882-0.106v1.286c-0.387,0.018-0.76,0.104-1.147,0.104c-0.402,0-0.72-0.017-1.125-0.086
		c-0.266-0.053-0.705-0.194-0.986-0.584c-0.297-0.422-0.387-0.454-0.387-1.637v-5.613l-1.515,0.018v-1.251L111.642,29.073"/>
	<path d="M116.94,25.2h1.989v1.814h-1.989V25.2z M118.773,37.906h-1.674v-8.833h1.674V37.906z"/>
	<path d="M125.407,28.808c-2.905,0-4.399,1.937-4.399,4.682c0,2.746,1.494,4.683,4.399,4.683c2.905,0,4.402-1.937,4.402-4.683
		C129.809,30.744,128.312,28.808,125.407,28.808 M122.768,33.489c0-1.884,0.653-3.468,2.639-3.468c1.989,0,2.645,1.584,2.645,3.468
		c0,1.885-0.656,3.469-2.645,3.469C123.421,36.958,122.768,35.374,122.768,33.489z"/>
	<path d="M133.647,30.374h0.034c0.564-1.11,1.798-1.566,2.674-1.566c0.616,0,3.345,0.158,3.345,2.994v6.104h-1.671v-5.562
		c0-1.462-0.612-2.248-2.023-2.248c0,0-0.913-0.059-1.618,0.647c-0.249,0.248-0.706,0.636-0.706,2.358v4.804h-1.67v-8.833h1.636
		V30.374"/>
	<path d="M146.06,32.452c-2.099,0-4.296,0.723-4.296,3.199c0,1.729,1.55,2.521,3.081,2.521c1.215,0,2.197-0.474,2.743-1.584h0.038
		c0.015,0.405,0.052,0.792,0.087,1.197c0.017,0.211,0.317,0.121,0.477,0.121h1.124c-0.052-0.737-0.069-1.479-0.069-1.861v-4.226
		c0-2.466-1.798-3.012-3.613-3.012c-1.739,0-3.251,0.688-3.341,2.624h1.76c0.021-0.916,0.813-1.41,1.656-1.41
		c1.775,0,1.868,0.901,1.868,2.431H146.06 M147.574,33.614c0.031,1.639-0.336,3.344-2.31,3.344c-0.986,0-1.743-0.543-1.743-1.636
		c0-1.283,1.355-1.656,2.376-1.708H147.574z"/>
	
		<line fill="none" stroke="#000000" stroke-width="1.6727" stroke-miterlimit="10" x1="152.722" y1="37.906" x2="152.722" y2="25.2"/>
	<path d="M163.697,33.808v-0.826c0-2.445-1.252-4.116-3.891-4.174c-2.799,0-4.104,2.167-4.104,4.752
		c0,2.606,1.127,4.612,3.963,4.612c2.112,0,3.662-1.003,3.922-3.009h-1.757c-0.191,1.283-0.845,1.795-2.148,1.795
		c-1.708,0-2.341-1.601-2.217-3.15H163.697 M157.465,32.646c0-1.445,0.827-2.624,2.217-2.624c1.622,0,2.293,1.147,2.255,2.624
		H157.465z"/>
	<polyline points="191.423,5.091 191.423,17.8 189.243,17.8 182.814,7.01 182.78,7.01 182.78,17.8 181.213,17.8 181.213,5.091 
		183.624,5.091 189.821,15.598 189.855,15.598 189.855,5.091 191.423,5.091 	"/>
	<path d="M198.042,12.343c-2.093,0-4.296,0.72-4.296,3.203c0,1.726,1.553,2.518,3.082,2.518c1.214,0,2.199-0.474,2.745-1.584h0.035
		c0.018,0.405,0.052,0.792,0.09,1.2c0.014,0.208,0.317,0.122,0.477,0.122h1.124c-0.052-0.737-0.069-1.48-0.069-1.867V11.71
		c0-2.466-1.795-3.012-3.609-3.012c-1.74,0-3.258,0.688-3.342,2.625h1.758c0.017-0.917,0.809-1.408,1.653-1.408
		c1.777,0,1.867,0.896,1.867,2.428H198.042 M199.557,13.502c0.034,1.639-0.336,3.347-2.307,3.347c-0.986,0-1.74-0.543-1.74-1.639
		c0-1.284,1.353-1.653,2.376-1.708H199.557z"/>
	<path d="M202.406,8.909v1.251l1.515-0.018v5.614c0,1.179,0.09,1.217,0.388,1.639c0.283,0.387,0.723,0.526,0.985,0.581
		c0.407,0.069,0.723,0.086,1.13,0.086c0.382,0,0.755-0.086,1.142-0.104v-1.283c-0.263,0.069-0.615,0.101-0.881,0.101
		c-0.596,0-1.093-0.298-1.093-0.931v-5.703l2.046,0.018V8.909l-2.046,0.052V6.55l-1.671,0.529v1.881L202.406,8.909"/>
	<path d="M209.378,17.8h1.671V8.964h-1.671V17.8z M209.219,6.903h1.989V5.091h-1.989V6.903z"/>
	<path d="M217.688,8.698c-2.905,0-4.402,1.937-4.402,4.683c0,2.749,1.497,4.682,4.402,4.682c2.902,0,4.399-1.934,4.399-4.682
		C222.088,10.635,220.591,8.698,217.688,8.698 M215.047,13.381c0-1.885,0.652-3.466,2.642-3.466c1.985,0,2.639,1.581,2.639,3.466
		c0,1.884-0.653,3.468-2.639,3.468C215.699,16.849,215.047,15.265,215.047,13.381z"/>
	<path d="M225.923,10.265h0.038c0.563-1.107,1.795-1.566,2.674-1.566c0.618,0,3.347,0.156,3.347,2.994V17.8h-1.67v-5.564
		c0-1.459-0.619-2.251-2.026-2.251c0,0-0.917-0.052-1.619,0.65c-0.245,0.246-0.705,0.636-0.705,2.358V17.8h-1.671V8.961h1.633
		V10.265"/>
	<path d="M238.335,12.343c-2.093,0-4.292,0.72-4.292,3.203c0,1.726,1.549,2.518,3.078,2.518c1.214,0,2.199-0.474,2.746-1.584h0.034
		c0.021,0.405,0.053,0.792,0.09,1.2c0.015,0.208,0.318,0.122,0.474,0.122h1.128c-0.052-0.737-0.069-1.48-0.069-1.867V11.71
		c0-2.466-1.795-3.012-3.607-3.012c-1.743,0-3.258,0.688-3.345,2.625h1.758c0.018-0.917,0.81-1.408,1.656-1.408
		c1.777,0,1.864,0.896,1.864,2.428H238.335 M239.85,13.502c0.035,1.639-0.335,3.347-2.307,3.347c-0.982,0-1.74-0.543-1.74-1.639
		c0-1.284,1.355-1.653,2.376-1.708H239.85z"/>
	
		<line fill="none" stroke="#000000" stroke-width="1.6711" stroke-miterlimit="10" x1="245.001" y1="17.8" x2="245.001" y2="5.091"/>
	<path d="M181.02,37.906h4.223c1.18-0.031,2.432-0.121,3.451-0.774c1.851-1.18,2.694-3.168,2.694-5.579
		c0-2.41-0.844-4.399-2.694-5.578c-1.02-0.653-2.271-0.74-3.451-0.774h-4.223V37.906 M182.78,26.715h2.572
		c1.774,0,2.729,0.723,3.22,1.439c0.755,1.092,0.969,2.22,0.969,3.398c0,1.18-0.214,2.307-0.969,3.399
		c-0.491,0.723-1.445,1.442-3.22,1.442h-2.572V26.715z"/>
	<path d="M200.718,33.808v-0.826c0-2.445-1.251-4.116-3.89-4.174c-2.799,0-4.1,2.167-4.1,4.752c0,2.606,1.122,4.612,3.957,4.612
		c2.113,0,3.663-1.003,3.929-3.009h-1.764c-0.19,1.283-0.844,1.795-2.147,1.795c-1.708,0-2.341-1.601-2.217-3.15H200.718
		 M194.486,32.646c0-1.445,0.827-2.624,2.217-2.624c1.622,0,2.292,1.147,2.255,2.624H194.486z"/>
	<path d="M203.268,37.906v-7.671h-1.723v-1.162h1.723v-1.694c0.052-1.937,1.518-2.445,2.764-2.445c0.407,0,0.795,0.104,1.199,0.18
		v1.388c-0.28-0.018-0.563-0.053-0.844-0.053c-0.951,0-1.497,0.246-1.442,1.214v1.411h2.04v1.162h-2.04v7.671H203.268"/>
	<path d="M215.662,33.808v-0.826c0-2.445-1.249-4.116-3.891-4.174c-2.798,0-4.102,2.167-4.102,4.752c0,2.606,1.13,4.612,3.963,4.612
		c2.11,0,3.659-1.003,3.925-3.009h-1.763c-0.19,1.283-0.844,1.795-2.145,1.795c-1.709,0-2.342-1.601-2.218-3.15H215.662
		 M209.433,32.646c0-1.445,0.827-2.624,2.218-2.624c1.618,0,2.286,1.147,2.254,2.624H209.433z"/>
	<path d="M219.432,30.374h0.034c0.561-1.11,1.798-1.566,2.677-1.566c0.618,0,3.342,0.158,3.342,2.994v6.104h-1.671v-5.562
		c0-1.462-0.619-2.248-2.023-2.248c0,0-0.913-0.059-1.619,0.647c-0.248,0.248-0.705,0.636-0.705,2.358v4.804h-1.671v-8.833h1.637
		V30.374"/>
	<path d="M233.092,31.905c-0.09-1.109-0.619-1.884-1.815-1.884c-1.602,0-2.217,1.393-2.217,3.468c0,2.079,0.615,3.469,2.217,3.469
		c1.11,0,1.798-0.723,1.885-1.988h1.671c-0.139,1.988-1.616,3.202-3.57,3.202c-2.835,0-3.966-2.006-3.966-4.612
		c0-2.585,1.307-4.752,4.104-4.752c1.867,0,3.275,1.179,3.362,3.098H233.092"/>
	<path d="M243.948,33.808v-0.826c0-2.445-1.246-4.116-3.885-4.174c-2.801,0-4.104,2.167-4.104,4.752
		c0,2.606,1.127,4.612,3.963,4.612c2.11,0,3.659-1.003,3.926-3.009h-1.761c-0.196,1.283-0.847,1.795-2.15,1.795
		c-1.705,0-2.342-1.601-2.214-3.15H243.948 M237.723,32.646c0-1.445,0.826-2.624,2.214-2.624c1.618,0,2.289,1.147,2.255,2.624
		H237.723z"/>
</g>
</svg>
