<svg xmlns="http://www.w3.org/2000/svg" viewBox="0 0 1486.55 180.75"><defs><style>.cls-1{fill:#d6ab00;}.cls-2{fill:#32322f;}</style></defs><g id="Layer_2" data-name="Layer 2"><g id="Layer_1-2" data-name="Layer 1"><rect class="cls-1" x="824.7" y="21.72" width="3.23" height="96.72"/><path class="cls-2" d="M310,35.59a25.19,25.19,0,0,1-1.74,9.75,18,18,0,0,1-4.93,6.89,21.11,21.11,0,0,1-7.8,4.1,36.15,36.15,0,0,1-10.31,1.36q-2.61,0-6.08-.21a51.22,51.22,0,0,1-6.83-.9V14.66a54.83,54.83,0,0,1,7-.84q3.63-.23,6.24-.22a37.58,37.58,0,0,1,10,1.24,20.67,20.67,0,0,1,7.73,3.91,17.29,17.29,0,0,1,5,6.84A25.83,25.83,0,0,1,310,35.59ZM282,49.25q.69.06,1.59.09c.6,0,1.31,0,2.14,0q7.26,0,10.78-3.66T300,35.59q0-6.78-3.35-10.25t-10.62-3.48l-2.05,0a17.44,17.44,0,0,0-2,.16Z"/><path class="cls-2" d="M325.9,15a5.08,5.08,0,0,1-1.64,4,5.87,5.87,0,0,1-7.77,0,5.08,5.08,0,0,1-1.64-4,5.11,5.11,0,0,1,1.64-4,5.93,5.93,0,0,1,7.77,0A5.11,5.11,0,0,1,325.9,15ZM325,57.14h-9.25V24.47H325Z"/><path class="cls-2" d="M359.81,53q0,8-4.06,11.89t-12.58,3.88a34.3,34.3,0,0,1-6-.53,38.17,38.17,0,0,1-5.53-1.39l1.62-7.77a25.58,25.58,0,0,0,10,1.87c2.64,0,4.52-.58,5.62-1.74a6.28,6.28,0,0,0,1.64-4.48V53.59a14.78,14.78,0,0,1-3.07,1A16.28,16.28,0,0,1,344,55q-6.77,0-10.37-4t-3.6-11.21a18.32,18.32,0,0,1,1.12-6.56,13.92,13.92,0,0,1,3.26-5.06,14.61,14.61,0,0,1,5.24-3.26,20.27,20.27,0,0,1,7-1.15c1.12,0,2.27.06,3.45.16s2.35.24,3.51.4,2.26.37,3.32.59,2,.47,2.82.72Zm-20.3-13.29q0,7.76,6.27,7.76a9.21,9.21,0,0,0,2.67-.37,10.25,10.25,0,0,0,2.11-.87V31.49c-.46-.09-1-.16-1.61-.22s-1.35-.09-2.18-.09a6.35,6.35,0,0,0-5.46,2.42A10,10,0,0,0,339.51,39.75Z"/><path class="cls-2" d="M376.84,15a5.08,5.08,0,0,1-1.64,4,5.86,5.86,0,0,1-7.76,0,5.05,5.05,0,0,1-1.65-4,5.09,5.09,0,0,1,1.65-4,5.92,5.92,0,0,1,7.76,0A5.11,5.11,0,0,1,376.84,15ZM376,57.14h-9.25V24.47H376Z"/><path class="cls-2" d="M382.53,16.33l9.25-1.49v9.63H402.9v7.7H391.78V43.66a9.07,9.07,0,0,0,1,4.66c.68,1.16,2.06,1.74,4.13,1.74a18.25,18.25,0,0,0,3.07-.28A16.19,16.19,0,0,0,402.9,49l1.3,7.2a25.07,25.07,0,0,1-3.72,1.18,21.76,21.76,0,0,1-5,.5,16.37,16.37,0,0,1-6.27-1,9.85,9.85,0,0,1-4-2.85,10.62,10.62,0,0,1-2.08-4.44,26.47,26.47,0,0,1-.59-5.78Z"/><path class="cls-2" d="M420.44,23.6a21.41,21.41,0,0,1,6.83.93,10.5,10.5,0,0,1,4.38,2.67A9.76,9.76,0,0,1,434,31.42a20.68,20.68,0,0,1,.68,5.53V56.2c-1.32.29-3.16.64-5.52,1a53.52,53.52,0,0,1-8.57.59,27.42,27.42,0,0,1-5.75-.56,12.36,12.36,0,0,1-4.44-1.83,8.37,8.37,0,0,1-2.85-3.33,11.31,11.31,0,0,1-1-5,9.51,9.51,0,0,1,1.15-4.85,9,9,0,0,1,3.07-3.17,14.38,14.38,0,0,1,4.41-1.71,25,25,0,0,1,5.16-.52,30.3,30.3,0,0,1,3.2.15,14.32,14.32,0,0,1,2.26.41v-.87a5.11,5.11,0,0,0-1.42-3.79c-1-.95-2.61-1.43-5-1.43a32.67,32.67,0,0,0-4.66.34,20.57,20.57,0,0,0-4,1l-1.18-7.45c.54-.16,1.22-.34,2-.53s1.69-.35,2.64-.49,2-.27,3-.38S419.37,23.6,420.44,23.6Zm.75,27.08c.91,0,1.78,0,2.61-.07a18.63,18.63,0,0,0,2-.18v-7c-.37-.08-.93-.16-1.67-.25a19.42,19.42,0,0,0-2.05-.12,19.12,19.12,0,0,0-2.46.15,6.49,6.49,0,0,0-2,.59A3.52,3.52,0,0,0,416.22,45a3.32,3.32,0,0,0-.5,1.87,3.18,3.18,0,0,0,1.46,3A8.08,8.08,0,0,0,421.19,50.68Z"/><path class="cls-2" d="M454.18,57.76a23.75,23.75,0,0,1-6.55-.87,9.7,9.7,0,0,1-4-2.27,7.42,7.42,0,0,1-2-3.54,19.21,19.21,0,0,1-.53-4.69v-36l9.26-1.49V44.53a12.51,12.51,0,0,0,.18,2.23,3.78,3.78,0,0,0,.72,1.68,3.68,3.68,0,0,0,1.52,1.12,8.5,8.5,0,0,0,2.67.56Z"/><path class="cls-2" d="M485.79,13.6q9.69,0,14.84,3.45c3.44,2.29,5.16,5.87,5.16,10.71a12.09,12.09,0,0,1-2.08,7.36,13.82,13.82,0,0,1-6,4.44c.86,1.08,1.78,2.31,2.73,3.7s1.89,2.83,2.82,4.34,1.84,3.09,2.7,4.72,1.68,3.24,2.43,4.82H497.57l-2.4-4.29q-1.21-2.18-2.5-4.22t-2.52-3.88c-.83-1.22-1.67-2.33-2.5-3.33h-4.78V57.14h-9.68V14.72a54.43,54.43,0,0,1,6.55-.87Q483.12,13.6,485.79,13.6Zm.56,8.26q-1.05,0-1.89.06l-1.59.13V33.72h2.74q5.46,0,7.82-1.36a5,5,0,0,0,2.36-4.66,4.74,4.74,0,0,0-2.39-4.5A14.76,14.76,0,0,0,486.35,21.86Z"/><path class="cls-2" d="M510.12,41.05a20,20,0,0,1,1.34-7.61A16.32,16.32,0,0,1,515,28a14.46,14.46,0,0,1,5-3.29,15.54,15.54,0,0,1,5.8-1.12q7,0,11,4.25t4,12.52q0,.81-.06,1.77c0,.64-.08,1.21-.12,1.7h-21a6.16,6.16,0,0,0,2.68,4.54,10.7,10.7,0,0,0,6.33,1.68,26.81,26.81,0,0,0,5-.47,18.8,18.8,0,0,0,4-1.15L538.88,56a12.82,12.82,0,0,1-2,.75,24.48,24.48,0,0,1-2.76.65c-1,.19-2.11.34-3.26.47a33.81,33.81,0,0,1-3.48.19,20.56,20.56,0,0,1-7.67-1.31,15,15,0,0,1-5.41-3.57,14.21,14.21,0,0,1-3.16-5.37A21.11,21.11,0,0,1,510.12,41.05Zm21.74-3.54a9.9,9.9,0,0,0-.4-2.3,5.91,5.91,0,0,0-1.06-2,5.67,5.67,0,0,0-1.8-1.43,5.8,5.8,0,0,0-2.7-.56,6.2,6.2,0,0,0-2.67.53,5.61,5.61,0,0,0-1.87,1.39,6.48,6.48,0,0,0-1.15,2,13.72,13.72,0,0,0-.59,2.33Z"/><path class="cls-2" d="M555.46,50.49a9,9,0,0,0,3.6-.5,1.92,1.92,0,0,0,1.06-1.92,2.37,2.37,0,0,0-1.37-2,25.66,25.66,0,0,0-4.16-1.89,41.66,41.66,0,0,1-3.94-1.68,11.61,11.61,0,0,1-3-2.08,8.31,8.31,0,0,1-1.92-2.89,10.58,10.58,0,0,1-.69-4,8.72,8.72,0,0,1,3.42-7.27q3.42-2.67,9.38-2.67a30.16,30.16,0,0,1,5.71.53,26,26,0,0,1,4.35,1.15l-1.62,7.2a33.75,33.75,0,0,0-3.51-1,19,19,0,0,0-4.25-.44c-2.9,0-4.34.81-4.34,2.42a2.59,2.59,0,0,0,.18,1,2.13,2.13,0,0,0,.75.84,10.18,10.18,0,0,0,1.52.87c.64.31,1.46.66,2.45,1a37.2,37.2,0,0,1,5,2.23,12.08,12.08,0,0,1,3.14,2.36,7.41,7.41,0,0,1,1.61,2.82,12.5,12.5,0,0,1,.47,3.59,8.28,8.28,0,0,1-3.64,7.32Q562,58,555.4,58a29.42,29.42,0,0,1-7.24-.75,29.91,29.91,0,0,1-4-1.24l1.55-7.52A30.31,30.31,0,0,0,550.55,50,23.72,23.72,0,0,0,555.46,50.49Z"/><path class="cls-2" d="M572.65,41.05A20,20,0,0,1,574,33.44,16.32,16.32,0,0,1,577.5,28a14.46,14.46,0,0,1,5-3.29,15.54,15.54,0,0,1,5.8-1.12q7,0,11,4.25t4,12.52q0,.81-.06,1.77c0,.64-.08,1.21-.12,1.7h-21a6.11,6.11,0,0,0,2.67,4.54,10.7,10.7,0,0,0,6.33,1.68,26.81,26.81,0,0,0,5-.47,18.8,18.8,0,0,0,4-1.15L601.41,56a12.82,12.82,0,0,1-2,.75,24.48,24.48,0,0,1-2.76.65c-1,.19-2.11.34-3.26.47a33.81,33.81,0,0,1-3.48.19,20.56,20.56,0,0,1-7.67-1.31,14.91,14.91,0,0,1-5.4-3.57,14.1,14.1,0,0,1-3.17-5.37A21.39,21.39,0,0,1,572.65,41.05Zm21.74-3.54a9.9,9.9,0,0,0-.4-2.3,5.74,5.74,0,0,0-1.06-2,5.67,5.67,0,0,0-1.8-1.43,5.8,5.8,0,0,0-2.7-.56,6.2,6.2,0,0,0-2.67.53,5.61,5.61,0,0,0-1.87,1.39,6.26,6.26,0,0,0-1.14,2,12.84,12.84,0,0,0-.59,2.33Z"/><path class="cls-2" d="M620.44,23.6a21.46,21.46,0,0,1,6.83.93,10.56,10.56,0,0,1,4.38,2.67A9.86,9.86,0,0,1,634,31.42a20.68,20.68,0,0,1,.68,5.53V56.2c-1.32.29-3.16.64-5.52,1a53.52,53.52,0,0,1-8.57.59,27.35,27.35,0,0,1-5.75-.56,12.36,12.36,0,0,1-4.44-1.83,8.37,8.37,0,0,1-2.85-3.33,11.31,11.31,0,0,1-1-5,9.51,9.51,0,0,1,1.15-4.85,8.88,8.88,0,0,1,3.07-3.17,14.38,14.38,0,0,1,4.41-1.71,25,25,0,0,1,5.16-.52,30.44,30.44,0,0,1,3.2.15,14.32,14.32,0,0,1,2.26.41v-.87a5.08,5.08,0,0,0-1.43-3.79q-1.43-1.42-5-1.43a32.67,32.67,0,0,0-4.66.34,20.57,20.57,0,0,0-4,1l-1.18-7.45c.54-.16,1.21-.34,2-.53s1.69-.35,2.64-.49,2-.27,3-.38S619.36,23.6,620.44,23.6Zm.75,27.08c.91,0,1.78,0,2.6-.07a18.86,18.86,0,0,0,2-.18v-7c-.37-.08-.93-.16-1.67-.25a19.42,19.42,0,0,0-2.05-.12,19.12,19.12,0,0,0-2.46.15,6.49,6.49,0,0,0-2,.59A3.52,3.52,0,0,0,616.22,45a3.32,3.32,0,0,0-.5,1.87,3.18,3.18,0,0,0,1.46,3A8.06,8.06,0,0,0,621.19,50.68Z"/><path class="cls-2" d="M661,32.67c-.83-.21-1.8-.43-2.92-.66a18.65,18.65,0,0,0-3.6-.34,17.41,17.41,0,0,0-2.08.16,12.61,12.61,0,0,0-1.84.34v25h-9.25V26.21a56.07,56.07,0,0,1,5.87-1.65,33.62,33.62,0,0,1,7.54-.77q.75,0,1.8.09c.71.06,1.41.14,2.12.25s1.4.22,2.11.37a10.26,10.26,0,0,1,1.8.53Z"/><path class="cls-2" d="M663.73,40.8a19.35,19.35,0,0,1,1.14-6.67A15.63,15.63,0,0,1,673.48,25a17.43,17.43,0,0,1,7.08-1.37,22.27,22.27,0,0,1,4.78.47,23.23,23.23,0,0,1,4.22,1.33l-1.92,7.39a24.2,24.2,0,0,0-2.86-.87,14.92,14.92,0,0,0-3.48-.37q-4.09,0-6.11,2.54a10.48,10.48,0,0,0-2,6.71,10.86,10.86,0,0,0,1.89,6.83c1.26,1.62,3.47,2.43,6.61,2.43a23.69,23.69,0,0,0,3.61-.31,15.34,15.34,0,0,0,3.54-1l1.3,7.58a22,22,0,0,1-4,1.18,26.63,26.63,0,0,1-5.34.5,20.09,20.09,0,0,1-7.7-1.34A14.57,14.57,0,0,1,667.73,53a14.12,14.12,0,0,1-3-5.44A23.09,23.09,0,0,1,663.73,40.8Z"/><path class="cls-2" d="M694.52,57.14V10.43l9.25-1.49V24.59a21.37,21.37,0,0,1,2.39-.59,15.59,15.59,0,0,1,2.83-.28,17.53,17.53,0,0,1,6.61,1.09,10.15,10.15,0,0,1,4.22,3.08,11.71,11.71,0,0,1,2.24,4.71,26.58,26.58,0,0,1,.65,6.09V57.14h-9.25V39.81c0-3-.39-5.09-1.15-6.34s-2.18-1.86-4.25-1.86a11.45,11.45,0,0,0-2.33.22c-.73.14-1.38.3-2,.46V57.14Z"/><path class="cls-2" d="M300.79,122.16c-.48-1.49-1-3-1.54-4.6s-1.1-3.15-1.65-4.71H280.79c-.54,1.57-1.09,3.14-1.63,4.72s-1.06,3.11-1.53,4.59H267.57q2.43-6.94,4.61-12.85t4.27-11.12q2.08-5.22,4.11-9.9t4.2-9.16H294q2.12,4.47,4.18,9.16t4.15,9.9q2.09,5.22,4.27,11.12c1.46,3.93,3,8.22,4.62,12.85ZM289.15,88.88c-.21.62-.53,1.47-.95,2.55s-.89,2.32-1.42,3.73-1.13,3-1.78,4.65-1.33,3.48-2,5.34H295.3q-1-2.81-1.91-5.35t-1.76-4.67c-.56-1.41-1.05-2.65-1.46-3.73S289.41,89.49,289.15,88.88Z"/><path class="cls-2" d="M326.75,122.78a23,23,0,0,1-6.55-.87,9.62,9.62,0,0,1-4-2.26,7.64,7.64,0,0,1-2-3.54,19.23,19.23,0,0,1-.52-4.69v-36L323,74v35.59a11.59,11.59,0,0,0,.19,2.23,3.5,3.5,0,0,0,2.23,2.8,8.25,8.25,0,0,0,2.67.55Z"/><path class="cls-2" d="M344.57,122.78a23,23,0,0,1-6.55-.87,9.69,9.69,0,0,1-4-2.26,7.54,7.54,0,0,1-2-3.54,18.73,18.73,0,0,1-.53-4.69v-36L340.78,74v35.59a11.59,11.59,0,0,0,.19,2.23,3.5,3.5,0,0,0,2.23,2.8,8.37,8.37,0,0,0,2.67.55Z"/><path class="cls-2" d="M359.54,80.06a5.09,5.09,0,0,1-1.64,4,5.9,5.9,0,0,1-7.77,0,5.71,5.71,0,0,1,0-8,5.9,5.9,0,0,1,7.77,0A5.11,5.11,0,0,1,359.54,80.06Zm-.87,42.1h-9.25V89.5h9.25Z"/><path class="cls-2" d="M377.32,88.63a21.5,21.5,0,0,1,6.83.93,10.52,10.52,0,0,1,4.37,2.67,9.76,9.76,0,0,1,2.33,4.22,20.67,20.67,0,0,1,.69,5.53v19.25q-2,.43-5.53,1a53.52,53.52,0,0,1-8.57.59,27.25,27.25,0,0,1-5.74-.56,12.73,12.73,0,0,1-4.44-1.83,8.31,8.31,0,0,1-2.86-3.33,11.47,11.47,0,0,1-1-5,9.58,9.58,0,0,1,1.15-4.84,8.83,8.83,0,0,1,3.08-3.17,13.94,13.94,0,0,1,4.41-1.71,24.78,24.78,0,0,1,5.15-.52,30.3,30.3,0,0,1,3.2.15,14.63,14.63,0,0,1,2.27.4v-.86a5.12,5.12,0,0,0-1.43-3.79q-1.43-1.42-5-1.43a31.37,31.37,0,0,0-4.66.34,20.28,20.28,0,0,0-4,1l-1.18-7.45c.54-.17,1.21-.34,2-.53s1.68-.35,2.64-.5,1.95-.26,3-.37S376.24,88.63,377.32,88.63Zm.74,27.07q1.37,0,2.61-.06a18.86,18.86,0,0,0,2-.18v-7c-.38-.08-.93-.17-1.68-.25a19.44,19.44,0,0,0-2.05-.13,18.79,18.79,0,0,0-2.45.16,6.3,6.3,0,0,0-2,.59,3.44,3.44,0,0,0-1.37,1.18,3.3,3.3,0,0,0-.49,1.86,3.17,3.17,0,0,0,1.46,3A8.13,8.13,0,0,0,378.06,115.7Z"/><path class="cls-2" d="M398.19,90.62a52.41,52.41,0,0,1,6.09-1.28,50.37,50.37,0,0,1,7.83-.59A18.92,18.92,0,0,1,419,89.84a10.44,10.44,0,0,1,4.38,3.07,12.18,12.18,0,0,1,2.3,4.72,25.39,25.39,0,0,1,.68,6.09v18.44h-9.25V104.84c0-3-.4-5.1-1.18-6.34s-2.26-1.86-4.41-1.86c-.67,0-1.37,0-2.11.09s-1.41.14-2,.22v25.21h-9.26Z"/><path class="cls-2" d="M431.33,105.83a19.18,19.18,0,0,1,1.15-6.68,15.64,15.64,0,0,1,8.6-9.16,17.43,17.43,0,0,1,7.08-1.36,22.88,22.88,0,0,1,4.78.46,23.36,23.36,0,0,1,4.23,1.34l-1.93,7.39a23.63,23.63,0,0,0-2.86-.87,14.77,14.77,0,0,0-3.47-.37q-4.11,0-6.12,2.54a10.48,10.48,0,0,0-2,6.71,10.86,10.86,0,0,0,1.89,6.83c1.27,1.62,3.47,2.42,6.62,2.42a22.27,22.27,0,0,0,3.6-.31,14.85,14.85,0,0,0,3.54-1l1.31,7.58a23.11,23.11,0,0,1-4,1.18,26.81,26.81,0,0,1-5.34.49,20.1,20.1,0,0,1-7.7-1.33,13.95,13.95,0,0,1-8.36-9.07A23.14,23.14,0,0,1,431.33,105.83Z"/><path class="cls-2" d="M460,106.08a19.78,19.78,0,0,1,1.34-7.61A16.32,16.32,0,0,1,464.81,93a14.59,14.59,0,0,1,5-3.3,15.78,15.78,0,0,1,5.81-1.11q7,0,11,4.25t4,12.51q0,.81-.06,1.77c0,.65-.09,1.22-.13,1.71h-21a6.17,6.17,0,0,0,2.67,4.54,10.82,10.82,0,0,0,6.34,1.67,26.88,26.88,0,0,0,5-.46,19.1,19.1,0,0,0,4-1.15l1.24,7.51a12.27,12.27,0,0,1-2,.75,26.47,26.47,0,0,1-2.77.65c-1,.19-2.1.34-3.26.47a33.75,33.75,0,0,1-3.47.18,20.56,20.56,0,0,1-7.67-1.3,15,15,0,0,1-5.41-3.57,14.36,14.36,0,0,1-3.17-5.37A21.39,21.39,0,0,1,460,106.08Zm21.74-3.54a9.33,9.33,0,0,0-.41-2.3,5.67,5.67,0,0,0-1.05-2,5.81,5.81,0,0,0-1.8-1.43,6,6,0,0,0-2.71-.55,6.19,6.19,0,0,0-2.66.52,5.64,5.64,0,0,0-1.87,1.4,6.18,6.18,0,0,0-1.15,2,13.72,13.72,0,0,0-.59,2.33Z"/><path class="cls-2" d="M537.22,106.14a20.83,20.83,0,0,1-1.09,6.89,15.54,15.54,0,0,1-3,5.28,14,14,0,0,1-4.63,3.39,15,15,0,0,1-11.8,0,14,14,0,0,1-4.63-3.39,15.38,15.38,0,0,1-3-5.28,22.32,22.32,0,0,1,0-13.78,15.71,15.71,0,0,1,3-5.31,13.78,13.78,0,0,1,4.63-3.42,15,15,0,0,1,11.8,0,13.78,13.78,0,0,1,4.63,3.42,15.88,15.88,0,0,1,3,5.31A20.88,20.88,0,0,1,537.22,106.14Zm-4.29,0q0-6-2.79-9.59a9.81,9.81,0,0,0-15.16,0q-2.79,3.57-2.79,9.59T515,115.7a9.89,9.89,0,0,0,15.16,0Q532.93,112.16,532.93,106.14Z"/><path class="cls-2" d="M555.67,74a18.35,18.35,0,0,1,4.26.41,8.77,8.77,0,0,1,2.14.71l-.81,3.48a12.88,12.88,0,0,0-2-.66,14.38,14.38,0,0,0-3.38-.34q-4.29,0-6.12,2.18c-1.22,1.45-1.83,3.76-1.83,7v3.35h12.92v3.42H547.91v28.69h-4V86.58q0-6.27,2.89-9.44T555.67,74Z"/><path class="cls-2" d="M596.41,123.09a19.76,19.76,0,0,1-7.73-1.49,17.58,17.58,0,0,1-6.21-4.34,20.61,20.61,0,0,1-4.16-7.05,27.91,27.91,0,0,1-1.52-9.6A26.23,26.23,0,0,1,578.43,91a21.42,21.42,0,0,1,4.38-7,18.22,18.22,0,0,1,6.33-4.32,19.94,19.94,0,0,1,7.52-1.46,29.71,29.71,0,0,1,4.41.31,25.24,25.24,0,0,1,3.48.78,24.34,24.34,0,0,1,2.54.93,11.08,11.08,0,0,1,1.62.84l-1.37,3.66a24.63,24.63,0,0,0-3.94-1.83,19.33,19.33,0,0,0-13,.47,13.79,13.79,0,0,0-5.06,3.85,16.75,16.75,0,0,0-3.08,5.9,26.43,26.43,0,0,0-1,7.58,27.25,27.25,0,0,0,1,7.73,16.8,16.8,0,0,0,3,5.87,13.36,13.36,0,0,0,4.88,3.72,15.92,15.92,0,0,0,6.61,1.31,25.73,25.73,0,0,0,6.87-.78,20.57,20.57,0,0,0,4.19-1.58l1.18,3.6a7.78,7.78,0,0,1-1.49.71q-1.06.4-2.67.84a28.24,28.24,0,0,1-3.73.71A35.57,35.57,0,0,1,596.41,123.09Z"/><path class="cls-2" d="M624.5,89.31a14.24,14.24,0,0,1,5.38.9,9.17,9.17,0,0,1,3.57,2.49,9.8,9.8,0,0,1,2,3.75,17.32,17.32,0,0,1,.62,4.72v20.25c-.42.12-1,.26-1.81.4s-1.69.3-2.73.47-2.18.3-3.44.4-2.56.16-3.89.16a18.59,18.59,0,0,1-4.68-.56,10.57,10.57,0,0,1-3.73-1.77,8.36,8.36,0,0,1-2.48-3.11,10.69,10.69,0,0,1-.91-4.62,9.47,9.47,0,0,1,1-4.48,8.46,8.46,0,0,1,2.79-3.07,12.5,12.5,0,0,1,4.29-1.77,24.73,24.73,0,0,1,5.4-.56q.87,0,1.83.09c.64.07,1.27.15,1.87.25s1.11.21,1.55.31a5.85,5.85,0,0,1,.9.28v-2a20.63,20.63,0,0,0-.25-3.27,7.06,7.06,0,0,0-1.09-2.85,5.94,5.94,0,0,0-2.36-2,8.79,8.79,0,0,0-4-.78,20.74,20.74,0,0,0-5.28.5q-1.74.5-2.55.81l-.56-3.54a15.8,15.8,0,0,1,3.27-.94A28.57,28.57,0,0,1,624.5,89.31Zm.38,29.93c1.57,0,3,0,4.13-.15a28.92,28.92,0,0,0,3-.4V107.38a13.49,13.49,0,0,0-2.17-.65,19.15,19.15,0,0,0-4.1-.34,22.52,22.52,0,0,0-3.11.22,8.73,8.73,0,0,0-3,.93,6.09,6.09,0,0,0-2.23,1.95,5.65,5.65,0,0,0-.87,3.3,7,7,0,0,0,.59,3,4.83,4.83,0,0,0,1.67,2,7.52,7.52,0,0,0,2.61,1.09A15.69,15.69,0,0,0,624.88,119.24Z"/><path class="cls-2" d="M644.17,91.17c1.2-.33,2.82-.7,4.85-1.12a38.21,38.21,0,0,1,7.45-.62,15.62,15.62,0,0,1,6.12,1.06,9.47,9.47,0,0,1,3.91,3,12.48,12.48,0,0,1,2.08,4.69,27.46,27.46,0,0,1,.62,6v17.94h-4V105.52a30.58,30.58,0,0,0-.46-5.78,9.61,9.61,0,0,0-1.56-3.85,6,6,0,0,0-2.85-2.14,13.09,13.09,0,0,0-4.44-.65,33.57,33.57,0,0,0-4.94.31,14.79,14.79,0,0,0-2.7.56v28.19h-4Z"/><path class="cls-2" d="M686.78,89.31a14.22,14.22,0,0,1,5.37.9,9.17,9.17,0,0,1,3.57,2.49,9.8,9.8,0,0,1,2,3.75,17.32,17.32,0,0,1,.62,4.72v20.25a17.61,17.61,0,0,1-1.8.4c-.79.15-1.7.3-2.73.47s-2.19.3-3.45.4-2.56.16-3.88.16a18.67,18.67,0,0,1-4.69-.56,10.52,10.52,0,0,1-3.72-1.77,8.38,8.38,0,0,1-2.49-3.11,10.69,10.69,0,0,1-.9-4.62,9.47,9.47,0,0,1,1-4.48,8.57,8.57,0,0,1,2.8-3.07,12.45,12.45,0,0,1,4.28-1.77,24.83,24.83,0,0,1,5.41-.56q.87,0,1.83.09c.64.07,1.26.15,1.86.25s1.12.21,1.55.31a5.18,5.18,0,0,1,.9.28v-2a21.88,21.88,0,0,0-.24-3.27A7.2,7.2,0,0,0,693,95.74a6.08,6.08,0,0,0-2.36-2,8.83,8.83,0,0,0-4-.78,20.74,20.74,0,0,0-5.28.5c-1.15.33-2,.6-2.54.81l-.56-3.54a15.48,15.48,0,0,1,3.26-.94A28.76,28.76,0,0,1,686.78,89.31Zm.37,29.93c1.58,0,3,0,4.13-.15a28.56,28.56,0,0,0,3-.4V107.38a12.86,12.86,0,0,0-2.17-.65,19.09,19.09,0,0,0-4.1-.34,22.38,22.38,0,0,0-3.1.22,8.73,8.73,0,0,0-3,.93,6.21,6.21,0,0,0-2.24,1.95,5.65,5.65,0,0,0-.87,3.3,7.1,7.1,0,0,0,.59,3,4.78,4.78,0,0,0,1.68,2,7.36,7.36,0,0,0,2.61,1.09A15.6,15.6,0,0,0,687.15,119.24Z"/><path class="cls-2" d="M732.08,121.17a36.54,36.54,0,0,1-4.59,1.18,37.32,37.32,0,0,1-7.08.56,17.2,17.2,0,0,1-6.43-1.15,13.92,13.92,0,0,1-5-3.32,15.13,15.13,0,0,1-3.23-5.28,20.27,20.27,0,0,1-1.15-7,22.22,22.22,0,0,1,1-6.74,15.34,15.34,0,0,1,2.82-5.31A12.75,12.75,0,0,1,713,90.62a14.61,14.61,0,0,1,6.18-1.25,15.18,15.18,0,0,1,5.49.9A14.51,14.51,0,0,1,728.05,92V74.72l4-.75Zm-4-25.28a14.14,14.14,0,0,0-1.4-.93,13.33,13.33,0,0,0-2-.93,14.93,14.93,0,0,0-2.42-.71,12.77,12.77,0,0,0-2.73-.28,10.73,10.73,0,0,0-5,1,9.06,9.06,0,0,0-3.26,2.83,11.8,11.8,0,0,0-1.8,4.16,22.29,22.29,0,0,0-.56,5.06q0,6.33,3.17,9.72a10.91,10.91,0,0,0,8.38,3.38,34.27,34.27,0,0,0,4.81-.27,19.39,19.39,0,0,0,2.77-.59Z"/><path class="cls-2" d="M750.08,89.31a14.22,14.22,0,0,1,5.37.9A9.17,9.17,0,0,1,759,92.7a9.66,9.66,0,0,1,2,3.75,17.32,17.32,0,0,1,.62,4.72v20.25a17.61,17.61,0,0,1-1.8.4c-.79.15-1.7.3-2.73.47s-2.19.3-3.45.4-2.56.16-3.88.16a18.67,18.67,0,0,1-4.69-.56,10.52,10.52,0,0,1-3.72-1.77,8.38,8.38,0,0,1-2.49-3.11,10.69,10.69,0,0,1-.9-4.62,9.47,9.47,0,0,1,1-4.48,8.48,8.48,0,0,1,2.8-3.07,12.45,12.45,0,0,1,4.28-1.77,24.83,24.83,0,0,1,5.41-.56q.87,0,1.83.09c.64.07,1.26.15,1.86.25s1.12.21,1.55.31a5.18,5.18,0,0,1,.9.28v-2a21.88,21.88,0,0,0-.24-3.27,7.2,7.2,0,0,0-1.09-2.85,6.08,6.08,0,0,0-2.36-2,8.83,8.83,0,0,0-4-.78,20.6,20.6,0,0,0-5.27.5q-1.74.5-2.55.81l-.56-3.54a15.48,15.48,0,0,1,3.26-.94A28.76,28.76,0,0,1,750.08,89.31Zm.37,29.93c1.58,0,2.95,0,4.13-.15a28.56,28.56,0,0,0,3-.4V107.38a13.17,13.17,0,0,0-2.17-.65,19.09,19.09,0,0,0-4.1-.34,22.38,22.38,0,0,0-3.1.22,8.73,8.73,0,0,0-3,.93,6.21,6.21,0,0,0-2.24,1.95,5.65,5.65,0,0,0-.87,3.3,7.1,7.1,0,0,0,.59,3,4.85,4.85,0,0,0,1.68,2A7.36,7.36,0,0,0,747,118.9,15.6,15.6,0,0,0,750.45,119.24Z"/><path class="cls-2" d="M920.15,57.14q-.72-2.25-1.55-4.61L917,47.82H900.14q-.81,2.35-1.63,4.72T897,57.14H886.93q2.42-7,4.6-12.86t4.27-11.12q2.09-5.22,4.11-9.9t4.21-9.16h9.18q2.12,4.47,4.18,9.16t4.15,9.9q2.1,5.22,4.27,11.12t4.62,12.86ZM908.51,23.85c-.22.62-.54,1.47-1,2.55s-.89,2.32-1.43,3.73-1.12,3-1.78,4.66-1.32,3.47-2,5.33h12.31q-1-2.8-1.92-5.35c-.62-1.7-1.2-3.26-1.76-4.67l-1.46-3.72C909.1,25.3,908.76,24.46,908.51,23.85Z"/><path class="cls-2" d="M946.1,57.76a23.75,23.75,0,0,1-6.55-.87,9.7,9.7,0,0,1-4-2.27,7.42,7.42,0,0,1-2-3.54,19.21,19.21,0,0,1-.53-4.69v-36l9.25-1.49V44.53a12.45,12.45,0,0,0,.19,2.23,3.49,3.49,0,0,0,2.24,2.8,8.5,8.5,0,0,0,2.67.56Z"/><path class="cls-2" d="M963.93,57.76a23.77,23.77,0,0,1-6.56-.87,9.77,9.77,0,0,1-4-2.27,7.51,7.51,0,0,1-2-3.54,19.21,19.21,0,0,1-.53-4.69v-36l9.26-1.49V44.53a12.51,12.51,0,0,0,.18,2.23,3.54,3.54,0,0,0,2.24,2.8,8.5,8.5,0,0,0,2.67.56Z"/><path class="cls-2" d="M978.9,15a5.05,5.05,0,0,1-1.65,4,5.86,5.86,0,0,1-7.76,0,5.05,5.05,0,0,1-1.65-4,5.09,5.09,0,0,1,1.65-4,5.92,5.92,0,0,1,7.76,0A5.09,5.09,0,0,1,978.9,15ZM978,57.14h-9.26V24.47H978Z"/><path class="cls-2" d="M996.67,23.6a21.46,21.46,0,0,1,6.83.93,10.63,10.63,0,0,1,4.38,2.67,9.86,9.86,0,0,1,2.33,4.22,21.1,21.1,0,0,1,.68,5.53V56.2c-1.32.29-3.17.64-5.53,1a53.39,53.39,0,0,1-8.56.59,27.35,27.35,0,0,1-5.75-.56,12.36,12.36,0,0,1-4.44-1.83,8.39,8.39,0,0,1-2.86-3.33,11.46,11.46,0,0,1-1-5,9.51,9.51,0,0,1,1.15-4.85A8.88,8.88,0,0,1,987,39.06a14.28,14.28,0,0,1,4.41-1.71,25,25,0,0,1,5.16-.52,30.1,30.1,0,0,1,3.19.15,14.26,14.26,0,0,1,2.27.41v-.87a5.08,5.08,0,0,0-1.43-3.79q-1.43-1.42-5-1.43a32.63,32.63,0,0,0-4.65.34,20.39,20.39,0,0,0-4,1l-1.18-7.45c.54-.16,1.21-.34,2-.53s1.69-.35,2.64-.49,2-.27,3-.38S995.59,23.6,996.67,23.6Zm.74,27.08c.92,0,1.79,0,2.61-.07a18.86,18.86,0,0,0,2-.18v-7c-.37-.08-.93-.16-1.68-.25a19.24,19.24,0,0,0-2-.12,19,19,0,0,0-2.46.15,6.56,6.56,0,0,0-2,.59A3.49,3.49,0,0,0,992.45,45a3.32,3.32,0,0,0-.5,1.87,3.18,3.18,0,0,0,1.46,3A8,8,0,0,0,997.41,50.68Z"/><path class="cls-2" d="M1017.55,25.59a51.73,51.73,0,0,1,6.08-1.28,50.56,50.56,0,0,1,7.83-.59,19.13,19.13,0,0,1,6.92,1.09,10.25,10.25,0,0,1,4.38,3.08,11.93,11.93,0,0,1,2.3,4.71,25.45,25.45,0,0,1,.68,6.09V57.14h-9.25V39.81q0-4.47-1.18-6.34t-4.41-1.86c-.66,0-1.37,0-2.11.09s-1.41.14-2,.22V57.14h-9.25Z"/><path class="cls-2" d="M1050.69,40.8a19.35,19.35,0,0,1,1.14-6.67,15.63,15.63,0,0,1,8.61-9.16,17.43,17.43,0,0,1,7.08-1.37,22.27,22.27,0,0,1,4.78.47,23.23,23.23,0,0,1,4.22,1.33l-1.92,7.39a24.2,24.2,0,0,0-2.86-.87,14.92,14.92,0,0,0-3.48-.37q-4.1,0-6.12,2.54a10.53,10.53,0,0,0-2,6.71,10.86,10.86,0,0,0,1.89,6.83c1.26,1.62,3.47,2.43,6.61,2.43a23.46,23.46,0,0,0,3.6-.31,15.28,15.28,0,0,0,3.55-1l1.3,7.58a22,22,0,0,1-4,1.18,26.63,26.63,0,0,1-5.34.5,20.09,20.09,0,0,1-7.7-1.34,14.57,14.57,0,0,1-5.31-3.63,14.12,14.12,0,0,1-3-5.44A23.09,23.09,0,0,1,1050.69,40.8Z"/><path class="cls-2" d="M1079.32,41.05a20,20,0,0,1,1.33-7.61,16.32,16.32,0,0,1,3.51-5.43,14.46,14.46,0,0,1,5-3.29A15.55,15.55,0,0,1,1095,23.6q6.94,0,11,4.25t4,12.52q0,.81-.06,1.77c0,.64-.08,1.21-.12,1.7h-21a6.11,6.11,0,0,0,2.67,4.54,10.7,10.7,0,0,0,6.33,1.68,26.73,26.73,0,0,0,5-.47,18.62,18.62,0,0,0,4-1.15l1.24,7.51a12.82,12.82,0,0,1-2,.75,24.48,24.48,0,0,1-2.76.65c-1,.19-2.11.34-3.26.47a33.81,33.81,0,0,1-3.48.19,20.56,20.56,0,0,1-7.67-1.31,15,15,0,0,1-5.4-3.57,14.1,14.1,0,0,1-3.17-5.37A21.39,21.39,0,0,1,1079.32,41.05Zm21.73-3.54a9.9,9.9,0,0,0-.4-2.3,5.74,5.74,0,0,0-1.06-2,5.56,5.56,0,0,0-1.8-1.43,5.77,5.77,0,0,0-2.7-.56,6.2,6.2,0,0,0-2.67.53,5.47,5.47,0,0,0-1.86,1.39,6.29,6.29,0,0,0-1.15,2,12.84,12.84,0,0,0-.59,2.33Z"/><path class="cls-2" d="M1157.75,56.08c-.83.25-1.78.49-2.86.71s-2.2.43-3.38.59-2.38.3-3.6.41-2.39.15-3.51.15a20.53,20.53,0,0,1-7.21-1.18,14.39,14.39,0,0,1-5.34-3.38,14.73,14.73,0,0,1-3.32-5.34,20.52,20.52,0,0,1-1.15-7,23.85,23.85,0,0,1,1-7.17,15.55,15.55,0,0,1,2.85-5.44A12.24,12.24,0,0,1,1135.8,25a15.24,15.24,0,0,1,6.18-1.18,14.39,14.39,0,0,1,3.44.37,19.33,19.33,0,0,1,3.08,1.05V10.43l9.25-1.49Zm-20.93-15.53a11.31,11.31,0,0,0,1.93,6.9,6.63,6.63,0,0,0,5.71,2.61c.83,0,1.59,0,2.3-.1s1.28-.13,1.74-.21V32.92a7.91,7.91,0,0,0-2.27-.94,11.25,11.25,0,0,0-2.82-.37Q1136.82,31.61,1136.82,40.55Z"/><path class="cls-2" d="M1163.07,41.05a20,20,0,0,1,1.33-7.61,16.32,16.32,0,0,1,3.51-5.43,14.46,14.46,0,0,1,5-3.29,15.54,15.54,0,0,1,5.8-1.12q7,0,11,4.25t4,12.52q0,.81-.06,1.77c0,.64-.08,1.21-.12,1.7h-21a6.11,6.11,0,0,0,2.67,4.54,10.7,10.7,0,0,0,6.33,1.68,26.73,26.73,0,0,0,5-.47,18.62,18.62,0,0,0,4-1.15l1.24,7.51a12.82,12.82,0,0,1-2,.75,24.48,24.48,0,0,1-2.76.65c-1,.19-2.11.34-3.26.47a33.81,33.81,0,0,1-3.48.19,20.56,20.56,0,0,1-7.67-1.31,15,15,0,0,1-5.4-3.57,14.1,14.1,0,0,1-3.17-5.37A21.39,21.39,0,0,1,1163.07,41.05Zm21.73-3.54a9.9,9.9,0,0,0-.4-2.3,5.74,5.74,0,0,0-1.06-2,5.56,5.56,0,0,0-1.8-1.43,5.77,5.77,0,0,0-2.7-.56,6.2,6.2,0,0,0-2.67.53,5.61,5.61,0,0,0-1.87,1.39,6.45,6.45,0,0,0-1.14,2,12.84,12.84,0,0,0-.59,2.33Z"/><path class="cls-2" d="M1232.37,32.67c-.83-.21-1.8-.43-2.92-.66a18.57,18.57,0,0,0-3.6-.34,17.56,17.56,0,0,0-2.08.16,12.17,12.17,0,0,0-1.83.34v25h-9.26V26.21a56.78,56.78,0,0,1,5.87-1.65,33.71,33.71,0,0,1,7.55-.77q.75,0,1.8.09c.7.06,1.41.14,2.11.25s1.41.22,2.11.37a9.77,9.77,0,0,1,1.8.53Z"/><path class="cls-2" d="M1235.15,41.05a20,20,0,0,1,1.34-7.61A16.32,16.32,0,0,1,1240,28a14.46,14.46,0,0,1,5-3.29,15.5,15.5,0,0,1,5.8-1.12q7,0,11,4.25t4,12.52q0,.81-.06,1.77c0,.64-.09,1.21-.12,1.7h-21a6.17,6.17,0,0,0,2.67,4.54,10.75,10.75,0,0,0,6.34,1.68,26.81,26.81,0,0,0,5-.47,18.52,18.52,0,0,0,4-1.15l1.25,7.51a12.82,12.82,0,0,1-2,.75,24.16,24.16,0,0,1-2.77.65c-1,.19-2.1.34-3.25.47a34,34,0,0,1-3.48.19,20.56,20.56,0,0,1-7.67-1.31,15,15,0,0,1-5.41-3.57,14.21,14.21,0,0,1-3.16-5.37A21.11,21.11,0,0,1,1235.15,41.05Zm21.74-3.54a9.41,9.41,0,0,0-.41-2.3,5.55,5.55,0,0,0-2.85-3.41,5.8,5.8,0,0,0-2.7-.56,6.2,6.2,0,0,0-2.67.53,5.61,5.61,0,0,0-1.87,1.39,6.48,6.48,0,0,0-1.15,2,13.72,13.72,0,0,0-.59,2.33Z"/><path class="cls-2" d="M1269.52,40.8a19.12,19.12,0,0,1,1.15-6.67,15.57,15.57,0,0,1,8.6-9.16,17.43,17.43,0,0,1,7.08-1.37,22.2,22.2,0,0,1,4.78.47,23.33,23.33,0,0,1,4.23,1.33l-1.93,7.39a23.63,23.63,0,0,0-2.86-.87,14.8,14.8,0,0,0-3.48-.37q-4.1,0-6.11,2.54a10.48,10.48,0,0,0-2,6.71,10.86,10.86,0,0,0,1.89,6.83c1.27,1.62,3.47,2.43,6.62,2.43a23.46,23.46,0,0,0,3.6-.31,15.34,15.34,0,0,0,3.54-1l1.3,7.58a21.91,21.91,0,0,1-4,1.18,26.78,26.78,0,0,1-5.34.5,20.06,20.06,0,0,1-7.7-1.34,14.53,14.53,0,0,1-5.32-3.63,14.25,14.25,0,0,1-3-5.44A23.09,23.09,0,0,1,1269.52,40.8Z"/><path class="cls-2" d="M1300.31,57.14V10.43l9.25-1.49V24.59A21.07,21.07,0,0,1,1312,24a15.4,15.4,0,0,1,2.82-.28,17.53,17.53,0,0,1,6.61,1.09,10.24,10.24,0,0,1,4.23,3.08,11.83,11.83,0,0,1,2.23,4.71,26,26,0,0,1,.65,6.09V57.14h-9.25V39.81q0-4.47-1.15-6.34c-.77-1.24-2.18-1.86-4.25-1.86a11.45,11.45,0,0,0-2.33.22c-.73.14-1.38.3-2,.46V57.14Z"/><path class="cls-2" d="M1333.45,41.05a20,20,0,0,1,1.33-7.61,16.32,16.32,0,0,1,3.51-5.43,14.55,14.55,0,0,1,5-3.29,15.55,15.55,0,0,1,5.81-1.12q6.95,0,11,4.25t4,12.52c0,.54,0,1.13,0,1.77s-.09,1.21-.13,1.7h-21a6.17,6.17,0,0,0,2.67,4.54,10.7,10.7,0,0,0,6.33,1.68,26.73,26.73,0,0,0,5-.47,18.62,18.62,0,0,0,4-1.15L1362.2,56a12.82,12.82,0,0,1-2,.75,24,24,0,0,1-2.76.65c-1,.19-2.1.34-3.26.47a33.81,33.81,0,0,1-3.48.19A20.56,20.56,0,0,1,1343,56.7a15,15,0,0,1-5.4-3.57,14.1,14.1,0,0,1-3.17-5.37A21.39,21.39,0,0,1,1333.45,41.05Zm21.73-3.54a9.4,9.4,0,0,0-.4-2.3,5.74,5.74,0,0,0-1.06-2,5.46,5.46,0,0,0-1.8-1.43,5.75,5.75,0,0,0-2.7-.56,6.26,6.26,0,0,0-2.67.53,5.47,5.47,0,0,0-1.86,1.39,6.29,6.29,0,0,0-1.15,2,12.84,12.84,0,0,0-.59,2.33Z"/><path class="cls-2" d="M1389.23,32.67c-.83-.21-1.8-.43-2.92-.66a18.65,18.65,0,0,0-3.6-.34,17.41,17.41,0,0,0-2.08.16,12.61,12.61,0,0,0-1.84.34v25h-9.25V26.21a56.07,56.07,0,0,1,5.87-1.65,33.68,33.68,0,0,1,7.54-.77c.5,0,1.1,0,1.81.09s1.4.14,2.11.25,1.4.22,2.11.37a10.26,10.26,0,0,1,1.8.53Z"/><path class="cls-2" d="M1392,40.8a19.12,19.12,0,0,1,1.15-6.67,15.57,15.57,0,0,1,8.6-9.16,17.43,17.43,0,0,1,7.08-1.37,22.27,22.27,0,0,1,4.78.47,23,23,0,0,1,4.22,1.33l-1.93,7.39a23.46,23.46,0,0,0-2.85-.87,14.92,14.92,0,0,0-3.48-.37q-4.1,0-6.12,2.54a10.53,10.53,0,0,0-2,6.71,10.86,10.86,0,0,0,1.89,6.83c1.26,1.62,3.47,2.43,6.61,2.43a23.69,23.69,0,0,0,3.61-.31,15.11,15.11,0,0,0,3.53-1l1.31,7.58a22,22,0,0,1-4,1.18,26.63,26.63,0,0,1-5.34.5,20.13,20.13,0,0,1-7.7-1.34A14.57,14.57,0,0,1,1396,53a14.12,14.12,0,0,1-3-5.44A23.09,23.09,0,0,1,1392,40.8Z"/><path class="cls-2" d="M1422.74,57.14V10.43L1432,8.94V24.59a21.37,21.37,0,0,1,2.39-.59,15.5,15.5,0,0,1,2.83-.28,17.53,17.53,0,0,1,6.61,1.09,10.15,10.15,0,0,1,4.22,3.08,11.84,11.84,0,0,1,2.24,4.71,26,26,0,0,1,.65,6.09V57.14h-9.25V39.81c0-3-.39-5.09-1.15-6.34s-2.18-1.86-4.25-1.86a11.45,11.45,0,0,0-2.33.22c-.73.14-1.38.3-2,.46V57.14Z"/><path class="cls-2" d="M1455.87,41.05a20,20,0,0,1,1.34-7.61,16.32,16.32,0,0,1,3.51-5.43,14.46,14.46,0,0,1,5-3.29,15.54,15.54,0,0,1,5.8-1.12q7,0,11,4.25t4,12.52q0,.81-.06,1.77c0,.64-.08,1.21-.12,1.7h-21a6.13,6.13,0,0,0,2.66,4.54,10.75,10.75,0,0,0,6.34,1.68,26.81,26.81,0,0,0,5-.47,18.52,18.52,0,0,0,4-1.15l1.25,7.51a12.82,12.82,0,0,1-2,.75,24.48,24.48,0,0,1-2.76.65c-1,.19-2.11.34-3.26.47a34,34,0,0,1-3.48.19,20.56,20.56,0,0,1-7.67-1.31,15,15,0,0,1-5.41-3.57,14.21,14.21,0,0,1-3.16-5.37A21.39,21.39,0,0,1,1455.87,41.05Zm21.74-3.54a9.41,9.41,0,0,0-.41-2.3,5.55,5.55,0,0,0-1-2,5.67,5.67,0,0,0-1.8-1.43,5.77,5.77,0,0,0-2.7-.56,6.2,6.2,0,0,0-2.67.53,5.61,5.61,0,0,0-1.87,1.39,6.26,6.26,0,0,0-1.14,2,12.84,12.84,0,0,0-.59,2.33Z"/><path class="cls-2" d="M890.9,90.62A51.51,51.51,0,0,1,897,89.34a50.34,50.34,0,0,1,7.82-.59,19,19,0,0,1,6.93,1.09,10.34,10.34,0,0,1,4.37,3.07,12,12,0,0,1,2.3,4.72,24.89,24.89,0,0,1,.68,6.09v18.44h-9.25V104.84c0-3-.39-5.1-1.18-6.34s-2.26-1.86-4.41-1.86c-.66,0-1.37,0-2.11.09s-1.41.14-2,.22v25.21H890.9Z"/><path class="cls-2" d="M953.42,121.05a53.9,53.9,0,0,1-6.09,1.27,50.34,50.34,0,0,1-7.82.59,18.48,18.48,0,0,1-6.93-1.12,10.48,10.48,0,0,1-4.38-3.14,12.21,12.21,0,0,1-2.29-4.81,25.61,25.61,0,0,1-.69-6.15V89.5h9.26v17.07q0,4.49,1.18,6.46t4.41,2c.66,0,1.36,0,2.11-.09s1.4-.14,2-.22V89.5h9.26Z"/><path class="cls-2" d="M978.25,104.84c0-3-.38-5.1-1.15-6.34a4.25,4.25,0,0,0-3.94-1.86q-.87,0-1.8.09c-.62.06-1.22.14-1.8.22v25.21h-9.25V90.62q1.17-.32,2.76-.66c1-.22,2.17-.43,3.35-.62s2.39-.33,3.64-.43,2.46-.16,3.66-.16a15.38,15.38,0,0,1,5.74.9,13.07,13.07,0,0,1,3.64,2.15,15.64,15.64,0,0,1,4.56-2.24,15.94,15.94,0,0,1,4.75-.81,16.23,16.23,0,0,1,6.43,1.09,9.62,9.62,0,0,1,4,3.07,11.55,11.55,0,0,1,2,4.72,29.92,29.92,0,0,1,.56,6.09v18.44H996.2V104.84c0-3-.38-5.1-1.15-6.34a4.26,4.26,0,0,0-3.94-1.86,10.17,10.17,0,0,0-4.29,1.3,14,14,0,0,1,.56,3c.08,1.05.12,2.18.12,3.38v17.82h-9.25Z"/><path class="cls-2" d="M1010.4,106.08a20,20,0,0,1,1.33-7.61,16.32,16.32,0,0,1,3.51-5.43,14.63,14.63,0,0,1,5-3.3,15.74,15.74,0,0,1,5.81-1.11q6.95,0,11,4.25t4,12.51q0,.81-.06,1.77t-.12,1.71h-21a6.11,6.11,0,0,0,2.67,4.54,10.77,10.77,0,0,0,6.33,1.67,26.81,26.81,0,0,0,5-.46,19.21,19.21,0,0,0,4-1.15l1.24,7.51a12.82,12.82,0,0,1-2,.75,26.86,26.86,0,0,1-2.76.65c-1,.19-2.1.34-3.26.47a33.8,33.8,0,0,1-3.48.18,20.6,20.6,0,0,1-7.67-1.3,15,15,0,0,1-5.4-3.57,14.1,14.1,0,0,1-3.17-5.37A21.39,21.39,0,0,1,1010.4,106.08Zm23.1-28.32-10.22,8.63L1019,82.6l8.79-10.06Zm-1.37,24.78a9.32,9.32,0,0,0-.4-2.3,5.69,5.69,0,0,0-1.06-2,5.59,5.59,0,0,0-1.8-1.43,5.87,5.87,0,0,0-2.7-.55,6.23,6.23,0,0,0-2.67.52,5.6,5.6,0,0,0-1.86,1.4,6.18,6.18,0,0,0-1.15,2,12.84,12.84,0,0,0-.59,2.33Z"/><path class="cls-2" d="M1066.18,97.69c-.83-.2-1.8-.42-2.92-.65a18.65,18.65,0,0,0-3.6-.34,15.54,15.54,0,0,0-2.08.16,11.38,11.38,0,0,0-1.84.34v25h-9.25V91.23a58.83,58.83,0,0,1,5.87-1.64,33.6,33.6,0,0,1,7.54-.78c.5,0,1.1,0,1.8.1s1.41.14,2.12.24,1.4.23,2.11.38a10.31,10.31,0,0,1,1.8.52Z"/><path class="cls-2" d="M1081.24,80.06a5.09,5.09,0,0,1-1.64,4,5.9,5.9,0,0,1-7.77,0,5.71,5.71,0,0,1,0-8,5.9,5.9,0,0,1,7.77,0A5.11,5.11,0,0,1,1081.24,80.06Zm-.87,42.1h-9.25V89.5h9.25Z"/><path class="cls-2" d="M1085.55,105.83a20,20,0,0,1,1.15-6.93,15.27,15.27,0,0,1,3.32-5.4,14.71,14.71,0,0,1,5.34-3.51,19.76,19.76,0,0,1,7.2-1.24c1.12,0,2.29,0,3.51.16s2.42.24,3.6.4,2.31.36,3.39.59,2,.47,2.85.72v43h-9.25V121.36a17.93,17.93,0,0,1-3.23,1,16.51,16.51,0,0,1-3.6.37q-7,0-10.62-4.56T1085.55,105.83Zm9.43.25q0,8.88,6.59,8.88a11.25,11.25,0,0,0,2.82-.37,7.91,7.91,0,0,0,2.27-.94V97c-.45-.08-1-.16-1.74-.22s-1.47-.09-2.3-.09a6.67,6.67,0,0,0-5.71,2.58A11.19,11.19,0,0,0,1095,106.08Z"/><path class="cls-2" d="M1150.73,121.05a54.39,54.39,0,0,1-6.09,1.27,50.34,50.34,0,0,1-7.82.59,18.48,18.48,0,0,1-6.93-1.12,10.48,10.48,0,0,1-4.38-3.14,12.21,12.21,0,0,1-2.29-4.81,25.61,25.61,0,0,1-.69-6.15V89.5h9.26v17.07q0,4.49,1.18,6.46t4.41,2c.66,0,1.36,0,2.11-.09s1.4-.14,2-.22V89.5h9.25Z"/><path class="cls-2" d="M1156,106.08a20,20,0,0,1,1.34-7.61,16.32,16.32,0,0,1,3.51-5.43,14.63,14.63,0,0,1,5-3.3,15.73,15.73,0,0,1,5.8-1.11q7,0,11,4.25t4,12.51q0,.81-.06,1.77t-.12,1.71h-21a6.16,6.16,0,0,0,2.68,4.54,10.77,10.77,0,0,0,6.33,1.67,26.81,26.81,0,0,0,5-.46,19.1,19.1,0,0,0,4-1.15l1.25,7.51a12.82,12.82,0,0,1-2,.75,26.86,26.86,0,0,1-2.76.65c-1,.19-2.11.34-3.26.47a33.8,33.8,0,0,1-3.48.18,20.56,20.56,0,0,1-7.67-1.3,14.82,14.82,0,0,1-5.4-3.57,14.1,14.1,0,0,1-3.17-5.37A21.11,21.11,0,0,1,1156,106.08Zm21.74-3.54a9.81,9.81,0,0,0-.4-2.3,5.69,5.69,0,0,0-1.06-2,5.81,5.81,0,0,0-1.8-1.43,5.93,5.93,0,0,0-2.7-.55,6.2,6.2,0,0,0-2.67.52,5.64,5.64,0,0,0-1.87,1.4,6.37,6.37,0,0,0-1.15,2,14.73,14.73,0,0,0-.59,2.33Z"/><path class="cls-2" d="M1231.43,121.17a36.54,36.54,0,0,1-4.59,1.18,37.25,37.25,0,0,1-7.08.56,17.2,17.2,0,0,1-6.43-1.15,14,14,0,0,1-5-3.32,15.11,15.11,0,0,1-3.22-5.28,20,20,0,0,1-1.16-7,22.22,22.22,0,0,1,1-6.74,15.34,15.34,0,0,1,2.82-5.31,12.83,12.83,0,0,1,4.57-3.47,14.61,14.61,0,0,1,6.18-1.25,15.18,15.18,0,0,1,5.49.9A14.31,14.31,0,0,1,1227.4,92V74.72l4-.75Zm-4-25.28A13,13,0,0,0,1226,95a13.33,13.33,0,0,0-2-.93,14.93,14.93,0,0,0-2.42-.71,12.77,12.77,0,0,0-2.73-.28,10.73,10.73,0,0,0-5,1,9.14,9.14,0,0,0-3.26,2.83,11.8,11.8,0,0,0-1.8,4.16,22.29,22.29,0,0,0-.56,5.06q0,6.33,3.17,9.72a10.91,10.91,0,0,0,8.38,3.38,34.53,34.53,0,0,0,4.82-.27,19.19,19.19,0,0,0,2.76-.59Z"/><path class="cls-2" d="M1264.47,121.05c-1.2.33-2.81.7-4.84,1.11a37.51,37.51,0,0,1-7.45.62,15.23,15.23,0,0,1-6-1,9.87,9.87,0,0,1-3.91-3,12.13,12.13,0,0,1-2.14-4.66,25.67,25.67,0,0,1-.66-6v-18h4v16.71a28.69,28.69,0,0,0,.5,5.78,9.51,9.51,0,0,0,1.61,3.82,6.39,6.39,0,0,0,2.89,2.11,12.68,12.68,0,0,0,4.32.65,34.29,34.29,0,0,0,5-.31,13.49,13.49,0,0,0,2.67-.56V90.05h4Z"/><path class="cls-2" d="M1304.34,123.09a19.76,19.76,0,0,1-7.73-1.49,17.58,17.58,0,0,1-6.21-4.34,20.61,20.61,0,0,1-4.16-7.05,27.91,27.91,0,0,1-1.52-9.6,26.23,26.23,0,0,1,1.64-9.59,21.42,21.42,0,0,1,4.38-7,18.16,18.16,0,0,1,6.34-4.32,19.85,19.85,0,0,1,7.51-1.46,29.61,29.61,0,0,1,4.41.31,25.24,25.24,0,0,1,3.48.78,24.34,24.34,0,0,1,2.54.93,10.57,10.57,0,0,1,1.62.84l-1.37,3.66a24.63,24.63,0,0,0-3.94-1.83,19.33,19.33,0,0,0-13,.47,13.87,13.87,0,0,0-5.06,3.85,16.75,16.75,0,0,0-3.08,5.9,26.43,26.43,0,0,0-1,7.58,27.25,27.25,0,0,0,1,7.73,16.65,16.65,0,0,0,3,5.87,13.32,13.32,0,0,0,4.87,3.72,15.92,15.92,0,0,0,6.61,1.31,25.73,25.73,0,0,0,6.87-.78,20.33,20.33,0,0,0,4.19-1.58l1.18,3.6a7.78,7.78,0,0,1-1.49.71q-1.07.4-2.67.84a28.24,28.24,0,0,1-3.73.71A35.57,35.57,0,0,1,1304.34,123.09Z"/><path class="cls-2" d="M1332.44,89.31a14.22,14.22,0,0,1,5.37.9,9.17,9.17,0,0,1,3.57,2.49,9.8,9.8,0,0,1,2,3.75,17.32,17.32,0,0,1,.62,4.72v20.25c-.42.12-1,.26-1.8.4s-1.7.3-2.74.47-2.18.3-3.44.4-2.56.16-3.88.16a18.67,18.67,0,0,1-4.69-.56,10.65,10.65,0,0,1-3.73-1.77,8.46,8.46,0,0,1-2.48-3.11,10.69,10.69,0,0,1-.9-4.62,9.47,9.47,0,0,1,1-4.48,8.46,8.46,0,0,1,2.79-3.07,12.42,12.42,0,0,1,4.29-1.77,24.8,24.8,0,0,1,5.4-.56q.87,0,1.83.09c.65.07,1.27.15,1.87.25s1.12.21,1.55.31a5.5,5.5,0,0,1,.9.28v-2a20.63,20.63,0,0,0-.25-3.27,7.19,7.19,0,0,0-1.08-2.85,6.08,6.08,0,0,0-2.36-2,8.86,8.86,0,0,0-4-.78,20.74,20.74,0,0,0-5.28.5q-1.74.5-2.55.81l-.55-3.54a15.48,15.48,0,0,1,3.26-.94A28.76,28.76,0,0,1,1332.44,89.31Zm.37,29.93c1.57,0,3,0,4.13-.15a28.92,28.92,0,0,0,3-.4V107.38a13.49,13.49,0,0,0-2.17-.65,19.15,19.15,0,0,0-4.1-.34,22.63,22.63,0,0,0-3.11.22,8.8,8.8,0,0,0-3,.93,6.18,6.18,0,0,0-2.23,1.95,5.65,5.65,0,0,0-.87,3.3,7,7,0,0,0,.59,3,4.78,4.78,0,0,0,1.68,2,7.39,7.39,0,0,0,2.6,1.09A15.75,15.75,0,0,0,1332.81,119.24Z"/><path class="cls-2" d="M1352.1,91.17c1.2-.33,2.82-.7,4.85-1.12a38.28,38.28,0,0,1,7.45-.62,15.62,15.62,0,0,1,6.12,1.06,9.4,9.4,0,0,1,3.91,3,12.33,12.33,0,0,1,2.08,4.69,27.46,27.46,0,0,1,.62,6v17.94h-4V105.52a30.58,30.58,0,0,0-.46-5.78,9.75,9.75,0,0,0-1.55-3.85,6.12,6.12,0,0,0-2.86-2.14,13.09,13.09,0,0,0-4.44-.65,33.57,33.57,0,0,0-4.94.31,15,15,0,0,0-2.7.56v28.19h-4Z"/><path class="cls-2" d="M1394.71,89.31a14.31,14.31,0,0,1,5.38.9,9.32,9.32,0,0,1,3.57,2.49,9.64,9.64,0,0,1,2,3.75,17.32,17.32,0,0,1,.62,4.72v20.25a17.61,17.61,0,0,1-1.8.4c-.79.15-1.7.3-2.73.47s-2.18.3-3.45.4-2.55.16-3.88.16a18.67,18.67,0,0,1-4.69-.56,10.65,10.65,0,0,1-3.73-1.77,8.46,8.46,0,0,1-2.48-3.11,10.69,10.69,0,0,1-.9-4.62,9.47,9.47,0,0,1,1-4.48,8.57,8.57,0,0,1,2.8-3.07,12.42,12.42,0,0,1,4.29-1.77,24.67,24.67,0,0,1,5.4-.56q.87,0,1.83.09c.64.07,1.26.15,1.86.25s1.12.21,1.55.31a5.7,5.7,0,0,1,.91.28v-2a21.87,21.87,0,0,0-.25-3.27,7.2,7.2,0,0,0-1.09-2.85,6,6,0,0,0-2.36-2,8.79,8.79,0,0,0-4-.78,20.69,20.69,0,0,0-5.28.5q-1.74.5-2.55.81l-.56-3.54a15.48,15.48,0,0,1,3.26-.94A28.76,28.76,0,0,1,1394.71,89.31Zm.38,29.93c1.57,0,2.94,0,4.12-.15a29.16,29.16,0,0,0,3-.4V107.38a13.35,13.35,0,0,0-2.18-.65,19.09,19.09,0,0,0-4.1-.34,22.38,22.38,0,0,0-3.1.22,8.73,8.73,0,0,0-3,.93,6.21,6.21,0,0,0-2.24,1.95,5.65,5.65,0,0,0-.87,3.3,7.1,7.1,0,0,0,.59,3,4.85,4.85,0,0,0,1.68,2,7.36,7.36,0,0,0,2.61,1.09A15.63,15.63,0,0,0,1395.09,119.24Z"/><path class="cls-2" d="M1440,121.17a36.54,36.54,0,0,1-4.59,1.18,37.25,37.25,0,0,1-7.08.56,17.2,17.2,0,0,1-6.43-1.15,14,14,0,0,1-5-3.32,15.28,15.28,0,0,1-3.23-5.28,20.27,20.27,0,0,1-1.14-7,22.54,22.54,0,0,1,1-6.74,15.34,15.34,0,0,1,2.82-5.31,12.83,12.83,0,0,1,4.57-3.47,14.61,14.61,0,0,1,6.18-1.25,15.18,15.18,0,0,1,5.49.9A14.51,14.51,0,0,1,1436,92V74.72l4-.75Zm-4-25.28a13,13,0,0,0-1.4-.93,13.68,13.68,0,0,0-1.95-.93,15.36,15.36,0,0,0-2.43-.71,12.77,12.77,0,0,0-2.73-.28,10.76,10.76,0,0,0-5,1,9.06,9.06,0,0,0-3.26,2.83,11.8,11.8,0,0,0-1.8,4.16,22.29,22.29,0,0,0-.56,5.06q0,6.33,3.17,9.72a10.91,10.91,0,0,0,8.38,3.38,34.53,34.53,0,0,0,4.82-.27,19.19,19.19,0,0,0,2.76-.59Z"/><path class="cls-2" d="M1458,89.31a14.19,14.19,0,0,1,5.37.9A9.17,9.17,0,0,1,1467,92.7a9.53,9.53,0,0,1,2,3.75,16.94,16.94,0,0,1,.62,4.72v20.25a17.61,17.61,0,0,1-1.8.4c-.79.15-1.7.3-2.73.47s-2.18.3-3.45.4-2.55.16-3.88.16a18.67,18.67,0,0,1-4.69-.56,10.52,10.52,0,0,1-3.72-1.77,8.38,8.38,0,0,1-2.49-3.11,10.69,10.69,0,0,1-.9-4.62,9.35,9.35,0,0,1,1-4.48,8.46,8.46,0,0,1,2.79-3.07,12.42,12.42,0,0,1,4.29-1.77,24.67,24.67,0,0,1,5.4-.56q.87,0,1.83.09c.64.07,1.26.15,1.86.25s1.12.21,1.56.31a5.85,5.85,0,0,1,.9.28v-2a21.87,21.87,0,0,0-.25-3.27,7.2,7.2,0,0,0-1.09-2.85,6,6,0,0,0-2.36-2,8.79,8.79,0,0,0-4-.78,20.74,20.74,0,0,0-5.28.5q-1.74.5-2.55.81l-.56-3.54a15.67,15.67,0,0,1,3.26-.94A28.76,28.76,0,0,1,1458,89.31Zm.37,29.93c1.58,0,2.95,0,4.13-.15a29.16,29.16,0,0,0,3-.4V107.38a13.35,13.35,0,0,0-2.18-.65,19,19,0,0,0-4.09-.34,22.41,22.41,0,0,0-3.11.22,8.73,8.73,0,0,0-3,.93,6.21,6.21,0,0,0-2.24,1.95,5.65,5.65,0,0,0-.87,3.3,7.1,7.1,0,0,0,.59,3,4.85,4.85,0,0,0,1.68,2,7.36,7.36,0,0,0,2.61,1.09A15.6,15.6,0,0,0,1458.38,119.24Z"/><path class="cls-1" d="M165.47,0H0L26.47,15.38l88.17,50.84,50.78,88.05,15.38,26.48V0Zm-.05,77.86L125.84,55,103,15.38h62.46ZM57.19,15.38H85.32l14,24.35ZM141.13,81.5l24.29,14v28.06Z"/></g></g></svg>