<?xml version="1.0" encoding="utf-8"?>
<svg width="720px" height="405px" viewBox="0 0 165.215 169.308" xmlns="http://www.w3.org/2000/svg" xmlns:bx="https://boxy-svg.com">
  <defs>
    <bx:export>
      <bx:file format="svg"/>
    </bx:export>
  </defs>
  <g transform="matrix(0.000209, 0, 0, 0.000209, 18.119175, 33.934086)" style="">
    <path d="M 0 0 L 1 489355" style="stroke-opacity: 1; stroke-miterlimit: 0; stroke-linejoin: round; stroke-width: 19050px; stroke-dasharray: 19050, 57150; stroke-dashoffset: 0px; paint-order: stroke; fill: rgb(213, 0, 26); stroke-linecap: square; stroke: rgb(239, 192, 2);"/>
  </g>
  <g transform="matrix(0.000209, 0, 0, 0.000209, 82.759712, 33.934086)" style="">
    <path d="M 0 0 L 1 489355" style="stroke-opacity: 1; stroke-miterlimit: 0; stroke-linejoin: round; stroke-width: 19050px; stroke-dashoffset: 0px; paint-order: stroke; fill: rgb(213, 0, 26); stroke-linecap: square; stroke: rgb(213, 2, 26);"/>
  </g>
  <g transform="matrix(0.000209, 0, 0, 0.000209, 147.400208, 33.934086)" style="">
    <path d="M 0 0 L 1 489355" style="stroke-opacity: 1; stroke-miterlimit: 0; stroke-linejoin: round; stroke-width: 19050px; stroke-dasharray: 19050, 57150; stroke-dashoffset: 0px; paint-order: stroke; fill: rgb(213, 0, 26); stroke-linecap: square; stroke: rgb(239, 192, 2);"/>
  </g>
  <g transform="matrix(0.000209, 0, 0, 0.000209, 18.119175, 33.934086)" style="">
    <path d="M 0 0 L 309852 489355" style="stroke-opacity: 1; stroke-miterlimit: 0; stroke-linejoin: round; stroke-width: 19050px; stroke-dashoffset: 0px; paint-order: stroke; fill: rgb(213, 0, 26); stroke-linecap: square; stroke: rgb(213, 2, 26);"/>
  </g>
  <g transform="matrix(-0.000209, 0, 0, 0.000209, 82.759712, 33.934086)" style="">
    <path d="M 0 0 L 309852 489355" style="stroke-opacity: 1; stroke-miterlimit: 0; stroke-linejoin: round; stroke-width: 19050px; stroke-dasharray: 19050, 57150; stroke-dashoffset: 0px; paint-order: stroke; fill: rgb(213, 0, 26); stroke-linecap: square; stroke: rgb(239, 192, 2);"/>
  </g>
  <g transform="matrix(0.000209, 0, 0, 0.000209, 82.759712, 33.934086)" style="">
    <path d="M 0 0 L 309852 489355" style="stroke-opacity: 1; stroke-miterlimit: 0; stroke-linejoin: round; stroke-width: 19050px; stroke-dashoffset: 0px; paint-order: stroke; fill: rgb(213, 0, 26); stroke-linecap: square; stroke: rgb(213, 2, 26);"/>
  </g>
  <g transform="matrix(-0.000209, 0, 0, 0.000209, 147.400208, 33.934086)" style="">
    <path d="M 0 0 L 309852 489355" style="stroke-opacity: 1; stroke-miterlimit: 0; stroke-linejoin: round; stroke-width: 19050px; stroke-dashoffset: 0px; fill-rule: nonzero; paint-order: stroke; fill: rgb(213, 0, 26); stroke-linecap: square; stroke: rgb(213, 2, 26);"/>
  </g>
  <g transform="matrix(0.000209, 0, 0, 0.000209, 18.119175, 33.934086)" style="">
    <path d="M 0 0 L 619705 489355" style="stroke-opacity: 1; stroke-miterlimit: 0; stroke-linejoin: round; stroke-width: 19050px; stroke-dashoffset: 0px; paint-order: stroke; fill: rgb(213, 0, 26); stroke-linecap: square; stroke: rgb(213, 2, 26);"/>
  </g>
  <g transform="matrix(-0.000209, 0, 0, 0.000209, 147.400208, 33.934086)" style="">
    <path d="M 0 0 L 619705 489355" style="stroke-opacity: 1; stroke-miterlimit: 0; stroke-linejoin: round; stroke-width: 19050px; stroke-dasharray: 19050, 57150; stroke-dashoffset: 0px; paint-order: stroke; fill: rgb(213, 0, 26); stroke-linecap: square; stroke: rgb(239, 192, 2);"/>
  </g>
  <g transform="matrix(0.000209, 0, 0, 0.000209, 132.801636, 136.03717)" style="">
    <path d="M 0 69973.5 C 0 31328.2 31328.2 0 69973.5 0 C 108618.8 0 139947 31328.2 139947 69973.5 C 139947 108618.8 108618.8 139947 69973.5 139947 C 31328.2 139947 0 108618.8 0 69973.5 Z" style="stroke-opacity: 1; stroke-miterlimit: 0; stroke-linejoin: round; stroke-dashoffset: 0px; paint-order: stroke; stroke-linecap: square; fill: rgb(212, 0, 27); stroke: rgb(239, 192, 2); stroke-width: 23923.4px;"/>
  </g>
  <g transform="matrix(0.000209, 0, 0, 0.000209, 3.520559, 4.736778)" style="">
    <path d="M 0 69973.5 C 0 31328.2 31328.2 0 69973.5 0 C 108618.8 0 139947 31328.2 139947 69973.5 C 139947 108618.8 108618.8 139947 69973.5 139947 C 31328.2 139947 0 108618.8 0 69973.5 Z" style="stroke-opacity: 1; stroke-miterlimit: 0; stroke-linejoin: round; stroke-dashoffset: 0px; paint-order: stroke; stroke-linecap: square; fill: rgb(212, 0, 27); stroke: rgb(239, 192, 2); stroke-width: 23923.4px;"/>
  </g>
  <g transform="matrix(0.000209, 0, 0, 0.000209, 132.801636, 4.736778)" style="">
    <path d="M 0 69973.5 C 0 31328.2 31328.2 0 69973.5 0 C 108618.8 0 139947 31328.2 139947 69973.5 C 139947 108618.8 108618.8 139947 69973.5 139947 C 31328.2 139947 0 108618.8 0 69973.5 Z" style="stroke-opacity: 1; stroke-miterlimit: 0; stroke-linejoin: round; stroke-dashoffset: 0px; paint-order: stroke; stroke-linecap: square; fill: rgb(212, 0, 27); stroke: rgb(239, 192, 2); stroke-width: 23923.4px;"/>
  </g>
  <g transform="matrix(0.000209, 0, 0, 0.000209, 68.161057, 4.736778)" style="">
    <path d="M 0 69973.5 C 0 31328.2 31328.2 0 69973.5 0 C 108618.8 0 139947 31328.2 139947 69973.5 C 139947 108618.8 108618.8 139947 69973.5 139947 C 31328.2 139947 0 108618.8 0 69973.5 Z" style="stroke-opacity: 1; stroke-miterlimit: 0; stroke-linejoin: round; stroke-dashoffset: 0px; paint-order: stroke; stroke-linecap: square; fill: rgb(212, 0, 27); stroke: rgb(239, 192, 2); stroke-width: 23923.4px;"/>
  </g>
  <g transform="matrix(0.000209, 0, 0, 0.000209, 3.520559, 136.03717)" style="">
    <path d="M 0 69973.5 C 0 31328.2 31328.2 0 69973.5 0 C 108618.8 0 139947 31328.2 139947 69973.5 C 139947 108618.8 108618.8 139947 69973.5 139947 C 31328.2 139947 0 108618.8 0 69973.5 Z" style="stroke-opacity: 1; stroke-miterlimit: 0; stroke-linejoin: round; stroke-dashoffset: 0px; paint-order: stroke; stroke-linecap: square; fill: rgb(212, 0, 27); stroke: rgb(239, 192, 2); stroke-width: 23923.4px;"/>
  </g>
  <g transform="matrix(0.000209, 0, 0, 0.000209, 68.161057, 136.03717)" style="">
    <path d="M 0 69973.5 C 0 31328.2 31328.2 0 69973.5 0 C 108618.8 0 139947 31328.2 139947 69973.5 C 139947 108618.8 108618.8 139947 69973.5 139947 C 31328.2 139947 0 108618.8 0 69973.5 Z" style="stroke-opacity: 1; stroke-miterlimit: 0; stroke-linejoin: round; stroke-dashoffset: 0px; paint-order: stroke; stroke-linecap: square; fill: rgb(212, 0, 27); stroke: rgb(239, 192, 2); stroke-width: 23923.4px;"/>
  </g>
</svg>