<?xml version="1.0" encoding="UTF-8" standalone="no"?>
<!-- Generator: Adobe Adobe Illustrator 24.2.0, SVG Export Plug-In . SVG Version: 6.00 Build 0)  -->

<svg
   version="1.1"
   x="0px"
   y="0px"
   width="2089.447"
   height="2718.8242"
   viewBox="0 0 2089.447 2718.8242"
   xml:space="preserve"
   id="svg157"
   sodipodi:docname="FoieGraph_logo_notext.svg"
   inkscape:version="1.1 (c4e8f9e, 2021-05-24)"
   xmlns:inkscape="http://www.inkscape.org/namespaces/inkscape"
   xmlns:sodipodi="http://sodipodi.sourceforge.net/DTD/sodipodi-0.dtd"
   xmlns="http://www.w3.org/2000/svg"
   xmlns:svg="http://www.w3.org/2000/svg"
   xmlns:rdf="http://www.w3.org/1999/02/22-rdf-syntax-ns#"
   xmlns:cc="http://creativecommons.org/ns#"
   xmlns:dc="http://purl.org/dc/elements/1.1/"><metadata
   id="metadata163"><rdf:RDF><cc:Work
       rdf:about=""><dc:format>image/svg+xml</dc:format><dc:type
         rdf:resource="http://purl.org/dc/dcmitype/StillImage" /></cc:Work></rdf:RDF></metadata><defs
   id="defs161" /><sodipodi:namedview
   pagecolor="#ffffff"
   bordercolor="#666666"
   borderopacity="1"
   objecttolerance="10"
   gridtolerance="10"
   guidetolerance="10"
   inkscape:pageopacity="0"
   inkscape:pageshadow="2"
   inkscape:window-width="1280"
   inkscape:window-height="747"
   id="namedview159"
   showgrid="false"
   inkscape:zoom="0.12308296"
   inkscape:cx="1604.6087"
   inkscape:cy="824.64702"
   inkscape:window-x="0"
   inkscape:window-y="25"
   inkscape:window-maximized="0"
   inkscape:current-layer="svg157"
   inkscape:pagecheckerboard="0"
   width="3999px"
   fit-margin-top="0"
   fit-margin-left="0"
   fit-margin-right="0"
   fit-margin-bottom="0" />
<style
   type="text/css"
   id="style2">
	.st0{fill:#FFF9BD;}
	.st1{fill:#9CD9FF;}
	.st2{fill:#AE934B;}
	.st3{opacity:0.8706;fill:#C3DAE8;}
	.st4{fill:none;stroke:#000000;stroke-width:10;stroke-miterlimit:10;}
	.st5{fill:#D8D4FC;stroke:#000000;stroke-width:12;stroke-miterlimit:10;}
	.st6{fill:#A69FCF;}
	.st7{fill:none;}
	.st8{fill:#EDEBFF;}
	.st9{fill:#FFB700;stroke:#000000;stroke-width:10;stroke-miterlimit:10;}
	.st10{stroke:#000000;stroke-width:10;stroke-miterlimit:10;}
	.st11{fill:none;stroke:#000000;stroke-width:7;stroke-miterlimit:10;}
	.st12{opacity:0.8706;fill:#786634;}
	.st13{fill:none;stroke:#000000;stroke-width:6;stroke-miterlimit:10;}
	.st14{stroke:#000000;stroke-miterlimit:10;}
	.st15{font-family:'CourierPrime';}
	.st16{font-size:350.5337px;}
	.st17{letter-spacing:7;}
</style>
<g
   id="Layer_9"
   transform="translate(-928.18355,-328.88585)">
	<path
   class="st0"
   d="m 2848.04,2820.84 c -0.88,0.81 -2.04,1.17 -2.94,1.95 -1.15,0.67 -2.4,1.16 -3.59,1.78 -0.75,0.26 -1.5,0.48 -2.26,0.69 1.67,-1.55 3.32,-3.12 4.94,-4.74 3.64,-3.7 7.28,-7.39 10.9,-11.11 -5.39,1.04 -10.79,2.06 -16.18,3.06 -14.78,2.66 -15.25,2.63 -26.67,3.98 -11.38,0.88 -22.92,2.11 -34.32,1.01 -2.57,-0.43 -5.13,-0.93 -7.7,-1.4 -16.25,-3.52 -32.59,-6.79 -49.2,-8.01 -5.4,-0.39 -10.76,-1.11 -16.15,-1.55 -4.5,-0.36 -9.03,-0.21 -13.54,-0.43 -13.51,-0.2 -27.02,1.06 -40.43,2.63 -12.57,1.41 -24.96,3.88 -37.28,6.71 -11.02,2.12 -22.01,4.64 -32.58,8.43 -13.13,4.64 -25.68,10.67 -38.41,16.27 -5.12,2.08 -10.19,4.26 -15.23,6.53 -14.52,4.68 -29.2,8.87 -43.91,12.89 -10.52,2.99 -20.97,6.23 -31.8,7.92 -3.82,0.6 -7.64,1.17 -11.47,1.73 -3.9,0.22 -7.83,-0.06 -11.74,-0.09 -4.05,-0.1 -8.1,-0.29 -12.12,-0.69 -6.97,-0.95 -13.95,-1.79 -20.93,-2.64 -4.14,-0.46 -8.28,-1 -12.42,-1.49 -2.92,-0.5 -5.84,-1.05 -8.77,-1.55 -15.35,-2.69 -30.53,-6.27 -45.72,-9.77 -10.49,-2.59 -20.88,-5.75 -31.55,-7.52 -11.27,-1.71 -22.49,-3.47 -33.89,-3.49 -9.85,0.11 -19.77,-0.34 -29.56,1.03 -5.28,0.67 -10.56,1.4 -15.83,2.13 -9.48,0.93 -18.98,1.78 -28.5,1.93 -14.07,1.4 -28,3.94 -41.95,6.21 -16.66,2.99 -33.38,5.75 -49.92,9.38 -19.07,4.66 -38.45,7.95 -57.81,11.14 -0.78,0.05 -1.55,0.11 -2.33,0.14 -11.67,0.85 -23.22,-1.71 -34.88,-1.33 -15.33,-0.14 -30.67,0.34 -45.99,-0.21 -8.72,-0.32 -17.38,-1.34 -26.04,-2.29 -19.18,-2.88 -38.25,-6.29 -56.73,-12.34 -17.78,-4.57 -35.39,-9.82 -52.54,-16.34 -10.4,-4.86 -20.98,-9.3 -31.57,-13.74 -10.92,-4.68 -21.98,-8.99 -33.28,-12.68 -1.46,-0.61 -2.92,-1.21 -4.39,-1.79 -9.04,-3.59 -18.15,-7.03 -27.25,-10.46 -7.58,-2.11 -15.43,-3.14 -23.15,-4.63 -6.19,-1.28 -12.44,-2.21 -18.71,-2.99 -8.61,-1.3 -17.2,-2.7 -25.86,-3.69 l -1.57,-0.18 c -7.33,-1.03 -14.67,-2.02 -22.07,-2.34 -10.19,-0.34 -20.4,-0.07 -30.6,-0.14 -9.12,0 -18.25,-0.03 -27.33,0.96 -7.96,1.04 -15.91,2.1 -23.79,3.64 -6.11,0.83 -12.21,1.74 -18.26,2.95 -11.3,2.26 -22.74,3.71 -34.1,5.63 -7.19,1.61 -14.31,3.57 -21.43,5.47 -8.7,2.9 -17.52,5.48 -25.94,9.12 -6.48,2.5 -12.75,5.47 -19.06,8.37 -4,1.76 -8.04,3.43 -12,5.28 -3.89,1.43 -7.72,3.02 -11.59,4.53 -6.31,2.42 -12.56,4.99 -18.77,7.66 -6.17,2.22 -12.52,3.91 -18.67,6.2 -13.62,4.93 -27.42,9.42 -40.75,15.12 -6.57,2.72 -13.07,5.62 -19.5,8.66 -0.16,0.06 -0.33,0.12 -0.49,0.18 -5.98,2.01 -11.89,4.23 -18,5.83 -10.7,2.21 -21.53,3.81 -32.1,6.61 -7.29,1.9 -14.32,4.65 -21.68,6.27 -3.67,0.87 -7.23,2.19 -10.92,2.95 -6.38,0.67 -12.75,1.36 -19.16,1.66 -1.72,0.1 -3.44,0.17 -5.17,0.21 -1.46,0.03 -2.93,0 -4.39,-0.09 -2.66,-0.51 -5.27,-1.33 -7.79,-2.33 -1.17,-0.54 -2.3,-1.14 -3.39,-1.81 -5.9,-3.49 -10.84,-8.47 -15.06,-13.82 0.56,12.37 4.86,24.74 13.51,33.8 4.77,5.25 11.04,8.67 17.33,11.76 8.04,3.79 16.21,7.41 24.61,10.32 9.88,2.01 19.71,4.41 29.79,5.2 1.87,0.29 3.75,0.56 5.61,0.92 2.48,0.42 4.96,0.87 7.44,1.34 9.6,5.17 19.33,10.12 29.51,14.02 0.59,0.27 1.18,0.54 1.75,0.86 3.97,1.92 8.21,3.17 12.3,4.82 0.03,0.01 0.05,0.02 0.08,0.03 0.3,0.13 0.61,0.26 0.91,0.39 4.79,2.31 9.58,4.6 14.45,6.74 -0.03,-0.01 -0.06,-0.03 -0.09,-0.04 5.84,2.93 12.07,4.86 18.32,6.66 25.27,6.6 51.22,10.01 77.14,12.89 13.12,1.53 26.34,0.29 39.5,0.21 23.48,0.92 46.79,-2.52 69.8,-6.83 8.92,-1.85 17.91,-3.38 26.9,-4.87 14.75,4.3 29.38,9.03 44.06,13.55 8.78,2.58 17.7,4.68 26.45,7.38 13.62,4.18 27.02,9.09 40.61,13.35 10.54,3.75 21.05,7.6 31.9,10.37 7.87,2.05 15.73,4.12 23.69,5.81 6.04,1.1 12.15,1.79 18.2,2.82 13.08,2.48 26.13,5.24 39.08,8.39 22.66,5.13 45.73,8.98 68.97,9.82 16.04,-0.11 32,-2.53 47.87,-4.7 19.81,-3.46 39.55,-7.33 59.17,-11.77 17.35,-4.98 34.57,-10.38 52.03,-14.96 3.28,-0.85 6.59,-1.59 9.93,-2.13 3.95,-0.53 7.91,-1.07 11.86,-1.62 12.61,-1.54 25.35,-1.23 38.03,-1.36 52.62,-0.06 105.25,-0.01 157.87,-0.02 8.84,0.22 17.75,-0.41 26.57,0.25 4.92,0.77 9.83,1.58 14.73,2.44 13.12,2.9 26.17,6.14 39.02,10.08 11.24,3.15 22.77,5.21 34.31,6.94 9.46,1.39 18.94,2.5 28.49,3.04 21.37,2.62 43.13,3.66 64.5,0.6 10.36,-1.3 20.71,-2.86 30.85,-5.44 7.56,-2 14.94,-4.59 22.39,-6.93 28.76,-9 56.25,-21.58 83.1,-35.16 3.89,-2.13 7.73,-4.36 11.53,-6.66 4.41,-1.41 8.8,-2.91 13.15,-4.47 11.62,-4.16 23.53,-7.47 35.19,-11.5 6.87,-2.72 13.72,-5.55 20.38,-8.74 11.89,-5.34 22.73,-12.69 33.69,-19.67 5.9,-3.55 11.89,-6.96 17.61,-10.79 2.46,-1.69 4.83,-3.51 7.19,-5.34 4.53,-3.41 9.07,-6.85 14.08,-9.52 3.85,-2.1 7.41,-4.68 11.34,-6.64 6.28,-3.4 12.2,-7.45 18.7,-10.44 8.94,-3.87 17.71,-8.11 26.5,-12.26 7.56,-4.08 15.01,-8.39 21.79,-13.66 5.16,-3.79 9.83,-8.17 14.45,-12.6 5.28,-5.42 10.83,-10.56 16.17,-15.9 3.37,-3.12 6.93,-6.19 9.23,-10.21 0.22,-0.84 0.96,-1.47 1.26,-2.26 0.34,-0.74 0.55,-1.53 0.93,-2.26 0.66,-1.35 0.83,-2.89 1.82,-4.07 0.15,-0.19 0.28,-0.4 0.38,-0.63 -0.42,0.13 -0.83,0.29 -1.23,0.46 -0.66,0.21 -1.29,0.59 -1.87,1.03 z m -1589.18,118.25 c 0,0 0,0 0,0 2.06,0.28 4.11,0.56 6.17,0.83 -2.06,-0.28 -4.11,-0.55 -6.17,-0.83 z"
   id="path4" />
	<path
   class="st1"
   d="m 2996.66,2630.34 c -1.3,0.48 -2.95,1.22 -4.71,2.06 -2.62,-0.64 -6.94,0.03 -10.79,0.8 -9.12,-0.07 -18.23,-0.12 -27.34,-0.03 -4.39,-0.14 -8.76,-0.66 -13.11,-1.22 -3.27,-0.55 -6.55,-1.03 -9.85,-1.45 -3.85,-0.67 -7.73,-1.18 -11.59,-1.68 -1.78,-0.22 -3.56,-0.4 -5.34,-0.59 -4.48,-0.72 -8.98,-1.33 -13.5,-1.89 -4.12,-0.41 -8.26,-0.36 -12.39,-0.37 -6.18,-0.42 -12.37,-0.55 -18.54,-0.99 -8.17,-0.91 -16.34,-0.23 -24.51,0.21 -4.84,0.24 -9.66,-0.3 -14.49,-0.5 -12.52,-0.31 -24.96,1.29 -37.29,3.37 -9.49,1.19 -18.75,3.6 -28.14,5.36 -4.31,0.97 -8.61,2.03 -12.89,3.15 -9.32,-1.1 -18.67,-1.82 -28.06,-2.1 -0.06,-0.01 -0.12,-0.02 -0.18,-0.04 -3.61,-0.79 -7.28,-1.25 -10.95,-1.71 -6.5,-1.1 -13,-2.25 -19.59,-2.54 -3.08,-0.08 -6.13,0.44 -9.21,0.44 -5.84,0.38 -11.57,1.74 -17.27,3.04 -2.46,0.51 -4.89,1.14 -7.17,2.17 -1.04,0.37 -2.08,0.75 -3.13,1.12 -5.56,5.56 -14.11,7.02 -21.84,5.71 -1.91,-0.32 -3.79,-0.78 -5.65,-1.32 -4.43,-1.94 -8.25,-4.15 -11.07,-6.8 -2.1,-1.78 -3.89,-3.87 -5.9,-5.73 -5.55,-4.41 -3.4,-2.53 -9.39,-7.51 -3.17,-2.38 -5.74,-5.46 -9.09,-7.63 -6.31,-4.63 -13.53,-7.9 -21.08,-9.95 -2.89,-0.56 -5.61,-1.75 -8.48,-2.31 0.16,0.02 0.33,0.04 0.49,0.07 -1.96,-0.58 -3.98,-0.92 -6.01,-1.16 -1.07,-0.21 -2.16,-0.33 -3.24,-0.47 -0.09,-0.01 -0.19,-0.01 -0.29,-0.02 -0.18,-0.01 -0.31,-0.01 -0.41,-0.02 -0.05,-0.01 -0.08,-0.02 -0.14,-0.03 -0.44,-0.08 -0.89,-0.15 -1.34,-0.21 -1.04,-0.25 -2.1,-0.42 -3.16,-0.56 0.22,0.03 0.44,0.06 0.66,0.09 -1.49,-0.33 -2.98,-0.65 -4.49,-0.9 0.08,0.01 0.17,0.02 0.25,0.03 -2.85,-0.66 -4.52,-1.01 -6.19,-1.21 -0.59,-0.28 -1.18,-0.56 -1.77,-0.83 -4.04,-2.08 -8.19,-3.89 -12.37,-5.66 -0.86,-0.4 -1.73,-0.8 -2.6,-1.19 -4.78,-1.96 -9.47,-4.15 -14.34,-5.87 -4.65,-1.34 -9.47,-2 -14.19,-3.1 -19.05,-3.96 -38.66,-4.1 -57.92,-1.63 -5.87,0.8 -11.77,1.42 -17.58,2.6 -10.35,2.42 -20.66,5.07 -30.92,7.84 -6.63,1.99 -13.38,3.54 -20.11,5.16 -9.29,2.63 -18.6,5.24 -28.01,7.41 -0.37,-0.01 -0.75,-0.02 -1.12,-0.05 -0.36,-0.02 -0.73,-0.05 -1.09,-0.07 -0.02,-0.01 -0.04,-0.01 -0.06,-0.02 -1.22,-0.66 -2.42,-1.34 -3.58,-2.09 -4.59,-2.95 -9.62,-5.15 -13.85,-8.67 -2.55,-2.05 -5.53,-3.4 -8.38,-4.97 -4.36,-2.6 -9.05,-4.54 -13.73,-6.49 -5.67,-2.17 -11.08,-5.36 -17.13,-6.34 -7.86,-1.06 -15.73,-2.68 -23.67,-2.74 -16.1,-0.04 -32.23,1.03 -48.04,4.18 -8.74,1.9 -17.25,4.79 -25.97,6.81 -15.77,4.19 -31.31,9.23 -47.02,13.65 -4.34,1.17 -8.68,2.46 -13.08,3.43 -2.16,0.14 -4.32,0.21 -6.49,0.22 -3.71,-0.03 -7.42,-0.3 -11.12,-0.64 -8.2,-1.58 -16.29,-3.8 -24.17,-6.54 -2.49,-1.23 -4.97,-2.47 -7.48,-3.66 -8.66,-4.61 -16.06,-11.35 -24.93,-15.63 -4.53,-1.86 -8.99,-3.89 -13.56,-5.65 -3.03,-1.04 -6.13,-1.9 -9.14,-3.01 -8.37,-3.15 -16.86,-6.22 -25.78,-7.33 -5.47,-0.62 -10.9,-1.76 -16.41,-1.91 -9.25,-0.04 -18.5,-0.02 -27.75,0.07 -28.12,-0.15 -55.79,6.11 -82.41,14.81 -14.24,4.25 -28.05,9.88 -42.33,13.98 -9.32,2.68 -18.82,4.73 -28.37,6.47 -6.54,0.34 -13.1,0.11 -19.64,0.14 -7.42,-0.06 -14.85,-0.1 -22.26,-0.46 -4.06,-0.18 -8.11,-0.48 -12.16,-0.9 -6.64,-0.98 -13.29,-1.85 -19.95,-2.59 -0.02,0 -0.05,-0.01 -0.07,-0.01 -6.48,-1.36 -12.79,-3.47 -19.35,-4.46 -5.97,-1.37 -12.05,-1.56 -18.12,-2.07 -7.29,-0.77 -14.6,-1.2 -21.92,-1.56 -9.74,-0.87 -19.49,-1.58 -29.24,-2.3 -0.32,-0.04 -0.64,-0.09 -0.97,-0.13 -0.23,0.03 -0.45,0.06 -0.67,0.08 -6.73,-0.5 -13.47,-1.12 -20.23,-0.97 -3.41,0.17 -6.8,0.45 -10.18,0.83 -15.33,1.32 -30.65,2.68 -45.96,4.23 -14.5,1.64 -29.05,3.5 -43,7.94 -13.83,3.37 -27.55,7.31 -40.84,12.47 -7.08,2.73 -14.1,5.63 -21.17,8.41 -0.77,0.29 -1.54,0.58 -2.31,0.86 -1.93,0.21 -3.85,0.44 -5.78,0.67 -6.15,0.54 -12.32,0.93 -18.45,1.76 -4.79,0.69 -9.61,1.18 -14.37,2.03 -3.77,0.69 -7.43,1.86 -11.18,2.6 -7.02,0.98 -13.85,2.84 -20.66,4.77 -5.8,1.7 -11.71,3.06 -17.45,4.96 -11.49,3.86 -22.76,8.32 -33.77,13.38 -5.92,3 -11.8,6.06 -17.82,8.84 -3.37,1.59 -6.67,3.31 -10,4.96 -2.82,0.96 -5.68,1.81 -8.52,2.72 -10.95,3.89 -22.22,6.77 -33.27,10.37 -13.19,4.92 -26.42,9.8 -40.12,13.12 -20.21,6.03 -39.75,14.04 -59.58,21.2 -16.51,4.42 -33.35,7.51 -49.86,11.93 -12.54,3.3 -8.77,2.4 -19.63,4.09 -3.57,0.32 -7.16,0.31 -10.73,0.61 -3.46,0.38 -6.93,0.64 -10.4,0.91 -2.16,-0.62 -4.37,-1.08 -6.64,-1.15 -3.13,-0.27 -6.25,-0.42 -9.36,0.16 -0.12,-0.02 -1.54,0.03 -1.88,-0.01 -1.82,-0.03 -3.64,0.29 -5.41,0.71 -1.28,0.38 -2.64,0.33 -3.96,0.47 -0.66,-0.75 -1.22,-1.59 -1.65,-2.49 -0.23,1.46 -0.02,2.85 0.46,4.14 -0.25,0.01 -0.5,0.02 -0.75,0.03 0.35,0.23 0.69,0.45 1.03,0.68 0.74,1.62 1.88,3.09 3.13,4.38 1.72,2.21 4.13,3.73 6.02,5.74 0.49,0.62 1.25,1.56 1.57,1.87 0.92,0.94 1.83,1.88 2.69,2.86 1.88,3.15 3.27,6.55 5.06,9.75 3.12,5.29 6.62,10.41 11.02,14.73 3.39,2.86 6.84,5.71 10.65,7.99 0.43,0.23 0.88,0.44 1.31,0.67 1.17,1.78 2.39,3.52 3.79,5.15 6.24,7.35 13.16,14.1 20.38,20.49 3.52,3.01 6.62,6.48 10.13,9.49 10.59,9.16 22.63,16.55 35.12,22.82 4.92,2.78 9.86,5.55 15.09,7.71 6.15,2.62 12.31,5.53 18.9,6.93 17.39,3.49 35.1,5.24 52.71,7.19 7.78,0.77 15.56,1.42 23.36,1.94 4.79,0.36 9.6,0.56 14.37,-0.1 12.65,-1.58 25.47,-3.48 38.01,-5.89 7.44,-1.71 14.67,-4.2 22.1,-5.95 8.75,-1.59 17.39,-3.68 26.03,-5.8 9.68,-2.77 19.31,-5.89 29.23,-7.73 11.17,-2.14 22.47,-3.63 33.63,-5.77 12.68,-2.88 25.01,-7.03 37.4,-10.95 10.17,-3 20.64,-4.85 30.94,-7.34 4.25,-1.11 8.62,-1.62 12.9,-2.53 5.76,-1.21 11.46,-2.67 17.21,-3.88 0.38,-0.09 0.76,-0.16 1.15,-0.23 3.7,-0.47 7.39,-1.04 11.07,-1.63 6.14,-0.45 12.31,-0.32 18.42,0.41 1.53,0.12 3.06,0.22 4.59,0.33 0.16,0.02 0.31,0.04 0.47,0.06 6.17,1.09 12.25,2.67 18.44,3.67 6.62,1.25 13.31,2.1 19.99,2.94 4.84,0.7 9.69,1.38 14.58,1.65 11.93,0.31 23.87,0.16 35.79,-0.32 7.25,0.24 14.47,-0.55 21.72,-0.59 5.17,-0.09 10.33,0.26 15.48,0.51 10.74,-0.33 21.49,-0.42 32.2,-1.49 1.14,-0.1 2.28,-0.23 3.42,-0.36 -2.47,0.47 -4.94,0.88 -7.43,1.06 -0.43,0.04 -1.82,-0.39 -0.7,0.14 3.37,1.56 7.27,1.58 10.86,2.42 6.73,1.23 13.51,2.2 20.33,2.63 1.78,1.54 4.24,1.86 6.51,2.23 4.5,0.81 9.07,0.46 13.61,0.5 9.98,0.12 20,-1.17 29.53,-4.18 0.64,-0.16 1.28,-0.35 1.92,-0.5 1.82,-0.14 3.56,-0.57 4.96,-1.91 0.64,-0.49 1.18,-1.02 1.65,-1.58 6.04,0.86 12.1,1.55 18.2,1.88 17.59,1.02 35.22,0.54 52.83,0.75 9.38,0.2 18.64,-1.32 27.91,-2.62 4.09,-0.68 8.18,-1.42 12.27,-2.17 2.3,2.89 6.14,4.96 10.25,6.19 0.91,0.35 1.83,0.66 2.77,0.93 0.82,2.22 2.37,4.16 4.53,5.29 2.36,1.56 5.34,1.32 8,1.97 9.12,1.4 18.5,2.1 27.66,0.7 4.28,-0.5 8.18,-2.47 12.04,-4.24 0.65,-0.32 1.29,-0.65 1.94,-0.97 1,-0.21 2,-0.42 3,-0.65 3.69,-0.88 7.3,-2.07 10.9,-3.27 3.22,-0.49 7.46,-1.2 13.17,-2.35 7.9,-1.26 15.68,-3.01 23.42,-5 8.6,-2.11 17.21,-4.15 25.74,-6.54 6.23,-1.69 12.34,-3.83 18.56,-5.56 2.15,-0.19 4.92,-0.31 10.09,-0.33 6.5,-0.01 13.02,-0.23 19.49,0.39 3.32,0.83 6.65,1.67 10.03,2.26 3.58,0.97 7.19,1.83 10.8,2.68 5.57,1.55 10.95,3.77 16.72,4.51 6.15,1.05 12.38,1.13 18.59,1.58 3.91,0.36 7.82,0.34 11.74,0.19 10.02,5.63 20.26,10.87 30.84,15.33 4.13,1.46 8.52,2.02 12.78,3.02 6.82,1.42 13.62,2.96 20.45,4.36 12.61,2.62 25.43,4.66 38.32,5.07 11.05,0.16 22.04,-1.01 32.95,-2.7 5.84,-0.96 11.69,-1.76 17.54,-2.66 4.95,-0.59 9.91,-1.12 14.88,-1.46 6.02,-0.13 12.05,-0.16 18.06,-0.44 1.05,0 2.09,-0.01 3.14,-0.01 7.58,-0.09 15.17,0.11 22.75,-0.19 6.28,-0.42 12.49,-1.52 18.74,-2.31 0.36,-0.05 0.72,-0.1 1.08,-0.16 8.64,-1.19 17.24,-2.59 25.78,-4.39 9.31,-1.81 18.36,-4.74 27.73,-6.27 4.74,-0.98 9.51,-1.87 14.16,-3.2 9.88,-0.25 19.77,-0.12 29.62,-1.27 8.02,-0.61 16.04,-0.89 24.08,-0.84 5.51,0.11 11.06,-0.17 16.57,0.01 7.85,1.48 15.67,3.1 23.49,4.75 9.49,1.36 18.96,2.89 28.5,3.9 6.35,0.41 12.72,0.42 19.08,0.59 12.61,0.91 25.28,2.38 37.94,1.33 7.09,-0.71 14.13,-1.76 21.18,-2.77 4.87,-0.63 9.73,-1.3 14.58,-2.06 8.83,-1.93 17.65,-3.97 26.26,-6.74 14.87,-4.92 29.35,-11.02 44.53,-14.99 11.35,-3.63 22.52,-7.83 33.67,-12.04 11.77,-3.91 23.44,-8.23 34.74,-13.33 11.2,-5.36 22.23,-11.11 33.1,-17.11 5.38,-2.94 10.96,-5.52 16.16,-8.8 3.05,-1.82 6.05,-3.72 9.02,-5.68 4.48,-0.67 8.93,-1.52 13.33,-2.56 2.83,-0.44 5.62,-1.03 8.2,-2.32 2.77,-1.03 5.28,-2.59 7.84,-4.05 3.67,-2.37 7.49,-4.48 11.37,-6.5 3.33,-2.11 6.48,-4.56 9.1,-7.53 2,-1.98 3.72,-4.19 5.39,-6.45 5.14,-6.33 2.47,-3.28 6.8,-8.11 4.93,-5.26 10.25,-10.16 14.99,-15.59 2.11,-2.36 4.26,-4.7 6.15,-7.25 0.56,-0.63 1.13,-1.25 1.66,-1.91 1.32,-1.45 2.41,-3.08 3.51,-4.69 0.55,-0.71 1.09,-1.43 1.54,-2.2 2.02,-4 4.23,-7.91 6.65,-11.68 0.07,-0.09 0.11,-0.15 0.14,-0.19 1.81,-2.33 5.72,-6.99 9.13,-10.79 1.01,-1.15 2.22,-2.14 2.97,-3.51 -0.55,0.44 -1.13,0.82 -1.78,1.05 z m -1947.55,89.44 c -0.58,-0.32 -1.18,-0.68 -1.59,-0.96 -0.19,-0.18 -0.37,-0.38 -0.54,-0.58 0.4,0.24 0.82,0.46 1.22,0.69 0.49,0.31 1.11,0.6 1.77,0.86 -0.28,0 -0.57,-0.01 -0.86,-0.01 z m 1028,38.76 c -0.94,0.09 -1.88,0.18 -2.82,0.3 0.04,-0.01 0.08,-0.01 0.12,-0.02 -5.16,0.64 -10.36,0.88 -15.56,1.22 1.61,-0.42 3.23,-0.84 4.85,-1.23 4.48,-0.27 8.98,-0.32 13.48,-0.3 -0.03,0.01 -0.05,0.02 -0.07,0.03 z"
   id="path6" />
	<path
   class="st2"
   d="m 1709.33,2962.38 c -9.23,-2.72 -18.14,-6.4 -27.11,-9.88 -0.02,-0.01 -0.05,-0.02 -0.07,-0.03 -10.61,-4.25 -18.86,-9.05 -37.26,-15.04 -7.23,-2.23 -14.69,-3.65 -22.11,-5.16 -6.1,-1.35 -12.2,-2.72 -18.37,-3.77 -15.02,-2.69 -30.04,-5.34 -44.85,-9.05 -15.58,-3.46 -30.85,-8.28 -46.59,-11.04 -16.39,-2.49 -32.91,-3.75 -49.46,-4.44 -14.01,-0.37 -28.1,-0.74 -42.03,1.06 -12.82,1.39 -25.28,4.77 -37.56,8.59 -11.35,3.48 -22.61,7.39 -33.45,12.25 15.67,1.48 25.13,2.95 39.12,4.71 11.23,1.47 10.5,1.06 24.18,3.46 9.25,1.71 18.29,4.31 27.38,6.69 22.69,6.65 45.88,11.29 68.91,16.57 23.76,5.42 47.17,12.76 71.41,15.83 11.9,1.5 23.89,2.14 35.87,2.68 9.29,0.11 18.58,-0.05 27.85,0.62 13.6,1.06 27.14,3.12 40.81,2.85 6.79,-0.12 13.59,-0.27 20.32,-1.26 7.03,-0.91 13.92,-2.61 20.88,-3.97 5.02,-0.9 8.94,-1.38 13.7,-1.97 -10.23,-4.11 -20.88,-7 -31.57,-9.7 z"
   id="path8" />
	<path
   class="st2"
   d="m 2414.8,2946.7 c -2.76,0.01 -5.52,-0.02 -8.28,-0.03 -11.32,-0.08 -22.63,-0.36 -33.93,-0.84 -19.34,0.16 -38.71,2.81 -57.36,7.95 -15.93,4.29 -31.82,8.78 -47.45,14.07 -11.98,3.93 -23.5,9.12 -35.5,12.96 -5.01,1.57 -10.24,2.25 -15.4,3.16 -8.86,0.82 -17.81,0.22 -26.7,0.42 -12.02,-0.14 -24.09,0.33 -36.08,-0.66 -7.88,-1.27 -15.69,-2.91 -23.53,-4.38 -6.51,-1.06 -13.04,-2.01 -19.57,-3 -11.97,-2.25 -24.01,-4.62 -36.2,-5.15 -17.54,0.24 -35.07,1.58 -52.5,3.55 -14.75,1.78 -29.55,3.98 -43.67,8.72 -14.04,4.49 -27.52,10.98 -38.88,20.48 -8.15,6.55 -15.87,13.77 -21.72,22.49 7.55,-4.17 15.7,-6.93 23.99,-9.22 20.94,-6.32 38.85,-5.81 65,-3.17 2.01,0.19 11.07,1.19 25.59,2.61 14.94,1.49 29.94,2.2 44.94,2.62 1.72,0.12 3.44,0.32 5.15,0.54 11.47,2.18 22.97,4.12 34.51,5.85 12.55,2.41 25.05,5.16 37.78,6.43 14.71,0.92 29.5,0.5 44.23,0.65 4.99,-0.02 9.99,0.1 14.98,-0.08 6.79,-0.56 13.53,-1.66 20.24,-2.77 9.85,-1.35 19.11,-5.09 28.29,-8.74 17.38,-6.97 34.38,-14.89 50.97,-23.58 17.03,-9.01 33.26,-19.5 50.59,-27.95 7.6,-3.96 15.24,-7.8 23.15,-11.08 -0.53,0.22 -1.05,0.44 -1.58,0.66 9.08,-4.01 18.03,-8.33 27.3,-11.88 0.56,-0.21 1.1,-0.42 1.64,-0.63 z"
   id="path10" />
	<path
   class="st2"
   d="m 2724.09,2873.71 c -5.81,-2.09 -11.66,-4.03 -17.64,-5.57 -14.46,-3.22 -29.45,-3.36 -44.07,-1.21 -10.36,1.41 -20.83,3.04 -30.64,6.76 -6.17,2.33 -12.24,4.9 -18.24,7.64 -8.37,4.52 -16.46,9.56 -24.27,15 -10.52,7.67 -20.79,15.76 -29.92,25.08 29.9,-1.97 59.74,-6.99 88.35,-15.95 12.63,-4.14 20.31,-7.78 23.41,-9 3.97,-1.65 7.9,-3.4 11.78,-5.25 8.22,-3.43 9.28,-4.06 13.35,-5.71 7.25,-3.19 17.18,-6.28 29.58,-10.86 0.15,-0.06 0.31,-0.11 0.46,-0.17 -0.73,-0.25 -1.44,-0.5 -2.15,-0.76 z"
   id="path12" />
</g>
<g
   id="Layer_6"
   transform="translate(-928.18355,-328.88585)">
	<path
   class="st3"
   d="m 1745.91,1241.78 c -11.22,8.99 -14.1,10.73 -23.4,17.5 -9.07,6.34 -17.74,13.2 -26.39,20.08 -9.14,7.03 -18.29,14.04 -27.53,20.92 -11.74,8.52 -20.52,20.25 -31.34,29.78 -8.14,7.16 -16.74,13.81 -24.47,21.44 -8.54,8.97 -16.13,18.85 -22.68,29.37 -6.42,10.51 -11.78,21.64 -17.1,32.74 -7.01,14.93 -13.5,30.16 -18.26,45.97 -6.86,23.19 -10.25,47.39 -11.07,71.53 -0.52,17.06 1.19,34.09 3.54,50.96 2.42,17.75 5.74,35.43 11.64,52.38 3.84,11.06 8.11,22.15 14.71,31.89 2.54,3.66 5.38,7.11 8.52,10.28 -0.63,-2.4 -1.2,-4.83 -1.65,-7.28 -1.71,-8.67 -1.43,-18.22 -0.79,-28.74 2.26,-28.62 4.61,-38.25 8.12,-59.85 4.22,-25.9 3.16,-21.43 9.16,-48.45 4.36,-18.2 8.45,-36.48 13.59,-54.48 4.89,-16.68 11.95,-32.61 19.11,-48.41 6.65,-14.71 6.38,-14.68 9.98,-21.5 3.61,-6.98 7.47,-13.84 12.01,-20.26 6.16,-8.37 3,-3.79 15.44,-18.7 4.06,-4.96 8.23,-9.83 11.84,-15.13 3.9,-5.62 7.22,-11.62 11.05,-17.29 2.09,-3.09 4.25,-6.13 6.55,-9.06 0.49,-0.59 0.99,-1.19 1.48,-1.78 7.42,-8.92 14.63,-18.03 21.58,-27.32 6.07,-8.34 11.93,-16.82 18.23,-24.99 6.79,-9.08 13.45,-18.29 19.13,-28.11 4.66,-8.14 8.93,-16.81 10.34,-26.16 -5.23,9.09 -13.28,16.14 -21.34,22.67 z"
   id="path15" />
	<g
   id="g21">
		<path
   class="st3"
   d="m 2161.39,1241.01 c -0.05,-0.04 -0.11,-0.1 -0.19,-0.16 0.07,0.05 0.13,0.1 0.19,0.16 0,-0.01 0,-0.01 0,0 z"
   id="path17" />
		<path
   class="st3"
   d="m 2330.24,1538.56 c -0.3,-3.34 -0.62,-6.69 -0.93,-10.03 l 0.62,6.67 c -0.26,-2.81 -0.52,-5.63 -0.79,-8.44 0.21,2.24 0.42,4.48 0.63,6.72 -0.28,-3.11 -0.57,-6.22 -0.87,-9.33 -1.71,-14.98 -2.84,-30.07 -5.57,-44.91 -5.13,-26.65 -13.73,-52.64 -26,-76.86 -7.93,-16.82 -18.87,-31.91 -28.6,-47.7 -7.46,-12.08 -14.92,-24.19 -23.68,-35.38 -4.89,-6.21 -10.52,-11.8 -15.99,-17.49 -5.5,-5.67 -11.11,-11.24 -16.53,-16.99 -8.55,-9.5 -17.35,-18.84 -27.35,-26.85 -7.46,-6.3 -16.35,-10.62 -23.79,-16.97 0,0 0.01,0.01 0.01,0.01 0,0 -0.01,-0.01 -0.01,-0.01 -0.15,-0.13 -0.32,-0.25 -0.47,-0.39 0.1,0.08 0.2,0.16 0.29,0.24 -1.79,-1.49 -3.58,-2.99 -5.36,-4.5 -4.51,-3.93 -8.95,-7.94 -13.34,-12 -0.06,-0.06 -0.17,-0.07 -0.23,-0.01 -0.05,0.05 -0.05,0.12 -0.02,0.19 0,0 -0.01,0 -0.01,0 0.33,0.78 0.72,1.52 1.09,2.28 1.14,2.21 2.26,4.43 3.39,6.64 3.23,6.35 6.74,12.57 10.61,18.54 6.57,9.51 10.79,13.5 14.24,19.32 9.9,15.72 16.93,33.01 26.63,48.85 4.94,8.7 10.31,17.17 14.46,26.28 6.15,13.67 10.98,27.9 17.04,41.61 6.4,14.28 13.31,28.35 18.64,43.09 4.85,12.38 8.36,22.65 15.78,50.8 4.19,14.29 7.56,28.81 11.82,43.09 4.23,14.04 9.36,27.8 13.21,41.96 4.68,16.74 9.39,33.49 13.45,50.4 1.88,8.65 3.36,17.39 4.65,26.15 1.27,4.87 1.35,5.58 2.29,10.83 0.74,4.11 1.38,8.24 1.88,12.39 0.62,-3.19 1.38,-6.36 2.25,-9.49 2.37,-8.27 2.85,-8.45 5.38,-14.49 2.62,-6.83 4.32,-13.96 5.99,-21.06 2.71,-12.73 4.06,-25.69 5.18,-38.64 1.05,-14.81 1.44,-29.72 0.01,-44.52 z m -803.97,261.94 c -21.86,-22.25 -34.98,-38.95 -46.85,-57.41 -7.51,-11.88 -12.7,-24.99 -18.7,-37.65 -3.62,-7.71 -7.4,-15.36 -10.85,-23.15 -2.69,-6.33 -5.13,-12.76 -7.8,-19.1 -0.51,-1.27 -1.02,-2.55 -1.52,-3.82 -0.49,-1.33 -0.96,-2.67 -1.38,-4.03 -2.04,-6.25 -3.56,-12.65 -5.74,-18.85 -1.89,-5.75 -3.41,-11.63 -4.2,-17.64 -0.37,-4.55 -0.7,-4.42 -0.97,-18.23 0.93,-21.49 -2.98,-28.67 0.93,-43.47 1,-4.14 2.3,-8.2 2.9,-12.43 0.88,-6.13 1.49,-14.94 2.3,-18.27 0.59,-3.02 1.3,-6.02 1.66,-9.07 -2.22,3.34 -4.91,6.33 -7.18,9.64 -3.47,4.88 -6.12,10.27 -9.51,15.19 -4.94,6.47 -10.32,12.78 -13.45,20.39 -3.36,7.08 -4.71,14.82 -6.95,22.27 -3.04,8.78 -5.21,17.81 -6.59,27 -0.89,5.02 -1.39,10.12 -0.98,15.22 0.5,7.06 1.87,21.5 7.35,40.47 2.26,8.79 5.61,17.26 9.04,25.65 2.37,5.75 4.57,11.58 7.36,17.15 4.32,8.61 9.64,16.69 14.53,24.98 5.71,9.41 11.51,18.78 18.36,27.42 17.94,21.2 39.83,39.04 63.55,53.41 22.76,12.81 42.68,12.72 67.51,18.92 -19.4,-11.95 -41.39,-22.49 -52.82,-34.59 z"
   id="path19" />
	</g>
	<path
   class="st3"
   d="m 1469.96,1810.2 c -3.07,-2.08 -12.77,-11.21 -20.58,-18.11 -10.33,-8.73 -6.3,-4.83 -15.01,-12.87 -7.46,-7.54 -14.3,-15.68 -20.76,-24.09 -11.71,-16.69 -21.02,-34.85 -29.61,-53.3 -4.83,-10.36 -9.69,-20.72 -14.07,-31.27 -2.86,-8.66 -4.34,-17.72 -6.77,-26.5 -4.33,-14.52 -9.61,-28.75 -13.78,-43.32 -2.78,-9.87 -4.13,-20.06 -6.41,-30.04 -0.85,-3.46 -1.64,-6.95 -2.79,-10.32 -0.42,2.85 -1.19,5.64 -1.83,8.45 -1.57,6.84 -3.7,13.54 -5.24,20.39 -1.71,7.72 -2.83,15.57 -3.52,23.45 -1.17,11.57 -0.92,23.2 -0.75,34.8 -0.21,10.44 -0.42,20.9 0.98,31.28 0.53,4.09 1.5,8.11 2.71,12.04 0.3,0.96 0.65,1.9 1.01,2.83 0.43,1.18 0.88,2.35 1.32,3.52 3.6,10.16 8.46,19.8 13.82,29.14 13.05,22.97 27.72,45.61 48.34,62.53 5.98,5.22 12.06,10.39 18.81,14.6 7.76,4.64 16.12,8.16 24.19,12.22 7.9,3.83 15.8,7.76 24.23,10.3 15.07,4.26 30.6,6.6 45.82,10.25 -13.21,-8.89 -27.28,-16.51 -40.11,-25.98 z"
   id="path23" />
	<path
   class="st3"
   d="m 1344.3,1755.18 c -4.17,-8.96 -3.66,-8.54 -7.09,-18.95 -2.73,-11.16 -5.65,-22.27 -9.34,-33.16 -2.13,-6.83 -4.15,-13.7 -5.81,-20.66 -0.17,-0.84 -0.18,-0.61 -0.13,0.03 -0.86,-5.51 -3.15,-10.91 -4.55,-16.28 -2.59,-8.92 -5.14,-17.86 -8.43,-26.55 -3.75,-10.68 -10.91,-25.05 -12.77,-30.65 0.1,0.25 0.27,0.72 0.53,1.4 -0.65,-1.79 -1.29,-3.58 -1.91,-5.37 -1.32,-3.79 -2.36,-7.67 -3.52,-11.51 -0.23,-0.77 -0.47,-1.53 -0.71,-2.29 -0.06,0.19 -0.12,0.37 -0.18,0.56 -2.5,7.36 -5.02,14.75 -5.99,22.49 -1.48,10.45 -0.93,21.06 -0.86,31.58 0.42,15.1 1.22,30.66 6.57,44.9 2.81,7.92 6.16,15.64 10.27,22.98 2.68,4.88 5.63,9.6 8.37,14.44 3.1,5.27 5.8,10.77 9.13,15.89 12.18,18.64 26.83,29.08 45.87,39.81 -7.54,-9.96 -13.53,-17.18 -19.45,-28.66 z"
   id="path25" />
	<path
   class="st3"
   d="m 2494.02,1590.31 c -0.83,-4.15 -2.09,-8.2 -3.61,-12.15 -1.19,-3.22 -2.4,-6.43 -3.78,-9.58 -4.52,-11.68 -10.58,-22.65 -16.79,-33.5 -0.22,-0.41 -0.43,-0.82 -0.64,-1.22 0.03,0.5 0.06,1 0.08,1.5 0.21,3.96 0.59,7.9 0.87,11.85 0.6,7.53 0.62,15.09 0.74,22.63 -0.05,5.95 0.3,11.93 -0.28,17.86 -1.44,12.41 -1.15,7.9 -2.49,16.66 0.21,-1.19 0.42,-2.39 0.62,-3.58 -0.35,1.95 -0.68,3.9 -1.01,5.84 -0.91,5.09 -1.85,10.17 -2.84,15.25 -5.54,25.59 -4.62,25.58 -10.31,50.35 -1.8,7.63 -3.02,15.44 -5.64,22.85 -2.58,7.35 -6.36,14.21 -9.03,21.52 -2.62,7.53 -4.49,15.32 -7.5,22.71 -2.39,4.49 -5.43,8.6 -8.25,12.83 -3.16,4.83 -6.21,9.74 -9.08,14.76 -1.27,2.22 -2.6,4.42 -4.11,6.48 -2.51,2.81 -5.28,5.39 -7.89,8.11 -4.46,4.46 -8.51,9.29 -12.89,13.82 -3.76,3.65 -7.91,6.87 -11.9,10.25 -6.54,5.35 -12.23,11.64 -18.84,16.91 -4.82,4.04 -10.83,7.36 -17.49,11.27 8.18,-1.45 16.35,-3.11 24.17,-5.96 5.82,-2.01 11.44,-4.53 17.19,-6.72 5.33,-2.01 3.07,-1.17 10.19,-3.86 4.6,-1.75 9.21,-3.54 13.41,-6.13 9.5,-6.08 20.07,-10.55 28.81,-17.76 4.34,-4.13 7.83,-9.06 11.98,-13.37 4.58,-5.12 9.57,-9.87 13.83,-15.27 6.47,-7.44 10.35,-16.75 13.5,-26 0.69,-2.13 1.54,-4.21 2.43,-6.27 0.18,-0.37 0.35,-0.75 0.54,-1.13 4.53,-8.79 9.5,-17.43 12.73,-26.81 1.85,-5.68 3.02,-11.55 4.06,-17.43 l -0.16,0.9 c 1.87,-10.01 3.33,-20.1 3.67,-30.29 0.65,-22.51 -0.19,-45.14 -4.29,-67.32 z"
   id="path27" />
	<path
   class="st3"
   d="m 2562.25,1648.77 c -0.46,-8.81 -1.08,-17.61 -2.08,-26.38 -0.88,-7.62 -1.47,-15.33 -3.5,-22.75 -5.53,-18.15 -9.64,-27.16 -18.12,-45.66 -1.02,-2.3 -2.05,-4.6 -3.02,-6.92 0.07,3.33 0.07,6.66 0.05,9.99 0.06,15.79 -0.38,31.59 -2.57,47.25 -1.2,9.22 -2.93,16.64 -5.44,32.62 -0.85,4.99 -1.6,10 -2.36,15 -0.9,6.22 -1.81,12.45 -2.83,18.66 -0.35,1.78 -0.76,3.54 -1.22,5.29 -2.51,9.55 -6.08,18.78 -8.69,28.31 -2.27,8.39 -3.84,17.02 -7.27,25.05 -2.28,4.51 -4.98,8.8 -7.52,13.16 -3.02,5.12 -5.65,10.47 -8.88,15.47 -6.28,9.3 -6.29,8.15 -17.68,19.89 -3.72,3.75 -6.96,7.95 -10.68,11.69 -4.71,4.76 -9.88,9.04 -14.73,13.67 -3.9,3.45 -8.1,9.61 -9.55,11.15 -4.82,5.35 -10.43,9.92 -15.85,14.63 6.95,-2.35 13.98,-4.6 20.55,-7.9 5.25,-3 9.98,-6.19 15.76,-8.23 5.56,-2.32 11.24,-4.41 16.63,-7.12 5.36,-2.66 10.33,-6.02 15.55,-8.92 11.16,-6.25 22.09,-13.46 30.26,-23.46 7.55,-9.47 16.36,-18.09 22.44,-28.64 4.78,-8.47 7.83,-17.69 10.46,-27.01 2.48,-8 5.34,-15.88 7.57,-23.95 1.39,-5.71 2.51,-11.52 2.99,-17.38 0.6,-9.17 0.08,-18.35 -0.27,-27.51 z"
   id="path29" />
	<path
   class="st3"
   d="m 2603.16,1629.68 c -0.7,-6.06 -2.47,-11.9 -4.59,-17.6 -0.7,-2 -0.81,-3.15 -4.89,-12.02 -4.49,-9.28 -10.76,-17.46 -17.12,-25.5 -0.25,-0.34 -0.51,-0.67 -0.76,-1.01 0.06,0.36 0.11,0.72 0.17,1.08 0.31,2.25 0.49,3.23 0.69,5 1.97,14.73 2.13,29.38 0.68,40.12 -2.66,24.15 -3.7,14.87 -6.62,47.99 -0.44,5.14 -0.64,10.31 -1.39,15.41 -1.46,7.61 -3.57,15.08 -6.47,22.27 -4.91,13.08 -4.58,10.79 -10.62,25.11 -0.08,0.19 -0.17,0.38 -0.26,0.57 -2.45,5.06 -5.14,10.01 -8.06,14.82 -4.26,6.65 -8.08,13.57 -12.19,20.31 -4.48,6.63 -9.18,13.19 -12.53,20.49 8.05,-7.24 12.08,-9.17 20.41,-15.42 7.36,-6.16 15.55,-12.79 22.51,-19.22 7.6,-7.08 13.73,-15.51 20.2,-23.6 11.93,-14.3 19.83,-31.96 22.04,-50.48 1.91,-16.04 0.5,-32.32 -1.2,-48.32 z"
   id="path31" />
	<path
   class="st3"
   d="m 2029.59,1171.27 c -10.23,0.95 -20.52,0.8 -30.78,0.85 -12.62,0.31 -25.27,0.27 -37.83,-1.1 -0.76,-0.09 -1.52,-0.22 -2.28,-0.33 -0.58,-0.12 -1.17,-0.25 -1.75,-0.39 -3.91,-0.99 -7.68,-2.48 -11.41,-4.01 -1.1,-0.51 -2.2,-1.02 -3.3,-1.52 1.02,0.47 2.03,0.93 3.05,1.4 -1.97,-0.97 -3.93,-1.93 -5.87,-2.96 -7.83,-4.16 -15.35,-8.89 -22.53,-14.09 -4.93,-3.47 -9.85,-6.95 -14.55,-10.72 -2.75,-2.36 -5.33,-4.91 -7.97,-7.38 2.3,9.96 6.7,19.23 11.97,27.94 6.56,11.16 14.81,21.47 25.05,29.47 11.09,9.39 25.63,14.37 40.12,14.21 20.78,-0.43 40.35,-12.62 52.08,-21.63 4.4,-3.29 8.6,-6.84 12.73,-10.47 -2.96,0.39 -5.71,0.65 -6.73,0.73 z"
   id="path33" />
	<path
   class="st3"
   d="m 2132.7,1613.03 c -15.6,2.6 -31.21,5.2 -46.81,7.81 -16.06,2.19 -32.16,4.02 -48.26,5.9 -33.2,2.75 -66.54,3.75 -99.83,2.53 -45.83,-1.72 -91.92,0.72 -137.44,-6.04 -10.22,-1.6 -5.21,-0.43 -20.69,-3.74 -8.42,-2.06 -16.77,-4.44 -25.19,-6.53 -21.99,-5.29 -44.01,-10.82 -64.76,-19.98 16.07,16.13 35.02,28.87 54.52,40.47 8.29,4.98 16.42,10.25 24.95,14.81 7.91,4.08 16.04,7.74 24.29,11.08 17,6.75 34.52,12.19 52.43,15.94 21.61,4.31 43.41,7.66 65.35,9.78 22.41,2.37 45.05,4.62 67.55,2.22 36.81,-2.82 72.57,-14.36 105.25,-31.3 16.74,-8.58 32.3,-19.21 47.63,-30.07 6.28,-4.3 14.43,-10.47 22.96,-16.55 -7.33,1.27 -14.64,2.48 -21.95,3.67 z"
   id="path35" />
	<path
   class="st3"
   d="m 2010.29,986.01 c -0.06,-0.66 -0.12,-1.31 -0.18,-1.97 -0.3,-3.34 -0.58,-6.69 -0.88,-10.03 -1.62,-18.48 -2.59,-30.51 -6.34,-59.32 -2.11,-14.3 -4.33,-28.57 -7.33,-42.71 -2.88,-14.28 -5.49,-28.62 -8.77,-42.82 -2.64,-10.75 -4.43,-21.69 -6.94,-32.47 -3.9,-17.12 -6.86,-34.44 -9.79,-51.75 -6.52,20.69 -10.92,41.99 -13.01,63.59 -1.88,14.43 -2.07,28.98 -1.95,43.51 0.09,12.32 1.13,24.65 2.82,36.85 2.39,15.49 8.17,30.27 15.15,44.23 5.81,12.09 13.47,23.19 21.42,33.96 4.91,6.56 10.18,12.86 15.58,19.02 0.09,0.1 0.18,0.2 0.27,0.31 -0.03,-0.14 -0.04,-0.27 -0.05,-0.4 z"
   id="path37" />
	<path
   class="st3"
   d="m 2563.55,1507.71 c -2.74,-20.45 -5.31,-40.99 -10.57,-60.98 -6.51,-24.96 -20.21,-61.73 -22.22,-66.87 -7.47,-19.2 -15.23,-38.38 -25.45,-56.31 -11.12,-18.49 -24.77,-35.25 -38.81,-51.58 -16.12,-18.78 -33.05,-36.99 -52.68,-52.16 -9.8,-7.91 -20.28,-14.93 -30.66,-22.06 -11.77,-8.19 -23.58,-16.37 -36.14,-23.33 -13.76,-7.62 -28.46,-13.48 -43.79,-17.09 -24.76,-6.4 -49.8,-9.74 -73.51,-14.13 20.86,12.16 42.54,22.86 63.07,35.6 8.48,5.07 16.77,10.46 24.52,16.59 19.52,17.02 36.34,36.82 54.95,54.79 15.32,15.31 28.63,32.39 42.14,49.27 11.04,14 23.15,27.14 33.85,41.39 9.86,15.21 18.65,31.08 28.22,46.47 12.42,20.38 26.34,39.79 40.57,58.93 2.57,3.51 5.23,6.95 7.87,10.4 4.8,6.82 9.78,13.52 14.19,20.6 8.46,12.83 16.53,25.92 24.23,39.23 0.63,1.09 1.25,2.19 1.87,3.29 -0.57,-4 -1.11,-8.03 -1.65,-12.05 z"
   id="path39" />
	<path
   class="st3"
   d="m 2044.03,437.94 c -0.59,-12.64 -3.25,-25.48 -10.18,-36.53 -13.07,-19.87 -28.99,-30.41 -46.23,-37.4 -13.86,-5.44 -29.46,-5.03 -47.27,-3.49 13.39,2.85 26.38,6.42 32.82,10.14 8.4,4.56 8.26,5.35 15.74,11.3 10.09,8.31 16.79,16.73 20.62,21.83 4.19,5.69 4.7,5.6 10.7,14.76 7.68,12.59 15.13,27.95 19.93,40.15 0.62,1.54 1.23,3.08 1.82,4.62 0.06,-0.43 0.12,-0.85 0.18,-1.28 1.12,-7.99 2.05,-16.03 1.87,-24.1 z"
   id="path41" />
</g>
<g
   id="Layer_8"
   transform="translate(-928.18355,-328.88585)">
	<path
   class="st4"
   d="m 1078.17,2760.98 c 36.43,47.08 100.47,65.36 159.94,62.67 59.47,-2.69 116.45,-23.11 173.44,-40.31 56.99,-17.2 121.66,-29.86 180.35,-19.88 70.71,12.02 139.42,58.61 208.56,39.53"
   id="path44" />
	<path
   class="st4"
   d="m 1941.84,2808.21 c 18.16,10.5 42.81,8.32 58.84,-5.21"
   id="path46" />
	<path
   class="st4"
   d="m 2126.23,2788.54 c 161.87,52.5 254.83,0.55 423.74,-20.22 67,-8.24 178.17,32.19 237.51,0 62.97,-34.16 120.86,-37.11 120.86,-37.11"
   id="path48" />
</g>
<g
   id="Layer_2"
   transform="translate(-928.18355,-328.88585)">
	<path
   class="st5"
   d="m 2278.7,1852.37 c -1.99,1.99 0.76,5.32 3.42,4.41 11.53,-3.96 32.65,-14.26 33.46,-14.35 24.36,-2.52 37.19,-4.07 54.55,-5.86 6.01,-0.62 12.33,-3.32 17.98,-1.21 20.66,7.72 86.11,-10.65 119.66,-37.14 0.12,-0.09 0.25,-0.16 0.4,-0.2 68.13,-18.16 111.86,-81.67 118.52,-123.55 8.72,-54.77 12.95,-109.01 1.83,-165.99 -0.46,-2.35 297.7,63.32 369.49,303.32 28.75,96.1 12.29,199.69 -51.95,276.73 -291.36,349.45 -1081.51,349.65 -1478.38,266.61 -508.63,-93.87 -782.95,-588.81 -225.15,-828.77 2.16,-0.93 4.52,0.75 4.39,3.09 -5.53,98.49 21.89,178.74 91.49,241.24 68.69,61.68 169.2,79.45 262.21,70.55 0.8,-0.08 1.42,0.49 2.19,0.71 12.7,3.49 25.36,6.87 36.26,13.72 2.26,1.42 3.84,-3 2.12,-5.04 -47.13,-56.12 -73.72,-102.79 -90.56,-173.98 0,0 432.89,132.16 798.55,-24.87 1.19,-0.52 -3.98,134.08 -70.48,200.58 z"
   id="path51" />
	<g
   id="Layer_11">
		<path
   class="st6"
   d="m 952.39,1967.25 c 34.22,132.64 166.81,241.81 268.98,298.23 164.79,91 414.63,109.2 442.91,115.09 78.86,16.43 413.74,25.53 600.36,-4.35 -497.59,-41.77 -670.59,-68.86 -856.2,-126.53 -270.15,-83.93 -378.85,-166.59 -434.75,-245.62"
   id="path53" />
		<path
   class="st6"
   d="m 1864.18,2338.82 c 4.41,5.72 2.75,13.82 1.6,20.96 -1.15,7.13 -0.71,16.03 5.64,19.47 2.88,1.56 6.33,1.55 9.6,1.5 56.39,-0.85 112.78,-1.71 169.17,-2.56 4.41,-0.07 9,-0.18 12.92,-2.21 7.93,-4.11 10.21,-14.37 10.23,-23.31 0.02,-8.94 -9.49,-9.07 -5.33,-16.97 -71.68,0.01 -137.85,6.76 -203.83,3.12 z"
   id="path55" />
		<path
   class="st6"
   d="m 3007.4,1899.33 c 9.5,185.64 -192.39,298.28 -225,319.2 -106.36,68.26 -311.79,134.39 -505.51,156.41 -128.86,14.65 -350.63,-21.17 -509.63,-39.23 -14.38,-1.63 140.46,-0.68 154.9,-1.64 274.94,-18.29 358.69,-22.92 588.24,-98 242.28,-79.25 288.04,-126.96 497,-335.91"
   id="path57" />
		<path
   class="st6"
   d="m 2639.73,1602.12 c -0.01,0.07 -0.13,-3.39 -0.05,-3.38 90.19,11.75 177.02,97.51 215.41,185.09 46.15,105.29 38.42,190.09 18.05,300.89 112.32,-39.88 143.41,-138.46 132.36,-214.12 -7.27,-49.78 -32.35,-155.61 -141.73,-245.29 -79.96,-65.56 -179.11,-101.99 -229.46,-110.55 2.92,18.73 7.43,65.57 5.42,87.36 z"
   id="path59" />
		<path
   class="st6"
   d="m 2335.65,1720.06 c -8.11,46.89 -26.18,94.51 -59.79,128.88 -1.79,1.83 -2.68,4.44 -2.09,6.93 1.15,4.87 6.33,6.26 8.99,5.55 4.69,-1.25 4.98,-1.65 8.42,-2.92 11.29,-4.18 12.47,-5.96 25.21,-11.19 23.04,-2 42.99,-4.68 65.7,-7.8 45.31,3.31 91.5,-9.73 128.33,-36.79 32.24,-10.83 64.49,-30.21 85.98,-56.56 21.49,-26.35 33.78,-58.37 37.92,-92.13 2.34,-19.13 6.03,-59.84 8.01,-76.02 -3.37,30.45 54.65,-3.61 50.62,32.85 -3.37,30.45 -25.32,119.49 -38.38,147.21 -21.59,45.81 -97.09,79.07 -144.15,97.78 -68.57,27.27 -261.44,47.63 -273.11,31.79 -7.95,-10.8 -10.69,-16.82 -6.44,-29.53 9.13,-27.33 65.12,-71.24 66.04,-100.04 0.93,-29.63 33.23,-10.88 38.74,-38.01 z"
   id="path61" />
		<path
   class="st6"
   d="m 1579.78,1748.88 c 23.15,44.98 34.67,65.02 65.48,100.03 2.12,2.4 1.5,4.05 0,6.94 -2.6,4.99 -4.68,5.29 -7.23,3.58 -4.59,-3.08 -9.53,-4.35 -13.35,-5.78 -11.89,-4.44 -12.81,-3.8 -24.85,-7.5 -3.02,-0.93 -16.81,1.37 -18.34,1.42 -47.41,1.84 -23.37,-0.27 -48.65,-0.27 -54.24,-4.6 -106.23,-14.93 -147.27,-45.34 -33.7,-16.48 -63.37,-38.33 -87.33,-67.94 -23.96,-29.61 -41.15,-63.68 -45.76,-101.6 -2.61,-21.5 -13.27,-64.75 -10.43,-84.91 -3.58,37.15 -9.61,95.32 -5.12,136.28 12.74,116.22 82.28,160.6 270.2,212.81 165.28,45.92 201.6,2.61 189.99,-32.42 -10.18,-30.7 -72.57,-80.03 -73.6,-112.39 -1.04,-33.27 -30.1,9.69 -43.74,-2.91 z"
   id="path63" />
		<path
   class="st6"
   d="m 2344.58,1659.49 c -122.55,45.35 -253.14,73.63 -386.83,74.54 -133.69,0.91 -276.62,-15.96 -399.64,-49.77 7.85,30.5 15.4,57.56 32.01,82.74 13.12,19.88 63.36,27.47 63.36,27.47 99.32,19.22 192.56,26.46 297.69,23.4 101.43,-2.95 211.25,-12.43 312.65,-36.07 15.82,-3.69 30.76,-10.51 43.13,-19.66 33.03,-24.41 35.06,-67.31 37.63,-102.65 z"
   id="path65" />
		<path
   class="st8"
   d="m 1430.12,2071.96 c 24.23,3.96 53.13,3.97 68.45,-15.21 15.6,-19.52 7.83,-50.12 -10.01,-67.62 -17.84,-17.49 -42.78,-25.23 -66.61,-32.74 -129.43,-40.8 -255.59,-91.94 -376.9,-152.77 -6.68,-3.35 -14.04,3.3 -11.3,10.25 9.36,23.75 261.36,236.05 396.37,258.09 z"
   id="path67" />
		<path
   class="st8"
   d="m 1701.04,2040.31 c -34.49,-14.53 -70.54,-21.07 -106.4,-19.3 -12.64,0.62 -27.77,4.84 -32.39,22.1 -6.73,25.14 14.96,45.79 32.76,52.71 36.91,14.36 75.29,20.61 113.45,18.5 10.23,-0.57 21.95,-2.96 27.51,-15.57 5.57,-12.6 -1.44,-44.34 -34.93,-58.44 z"
   id="path69" />
		<path
   class="st8"
   d="m 1895.25,2124.72 c 86.82,6.41 176.93,5.21 265.98,-3.52 31.38,-3.08 68.69,-9.93 78.92,-26.6 14.89,-24.27 -40.55,-38.81 -85.31,-41.59 -92.83,-5.77 -188.7,-3.86 -283.44,5.65 -25.4,2.55 -54.37,7.06 -67.28,19.67 -12.91,12.61 6.84,40.17 91.13,46.39 z"
   id="path71" />
	</g>
	<path
   class="st4"
   d="m 1439.32,1546.43 c -58.72,211.01 182.02,302.98 197.8,309.05 0.26,0.1 0.52,0.15 0.8,0.15 v 0 c 1.94,0 2.96,-2.29 1.69,-3.76 -79.1,-91.61 -116.24,-220.56 -93.35,-339.73 23.2,-120.81 104.13,-229.75 213.62,-284.42"
   id="path74" />
	<path
   class="st4"
   d="m 1364.05,1617.59 c 0.52,61.76 24.11,123.16 67.86,166.44 43.75,43.29 111.47,58.25 172.81,57.69"
   id="path76" />
	<path
   class="st4"
   d="m 1248.05,1523.43 c -8.73,52.08 4.57,116.88 24.59,159.66 24.24,51.79 59.56,86.79 102.78,111.6 31.28,24.55 70.22,37.91 109.57,43.63 39.35,5.72 79.37,4.22 119.05,1.6"
   id="path78" />
	<path
   class="st4"
   d="m 1310.88,1630.51 c 13.06,177.42 117.72,195.9 173.5,207.03"
   id="path80" />
	<path
   class="st9"
   d="m 2006.92,490.51 c -8.44,12.05 -11.17,32.89 -12.17,47.61 -3.2,47.35 -1.23,60.91 -1.23,104.53 0,3.7 -2.86,7.01 -5.71,9.36 -3.45,2.84 -8.16,3.46 -12.6,3.88 -13.17,1.25 -26.4,1.77 -39.62,1.57 -10.08,-0.16 -21.41,-1.34 -27.75,-9.23 -5.7,-7.09 -5.37,-17.14 -5.09,-26.26 0.69,-22.64 -0.73,-45.34 -4.24,-67.7 -3.54,-22.58 -11.57,-47.79 -32.35,-56.97 l -7.18,-4.68 c 12.58,6.12 27.63,6.88 40.75,2.04 16.56,-6.1 31.18,-20.78 48.69,-18.65 9.82,1.19 18.13,7.6 27.33,11.25 14.87,5.91 32.5,4.19 45.97,-4.47 z"
   id="path82" />
	<path
   class="st4"
   d="m 2464.85,1570.43 c 29.28,199.63 -126.19,262.89 -178.94,285.05 -0.23,0.1 -0.48,0.15 -0.73,0.15 v 0 c -1.77,0 -2.71,-2.29 -1.55,-3.76 72.44,-91.61 76.62,-240.56 55.66,-359.73 -21.25,-120.81 -95.37,-229.75 -195.64,-284.42"
   id="path84" />
	<path
   class="st4"
   d="m 2535.99,1617.59 c -0.48,61.76 -22.08,123.16 -62.15,166.44 -40.07,43.28 -102.09,58.25 -158.26,57.69"
   id="path86" />
	<path
   class="st4"
   d="m 2577.13,1630.51 c 5.74,58.29 -20.52,111.6 -58.18,153.11 -37.67,41.51 -92,58.47 -145.03,52.3"
   id="path88" />
	<path
   class="st4"
   d="m 2505.51,1798.8 c 119.63,-33.02 144.52,-156.8 123.03,-290.33 -21.49,-133.53 -112.81,-242.6 -217.64,-314.05 -103.69,-70.67 -221.46,-111.25 -335.14,-160.01 -2.05,-0.88 -5.12,-2.62 -7.8,-6.49 -0.6,-0.87 -1.25,-1.88 -1.6,-2.63 -70.05,-150.66 -61.06,-270.6 -52.92,-434.24 0.62,-12.48 1.74,-25.86 8.38,-36.5 2.04,-3.27 4.77,-6 7.59,-8.62 49.48,-46.18 48.23,-101.41 20.01,-150.74 -28.46,-49.77 -94.34,-73.97 -147.98,-54.56 -0.74,0.27 -1.49,0.51 -2.25,0.74 -40.78,12.01 -76.66,53.71 -83.85,101.07 -6.35,41.82 8.6,80.62 38.74,107.96 9.24,8.38 15.74,19.39 18.15,31.67 28.99,147.46 22.34,308.17 -13.79,455.44 -1.66,6.78 -6.51,12.34 -13.01,14.88 -122.21,47.69 -248.42,88.09 -359.76,157.59 -114.47,71.45 -215.25,185.95 -238.72,319.47"
   id="path90" />
	<path
   class="st9"
   d="m 1955.97,2899.1 c 6.15,-27.28 -4.97,-55.05 -13.06,-81.81 -20.26,-67.06 -21.97,-138.19 -22.61,-208.27 -0.61,-67.04 1.62,-140.1 2.68,-207.13 -15.19,-1.1 -37.62,-1.3 -54.97,-1.3 11.13,71.31 22.29,151.07 23.42,223.25 0.38,24.33 0.13,49.1 -7.1,72.32 -10.67,34.28 -35.52,62.09 -61.35,86.89 -25.83,24.8 -53.68,48.19 -73.18,79.09 16.67,-6.05 37.27,3.15 44,19.65 2.2,5.4 3.8,12.16 9.27,14.1 6.49,2.3 12.42,-4.02 17.95,-8.13 12.25,-9.1 31.06,-7.66 41.8,3.2 4.84,4.89 8.61,11.67 15.23,13.45 6.81,1.83 13.56,-2.41 19.99,-5.33 18.12,-8.24 40.5,-6.01 57.93,0.02 z"
   id="path92" />
	<path
   class="st9"
   d="m 2084.81,2739.72 c -15.82,-17.08 -32.02,-34.79 -39.97,-56.73 -7.75,-21.4 -6.92,-44.85 -5.69,-67.6 3.86,-71.56 12.64,-144.73 23.84,-216.11 -12.37,0 -33.44,0.89 -50.68,0.88 -1.28,0 -1.99,1 -1.6,2.21 v 0 c 0.04,0.13 0.07,0.27 0.08,0.4 12.41,160.59 20.33,330.55 -36.32,479.93 l 8.44,-4.52 c 1.41,-0.14 2.63,-0.9 3.95,-1.43 16.87,-6.71 29.87,-9.6 48.35,-2.27 9.45,3.75 19.25,10.02 28.94,6.98 11.63,-3.65 16.67,-19.11 28.45,-22.24 13.08,-3.48 25.57,10.32 38.99,8.53 9.93,-1.32 16.58,-10.51 22.95,-18.3 6.37,-7.78 15.85,-15.48 25.39,-12.43 0,0.02 -65.68,-65.5 -95.12,-97.3 z"
   id="path94" />
	<path
   class="st10"
   d="m 1887.89,446.34 c 2.16,1.32 3.18,9.75 1.73,14.31 -1.45,4.56 -4.65,3.03 -5.44,-2.61 -0.8,-5.64 1.25,-13.2 3.71,-11.7 z"
   id="path96" />
	<path
   class="st10"
   d="m 1993.05,446.34 c 2.16,1.32 3.18,9.75 1.73,14.31 -1.45,4.56 -4.65,3.03 -5.44,-2.61 -0.79,-5.64 1.26,-13.2 3.71,-11.7 z"
   id="path98" />
	<path
   class="st4"
   d="m 1806.63,1179.53 c -13.02,41.05 -37.06,78.55 -68.93,107.52"
   id="path100" />
	<path
   class="st4"
   d="m 2104.86,1171.5 c 5.84,35.55 25.19,68.72 53.26,91.3"
   id="path102" />
	<path
   class="st11"
   d="m 946.47,1969.25 c 31.44,115.43 130.94,222.05 238.76,283.65 107.82,61.6 229.95,93.84 352.24,115.42 336.25,59.34 687.24,46.08 1021.82,-48.02 132.86,-37.36 263.81,-102.79 357.08,-196.06"
   id="path104" />
</g>
<g
   id="Layer_10"
   transform="translate(-928.18355,-328.88585)">
	<path
   class="st12"
   d="m 1980.33,515.82 c -2.34,-1.05 -4.42,-2.57 -6.41,-4.17 -5.52,-4.47 -9.42,-10.62 -15.23,-14.77 -3.45,-2.56 -7.3,-4.6 -11.3,-6.14 -2.97,-0.85 -6.11,-0.81 -9.08,-0.01 -4.97,1.3 -9.44,4.01 -13.16,7.53 -3.25,2.93 -6.51,5.86 -9.55,9.01 -3.54,3.62 -5.04,4.91 -9.39,6.84 -2.66,1.03 -5.66,1.67 -8.45,0.77 5.33,3.84 12.8,2.46 18.44,-0.04 5.91,-3.14 11.72,-6.49 17.63,-9.64 0.65,-0.32 1.31,-0.61 1.98,-0.89 0.88,-0.26 1.79,-0.42 2.69,-0.6 0.52,-0.08 0.85,-0.14 1.04,-0.17 0.57,-0.04 1.15,-0.05 1.72,0 3.99,2.32 8.01,4.6 11.9,7.08 8.06,5.84 17.73,11.32 28.02,9.19 2,-0.35 3.98,-0.83 5.95,-1.31 -2.86,-0.92 -5.06,-1.85 -6.8,-2.68 z"
   id="path107" />
	<path
   class="st12"
   d="m 1839.73,2806.93 c -11.5,11.85 -17.91,24.18 -20.05,40.63 -0.27,0.96 0.56,-0.38 0.87,-0.63 2.62,-2.95 5.28,-5.86 7.9,-8.81 7,-8.03 10.18,-11.11 15.27,-18.18 8.59,-11.59 14.87,-24.63 22.36,-36.9 -9.82,6.71 -18.26,15.23 -26.35,23.89 z"
   id="path109" />
	<path
   class="st12"
   d="m 1894.76,2802.41 c -0.42,-6.12 -1.55,-12.49 -2.01,-18.16 -1.97,5.88 -3.13,12 -4.61,18.01 -2.33,10.29 -3.23,14.32 -4.34,25.02 -1.15,12.66 0.97,25.47 4.52,37.61 0.09,1.67 1.49,-4.38 1.78,-4.97 2.39,-8.04 4.19,-16.28 5.08,-24.62 0.96,-10.93 0.35,-21.96 -0.42,-32.89 z"
   id="path111" />
	<path
   class="st12"
   d="m 2053.55,2820.66 c -2.1,-17.4 -6.36,-34.84 -14.69,-50.36 1.98,19.03 0.05,38.36 3.49,57.25 1.83,8.99 5.41,17.52 9.15,25.87 0.81,1.8 1.63,3.59 2.44,5.38 0,-0.66 0,-1.32 0,-1.98 0.17,-12.05 0.74,-24.14 -0.39,-36.16 z"
   id="path113" />
	<path
   class="st12"
   d="m 2124.12,2841.12 c -1.21,-3.29 -2.5,-6.56 -3.87,-9.79 -4.35,-10.38 -9.5,-20.52 -16.71,-29.23 -6,-7.73 -13.22,-14.36 -19.72,-21.64 -1.78,-2.02 -3.43,-4.15 -5.08,-6.28 -0.82,-1.11 -1.63,-2.25 -2.21,-3.51 -0.15,-0.3 -0.2,-0.65 -0.08,-0.97 -0.2,0.17 -0.32,0.41 -0.35,0.67 -0.17,2.28 0.51,4.54 1.15,6.71 2.65,8.95 7.32,17.11 12.1,25.07 4.75,8 9.63,15.99 15.78,23.01 5.41,6.26 11.75,11.68 18.52,16.41 0.28,0.19 0.55,0.38 0.83,0.57 -0.12,-0.35 -0.24,-0.69 -0.36,-1.02 z"
   id="path115" />
</g>
<g
   id="Layer_14"
   transform="translate(-928.18355,-328.88585)">
	<path
   class="st13"
   d="m 1861.21,1725.87 c -33.71,217.16 -28.12,457.92 13.92,673.62"
   id="path118" />
	<path
   class="st13"
   d="m 2051.97,1723.68 c 59.13,224.74 49.3,454.43 7.36,676.79"
   id="path120" />
	<path
   class="st13"
   d="m 2634.31,1565.99 c 29.42,9.01 55.42,21.01 82.42,37.01 22,14 41,28 61,44 26,21 45,43 64,70 14.77,20.99 32.91,54.56 34.52,57.43 45.79,82.05 54.11,178.27 33.48,272.57 -1,5 -3,9 -5,14 -12,41 -25,80 -49.64,114.23"
   id="path122" />
	<path
   class="st13"
   d="m 2622.06,1689.34 c 1.67,2.66 3.27,1.94 6.67,6.66 77.84,92.81 71.71,89.29 78,99 23.42,36.94 38,67 50,104 8,26 13,52 16,79 24.55,220.96 -114.41,304.09 -129.97,313.32"
   id="path124" />
	<path
   class="st13"
   d="m 2506.86,1792.23 c 4.7,9.5 9.1,19.16 13.14,28.96 1.92,4.67 3.93,9.26 5.98,13.87 1.02,2.28 13.95,34.75 24.45,71.3 11.51,40.06 19.32,81.45 22.34,123.04 3.09,42.61 1.68,86.07 -6.02,128.12 -6.99,38.13 -19.6,76.02 -39.53,109.43 -17.82,29.86 -41.47,56.28 -70.01,76.26 -3.5,2.45 -7.07,4.8 -10.7,7.05"
   id="path126" />
	<path
   class="st13"
   d="m 1678,1705.55 c -107.6,266.22 -134.18,445.11 22.39,683.45"
   id="path128" />
	<path
   class="st13"
   d="m 1401.63,1814.41 c -14.8,32.42 -26.42,66.31 -34.25,101.09 -7.73,34.35 -11.75,69.52 -11.89,104.73 -0.15,36 3.75,71.97 11.31,107.16 7.95,37.03 19.92,73.15 35.1,107.84 16.59,37.92 36.97,74.12 60.09,108.43 3.01,4.46 6.06,8.89 9.16,13.29"
   id="path130" />
	<path
   class="st13"
   d="M 1270.06,1690.67 C 1185.73,1802 1149.73,1945 1163.73,2084 c 7,72 36,139 77.36,196.52"
   id="path132" />
	<path
   class="st13"
   d="m 1248.05,1590.74 c -67.65,35.41 -124.47,98.07 -126.32,100.26 -53.75,65.33 -84,123 -100,201 -17,84 -10,165 20.09,241.41"
   id="path134" />
	<path
   class="st13"
   d="m 2305.12,1851.33 c 11.43,34.52 20.36,69.88 26.47,105.73 5.97,35.01 9.24,70.47 9.63,105.98 0.39,35.14 -2.05,70.3 -7.35,105.04 -5.32,34.89 -13.53,69.33 -24.48,102.89 -11.17,34.25 -25.2,67.55 -41.75,99.54 -2.03,3.91 -4.09,7.81 -6.19,11.68"
   id="path136" />
	<path
   class="st13"
   d="m 2229.71,1688.33 c 20.92,34.83 39.44,71.11 55.07,108.61 4.25,10.2 8.29,20.49 12.11,30.86"
   id="path138" />
</g>
<g
   id="Layer_13"
   transform="translate(-928.18355,-328.88585)">
	<path
   class="st13"
   d="m 2631.73,1651.51 c 43,-29.51 84,-62.51 122.42,-98.78"
   id="path141" />
	<path
   class="st13"
   d="m 1611.37,1818.85 c 107.63,26.03 207.25,32.87 210.36,33.15 204.27,18.14 429.02,-33.8 430,-34 20,-4 39,-10 58.5,-15.28"
   id="path143" />
	<path
   class="st13"
   d="m 1137.76,1580.08 c 2.97,1.92 4.97,3.92 6.97,6.92 40,34 79,64 123.28,90.31"
   id="path145" />
	<path
   class="st13"
   d="m 1010.76,1684.14 c 256,236.79 605.91,332.84 954.59,327.84 348.68,-5 692.37,-111 941.47,-355.04"
   id="path147" />
	<path
   class="st13"
   d="m 937.35,1841.74 c 283.27,283.27 677.36,344.47 1054.96,338.45 377.6,-6.02 716.79,-92.52 1005.1,-380.82"
   id="path149" />
	<path
   class="st13"
   d="m 983.69,2054.79 c 447.73,404.57 1723.02,373.03 2023.71,-100.29"
   id="path151" />
</g>

</svg>
