<?xml version="1.0" encoding="UTF-8" standalone="no"?>
<svg xmlns="http://www.w3.org/2000/svg" xml:space="preserve" width="661.43585" height="277.63474" viewBox="0 0 661.43586 277.63171">
  <path d="M173.8987985 216.7542204s36.925-135.74 149.32-136.57c112.395-.83 159.17 42.624 164.55 153.48-104.22-41.083-187.46 15.797-218.16 43.969-31.64-40.63-33.99-59.43-95.71-60.88z"/>
  <g transform="translate(-2.2812015 1.7242204)">
    <path fill="none" stroke="#000" stroke-width="6" d="M552.25291 148.77873c0-12.811-18.305-31.293-27.322-27.37"/>
    <circle cx="552.66998" cy="150.34" r="5.579"/>
    <circle cx="552.78003" cy="156.88" r="8.0950003"/>
    <circle cx="552.78003" cy="164.00999" r="8.0950003"/>
    <path d="M571.77 197.29c-.737-1.001-1.598-1.822-1.805-2.672-1.618-6.629-6.54-26.801-13.305-28.636-.915-.248-1.477-1.281-1.256-2.308.221-1.027 1.144-1.654 2.057-1.409 7.684 2.083 12.294 17.014 15.79 31.343.249 1.019-.028 2.269-.397 3.485-.05.167-.296 1.196-.444 1.196l-.64-.99z"/>
    <path d="M567.52 200.05c-.737-1.001-1.598-1.822-1.805-2.672-1.618-6.629-6.54-26.801-13.305-28.636-.915-.248-1.477-1.281-1.256-2.308.221-1.027 1.144-1.654 2.057-1.409 7.684 2.083 12.294 17.014 15.79 31.343.249 1.019-.028 2.269-.397 3.485-.05.167-.296 1.196-.444 1.196l-.65-.99z"/>
    <path d="M557.14 201.4c.15-1.233.497-2.371.262-3.214-1.845-6.57-7.456-26.561-2.462-31.479.674-.666.656-1.841-.038-2.628-.697-.785-1.809-.88-2.485-.218-5.672 5.587-2.36 20.856 1.626 35.059.283 1.009 1.139 1.962 2.056 2.841.127.121.845.897.975.824l.06-1.18z"/>
    <path d="M550.8 200.9c.15-1.233.497-2.371.262-3.214-1.845-6.57-7.456-26.561-2.462-31.479.674-.666.656-1.841-.038-2.628-.697-.785-1.809-.88-2.485-.218-5.672 5.587-2.36 20.856 1.626 35.059.283 1.009 1.139 1.962 2.056 2.841.127.121.845.897.975.824l.06-1.18zm12.64-1.32c.205-1.528.678-2.938.356-3.982-2.516-8.141-10.169-32.91-3.357-39.004.919-.825.896-2.28-.052-3.256-.951-.973-2.467-1.09-3.39-.27-7.736 6.922-3.22 25.842 2.218 43.439.386 1.25 1.553 2.431 2.804 3.52.173.15 1.151 1.112 1.329 1.021l.09-1.47z"/>
    <path stroke="#fff" stroke-width="4" d="M653.29544 67.652367c9.26518 1.97245 13.27491 10.792406-.63485 15.650177C587.57226 106.03366 321.11926 183.60917 321.11926 183.60917c-6.27045 1.89681-15.26066 2.53813-25.11793-.0996 0 0-277.938313-79.93441-288.3232333-85.15322-4.2491629-2.13536-5.1734352-9.633021.9872134-11.864432C15.574413 83.989414 303.77396 5.1688568 311.89112 2.595646c9.801-3.10699996 16.33097-2.89321912 26.65892-.7855928 0 0 248.69719 51.7814098 314.7454 65.8423138z"/>
  </g>
</svg>