<?xml version="1.0" encoding="UTF-8" standalone="yes"?>
<svg xmlns="http://www.w3.org/2000/svg" viewBox="-120 -700 2150 1400" width="430" height="280">
       <title>Logit function</title>
       <desc>f(x) = ln(x / (1-x))</desc>
       <defs>
              <pattern id="grid" width="200" height="100" patternUnits="userSpaceOnUse">
                     <path d="M0,0 H200 M0,0 V100" stroke="#777" fill="none" stroke-width="5" />
              </pattern>
       </defs>
       <rect x="0" y="-700" width="2200" height="1400" fill="url(#grid)" />
       <path d="M0,-700v1500 M0,0 h2200" stroke="black" fill="none" stroke-width="5" />
       <path d="M2.0,690.7 Q 12.0,452.0,22.0,450.1 31.9,407.0,41.9,384.4 51.9,360.6,61.9,344.4 71.9,328.0,81.8,315.4 91.8,302.8,101.8,292.6 111.8,282.3,121.8,273.6 131.7,264.9,141.7,257.4 151.7,249.8,161.7,243.1 171.7,236.4,181.6,230.4 191.6,224.3,201.6,218.8 211.6,213.3,221.6,208.3 231.5,203.2,241.5,198.5 251.5,193.8,261.5,189.4 271.5,185.1,281.4,180.9 291.4,176.8,301.4,172.9 311.4,169.0,321.4,165.3 331.3,161.6,341.3,158.1 351.3,154.6,361.3,151.2 371.3,147.8,381.2,144.6 391.2,141.4,401.2,138.3 411.2,135.1,421.2,132.1 431.1,129.1,441.1,126.2 451.1,123.3,461.1,120.5 471.1,117.7,481.0,115.0 491.0,112.3,501.0,109.6 511.0,106.9,521.0,104.3 530.9,101.8,540.9,99.2 550.9,96.7,560.9,94.2 570.9,91.8,580.8,89.3 590.8,86.9,600.8,84.5 610.8,82.2,620.8,79.8 630.7,77.5,640.7,75.2 650.7,72.9,660.7,70.7 670.7,68.4,680.6,66.2 690.6,64.0,700.6,61.8 710.6,59.6,720.6,57.4 730.5,55.3,740.5,53.1 750.5,51.0,760.5,48.9 770.5,46.7,780.4,44.6 790.4,42.5,800.4,40.5 810.4,38.4,820.4,36.3 830.3,34.3,840.3,32.2 850.3,30.2,860.3,28.1 870.3,26.1,880.2,24.1 890.2,22.0,900.2,20.0 910.2,18.0,920.2,16.0 930.1,14.0,940.1,12.0 950.1,10.0,960.1,8.0 970.1,6.0,980.0,4.0 990.0,2.0,1000.0,0.0 1010.0,-2.0,1020.0,-4.0 1029.9,-6.0,1039.9,-8.0 1049.9,-10.0,1059.9,-12.0 1069.9,-14.0,1079.8,-16.0 1089.8,-18.0,1099.8,-20.0 1109.8,-22.0,1119.8,-24.1 1129.7,-26.1,1139.7,-28.1 1149.7,-30.2,1159.7,-32.2 1169.7,-34.3,1179.6,-36.3 1189.6,-38.4,1199.6,-40.5 1209.6,-42.5,1219.6,-44.6 1229.5,-46.7,1239.5,-48.9 1249.5,-51.0,1259.5,-53.1 1269.5,-55.3,1279.4,-57.4 1289.4,-59.6,1299.4,-61.8 1309.4,-64.0,1319.4,-66.2 1329.3,-68.4,1339.3,-70.7 1349.3,-72.9,1359.3,-75.2 1369.3,-77.5,1379.2,-79.8 1389.2,-82.2,1399.2,-84.5 1409.2,-86.9,1419.2,-89.3 1429.1,-91.8,1439.1,-94.2 1449.1,-96.7,1459.1,-99.2 1469.1,-101.8,1479.0,-104.3 1489.0,-106.9,1499.0,-109.6 1509.0,-112.3,1519.0,-115.0 1528.9,-117.7,1538.9,-120.5 1548.9,-123.3,1558.9,-126.2 1568.9,-129.1,1578.8,-132.1 1588.8,-135.1,1598.8,-138.3 1608.8,-141.4,1618.8,-144.6 1628.7,-147.8,1638.7,-151.2 1648.7,-154.6,1658.7,-158.1 1668.7,-161.6,1678.6,-165.3 1688.6,-169.0,1698.6,-172.9 1708.6,-176.8,1718.6,-180.9 1728.5,-185.1,1738.5,-189.4 1748.5,-193.8,1758.5,-198.5 1768.5,-203.2,1778.4,-208.3 1788.4,-213.3,1798.4,-218.8 1808.4,-224.3,1818.4,-230.4 1828.3,-236.4,1838.3,-243.1 1848.3,-249.8,1858.3,-257.4 1868.3,-264.9,1878.2,-273.6 1888.2,-282.3,1898.2,-292.6 1908.2,-302.8,1918.2,-315.4 1928.1,-328.0,1938.1,-344.4 1948.1,-360.6,1958.1,-384.4 1968.1,-407.0,1978.0,-450.1 1988.0,-452.0,1998.0,-690.7 M800,-600 h150"
              fill="none" stroke="blue" stroke-width="10" />
       <g font-family="new century schoolbook" font-size="100" fill="black" stroke="none">
              <text x="960" y="-560">f(x)=ln  ——</text>
              <text x="1400" y="-600" font-style="italic">x</text>
              <text x="1350" y="-510">1−<tspan font-style="italic">x</tspan>
              </text>
              <g text-anchor="end">
                     <text x="-15" y="40">0</text>
                     <text x="-15" y="-160">2</text>
                     <text x="-15" y="240">−2</text>
                     <text x="-15" y="-360">4</text>
                     <text x="-15" y="440">−4</text>
                     <text x="-15" y="-560">6</text>
                     <text x="-15" y="640">−6</text>
              </g>
              <g text-anchor="middle">
                     <text x="400" y="90">0.2</text>
                     <text x="800" y="90">0.4</text>
                     <text x="1200" y="90">0.6</text>
                     <text x="1600" y="90">0.8</text>
                     <text x="1960" y="90">1.0</text>
              </g>
       </g>
</svg>