<?xml version="1.0" encoding="UTF-8"?>
<svg width="369.66mm" height="194.28mm" version="1.1" viewBox="0 0 369.66 194.28" xmlns="http://www.w3.org/2000/svg" xmlns:cc="http://creativecommons.org/ns#" xmlns:dc="http://purl.org/dc/elements/1.1/" xmlns:rdf="http://www.w3.org/1999/02/22-rdf-syntax-ns#">
 <defs>
  <clipPath id="clipPath28">
   <path d="m0 1080h1920v-1080h-1920z"/>
  </clipPath>
  <clipPath id="clipPath194">
   <rect transform="scale(1,-1)" x="443.57" y="-820.71" width="1047.9" height="550.71" fill="#00f" fill-rule="evenodd" stroke-width=".75"/>
  </clipPath>
 </defs>
 <metadata>
  <rdf:RDF>
   <cc:Work rdf:about="">
    <dc:format>image/svg+xml</dc:format>
    <dc:type rdf:resource="http://purl.org/dc/dcmitype/StillImage"/>
    <dc:title/>
   </cc:Work>
  </rdf:RDF>
 </metadata>
 <g transform="translate(203.35 151.19)">
  <g transform="matrix(.35278 0 0 -.35278 -359.83 138.34)" clip-path="url(#clipPath194)">
   <path d="m0 0h1920v1080h-1920z" fill="#68b5e0"/>
   <g clip-path="url(#clipPath28)">
    <g transform="translate(1040.5 353.2)">
     <path d="m0 0c0 7.951-5.488 13.665-13.106 13.665h-16.015v-27.33h16.015c7.618 0 13.106 5.824 13.106 13.665m12.879 0c0-14.448-11.2-25.762-25.985-25.762h-16.015v-26.879h-12.879v78.401h28.894c14.785 0 25.985-11.201 25.985-25.76" fill="#4d5e66"/>
    </g>
    <g transform="translate(1116.1 312.88)">
     <path d="m0 0v-12.319h-44.8v78.401h12.879v-66.082z" fill="#4d5e66"/>
    </g>
    <g transform="translate(1175.9 328.45)">
     <path d="m0 0-12.433 35.394-12.431-35.394zm4.257-12.097h-33.378l-5.488-15.791h-14l28.448 78.401h15.458l28.336-78.401h-13.888z" fill="#4d5e66"/>
    </g>
    <g transform="translate(1208.5 318.37)">
     <path d="m0 0 11.091 6.495c2.8-7.951 8.848-13.215 19.488-13.215 10.191 0 14.56 4.591 14.56 10.303 0 6.945-6.16 9.297-17.809 12.882-12.209 3.695-24.081 8.176-24.081 22.96 0 14.449 11.984 22.624 25.202 22.624 12.879 0 22.401-6.833 27.328-17.248l-10.864-6.273c-2.8 6.273-7.73 10.976-16.464 10.976-7.506 0-12.321-3.808-12.321-9.742 0-6.049 4.367-8.624 15.791-12.209 12.994-4.146 26.097-8.176 26.097-23.745 0-14.337-11.424-23.074-27.776-23.074-15.457 0-26.096 7.618-30.242 19.266" fill="#4d5e66"/>
    </g>
    <g transform="translate(1332.5 366.64)">
     <path d="m0 0h-22.064v-66.081h-12.881v66.081h-22.176v12.32h57.121z" fill="#4d5e66"/>
    </g>
    <path d="m1361.6 300.56h-12.879v78.401h12.879z" fill="#4d5e66"/>
    <g transform="translate(1380.1 339.76)">
     <path d="m0 0c0 22.736 17.136 40.658 40.994 40.658 14.336 0 27.103-7.281 33.712-18.705l-11.2-6.495c-4.146 7.728-12.657 12.654-22.512 12.654-16.915 0-28.115-11.983-28.115-28.112 0-16.127 11.2-28.111 28.115-28.111 9.855 0 18.479 4.926 22.512 12.655l11.2-6.383c-6.497-11.425-19.264-18.818-33.712-18.818-23.858 0-40.994 17.921-40.994 40.657" fill="#4d5e66"/>
    </g>
    <g transform="translate(872.28 621.17)">
     <path d="m0 0 3.865 22.761h-30.922l-36.932-209.14h33.067l21.473 122.82c2.859 17.459 10.663 31.564 23.405 42.301 12.737 10.736 27.981 16.104 45.737 16.104 6.583 0 12.883-0.577 18.895-1.718l5.154 28.773c-6.87 2.288-14.171 3.435-21.902 3.435-25.197 0-45.81-8.447-61.84-25.337" fill="#fff"/>
    </g>
    <g transform="translate(1132.9 485.04)">
     <path d="m0 0c-15.484-16.319-34.063-24.479-55.735-24.479-19.424 0-35.614 6.294-48.557 18.896-12.392 13.165-18.579 29.485-18.579 48.958 0 24.908 7.528 46.091 22.59 63.558 15.055 17.46 33.423 26.197 55.101 26.197 20.269 0 36.736-6.805 49.403-20.4 12.668-13.601 19-31.282 19-53.037 0-23.479-7.745-43.374-23.223-59.693m-39.689 163.62c-28.922 0-53.252-10.308-73.007-30.921l24.908 139.14h-33.067l-56.258-322.09h33.068l6.44 36.503c7.73-12.601 18.748-22.62 33.069-30.061 14.313-7.442 30.061-11.165 47.239-11.165 30.631-0.571 57.043 10.802 79.234 34.14 22.184 23.332 32.993 51.172 32.422 83.529 0 28.914-8.95 52.963-26.84 72.148-17.895 19.177-40.301 28.773-67.208 28.773" fill="#fff"/>
    </g>
    <g transform="translate(1276.5 747.86)">
     <path d="m0 0c-6.588 0-12.313-2.362-17.177-7.085-4.871-4.725-7.301-10.382-7.301-16.964 0-6.871 2.363-12.602 7.086-17.178 4.724-4.584 10.522-6.872 17.392-6.872 6.872 0 12.737 2.288 17.608 6.872 4.865 4.576 7.301 10.307 7.301 17.178 0 6.582-2.436 12.239-7.301 16.964-4.871 4.723-10.736 7.085-17.608 7.085" fill="#fff"/>
    </g>
    <g transform="translate(1209.1 434.79)">
     <path d="m0 0h33.067l36.933 209.14h-33.068z" fill="#fff"/>
    </g>
    <g transform="translate(1388.2 614.3)">
     <path d="m0 0h65.706l5.153 29.632h-65.706l10.307 57.117h-33.068l-9.876-57.117h-35.644l-4.296-29.632h34.356l-19.325-110.8c-1.147-5.731-1.717-11.314-1.717-16.749 0-19.473 6.294-33.785 18.896-42.945 12.594-9.159 29.773-13.742 51.533-13.742 6.871 0 14.883 0.718 24.049 2.147l5.154 28.343c-2.577 0-5.443-0.073-8.588-0.214-3.155-0.148-5.584-0.289-7.301-0.43-1.719-0.147-3.007-0.214-3.865-0.214-31.209 0-46.811 10.589-46.811 31.779 0 3.435 0.43 7.301 1.289 11.595z" fill="#fff"/>
    </g>
    <g transform="translate(797.36 605.89)">
     <path d="m0 0c0.152 9.64-0.545 19.326-2.061 28.921-0.243 1.667-0.531 3.35-0.849 5.017l-2e-3 9e-3c3e-3 -5e-3 5e-3 -9e-3 8e-3 -0.014-0.325 1.776-0.696 3.553-1.081 5.314-0.157 0.707-0.333 1.409-0.498 2.114-2.736 11.72-6.681 23.172-11.842 34.08-0.507 1.086-1.037 2.161-1.566 3.235-0.907 1.848-1.838 3.684-2.824 5.491-3.497 6.5-7.433 12.773-11.744 18.788-11.719 16.355-26.29 30.74-42.982 42.167-2.046 1.384-4.093 2.724-6.198 4.032-0.016 0.01-0.03 0.02-0.046 0.03-7.152 4.34-14.489 8.372-22.182 11.678-2.066 0.875-4.146 1.722-6.236 2.544-0.178 0.07-0.358 0.133-0.536 0.202-1.934 0.755-3.879 1.478-5.835 2.169-0.045 0.016-0.09 0.035-0.135 0.05-0.378 0.135-0.762 0.251-1.141 0.382-1.348 0.464-2.695 0.93-4.055 1.356-1.877 0.591-3.762 1.147-5.657 1.658-8.049 2.274-16.477 3.956-24.89 4.82-0.807 0.082-1.62 0.162-2.449 0.232-0.087 8e-3 -0.171 0.018-0.257 0.026h-0.012c-4.515 0.424-9.061 0.652-13.592 0.697-3.046 0.03-6.093-0.03-9.14-0.182-28.461-1.314-56.287-10.858-79.74-26.677-0.094-0.059-0.191-0.116-0.286-0.176-3.368-2.116-6.673-4.356-9.901-6.704-1.993-1.467-3.971-2.965-5.917-4.526-6.472-5.282-12.728-10.858-18.413-17.006-5.638-6.164-11.029-12.575-15.756-19.464-4.819-6.827-9.222-14.196-12.852-21.842-2.348-4.928-4.48-9.948-6.333-15.061-1.051-2.858-2.008-5.747-2.874-8.666-8.789-28.979-8.573-60.367-0.092-89.176 1.051-3.584 2.224-7.153 3.553-10.643 2.966-7.91 6.642-15.54 10.813-22.847 2.054-3.676 4.057-7.341 6.374-10.848l3.747-5.259c1.235-1.699 2.626-3.29 3.923-4.927 5.036-6.04 9.219-12.1 15.074-17.29l14.194-13.506-25.238-5.52 8.766-33.932 89.693 19.519-24.923 88.358-34.031-8.278 8.025-28.716c-1.017 0.911-2.016 1.84-3.002 2.782-0.153 0.169-0.291 0.343-0.45 0.51-8.836 9.408-18.839 19.085-24.785 30.438-1.607 3.058-3.044 6.195-4.388 9.376-2.162 4.495-4.031 9.129-5.638 13.841-8.125 23.866-8.48 50.095-1.266 73.992 0.664 2.24 1.421 4.449 2.239 6.627l0.062 0.17c3.522 9.453 8.249 18.444 14.072 26.816 3.553 5.329 7.647 10.241 11.895 14.968 4.309 4.726 8.959 9.067 13.825 13.223 4.974 3.985 10.133 7.77 15.586 11.091 2.518 1.529 5.082 2.996 7.693 4.387 1.833 0.985 3.697 1.938 5.575 2.82 0.036 0.016 0.072 0.033 0.108 0.048 13.52 5.897 28.057 9.323 42.715 10.02 2.334 0.106 4.668 0.136 7.003 0.091h0.181c10.08-0.167 20.13-1.622 29.967-4.335 6.2-1.547 12.203-3.775 18.083-6.2 5.882-2.486 11.536-5.427 17.068-8.625 5.427-3.35 10.702-6.958 15.674-10.974 2.258-1.88 4.517-3.805 6.699-5.806 2.547-2.304 5.018-4.714 7.368-7.261 8.731-9.382 16.264-19.962 22.175-31.422 2.911-5.745 5.563-11.671 7.655-17.78 2.137-6.109 3.956-12.353 5.169-18.705 0.667-2.895 1.031-5.835 1.501-8.746 0.03-0.288 0.075-0.576 0.121-0.849 0.303-3.244 0.773-6.457 0.894-9.716 0.091-1.046 0.152-2.107 0.197-3.153 0.015-0.636 0.015-1.258 0.015-1.894 0-5.685-0.197-11.323-0.606-16.886-6.321-90.402-73.446-139.8-145.4-150.27 5.897-0.864 11.915-1.304 18.008-1.304 3.229 0 6.427 0.122 9.61 0.379 80.413 6.169 147.2 70.42 154.4 168.08 0.064 0.877 0 1.758-0.031 2.637" fill="#fff"/>
    </g>
   </g>
  </g>
 </g>
</svg>
