<?xml version="1.0" standalone="no"?>
<!DOCTYPE svg PUBLIC "-//W3C//DTD SVG 20010904//EN"
 "http://www.w3.org/TR/2001/REC-SVG-20010904/DTD/svg10.dtd">
<svg version="1.0" xmlns="http://www.w3.org/2000/svg"
 width="356.000000pt" height="66.000000pt" viewBox="0 0 356.000000 66.000000"
 preserveAspectRatio="xMidYMid meet">

<g transform="translate(0.000000,66.000000) scale(0.100000,-0.100000)"
fill="#000000" stroke="none">
<path d="M2632 432 c-7 -5 -24 -7 -38 -4 l-24 4 0 -106 0 -106 25 0 c25 0 25
1 25 85 0 83 0 85 27 91 39 10 53 -16 53 -103 0 -66 2 -73 20 -73 17 0 19 8
22 81 2 65 7 84 21 93 12 8 22 8 35 0 13 -9 18 -28 20 -93 3 -80 3 -81 28 -81
l26 0 -4 91 c-3 82 -5 93 -28 111 -19 15 -32 18 -60 13 -39 -8 -50 -8 -100 0
-19 3 -41 2 -48 -3z"/>
<path d="M2988 433 c-10 -2 -18 -13 -18 -23 0 -15 6 -17 40 -13 25 4 46 1 55
-7 23 -19 18 -30 -15 -30 -60 0 -99 -35 -100 -87 0 -40 75 -67 120 -43 13 7
21 7 25 0 3 -5 14 -10 24 -10 17 0 18 7 14 68 -7 97 -16 125 -44 139 -24 13
-67 15 -101 6z m92 -133 c0 -36 -30 -56 -60 -40 -27 14 -26 48 3 60 43 17 57
12 57 -20z"/>
<path d="M3268 433 l-38 -4 0 -145 0 -144 25 0 c23 0 25 4 25 43 l0 42 43 -3
c35 -3 50 1 73 21 26 23 29 31 29 86 0 92 -39 118 -157 104z m94 -50 c23 -21
24 -85 2 -108 -10 -10 -29 -15 -48 -13 -30 3 -31 5 -34 57 -2 29 -1 60 2 67 7
19 56 17 78 -3z"/>
</g>
</svg>
