<?xml version="1.0" encoding="iso-8859-1"?>
<!-- Uploaded to: SVG Repo, www.svgrepo.com, Generator: SVG Repo Mixer Tools -->
<svg height="800px" width="800px" version="1.1" id="Layer_1" xmlns="http://www.w3.org/2000/svg" xmlns:xlink="http://www.w3.org/1999/xlink" 
	 viewBox="0 0 512 512" xml:space="preserve">
<path style="fill:#BDDEFF;" d="M446.02,347.622L298.31,48.924c-3.289-6.654-10.733-10.164-17.956-8.476
	c-7.228,1.689-12.34,8.134-12.34,15.556v298.699c0,8.823,7.153,15.976,15.976,15.976h147.709c5.525,0,10.657-2.854,13.571-7.547
	S448.468,352.574,446.02,347.622z"/>
<path style="fill:#D7EBFF;" d="M275.293,40.426c-7.274-1.651-14.727,1.953-17.948,8.685L124.468,326.84
	c-2.369,4.949-2.03,10.769,0.896,15.412c2.925,4.643,8.029,7.459,13.516,7.459h132.878c8.823,0,15.976-7.153,15.976-15.976V56.005
	C287.733,48.544,282.569,42.076,275.293,40.426z"/>
<path style="fill:#7A4126;" d="M283.99,420.404c-8.823,0-15.976-7.153-15.976-15.976V15.976C268.014,7.153,275.167,0,283.99,0
	c8.823,0,15.976,7.153,15.976,15.976v388.451C299.966,413.251,292.813,420.404,283.99,420.404z"/>
<path style="fill:#995D3D;" d="M283.99,420.404c-8.823,0-15.976-7.153-15.976-15.976V15.976C268.014,7.153,275.167,0,283.99,0
	V420.404z"/>
<path style="fill:#7A4126;" d="M215.969,399.858H75.697c-8.823,0-15.976-7.153-15.976-15.976s7.153-15.976,15.976-15.976h140.272
	c8.823,0,15.976,7.153,15.976,15.976S224.792,399.858,215.969,399.858z"/>
<path style="fill:#995D3D;" d="M145.833,399.858H75.697c-8.823,0-15.976-7.153-15.976-15.976s7.153-15.976,15.976-15.976h70.136
	V399.858z"/>
<path style="fill:#34B2D9;" d="M452.506,388.451H59.494c-8.823,0-15.976,7.153-15.976,15.976C43.518,463.743,91.775,512,151.09,512
	H360.91c59.315,0,107.572-48.257,107.572-107.572C468.482,395.604,461.329,388.451,452.506,388.451z"/>
<path style="fill:#A2B3BF;" d="M189.227,466.202h-18.338c-8.823,0-15.976-7.153-15.976-15.976c0-8.823,7.153-15.976,15.976-15.976
	h18.338c8.823,0,15.976,7.153,15.976,15.976C205.203,459.049,198.05,466.202,189.227,466.202z"/>
<path style="fill:#C9D2D9;" d="M180.058,466.202h-9.169c-8.823,0-15.976-7.153-15.976-15.976c0-8.823,7.153-15.976,15.976-15.976
	h9.169V466.202z"/>
<path style="fill:#A2B3BF;" d="M262.282,466.202h-18.338c-8.823,0-15.976-7.153-15.976-15.976c0-8.823,7.153-15.976,15.976-15.976
	h18.338c8.823,0,15.976,7.153,15.976,15.976C278.258,459.049,271.105,466.202,262.282,466.202z"/>
<path style="fill:#C9D2D9;" d="M253.113,466.202h-9.169c-8.823,0-15.976-7.153-15.976-15.976c0-8.823,7.153-15.976,15.976-15.976
	h9.169V466.202z"/>
<path style="fill:#A2B3BF;" d="M335.337,466.202h-18.338c-8.823,0-15.976-7.153-15.976-15.976c0-8.823,7.153-15.976,15.976-15.976
	h18.338c8.823,0,15.976,7.153,15.976,15.976C351.313,459.049,344.16,466.202,335.337,466.202z"/>
<path style="fill:#C9D2D9;" d="M326.168,466.202h-9.169c-8.823,0-15.976-7.153-15.976-15.976c0-8.823,7.153-15.976,15.976-15.976
	h9.169V466.202z"/>
</svg>