<?xml version="1.0" encoding="UTF-8"?>
<!DOCTYPE svg PUBLIC "-//W3C//DTD SVG 1.1//EN" "http://www.w3.org/Graphics/SVG/1.1/DTD/svg11.dtd">
<svg xmlns="http://www.w3.org/2000/svg" version="1.1" width="512px" height="512px" style="shape-rendering:geometricPrecision; text-rendering:geometricPrecision; image-rendering:optimizeQuality; fill-rule:evenodd; clip-rule:evenodd" xmlns:xlink="http://www.w3.org/1999/xlink">
<g><path style="opacity:0.978" fill="#000000" d="M 415.5,-0.5 C 438.833,-0.5 462.167,-0.5 485.5,-0.5C 488.342,1.84425 490.175,4.84425 491,8.5C 491.667,133.5 491.667,258.5 491,383.5C 488.844,429.613 467.344,463.113 426.5,484C 416.234,488.422 405.567,491.422 394.5,493C 369.493,493.167 344.493,493.667 319.5,494.5C 313.585,503.123 305.585,508.79 295.5,511.5C 269.167,511.5 242.833,511.5 216.5,511.5C 206.175,508.658 197.842,502.825 191.5,494C 170.833,493.667 150.167,493.333 129.5,493C 126.619,491.749 124.786,489.583 124,486.5C 123.333,464.5 123.333,442.5 124,420.5C 124.69,417.804 126.19,415.637 128.5,414C 148.769,412.702 169.102,412.035 189.5,412C 195.183,401.979 203.517,395.313 214.5,392C 228.289,390.879 242.123,390.379 256,390.5C 268.167,390.667 280.333,390.833 292.5,391C 305.377,393.389 315.044,400.223 321.5,411.5C 330.667,411.833 339.833,412.167 349,412.5C 359.556,412.618 370.056,412.118 380.5,411C 395.946,405.887 405.446,395.387 409,379.5C 409.833,365.821 409.666,352.154 408.5,338.5C 349.748,359.061 298.748,347.061 255.5,302.5C 211.61,347.553 159.943,359.386 100.5,338C 49.7718,313.24 22.7718,272.573 19.5,216C 21.9775,158.679 48.9775,117.679 100.5,93C 112.974,87.6314 125.974,84.298 139.5,83C 216.833,82.3333 294.167,82.3333 371.5,83C 384.516,84.2122 397.016,87.3789 409,92.5C 409.333,63.8333 409.667,35.1667 410,6.5C 410.967,3.37935 412.8,1.04602 415.5,-0.5 Z M 430.5,19.5 C 443.5,19.5 456.5,19.5 469.5,19.5C 469.667,60.168 469.5,100.835 469,141.5C 458.333,126.833 445.667,114.167 431,103.5C 430.5,75.502 430.333,47.502 430.5,19.5 Z M 143.5,151.5 C 218.167,151.333 292.834,151.5 367.5,152C 398.217,157.717 416.717,175.884 423,206.5C 425.447,237.45 412.947,259.95 385.5,274C 372.056,280.163 358.389,280.83 344.5,276C 326.086,266.24 308.753,254.907 292.5,242C 266.423,227.535 240.756,228.202 215.5,244C 200.517,256.634 184.184,267.3 166.5,276C 137.367,282.954 114.2,274.12 97,249.5C 80.9944,218.874 85.161,191.374 109.5,167C 119.551,158.825 130.884,153.658 143.5,151.5 Z M 468.5,288.5 C 469.498,312.994 469.831,337.661 469.5,362.5C 456.5,362.5 443.5,362.5 430.5,362.5C 430.168,350.482 430.501,338.482 431.5,326.5C 446.588,316.413 458.921,303.747 468.5,288.5 Z M 221.5,411.5 C 244.169,411.333 266.836,411.5 289.5,412C 297.556,413.722 302.723,418.556 305,426.5C 305.667,442.833 305.667,459.167 305,475.5C 302.163,484.672 295.996,489.839 286.5,491C 266.167,491.667 245.833,491.667 225.5,491C 213.667,489.833 207.167,483.333 206,471.5C 205.333,458.167 205.333,444.833 206,431.5C 206.893,421.449 212.06,414.782 221.5,411.5 Z M 403.5,423.5 C 413.965,433.465 424.298,443.631 434.5,454C 419.817,465.396 403.15,471.563 384.5,472.5C 384.5,458.833 384.5,445.167 384.5,431.5C 391.467,430.179 397.8,427.512 403.5,423.5 Z"/></g>
<g><path style="opacity:0.933" fill="#000000" d="M 233.5,440.5 C 248.504,440.333 263.504,440.5 278.5,441C 286.549,444.815 288.382,450.648 284,458.5C 283.097,459.701 281.931,460.535 280.5,461C 264.167,461.667 247.833,461.667 231.5,461C 227.198,459.065 225.198,455.732 225.5,451C 225.739,445.6 228.406,442.1 233.5,440.5 Z"/></g>
</svg>
