<svg xmlns="http://www.w3.org/2000/svg" width="512" height="512" viewBox="0 0 512 512" version="1.1"><path d="" stroke="none" fill="#080404" fill-rule="evenodd"/><path d="M 414.127 2.096 C 412.890 3.249, 411.455 5.303, 410.939 6.661 C 410.408 8.058, 410 27.393, 410 51.172 C 410 90.806, 409.900 93.175, 408.250 92.529 C 402.756 90.378, 391.518 86.921, 385 85.375 C 378.083 83.735, 368.481 83.570, 261.500 83.252 C 139.302 82.889, 137.089 82.955, 119.657 87.484 C 69.715 100.461, 30.787 143.159, 22.548 194 C 20.566 206.230, 20.565 227.237, 22.546 238.619 C 31.340 289.149, 69.734 331.140, 119.292 344.430 C 149.873 352.630, 182.021 349.690, 210.593 336.080 C 224.273 329.564, 234.742 322.303, 245.598 311.801 C 250.602 306.961, 255.283 303, 256 303 C 256.717 303, 261.398 306.961, 266.402 311.801 C 302.264 346.493, 354.444 357.952, 401.925 341.563 C 406.009 340.153, 409.527 339, 409.744 339 C 409.960 339, 409.994 349.013, 409.819 361.250 L 409.500 383.500 406.418 390.003 C 402.470 398.333, 395.333 405.470, 387.003 409.418 L 380.500 412.500 351.500 412.769 L 322.500 413.038 319.500 408.397 C 315.803 402.678, 306.747 395.770, 299.748 393.330 C 295.014 391.679, 290.728 391.500, 256 391.500 C 217.982 391.500, 217.428 391.529, 211.718 393.834 C 204.236 396.854, 198.457 401.309, 193.609 407.795 L 189.719 413 161.827 413 C 130.092 413, 127.994 413.376, 125.425 419.525 C 124.170 422.529, 123.970 428.496, 124.211 455.645 L 124.500 488.166 127.766 491.083 L 131.032 494 161.188 494 L 191.345 494 196.845 499.633 C 200.343 503.216, 204.739 506.401, 208.922 508.383 L 215.500 511.500 256.521 511.500 L 297.542 511.500 304.193 508.226 C 308.518 506.097, 312.573 503.060, 315.789 499.540 L 320.735 494.128 359.618 493.767 C 398.013 493.411, 398.623 493.373, 408.277 490.754 C 438.982 482.424, 464.273 462.254, 478.588 434.679 C 481.107 429.828, 484.249 422.677, 485.572 418.789 C 491.261 402.061, 491 412.556, 491 200.813 L 491 5.846 488.077 2.923 L 485.154 0 450.765 -0 C 417.234 -0, 416.321 0.052, 414.127 2.096 M 431.029 62.250 L 431.058 104.500 437.257 109 C 448.440 117.118, 461.083 130.190, 469.198 142.024 C 470.803 144.365, 470.898 141.118, 470.948 82.250 L 471 20 451 20 L 431 20 431.029 62.250 M 131.785 105.966 C 111.946 110.177, 98.037 116.821, 81.953 129.769 C 44.262 160.111, 31.205 214.157, 50.494 259.985 C 58.144 278.160, 74.170 297.571, 90.915 308.942 C 100.073 315.162, 114.469 321.701, 125.723 324.754 C 134.677 327.183, 137.058 327.404, 154 327.378 C 169.806 327.355, 173.642 327.036, 180.344 325.192 C 201.433 319.389, 216.575 310.763, 233.409 294.963 C 245.008 284.076, 248.664 282, 256.240 282 C 263.330 282, 267.830 284.621, 278.980 295.244 C 295.132 310.633, 310.502 319.371, 331.656 325.192 C 338.358 327.036, 342.194 327.355, 358 327.378 C 374.942 327.404, 377.323 327.183, 386.277 324.754 C 415.657 316.784, 440.247 297.832, 456.019 271 C 457.798 267.975, 460.570 262.214, 462.180 258.198 C 481.284 210.556, 466.459 157.183, 425.500 126.139 C 416.031 118.963, 398.653 110.536, 386.500 107.227 L 376.500 104.504 258.500 104.311 C 147.079 104.127, 140.014 104.220, 131.785 105.966 M 136.734 132.569 C 109.838 137.481, 87.406 154.636, 75.564 179.347 C 69.103 192.829, 67.545 199.952, 67.545 216 C 67.545 232.021, 69.104 239.172, 75.516 252.555 C 87.672 277.925, 110.011 294.693, 138.192 299.601 C 162.698 303.869, 180.747 296.873, 220.152 267.830 C 232.772 258.529, 238.972 255.509, 248.750 253.900 C 257.865 252.400, 267.882 253.844, 276.500 257.900 C 279.800 259.453, 287.795 264.626, 294.266 269.395 C 331.766 297.031, 349.625 303.813, 373.808 299.601 C 401.989 294.693, 424.328 277.925, 436.484 252.555 C 442.896 239.172, 444.455 232.021, 444.455 216 C 444.455 199.580, 442.869 192.605, 435.930 178.500 C 424.981 156.247, 406.100 140.746, 381.446 133.770 L 373.500 131.522 259 131.336 C 163.873 131.182, 143.186 131.391, 136.734 132.569 M 136.216 154.019 C 124.462 157.098, 115.579 162.303, 106.478 171.443 C 93.800 184.176, 88.030 198.112, 88.030 216 C 88.030 233.860, 93.788 247.783, 106.478 260.607 C 115.822 270.050, 126.569 276.001, 139 278.615 C 158.347 282.683, 171.329 277.698, 204.559 253.440 C 224.424 238.939, 232.554 235.115, 248.030 232.996 C 261.426 231.162, 277.809 234.356, 289.681 241.117 C 292.530 242.740, 300.148 247.946, 306.611 252.687 C 340.711 277.703, 353.529 282.709, 373 278.615 C 396.880 273.594, 416.984 254.233, 422.443 231 C 423.283 227.425, 423.970 220.675, 423.970 216 C 423.970 198.112, 418.200 184.176, 405.522 171.443 C 396.295 162.177, 387.476 157.063, 375.391 153.972 C 367.935 152.065, 363.974 152.002, 255.590 152.055 C 148.601 152.108, 143.169 152.197, 136.216 154.019 M 466 293.749 C 460.562 301.830, 445.795 316.834, 437.237 322.976 L 431 327.452 431 345.226 L 431 363 451 363 L 471 363 471 325 C 471 304.100, 470.887 287.014, 470.750 287.032 C 470.613 287.049, 468.475 290.072, 466 293.749 M 429.012 388.949 C 428.359 391.670, 426.042 397.384, 423.863 401.645 L 419.901 409.393 435.375 424.867 L 450.850 440.342 455.938 432.421 C 464.045 419.799, 468.871 405.486, 470.324 389.750 L 470.855 384 450.527 384 L 430.199 384 429.012 388.949 M 219.914 412.956 C 215.378 414.330, 211.993 417.156, 209.209 421.892 C 206.511 426.482, 206.499 426.591, 206.169 449.214 C 205.775 476.168, 206.575 480.576, 212.890 486.282 C 218.943 491.750, 222.854 492.216, 259.500 491.834 C 290.528 491.510, 291.629 491.431, 295.749 489.230 C 298.086 487.982, 301.236 485.091, 302.749 482.806 L 305.500 478.652 305.797 452.878 C 306.073 428.957, 305.954 426.832, 304.144 423.302 C 301.693 418.523, 298.508 415.528, 293.768 413.548 C 290.658 412.248, 284.650 412.014, 256.282 412.086 C 237.702 412.133, 221.336 412.525, 219.914 412.956 M 400.500 425.999 C 398.850 427.092, 394.688 428.997, 391.250 430.234 L 385 432.482 385 452.741 L 385 473 388.435 473 C 400.450 473, 419.120 466.059, 434 456.061 C 435.215 455.244, 432.561 452.107, 420.012 439.527 C 411.494 430.987, 404.294 424.003, 404.012 424.007 C 403.730 424.010, 402.150 424.907, 400.500 425.999 M 145 454 L 145 474 165.500 474 L 186 474 186 454 L 186 434 165.500 434 L 145 434 145 454 M 327 454 L 327 474 345.500 474 L 364 474 364 454 L 364 434 345.500 434 L 327 434 327 454 M 232.378 442.437 C 224.177 446.006, 223.770 456.835, 231.684 460.883 C 233.106 461.610, 241.912 462, 256.918 462 L 279.968 462 283.019 459.250 C 289.219 453.661, 287.184 444.256, 279.302 442.067 C 273.512 440.459, 236.248 440.753, 232.378 442.437" stroke="none" fill="#040404" fill-rule="evenodd"/></svg>