<?xml version="1.0" encoding="UTF-8"?>
<svg xmlns="http://www.w3.org/2000/svg" xmlns:xlink="http://www.w3.org/1999/xlink" width="272.95pt" height="110.87pt" viewBox="0 0 272.95 110.87" version="1.1">
<g id="surface1">
<path style=" stroke:none;fill-rule:nonzero;fill:rgb(13.729858%,12.159729%,12.548828%);fill-opacity:1;" d="M 48.519531 25.015625 C 31.675781 25.015625 24.699219 30.667969 24.699219 30.667969 L 24.699219 56 C 24.699219 70.027344 43.253906 84.585938 48.519531 86.03125 C 53.777344 84.585938 72.332031 70.027344 72.332031 56 L 72.332031 30.667969 C 72.332031 30.667969 65.359375 25.015625 48.519531 25.015625 "/>
<path style=" stroke:none;fill-rule:nonzero;fill:rgb(98.728943%,79.798889%,2.540588%);fill-opacity:1;" d="M 45.609375 56.378906 C 45.71875 56.515625 45.792969 56.679688 45.792969 56.867188 C 45.792969 57.324219 45.414062 57.691406 44.953125 57.691406 C 44.484375 57.691406 44.105469 57.324219 44.105469 56.867188 C 44.105469 56.625 44.21875 56.414062 44.390625 56.261719 C 43.722656 56.140625 43.03125 55.804688 43.03125 55.804688 C 43.1875 56.28125 43.535156 58.121094 44.742188 58.25 C 46.234375 58.417969 46.621094 57.035156 46.621094 57.035156 C 46.621094 57.035156 46.371094 56.59375 45.609375 56.378906 "/>
<path style=" stroke:none;fill-rule:nonzero;fill:rgb(98.728943%,79.798889%,2.540588%);fill-opacity:1;" d="M 52.734375 56.261719 C 52.90625 56.414062 53.019531 56.625 53.019531 56.867188 C 53.019531 57.324219 52.640625 57.691406 52.171875 57.691406 C 51.710938 57.691406 51.332031 57.324219 51.332031 56.867188 C 51.332031 56.679688 51.40625 56.515625 51.515625 56.378906 C 50.75 56.59375 50.503906 57.035156 50.503906 57.035156 C 50.503906 57.035156 50.886719 58.417969 52.382812 58.25 C 53.589844 58.121094 53.9375 56.28125 54.089844 55.804688 C 54.089844 55.804688 53.402344 56.140625 52.734375 56.261719 "/>
<path style=" stroke:none;fill-rule:nonzero;fill:rgb(98.728943%,79.798889%,2.540588%);fill-opacity:1;" d="M 54.140625 51.996094 C 53.652344 51.589844 53.011719 52.097656 53.496094 52.644531 C 53.898438 53.101562 54.164062 53.394531 53.988281 53.726562 C 53.75 54.175781 51.476562 54.066406 48.5625 55.164062 C 45.648438 54.066406 43.375 54.175781 43.136719 53.726562 C 42.960938 53.394531 43.226562 53.101562 43.628906 52.644531 C 44.113281 52.097656 43.472656 51.589844 42.984375 51.996094 C 42.574219 52.332031 41.820312 53.371094 42.09375 54.066406 C 42.515625 55.175781 45.113281 54.828125 48.554688 56.253906 L 48.554688 56.257812 C 48.558594 56.257812 48.558594 56.257812 48.5625 56.257812 C 48.566406 56.257812 48.566406 56.257812 48.570312 56.257812 L 48.570312 56.253906 C 52.015625 54.828125 54.609375 55.175781 55.035156 54.066406 C 55.300781 53.371094 54.550781 52.332031 54.140625 51.996094 "/>
<path style=" stroke:none;fill-rule:nonzero;fill:rgb(98.728943%,79.798889%,2.540588%);fill-opacity:1;" d="M 51.074219 66.46875 C 50.628906 66.292969 49.828125 65.832031 49.605469 65.023438 C 49.402344 64.285156 49.6875 63.777344 50.019531 63.699219 C 50.332031 63.621094 50.671875 63.832031 50.535156 64.214844 C 50.4375 64.503906 50.128906 64.652344 50.015625 64.722656 C 49.828125 64.835938 49.988281 65.085938 50.226562 65.039062 C 50.753906 64.9375 51.058594 64.363281 51.035156 63.960938 C 51.011719 63.332031 50.296875 63.183594 49.902344 63.257812 C 49.285156 63.378906 48.839844 63.988281 49.09375 65.039062 C 49.332031 66.035156 50.214844 66.574219 50.675781 66.785156 C 50.273438 66.953125 49.402344 67.089844 48.5625 67.140625 C 47.722656 67.089844 46.851562 66.953125 46.449219 66.785156 C 46.910156 66.574219 47.792969 66.035156 48.03125 65.039062 C 48.285156 63.988281 47.839844 63.378906 47.222656 63.257812 C 46.828125 63.183594 46.113281 63.332031 46.089844 63.960938 C 46.070312 64.363281 46.375 64.9375 46.898438 65.039062 C 47.136719 65.085938 47.296875 64.835938 47.109375 64.722656 C 46.996094 64.652344 46.6875 64.503906 46.589844 64.214844 C 46.453125 63.832031 46.789062 63.621094 47.105469 63.699219 C 47.4375 63.777344 47.722656 64.285156 47.523438 65.023438 C 47.296875 65.832031 46.496094 66.292969 46.050781 66.46875 C 45.671875 66.621094 45.613281 67.007812 45.851562 67.144531 C 46.640625 67.59375 47.792969 67.695312 48.507812 67.703125 L 48.507812 67.707031 C 48.523438 67.707031 48.542969 67.703125 48.5625 67.703125 C 48.582031 67.703125 48.601562 67.707031 48.621094 67.707031 L 48.621094 67.703125 C 49.332031 67.695312 50.484375 67.59375 51.273438 67.144531 C 51.511719 67.007812 51.453125 66.621094 51.074219 66.46875 "/>
<path style=" stroke:none;fill-rule:nonzero;fill:rgb(98.728943%,79.798889%,2.540588%);fill-opacity:1;" d="M 48.578125 33.035156 C 48.789062 33.003906 49.03125 32.941406 49.234375 32.800781 C 49.265625 32.773438 49.292969 32.75 49.328125 32.726562 C 49.550781 32.515625 50.007812 31.886719 50.144531 31.613281 C 50.175781 31.5625 50.175781 31.507812 50.144531 31.4375 C 50.085938 31.296875 49.933594 31.164062 49.890625 31.152344 C 49.6875 31.082031 47.460938 31.078125 47.25 31.148438 C 47.25 31.148438 47.242188 31.152344 47.214844 31.164062 C 47.117188 31.234375 46.921875 31.441406 46.992188 31.597656 C 47.121094 31.859375 47.609375 32.511719 47.835938 32.71875 C 48.050781 32.914062 48.332031 32.992188 48.578125 33.035156 "/>
<path style=" stroke:none;fill-rule:nonzero;fill:rgb(98.728943%,79.798889%,2.540588%);fill-opacity:1;" d="M 46.875 34.097656 C 46.898438 33.898438 46.910156 33.65625 46.839844 33.425781 C 46.832031 33.390625 46.816406 33.359375 46.796875 33.316406 C 46.660156 33.046875 46.175781 32.453125 45.949219 32.238281 C 45.902344 32.199219 45.84375 32.183594 45.773438 32.183594 C 45.613281 32.199219 45.441406 32.300781 45.410156 32.332031 C 45.28125 32.5 44.585938 34.539062 44.589844 34.746094 C 44.589844 34.746094 44.589844 34.761719 44.601562 34.789062 C 44.636719 34.902344 44.78125 35.144531 44.960938 35.121094 C 45.253906 35.089844 46.058594 34.832031 46.332031 34.683594 C 46.585938 34.550781 46.75 34.316406 46.875 34.097656 "/>
<path style=" stroke:none;fill-rule:nonzero;fill:rgb(98.728943%,79.798889%,2.540588%);fill-opacity:1;" d="M 47.390625 35.992188 C 47.195312 35.90625 46.964844 35.816406 46.722656 35.816406 C 46.679688 35.816406 46.640625 35.816406 46.601562 35.824219 C 46.285156 35.863281 45.542969 36.140625 45.261719 36.289062 C 45.210938 36.316406 45.175781 36.363281 45.160156 36.429688 C 45.121094 36.574219 45.164062 36.765625 45.1875 36.804688 C 45.320312 36.976562 47.109375 38.238281 47.320312 38.304688 C 47.320312 38.304688 47.328125 38.304688 47.359375 38.304688 C 47.480469 38.304688 47.773438 38.246094 47.808594 38.082031 C 47.863281 37.800781 47.863281 36.972656 47.800781 36.671875 C 47.75 36.398438 47.5625 36.175781 47.390625 35.992188 "/>
<path style=" stroke:none;fill-rule:nonzero;fill:rgb(98.728943%,79.798889%,2.540588%);fill-opacity:1;" d="M 49.425781 36.101562 C 49.273438 36.25 49.113281 36.433594 49.039062 36.664062 C 49.023438 36.703125 49.015625 36.738281 49.007812 36.78125 C 48.949219 37.078125 48.988281 37.855469 49.039062 38.160156 C 49.054688 38.214844 49.09375 38.261719 49.148438 38.304688 C 49.289062 38.386719 49.488281 38.394531 49.53125 38.386719 C 49.746094 38.324219 51.542969 37.070312 51.667969 36.890625 C 51.667969 36.890625 51.679688 36.886719 51.683594 36.863281 C 51.726562 36.746094 51.757812 36.464844 51.601562 36.386719 C 51.34375 36.242188 50.527344 35.980469 50.21875 35.9375 C 49.925781 35.898438 49.65625 36 49.425781 36.101562 "/>
<path style=" stroke:none;fill-rule:nonzero;fill:rgb(98.728943%,79.798889%,2.540588%);fill-opacity:1;" d="M 50.15625 34.277344 C 50.261719 34.460938 50.390625 34.660156 50.59375 34.800781 C 50.621094 34.820312 50.652344 34.84375 50.695312 34.859375 C 50.972656 35.003906 51.75 35.230469 52.058594 35.273438 C 52.121094 35.285156 52.175781 35.261719 52.234375 35.214844 C 52.359375 35.121094 52.433594 34.941406 52.4375 34.898438 C 52.441406 34.683594 51.761719 32.648438 51.632812 32.476562 C 51.632812 32.476562 51.621094 32.464844 51.601562 32.453125 C 51.496094 32.375 51.226562 32.261719 51.105469 32.378906 C 50.882812 32.574219 50.375 33.222656 50.242188 33.496094 C 50.109375 33.746094 50.128906 34.03125 50.15625 34.277344 "/>
<path style=" stroke:none;fill-rule:nonzero;fill:rgb(98.728943%,79.798889%,2.540588%);fill-opacity:1;" d="M 49.113281 34.929688 C 48.980469 34.894531 48.910156 34.757812 48.949219 34.628906 C 48.996094 34.503906 49.132812 34.433594 49.261719 34.480469 C 49.390625 34.519531 49.464844 34.652344 49.417969 34.777344 C 49.378906 34.902344 49.238281 34.964844 49.113281 34.929688 Z M 48.597656 34.195312 C 48.484375 34.121094 48.460938 33.972656 48.542969 33.863281 C 48.621094 33.753906 48.773438 33.734375 48.886719 33.808594 C 48.996094 33.890625 49.015625 34.039062 48.9375 34.140625 C 48.859375 34.25 48.703125 34.273438 48.597656 34.195312 Z M 48.628906 35.566406 C 48.492188 35.566406 48.386719 35.460938 48.386719 35.328125 C 48.386719 35.199219 48.492188 35.089844 48.628906 35.089844 C 48.765625 35.089844 48.875 35.199219 48.875 35.328125 C 48.875 35.460938 48.765625 35.566406 48.628906 35.566406 Z M 48.058594 34.390625 C 47.941406 34.46875 47.789062 34.441406 47.710938 34.332031 C 47.628906 34.226562 47.65625 34.078125 47.761719 34.003906 C 47.875 33.921875 48.023438 33.949219 48.105469 34.058594 C 48.1875 34.160156 48.164062 34.308594 48.058594 34.390625 Z M 47.917969 35.238281 C 47.789062 35.28125 47.648438 35.214844 47.609375 35.089844 C 47.570312 34.964844 47.636719 34.832031 47.761719 34.789062 C 47.898438 34.75 48.039062 34.8125 48.070312 34.9375 C 48.121094 35.066406 48.046875 35.199219 47.917969 35.238281 Z M 49.804688 34.441406 C 49.75 34.335938 49.660156 34.25 49.558594 34.183594 C 49.570312 34.109375 49.578125 34.03125 49.566406 33.953125 C 49.535156 33.765625 49.433594 33.605469 49.273438 33.488281 C 49.011719 33.304688 48.648438 33.332031 48.398438 33.511719 C 48.152344 33.398438 47.847656 33.402344 47.621094 33.558594 C 47.464844 33.667969 47.355469 33.832031 47.332031 34.023438 C 47.308594 34.144531 47.332031 34.257812 47.371094 34.367188 C 47.3125 34.421875 47.261719 34.476562 47.222656 34.546875 C 47.132812 34.71875 47.121094 34.910156 47.179688 35.089844 C 47.277344 35.386719 47.5625 35.582031 47.882812 35.582031 C 47.886719 35.582031 47.894531 35.582031 47.902344 35.582031 C 48.023438 35.808594 48.265625 35.972656 48.554688 35.972656 C 48.886719 35.972656 49.160156 35.753906 49.253906 35.460938 C 49.527344 35.421875 49.761719 35.242188 49.847656 34.984375 C 49.914062 34.800781 49.890625 34.613281 49.804688 34.441406 "/>
<path style=" stroke:none;fill-rule:nonzero;fill:rgb(98.728943%,79.798889%,2.540588%);fill-opacity:1;" d="M 35.382812 31.902344 C 34.695312 31.257812 34.3125 31.113281 34.113281 31.113281 C 34 31.113281 33.859375 31.152344 33.625 31.40625 C 33.5625 31.464844 33.503906 31.53125 33.445312 31.597656 C 33.121094 31.96875 32.71875 32.445312 32.007812 32.445312 C 31.746094 32.445312 31.46875 32.371094 31.167969 32.230469 L 31.167969 37.648438 C 31.441406 38.117188 31.71875 38.386719 31.949219 38.386719 C 32.078125 38.386719 32.300781 38.3125 32.640625 37.949219 C 33.4375 37.09375 34.402344 36.9375 35.382812 37.511719 L 35.382812 31.902344 "/>
<path style=" stroke:none;fill-rule:nonzero;fill:rgb(98.728943%,79.798889%,2.540588%);fill-opacity:1;" d="M 39.6875 32.445312 C 38.984375 32.445312 38.574219 31.96875 38.253906 31.597656 C 38.195312 31.53125 38.132812 31.464844 38.078125 31.40625 C 37.84375 31.152344 37.699219 31.113281 37.585938 31.113281 C 37.382812 31.113281 37.003906 31.257812 36.320312 31.902344 L 36.320312 37.511719 C 36.703125 37.285156 37.082031 37.171875 37.464844 37.171875 C 38.042969 37.171875 38.574219 37.429688 39.0625 37.949219 C 39.398438 38.3125 39.621094 38.386719 39.746094 38.386719 C 39.984375 38.386719 40.257812 38.117188 40.527344 37.648438 L 40.527344 32.230469 C 40.226562 32.371094 39.949219 32.445312 39.6875 32.445312 "/>
<path style=" stroke:none;fill-rule:nonzero;fill:rgb(98.728943%,79.798889%,2.540588%);fill-opacity:1;" d="M 61.683594 37.511719 C 62.664062 36.9375 63.628906 37.09375 64.429688 37.949219 C 64.769531 38.3125 64.988281 38.386719 65.117188 38.386719 C 65.351562 38.386719 65.625 38.117188 65.898438 37.648438 L 65.898438 32.230469 C 65.601562 32.371094 65.320312 32.445312 65.058594 32.445312 C 64.351562 32.445312 63.949219 31.96875 63.621094 31.597656 C 63.5625 31.53125 63.503906 31.464844 63.445312 31.40625 C 63.210938 31.152344 63.070312 31.113281 62.957031 31.113281 C 62.757812 31.113281 62.371094 31.257812 61.683594 31.902344 L 61.683594 37.511719 "/>
<path style=" stroke:none;fill-rule:nonzero;fill:rgb(98.728943%,79.798889%,2.540588%);fill-opacity:1;" d="M 57.378906 32.445312 C 57.117188 32.445312 56.839844 32.371094 56.539062 32.230469 L 56.539062 37.648438 C 56.8125 38.117188 57.085938 38.386719 57.320312 38.386719 C 57.449219 38.386719 57.671875 38.3125 58.007812 37.949219 C 58.496094 37.429688 59.027344 37.171875 59.601562 37.171875 C 59.984375 37.171875 60.367188 37.285156 60.75 37.511719 L 60.75 31.902344 C 60.066406 31.257812 59.683594 31.113281 59.480469 31.113281 C 59.371094 31.113281 59.226562 31.152344 58.992188 31.40625 C 58.933594 31.464844 58.875 31.53125 58.816406 31.597656 C 58.496094 31.96875 58.082031 32.445312 57.378906 32.445312 "/>
<path style=" stroke:none;fill-rule:nonzero;fill:rgb(98.728943%,79.798889%,2.540588%);fill-opacity:1;" d="M 42.980469 48.929688 C 41.234375 48.320312 37.667969 46.558594 36.160156 42.363281 C 35.773438 41.277344 35.203125 41.4375 35.308594 42.589844 C 35.589844 45.613281 37.503906 49.285156 41.523438 50.953125 C 43.246094 51.667969 44.210938 49.355469 42.980469 48.929688 "/>
<path style=" stroke:none;fill-rule:nonzero;fill:rgb(98.728943%,79.798889%,2.540588%);fill-opacity:1;" d="M 54.144531 48.929688 C 55.890625 48.320312 59.457031 46.558594 60.964844 42.363281 C 61.355469 41.277344 61.921875 41.4375 61.816406 42.589844 C 61.535156 45.613281 59.621094 49.285156 55.601562 50.953125 C 53.878906 51.667969 52.914062 49.355469 54.144531 48.929688 "/>
<path style=" stroke:none;fill-rule:nonzero;fill:rgb(98.728943%,79.798889%,2.540588%);fill-opacity:1;" d="M 53.054688 48.078125 C 53.292969 48.027344 53.632812 47.9375 54.019531 47.8125 C 55.097656 47.40625 57.015625 46.433594 58.484375 44.492188 C 55.105469 43.832031 51.660156 43.476562 48.574219 43.476562 C 45.464844 43.476562 42 43.839844 38.597656 44.511719 C 40.132812 46.527344 42.144531 47.492188 43.1875 47.863281 C 43.515625 47.960938 43.808594 48.035156 44.011719 48.078125 C 44.496094 48.179688 44.988281 48.257812 45.59375 47.753906 C 46.199219 47.25 46.3125 46.945312 48.535156 46.945312 C 50.757812 46.945312 50.867188 47.25 51.472656 47.753906 C 52.078125 48.257812 52.570312 48.179688 53.054688 48.078125 "/>
<path style=" stroke:none;fill-rule:nonzero;fill:rgb(98.728943%,79.798889%,2.540588%);fill-opacity:1;" d="M 64.652344 53.5 L 59.683594 61.695312 C 61.558594 60.847656 64.359375 58.714844 64.652344 53.5 "/>
<path style=" stroke:none;fill-rule:nonzero;fill:rgb(98.728943%,79.798889%,2.540588%);fill-opacity:1;" d="M 37.382812 61.695312 L 32.417969 53.5 C 32.707031 58.714844 35.511719 60.847656 37.382812 61.695312 "/>
<path style=" stroke:none;fill-rule:nonzero;fill:rgb(98.728943%,79.798889%,2.540588%);fill-opacity:1;" d="M 63.355469 67.988281 C 62.398438 68.753906 61.652344 69.28125 61.054688 69.703125 C 59.742188 70.625 59.234375 71.039062 59.292969 71.726562 L 59.523438 74.675781 L 57.800781 73.875 C 56.441406 73.273438 55.808594 72.457031 55.691406 71.136719 C 55.503906 69.09375 56.765625 66.96875 59.066406 65.4375 C 59.613281 65.082031 60.097656 64.824219 60.492188 64.628906 C 60.878906 64.429688 61.238281 64.222656 61.273438 64.117188 C 61.347656 63.890625 60.914062 63.519531 59.648438 62.957031 C 59.523438 62.898438 59.285156 62.796875 59.070312 62.707031 L 48.535156 80.089844 L 38 62.707031 C 37.78125 62.796875 37.546875 62.898438 37.417969 62.957031 C 36.15625 63.519531 35.722656 63.890625 35.796875 64.117188 C 35.832031 64.222656 36.191406 64.429688 36.578125 64.628906 C 36.96875 64.824219 37.457031 65.082031 38 65.4375 C 40.300781 66.96875 41.5625 69.09375 41.378906 71.136719 C 41.261719 72.457031 40.625 73.273438 39.269531 73.875 L 37.546875 74.675781 L 37.777344 71.726562 C 37.832031 71.039062 37.328125 70.625 36.015625 69.703125 C 35.414062 69.28125 34.667969 68.753906 33.714844 67.988281 C 27.816406 63.25 27.625 57.277344 29.347656 54.734375 C 29.921875 53.898438 31.542969 52.082031 31.554688 52.074219 L 31.28125 51.652344 C 30.6875 51.59375 30.222656 51.101562 30.222656 50.492188 C 30.222656 49.847656 30.746094 49.320312 31.394531 49.320312 C 32.039062 49.320312 32.566406 49.847656 32.566406 50.492188 C 32.566406 50.617188 32.539062 50.738281 32.503906 50.851562 C 32.515625 50.859375 32.53125 50.863281 32.523438 50.886719 L 48.535156 77.683594 L 64.542969 50.886719 C 64.539062 50.863281 64.554688 50.859375 64.566406 50.851562 C 64.527344 50.738281 64.503906 50.617188 64.503906 50.492188 C 64.503906 49.847656 65.027344 49.320312 65.675781 49.320312 C 66.320312 49.320312 66.84375 49.847656 66.84375 50.492188 C 66.84375 51.101562 66.378906 51.59375 65.789062 51.652344 L 65.515625 52.074219 C 65.523438 52.082031 67.144531 53.898438 67.71875 54.734375 C 69.445312 57.277344 69.25 63.25 63.355469 67.988281 Z M 62.3125 45.382812 C 61.632812 47.253906 60.386719 49.191406 58.425781 50.652344 C 59.984375 51.144531 61.945312 51.15625 63.285156 50.265625 C 62.828125 51.429688 61.40625 52.949219 60.375 53.945312 C 60.1875 53.820312 60 53.660156 59.867188 53.511719 C 59.453125 53.070312 59.078125 53.460938 59.359375 53.828125 C 59.457031 53.953125 59.710938 54.3125 59.855469 54.4375 C 59.550781 54.71875 59.328125 54.917969 59.257812 54.976562 C 59.050781 54.847656 58.839844 54.660156 58.6875 54.496094 C 58.273438 54.054688 57.898438 54.445312 58.179688 54.8125 C 58.28125 54.941406 58.542969 55.316406 58.691406 55.429688 C 58.4375 55.632812 58.160156 55.855469 57.914062 56.023438 C 57.394531 55.367188 56.835938 54.679688 56 55.109375 C 55.109375 55.566406 55.992188 56.164062 55.992188 57.050781 C 55.992188 60.605469 53.757812 61.925781 53.203125 63.429688 C 52.648438 64.933594 52.121094 67.625 51.679688 68.359375 C 51.246094 69.082031 49.386719 69.894531 48.535156 69.226562 C 47.679688 69.894531 45.804688 69.09375 45.386719 68.359375 C 44.96875 67.625 44.378906 64.933594 43.820312 63.429688 C 43.265625 61.925781 41.078125 60.605469 41.078125 57.050781 C 41.078125 56.164062 41.957031 55.566406 41.070312 55.109375 C 40.230469 54.679688 39.671875 55.367188 39.15625 56.023438 C 38.910156 55.855469 38.628906 55.632812 38.378906 55.429688 C 38.523438 55.316406 38.785156 54.941406 38.886719 54.8125 C 39.167969 54.445312 38.796875 54.054688 38.382812 54.496094 C 38.230469 54.660156 38.015625 54.847656 37.808594 54.976562 C 37.742188 54.917969 37.515625 54.71875 37.210938 54.4375 C 37.359375 54.3125 37.609375 53.953125 37.710938 53.828125 C 37.992188 53.460938 37.617188 53.070312 37.203125 53.511719 C 37.066406 53.660156 36.878906 53.820312 36.691406 53.945312 C 35.664062 52.949219 34.238281 51.429688 33.78125 50.265625 C 35.175781 51.191406 36.988281 51.148438 38.570312 50.59375 C 36.660156 49.148438 35.441406 47.25 34.765625 45.414062 C 31.75 46.242188 28.921875 47.320312 26.617188 48.625 L 26.617188 56.195312 C 26.617188 68.414062 44.085938 82.539062 48.574219 83.800781 C 53.058594 82.539062 70.410156 68.414062 70.410156 56.195312 L 70.410156 48.550781 C 68.125 47.265625 65.3125 46.203125 62.3125 45.382812 "/>
<path style=" stroke:none;fill-rule:nonzero;fill:rgb(89.46228%,13.088989%,14.277649%);fill-opacity:1;" d="M 67.21875 39.929688 L 61.996094 38.820312 L 61.996094 39.308594 L 60.4375 39.308594 L 60.4375 38.820312 L 57.539062 39.257812 C 57.503906 39.265625 57.46875 39.269531 57.429688 39.273438 L 55.21875 39.605469 L 55.21875 31.902344 L 55.609375 31.792969 L 55.609375 30.511719 L 56.359375 31.0625 C 56.886719 31.460938 57.207031 31.546875 57.378906 31.546875 C 57.632812 31.546875 57.820312 31.347656 58.101562 31.019531 C 58.171875 30.945312 58.234375 30.871094 58.296875 30.800781 C 58.667969 30.410156 59.046875 30.222656 59.480469 30.222656 C 59.992188 30.222656 60.546875 30.507812 61.21875 31.101562 C 61.890625 30.507812 62.445312 30.222656 62.957031 30.222656 C 63.386719 30.222656 63.769531 30.410156 64.132812 30.800781 C 64.199219 30.871094 64.265625 30.945312 64.332031 31.019531 C 64.613281 31.347656 64.804688 31.546875 65.058594 31.546875 C 65.230469 31.546875 65.546875 31.460938 66.074219 31.0625 L 66.828125 30.511719 L 66.828125 31.792969 L 67.21875 31.902344 Z M 53.535156 36.207031 C 53.457031 36.433594 53.15625 36.558594 52.777344 36.5625 C 52.78125 36.78125 52.722656 36.992188 52.664062 37.078125 C 52.449219 37.363281 50 39.066406 49.652344 39.171875 C 49.613281 39.183594 49.570312 39.183594 49.511719 39.183594 C 49.402344 39.183594 49.277344 39.167969 49.148438 39.132812 C 49.035156 39.507812 48.808594 39.765625 48.550781 39.765625 C 48.296875 39.765625 48.074219 39.519531 47.957031 39.15625 C 47.8125 39.210938 47.652344 39.238281 47.527344 39.238281 C 47.464844 39.238281 47.417969 39.234375 47.375 39.226562 C 47.03125 39.117188 44.59375 37.398438 44.386719 37.109375 C 44.324219 37.027344 44.273438 36.847656 44.265625 36.65625 C 43.878906 36.65625 43.570312 36.535156 43.496094 36.300781 C 43.421875 36.070312 43.585938 35.796875 43.894531 35.578125 C 43.730469 35.394531 43.632812 35.148438 43.632812 35.039062 C 43.628906 34.6875 44.5625 31.921875 44.792969 31.640625 C 44.851562 31.570312 45.019531 31.453125 45.230469 31.386719 C 45.125 31.042969 45.15625 30.738281 45.355469 30.597656 C 45.550781 30.460938 45.855469 30.515625 46.148438 30.714844 C 46.28125 30.511719 46.484375 30.347656 46.59375 30.3125 C 46.820312 30.238281 47.832031 30.230469 48.261719 30.230469 C 48.921875 30.230469 50.09375 30.253906 50.3125 30.324219 C 50.414062 30.359375 50.589844 30.5 50.71875 30.679688 C 51.035156 30.464844 51.351562 30.394531 51.554688 30.539062 C 51.746094 30.671875 51.789062 30.96875 51.691406 31.296875 C 51.921875 31.359375 52.117188 31.492188 52.175781 31.574219 C 52.398438 31.851562 53.320312 34.621094 53.3125 34.980469 C 53.3125 35.082031 53.234375 35.285156 53.097656 35.460938 C 53.425781 35.6875 53.617188 35.964844 53.535156 36.207031 Z M 41.847656 39.605469 L 39.636719 39.273438 C 39.601562 39.269531 39.566406 39.265625 39.53125 39.257812 L 36.628906 38.820312 L 36.628906 39.308594 L 35.070312 39.308594 L 35.070312 38.820312 L 29.847656 39.929688 L 29.847656 31.902344 L 30.242188 31.792969 L 30.242188 30.511719 L 30.996094 31.0625 C 31.523438 31.460938 31.839844 31.546875 32.011719 31.546875 C 32.265625 31.546875 32.457031 31.347656 32.738281 31.019531 C 32.800781 30.945312 32.867188 30.871094 32.933594 30.800781 C 33.300781 30.410156 33.679688 30.222656 34.113281 30.222656 C 34.621094 30.222656 35.175781 30.507812 35.847656 31.101562 C 36.523438 30.507812 37.074219 30.222656 37.585938 30.222656 C 38.019531 30.222656 38.402344 30.410156 38.769531 30.800781 C 38.832031 30.871094 38.898438 30.945312 38.964844 31.019531 C 39.25 31.347656 39.433594 31.546875 39.691406 31.546875 C 39.863281 31.546875 40.179688 31.460938 40.710938 31.0625 L 41.457031 30.511719 L 41.457031 31.792969 L 41.847656 31.902344 Z M 48.511719 26.832031 C 32.34375 26.832031 26.617188 31.78125 26.617188 31.78125 L 26.617188 46.335938 C 28.808594 45.210938 31.445312 44.277344 34.253906 43.542969 C 34.199219 43.253906 34.15625 42.96875 34.132812 42.699219 C 34.058594 41.917969 34.207031 41.320312 34.566406 40.925781 C 34.828125 40.636719 35.1875 40.476562 35.566406 40.476562 C 35.984375 40.476562 36.753906 40.671875 37.21875 41.972656 C 37.324219 42.261719 37.441406 42.53125 37.5625 42.792969 C 41.304688 42.046875 45.101562 41.644531 48.511719 41.644531 C 51.917969 41.644531 55.769531 42.046875 59.507812 42.792969 C 59.628906 42.527344 59.746094 42.257812 59.847656 41.972656 C 60.316406 40.671875 61.085938 40.476562 61.5 40.476562 C 61.882812 40.476562 62.238281 40.636719 62.5 40.925781 C 62.863281 41.320312 63.007812 41.917969 62.9375 42.699219 C 62.910156 42.972656 62.867188 43.257812 62.816406 43.550781 C 65.605469 44.285156 68.230469 45.21875 70.410156 46.335938 L 70.410156 31.78125 C 70.410156 31.78125 64.675781 26.832031 48.511719 26.832031 "/>
<path style=" stroke:none;fill-rule:nonzero;fill:rgb(89.46228%,13.088989%,14.277649%);fill-opacity:1;" d="M 61.054688 62.355469 C 61.78125 62.75 62.527344 63.328125 62.527344 64.117188 C 62.527344 64.957031 61.828125 65.316406 61.078125 65.699219 C 60.695312 65.898438 60.265625 66.113281 59.777344 66.4375 C 59.054688 66.917969 56.726562 68.65625 56.9375 71.03125 C 57.015625 71.859375 57.324219 72.296875 58.148438 72.699219 L 58.042969 71.632812 C 57.992188 70.570312 58.941406 69.691406 60.3125 68.726562 C 60.898438 68.3125 61.625 67.800781 62.550781 67.058594 C 67.632812 62.976562 68.203125 57.667969 66.667969 55.398438 C 66.464844 55.097656 66.164062 54.667969 65.859375 54.242188 C 65.402344 58.871094 63.046875 61.199219 61.054688 62.355469 "/>
<path style=" stroke:none;fill-rule:nonzero;fill:rgb(89.46228%,13.088989%,14.277649%);fill-opacity:1;" d="M 31.210938 54.242188 C 30.90625 54.667969 30.605469 55.097656 30.398438 55.398438 C 28.867188 57.667969 29.433594 62.976562 34.515625 67.058594 C 35.441406 67.800781 36.167969 68.3125 36.753906 68.726562 C 38.128906 69.691406 39.074219 70.570312 39.027344 71.632812 L 38.917969 72.699219 C 39.742188 72.296875 40.050781 71.859375 40.128906 71.03125 C 40.339844 68.65625 38.011719 66.917969 37.289062 66.4375 C 36.804688 66.113281 36.375 65.898438 35.992188 65.699219 C 35.242188 65.316406 34.542969 64.957031 34.542969 64.117188 C 34.542969 63.328125 35.289062 62.75 36.011719 62.355469 C 34.023438 61.199219 31.664062 58.871094 31.210938 54.242188 "/>
<path style=" stroke:none;fill-rule:nonzero;fill:rgb(13.729858%,12.159729%,12.548828%);fill-opacity:1;" d="M 83.496094 38.359375 L 83.496094 30.75 L 86.339844 30.75 L 86.339844 38.28125 C 86.339844 40.453125 87.390625 41.574219 89.125 41.574219 C 90.859375 41.574219 91.914062 40.488281 91.914062 38.378906 L 91.914062 30.75 L 94.753906 30.75 L 94.753906 38.261719 C 94.753906 42.296875 92.558594 44.273438 89.089844 44.273438 C 85.617188 44.273438 83.496094 42.277344 83.496094 38.359375 "/>
<path style=" stroke:none;fill-rule:nonzero;fill:rgb(13.729858%,12.159729%,12.548828%);fill-opacity:1;" d="M 98.761719 30.75 L 101.382812 30.75 L 107.433594 38.949219 L 107.433594 30.75 L 110.238281 30.75 L 110.238281 44.066406 L 107.820312 44.066406 L 101.566406 35.601562 L 101.566406 44.066406 L 98.761719 44.066406 L 98.761719 30.75 "/>
<path style=" stroke:none;fill-rule:nonzero;fill:rgb(13.729858%,12.159729%,12.548828%);fill-opacity:1;" d="M 114.578125 30.75 L 117.421875 30.75 L 117.421875 44.066406 L 114.578125 44.066406 L 114.578125 30.75 "/>
<path style=" stroke:none;fill-rule:nonzero;fill:rgb(13.729858%,12.159729%,12.548828%);fill-opacity:1;" d="M 120.652344 30.75 L 123.789062 30.75 L 127.164062 40.128906 L 130.542969 30.75 L 133.605469 30.75 L 128.382812 44.160156 L 125.875 44.160156 L 120.652344 30.75 "/>
<path style=" stroke:none;fill-rule:nonzero;fill:rgb(13.729858%,12.159729%,12.548828%);fill-opacity:1;" d="M 136.710938 30.75 L 146.453125 30.75 L 146.453125 33.355469 L 139.53125 33.355469 L 139.53125 36.058594 L 145.625 36.058594 L 145.625 38.664062 L 139.53125 38.664062 L 139.53125 41.460938 L 146.546875 41.460938 L 146.546875 44.066406 L 136.710938 44.066406 L 136.710938 30.75 "/>
<path style=" stroke:none;fill-rule:nonzero;fill:rgb(13.729858%,12.159729%,12.548828%);fill-opacity:1;" d="M 156.644531 37.21875 C 158.027344 37.21875 158.820312 36.457031 158.820312 35.335938 L 158.820312 35.296875 C 158.820312 34.039062 157.972656 33.394531 156.589844 33.394531 L 153.765625 33.394531 L 153.765625 37.21875 Z M 150.921875 30.75 L 156.828125 30.75 C 158.46875 30.75 159.742188 31.222656 160.59375 32.101562 C 161.3125 32.84375 161.699219 33.886719 161.699219 35.144531 L 161.699219 35.179688 C 161.699219 37.332031 160.574219 38.683594 158.933594 39.308594 L 162.089844 44.066406 L 158.765625 44.066406 L 155.996094 39.804688 L 153.765625 39.804688 L 153.765625 44.066406 L 150.921875 44.066406 L 150.921875 30.75 "/>
<path style=" stroke:none;fill-rule:nonzero;fill:rgb(13.729858%,12.159729%,12.548828%);fill-opacity:1;" d="M 165.226562 42.125 L 166.902344 40.050781 C 168.066406 41.042969 169.285156 41.667969 170.761719 41.667969 C 171.925781 41.667969 172.628906 41.195312 172.628906 40.414062 L 172.628906 40.375 C 172.628906 39.632812 172.183594 39.253906 170.023438 38.683594 C 167.421875 37.996094 165.742188 37.253906 165.742188 34.609375 L 165.742188 34.574219 C 165.742188 32.15625 167.625 30.558594 170.265625 30.558594 C 172.144531 30.558594 173.753906 31.167969 175.0625 32.253906 L 173.585938 34.460938 C 172.441406 33.640625 171.316406 33.144531 170.226562 33.144531 C 169.140625 33.144531 168.566406 33.660156 168.566406 34.304688 L 168.566406 34.34375 C 168.566406 35.21875 169.117188 35.503906 171.355469 36.09375 C 173.972656 36.800781 175.449219 37.769531 175.449219 40.089844 L 175.449219 40.128906 C 175.449219 42.773438 173.492188 44.257812 170.707031 44.257812 C 168.75 44.257812 166.773438 43.550781 165.226562 42.125 "/>
<path style=" stroke:none;fill-rule:nonzero;fill:rgb(13.729858%,12.159729%,12.548828%);fill-opacity:1;" d="M 179.527344 30.75 L 182.371094 30.75 L 182.371094 44.066406 L 179.527344 44.066406 L 179.527344 30.75 "/>
<path style=" stroke:none;fill-rule:nonzero;fill:rgb(13.729858%,12.159729%,12.548828%);fill-opacity:1;" d="M 189.71875 33.449219 L 185.785156 33.449219 L 185.785156 30.75 L 196.492188 30.75 L 196.492188 33.449219 L 192.5625 33.449219 L 192.5625 44.066406 L 189.71875 44.066406 L 189.71875 33.449219 "/>
<path style=" stroke:none;fill-rule:nonzero;fill:rgb(13.729858%,12.159729%,12.548828%);fill-opacity:1;" d="M 203.78125 38.816406 L 198.816406 30.75 L 202.140625 30.75 L 205.222656 36.09375 L 208.359375 30.75 L 211.589844 30.75 L 206.625 38.757812 L 206.625 44.066406 L 203.78125 44.066406 L 203.78125 38.816406 "/>
<path style=" stroke:none;fill-rule:nonzero;fill:rgb(13.729858%,12.159729%,12.548828%);fill-opacity:1;" d="M 231.410156 37.445312 L 231.410156 37.40625 C 231.410156 35.125 229.789062 33.222656 227.5 33.222656 C 225.210938 33.222656 223.625 35.085938 223.625 37.371094 L 223.625 37.40625 C 223.625 39.691406 225.25 41.59375 227.535156 41.59375 C 229.824219 41.59375 231.410156 39.730469 231.410156 37.445312 Z M 220.652344 37.445312 L 220.652344 37.40625 C 220.652344 33.621094 223.550781 30.519531 227.535156 30.519531 C 231.523438 30.519531 234.386719 33.582031 234.386719 37.371094 L 234.386719 37.40625 C 234.386719 41.195312 231.484375 44.292969 227.5 44.292969 C 223.515625 44.292969 220.652344 41.230469 220.652344 37.445312 "/>
<path style=" stroke:none;fill-rule:nonzero;fill:rgb(13.729858%,12.159729%,12.548828%);fill-opacity:1;" d="M 237.539062 30.75 L 247.378906 30.75 L 247.378906 33.414062 L 240.382812 33.414062 L 240.382812 36.246094 L 246.546875 36.246094 L 246.546875 38.910156 L 240.382812 38.910156 L 240.382812 44.066406 L 237.539062 44.066406 L 237.539062 30.75 "/>
<path style=" stroke:none;fill-rule:nonzero;fill:rgb(13.729858%,12.159729%,12.548828%);fill-opacity:1;" d="M 94.320312 49.390625 C 87.253906 49.390625 81.929688 54.914062 81.929688 62.238281 L 81.929688 62.3125 C 81.929688 65.78125 83.164062 69.003906 85.410156 71.375 C 87.675781 73.769531 90.78125 75.085938 94.144531 75.085938 C 98.132812 75.085938 100.949219 73.832031 103.828125 70.761719 L 101.238281 68.050781 C 99.167969 70.035156 97.265625 71.265625 94.285156 71.265625 C 89.738281 71.265625 86.179688 67.300781 86.179688 62.238281 L 86.179688 62.167969 C 86.179688 57.0625 89.664062 53.214844 94.285156 53.214844 C 96.734375 53.214844 98.828125 54.160156 101.058594 56.28125 L 103.65625 53.1875 C 101.726562 51.296875 99.097656 49.390625 94.320312 49.390625 "/>
<path style=" stroke:none;fill-rule:nonzero;fill:rgb(13.729858%,12.159729%,12.548828%);fill-opacity:1;" d="M 121.984375 64.929688 L 113.316406 64.929688 L 117.632812 54.511719 Z M 125.90625 74.660156 L 130.367188 74.660156 L 119.800781 49.640625 L 115.613281 49.640625 L 105.042969 74.660156 L 109.355469 74.660156 L 111.851562 68.609375 L 123.449219 68.609375 L 125.90625 74.660156 "/>
<path style=" stroke:none;fill-rule:nonzero;fill:rgb(13.729858%,12.159729%,12.548828%);fill-opacity:1;" d="M 192.8125 64.929688 L 184.140625 64.929688 L 188.457031 54.511719 Z M 196.734375 74.660156 L 201.191406 74.660156 L 190.621094 49.640625 L 186.4375 49.640625 L 175.867188 74.660156 L 180.183594 74.660156 L 182.675781 68.609375 L 194.273438 68.609375 L 196.734375 74.660156 "/>
<path style=" stroke:none;fill-rule:nonzero;fill:rgb(13.729858%,12.159729%,12.548828%);fill-opacity:1;" d="M 133 74.660156 L 150.09375 74.660156 L 150.09375 70.871094 L 137.351562 70.871094 L 137.351562 49.820312 L 133 49.820312 L 133 74.660156 "/>
<path style=" stroke:none;fill-rule:nonzero;fill:rgb(13.729858%,12.159729%,12.548828%);fill-opacity:1;" d="M 163.15625 49.390625 C 156.210938 49.390625 150.515625 55.035156 150.515625 62.238281 L 150.515625 62.3125 C 150.515625 69.835938 155.890625 75.085938 163.226562 75.085938 C 167.871094 75.085938 171.226562 73.003906 173.617188 71.246094 L 173.617188 60.882812 L 163.667969 60.882812 L 163.667969 64.492188 L 169.320312 64.492188 L 169.320312 69.347656 L 169.28125 69.382812 C 167.695312 70.597656 165.539062 71.300781 163.363281 71.300781 C 158.449219 71.300781 155.019531 67.574219 155.019531 62.238281 L 155.019531 62.167969 C 155.019531 57.230469 158.59375 53.214844 162.980469 53.214844 C 166.070312 53.214844 167.933594 54.265625 169.757812 55.851562 L 172.320312 52.695312 C 169.613281 50.347656 166.949219 49.390625 163.15625 49.390625 "/>
<path style=" stroke:none;fill-rule:nonzero;fill:rgb(13.729858%,12.159729%,12.548828%);fill-opacity:1;" d="M 214.65625 62.242188 L 208.3125 62.242188 L 208.3125 53.609375 L 214.621094 53.609375 C 217.882812 53.609375 219.746094 55.160156 219.746094 57.871094 L 219.746094 57.945312 C 219.746094 60.554688 217.746094 62.242188 214.65625 62.242188 Z M 219.765625 74.660156 L 224.519531 74.660156 L 218.015625 65.21875 L 218.15625 65.175781 C 221.835938 64.089844 224.289062 61.433594 224.289062 57.691406 L 224.289062 57.621094 C 224.289062 55.511719 223.175781 53.667969 221.882812 52.292969 C 220.285156 50.675781 217.894531 49.820312 214.96875 49.820312 L 203.992188 49.820312 L 203.992188 74.660156 L 208.3125 74.660156 L 208.3125 65.921875 L 213.8125 65.921875 L 219.765625 74.660156 "/>
<path style=" stroke:none;fill-rule:nonzero;fill:rgb(13.729858%,12.159729%,12.548828%);fill-opacity:1;" d="M 233.933594 74.660156 L 238.578125 74.660156 L 238.578125 65.105469 L 248.117188 49.820312 L 243.316406 49.820312 L 236.402344 61.011719 L 229.558594 49.820312 L 224.675781 49.820312 L 233.933594 65.105469 L 233.933594 74.660156 "/>
</g>
</svg>
