<?xml version="1.0" encoding="UTF-8"?>
<svg xmlns="http://www.w3.org/2000/svg" xmlns:xlink="http://www.w3.org/1999/xlink" width="272.95pt" height="110.87pt" viewBox="0 0 272.95 110.87" version="1.1">
<g id="surface1">
<path style=" stroke:none;fill-rule:nonzero;fill:rgb(13.729858%,12.159729%,12.548828%);fill-opacity:1;" d="M 83.496094 38.359375 L 83.496094 30.75 L 86.339844 30.75 L 86.339844 38.285156 C 86.339844 40.453125 87.390625 41.574219 89.125 41.574219 C 90.859375 41.574219 91.910156 40.488281 91.910156 38.378906 L 91.910156 30.75 L 94.753906 30.75 L 94.753906 38.265625 C 94.753906 42.296875 92.554688 44.277344 89.089844 44.277344 C 85.617188 44.277344 83.496094 42.277344 83.496094 38.359375 "/>
<path style=" stroke:none;fill-rule:nonzero;fill:rgb(13.729858%,12.159729%,12.548828%);fill-opacity:1;" d="M 98.761719 30.75 L 101.382812 30.75 L 107.433594 38.949219 L 107.433594 30.75 L 110.238281 30.75 L 110.238281 44.066406 L 107.820312 44.066406 L 101.5625 35.601562 L 101.5625 44.066406 L 98.761719 44.066406 L 98.761719 30.75 "/>
<path style=" stroke:none;fill-rule:nonzero;fill:rgb(13.729858%,12.159729%,12.548828%);fill-opacity:1;" d="M 114.578125 30.75 L 117.421875 30.75 L 117.421875 44.066406 L 114.578125 44.066406 L 114.578125 30.75 "/>
<path style=" stroke:none;fill-rule:nonzero;fill:rgb(13.729858%,12.159729%,12.548828%);fill-opacity:1;" d="M 120.648438 30.75 L 123.785156 30.75 L 127.164062 40.128906 L 130.542969 30.75 L 133.605469 30.75 L 128.382812 44.160156 L 125.871094 44.160156 L 120.648438 30.75 "/>
<path style=" stroke:none;fill-rule:nonzero;fill:rgb(13.729858%,12.159729%,12.548828%);fill-opacity:1;" d="M 136.710938 30.75 L 146.453125 30.75 L 146.453125 33.355469 L 139.53125 33.355469 L 139.53125 36.058594 L 145.621094 36.058594 L 145.621094 38.664062 L 139.53125 38.664062 L 139.53125 41.460938 L 146.546875 41.460938 L 146.546875 44.066406 L 136.710938 44.066406 L 136.710938 30.75 "/>
<path style=" stroke:none;fill-rule:nonzero;fill:rgb(13.729858%,12.159729%,12.548828%);fill-opacity:1;" d="M 156.644531 37.21875 C 158.027344 37.21875 158.820312 36.457031 158.820312 35.335938 L 158.820312 35.296875 C 158.820312 34.042969 157.972656 33.394531 156.585938 33.394531 L 153.765625 33.394531 L 153.765625 37.21875 Z M 150.921875 30.75 L 156.828125 30.75 C 158.46875 30.75 159.742188 31.226562 160.59375 32.101562 C 161.3125 32.84375 161.699219 33.886719 161.699219 35.144531 L 161.699219 35.183594 C 161.699219 37.332031 160.574219 38.683594 158.929688 39.3125 L 162.085938 44.066406 L 158.765625 44.066406 L 155.996094 39.804688 L 153.765625 39.804688 L 153.765625 44.066406 L 150.921875 44.066406 L 150.921875 30.75 "/>
<path style=" stroke:none;fill-rule:nonzero;fill:rgb(13.729858%,12.159729%,12.548828%);fill-opacity:1;" d="M 165.226562 42.125 L 166.902344 40.050781 C 168.066406 41.042969 169.285156 41.667969 170.761719 41.667969 C 171.925781 41.667969 172.625 41.195312 172.625 40.414062 L 172.625 40.375 C 172.625 39.632812 172.183594 39.253906 170.023438 38.683594 C 167.421875 37.996094 165.742188 37.253906 165.742188 34.609375 L 165.742188 34.574219 C 165.742188 32.15625 167.625 30.558594 170.265625 30.558594 C 172.144531 30.558594 173.753906 31.167969 175.0625 32.253906 L 173.585938 34.460938 C 172.441406 33.640625 171.316406 33.144531 170.226562 33.144531 C 169.140625 33.144531 168.566406 33.660156 168.566406 34.308594 L 168.566406 34.34375 C 168.566406 35.21875 169.117188 35.503906 171.351562 36.09375 C 173.972656 36.800781 175.449219 37.769531 175.449219 40.089844 L 175.449219 40.128906 C 175.449219 42.773438 173.492188 44.257812 170.707031 44.257812 C 168.75 44.257812 166.773438 43.554688 165.226562 42.125 "/>
<path style=" stroke:none;fill-rule:nonzero;fill:rgb(13.729858%,12.159729%,12.548828%);fill-opacity:1;" d="M 179.527344 30.75 L 182.371094 30.75 L 182.371094 44.066406 L 179.527344 44.066406 L 179.527344 30.75 "/>
<path style=" stroke:none;fill-rule:nonzero;fill:rgb(13.729858%,12.159729%,12.548828%);fill-opacity:1;" d="M 189.71875 33.449219 L 185.785156 33.449219 L 185.785156 30.75 L 196.492188 30.75 L 196.492188 33.449219 L 192.5625 33.449219 L 192.5625 44.066406 L 189.71875 44.066406 L 189.71875 33.449219 "/>
<path style=" stroke:none;fill-rule:nonzero;fill:rgb(13.729858%,12.159729%,12.548828%);fill-opacity:1;" d="M 203.78125 38.816406 L 198.816406 30.75 L 202.140625 30.75 L 205.222656 36.09375 L 208.359375 30.75 L 211.589844 30.75 L 206.625 38.757812 L 206.625 44.066406 L 203.78125 44.066406 L 203.78125 38.816406 "/>
<path style=" stroke:none;fill-rule:nonzero;fill:rgb(13.729858%,12.159729%,12.548828%);fill-opacity:1;" d="M 231.410156 37.445312 L 231.410156 37.40625 C 231.410156 35.125 229.789062 33.222656 227.5 33.222656 C 225.210938 33.222656 223.625 35.085938 223.625 37.371094 L 223.625 37.40625 C 223.625 39.691406 225.25 41.59375 227.535156 41.59375 C 229.824219 41.59375 231.410156 39.730469 231.410156 37.445312 Z M 220.652344 37.445312 L 220.652344 37.40625 C 220.652344 33.621094 223.550781 30.519531 227.535156 30.519531 C 231.523438 30.519531 234.386719 33.582031 234.386719 37.371094 L 234.386719 37.40625 C 234.386719 41.195312 231.484375 44.296875 227.5 44.296875 C 223.515625 44.296875 220.652344 41.230469 220.652344 37.445312 "/>
<path style=" stroke:none;fill-rule:nonzero;fill:rgb(13.729858%,12.159729%,12.548828%);fill-opacity:1;" d="M 237.539062 30.75 L 247.378906 30.75 L 247.378906 33.414062 L 240.382812 33.414062 L 240.382812 36.246094 L 246.546875 36.246094 L 246.546875 38.910156 L 240.382812 38.910156 L 240.382812 44.066406 L 237.539062 44.066406 L 237.539062 30.75 "/>
<path style=" stroke:none;fill-rule:nonzero;fill:rgb(13.729858%,12.159729%,12.548828%);fill-opacity:1;" d="M 94.320312 49.390625 C 87.253906 49.390625 81.925781 54.914062 81.925781 62.238281 L 81.925781 62.3125 C 81.925781 65.78125 83.164062 69.003906 85.410156 71.375 C 87.675781 73.769531 90.78125 75.085938 94.144531 75.085938 C 98.132812 75.085938 100.945312 73.832031 103.828125 70.761719 L 101.238281 68.050781 C 99.164062 70.039062 97.265625 71.265625 94.28125 71.265625 C 89.738281 71.265625 86.179688 67.300781 86.179688 62.238281 L 86.179688 62.167969 C 86.179688 57.0625 89.664062 53.214844 94.28125 53.214844 C 96.730469 53.214844 98.828125 54.160156 101.058594 56.28125 L 103.652344 53.191406 C 101.726562 51.296875 99.09375 49.390625 94.320312 49.390625 "/>
<path style=" stroke:none;fill-rule:nonzero;fill:rgb(13.729858%,12.159729%,12.548828%);fill-opacity:1;" d="M 121.984375 64.929688 L 113.3125 64.929688 L 117.632812 54.511719 Z M 125.90625 74.660156 L 130.367188 74.660156 L 119.800781 49.640625 L 115.609375 49.640625 L 105.039062 74.660156 L 109.355469 74.660156 L 111.851562 68.609375 L 123.449219 68.609375 L 125.90625 74.660156 "/>
<path style=" stroke:none;fill-rule:nonzero;fill:rgb(13.729858%,12.159729%,12.548828%);fill-opacity:1;" d="M 192.8125 64.929688 L 184.140625 64.929688 L 188.457031 54.511719 Z M 196.734375 74.660156 L 201.191406 74.660156 L 190.621094 49.640625 L 186.4375 49.640625 L 175.867188 74.660156 L 180.183594 74.660156 L 182.675781 68.609375 L 194.273438 68.609375 L 196.734375 74.660156 "/>
<path style=" stroke:none;fill-rule:nonzero;fill:rgb(13.729858%,12.159729%,12.548828%);fill-opacity:1;" d="M 132.996094 74.660156 L 150.089844 74.660156 L 150.089844 70.871094 L 137.351562 70.871094 L 137.351562 49.824219 L 132.996094 49.824219 L 132.996094 74.660156 "/>
<path style=" stroke:none;fill-rule:nonzero;fill:rgb(13.729858%,12.159729%,12.548828%);fill-opacity:1;" d="M 163.15625 49.390625 C 156.210938 49.390625 150.511719 55.035156 150.511719 62.238281 L 150.511719 62.3125 C 150.511719 69.835938 155.890625 75.085938 163.226562 75.085938 C 167.871094 75.085938 171.226562 73.003906 173.617188 71.246094 L 173.617188 60.882812 L 163.667969 60.882812 L 163.667969 64.492188 L 169.320312 64.492188 L 169.320312 69.347656 L 169.28125 69.382812 C 167.695312 70.601562 165.539062 71.300781 163.363281 71.300781 C 158.449219 71.300781 155.019531 67.574219 155.019531 62.238281 L 155.019531 62.167969 C 155.019531 57.230469 158.589844 53.214844 162.980469 53.214844 C 166.070312 53.214844 167.933594 54.269531 169.757812 55.855469 L 172.320312 52.695312 C 169.613281 50.351562 166.949219 49.390625 163.15625 49.390625 "/>
<path style=" stroke:none;fill-rule:nonzero;fill:rgb(13.729858%,12.159729%,12.548828%);fill-opacity:1;" d="M 214.65625 62.242188 L 208.3125 62.242188 L 208.3125 53.609375 L 214.621094 53.609375 C 217.878906 53.609375 219.746094 55.164062 219.746094 57.871094 L 219.746094 57.945312 C 219.746094 60.554688 217.746094 62.242188 214.65625 62.242188 Z M 219.765625 74.660156 L 224.519531 74.660156 L 218.011719 65.21875 L 218.15625 65.175781 C 221.835938 64.089844 224.289062 61.433594 224.289062 57.691406 L 224.289062 57.621094 C 224.289062 55.511719 223.175781 53.667969 221.882812 52.292969 C 220.285156 50.675781 217.894531 49.824219 214.96875 49.824219 L 203.992188 49.824219 L 203.992188 74.660156 L 208.3125 74.660156 L 208.3125 65.921875 L 213.8125 65.921875 L 219.765625 74.660156 "/>
<path style=" stroke:none;fill-rule:nonzero;fill:rgb(13.729858%,12.159729%,12.548828%);fill-opacity:1;" d="M 233.929688 74.660156 L 238.578125 74.660156 L 238.578125 65.105469 L 248.117188 49.824219 L 243.316406 49.824219 L 236.402344 61.011719 L 229.558594 49.824219 L 224.675781 49.824219 L 233.929688 65.105469 L 233.929688 74.660156 "/>
<path style=" stroke:none;fill-rule:nonzero;fill:rgb(13.729858%,12.159729%,12.548828%);fill-opacity:1;" d="M 65.910156 37.636719 C 65.636719 38.105469 65.363281 38.375 65.128906 38.375 C 65 38.375 64.78125 38.300781 64.441406 37.9375 C 63.644531 37.085938 62.683594 36.925781 61.703125 37.503906 L 61.703125 31.898438 C 62.390625 31.257812 62.773438 31.117188 62.972656 31.117188 C 63.085938 31.117188 63.226562 31.152344 63.460938 31.402344 C 63.519531 31.464844 63.578125 31.53125 63.636719 31.59375 C 63.960938 31.96875 64.363281 32.441406 65.070312 32.441406 C 65.332031 32.441406 65.609375 32.371094 65.910156 32.230469 Z M 60.769531 37.503906 C 60.386719 37.277344 60.003906 37.160156 59.625 37.160156 C 59.050781 37.160156 58.519531 37.421875 58.03125 37.9375 C 57.695312 38.300781 57.472656 38.375 57.347656 38.375 C 57.109375 38.375 56.839844 38.105469 56.566406 37.636719 L 56.566406 32.230469 C 56.867188 32.371094 57.144531 32.441406 57.40625 32.441406 C 58.109375 32.441406 58.519531 31.96875 58.839844 31.59375 C 58.898438 31.53125 58.957031 31.464844 59.011719 31.402344 C 59.246094 31.152344 59.390625 31.117188 59.503906 31.117188 C 59.707031 31.117188 60.085938 31.257812 60.769531 31.898438 Z M 66.835938 31.792969 L 66.835938 30.511719 L 66.085938 31.0625 C 65.554688 31.460938 65.242188 31.546875 65.070312 31.546875 C 64.816406 31.546875 64.625 31.347656 64.34375 31.019531 C 64.28125 30.945312 64.214844 30.871094 64.148438 30.800781 C 63.78125 30.410156 63.402344 30.222656 62.96875 30.222656 C 62.460938 30.222656 61.910156 30.511719 61.238281 31.101562 C 60.566406 30.511719 60.015625 30.222656 59.503906 30.222656 C 59.070312 30.222656 58.691406 30.410156 58.320312 30.800781 C 58.257812 30.871094 58.195312 30.945312 58.125 31.019531 C 57.84375 31.347656 57.660156 31.546875 57.402344 31.546875 C 57.230469 31.546875 56.914062 31.460938 56.386719 31.0625 L 55.636719 30.511719 L 55.636719 31.792969 L 55.25 31.902344 L 55.25 39.59375 L 57.457031 39.261719 C 57.492188 39.257812 57.527344 39.25 57.5625 39.246094 L 60.460938 38.808594 L 60.460938 39.296875 L 62.015625 39.296875 L 62.015625 38.808594 L 67.226562 39.917969 L 67.226562 31.902344 L 66.835938 31.792969 "/>
<path style=" stroke:none;fill-rule:nonzero;fill:rgb(13.729858%,12.159729%,12.548828%);fill-opacity:1;" d="M 40.582031 37.636719 C 40.308594 38.105469 40.039062 38.375 39.800781 38.375 C 39.671875 38.375 39.453125 38.300781 39.117188 37.9375 C 38.628906 37.421875 38.097656 37.160156 37.523438 37.160156 C 37.140625 37.160156 36.761719 37.277344 36.378906 37.503906 L 36.378906 31.898438 C 37.058594 31.257812 37.441406 31.117188 37.644531 31.117188 C 37.757812 31.117188 37.898438 31.152344 38.132812 31.402344 C 38.191406 31.464844 38.25 31.53125 38.308594 31.59375 C 38.628906 31.96875 39.039062 32.441406 39.742188 32.441406 C 40.003906 32.441406 40.28125 32.371094 40.582031 32.230469 Z M 35.445312 37.503906 C 34.464844 36.925781 33.503906 37.085938 32.703125 37.9375 C 32.363281 38.300781 32.144531 38.375 32.015625 38.375 C 31.785156 38.375 31.511719 38.105469 31.234375 37.636719 L 31.234375 32.230469 C 31.535156 32.371094 31.8125 32.441406 32.074219 32.441406 C 32.78125 32.441406 33.183594 31.96875 33.511719 31.59375 C 33.570312 31.53125 33.628906 31.464844 33.6875 31.402344 C 33.921875 31.152344 34.0625 31.117188 34.175781 31.117188 C 34.375 31.117188 34.757812 31.257812 35.445312 31.898438 Z M 41.507812 31.792969 L 41.507812 30.511719 L 40.761719 31.0625 C 40.234375 31.460938 39.914062 31.546875 39.742188 31.546875 C 39.488281 31.546875 39.304688 31.347656 39.019531 31.019531 C 38.953125 30.945312 38.886719 30.871094 38.824219 30.800781 C 38.457031 30.410156 38.078125 30.222656 37.644531 30.222656 C 37.132812 30.222656 36.582031 30.511719 35.90625 31.101562 C 35.238281 30.511719 34.683594 30.222656 34.175781 30.222656 C 33.746094 30.222656 33.363281 30.410156 33 30.800781 C 32.933594 30.871094 32.867188 30.945312 32.800781 31.019531 C 32.523438 31.347656 32.328125 31.546875 32.074219 31.546875 C 31.90625 31.546875 31.589844 31.460938 31.0625 31.0625 L 30.308594 30.511719 L 30.308594 31.792969 L 29.917969 31.902344 L 29.917969 39.917969 L 35.132812 38.808594 L 35.132812 39.296875 L 36.6875 39.296875 L 36.6875 38.808594 L 39.585938 39.246094 C 39.621094 39.25 39.65625 39.257812 39.691406 39.261719 L 41.898438 39.59375 L 41.898438 31.902344 L 41.507812 31.792969 "/>
<path style=" stroke:none;fill-rule:nonzero;fill:rgb(13.729858%,12.159729%,12.548828%);fill-opacity:1;" d="M 52.265625 35.207031 C 52.207031 35.257812 52.152344 35.277344 52.09375 35.265625 C 51.78125 35.222656 51.007812 35 50.730469 34.855469 C 50.691406 34.835938 50.65625 34.8125 50.628906 34.796875 C 50.425781 34.652344 50.296875 34.453125 50.195312 34.273438 C 50.164062 34.027344 50.148438 33.742188 50.277344 33.492188 C 50.410156 33.21875 50.921875 32.570312 51.140625 32.378906 C 51.261719 32.261719 51.53125 32.375 51.632812 32.449219 C 51.65625 32.460938 51.664062 32.472656 51.664062 32.472656 C 51.792969 32.648438 52.476562 34.679688 52.472656 34.890625 C 52.46875 34.933594 52.394531 35.113281 52.265625 35.207031 Z M 51.714844 36.855469 C 51.714844 36.878906 51.703125 36.882812 51.703125 36.882812 C 51.578125 37.0625 49.785156 38.3125 49.566406 38.375 C 49.523438 38.382812 49.328125 38.371094 49.1875 38.292969 C 49.132812 38.25 49.09375 38.203125 49.078125 38.148438 C 49.027344 37.84375 48.988281 37.066406 49.046875 36.769531 C 49.054688 36.730469 49.0625 36.695312 49.078125 36.65625 C 49.152344 36.425781 49.3125 36.242188 49.460938 36.09375 C 49.691406 35.992188 49.964844 35.890625 50.257812 35.929688 C 50.566406 35.972656 51.378906 36.234375 51.636719 36.378906 C 51.789062 36.457031 51.761719 36.738281 51.714844 36.855469 Z M 48.59375 35.964844 C 48.304688 35.964844 48.0625 35.804688 47.945312 35.574219 C 47.933594 35.574219 47.929688 35.578125 47.921875 35.578125 C 47.605469 35.578125 47.316406 35.382812 47.222656 35.082031 C 47.160156 34.902344 47.175781 34.714844 47.265625 34.539062 C 47.300781 34.46875 47.355469 34.414062 47.410156 34.363281 C 47.371094 34.253906 47.347656 34.140625 47.375 34.019531 C 47.398438 33.828125 47.507812 33.664062 47.664062 33.554688 C 47.886719 33.398438 48.191406 33.394531 48.4375 33.511719 C 48.6875 33.328125 49.050781 33.300781 49.3125 33.484375 C 49.46875 33.601562 49.574219 33.761719 49.601562 33.949219 C 49.617188 34.027344 49.609375 34.101562 49.59375 34.179688 C 49.695312 34.246094 49.785156 34.328125 49.84375 34.433594 C 49.929688 34.605469 49.949219 34.796875 49.886719 34.976562 C 49.796875 35.238281 49.566406 35.414062 49.289062 35.453125 C 49.199219 35.746094 48.925781 35.964844 48.59375 35.964844 Z M 47.847656 38.070312 C 47.816406 38.234375 47.523438 38.292969 47.402344 38.292969 C 47.367188 38.292969 47.359375 38.292969 47.359375 38.292969 C 47.152344 38.226562 45.363281 36.96875 45.230469 36.796875 C 45.210938 36.753906 45.164062 36.566406 45.203125 36.421875 C 45.222656 36.351562 45.257812 36.304688 45.308594 36.28125 C 45.585938 36.128906 46.328125 35.855469 46.644531 35.816406 C 46.683594 35.808594 46.722656 35.808594 46.765625 35.808594 C 47.007812 35.808594 47.234375 35.898438 47.429688 35.988281 C 47.605469 36.167969 47.789062 36.386719 47.839844 36.664062 C 47.902344 36.960938 47.902344 37.789062 47.847656 38.070312 Z M 44.648438 34.78125 C 44.636719 34.753906 44.636719 34.742188 44.636719 34.742188 C 44.632812 34.53125 45.328125 32.496094 45.457031 32.332031 C 45.484375 32.296875 45.660156 32.195312 45.816406 32.183594 C 45.886719 32.179688 45.945312 32.195312 45.992188 32.238281 C 46.21875 32.449219 46.703125 33.042969 46.839844 33.3125 C 46.859375 33.355469 46.871094 33.386719 46.882812 33.421875 C 46.949219 33.648438 46.941406 33.890625 46.914062 34.09375 C 46.792969 34.3125 46.628906 34.546875 46.375 34.679688 C 46.101562 34.824219 45.296875 35.082031 45.003906 35.113281 C 44.824219 35.136719 44.683594 34.894531 44.648438 34.78125 Z M 47.257812 31.164062 C 47.28125 31.152344 47.292969 31.148438 47.292969 31.148438 C 47.503906 31.078125 49.722656 31.082031 49.925781 31.152344 C 49.96875 31.164062 50.121094 31.296875 50.179688 31.4375 C 50.210938 31.503906 50.210938 31.5625 50.179688 31.609375 C 50.046875 31.886719 49.589844 32.515625 49.363281 32.722656 C 49.332031 32.75 49.304688 32.769531 49.273438 32.796875 C 49.070312 32.9375 48.828125 33.003906 48.617188 33.03125 C 48.371094 32.988281 48.09375 32.910156 47.875 32.71875 C 47.648438 32.507812 47.164062 31.859375 47.035156 31.59375 C 46.964844 31.441406 47.15625 31.234375 47.257812 31.164062 Z M 53.128906 35.453125 C 53.265625 35.277344 53.34375 35.074219 53.34375 34.972656 C 53.351562 34.617188 52.429688 31.847656 52.207031 31.570312 C 52.152344 31.492188 51.957031 31.359375 51.722656 31.296875 C 51.824219 30.96875 51.78125 30.671875 51.589844 30.539062 C 51.386719 30.394531 51.070312 30.46875 50.753906 30.679688 C 50.625 30.5 50.453125 30.359375 50.347656 30.324219 C 50.128906 30.253906 48.960938 30.234375 48.300781 30.234375 C 47.875 30.234375 46.863281 30.238281 46.636719 30.3125 C 46.527344 30.347656 46.324219 30.511719 46.191406 30.71875 C 45.898438 30.515625 45.59375 30.460938 45.398438 30.597656 C 45.199219 30.738281 45.167969 31.042969 45.277344 31.382812 C 45.066406 31.453125 44.894531 31.570312 44.835938 31.640625 C 44.609375 31.921875 43.675781 34.679688 43.679688 35.035156 C 43.679688 35.140625 43.777344 35.386719 43.941406 35.570312 C 43.632812 35.789062 43.46875 36.0625 43.542969 36.292969 C 43.617188 36.527344 43.925781 36.644531 44.308594 36.644531 C 44.320312 36.839844 44.371094 37.019531 44.433594 37.097656 C 44.636719 37.386719 47.074219 39.101562 47.417969 39.210938 C 47.460938 39.222656 47.507812 39.226562 47.566406 39.226562 C 47.691406 39.226562 47.851562 39.199219 48 39.144531 C 48.113281 39.507812 48.335938 39.753906 48.589844 39.753906 C 48.847656 39.753906 49.074219 39.492188 49.183594 39.121094 C 49.316406 39.152344 49.4375 39.171875 49.550781 39.171875 C 49.605469 39.171875 49.652344 39.167969 49.691406 39.160156 C 50.035156 39.054688 52.480469 37.351562 52.695312 37.066406 C 52.753906 36.980469 52.8125 36.769531 52.808594 36.554688 C 53.1875 36.550781 53.488281 36.425781 53.566406 36.199219 C 53.648438 35.957031 53.457031 35.679688 53.128906 35.453125 "/>
<path style=" stroke:none;fill-rule:nonzero;fill:rgb(13.729858%,12.159729%,12.548828%);fill-opacity:1;" d="M 47.800781 34.78125 C 47.675781 34.824219 47.609375 34.960938 47.648438 35.082031 C 47.691406 35.207031 47.828125 35.273438 47.960938 35.234375 C 48.089844 35.191406 48.160156 35.0625 48.113281 34.933594 C 48.078125 34.808594 47.941406 34.742188 47.800781 34.78125 "/>
<path style=" stroke:none;fill-rule:nonzero;fill:rgb(13.729858%,12.159729%,12.548828%);fill-opacity:1;" d="M 48.925781 33.804688 C 48.808594 33.730469 48.660156 33.75 48.582031 33.859375 C 48.5 33.964844 48.523438 34.117188 48.636719 34.191406 C 48.742188 34.269531 48.898438 34.242188 48.972656 34.136719 C 49.054688 34.035156 49.035156 33.882812 48.925781 33.804688 "/>
<path style=" stroke:none;fill-rule:nonzero;fill:rgb(13.729858%,12.159729%,12.548828%);fill-opacity:1;" d="M 47.800781 33.996094 C 47.695312 34.074219 47.667969 34.21875 47.75 34.328125 C 47.828125 34.433594 47.980469 34.464844 48.097656 34.386719 C 48.203125 34.304688 48.226562 34.15625 48.144531 34.050781 C 48.0625 33.945312 47.914062 33.917969 47.800781 33.996094 "/>
<path style=" stroke:none;fill-rule:nonzero;fill:rgb(13.729858%,12.159729%,12.548828%);fill-opacity:1;" d="M 49.457031 34.769531 C 49.5 34.648438 49.425781 34.515625 49.300781 34.472656 C 49.171875 34.429688 49.035156 34.5 48.988281 34.625 C 48.949219 34.75 49.019531 34.890625 49.152344 34.921875 C 49.277344 34.960938 49.417969 34.894531 49.457031 34.769531 "/>
<path style=" stroke:none;fill-rule:nonzero;fill:rgb(13.729858%,12.159729%,12.548828%);fill-opacity:1;" d="M 48.667969 35.082031 C 48.53125 35.082031 48.425781 35.191406 48.425781 35.320312 C 48.425781 35.453125 48.53125 35.558594 48.667969 35.558594 C 48.804688 35.558594 48.914062 35.453125 48.914062 35.320312 C 48.914062 35.191406 48.804688 35.082031 48.667969 35.082031 "/>
<path style=" stroke:none;fill-rule:nonzero;fill:rgb(13.729858%,12.159729%,12.548828%);fill-opacity:1;" d="M 62.570312 67 C 61.644531 67.742188 60.917969 68.25 60.332031 68.664062 C 58.960938 69.628906 58.015625 70.507812 58.066406 71.566406 L 58.171875 72.628906 C 57.351562 72.230469 57.042969 71.792969 56.964844 70.964844 C 56.753906 68.597656 59.078125 66.859375 59.800781 66.382812 C 60.285156 66.054688 60.710938 65.839844 61.09375 65.640625 C 61.84375 65.257812 62.542969 64.902344 62.542969 64.066406 C 62.542969 63.277344 61.796875 62.695312 61.074219 62.304688 C 63.0625 61.148438 65.414062 58.828125 65.867188 54.207031 C 66.171875 54.628906 66.472656 55.058594 66.679688 55.359375 C 68.210938 57.625 67.644531 62.925781 62.570312 67 Z M 64.664062 53.460938 C 64.371094 58.671875 61.574219 60.796875 59.707031 61.644531 Z M 32.484375 53.460938 L 37.441406 61.644531 C 35.570312 60.796875 32.773438 58.671875 32.484375 53.460938 Z M 34.601562 64.066406 C 34.601562 64.902344 35.304688 65.257812 36.050781 65.640625 C 36.433594 65.839844 36.863281 66.054688 37.347656 66.382812 C 38.070312 66.859375 40.394531 68.597656 40.183594 70.964844 C 40.105469 71.792969 39.796875 72.230469 38.972656 72.628906 L 39.082031 71.566406 C 39.128906 70.507812 38.183594 69.628906 36.8125 68.664062 C 36.230469 68.25 35.503906 67.742188 34.578125 67 C 29.503906 62.925781 28.9375 57.625 30.46875 55.359375 C 30.671875 55.058594 30.972656 54.628906 31.277344 54.207031 C 31.730469 58.828125 34.085938 61.148438 36.070312 62.304688 C 35.347656 62.695312 34.601562 63.277344 34.601562 64.066406 Z M 67.726562 54.695312 C 67.15625 53.859375 65.535156 52.050781 65.527344 52.039062 L 65.796875 51.621094 C 66.390625 51.5625 66.855469 51.070312 66.855469 50.460938 C 66.855469 49.816406 66.332031 49.292969 65.6875 49.292969 C 65.039062 49.292969 64.515625 49.816406 64.515625 50.460938 C 64.515625 50.585938 64.542969 50.707031 64.578125 50.820312 C 64.566406 50.828125 64.550781 50.832031 64.554688 50.855469 L 48.574219 77.609375 L 32.589844 50.855469 C 32.597656 50.832031 32.578125 50.828125 32.570312 50.820312 C 32.605469 50.707031 32.628906 50.585938 32.628906 50.460938 C 32.628906 49.816406 32.105469 49.292969 31.460938 49.292969 C 30.816406 49.292969 30.289062 49.816406 30.289062 50.460938 C 30.289062 51.070312 30.757812 51.5625 31.347656 51.621094 L 31.621094 52.039062 C 31.609375 52.050781 29.992188 53.859375 29.417969 54.695312 C 27.699219 57.234375 27.890625 63.199219 33.777344 67.929688 C 34.730469 68.695312 35.476562 69.21875 36.074219 69.640625 C 37.382812 70.558594 37.890625 70.976562 37.832031 71.660156 L 37.601562 74.601562 L 39.324219 73.804688 C 40.679688 73.207031 41.3125 72.390625 41.429688 71.074219 C 41.613281 69.035156 40.351562 66.910156 38.058594 65.382812 C 37.515625 65.027344 37.027344 64.769531 36.636719 64.574219 C 36.25 64.378906 35.890625 64.167969 35.855469 64.066406 C 35.78125 63.835938 36.214844 63.46875 37.476562 62.902344 C 37.605469 62.847656 37.839844 62.746094 38.054688 62.65625 L 48.574219 80.011719 L 59.09375 62.65625 C 59.304688 62.746094 59.542969 62.847656 59.671875 62.902344 C 60.933594 63.46875 61.363281 63.835938 61.289062 64.066406 C 61.257812 64.167969 60.898438 64.378906 60.511719 64.574219 C 60.117188 64.769531 59.632812 65.027344 59.089844 65.382812 C 56.792969 66.910156 55.53125 69.035156 55.71875 71.074219 C 55.835938 72.390625 56.46875 73.207031 57.824219 73.804688 L 59.542969 74.601562 L 59.3125 71.660156 C 59.257812 70.976562 59.761719 70.558594 61.074219 69.640625 C 61.671875 69.21875 62.414062 68.695312 63.367188 67.929688 C 69.257812 63.199219 69.449219 57.234375 67.726562 54.695312 "/>
<path style=" stroke:none;fill-rule:nonzero;fill:rgb(13.729858%,12.159729%,12.548828%);fill-opacity:1;" d="M 70.414062 46.308594 C 68.234375 45.195312 65.617188 44.265625 62.832031 43.53125 C 62.882812 43.242188 62.925781 42.953125 62.953125 42.679688 C 63.027344 41.902344 62.878906 41.304688 62.519531 40.910156 C 62.253906 40.621094 61.898438 40.460938 61.519531 40.460938 C 61.101562 40.460938 60.335938 40.65625 59.871094 41.953125 C 59.765625 42.242188 59.652344 42.511719 59.527344 42.773438 C 55.796875 42.027344 51.953125 41.628906 48.550781 41.628906 C 45.148438 41.628906 41.355469 42.03125 37.621094 42.773438 C 37.496094 42.511719 37.378906 42.242188 37.277344 41.953125 C 36.8125 40.65625 36.042969 40.460938 35.628906 40.460938 C 35.246094 40.460938 34.890625 40.621094 34.628906 40.910156 C 34.269531 41.304688 34.121094 41.902344 34.195312 42.679688 C 34.21875 42.949219 34.261719 43.234375 34.316406 43.519531 C 31.511719 44.253906 28.878906 45.1875 26.691406 46.308594 L 26.691406 31.777344 C 26.691406 31.777344 32.410156 26.839844 48.550781 26.839844 C 64.6875 26.839844 70.414062 31.777344 70.414062 31.777344 Z M 43.027344 48.898438 C 44.257812 49.328125 43.292969 51.632812 41.574219 50.921875 C 37.5625 49.253906 35.652344 45.589844 35.371094 42.574219 C 35.261719 41.421875 35.832031 41.261719 36.21875 42.34375 C 37.726562 46.535156 41.285156 48.292969 43.027344 48.898438 Z M 54.050781 47.785156 C 53.664062 47.910156 53.324219 48 53.085938 48.050781 C 52.601562 48.152344 52.113281 48.230469 51.507812 47.726562 C 50.90625 47.222656 50.792969 46.921875 48.574219 46.921875 C 46.351562 46.921875 46.242188 47.222656 45.636719 47.726562 C 45.035156 48.230469 44.542969 48.152344 44.058594 48.050781 C 43.855469 48.007812 43.5625 47.933594 43.234375 47.835938 C 42.195312 47.464844 40.183594 46.503906 38.652344 44.492188 C 42.050781 43.820312 45.511719 43.457031 48.613281 43.457031 C 51.691406 43.457031 55.132812 43.8125 58.507812 44.472656 C 57.039062 46.410156 55.128906 47.378906 54.050781 47.785156 Z M 54.175781 48.898438 C 55.917969 48.292969 59.476562 46.535156 60.984375 42.34375 C 61.371094 41.261719 61.941406 41.421875 61.832031 42.574219 C 61.554688 45.589844 59.640625 49.253906 55.628906 50.921875 C 53.910156 51.632812 52.945312 49.328125 54.175781 48.898438 Z M 48.609375 56.210938 L 48.609375 56.21875 C 48.605469 56.21875 48.601562 56.214844 48.601562 56.214844 C 48.597656 56.214844 48.597656 56.21875 48.59375 56.21875 L 48.59375 56.210938 C 45.15625 54.789062 42.566406 55.136719 42.140625 54.027344 C 41.871094 53.332031 42.625 52.296875 43.03125 51.960938 C 43.519531 51.558594 44.160156 52.0625 43.675781 52.609375 C 43.273438 53.0625 43.007812 53.355469 43.183594 53.691406 C 43.421875 54.140625 45.695312 54.03125 48.601562 55.125 C 51.507812 54.03125 53.78125 54.140625 54.019531 53.691406 C 54.195312 53.355469 53.929688 53.0625 53.527344 52.609375 C 53.042969 52.0625 53.683594 51.558594 54.167969 51.960938 C 54.578125 52.296875 55.332031 53.332031 55.0625 54.027344 C 54.636719 55.136719 52.046875 54.789062 48.609375 56.210938 Z M 50.539062 56.992188 C 50.539062 56.992188 50.789062 56.550781 51.550781 56.339844 C 51.441406 56.476562 51.367188 56.640625 51.367188 56.828125 C 51.367188 57.28125 51.742188 57.648438 52.203125 57.648438 C 52.671875 57.648438 53.050781 57.28125 53.050781 56.828125 C 53.050781 56.582031 52.941406 56.371094 52.769531 56.222656 C 53.433594 56.097656 54.121094 55.761719 54.121094 55.761719 C 53.96875 56.242188 53.617188 58.078125 52.414062 58.207031 C 50.925781 58.375 50.539062 56.992188 50.539062 56.992188 Z M 45 57.648438 C 45.460938 57.648438 45.835938 57.28125 45.835938 56.828125 C 45.835938 56.640625 45.761719 56.476562 45.652344 56.339844 C 46.414062 56.550781 46.664062 56.992188 46.664062 56.992188 C 46.664062 56.992188 46.28125 58.375 44.789062 58.207031 C 43.582031 58.078125 43.234375 56.242188 43.082031 55.761719 C 43.082031 55.761719 43.769531 56.097656 44.433594 56.222656 C 44.265625 56.371094 44.152344 56.582031 44.152344 56.828125 C 44.152344 57.28125 44.53125 57.648438 45 57.648438 Z M 45.894531 67.085938 C 45.660156 66.949219 45.714844 66.5625 46.09375 66.414062 C 46.539062 66.238281 47.335938 65.777344 47.5625 64.96875 C 47.765625 64.230469 47.476562 63.726562 47.144531 63.644531 C 46.832031 63.570312 46.496094 63.777344 46.632812 64.160156 C 46.726562 64.449219 47.035156 64.597656 47.152344 64.667969 C 47.339844 64.78125 47.175781 65.03125 46.9375 64.984375 C 46.414062 64.882812 46.113281 64.3125 46.132812 63.90625 C 46.15625 63.28125 46.871094 63.132812 47.265625 63.207031 C 47.878906 63.324219 48.324219 63.933594 48.070312 64.984375 C 47.832031 65.980469 46.953125 66.515625 46.492188 66.726562 C 46.894531 66.894531 47.761719 67.03125 48.601562 67.082031 C 49.441406 67.03125 50.308594 66.894531 50.710938 66.726562 C 50.25 66.515625 49.371094 65.980469 49.132812 64.984375 C 48.878906 63.933594 49.324219 63.324219 49.9375 63.207031 C 50.332031 63.132812 51.046875 63.28125 51.070312 63.90625 C 51.089844 64.3125 50.789062 64.882812 50.265625 64.984375 C 50.027344 65.03125 49.863281 64.78125 50.050781 64.667969 C 50.164062 64.597656 50.476562 64.449219 50.574219 64.160156 C 50.707031 63.777344 50.371094 63.570312 50.058594 63.644531 C 49.726562 63.726562 49.4375 64.230469 49.640625 64.96875 C 49.867188 65.777344 50.664062 66.238281 51.109375 66.414062 C 51.488281 66.5625 51.542969 66.949219 51.308594 67.085938 C 50.519531 67.535156 49.367188 67.632812 48.660156 67.644531 C 48.640625 67.644531 48.621094 67.644531 48.601562 67.644531 C 48.582031 67.644531 48.5625 67.644531 48.546875 67.644531 C 47.835938 67.632812 46.683594 67.535156 45.894531 67.085938 Z M 70.414062 56.152344 C 70.414062 68.351562 53.089844 82.453125 48.613281 83.714844 C 44.132812 82.453125 26.691406 68.351562 26.691406 56.152344 L 26.691406 48.597656 C 28.992188 47.292969 31.816406 46.21875 34.828125 45.390625 C 35.5 47.222656 36.71875 49.121094 38.625 50.5625 C 37.042969 51.113281 35.238281 51.160156 33.847656 50.234375 C 34.300781 51.398438 35.722656 52.910156 36.75 53.910156 C 36.9375 53.785156 37.125 53.621094 37.261719 53.476562 C 37.675781 53.035156 38.046875 53.425781 37.765625 53.789062 C 37.667969 53.917969 37.414062 54.277344 37.269531 54.398438 C 37.574219 54.679688 37.796875 54.878906 37.863281 54.9375 C 38.074219 54.808594 38.285156 54.621094 38.4375 54.460938 C 38.851562 54.019531 39.222656 54.40625 38.941406 54.773438 C 38.84375 54.902344 38.578125 55.277344 38.433594 55.390625 C 38.6875 55.59375 38.964844 55.8125 39.210938 55.980469 C 39.726562 55.328125 40.28125 54.644531 41.121094 55.070312 C 42.007812 55.523438 41.128906 56.121094 41.128906 57.011719 C 41.128906 60.558594 43.316406 61.875 43.867188 63.378906 C 44.421875 64.878906 45.015625 67.566406 45.433594 68.300781 C 45.847656 69.03125 47.722656 69.832031 48.574219 69.164062 C 49.425781 69.832031 51.28125 69.023438 51.714844 68.300781 C 52.15625 67.566406 52.679688 64.878906 53.234375 63.378906 C 53.785156 61.875 56.019531 60.558594 56.019531 57.011719 C 56.019531 56.121094 55.136719 55.523438 56.023438 55.070312 C 56.863281 54.644531 57.417969 55.328125 57.9375 55.980469 C 58.183594 55.8125 58.460938 55.59375 58.714844 55.390625 C 58.566406 55.277344 58.304688 54.902344 58.203125 54.773438 C 57.921875 54.40625 58.296875 54.019531 58.710938 54.460938 C 58.859375 54.621094 59.074219 54.808594 59.28125 54.9375 C 59.347656 54.878906 59.570312 54.679688 59.878906 54.398438 C 59.730469 54.277344 59.476562 53.917969 59.378906 53.789062 C 59.097656 53.425781 59.472656 53.035156 59.886719 53.476562 C 60.023438 53.621094 60.207031 53.785156 60.394531 53.910156 C 61.421875 52.910156 62.84375 51.398438 63.300781 50.234375 C 61.964844 51.125 60.007812 51.113281 58.449219 50.617188 C 60.40625 49.164062 61.648438 47.226562 62.332031 45.359375 C 65.328125 46.179688 68.132812 47.238281 70.414062 48.523438 Z M 48.558594 25.023438 C 31.742188 25.023438 24.777344 30.667969 24.777344 30.667969 L 24.777344 55.957031 C 24.777344 69.964844 43.300781 84.496094 48.558594 85.941406 C 53.808594 84.496094 72.332031 69.964844 72.332031 55.957031 L 72.332031 30.667969 C 72.332031 30.667969 65.371094 25.023438 48.558594 25.023438 "/>
</g>
</svg>
