<?xml version="1.0" encoding="UTF-8" standalone="no"?>
<svg
   xmlns:dc="http://purl.org/dc/elements/1.1/"
   xmlns:cc="http://creativecommons.org/ns#"
   xmlns:rdf="http://www.w3.org/1999/02/22-rdf-syntax-ns#"
   xmlns:svg="http://www.w3.org/2000/svg"
   xmlns="http://www.w3.org/2000/svg"
   xmlns:sodipodi="http://sodipodi.sourceforge.net/DTD/sodipodi-0.dtd"
   xmlns:inkscape="http://www.inkscape.org/namespaces/inkscape"
   width="47.554691pt"
   height="60.917973pt"
   viewBox="0 0 47.554689 60.917971"
   version="1.1"
   id="svg61"
   sodipodi:docname="uc-logoonly-black.svg"
   inkscape:version="0.92.5 (2060ec1f9f, 2020-04-08)">
  <metadata
     id="metadata67">
    <rdf:RDF>
      <cc:Work
         rdf:about="">
        <dc:format>image/svg+xml</dc:format>
        <dc:type
           rdf:resource="http://purl.org/dc/dcmitype/StillImage" />
        <dc:title></dc:title>
      </cc:Work>
    </rdf:RDF>
  </metadata>
  <defs
     id="defs65" />
  <sodipodi:namedview
     pagecolor="#ffffff"
     bordercolor="#666666"
     borderopacity="1"
     objecttolerance="10"
     gridtolerance="10"
     guidetolerance="10"
     inkscape:pageopacity="0"
     inkscape:pageshadow="2"
     inkscape:window-width="640"
     inkscape:window-height="480"
     id="namedview63"
     showgrid="false"
     fit-margin-top="0"
     fit-margin-left="0"
     fit-margin-right="0"
     fit-margin-bottom="0"
     inkscape:zoom="0.90675944"
     inkscape:cx="148.93021"
     inkscape:cy="40.675212"
     inkscape:window-x="72"
     inkscape:window-y="27"
     inkscape:window-maximized="0"
     inkscape:current-layer="svg61" />
  <path
     inkscape:connector-curvature="0"
     id="path40"
     d="m 41.132812,12.613281 c -0.273437,0.46875 -0.546875,0.738281 -0.78125,0.738281 -0.128906,0 -0.347656,-0.07422 -0.6875,-0.4375 C 38.867187,12.0625 37.90625,11.902343 36.925781,12.480468 V 6.875 c 0.6875,-0.640626 1.070313,-0.78125 1.269531,-0.78125 0.113282,0 0.253906,0.03516 0.488282,0.285156 0.05859,0.0625 0.117187,0.128906 0.175781,0.191406 0.324219,0.375 0.726562,0.847656 1.433593,0.847656 0.261719,0 0.539063,-0.07031 0.839844,-0.210937 z m -5.140625,-0.132813 c -0.382812,-0.226562 -0.765625,-0.34375 -1.144531,-0.34375 -0.574219,0 -1.105469,0.261719 -1.59375,0.777344 -0.335938,0.363281 -0.558594,0.4375 -0.683594,0.4375 -0.238281,0 -0.507812,-0.269531 -0.78125,-0.738281 v -5.40625 c 0.300782,0.140625 0.578125,0.210937 0.839844,0.210937 0.703125,0 1.113281,-0.472656 1.433594,-0.847656 0.05859,-0.0625 0.117187,-0.128906 0.171875,-0.191406 0.234375,-0.25 0.378906,-0.285156 0.492187,-0.285156 0.203125,0 0.582032,0.140624 1.265625,0.78125 z m 6.066407,-5.710937 v -1.28125 l -0.75,0.550781 c -0.53125,0.398438 -0.84375,0.484375 -1.015626,0.484375 -0.253906,0 -0.445312,-0.199219 -0.726562,-0.527344 C 39.503906,5.921873 39.4375,5.847656 39.371094,5.777343 39.003906,5.386718 38.625,5.199218 38.191406,5.199218 c -0.507812,0 -1.058594,0.289063 -1.730469,0.878906 -0.671875,-0.589843 -1.222656,-0.878906 -1.734375,-0.878906 -0.433594,0 -0.8125,0.1875 -1.183594,0.578125 -0.0625,0.07031 -0.125,0.144531 -0.195312,0.21875 -0.28125,0.328125 -0.464844,0.527344 -0.722656,0.527344 -0.171875,0 -0.488282,-0.08594 -1.015625,-0.484375 l -0.75,-0.550781 v 1.28125 l -0.386719,0.109375 v 7.691406 l 2.207031,-0.332031 c 0.03516,-0.0039 0.07031,-0.01172 0.105469,-0.01563 l 2.898438,-0.4375 v 0.488281 h 1.554687 v -0.488281 l 5.210937,1.109375 V 6.878901 L 42.058594,6.769526"
     style="fill:#211e1e;fill-opacity:1;fill-rule:nonzero;stroke:none" />
  <path
     inkscape:connector-curvature="0"
     id="path42"
     d="m 15.804687,12.613281 c -0.273437,0.46875 -0.542969,0.738281 -0.78125,0.738281 -0.128906,0 -0.347656,-0.07422 -0.683593,-0.4375 -0.488282,-0.515625 -1.019532,-0.777344 -1.59375,-0.777344 -0.382813,0 -0.761719,0.117188 -1.144532,0.34375 V 6.875 c 0.679688,-0.640626 1.0625,-0.78125 1.265625,-0.78125 0.113281,0 0.253907,0.03516 0.488281,0.285156 0.05859,0.0625 0.117188,0.128906 0.175782,0.191406 0.320312,0.375 0.730468,0.847656 1.433594,0.847656 0.261718,0 0.539062,-0.07031 0.839843,-0.210937 z M 10.667968,12.480468 C 9.6875,11.902343 8.726562,12.0625 7.925781,12.914062 c -0.339844,0.363281 -0.558594,0.4375 -0.6875,0.4375 -0.230469,0 -0.503906,-0.269531 -0.78125,-0.738281 v -5.40625 c 0.300781,0.140625 0.578125,0.210937 0.839844,0.210937 0.707031,0 1.109375,-0.472656 1.4375,-0.847656 0.05859,-0.0625 0.117187,-0.128906 0.175781,-0.191406 0.234375,-0.25 0.375,-0.285156 0.488281,-0.285156 0.199219,0 0.582031,0.140624 1.269531,0.78125 z m 6.0625,-5.710937 v -1.28125 l -0.746093,0.550781 c -0.527344,0.398438 -0.847657,0.484375 -1.019531,0.484375 -0.253907,0 -0.4375,-0.199219 -0.722657,-0.527344 -0.06641,-0.07422 -0.132812,-0.148437 -0.195312,-0.21875 -0.367188,-0.390625 -0.746094,-0.578125 -1.179688,-0.578125 -0.511719,0 -1.0625,0.289063 -1.738281,0.878906 C 10.460937,5.488281 9.90625,5.199218 9.398437,5.199218 c -0.429687,0 -0.8125,0.1875 -1.175781,0.578125 C 8.156246,5.847653 8.089844,5.921874 8.023437,5.996093 7.746094,6.324218 7.550781,6.523437 7.296875,6.523437 7.128906,6.523437 6.8125,6.437497 6.285156,6.039062 L 5.53125,5.488281 v 1.28125 L 5.140625,6.878906 v 8.015625 l 5.214843,-1.109375 v 0.488281 h 1.554688 v -0.488281 l 2.898438,0.4375 c 0.03516,0.0039 0.07031,0.01172 0.105468,0.01563 l 2.207032,0.332031 V 6.878911 L 16.730468,6.769536"
     style="fill:#211e1e;fill-opacity:1;fill-rule:nonzero;stroke:none" />
  <path
     inkscape:connector-curvature="0"
     id="path44"
     d="m 27.488281,10.183593 c -0.05859,0.05078 -0.113281,0.07031 -0.171875,0.05859 -0.3125,-0.04297 -1.085938,-0.265621 -1.363281,-0.410152 -0.03906,-0.01953 -0.07422,-0.04297 -0.101563,-0.05859 -0.203125,-0.144531 -0.332031,-0.34375 -0.433594,-0.523437 -0.03125,-0.246094 -0.04687,-0.53125 0.08203,-0.78125 0.132812,-0.273438 0.644531,-0.921876 0.863281,-1.113282 0.121094,-0.117187 0.390625,-0.0039 0.492187,0.07031 0.02344,0.01172 0.03125,0.02344 0.03125,0.02344 0.128907,0.175782 0.8125,2.207032 0.808594,2.417969 -0.0039,0.04297 -0.07813,0.222656 -0.207031,0.316406 z M 26.9375,11.832031 c 0,0.02344 -0.01172,0.02734 -0.01172,0.02734 -0.125,0.179688 -1.917969,1.429688 -2.136719,1.492188 -0.04297,0.0078 -0.238281,-0.0039 -0.378906,-0.08203 -0.05469,-0.04297 -0.09375,-0.08984 -0.109375,-0.144531 -0.05078,-0.304688 -0.08984,-1.082032 -0.03125,-1.378907 0.0078,-0.03906 0.01563,-0.07422 0.03125,-0.113281 0.07422,-0.230469 0.234375,-0.414062 0.382813,-0.5625 0.230468,-0.101562 0.503906,-0.203125 0.796874,-0.164062 0.308594,0.04297 1.121094,0.304687 1.378907,0.449218 0.152343,0.07813 0.125,0.359375 0.07813,0.476563 z m -3.121094,-0.890625 c -0.289062,0 -0.53125,-0.160156 -0.648438,-0.390625 -0.01172,0 -0.01562,0.0039 -0.02344,0.0039 -0.316406,0 -0.605469,-0.195313 -0.699219,-0.496094 -0.0625,-0.179687 -0.04687,-0.367187 0.04297,-0.542969 0.03516,-0.07031 0.08984,-0.125 0.144531,-0.175781 -0.03906,-0.109375 -0.0625,-0.222656 -0.03516,-0.34375 0.02344,-0.191406 0.132812,-0.355469 0.289062,-0.464843 0.222657,-0.15625 0.527344,-0.160157 0.773438,-0.04297 0.25,-0.183594 0.613281,-0.210938 0.875,-0.02734 0.15625,0.117187 0.261719,0.277344 0.289062,0.464844 0.01563,0.07813 0.0078,0.152343 -0.0078,0.230469 0.101562,0.06641 0.191406,0.148437 0.25,0.253906 0.08594,0.171875 0.105469,0.363281 0.04297,0.542968 -0.08984,0.261719 -0.320313,0.4375 -0.597657,0.476563 -0.08984,0.292969 -0.363281,0.511719 -0.695312,0.511719 z m -0.746094,2.105468 c -0.03125,0.164063 -0.324218,0.222657 -0.445312,0.222657 -0.03516,0 -0.04297,0 -0.04297,0 -0.207031,-0.06641 -1.996094,-1.324219 -2.128906,-1.496094 -0.01953,-0.04297 -0.06641,-0.230469 -0.02734,-0.375 0.01953,-0.07031 0.05469,-0.117187 0.105469,-0.140625 0.277344,-0.152344 1.019531,-0.425781 1.335937,-0.464844 0.03906,-0.0078 0.07813,-0.0078 0.121094,-0.0078 0.242187,0 0.46875,0.08984 0.664063,0.179687 0.175781,0.179688 0.359374,0.398438 0.410156,0.675781 0.0625,0.296876 0.0625,1.125 0.0078,1.40625 z M 19.871094,9.757812 c -0.01172,-0.02734 -0.01172,-0.03906 -0.01172,-0.03906 -0.0039,-0.210938 0.691406,-2.246094 0.820312,-2.410157 0.02734,-0.03516 0.203125,-0.136719 0.359375,-0.148437 0.07031,-0.0039 0.128906,0.01172 0.175782,0.05469 0.226562,0.210938 0.710937,0.804688 0.847656,1.074219 0.01953,0.04297 0.03125,0.07422 0.04297,0.109375 0.06641,0.226563 0.05859,0.46875 0.03125,0.671875 -0.121093,0.21875 -0.285156,0.453125 -0.539062,0.585938 -0.273438,0.144531 -1.078125,0.402343 -1.371094,0.433593 -0.179687,0.02344 -0.320312,-0.21875 -0.355468,-0.332031 z m 2.609374,-3.617188 c 0.02344,-0.01172 0.03516,-0.01562 0.03516,-0.01562 0.210937,-0.07031 2.429687,-0.06641 2.632812,0.0039 0.04297,0.01172 0.195313,0.144531 0.253907,0.285156 0.03125,0.06641 0.03125,0.125 0,0.171875 -0.132813,0.277344 -0.589844,0.90625 -0.816407,1.113281 -0.03125,0.02734 -0.05859,0.04687 -0.08984,0.07422 -0.203126,0.140625 -0.445313,0.207031 -0.65625,0.234375 -0.246094,-0.04297 -0.523438,-0.121094 -0.742188,-0.3125 -0.226562,-0.210938 -0.710938,-0.859375 -0.839844,-1.125 -0.07031,-0.152344 0.121094,-0.359375 0.222656,-0.429688 z m 5.871094,4.289063 c 0.136719,-0.175781 0.214844,-0.378906 0.214844,-0.480469 0.0078,-0.355468 -0.914062,-3.125 -1.136719,-3.402344 -0.05469,-0.07812 -0.25,-0.210937 -0.484375,-0.273437 0.101563,-0.328125 0.05859,-0.625 -0.132812,-0.757813 -0.203125,-0.144531 -0.519532,-0.07031 -0.835938,0.140626 -0.128906,-0.179688 -0.300781,-0.320313 -0.40625,-0.355469 -0.21875,-0.07031 -1.386718,-0.08984 -2.046875,-0.08984 -0.425781,0 -1.4375,0.0039 -1.664062,0.07813 C 21.75,5.324231 21.546875,5.48829 21.414062,5.695321 21.121094,5.492196 20.816406,5.437509 20.621094,5.574227 20.421875,5.714852 20.390625,6.01954 20.5,6.359383 c -0.210938,0.07031 -0.382813,0.1875 -0.441406,0.257813 -0.226563,0.28125 -1.160157,3.039063 -1.15625,3.394531 0,0.105469 0.09766,0.351563 0.261718,0.535156 -0.308594,0.21875 -0.472656,0.492188 -0.398437,0.722657 0.07422,0.234375 0.382812,0.351562 0.765625,0.351562 0.01172,0.195313 0.0625,0.375 0.125,0.453125 0.203125,0.289063 2.640625,2.003906 2.984375,2.113282 0.04297,0.01172 0.08984,0.01562 0.148437,0.01562 0.125,0 0.285156,-0.02734 0.433594,-0.08203 0.113281,0.363281 0.335938,0.609375 0.589844,0.609375 0.257812,0 0.484375,-0.261718 0.59375,-0.632812 0.132812,0.03125 0.253906,0.05078 0.367187,0.05078 0.05469,0 0.101563,-0.0039 0.140625,-0.01172 0.34375,-0.105468 2.789063,-1.808594 3.003906,-2.09375 0.05859,-0.08594 0.117188,-0.296875 0.113282,-0.511718 0.378906,-0.0039 0.679687,-0.128907 0.757812,-0.355469 0.08203,-0.242188 -0.109375,-0.519531 -0.4375,-0.746094"
     style="fill:#211e1e;fill-opacity:1;fill-rule:nonzero;stroke:none" />
  <path
     inkscape:connector-curvature="0"
     id="path46"
     d="m 23.023437,9.757812 c -0.125,0.04297 -0.191406,0.179688 -0.152343,0.300781 0.04297,0.125 0.179687,0.191407 0.3125,0.152344 0.128906,-0.04297 0.199218,-0.171875 0.152343,-0.300781 -0.03516,-0.125 -0.171875,-0.191406 -0.3125,-0.152344"
     style="fill:#211e1e;fill-opacity:1;fill-rule:nonzero;stroke:none" />
  <path
     inkscape:connector-curvature="0"
     id="path48"
     d="m 24.148437,8.78125 c -0.117187,-0.07422 -0.265625,-0.05469 -0.34375,0.05469 -0.08203,0.105469 -0.05859,0.257813 0.05469,0.332031 0.105469,0.07813 0.261719,0.05078 0.335937,-0.05469 0.08203,-0.101563 0.0625,-0.253907 -0.04687,-0.332031"
     style="fill:#211e1e;fill-opacity:1;fill-rule:nonzero;stroke:none" />
  <path
     inkscape:connector-curvature="0"
     id="path50"
     d="m 23.023437,8.972656 c -0.105469,0.07813 -0.132812,0.222656 -0.05078,0.332031 0.07813,0.105469 0.230469,0.136719 0.347656,0.05859 0.105469,-0.08203 0.128906,-0.230469 0.04687,-0.335938 -0.08203,-0.105469 -0.230469,-0.132812 -0.34375,-0.05469"
     style="fill:#211e1e;fill-opacity:1;fill-rule:nonzero;stroke:none" />
  <path
     inkscape:connector-curvature="0"
     id="path52"
     d="m 24.679687,9.746093 c 0.04297,-0.121093 -0.03125,-0.253906 -0.15625,-0.296875 -0.128906,-0.042968 -0.265625,0.027344 -0.3125,0.152344 -0.03906,0.125 0.03125,0.265625 0.164063,0.296875 0.125,0.03906 0.265625,-0.02734 0.304687,-0.152344"
     style="fill:#211e1e;fill-opacity:1;fill-rule:nonzero;stroke:none" />
  <path
     inkscape:connector-curvature="0"
     id="path54"
     d="m 23.890625,10.058593 c -0.136719,0 -0.242188,0.109375 -0.242188,0.238281 0,0.132813 0.105469,0.238282 0.242188,0.238282 0.136719,0 0.246093,-0.105469 0.246093,-0.238282 0,-0.128906 -0.109374,-0.238281 -0.246093,-0.238281"
     style="fill:#211e1e;fill-opacity:1;fill-rule:nonzero;stroke:none" />
  <path
     inkscape:connector-curvature="0"
     id="path56"
     d="m 37.792968,41.976562 c -0.925781,0.742188 -1.652343,1.25 -2.238281,1.664062 -1.371093,0.964844 -2.316406,1.84375 -2.265625,2.902344 l 0.105469,1.0625 c -0.820313,-0.398437 -1.128906,-0.835937 -1.207031,-1.664062 -0.210938,-2.367188 2.113281,-4.105469 2.835937,-4.582032 0.484375,-0.328124 0.910157,-0.542968 1.292969,-0.742187 0.75,-0.382813 1.449219,-0.738281 1.449219,-1.574219 0,-0.789062 -0.746094,-1.371094 -1.46875,-1.761718 1.988281,-1.15625 4.339843,-3.476563 4.792969,-8.097657 0.304687,0.421875 0.605468,0.851563 0.8125,1.152344 1.53125,2.265625 0.964843,7.566406 -4.109376,11.640625 z M 39.886718,28.4375 c -0.292968,5.210937 -3.089843,7.335937 -4.957031,8.183593 z m -32.179687,0 4.957031,8.183593 C 10.792968,35.773437 7.996094,33.648437 7.707031,28.4375 Z m 2.117187,10.605468 c 0,0.835938 0.703126,1.191406 1.449219,1.574219 0.382813,0.199219 0.8125,0.414063 1.296875,0.742187 0.722656,0.476563 3.046875,2.214844 2.835938,4.582032 -0.07813,0.828125 -0.386719,1.265625 -1.210938,1.664062 l 0.109375,-1.0625 c 0.04687,-1.058594 -0.898437,-1.9375 -2.269531,-2.902344 C 11.453125,43.226562 10.726562,42.71875 9.800781,41.976562 4.726562,37.902343 4.160156,32.601562 5.691406,30.335937 5.894531,30.035156 6.195312,29.605468 6.5,29.183593 c 0.453125,4.621094 2.808594,6.941407 4.792968,8.097657 -0.722656,0.390624 -1.46875,0.972656 -1.46875,1.761718 z m 33.125,-9.371094 C 42.378906,28.835937 40.757812,27.027343 40.75,27.015624 l 0.269531,-0.417968 c 0.59375,-0.05859 1.058594,-0.550782 1.058594,-1.160156 0,-0.644532 -0.523438,-1.167969 -1.167969,-1.167969 -0.648438,0 -1.171875,0.523437 -1.171875,1.167969 0,0.125 0.02734,0.246093 0.0625,0.359374 -0.01172,0.0078 -0.02734,0.01172 -0.02344,0.03516 L 23.796875,52.585937 7.8125,25.832031 c 0.0078,-0.02344 -0.01172,-0.02734 -0.01953,-0.03516 0.03516,-0.113281 0.05859,-0.234374 0.05859,-0.359374 0,-0.644532 -0.523437,-1.167969 -1.167968,-1.167969 -0.644532,0 -1.171876,0.523437 -1.171876,1.167969 0,0.609374 0.46875,1.101562 1.058594,1.160156 l 0.273438,0.417968 c -0.01172,0.01172 -1.628906,1.820313 -2.203125,2.65625 -1.71875,2.539063 -1.527344,8.503907 4.359375,13.234376 0.953125,0.765624 1.699218,1.289062 2.296875,1.710937 1.308593,0.917969 1.816406,1.335937 1.757812,2.019531 l -0.230469,2.941406 1.722657,-0.796874 c 1.355469,-0.597657 1.988281,-1.414063 2.105469,-2.730469 0.183593,-2.039063 -1.078126,-4.164063 -3.371094,-5.691407 -0.542969,-0.355468 -1.03125,-0.613281 -1.421875,-0.808593 -0.386719,-0.195313 -0.746094,-0.40625 -0.78125,-0.507813 -0.07422,-0.230468 0.359375,-0.597656 1.621093,-1.164062 0.128907,-0.05469 0.363282,-0.15625 0.578126,-0.246094 L 23.796875,54.988281 34.316406,37.632812 c 0.210938,0.08984 0.449219,0.191406 0.578125,0.246094 1.261719,0.566406 1.691406,0.933594 1.617187,1.164062 -0.03125,0.101563 -0.390624,0.3125 -0.777343,0.507813 -0.394531,0.195312 -0.878907,0.453125 -1.421875,0.808593 -2.296875,1.527344 -3.558594,3.652344 -3.371094,5.691407 0.117188,1.316406 0.75,2.132812 2.105469,2.730469 l 1.71875,0.796874 -0.230469,-2.941406 c -0.05469,-0.683594 0.449219,-1.101562 1.761719,-2.019531 0.597656,-0.421875 1.339843,-0.945313 2.292969,-1.710937 5.890624,-4.730469 6.082031,-10.695313 4.359374,-13.234376"
     style="fill:#211e1e;fill-opacity:1;fill-rule:nonzero;stroke:none" />
  <path
     inkscape:connector-curvature="0"
     id="path58"
     d="m 45.636718,21.285156 c -2.179687,-1.113282 -4.796874,-2.042969 -7.582031,-2.777344 0.05078,-0.289062 0.09375,-0.578125 0.121094,-0.851562 0.07422,-0.777344 -0.07422,-1.375 -0.433594,-1.769532 -0.265625,-0.289062 -0.621093,-0.449218 -1,-0.449218 -0.417969,0 -1.183593,0.195312 -1.648437,1.492187 C 34.988281,17.21875 34.875,17.488281 34.75,17.75 31.019531,17.003906 27.175781,16.605468 23.773437,16.605468 20.371094,16.605468 16.578125,17.007812 12.84375,17.75 12.71875,17.488281 12.601562,17.21875 12.5,16.929687 12.035156,15.632812 11.265625,15.4375 10.851562,15.4375 c -0.382812,0 -0.738281,0.160156 -1,0.449218 -0.359375,0.394532 -0.507812,0.992188 -0.433594,1.769532 0.02344,0.269531 0.06641,0.554687 0.121094,0.839843 -2.804687,0.734375 -5.4375,1.667969 -7.625,2.789063 V 6.753906 c 0,0 5.71875,-4.9375 21.859375,-4.9375 16.136719,0 21.863281,4.9375 21.863281,4.9375 z M 18.25,23.875 c 1.230468,0.429687 0.265625,2.734374 -1.453125,2.023437 -4.011719,-1.667969 -5.921875,-5.332031 -6.203125,-8.347656 -0.109375,-1.152344 0.460937,-1.3125 0.847656,-0.230469 1.507812,4.191406 5.066406,5.949219 6.808594,6.554688 z m 11.023437,-1.113282 c -0.386719,0.125 -0.726562,0.214844 -0.964843,0.265625 -0.484376,0.101563 -0.972657,0.179688 -1.578126,-0.324219 -0.601562,-0.503906 -0.714843,-0.804687 -2.933593,-0.804687 -2.222657,0 -2.332031,0.300781 -2.9375,0.804687 -0.601563,0.503907 -1.09375,0.425782 -1.578125,0.324219 C 19.078125,22.984373 18.785156,22.910156 18.457031,22.8125 17.417968,22.441406 15.40625,21.480468 13.875,19.46875 c 3.398437,-0.671876 6.859375,-1.035157 9.960937,-1.035157 3.078125,0 6.519531,0.355469 9.894531,1.015625 -1.46875,1.9375 -3.378906,2.90625 -4.457031,3.3125 z m 0.125,1.113282 c 1.742188,-0.605469 5.300781,-2.363282 6.808594,-6.554688 0.386719,-1.082031 0.957031,-0.921875 0.847656,0.230469 -0.277343,3.015625 -2.191406,6.679687 -6.203125,8.347656 -1.71875,0.710937 -2.683594,-1.59375 -1.453125,-2.023437 z m -5.566406,7.3125 v 0.0078 c -0.0039,0 -0.0078,-0.0039 -0.0078,-0.0039 -0.0039,0 -0.0039,0.0039 -0.0078,0.0039 v -0.0078 c -3.4375,-1.421876 -6.027344,-1.074219 -6.453125,-2.183594 -0.269531,-0.695313 0.484375,-1.730469 0.890625,-2.066406 0.488281,-0.402344 1.128906,0.101562 0.644531,0.648437 -0.402343,0.453125 -0.667969,0.746094 -0.492187,1.082031 0.238281,0.449219 2.511718,0.339844 5.417968,1.433594 2.90625,-1.09375 5.179688,-0.984375 5.417969,-1.433594 0.175781,-0.335937 -0.08984,-0.628906 -0.492187,-1.082031 -0.484375,-0.546875 0.15625,-1.050781 0.640625,-0.648437 0.410156,0.335937 1.164062,1.371093 0.894531,2.066406 -0.425781,1.109375 -3.015625,0.761718 -6.453125,2.183594 z m 1.929687,0.78125 c 0,0 0.25,-0.441407 1.011719,-0.652344 -0.109375,0.136718 -0.183593,0.300781 -0.183593,0.488281 0,0.453125 0.375,0.820313 0.835937,0.820313 0.46875,0 0.847656,-0.367188 0.847656,-0.820313 0,-0.246094 -0.109375,-0.457031 -0.28125,-0.605469 0.664063,-0.125 1.351563,-0.460937 1.351563,-0.460937 -0.152344,0.480469 -0.503906,2.316406 -1.707032,2.445312 -1.488281,0.167969 -1.875,-1.214843 -1.875,-1.214843 z M 20.222656,32.625 c 0.460938,0 0.835938,-0.367188 0.835938,-0.820313 0,-0.1875 -0.07422,-0.351563 -0.183594,-0.488281 0.761718,0.210937 1.011718,0.652344 1.011718,0.652344 0,0 -0.382812,1.382812 -1.875,1.214843 -1.207031,-0.128906 -1.554687,-1.964843 -1.707031,-2.445312 0,0 0.6875,0.335937 1.351563,0.460937 -0.167969,0.148438 -0.28125,0.359375 -0.28125,0.605469 0,0.453125 0.378906,0.820313 0.847656,0.820313 z m 0.894531,9.4375 c -0.234375,-0.136719 -0.179687,-0.523438 0.199219,-0.671876 0.445312,-0.175781 1.242188,-0.636718 1.46875,-1.445312 0.203125,-0.738281 -0.08594,-1.242188 -0.417969,-1.324219 -0.3125,-0.07422 -0.648437,0.132813 -0.511719,0.515625 0.09375,0.289063 0.402344,0.4375 0.519532,0.507813 0.1875,0.113281 0.02344,0.363281 -0.214844,0.316406 -0.523438,-0.101563 -0.824219,-0.671875 -0.804688,-1.078125 0.02344,-0.625 0.738282,-0.773438 1.132813,-0.699219 0.613281,0.117188 1.058594,0.726563 0.804687,1.777344 -0.238281,0.996094 -1.117187,1.53125 -1.578124,1.742187 0.402343,0.167969 1.269531,0.304688 2.109374,0.355469 0.839844,-0.05078 1.707032,-0.1875 2.109376,-0.355469 -0.460938,-0.210937 -1.339844,-0.746093 -1.578126,-1.742187 -0.253906,-1.050781 0.191407,-1.660156 0.804688,-1.777344 0.394531,-0.07422 1.109375,0.07422 1.132812,0.699219 0.01953,0.40625 -0.28125,0.976562 -0.804687,1.078125 -0.238281,0.04687 -0.402344,-0.203125 -0.214844,-0.316406 0.113281,-0.07031 0.425781,-0.21875 0.523438,-0.507813 0.132812,-0.382812 -0.203125,-0.589844 -0.515625,-0.515625 -0.332032,0.08203 -0.621094,0.585938 -0.417969,1.324219 0.226563,0.808594 1.023437,1.269531 1.46875,1.445312 0.378906,0.148438 0.433594,0.535157 0.199219,0.671876 -0.789063,0.449218 -1.941406,0.546874 -2.648438,0.558593 -0.01953,0 -0.03906,0 -0.05859,0 -0.01953,0 -0.03906,0 -0.05469,0 -0.710937,-0.01172 -1.863281,-0.109375 -2.652345,-0.558593 z M 45.636718,31.128906 c 0,12.199218 -17.324218,26.300781 -21.800781,27.5625 C 19.355468,57.429687 1.914062,43.328124 1.914062,31.128906 v -7.554688 c 2.300782,-1.304687 5.125,-2.378906 8.136719,-3.207031 0.671875,1.832031 1.890625,3.730469 3.796875,5.171875 -1.582031,0.550781 -3.386719,0.597656 -4.777344,-0.328125 0.453125,1.164063 1.875,2.675781 2.902344,3.675781 0.1875,-0.125 0.375,-0.289062 0.511719,-0.433594 0.414062,-0.441406 0.785156,-0.05078 0.503906,0.3125 -0.09766,0.128907 -0.351563,0.488282 -0.496094,0.609376 0.304688,0.28125 0.527344,0.480468 0.59375,0.539062 0.210938,-0.128906 0.421875,-0.316406 0.574219,-0.476562 0.414062,-0.441407 0.785156,-0.05469 0.503906,0.3125 -0.09766,0.128906 -0.363281,0.503906 -0.507812,0.617187 0.253906,0.203125 0.53125,0.421875 0.777344,0.589844 0.515624,-0.652344 1.070312,-1.335938 1.910156,-0.910157 0.886718,0.453126 0.0078,1.050782 0.0078,1.941407 0,3.546875 2.1875,4.863281 2.738282,6.367187 0.554687,1.5 1.148437,4.1875 1.566406,4.921875 0.414062,0.730469 2.289062,1.53125 3.140625,0.863281 0.851562,0.667969 2.707031,-0.140624 3.140625,-0.863281 0.441406,-0.734375 0.964844,-3.421875 1.519531,-4.921875 0.550781,-1.503906 2.785156,-2.820312 2.785156,-6.367187 0,-0.890625 -0.882812,-1.488281 0.0039,-1.941407 0.839843,-0.425781 1.394531,0.257813 1.914062,0.910157 0.246094,-0.167969 0.523438,-0.386719 0.777344,-0.589844 -0.148438,-0.113281 -0.410156,-0.488281 -0.511719,-0.617187 -0.28125,-0.367188 0.09375,-0.753907 0.507813,-0.3125 0.148437,0.160156 0.363281,0.347656 0.570312,0.476562 0.06641,-0.05859 0.289062,-0.257812 0.597656,-0.539062 -0.148437,-0.121094 -0.402344,-0.480469 -0.5,-0.609376 -0.28125,-0.363281 0.09375,-0.753906 0.507813,-0.3125 0.136719,0.144532 0.320312,0.308594 0.507812,0.433594 1.027344,-1 2.449219,-2.511718 2.90625,-3.675781 -1.335937,0.890625 -3.292969,0.878906 -4.851562,0.382813 1.957031,-1.453126 3.199219,-3.390626 3.882812,-5.257813 2.996094,0.820313 5.800781,1.878906 8.082031,3.164063 z M 23.78125,0 C 6.964844,0 0,5.644531 0,5.644531 v 25.289062 c 0,14.007813 18.523437,28.539063 23.78125,29.984375 5.25,-1.445312 23.773437,-15.976562 23.773437,-29.984375 V 5.644531 C 47.554687,5.644531 40.59375,0 23.78125,0"
     style="fill:#211e1e;fill-opacity:1;fill-rule:nonzero;stroke:none" />
</svg>
