<?xml version="1.0" encoding="UTF-8" standalone="no"?>
<svg
   xmlns:dc="http://purl.org/dc/elements/1.1/"
   xmlns:cc="http://creativecommons.org/ns#"
   xmlns:rdf="http://www.w3.org/1999/02/22-rdf-syntax-ns#"
   xmlns:svg="http://www.w3.org/2000/svg"
   xmlns="http://www.w3.org/2000/svg"
   xmlns:sodipodi="http://sodipodi.sourceforge.net/DTD/sodipodi-0.dtd"
   xmlns:inkscape="http://www.inkscape.org/namespaces/inkscape"
   width="47.632816pt"
   height="61.015629pt"
   viewBox="0 0 47.632814 61.015627"
   version="1.1"
   id="svg89"
   sodipodi:docname="uc-logoonly-cmyk.svg"
   inkscape:version="0.92.5 (2060ec1f9f, 2020-04-08)">
  <metadata
     id="metadata95">
    <rdf:RDF>
      <cc:Work
         rdf:about="">
        <dc:format>image/svg+xml</dc:format>
        <dc:type
           rdf:resource="http://purl.org/dc/dcmitype/StillImage" />
        <dc:title></dc:title>
      </cc:Work>
    </rdf:RDF>
  </metadata>
  <defs
     id="defs93" />
  <sodipodi:namedview
     pagecolor="#ffffff"
     bordercolor="#666666"
     borderopacity="1"
     objecttolerance="10"
     gridtolerance="10"
     guidetolerance="10"
     inkscape:pageopacity="0"
     inkscape:pageshadow="2"
     inkscape:window-width="640"
     inkscape:window-height="480"
     id="namedview91"
     showgrid="false"
     fit-margin-top="0"
     fit-margin-left="0"
     fit-margin-right="0"
     fit-margin-bottom="0"
     inkscape:zoom="0.90675944"
     inkscape:cx="149.03438"
     inkscape:cy="40.795004"
     inkscape:window-x="72"
     inkscape:window-y="27"
     inkscape:window-maximized="0"
     inkscape:current-layer="svg89" />
  <path
     inkscape:connector-curvature="0"
     id="path2"
     d="M 23.820312,0 C 6.976562,0 0,5.652344 0,5.652344 v 25.332031 c 0,14.027344 18.554687,28.585938 23.820312,30.03125 5.257813,-1.445312 23.8125,-16.003906 23.8125,-30.03125 V 5.652344 c 0,0 -6.972656,-5.652344 -23.8125,-5.652344"
     style="fill:#211e1e;fill-opacity:1;fill-rule:nonzero;stroke:none" />
  <path
     inkscape:connector-curvature="0"
     id="path4"
     d="m 20.910156,31.363281 c 0.109375,0.136719 0.183594,0.300782 0.183594,0.488282 0,0.457031 -0.378907,0.824218 -0.839844,0.824218 -0.46875,0 -0.847656,-0.367187 -0.847656,-0.824218 0,-0.242188 0.113281,-0.453126 0.285156,-0.605469 -0.667969,-0.121094 -1.359375,-0.457031 -1.359375,-0.457031 0.15625,0.476562 0.503906,2.316406 1.710938,2.445312 1.492187,0.167969 1.878906,-1.214844 1.878906,-1.214844 0,0 -0.25,-0.441406 -1.011719,-0.65625"
     style="fill:#faca05;fill-opacity:1;fill-rule:nonzero;stroke:none" />
  <path
     inkscape:connector-curvature="0"
     id="path6"
     d="m 28.035156,31.246094 c 0.171875,0.152343 0.285156,0.363281 0.285156,0.605469 0,0.457031 -0.378906,0.824218 -0.847656,0.824218 -0.460937,0 -0.839844,-0.367187 -0.839844,-0.824218 0,-0.1875 0.07422,-0.351563 0.183594,-0.488282 -0.765625,0.214844 -1.011719,0.65625 -1.011719,0.65625 0,0 0.382813,1.382813 1.878906,1.214844 1.207032,-0.128906 1.554688,-1.96875 1.707032,-2.445312 0,0 -0.6875,0.335937 -1.355469,0.457031"
     style="fill:#faca05;fill-opacity:1;fill-rule:nonzero;stroke:none" />
  <path
     inkscape:connector-curvature="0"
     id="path8"
     d="m 29.441406,26.980469 c -0.488281,-0.40625 -1.128906,0.101562 -0.644531,0.648437 0.402344,0.457031 0.667968,0.75 0.492187,1.082031 -0.238281,0.449219 -2.511719,0.339844 -5.425781,1.4375 -2.914062,-1.097656 -5.1875,-0.988281 -5.425781,-1.4375 -0.175781,-0.332031 0.08984,-0.625 0.492187,-1.082031 0.484375,-0.546875 -0.15625,-1.054687 -0.644531,-0.648437 -0.410156,0.335937 -1.164063,1.375 -0.890625,2.070312 0.421875,1.109375 3.019531,0.761719 6.460938,2.1875 v 0.0039 c 0.0039,0 0.0039,0 0.0078,0 0.0039,0 0.0039,0 0.0078,0 v -0.0039 c 3.445313,-1.425781 6.039063,-1.078125 6.464844,-2.1875 0.265625,-0.695312 -0.484375,-1.734375 -0.894531,-2.070312"
     style="fill:#faca05;fill-opacity:1;fill-rule:nonzero;stroke:none" />
  <path
     inkscape:connector-curvature="0"
     id="path10"
     d="m 26.375,41.453125 c -0.445313,-0.175781 -1.246094,-0.636719 -1.46875,-1.445312 -0.203125,-0.738282 0.08203,-1.246094 0.414062,-1.324219 0.3125,-0.07813 0.652344,0.132812 0.515625,0.515625 -0.09766,0.289062 -0.40625,0.4375 -0.519531,0.507812 -0.1875,0.113282 -0.02734,0.363282 0.210937,0.316406 0.527344,-0.101562 0.832032,-0.675781 0.808594,-1.078124 -0.02344,-0.628907 -0.738281,-0.777344 -1.132812,-0.703126 -0.617188,0.121094 -1.0625,0.730469 -0.808594,1.78125 0.238281,0.996094 1.121094,1.535157 1.582031,1.746094 C 25.574219,41.9375 24.703125,42.074219 23.863281,42.125 23.023437,42.07422 22.152343,41.9375 21.75,41.769531 c 0.460937,-0.210937 1.34375,-0.75 1.582031,-1.746094 0.253906,-1.050781 -0.191406,-1.660156 -0.808594,-1.78125 -0.394531,-0.07422 -1.109375,0.07422 -1.132812,0.703126 -0.01953,0.402343 0.285156,0.976562 0.808594,1.078124 0.238281,0.04688 0.398437,-0.203124 0.210937,-0.316406 -0.113281,-0.07031 -0.421875,-0.21875 -0.519531,-0.507812 -0.136719,-0.382813 0.199218,-0.59375 0.515625,-0.515625 0.332031,0.07813 0.617187,0.585937 0.417969,1.324219 -0.226563,0.808593 -1.027344,1.269531 -1.472657,1.445312 -0.378906,0.152344 -0.4375,0.539062 -0.199219,0.675781 0.789063,0.449219 1.941407,0.550781 2.65625,0.558594 v 0.0039 c 0.01563,0 0.03516,-0.0039 0.05469,-0.0039 0.01953,0 0.03906,0.0039 0.05859,0.0039 v -0.0039 c 0.710937,-0.0078 1.863281,-0.109375 2.652344,-0.558594 0.238281,-0.136719 0.179687,-0.523437 -0.199219,-0.675781"
     style="fill:#faca05;fill-opacity:1;fill-rule:nonzero;stroke:none" />
  <path
     inkscape:connector-curvature="0"
     id="path12"
     d="m 23.878906,8.019531 c 0.210937,-0.03125 0.453125,-0.09375 0.65625,-0.234375 0.03125,-0.02734 0.05859,-0.05078 0.09375,-0.07422 0.222656,-0.210937 0.679687,-0.839843 0.816406,-1.113281 0.03125,-0.05078 0.03125,-0.105469 0,-0.175781 -0.05859,-0.140625 -0.210937,-0.273438 -0.253906,-0.285156 -0.203125,-0.07031 -2.429687,-0.07422 -2.640625,-0.0039 0,0 -0.0078,0.0039 -0.03516,0.01562 -0.09766,0.07031 -0.292969,0.277344 -0.222656,0.433594 0.128906,0.261719 0.617187,0.914063 0.84375,1.121094 0.214843,0.195312 0.496093,0.273438 0.742187,0.316406"
     style="fill:#faca05;fill-opacity:1;fill-rule:nonzero;stroke:none" />
  <path
     inkscape:connector-curvature="0"
     id="path14"
     d="m 22.175781,9.082031 c 0.02344,-0.199218 0.03516,-0.441406 -0.03516,-0.671875 -0.0078,-0.03516 -0.02344,-0.06641 -0.04297,-0.109375 C 21.960932,8.03125 21.476557,7.4375 21.249995,7.222656 c -0.04687,-0.03906 -0.105469,-0.05469 -0.175781,-0.05469 -0.160157,0.01563 -0.332032,0.117187 -0.363282,0.148437 -0.128906,0.167969 -0.824218,2.207031 -0.820312,2.414063 0,0 0,0.01563 0.01172,0.04297 0.03516,0.113282 0.179688,0.355469 0.359376,0.332032 0.292968,-0.03125 1.097656,-0.289063 1.371093,-0.4375 0.25391,-0.132812 0.417972,-0.367187 0.542972,-0.585937"
     style="fill:#faca05;fill-opacity:1;fill-rule:nonzero;stroke:none" />
  <path
     inkscape:connector-curvature="0"
     id="path16"
     d="m 22.691406,10.976563 c -0.195313,-0.08594 -0.425781,-0.175782 -0.667969,-0.175782 -0.04297,0 -0.08203,0 -0.121094,0.0078 -0.316406,0.03906 -1.058593,0.316406 -1.339843,0.464843 -0.05078,0.02734 -0.08594,0.07422 -0.101563,0.140626 -0.03906,0.144531 0.0039,0.335937 0.02734,0.375 0.132812,0.171874 1.921875,1.433593 2.132812,1.5 0,0 0.0078,0 0.03906,0 0.121094,0 0.414063,-0.05859 0.449219,-0.222657 0.05469,-0.28125 0.05469,-1.109375 -0.0078,-1.410156 -0.05079,-0.273424 -0.238287,-0.496081 -0.410162,-0.679674"
     style="fill:#faca05;fill-opacity:1;fill-rule:nonzero;stroke:none" />
  <path
     inkscape:connector-curvature="0"
     id="path18"
     d="m 24.726562,11.085937 c -0.152343,0.148438 -0.3125,0.332032 -0.386719,0.5625 -0.01562,0.03906 -0.02344,0.07422 -0.03125,0.117188 -0.05859,0.296875 -0.01953,1.074219 0.03125,1.378906 0.01563,0.05469 0.05469,0.101563 0.109376,0.144532 0.140624,0.08203 0.339843,0.08984 0.382812,0.08203 0.214844,-0.0625 2.011719,-1.316407 2.136719,-1.496094 0,0 0.01172,-0.0039 0.01563,-0.02734 0.04297,-0.117187 0.07422,-0.398437 -0.08203,-0.476562 -0.257819,-0.144534 -1.074225,-0.406253 -1.382819,-0.449222 -0.292969,-0.03906 -0.5625,0.0625 -0.792969,0.164062"
     style="fill:#faca05;fill-opacity:1;fill-rule:nonzero;stroke:none" />
  <path
     inkscape:connector-curvature="0"
     id="path20"
     d="m 25.457031,9.261719 c 0.105469,0.183594 0.234375,0.382812 0.4375,0.523437 0.02734,0.01953 0.05859,0.04297 0.101562,0.05859 0.277344,0.144531 1.054688,0.371094 1.363282,0.414063 0.0625,0.01172 0.117187,-0.01172 0.175781,-0.05859 0.125,-0.09375 0.199219,-0.273438 0.203125,-0.316406 0.0039,-0.214844 -0.675781,-2.25 -0.804688,-2.421876 0,0 -0.01172,-0.01172 -0.03125,-0.02344 -0.105468,-0.07813 -0.375,-0.191406 -0.496093,-0.07422 -0.222657,0.195313 -0.730469,0.84375 -0.863281,1.117188 -0.132813,0.25 -0.113282,0.535156 -0.08594,0.78125"
     style="fill:#faca05;fill-opacity:1;fill-rule:nonzero;stroke:none" />
  <path
     inkscape:connector-curvature="0"
     id="path22"
     d="M 24.414062,9.914063 C 24.28125,9.878903 24.210937,9.742187 24.25,9.613281 c 0.04687,-0.125 0.183593,-0.195312 0.3125,-0.148437 0.128906,0.03906 0.203125,0.171875 0.15625,0.296875 -0.03906,0.125 -0.179688,0.1875 -0.304688,0.152344 z M 23.898437,9.179687 c -0.113281,-0.07422 -0.136718,-0.222656 -0.05469,-0.332031 0.07813,-0.109375 0.230469,-0.128906 0.34375,-0.05469 0.109375,0.08203 0.128906,0.230468 0.05078,0.332031 -0.07813,0.109375 -0.234375,0.132813 -0.339844,0.05469 z m 0.03125,1.371094 c -0.136718,0 -0.242187,-0.105468 -0.242187,-0.238281 0,-0.128906 0.105469,-0.238281 0.242187,-0.238281 0.136719,0 0.246094,0.109375 0.246094,0.238281 0,0.132813 -0.109375,0.238281 -0.246094,0.238281 z M 23.359375,9.375 c -0.117188,0.07813 -0.269532,0.05078 -0.347656,-0.05859 -0.08203,-0.105469 -0.05469,-0.253906 0.05078,-0.328125 0.113281,-0.08203 0.261719,-0.05469 0.34375,0.05469 0.08203,0.101562 0.05859,0.25 -0.04687,0.332031 z m -0.140625,0.847656 c -0.128907,0.04297 -0.269531,-0.02344 -0.308594,-0.148437 -0.03906,-0.125 0.02734,-0.257813 0.152344,-0.300782 0.136719,-0.03906 0.277343,0.02344 0.308593,0.148438 0.05078,0.128906 -0.02344,0.261719 -0.152343,0.300781 z M 25.105469,9.425781 C 25.050781,9.320313 24.960937,9.234375 24.859375,9.167969 24.871095,9.093749 24.878905,9.015625 24.867175,8.9375 24.835925,8.75 24.734363,8.589844 24.574207,8.472656 c -0.261719,-0.183593 -0.625,-0.15625 -0.875,0.02344 -0.246094,-0.113281 -0.550782,-0.109375 -0.777344,0.04687 -0.15625,0.109375 -0.265625,0.273437 -0.289063,0.464844 -0.02344,0.121093 0,0.234374 0.03906,0.34375 -0.05859,0.05469 -0.109375,0.109374 -0.148438,0.179687 -0.08984,0.171875 -0.101562,0.363281 -0.04297,0.542969 0.09766,0.296875 0.382812,0.492187 0.703124,0.492187 0.0039,0 0.01172,0 0.01953,0 0.121094,0.226563 0.363281,0.390625 0.652344,0.390625 0.332031,0 0.605468,-0.21875 0.699218,-0.511718 0.273438,-0.03906 0.507813,-0.21875 0.59375,-0.476563 0.06641,-0.183594 0.04297,-0.371094 -0.04297,-0.542969"
     style="fill:#faca05;fill-opacity:1;fill-rule:nonzero;stroke:none" />
  <path
     inkscape:connector-curvature="0"
     id="path24"
     d="M 10.683593,6.886719 C 9.996093,6.242187 9.613281,6.097656 9.414062,6.097656 c -0.113281,0 -0.253906,0.03906 -0.488281,0.292969 -0.0625,0.05859 -0.121094,0.125 -0.179688,0.191406 -0.324218,0.371094 -0.726562,0.847656 -1.4375,0.847656 -0.261718,0 -0.539062,-0.07422 -0.839843,-0.214843 v 5.417969 c 0.273437,0.46875 0.550781,0.738281 0.78125,0.738281 0.128906,0 0.351562,-0.07422 0.691406,-0.4375 0.796875,-0.855469 1.761719,-1.011719 2.742187,-0.4375 V 6.886719"
     style="fill:#faca05;fill-opacity:1;fill-rule:nonzero;stroke:none" />
  <path
     inkscape:connector-curvature="0"
     id="path26"
     d="M 14.988281,7.429687 C 14.285156,7.429687 13.875,6.953125 13.554687,6.582031 13.496097,6.515621 13.433593,6.449219 13.378906,6.390625 13.144531,6.136719 13,6.097656 12.886719,6.097656 c -0.203126,0 -0.582032,0.144531 -1.265626,0.789063 v 5.609375 c 0.382813,-0.226563 0.761719,-0.339844 1.144532,-0.339844 0.578125,0 1.109375,0.257813 1.597656,0.777344 0.335938,0.363281 0.558594,0.4375 0.683594,0.4375 0.238281,0 0.511718,-0.269531 0.78125,-0.738281 V 7.214844 C 15.527343,7.355469 15.25,7.429687 14.988281,7.429687"
     style="fill:#faca05;fill-opacity:1;fill-rule:nonzero;stroke:none" />
  <path
     inkscape:connector-curvature="0"
     id="path28"
     d="m 36.984375,12.496094 c 0.980468,-0.574219 1.945312,-0.417969 2.746094,0.4375 0.339843,0.363281 0.558593,0.4375 0.6875,0.4375 0.234374,0 0.507812,-0.269531 0.78125,-0.738281 V 7.214844 c -0.296876,0.140625 -0.578126,0.214843 -0.839844,0.214843 -0.707032,0 -1.109375,-0.476562 -1.4375,-0.847656 -0.05859,-0.06641 -0.117188,-0.132812 -0.175782,-0.191406 -0.234374,-0.253906 -0.375,-0.292969 -0.488281,-0.292969 -0.199219,0 -0.585937,0.144531 -1.273437,0.789063 v 5.609375"
     style="fill:#faca05;fill-opacity:1;fill-rule:nonzero;stroke:none" />
  <path
     inkscape:connector-curvature="0"
     id="path30"
     d="m 32.679687,7.429687 c -0.261718,0 -0.539062,-0.07422 -0.839844,-0.214843 v 5.417969 c 0.273438,0.46875 0.546876,0.738281 0.78125,0.738281 0.128907,0 0.351563,-0.07422 0.6875,-0.4375 0.488282,-0.519531 1.019532,-0.777344 1.59375,-0.777344 0.382813,0 0.765626,0.113281 1.148438,0.339844 V 6.886719 C 35.367187,6.242187 34.984375,6.097656 34.78125,6.097656 c -0.109375,0 -0.253907,0.03906 -0.488281,0.292969 -0.05859,0.05859 -0.117188,0.125 -0.175782,0.191406 -0.320312,0.371094 -0.734375,0.847656 -1.4375,0.847656"
     style="fill:#faca05;fill-opacity:1;fill-rule:nonzero;stroke:none" />
  <path
     inkscape:connector-curvature="0"
     id="path32"
     d="m 18.28125,23.914063 c -1.746094,-0.609376 -5.3125,-2.371094 -6.820313,-6.566407 -0.386718,-1.085937 -0.957031,-0.925781 -0.851562,0.226563 0.28125,3.023437 2.195312,6.695312 6.214844,8.363281 1.722656,0.714844 2.6875,-1.597656 1.457031,-2.023437"
     style="fill:#faca05;fill-opacity:1;fill-rule:nonzero;stroke:none" />
  <path
     inkscape:connector-curvature="0"
     id="path34"
     d="m 29.445312,23.914063 c 1.746094,-0.609376 5.3125,-2.371094 6.820313,-6.566407 0.390625,-1.085937 0.957031,-0.925781 0.851562,0.226563 -0.28125,3.023437 -2.195312,6.695312 -6.214844,8.363281 -1.722656,0.714844 -2.6875,-1.597656 -1.457031,-2.023437"
     style="fill:#faca05;fill-opacity:1;fill-rule:nonzero;stroke:none" />
  <path
     inkscape:connector-curvature="0"
     id="path36"
     d="m 28.355469,23.0625 c 0.238281,-0.05078 0.578124,-0.140625 0.964843,-0.265625 1.078125,-0.40625 2.996094,-1.378906 4.464844,-3.320312 -3.378906,-0.660157 -6.824219,-1.015626 -9.910156,-1.015626 -3.109375,0 -6.574219,0.363282 -9.976563,1.035157 1.535156,2.015625 3.546875,2.980469 4.589844,3.351562 0.328125,0.09766 0.621094,0.171875 0.824219,0.214844 0.484375,0.101563 0.976562,0.179687 1.582031,-0.324219 0.605469,-0.503906 0.71875,-0.808594 2.941406,-0.808594 2.222656,0 2.332032,0.304688 2.9375,0.808594 0.605469,0.503906 1.097656,0.425782 1.582032,0.324219"
     style="fill:#faca05;fill-opacity:1;fill-rule:nonzero;stroke:none" />
  <path
     inkscape:connector-curvature="0"
     id="path38"
     d="m 39.953125,28.484375 -4.96875,8.195312 c 1.875,-0.847656 4.675781,-2.980468 4.96875,-8.195312"
     style="fill:#faca05;fill-opacity:1;fill-rule:nonzero;stroke:none" />
  <path
     inkscape:connector-curvature="0"
     id="path40"
     d="M 12.683593,36.679687 7.71875,28.484375 c 0.289062,5.214844 3.09375,7.347656 4.964843,8.195312"
     style="fill:#faca05;fill-opacity:1;fill-rule:nonzero;stroke:none" />
  <path
     inkscape:connector-curvature="0"
     id="path42"
     d="m 38.65625,42.972656 c -0.957031,0.765625 -1.703125,1.292969 -2.300781,1.714844 -1.3125,0.921875 -1.820313,1.335937 -1.761719,2.023437 l 0.230469,2.949219 -1.722657,-0.800781 c -1.359375,-0.601562 -1.992187,-1.417969 -2.109375,-2.738281 -0.1875,-2.042969 1.074219,-4.167969 3.375,-5.699219 0.546875,-0.355469 1.03125,-0.613281 1.425782,-0.808594 0.386718,-0.199218 0.746093,-0.40625 0.78125,-0.511718 0.07422,-0.226563 -0.359376,-0.597657 -1.625,-1.160157 -0.125,-0.05859 -0.363282,-0.160156 -0.578126,-0.25 L 23.835937,55.074219 13.300781,37.691406 c -0.21875,0.08984 -0.453125,0.191407 -0.582031,0.25 -1.261719,0.5625 -1.695313,0.933594 -1.621094,1.160157 0.03516,0.105468 0.394531,0.3125 0.78125,0.511718 0.390625,0.195313 0.878906,0.453125 1.421875,0.808594 2.300781,1.53125 3.5625,3.65625 3.378906,5.699219 -0.117187,1.320312 -0.753906,2.136719 -2.109375,2.738281 l -1.722656,0.800781 0.230469,-2.949219 C 13.132812,46.023437 12.628906,45.609375 11.316406,44.6875 10.714843,44.265625 9.96875,43.738281 9.015625,42.972656 3.117187,38.234375 2.925781,32.261719 4.648437,29.71875 5.222656,28.882813 6.84375,27.066406 6.855469,27.058594 L 6.582031,26.636719 c -0.59375,-0.05859 -1.058594,-0.550782 -1.058594,-1.160156 0,-0.644532 0.523438,-1.171876 1.171875,-1.171876 0.644531,0 1.171875,0.527344 1.171875,1.171876 0,0.125 -0.02734,0.246093 -0.0625,0.359374 0.01172,0.0078 0.02734,0.01172 0.01953,0.03516 L 23.835937,52.667969 39.84375,25.871094 c -0.0039,-0.02344 0.01172,-0.02734 0.02344,-0.03516 -0.03906,-0.113281 -0.0625,-0.234374 -0.0625,-0.359374 0,-0.644532 0.523438,-1.171876 1.171875,-1.171876 0.644531,0 1.167969,0.527344 1.167969,1.171876 0,0.609374 -0.464844,1.101562 -1.054688,1.160156 l -0.273437,0.421875 c 0.0078,0.0078 1.628906,1.824219 2.203125,2.660156 1.726559,2.542972 1.531247,8.515628 -4.363284,13.253909 z M 37.613281,20.367187 c -0.679688,1.871094 -1.925781,3.808594 -3.886719,5.269532 1.558594,0.492187 3.519531,0.503906 4.859375,-0.386719 -0.457031,1.164063 -1.878906,2.683594 -2.910156,3.679687 -0.1875,-0.125 -0.375,-0.285156 -0.507812,-0.433593 -0.414063,-0.441407 -0.789063,-0.05078 -0.507813,0.316406 0.09766,0.125 0.351563,0.484375 0.496094,0.609375 -0.304688,0.28125 -0.527344,0.480469 -0.597657,0.539062 -0.207031,-0.128906 -0.417968,-0.316406 -0.570312,-0.480468 -0.414062,-0.441406 -0.789062,-0.05078 -0.507812,0.316406 0.101562,0.128906 0.363281,0.503906 0.511718,0.617188 -0.253906,0.203124 -0.53125,0.425781 -0.777344,0.59375 -0.519531,-0.65625 -1.078124,-1.34375 -1.914062,-0.914063 -0.890625,0.457031 -0.0078,1.054687 -0.0078,1.941406 0,3.554688 -2.234376,4.875 -2.789063,6.378907 -0.554687,1.503906 -1.082031,4.195312 -1.523437,4.929687 -0.433594,0.722656 -2.292969,1.535156 -3.144532,0.867187 -0.855468,0.667969 -2.730468,-0.132812 -3.148437,-0.867187 -0.417969,-0.734375 -1.007813,-3.425781 -1.566407,-4.929687 -0.554687,-1.503907 -2.742187,-2.824219 -2.742187,-6.378907 0,-0.886719 0.878906,-1.484375 -0.0078,-1.941406 -0.839843,-0.429687 -1.398437,0.257813 -1.914062,0.914063 -0.246094,-0.167969 -0.527344,-0.390626 -0.777344,-0.59375 0.144532,-0.113282 0.40625,-0.488282 0.507813,-0.617188 0.28125,-0.367188 -0.08984,-0.757812 -0.503907,-0.316406 -0.152343,0.164062 -0.367187,0.351562 -0.574218,0.480468 -0.06641,-0.05859 -0.292969,-0.257812 -0.597656,-0.539062 0.148437,-0.125 0.398437,-0.484375 0.5,-0.609375 0.28125,-0.367187 -0.09375,-0.757813 -0.507813,-0.316406 -0.136719,0.148437 -0.324219,0.308593 -0.511719,0.433593 C 10.964868,27.933594 9.539087,26.414063 9.082056,25.25 c 1.394531,0.925781 3.207031,0.882813 4.789062,0.328125 -1.910181,-1.445312 -3.128931,-3.34375 -3.804712,-5.179688 -3.015625,0.828126 -5.84375,1.90625 -8.148437,3.210938 v 7.570312 c 0,12.21875 17.46875,26.34375 21.957031,27.605469 4.484375,-1.261719 21.835937,-15.386719 21.835937,-27.605469 V 23.535156 C 43.425781,22.25 40.613281,21.1875 37.613281,20.367187"
     style="fill:#faca05;fill-opacity:1;fill-rule:nonzero;stroke:none" />
  <path
     inkscape:connector-curvature="0"
     id="path44"
     d="m 42.519531,14.914063 -5.222656,-1.109376 v 0.488282 h -1.558594 v -0.488282 l -2.898438,0.4375 c -0.03516,0.0078 -0.07031,0.01172 -0.109374,0.01563 l -2.210938,0.332031 V 6.886723 l 0.390625,-0.109375 v -1.28125 l 0.75,0.550781 c 0.527344,0.398438 0.847656,0.484375 1.019531,0.484375 0.253906,0 0.441406,-0.199219 0.722656,-0.527344 0.07031,-0.07422 0.132813,-0.148437 0.195313,-0.21875 0.371094,-0.390625 0.75,-0.578125 1.183594,-0.578125 0.511719,0 1.066406,0.285156 1.738281,0.878906 0.671875,-0.59375 1.226562,-0.878906 1.738281,-0.878906 0.429688,0 0.8125,0.1875 1.175781,0.578125 0.06641,0.07031 0.132813,0.144531 0.199219,0.21875 0.28125,0.328125 0.472657,0.527344 0.726563,0.527344 0.171875,0 0.488281,-0.08594 1.015625,-0.484375 l 0.753906,-0.550781 v 1.28125 l 0.390625,0.109375 z M 28.835937,11.191406 c -0.07813,0.226563 -0.378906,0.351563 -0.757812,0.355469 0.0039,0.21875 -0.05469,0.429688 -0.113282,0.515625 -0.214843,0.285156 -2.664062,1.988281 -3.011718,2.09375 -0.03906,0.01172 -0.08203,0.01172 -0.140625,0.01172 -0.109375,0 -0.234375,-0.01563 -0.363281,-0.05078 -0.113282,0.375 -0.339844,0.632813 -0.597657,0.632813 -0.253906,0 -0.476562,-0.246094 -0.59375,-0.609375 -0.144531,0.05469 -0.304687,0.08203 -0.429687,0.08203 -0.0625,0 -0.109375,-0.0039 -0.152344,-0.01172 -0.34375,-0.109374 -2.78125,-1.828124 -2.988281,-2.117187 -0.0625,-0.08203 -0.113281,-0.261719 -0.121094,-0.453125 -0.386719,0 -0.695313,-0.121094 -0.769531,-0.355469 -0.07422,-0.230469 0.08984,-0.503906 0.398437,-0.722656 -0.164062,-0.183594 -0.261719,-0.429687 -0.261719,-0.539063 -0.0039,-0.351562 0.929688,-3.117187 1.160157,-3.398437 0.05859,-0.07031 0.226562,-0.1875 0.4375,-0.253906 -0.105469,-0.34375 -0.07422,-0.648438 0.125,-0.789063 0.195312,-0.136718 0.5,-0.08203 0.792969,0.117188 0.132812,-0.203125 0.335937,-0.367188 0.445312,-0.402344 0.226562,-0.07422 1.238281,-0.08203 1.667969,-0.08203 0.660156,0 1.832031,0.02344 2.050781,0.09375 0.101562,0.03516 0.277344,0.175781 0.40625,0.355469 0.316406,-0.214844 0.632812,-0.285157 0.835938,-0.140626 0.191406,0.132813 0.234374,0.429688 0.136718,0.757813 0.230469,0.0625 0.425782,0.195313 0.484375,0.277344 0.222657,0.277343 1.144531,3.046875 1.136719,3.40625 0,0.101562 -0.07813,0.304687 -0.214844,0.480469 0.328125,0.226562 0.519532,0.503906 0.4375,0.746093 z m -11.6875,3.398438 -2.210937,-0.332031 c -0.03516,-0.0039 -0.07031,-0.0078 -0.105469,-0.01563 l -2.902344,-0.4375 v 0.488282 H 10.371093 V 13.804683 L 5.148437,14.914059 V 6.886715 L 5.542969,6.77734 V 5.49609 l 0.753906,0.550781 c 0.527344,0.398438 0.84375,0.484375 1.015625,0.484375 0.253906,0 0.445312,-0.199219 0.726562,-0.527344 0.0625,-0.07422 0.128907,-0.148437 0.195313,-0.21875 0.367187,-0.390625 0.746094,-0.578125 1.179687,-0.578125 0.507813,0 1.0625,0.285156 1.734375,0.878906 0.675782,-0.59375 1.226563,-0.878906 1.738282,-0.878906 0.433593,0 0.816406,0.1875 1.183593,0.578125 0.0625,0.07031 0.128907,0.144531 0.195313,0.21875 0.285156,0.328125 0.46875,0.527344 0.726562,0.527344 0.171875,0 0.488282,-0.08594 1.019532,-0.484375 L 16.757812,5.49609 v 1.28125 l 0.390625,0.109375 z M 23.8125,1.816406 c -16.167969,0 -21.894531,4.949219 -21.894531,4.949219 v 14.554688 c 2.191406,-1.125 4.828124,-2.058594 7.636718,-2.792969 -0.05469,-0.289063 -0.09766,-0.574219 -0.121094,-0.84375 -0.07422,-0.78125 0.07422,-1.378907 0.433594,-1.773438 0.261719,-0.289062 0.621094,-0.449219 1,-0.449219 0.417969,0 1.1875,0.195313 1.652344,1.496094 0.105469,0.289063 0.222656,0.558594 0.34375,0.820313 3.742188,-0.746094 7.539062,-1.148438 10.949219,-1.148438 3.40625,0 7.257812,0.402344 10.996093,1.148438 0.121094,-0.265625 0.238282,-0.535157 0.339844,-0.820313 0.46875,-1.300781 1.238282,-1.496094 1.652344,-1.496094 0.382812,0 0.738281,0.160157 1,0.449219 0.363281,0.394531 0.507812,0.992188 0.4375,1.773438 -0.02734,0.273437 -0.07031,0.558593 -0.121094,0.851562 2.789063,0.734375 5.414063,1.667969 7.59375,2.785157 V 6.765625 c 0,0 -5.734375,-4.949219 -21.898437,-4.949219"
     style="fill:#e32123;fill-opacity:1;fill-rule:nonzero;stroke:none" />
  <path
     inkscape:connector-curvature="0"
     id="path46"
     d="m 36.355469,37.339844 c 0.726562,0.394531 1.472656,0.972656 1.472656,1.761719 0,0.839843 -0.699219,1.199218 -1.449219,1.582031 -0.382813,0.199219 -0.8125,0.414062 -1.300781,0.738281 -0.722656,0.480469 -3.050782,2.21875 -2.839844,4.59375 0.07813,0.828125 0.386719,1.265625 1.210938,1.667969 L 33.34375,46.617187 c -0.05078,-1.0625 0.898437,-1.941406 2.269531,-2.90625 0.585938,-0.414062 1.3125,-0.925781 2.238281,-1.667968 5.082031,-4.082032 5.652344,-9.390625 4.117188,-11.660156 -0.203125,-0.300782 -0.503907,-0.730469 -0.808594,-1.15625 -0.457031,4.628906 -2.8125,6.957031 -4.804687,8.113281"
     style="fill:#e32123;fill-opacity:1;fill-rule:nonzero;stroke:none" />
  <path
     inkscape:connector-curvature="0"
     id="path48"
     d="m 6.511719,29.226563 c -0.304688,0.425781 -0.605469,0.855468 -0.8125,1.15625 -1.53125,2.269531 -0.964844,7.578124 4.117187,11.660156 0.925781,0.742187 1.652344,1.253906 2.238281,1.667968 1.375,0.964844 2.320313,1.84375 2.273438,2.90625 l -0.109375,1.066407 c 0.824219,-0.402344 1.132812,-0.839844 1.210937,-1.667969 0.210938,-2.375 -2.117187,-4.113281 -2.839844,-4.59375 -0.484374,-0.324219 -0.914062,-0.539062 -1.296874,-0.738281 -0.75,-0.382813 -1.449219,-0.742188 -1.449219,-1.582031 0,-0.789063 0.746093,-1.367188 1.46875,-1.761719 -1.988281,-1.15625 -4.347657,-3.484375 -4.800781,-8.113281"
     style="fill:#e32123;fill-opacity:1;fill-rule:nonzero;stroke:none" />
</svg>
