<?xml version="1.0" encoding="UTF-8" standalone="no"?>
<svg
   xmlns:dc="http://purl.org/dc/elements/1.1/"
   xmlns:cc="http://creativecommons.org/ns#"
   xmlns:rdf="http://www.w3.org/1999/02/22-rdf-syntax-ns#"
   xmlns:svg="http://www.w3.org/2000/svg"
   xmlns="http://www.w3.org/2000/svg"
   xmlns:sodipodi="http://sodipodi.sourceforge.net/DTD/sodipodi-0.dtd"
   xmlns:inkscape="http://www.inkscape.org/namespaces/inkscape"
   width="43.792976pt"
   height="56.968754pt"
   viewBox="0 0 43.792974 56.968752"
   version="1.1"
   id="svg87"
   sodipodi:docname="uc-logoonly-white.svg"
   inkscape:version="0.92.5 (2060ec1f9f, 2020-04-08)">
  <metadata
     id="metadata93">
    <rdf:RDF>
      <cc:Work
         rdf:about="">
        <dc:format>image/svg+xml</dc:format>
        <dc:type
           rdf:resource="http://purl.org/dc/dcmitype/StillImage" />
        <dc:title></dc:title>
      </cc:Work>
    </rdf:RDF>
  </metadata>
  <defs
     id="defs91" />
  <sodipodi:namedview
     pagecolor="#ffffff"
     bordercolor="#666666"
     borderopacity="1"
     objecttolerance="10"
     gridtolerance="10"
     guidetolerance="10"
     inkscape:pageopacity="0"
     inkscape:pageshadow="2"
     inkscape:window-width="640"
     inkscape:window-height="480"
     id="namedview89"
     showgrid="false"
     fit-margin-top="0"
     fit-margin-left="0"
     fit-margin-right="0"
     fit-margin-bottom="0"
     inkscape:zoom="0.90675944"
     inkscape:cx="148.68275"
     inkscape:cy="32.306904"
     inkscape:window-x="1455"
     inkscape:window-y="272"
     inkscape:window-maximized="0"
     inkscape:current-layer="svg87" />
  <path
     inkscape:connector-curvature="0"
     id="path2"
     d="m 18.992187,29.546875 c 0.105469,0.140625 0.183594,0.304688 0.183594,0.488282 0,0.460937 -0.378907,0.824218 -0.839844,0.824218 -0.46875,0 -0.851563,-0.363281 -0.851563,-0.824218 0,-0.242188 0.117188,-0.453126 0.285157,-0.601563 -0.664063,-0.125 -1.355469,-0.460937 -1.355469,-0.460937 0.15625,0.476562 0.503906,2.316406 1.710938,2.445312 1.492187,0.171875 1.878906,-1.214844 1.878906,-1.214844 0,0 -0.25,-0.441406 -1.011719,-0.65625"
     style="fill:#ffffff;fill-opacity:1;fill-rule:nonzero;stroke:none" />
  <path
     inkscape:connector-curvature="0"
     id="path4"
     d="m 26.117187,29.433594 c 0.171875,0.148437 0.285156,0.359375 0.285156,0.601563 0,0.460937 -0.378906,0.824218 -0.847656,0.824218 -0.464844,0 -0.839844,-0.363281 -0.839844,-0.824218 0,-0.183594 0.07422,-0.347657 0.183594,-0.488282 -0.765625,0.214844 -1.015625,0.65625 -1.015625,0.65625 0,0 0.386719,1.386719 1.878906,1.214844 1.207032,-0.128906 1.558594,-1.96875 1.710938,-2.445312 0,0 -0.691406,0.335937 -1.355469,0.460937"
     style="fill:#ffffff;fill-opacity:1;fill-rule:nonzero;stroke:none" />
  <path
     inkscape:connector-curvature="0"
     id="path6"
     d="m 27.523437,25.164063 c -0.492187,-0.402344 -1.132813,0.101562 -0.644531,0.648437 0.402344,0.457031 0.667968,0.75 0.492187,1.082031 -0.238281,0.453126 -2.515625,0.339844 -5.425781,1.4375 -2.914062,-1.097656 -5.1875,-0.984374 -5.425781,-1.4375 -0.175781,-0.332031 0.08984,-0.625 0.492187,-1.082031 0.484375,-0.546875 -0.15625,-1.050781 -0.644531,-0.648437 -0.410156,0.335937 -1.164063,1.375 -0.894531,2.070312 0.425781,1.109375 3.019531,0.761719 6.464844,2.1875 v 0.0039 c 0.0039,0 0.0039,0 0.0078,0 0,0 0.0039,0 0.0078,0 v -0.0039 c 3.441407,-1.425781 6.035157,-1.078125 6.460938,-2.1875 C 28.683569,26.539063 27.933569,25.5 27.523413,25.164063"
     style="fill:#ffffff;fill-opacity:1;fill-rule:nonzero;stroke:none" />
  <path
     inkscape:connector-curvature="0"
     id="path8"
     d="M 24.457031,39.640625 C 24.011718,39.464844 23.210937,39 22.984374,38.191407 c -0.199218,-0.738282 0.08594,-1.242188 0.417969,-1.324219 0.3125,-0.07813 0.652344,0.132812 0.515625,0.515625 -0.09766,0.289062 -0.40625,0.4375 -0.519531,0.511718 -0.1875,0.109376 -0.02734,0.363282 0.210937,0.316407 0.523438,-0.105469 0.828126,-0.675781 0.808594,-1.082031 C 24.390628,36.5 23.675781,36.351563 23.28125,36.429688 c -0.613282,0.117187 -1.058594,0.726562 -0.808594,1.78125 0.242187,0.992187 1.125,1.53125 1.585937,1.742187 -0.402343,0.167969 -1.273437,0.304688 -2.113281,0.355469 -0.84375,-0.05078 -1.710938,-0.1875 -2.113281,-0.355469 0.460937,-0.210937 1.339843,-0.75 1.582031,-1.742187 0.253906,-1.054688 -0.195312,-1.664063 -0.808594,-1.78125 -0.394531,-0.07813 -1.109375,0.07031 -1.132812,0.699219 -0.02344,0.40625 0.28125,0.976562 0.804687,1.082031 0.238281,0.04687 0.402344,-0.207031 0.214844,-0.316407 -0.113281,-0.07422 -0.425781,-0.222656 -0.523437,-0.511718 -0.132813,-0.382813 0.203124,-0.59375 0.515624,-0.515625 0.335938,0.08203 0.621094,0.585937 0.417969,1.324219 -0.222656,0.808593 -1.023437,1.273437 -1.472656,1.449218 -0.378906,0.148438 -0.433594,0.535156 -0.195313,0.675782 0.789063,0.445312 1.941407,0.546874 2.652344,0.554687 v 0.0039 c 0.01953,0 0.03906,0 0.05859,-0.0039 0.01563,0.0039 0.03906,0.0039 0.05469,0.0039 v -0.0039 c 0.714843,-0.0078 1.867187,-0.109375 2.652343,-0.554687 0.242188,-0.140626 0.183594,-0.527344 -0.195312,-0.675782"
     style="fill:#ffffff;fill-opacity:1;fill-rule:nonzero;stroke:none" />
  <path
     inkscape:connector-curvature="0"
     id="path10"
     d="m 21.960937,6.203125 c 0.210937,-0.02734 0.449219,-0.09375 0.65625,-0.234375 0.03125,-0.02734 0.05859,-0.05078 0.08984,-0.07422 0.226562,-0.210937 0.683593,-0.839843 0.820312,-1.113281 0.02734,-0.05078 0.02734,-0.105469 0,-0.175781 -0.0625,-0.140625 -0.214843,-0.273438 -0.253906,-0.285156 -0.207031,-0.07031 -2.429687,-0.07422 -2.640625,-0.0039 0,0 -0.01172,0.0039 -0.03516,0.01562 -0.09766,0.07422 -0.292969,0.28125 -0.222656,0.433594 0.128906,0.261719 0.613281,0.914063 0.84375,1.125 0.214843,0.191406 0.496093,0.269532 0.742187,0.3125"
     style="fill:#ffffff;fill-opacity:1;fill-rule:nonzero;stroke:none" />
  <path
     inkscape:connector-curvature="0"
     id="path12"
     d="m 20.257812,7.265625 c 0.02344,-0.199218 0.03125,-0.441406 -0.03516,-0.667968 -0.01172,-0.03906 -0.02344,-0.07031 -0.04297,-0.113282 -0.136719,-0.269531 -0.625,-0.863281 -0.847656,-1.074218 -0.04687,-0.04297 -0.105469,-0.05859 -0.175781,-0.05859 -0.160157,0.01563 -0.332032,0.117187 -0.363282,0.148437 -0.128906,0.167969 -0.824218,2.207031 -0.820312,2.414063 0,0 0,0.01563 0.01172,0.04297 0.03516,0.113282 0.175782,0.355469 0.359376,0.332032 0.292968,-0.03125 1.097656,-0.289063 1.371093,-0.4375 0.25391,-0.132819 0.417972,-0.367194 0.542972,-0.585944"
     style="fill:#ffffff;fill-opacity:1;fill-rule:nonzero;stroke:none" />
  <path
     inkscape:connector-curvature="0"
     id="path14"
     d="m 20.769531,9.164063 c -0.195313,-0.08984 -0.421875,-0.179688 -0.664063,-0.179688 -0.04297,0 -0.08203,0 -0.121094,0.0078 -0.316406,0.03906 -1.058593,0.316406 -1.339843,0.464843 -0.05078,0.02734 -0.08594,0.07422 -0.105469,0.140626 -0.03516,0.148437 0.0078,0.335937 0.03125,0.375 0.128906,0.171874 1.921875,1.433593 2.132812,1.5 0,0 0.0039,0 0.03906,0 0.121094,0 0.414063,-0.05469 0.449219,-0.222657 0.05078,-0.28125 0.05078,-1.109375 -0.0078,-1.410156 C 21.132812,9.566407 20.945312,9.34375 20.769531,9.164063"
     style="fill:#ffffff;fill-opacity:1;fill-rule:nonzero;stroke:none" />
  <path
     inkscape:connector-curvature="0"
     id="path16"
     d="m 22.804687,9.269531 c -0.148437,0.148438 -0.308594,0.335938 -0.382813,0.566407 -0.01562,0.03516 -0.02344,0.07031 -0.03125,0.113281 -0.05859,0.296875 -0.01953,1.074219 0.03125,1.378906 0.01563,0.05469 0.05078,0.101563 0.109376,0.144532 0.140624,0.08203 0.335937,0.08984 0.378906,0.08203 0.21875,-0.0625 2.011718,-1.3125 2.140625,-1.492188 0,0 0.01172,-0.0078 0.01563,-0.03125 0.04297,-0.117187 0.07422,-0.398437 -0.08203,-0.476562 -0.261725,-0.14453 -1.074225,-0.406249 -1.382819,-0.449218 -0.292969,-0.039062 -0.566406,0.0625 -0.796875,0.164062"
     style="fill:#ffffff;fill-opacity:1;fill-rule:nonzero;stroke:none" />
  <path
     inkscape:connector-curvature="0"
     id="path18"
     d="m 23.539062,7.445313 c 0.105469,0.183594 0.234375,0.382812 0.4375,0.523437 0.02734,0.01953 0.05859,0.04297 0.101562,0.05859 0.277344,0.148437 1.050782,0.371094 1.363282,0.414063 0.05859,0.01172 0.113281,-0.01172 0.171875,-0.05859 0.128906,-0.09375 0.203125,-0.273438 0.207031,-0.316406 0.0039,-0.214844 -0.675781,-2.25 -0.808594,-2.421876 0,0 -0.0078,-0.01172 -0.03125,-0.02344 -0.101562,-0.07813 -0.371094,-0.1875 -0.492187,-0.07422 -0.222657,0.195313 -0.730469,0.84375 -0.863281,1.117188 -0.132813,0.25 -0.117188,0.535156 -0.08594,0.78125"
     style="fill:#ffffff;fill-opacity:1;fill-rule:nonzero;stroke:none" />
  <path
     inkscape:connector-curvature="0"
     id="path20"
     d="m 22.496093,8.097657 c -0.132812,-0.03516 -0.203125,-0.171876 -0.164062,-0.300782 0.04687,-0.125 0.183593,-0.191406 0.3125,-0.148437 0.128906,0.03906 0.199219,0.171875 0.15625,0.296875 -0.03906,0.125 -0.179688,0.1875 -0.304688,0.152344 z M 21.980468,7.363281 C 21.867187,7.289061 21.84375,7.140625 21.925778,7.03125 c 0.07422,-0.109375 0.226562,-0.128906 0.34375,-0.05469 0.109375,0.08203 0.128906,0.230468 0.04687,0.332031 -0.07422,0.109375 -0.230469,0.132813 -0.335938,0.05469 z m 0.03125,1.371094 c -0.136718,0 -0.246094,-0.105468 -0.246094,-0.238281 0,-0.128906 0.109376,-0.238281 0.246094,-0.238281 0.136719,0 0.246094,0.109375 0.246094,0.238281 0,0.132813 -0.109375,0.238281 -0.246094,0.238281 z M 21.4375,7.558594 c -0.113282,0.07813 -0.269532,0.05078 -0.34375,-0.05859 -0.08594,-0.105469 -0.05859,-0.253906 0.05078,-0.328125 0.113281,-0.07813 0.261719,-0.05078 0.34375,0.05469 0.08203,0.105468 0.05859,0.25 -0.05078,0.332031 z m -0.136719,0.851563 c -0.132813,0.03906 -0.269531,-0.02734 -0.3125,-0.152344 -0.03516,-0.125 0.03125,-0.257813 0.15625,-0.300782 0.136719,-0.03906 0.277343,0.02344 0.308593,0.148438 0.04688,0.128906 -0.02344,0.261719 -0.152343,0.304688 z M 23.1875,7.609375 c -0.05859,-0.105468 -0.144532,-0.191406 -0.246094,-0.257812 0.01172,-0.07422 0.01953,-0.152344 0.0039,-0.230469 C 22.917966,6.933594 22.8164,6.773438 22.656244,6.65625 22.394525,6.472657 22.031244,6.5 21.777337,6.68359 21.53515,6.566403 21.226556,6.570309 21.0039,6.72656 c -0.15625,0.113281 -0.265625,0.273437 -0.289063,0.464844 -0.02344,0.121093 -0.0039,0.234374 0.03906,0.34375 -0.05859,0.05469 -0.113282,0.109374 -0.148438,0.179687 -0.08984,0.171875 -0.105468,0.363281 -0.04297,0.542969 0.09766,0.300781 0.382812,0.492187 0.699218,0.492187 0.0078,0 0.01563,0 0.02344,0 0.121094,0.230469 0.359375,0.390625 0.652344,0.390625 0.332031,0 0.605468,-0.21875 0.695312,-0.511718 0.277344,-0.03906 0.511719,-0.214844 0.597656,-0.476563 0.0625,-0.183594 0.04297,-0.371094 -0.04297,-0.542969"
     style="fill:#ffffff;fill-opacity:1;fill-rule:nonzero;stroke:none" />
  <path
     inkscape:connector-curvature="0"
     id="path22"
     d="M 8.765624,5.070313 C 8.078124,4.425781 7.695312,4.285157 7.492187,4.285157 c -0.109375,0 -0.253906,0.03516 -0.488281,0.289062 -0.05859,0.05859 -0.117188,0.125 -0.175782,0.191406 -0.324218,0.371094 -0.730468,0.847656 -1.4375,0.847656 -0.261718,0 -0.539062,-0.07422 -0.839843,-0.214843 v 5.417969 c 0.273437,0.46875 0.546875,0.738281 0.78125,0.738281 0.128906,0 0.347656,-0.07422 0.6875,-0.4375 0.800781,-0.855469 1.765625,-1.011719 2.746093,-0.433594 V 5.070313"
     style="fill:#ffffff;fill-opacity:1;fill-rule:nonzero;stroke:none" />
  <path
     inkscape:connector-curvature="0"
     id="path24"
     d="m 13.070312,5.613281 c -0.703125,0 -1.117188,-0.476562 -1.4375,-0.847656 -0.05859,-0.06641 -0.117188,-0.132812 -0.175781,-0.191406 -0.230469,-0.253906 -0.375,-0.289062 -0.488281,-0.289062 -0.203126,0 -0.585938,0.140624 -1.265626,0.785156 v 5.613281 c 0.378907,-0.230469 0.761719,-0.34375 1.144532,-0.34375 0.574218,0 1.105468,0.261719 1.597656,0.777344 0.335938,0.363281 0.558594,0.4375 0.683594,0.4375 0.238281,0 0.507812,-0.269531 0.78125,-0.738281 V 5.398438 c -0.300782,0.140625 -0.578125,0.214843 -0.839844,0.214843"
     style="fill:#ffffff;fill-opacity:1;fill-rule:nonzero;stroke:none" />
  <path
     inkscape:connector-curvature="0"
     id="path26"
     d="m 35.066406,10.683594 c 0.980468,-0.578125 1.945312,-0.421875 2.746094,0.433594 0.339843,0.363281 0.558593,0.4375 0.6875,0.4375 0.234374,0 0.507812,-0.269531 0.78125,-0.738281 V 5.398438 c -0.300782,0.140625 -0.578126,0.214843 -0.839844,0.214843 -0.707032,0 -1.113282,-0.476562 -1.4375,-0.847656 -0.05859,-0.06641 -0.117188,-0.132812 -0.175782,-0.191406 -0.238281,-0.253906 -0.378906,-0.289062 -0.492187,-0.289062 -0.199219,0 -0.582031,0.140624 -1.269531,0.785156 v 5.613281"
     style="fill:#ffffff;fill-opacity:1;fill-rule:nonzero;stroke:none" />
  <path
     inkscape:connector-curvature="0"
     id="path28"
     d="m 30.761718,5.613281 c -0.261718,0 -0.539062,-0.07422 -0.839844,-0.214843 v 5.417969 c 0.273438,0.46875 0.542969,0.738281 0.78125,0.738281 0.125,0 0.347657,-0.07422 0.683594,-0.4375 0.488282,-0.515625 1.023438,-0.777344 1.597656,-0.777344 0.382813,0 0.765626,0.113281 1.148438,0.34375 V 5.070313 C 33.449218,4.425781 33.066406,4.285157 32.863281,4.285157 c -0.113281,0 -0.257813,0.03516 -0.488281,0.289062 -0.05859,0.05859 -0.117188,0.125 -0.175782,0.191406 -0.324218,0.371094 -0.734375,0.847656 -1.4375,0.847656"
     style="fill:#ffffff;fill-opacity:1;fill-rule:nonzero;stroke:none" />
  <path
     inkscape:connector-curvature="0"
     id="path30"
     d="m 40.601562,13.097657 -5.222656,-1.105469 v 0.488281 h -1.558594 v -0.488281 l -2.902344,0.433593 c -0.03516,0.0078 -0.07031,0.01563 -0.105468,0.01563 l -2.210938,0.332031 V 5.070317 l 0.390625,-0.109375 v -1.28125 l 0.746094,0.550781 c 0.53125,0.398438 0.851562,0.484375 1.023437,0.484375 0.253906,0 0.4375,-0.199219 0.722656,-0.527344 0.06641,-0.07031 0.132813,-0.148437 0.195313,-0.21875 0.367187,-0.390625 0.75,-0.578125 1.183594,-0.578125 0.511719,0 1.066406,0.285156 1.738281,0.878906 0.671875,-0.59375 1.226562,-0.878906 1.734375,-0.878906 0.433594,0 0.816406,0.1875 1.179687,0.578125 0.06641,0.07031 0.132813,0.148438 0.195313,0.21875 0.285156,0.328125 0.476563,0.527344 0.730469,0.527344 0.167968,0 0.484375,-0.08594 1.015625,-0.484375 l 0.753906,-0.550781 v 1.28125 l 0.390625,0.109375 z M 26.914062,9.375 c -0.07422,0.230469 -0.378906,0.351563 -0.753906,0.355469 0.0039,0.21875 -0.05469,0.429688 -0.113282,0.515625 -0.21875,0.285156 -2.667968,1.988281 -3.011718,2.09375 -0.03906,0.01172 -0.08594,0.01172 -0.140625,0.01172 -0.109375,0 -0.234375,-0.01563 -0.363281,-0.05078 -0.113282,0.375 -0.339844,0.636719 -0.601563,0.636719 -0.25,0 -0.472656,-0.25 -0.589844,-0.613281 -0.148437,0.05469 -0.308593,0.08203 -0.429687,0.08203 -0.0625,0 -0.109375,-0.0039 -0.152344,-0.01172 -0.34375,-0.109374 -2.785156,-1.828124 -2.988281,-2.117187 -0.0625,-0.08203 -0.113281,-0.261719 -0.125,-0.453125 -0.382813,0 -0.691407,-0.121094 -0.765625,-0.355469 -0.07813,-0.230469 0.08984,-0.503906 0.398437,-0.722656 -0.164062,-0.183594 -0.261719,-0.429687 -0.261719,-0.539063 -0.0078,-0.351562 0.929688,-3.117187 1.15625,-3.398437 0.05859,-0.07031 0.230469,-0.1875 0.441407,-0.253906 -0.109375,-0.34375 -0.07813,-0.648438 0.121093,-0.789063 0.195313,-0.136718 0.503907,-0.08203 0.796876,0.117188 0.132812,-0.203125 0.335937,-0.367188 0.445312,-0.402344 0.226562,-0.07422 1.238281,-0.08203 1.667969,-0.08203 0.660156,0 1.832031,0.02344 2.050781,0.09375 0.101562,0.03516 0.277344,0.175781 0.40625,0.355469 0.316406,-0.214844 0.628906,-0.285157 0.835938,-0.140626 0.191406,0.132813 0.234374,0.429688 0.132812,0.757813 0.234375,0.0625 0.429688,0.195313 0.488281,0.277344 0.222657,0.277343 1.144531,3.050781 1.136719,3.40625 0,0.101562 -0.08203,0.304687 -0.21875,0.480469 0.332031,0.226562 0.519531,0.503906 0.4375,0.746093 z m -11.683594,3.398438 -2.210937,-0.332031 c -0.03516,0 -0.07031,-0.0078 -0.109375,-0.01563 l -2.898438,-0.433589 v 0.488281 H 8.453124 V 11.992188 L 3.230468,13.097657 V 5.070313 L 3.621093,4.960938 V 3.679688 L 4.375,4.230469 c 0.53125,0.398438 0.847656,0.484375 1.015624,0.484375 0.253907,0 0.449219,-0.199219 0.726563,-0.527344 C 6.183597,4.11719 6.25,4.039063 6.316406,3.96875 6.679687,3.578125 7.0625,3.390625 7.496093,3.390625 c 0.507813,0 1.0625,0.285156 1.734375,0.878906 0.671875,-0.59375 1.226563,-0.878906 1.738282,-0.878906 0.433593,0 0.8125,0.1875 1.183593,0.578125 0.0625,0.07031 0.125,0.148438 0.195313,0.21875 0.285156,0.328125 0.46875,0.527344 0.726562,0.527344 0.171875,0 0.488282,-0.08594 1.015625,-0.484375 l 0.75,-0.550781 v 1.28125 l 0.390625,0.109375 z M 21.894531,0 C 5.726562,0 0,4.949219 0,4.949219 v 14.554688 c 2.191406,-1.125 4.828124,-2.058594 7.632812,-2.792969 -0.05078,-0.289063 -0.09375,-0.574219 -0.121094,-0.84375 -0.07031,-0.78125 0.07422,-1.375 0.4375,-1.773438 0.261719,-0.289062 0.617188,-0.449219 1,-0.449219 0.417969,0 1.183594,0.195313 1.652344,1.496094 0.101562,0.289063 0.21875,0.558594 0.34375,0.824219 3.742188,-0.75 7.539062,-1.152344 10.949219,-1.152344 3.402343,0 7.257812,0.402344 10.996093,1.148438 0.121094,-0.261719 0.238282,-0.535157 0.339844,-0.820313 0.46875,-1.300781 1.234375,-1.496094 1.652344,-1.496094 0.382812,0 0.738281,0.160157 1,0.449219 0.363281,0.398438 0.507812,0.992188 0.4375,1.773438 -0.02734,0.273437 -0.07031,0.5625 -0.125,0.851562 2.792969,0.734375 5.414062,1.667969 7.597656,2.785157 V 4.949219 C 43.792968,4.949219 38.058593,0 21.894531,0"
     style="fill:#ffffff;fill-opacity:1;fill-rule:nonzero;stroke:none" />
  <path
     inkscape:connector-curvature="0"
     id="path32"
     d="M 16.359374,22.097657 C 14.617187,21.488281 11.050781,19.726563 9.542968,15.53125 9.152343,14.445313 8.585937,14.605469 8.691406,15.761719 c 0.28125,3.019531 2.195312,6.691406 6.214844,8.359375 1.71875,0.714844 2.6875,-1.59375 1.453124,-2.023437"
     style="fill:#ffffff;fill-opacity:1;fill-rule:nonzero;stroke:none" />
  <path
     inkscape:connector-curvature="0"
     id="path34"
     d="m 27.527343,22.097657 c 1.746094,-0.609376 5.308594,-2.371094 6.816407,-6.566407 0.390624,-1.085937 0.960937,-0.925781 0.855468,0.230469 -0.28125,3.019531 -2.199218,6.691406 -6.214844,8.359375 -1.722656,0.714844 -2.6875,-1.59375 -1.457031,-2.023437"
     style="fill:#ffffff;fill-opacity:1;fill-rule:nonzero;stroke:none" />
  <path
     inkscape:connector-curvature="0"
     id="path36"
     d="m 26.4375,21.246094 c 0.238281,-0.05078 0.578124,-0.140625 0.964843,-0.265625 1.078125,-0.40625 2.996094,-1.378906 4.464844,-3.320312 C 28.484374,17 25.039062,16.644531 21.957031,16.644531 c -3.109375,0 -6.574219,0.363282 -9.976563,1.035157 1.53125,2.015625 3.546875,2.980469 4.585938,3.351562 0.328125,0.09766 0.625,0.171875 0.828125,0.214844 0.484375,0.105469 0.976562,0.183594 1.582031,-0.320313 0.605469,-0.507812 0.714844,-0.8125 2.941406,-0.8125 2.222656,0 2.332032,0.304688 2.9375,0.8125 0.605469,0.503907 1.097656,0.425782 1.582032,0.320313"
     style="fill:#ffffff;fill-opacity:1;fill-rule:nonzero;stroke:none" />
  <path
     inkscape:connector-curvature="0"
     id="path38"
     d="m 38.03125,26.667969 -4.964844,8.195312 c 1.871094,-0.847656 4.675781,-2.980468 4.964844,-8.195312"
     style="fill:#ffffff;fill-opacity:1;fill-rule:nonzero;stroke:none" />
  <path
     inkscape:connector-curvature="0"
     id="path40"
     d="M 10.765624,34.863281 5.800781,26.667969 c 0.289062,5.214844 3.09375,7.347656 4.964843,8.195312"
     style="fill:#ffffff;fill-opacity:1;fill-rule:nonzero;stroke:none" />
  <path
     inkscape:connector-curvature="0"
     id="path42"
     d="m 36.738281,41.15625 c -0.957031,0.769531 -1.703125,1.296875 -2.304688,1.714844 -1.3125,0.921875 -1.816406,1.335937 -1.761719,2.023437 l 0.230469,2.949219 -1.722656,-0.800781 C 29.824218,46.441407 29.191406,45.625 29.070312,44.304688 c -0.183594,-2.039063 1.078125,-4.167969 3.378906,-5.695313 0.542969,-0.359375 1.03125,-0.617187 1.421875,-0.8125 0.386719,-0.195312 0.75,-0.40625 0.78125,-0.511718 C 34.726563,37.058594 34.296874,36.6875 33.03125,36.125 32.902343,36.06641 32.667968,35.96875 32.453124,35.875 L 21.917968,53.257813 11.378906,35.875 c -0.214844,0.09375 -0.449219,0.191407 -0.578125,0.25 -1.265625,0.5625 -1.695313,0.933594 -1.621094,1.160157 0.03125,0.105468 0.390625,0.316406 0.777344,0.511718 0.394531,0.195313 0.882812,0.453125 1.425781,0.8125 2.300781,1.527344 3.5625,3.65625 3.378906,5.695313 -0.121094,1.320312 -0.753906,2.136719 -2.113281,2.738281 l -1.722656,0.800781 0.230469,-2.949219 c 0.05859,-0.6875 -0.449219,-1.101562 -1.761719,-2.023437 C 8.796874,42.453125 8.050781,41.925781 7.097656,41.15625 1.199218,36.417969 1.007812,30.449219 2.730468,27.902344 3.304687,27.066407 4.925781,25.25 4.933593,25.242188 L 4.664062,24.820313 c -0.59375,-0.05469 -1.058594,-0.550782 -1.058594,-1.160156 0,-0.644532 0.523438,-1.167969 1.167969,-1.167969 0.648437,0 1.171875,0.523437 1.171875,1.167969 0,0.128906 -0.02344,0.246093 -0.05859,0.359374 0.0078,0.0078 0.02734,0.01172 0.01953,0.03516 L 21.917968,50.851563 37.925781,24.054688 c -0.0078,-0.02344 0.01172,-0.02734 0.01953,-0.03516 -0.03516,-0.113281 -0.05859,-0.230468 -0.05859,-0.359374 0,-0.644532 0.523438,-1.167969 1.167969,-1.167969 0.648437,0 1.171875,0.523437 1.171875,1.167969 0,0.609374 -0.464844,1.105468 -1.058594,1.160156 l -0.269531,0.421875 c 0.0078,0.0078 1.628906,1.824219 2.203125,2.660156 1.726559,2.546878 1.531247,8.515628 -4.363284,13.253909 z M 35.695312,18.550781 c -0.679688,1.871094 -1.925781,3.808594 -3.886719,5.269532 1.558594,0.492187 3.519531,0.503906 4.859375,-0.386719 -0.457031,1.167969 -1.878906,2.683594 -2.910156,3.679687 -0.1875,-0.125 -0.375,-0.285156 -0.511719,-0.429687 -0.414062,-0.445313 -0.785156,-0.05469 -0.503906,0.3125 0.09766,0.125 0.347656,0.484375 0.496094,0.609375 -0.304688,0.28125 -0.53125,0.480469 -0.597657,0.539062 -0.207031,-0.125 -0.421874,-0.316406 -0.570312,-0.480468 -0.414062,-0.441406 -0.789062,-0.05078 -0.507812,0.316406 0.101562,0.128906 0.363281,0.503906 0.511718,0.617188 -0.253906,0.203124 -0.53125,0.425781 -0.78125,0.59375 -0.515625,-0.65625 -1.074218,-1.339844 -1.914062,-0.914063 -0.886719,0.457031 -0.0039,1.054687 -0.0039,1.941406 0,3.554688 -2.234376,4.875 -2.789063,6.378907 -0.558594,1.507812 -1.082031,4.195312 -1.523437,4.929687 -0.433594,0.726563 -2.292969,1.535156 -3.144532,0.867187 C 21.0625,43.0625 19.1875,42.261719 18.769531,41.527344 18.351562,40.792969 17.761718,38.105469 17.203124,36.597657 16.648437,35.09375 14.457031,33.773438 14.457031,30.21875 c 0,-0.886719 0.882812,-1.484375 -0.0039,-1.941406 -0.839843,-0.425781 -1.398437,0.257813 -1.917968,0.914063 -0.246094,-0.167969 -0.523438,-0.390626 -0.777344,-0.59375 0.148438,-0.113282 0.410156,-0.488282 0.511719,-0.617188 0.28125,-0.367188 -0.09375,-0.757812 -0.507813,-0.316406 -0.148437,0.164062 -0.363281,0.355468 -0.570312,0.480468 -0.06641,-0.05859 -0.292969,-0.257812 -0.597656,-0.539062 0.148437,-0.125 0.398437,-0.484375 0.496093,-0.609375 0.285157,-0.367187 -0.08984,-0.757813 -0.503906,-0.3125 -0.136719,0.144531 -0.324219,0.304687 -0.511719,0.429687 -1.03125,-0.996093 -2.453125,-2.511718 -2.910156,-3.679687 1.394531,0.925781 3.203125,0.882813 4.785156,0.328125 -1.90625,-1.445312 -3.125,-3.34375 -3.800781,-5.179688 C 5.128913,19.410157 2.300788,20.488281 7e-6,21.792969 v 7.570312 c 0,12.21875 17.46875,26.34375 21.953124,27.605469 4.484376,-1.261719 21.839844,-15.386719 21.839844,-27.605469 v -7.640624 c -2.285163,-1.289063 -5.097663,-2.351563 -8.097663,-3.171876"
     style="fill:#ffffff;fill-opacity:1;fill-rule:nonzero;stroke:none" />
  <path
     inkscape:connector-curvature="0"
     id="path44"
     d="m 34.4375,35.523438 c 0.722656,0.394531 1.472656,0.972656 1.472656,1.761719 0,0.839843 -0.703125,1.199218 -1.453125,1.582031 -0.382813,0.199219 -0.808594,0.414062 -1.296875,0.742187 -0.722656,0.476563 -3.050782,2.214844 -2.839844,4.589844 0.07813,0.828125 0.386719,1.265625 1.210938,1.667969 l -0.109376,-1.066407 c -0.04687,-1.0625 0.898438,-1.941406 2.273438,-2.90625 0.585938,-0.414062 1.3125,-0.925781 2.238281,-1.667968 5.082031,-4.082032 5.652344,-9.390625 4.117188,-11.660156 -0.203125,-0.300782 -0.503907,-0.730469 -0.808594,-1.152344 -0.457031,4.625 -2.8125,6.953125 -4.804687,8.109375"
     style="fill:#ffffff;fill-opacity:1;fill-rule:nonzero;stroke:none" />
  <path
     inkscape:connector-curvature="0"
     id="path46"
     d="m 4.59375,27.414063 c -0.308594,0.421875 -0.609376,0.851562 -0.8125,1.152344 -1.535157,2.269531 -0.964844,7.578124 4.117187,11.660156 0.925781,0.742187 1.652344,1.253906 2.238281,1.667968 1.375,0.964844 2.320313,1.84375 2.273438,2.90625 l -0.109375,1.066407 c 0.824219,-0.402344 1.132812,-0.839844 1.210937,-1.667969 0.210938,-2.375 -2.117187,-4.113281 -2.839844,-4.589844 C 10.183593,39.28125 9.757812,39.066407 9.375,38.867188 8.625,38.484375 7.921874,38.125 7.921874,37.285157 c 0,-0.789063 0.746094,-1.367188 1.472657,-1.761719 C 7.402343,34.367188 5.046874,32.039063 4.59375,27.414063"
     style="fill:#ffffff;fill-opacity:1;fill-rule:nonzero;stroke:none" />
</svg>
