<?xml version="1.0" encoding="UTF-8" standalone="no"?>
<svg
   version="1.1"
   viewBox="0 0 173.32797 29.189996"
   stroke-miterlimit="10"
   id="svg285"
   width="173.32797"
   height="29.189997"
   style="fill:none;stroke:none;stroke-linecap:square;stroke-miterlimit:10"
   sodipodi:docname="ucmllogo-textfull.svg"
   inkscape:version="1.1.2 (b8e25be8, 2022-02-05)"
   inkscape:export-filename="/Users/yani/workspace/www_calgaryml/favicon.png"
   inkscape:export-xdpi="17.738277"
   inkscape:export-ydpi="17.738277"
   xmlns:inkscape="http://www.inkscape.org/namespaces/inkscape"
   xmlns:sodipodi="http://sodipodi.sourceforge.net/DTD/sodipodi-0.dtd"
   xmlns="http://www.w3.org/2000/svg"
   xmlns:svg="http://www.w3.org/2000/svg">
  <defs
     id="defs38" />
  <sodipodi:namedview
     id="namedview36"
     pagecolor="#ffffff"
     bordercolor="#666666"
     borderopacity="1.0"
     inkscape:pageshadow="2"
     inkscape:pageopacity="0.0"
     inkscape:pagecheckerboard="0"
     showgrid="false"
     fit-margin-top="0"
     fit-margin-left="0"
     fit-margin-right="0"
     fit-margin-bottom="0"
     inkscape:zoom="10.454168"
     inkscape:cx="80.829002"
     inkscape:cy="14.63531"
     inkscape:window-width="2501"
     inkscape:window-height="1338"
     inkscape:window-x="0"
     inkscape:window-y="25"
     inkscape:window-maximized="0"
     inkscape:current-layer="svg285"
     showguides="true"
     inkscape:guide-bbox="true">
    <sodipodi:guide
       position="898.03232,-69.970467"
       orientation="0,-1"
       id="guide3273" />
  </sodipodi:namedview>
  <path
     d="m 118.6766,25.215906 v 0 c 0,-1.303802 1.05691,-2.360716 2.36071,-2.360716 v 0 c 0.62613,0 1.22661,0.248693 1.66932,0.691402 0.44271,0.44271 0.6914,1.043186 0.6914,1.669314 v 0 c 0,1.303801 -1.05692,2.360716 -2.36072,2.360716 v 0 c -1.3038,0 -2.36071,-1.056915 -2.36071,-2.360716 z"
     id="path25"
     style="fill:#000000;fill-opacity:0;fill-rule:evenodd;stroke:#d6001c;stroke-width:0.120432;stroke-dasharray:0.963459px;stroke-opacity:1" />
  <path
     d="M 121.03731,6.3470355 V 22.854949"
     id="path37"
     style="fill:#000000;fill-opacity:0;fill-rule:evenodd;stroke:#d6001c;stroke-width:0.120432;stroke-miterlimit:10;stroke-dasharray:0.240865, 0.48173;stroke-dashoffset:0;stroke-opacity:1" />
  <path
     d="M 121.03731,6.3470355 V 22.854949"
     id="path39"
     style="font-variation-settings:normal;opacity:1;mix-blend-mode:normal;fill:none;fill-opacity:1;fill-rule:evenodd;stroke:#d6001c;stroke-width:1.20432;stroke-linecap:butt;stroke-linejoin:round;stroke-miterlimit:10;stroke-dasharray:none;stroke-dashoffset:0;stroke-opacity:1;stop-color:#000000;stop-opacity:1" />
  <path
     d="M 141.94294,6.3470355 V 22.854949"
     id="path47"
     style="fill-rule:evenodd;stroke:#d6001c;stroke-width:1.20432;stroke-linecap:butt;stroke-linejoin:round;stroke-miterlimit:10;stroke-dasharray:none;stroke-dashoffset:0;stroke-opacity:1" />
  <path
     d="m 129.29211,13.377279 v 0"
     id="path181"
     style="fill:#000000;fill-opacity:0;fill-rule:evenodd;stroke:#d6001c;stroke-width:0.120432;stroke-miterlimit:10;stroke-dasharray:0.240865, 0.48173;stroke-dashoffset:0;stroke-opacity:1" />
  <path
     d="m 129.29211,13.377279 v 0"
     id="path183"
     style="fill-rule:evenodd;stroke:#d6001c;stroke-width:0.120432;stroke-linecap:butt;stroke-linejoin:round;stroke-miterlimit:10;stroke-dasharray:0.240865, 0.48173;stroke-dashoffset:0;stroke-opacity:1" />
  <path
     d="m 127.62292,14.068802 v 0"
     id="path185"
     style="fill:#000000;fill-opacity:0;fill-rule:evenodd;stroke:#d6001c;stroke-width:0.120432;stroke-miterlimit:10;stroke-dasharray:0.240865, 0.48173;stroke-dashoffset:0;stroke-opacity:1" />
  <path
     d="m 127.62292,14.068802 v 0"
     id="path187"
     style="fill-rule:evenodd;stroke:#d6001c;stroke-width:0.120432;stroke-linecap:butt;stroke-linejoin:round;stroke-miterlimit:10;stroke-dasharray:0.240865, 0.48173;stroke-dashoffset:0;stroke-opacity:1" />
  <path
     d="M 141.94294,6.3470355 131.49049,22.854949"
     id="path71"
     style="fill-rule:evenodd;stroke:#d6001c;stroke-width:1.20432;stroke-linecap:butt;stroke-linejoin:round;stroke-miterlimit:10;stroke-dasharray:none;stroke-dashoffset:0;stroke-opacity:1" />
  <path
     d="M 121.03731,6.3470355 131.48988,22.854949"
     id="path59"
     style="fill-rule:evenodd;stroke:#d6001c;stroke-width:1.20432;stroke-linecap:butt;stroke-linejoin:round;stroke-miterlimit:10;stroke-dasharray:none;stroke-dashoffset:0;stroke-opacity:1" />
  <path
     d="m 118.6766,3.9864396 v 0 c 0,-1.3038013 1.05691,-2.3607163 2.36071,-2.3607163 v 0 c 0.62613,0 1.22661,0.248693 1.66932,0.6914026 0.44271,0.4427095 0.6914,1.0431856 0.6914,1.6693137 v 0 c 0,1.303681 -1.05692,2.3607163 -2.36072,2.3607163 v 0 c -1.3038,0 -2.36071,-1.0570353 -2.36071,-2.3607163 z"
     id="path11"
     style="fill:#d6001c;fill-opacity:1;fill-rule:evenodd;stroke:#ffcd00;stroke-width:1.20432;stroke-miterlimit:10;stroke-dasharray:none;stroke-opacity:1" />
  <path
     d="m 129.12941,25.215906 v 0 c 0,-1.303802 1.05703,-2.360716 2.36071,-2.360716 v 0 c 0.62613,0 1.22661,0.248693 1.66932,0.691402 0.44271,0.44271 0.6914,1.043186 0.6914,1.669314 v 0 c 0,1.303801 -1.05691,2.360716 -2.36072,2.360716 v 0 c -1.30368,0 -2.36071,-1.056915 -2.36071,-2.360716 z"
     id="path21"
     style="fill-rule:evenodd;stroke:#ffcd00;stroke-width:1.20432;stroke-miterlimit:10;stroke-dasharray:none;stroke-opacity:1" />
  <path
     d="m 139.58234,25.215906 v 0 c 0,-1.303802 1.05691,-2.360716 2.36072,-2.360716 v 0 c 0.626,0 1.22648,0.248693 1.66919,0.691402 0.44271,0.44271 0.69152,1.043186 0.69152,1.669314 v 0 c 0,1.303801 -1.05703,2.360716 -2.36071,2.360716 v 0 c -1.30381,0 -2.36072,-1.056915 -2.36072,-2.360716 z"
     id="path23"
     style="fill:#d6001c;fill-opacity:1;fill-rule:evenodd;stroke:#ffcd00;stroke-width:1.20432;stroke-miterlimit:10;stroke-dasharray:none;stroke-opacity:1" />
  <path
     d="m 118.6766,25.215906 v 0 c 0,-1.303802 1.05691,-2.360716 2.36071,-2.360716 v 0 c 0.62613,0 1.22661,0.248693 1.66932,0.691402 0.44271,0.44271 0.6914,1.043186 0.6914,1.669314 v 0 c 0,1.303801 -1.05692,2.360716 -2.36072,2.360716 v 0 c -1.3038,0 -2.36071,-1.056915 -2.36071,-2.360716 z"
     id="path27"
     style="fill:#d6001c;fill-opacity:1;fill-rule:evenodd;stroke:#ffcd00;stroke-width:1.20432;stroke-linecap:butt;stroke-linejoin:round;stroke-miterlimit:10;stroke-dasharray:none;stroke-dashoffset:20;stroke-opacity:1" />
  <path
     d="m 129.12941,25.215906 v 0 c 0,-1.303802 1.05703,-2.360716 2.36071,-2.360716 v 0 c 0.62613,0 1.22661,0.248693 1.66932,0.691402 0.44271,0.44271 0.6914,1.043186 0.6914,1.669314 v 0 c 0,1.303801 -1.05691,2.360716 -2.36072,2.360716 v 0 c -1.30368,0 -2.36071,-1.056915 -2.36071,-2.360716 z"
     id="path6687"
     style="fill:#d6001c;fill-opacity:1;fill-rule:evenodd;stroke:#ffcd00;stroke-width:1.20432;stroke-miterlimit:10;stroke-dasharray:none;stroke-opacity:1" />
  <path
     d="m 147.09865,25.215906 v 0 c 0,-1.303802 1.05691,-2.360716 2.36071,-2.360716 v 0 c 0.62613,0 1.22661,0.248693 1.66932,0.691402 0.44271,0.44271 0.6914,1.043186 0.6914,1.669314 v 0 c 0,1.303801 -1.05691,2.360716 -2.36072,2.360716 v 0 c -1.3038,0 -2.36071,-1.056915 -2.36071,-2.360716 z"
     id="path6855"
     style="fill:#000000;fill-opacity:0;fill-rule:evenodd;stroke:#d6001c;stroke-width:0.120432;stroke-dasharray:0.963459px;stroke-opacity:1" />
  <path
     d="M 149.45936,6.3470355 V 22.854949"
     id="path6857"
     style="fill:#000000;fill-opacity:0;fill-rule:evenodd;stroke:#d6001c;stroke-width:0.120432;stroke-miterlimit:10;stroke-dasharray:0.240865, 0.48173;stroke-dashoffset:0;stroke-opacity:1" />
  <path
     d="M 149.45936,6.3470355 V 22.854949"
     id="path6859"
     style="mix-blend-mode:normal;fill-rule:evenodd;stroke:#ffcd00;stroke-width:1.20432;stroke-linecap:butt;stroke-linejoin:round;stroke-miterlimit:10;stroke-dasharray:none;stroke-dashoffset:0;stroke-opacity:1" />
  <path
     d="m 157.71416,13.377279 v 0"
     id="path6869"
     style="fill:#000000;fill-opacity:0;fill-rule:evenodd;stroke:#d6001c;stroke-width:0.120432;stroke-miterlimit:10;stroke-dasharray:0.240865, 0.48173;stroke-dashoffset:0;stroke-opacity:1" />
  <path
     d="m 157.71416,13.377279 v 0"
     id="path6871"
     style="fill-rule:evenodd;stroke:#d6001c;stroke-width:0.120432;stroke-linecap:butt;stroke-linejoin:round;stroke-miterlimit:10;stroke-dasharray:0.240865, 0.48173;stroke-dashoffset:0;stroke-opacity:1" />
  <path
     d="m 156.04497,14.068802 v 0"
     id="path6873"
     style="fill:#000000;fill-opacity:0;fill-rule:evenodd;stroke:#d6001c;stroke-width:0.120432;stroke-miterlimit:10;stroke-dasharray:0.240865, 0.48173;stroke-dashoffset:0;stroke-opacity:1" />
  <path
     d="m 156.04497,14.068802 v 0"
     id="path6875"
     style="fill-rule:evenodd;stroke:#d6001c;stroke-width:0.120432;stroke-linecap:butt;stroke-linejoin:round;stroke-miterlimit:10;stroke-dasharray:0.240865, 0.48173;stroke-dashoffset:0;stroke-opacity:1" />
  <path
     d="m 147.09865,3.9864396 v 0 c 0,-1.3038013 1.05691,-2.3607163 2.36071,-2.3607163 v 0 c 0.62613,0 1.22661,0.248693 1.66932,0.6914026 0.44271,0.4427095 0.6914,1.0431856 0.6914,1.6693137 v 0 c 0,1.303681 -1.05691,2.3607163 -2.36072,2.3607163 v 0 c -1.3038,0 -2.36071,-1.0570353 -2.36071,-2.3607163 z"
     id="path6883"
     style="fill:#d6001c;fill-opacity:1;fill-rule:evenodd;stroke:#ffcd00;stroke-width:1.20432;stroke-miterlimit:10;stroke-dasharray:none;stroke-opacity:1" />
  <path
     d="m 157.55146,25.215906 v 0 c 0,-1.303802 1.05703,-2.360716 2.36072,-2.360716 v 0 c 0.62612,0 1.2266,0.248693 1.66931,0.691402 0.44271,0.44271 0.6914,1.043186 0.6914,1.669314 v 0 c 0,1.303801 -1.05691,2.360716 -2.36071,2.360716 v 0 c -1.30369,0 -2.36072,-1.056915 -2.36072,-2.360716 z"
     id="path6885"
     style="fill-rule:evenodd;stroke:#ffcd00;stroke-width:1.20432;stroke-miterlimit:10;stroke-dasharray:none;stroke-opacity:1" />
  <path
     d="m 168.00439,25.215906 v 0 c 0,-1.303802 1.05692,-2.360716 2.36072,-2.360716 v 0 c 0.626,0 1.22648,0.248693 1.66919,0.691402 0.44271,0.44271 0.69152,1.043186 0.69152,1.669314 v 0 c 0,1.303801 -1.05703,2.360716 -2.36071,2.360716 v 0 c -1.3038,0 -2.36072,-1.056915 -2.36072,-2.360716 z"
     id="path6887"
     style="fill:#d6001c;fill-opacity:1;fill-rule:evenodd;stroke:#ffcd00;stroke-width:1.20432;stroke-miterlimit:10;stroke-dasharray:none;stroke-opacity:1" />
  <path
     d="m 147.09865,25.215906 v 0 c 0,-1.303802 1.05691,-2.360716 2.36071,-2.360716 v 0 c 0.62613,0 1.22661,0.248693 1.66932,0.691402 0.44271,0.44271 0.6914,1.043186 0.6914,1.669314 v 0 c 0,1.303801 -1.05691,2.360716 -2.36072,2.360716 v 0 c -1.3038,0 -2.36071,-1.056915 -2.36071,-2.360716 z"
     id="path6889"
     style="fill:#d6001c;fill-opacity:1;fill-rule:evenodd;stroke:#ffcd00;stroke-width:1.20432;stroke-linecap:butt;stroke-linejoin:round;stroke-miterlimit:10;stroke-dasharray:none;stroke-dashoffset:20;stroke-opacity:1" />
  <path
     d="m 157.55146,25.215906 v 0 c 0,-1.303802 1.05703,-2.360716 2.36072,-2.360716 v 0 c 0.62612,0 1.2266,0.248693 1.66931,0.691402 0.44271,0.44271 0.6914,1.043186 0.6914,1.669314 v 0 c 0,1.303801 -1.05691,2.360716 -2.36071,2.360716 v 0 c -1.30369,0 -2.36072,-1.056915 -2.36072,-2.360716 z"
     id="path6891"
     style="fill:#d6001c;fill-opacity:1;fill-rule:evenodd;stroke:#ffcd00;stroke-width:1.20432;stroke-miterlimit:10;stroke-dasharray:none;stroke-opacity:1" />
  <path
     d="m 139.63184,3.9864396 v 0 c 0,-1.3038013 1.05691,-2.3607163 2.36071,-2.3607163 v 0 c 0.62613,0 1.22661,0.248693 1.66932,0.6914026 0.44271,0.4427095 0.6914,1.0431856 0.6914,1.6693137 v 0 c 0,1.303681 -1.05691,2.3607163 -2.36072,2.3607163 v 0 c -1.3038,0 -2.36071,-1.0570353 -2.36071,-2.3607163 z"
     id="path7626"
     style="fill:#d6001c;fill-opacity:1;fill-rule:evenodd;stroke:#ffcd00;stroke-width:1.20432;stroke-miterlimit:10;stroke-dasharray:none;stroke-opacity:1" />
  <g
     aria-label="Calgary"
     id="text877"
     style="font-weight:bold;font-size:322.54px;line-height:1.25;font-family:'Proxima Nova';-inkscape-font-specification:'Proxima Nova, Bold';fill:#d6001c;stroke:#ffcd00;stroke-width:10"
     transform="scale(0.1)">
    <path
       d="m 117.889,227.55261 c 49.02608,0 76.11945,-26.12574 91.60137,-52.89656 l -39.34989,-19.02986 c -9.03112,17.7397 -28.38352,31.28638 -52.25148,31.28638 -37.414638,0 -65.798159,-29.99622 -65.798159,-70.63626 0,-40.640045 28.383521,-70.636266 65.798159,-70.636266 23.86796,0 43.22036,13.869221 52.25148,31.286381 l 39.34989,-19.3524 C 194.33099,30.803204 166.91508,5.0000031 117.889,5.0000031 54.993702,5.0000031 5.0000002,50.155604 5.0000002,116.27631 c 0,66.1207 49.9937018,111.2763 112.8889998,111.2763 z"
       id="path3766" />
    <path
       d="m 329.63652,223.68213 h 40.96259 V 123.04965 c 0,-44.833065 -32.57655,-59.024825 -68.05595,-59.024825 -24.51304,0 -49.02608,7.74096 -68.05594,24.51304 l 15.48192,27.415905 c 13.22414,-12.25652 28.70606,-18.384784 45.47814,-18.384784 20.64256,0 34.18924,10.321284 34.18924,26.125744 v 21.61018 c -10.32128,-12.57906 -28.70606,-19.02986 -49.34862,-19.02986 -24.83558,0 -54.18672,13.22414 -54.18672,49.67116 0,34.83432 29.35114,51.6064 54.18672,51.6064 20.32002,0 38.7048,-7.41842 49.34862,-19.99748 z m 0,-37.41464 c -6.77334,9.03112 -19.67494,13.54668 -32.89908,13.54668 -16.127,0 -29.35114,-8.38604 -29.35114,-22.90034 0,-15.15938 13.22414,-23.54542 29.35114,-23.54542 13.22414,0 26.12574,4.51556 32.89908,13.54668 z"
       id="path3768" />
    <path
       d="m 411.22909,223.68213 h 40.96258 V 8.5479432 h -40.96258 z"
       id="path3770" />
    <path
       d="m 489.89859,263.67709 c 19.67494,17.09462 40.3175,23.22288 67.08832,23.22288 38.38226,0 84.18294,-14.5143 84.18294,-73.86166 V 67.895305 h -41.28512 v 19.99748 c -12.57906,-15.80446 -29.35114,-23.86796 -48.05846,-23.86796 -39.34988,0 -68.70103,28.38352 -68.70103,79.344845 0,51.92894 29.67369,79.34484 68.70103,79.34484 19.02986,0 35.80194,-9.03112 48.05846,-24.51304 v 15.80446 c 0,30.6413 -23.22288,39.34988 -42.89782,39.34988 -19.67494,0 -36.12448,-5.48318 -48.70354,-19.3524 z m 109.98614,-95.1493 c -6.77334,9.99874 -21.61018,17.7397 -35.15686,17.7397 -23.22288,0 -39.34988,-16.127 -39.34988,-42.89782 0,-26.77082 16.127,-42.89782 39.34988,-42.89782 13.54668,0 28.38352,7.41842 35.15686,17.7397 z"
       id="path3772" />
    <path
       d="m 775.64887,223.68213 h 40.96258 V 123.04965 c 0,-44.833065 -32.57654,-59.024825 -68.05594,-59.024825 -24.51304,0 -49.02608,7.74096 -68.05594,24.51304 l 15.48192,27.415905 c 13.22414,-12.25652 28.70606,-18.384784 45.47814,-18.384784 20.64256,0 34.18924,10.321284 34.18924,26.125744 v 21.61018 c -10.32128,-12.57906 -28.70606,-19.02986 -49.34862,-19.02986 -24.83558,0 -54.18672,13.22414 -54.18672,49.67116 0,34.83432 29.35114,51.6064 54.18672,51.6064 20.32002,0 38.7048,-7.41842 49.34862,-19.99748 z m 0,-37.41464 c -6.77334,9.03112 -19.67494,13.54668 -32.89908,13.54668 -16.127,0 -29.35114,-8.38604 -29.35114,-22.90034 0,-15.15938 13.22414,-23.54542 29.35114,-23.54542 13.22414,0 26.12574,4.51556 32.89908,13.54668 z"
       id="path3774" />
    <path
       d="M 857.24142,223.68213 H 898.204 V 120.79187 c 6.77334,-9.99874 24.83558,-17.7397 38.38226,-17.7397 4.51556,0 8.38604,0.64508 11.2889,1.29016 V 64.347365 c -19.3524,0 -38.7048,10.96636 -49.67116,24.83558 v -21.28764 h -40.96258 z"
       id="path3776" />
    <path
       d="m 973.79934,247.87263 -6.12826,36.76956 c 5.16064,1.29016 15.48192,2.25778 20.32002,2.25778 26.7708,-0.64508 47.4134,-8.38604 59.0248,-37.73718 l 73.2166,-181.267485 h -44.188 L 1035.4045,176.26875 994.76444,67.895305 H 950.899 l 63.2178,158.044605 -5.8057,13.22414 c -3.8705,8.38604 -10.96634,11.2889 -21.61016,11.2889 -3.87048,0 -9.35366,-0.96762 -12.9016,-2.58032 z"
       id="path3778" />
  </g>
</svg>
