<?xml version="1.0" encoding="UTF-8" standalone="no"?>
<svg
   version="1.1"
   viewBox="0 0 685.22315 232.55261"
   stroke-miterlimit="10"
   id="svg285"
   width="685.22314"
   height="232.55261"
   style="fill:none;stroke:none;stroke-linecap:square;stroke-miterlimit:10"
   sodipodi:docname="ucmllogo-text.svg"
   inkscape:version="1.2.2 (b0a8486, 2022-12-01)"
   xmlns:inkscape="http://www.inkscape.org/namespaces/inkscape"
   xmlns:sodipodi="http://sodipodi.sourceforge.net/DTD/sodipodi-0.dtd"
   xmlns="http://www.w3.org/2000/svg"
   xmlns:svg="http://www.w3.org/2000/svg">
  <sodipodi:namedview
     id="namedview34"
     pagecolor="#ffffff"
     bordercolor="#000000"
     borderopacity="0.25"
     inkscape:showpageshadow="2"
     inkscape:pageopacity="0.0"
     inkscape:pagecheckerboard="0"
     inkscape:deskcolor="#d1d1d1"
     showgrid="false"
     inkscape:zoom="2.3058182"
     inkscape:cx="349.98423"
     inkscape:cy="116.87825"
     inkscape:window-width="1680"
     inkscape:window-height="997"
     inkscape:window-x="0"
     inkscape:window-y="25"
     inkscape:window-maximized="1"
     inkscape:current-layer="svg285" />
  <defs
     id="defs38" />
  <path
     d="m 231.43016,201.22998 v 0 c 0,-10.826 8.776,-19.602 19.602,-19.602 v 0 c 5.199,0 10.185,2.065 13.861,5.741 3.676,3.676 5.741,8.662 5.741,13.861 v 0 c 0,10.826 -8.776,19.602 -19.602,19.602 v 0 c -10.826,0 -19.602,-8.776 -19.602,-19.602 z"
     id="path25"
     style="fill:#000000;fill-opacity:0;fill-rule:evenodd;stroke:#d6001c;stroke-dasharray:8px;stroke-opacity:1" />
  <path
     d="m 251.03216,44.55398 v 137.072"
     id="path37"
     style="fill:#000000;fill-opacity:0;fill-rule:evenodd;stroke:#d6001c;stroke-width:1;stroke-miterlimit:10;stroke-dasharray:2, 4;stroke-dashoffset:0;stroke-opacity:1" />
  <path
     d="m 251.03216,44.55398 v 137.072"
     id="path39"
     style="font-variation-settings:normal;opacity:1;mix-blend-mode:normal;fill:none;fill-opacity:1;fill-rule:evenodd;stroke:#d6001c;stroke-width:10;stroke-linecap:butt;stroke-linejoin:round;stroke-miterlimit:10;stroke-dasharray:none;stroke-dashoffset:0;stroke-opacity:1;stop-color:#000000;stop-opacity:1" />
  <path
     d="m 424.62016,44.55398 v 137.072"
     id="path47"
     style="fill-rule:evenodd;stroke:#d6001c;stroke-width:10;stroke-linecap:butt;stroke-linejoin:round;stroke-miterlimit:10;stroke-dasharray:none;stroke-dashoffset:0;stroke-opacity:1" />
  <path
     d="m 424.62016,44.55398 -86.791,137.072"
     id="path71"
     style="fill-rule:evenodd;stroke:#d6001c;stroke-width:10;stroke-linecap:butt;stroke-linejoin:round;stroke-miterlimit:10;stroke-dasharray:none;stroke-dashoffset:0;stroke-opacity:1" />
  <path
     d="m 251.03216,44.55398 86.792,137.072"
     id="path59"
     style="fill-rule:evenodd;stroke:#d6001c;stroke-width:10;stroke-linecap:butt;stroke-linejoin:round;stroke-miterlimit:10;stroke-dasharray:none;stroke-dashoffset:0;stroke-opacity:1" />
  <path
     d="m 231.43016,24.95298 v 0 c 0,-10.826 8.776,-19.6020004 19.602,-19.6020004 v 0 c 5.199,0 10.185,2.065 13.861,5.7410004 3.676,3.676 5.741,8.662 5.741,13.861 v 0 c 0,10.825 -8.776,19.602 -19.602,19.602 v 0 c -10.826,0 -19.602,-8.777 -19.602,-19.602 z"
     id="path11"
     style="fill:#d6001c;fill-opacity:1;fill-rule:evenodd;stroke:#ffcd00;stroke-width:10;stroke-miterlimit:10;stroke-dasharray:none;stroke-opacity:1" />
  <path
     d="m 318.22416,201.22998 v 0 c 0,-10.826 8.777,-19.602 19.602,-19.602 v 0 c 5.199,0 10.185,2.065 13.861,5.741 3.676,3.676 5.741,8.662 5.741,13.861 v 0 c 0,10.826 -8.776,19.602 -19.602,19.602 v 0 c -10.825,0 -19.602,-8.776 -19.602,-19.602 z"
     id="path21"
     style="fill-rule:evenodd;stroke:#ffcd00;stroke-width:10;stroke-miterlimit:10;stroke-dasharray:none;stroke-opacity:1" />
  <path
     d="m 405.01916,201.22998 v 0 c 0,-10.826 8.776,-19.602 19.602,-19.602 v 0 c 5.198,0 10.184,2.065 13.86,5.741 3.676,3.676 5.742,8.662 5.742,13.861 v 0 c 0,10.826 -8.777,19.602 -19.602,19.602 v 0 c -10.826,0 -19.602,-8.776 -19.602,-19.602 z"
     id="path23"
     style="fill:#d6001c;fill-opacity:1;fill-rule:evenodd;stroke:#ffcd00;stroke-width:10;stroke-miterlimit:10;stroke-dasharray:none;stroke-opacity:1" />
  <path
     d="m 231.43016,201.22998 v 0 c 0,-10.826 8.776,-19.602 19.602,-19.602 v 0 c 5.199,0 10.185,2.065 13.861,5.741 3.676,3.676 5.741,8.662 5.741,13.861 v 0 c 0,10.826 -8.776,19.602 -19.602,19.602 v 0 c -10.826,0 -19.602,-8.776 -19.602,-19.602 z"
     id="path27"
     style="fill:#d6001c;fill-opacity:1;fill-rule:evenodd;stroke:#ffcd00;stroke-width:10;stroke-linecap:butt;stroke-linejoin:round;stroke-miterlimit:10;stroke-dasharray:none;stroke-dashoffset:20;stroke-opacity:1" />
  <path
     d="m 318.22416,201.22998 v 0 c 0,-10.826 8.777,-19.602 19.602,-19.602 v 0 c 5.199,0 10.185,2.065 13.861,5.741 3.676,3.676 5.741,8.662 5.741,13.861 v 0 c 0,10.826 -8.776,19.602 -19.602,19.602 v 0 c -10.825,0 -19.602,-8.776 -19.602,-19.602 z"
     id="path6687"
     style="fill:#d6001c;fill-opacity:1;fill-rule:evenodd;stroke:#ffcd00;stroke-width:10;stroke-miterlimit:10;stroke-dasharray:none;stroke-opacity:1" />
  <path
     d="m 467.43016,201.22998 v 0 c 0,-10.826 8.776,-19.602 19.602,-19.602 v 0 c 5.199,0 10.185,2.065 13.861,5.741 3.676,3.676 5.741,8.662 5.741,13.861 v 0 c 0,10.826 -8.776,19.602 -19.602,19.602 v 0 c -10.826,0 -19.602,-8.776 -19.602,-19.602 z"
     id="path6855"
     style="fill:#000000;fill-opacity:0;fill-rule:evenodd;stroke:#d6001c;stroke-dasharray:8px;stroke-opacity:1" />
  <path
     d="m 487.03216,44.55398 v 137.072"
     id="path6857"
     style="fill:#000000;fill-opacity:0;fill-rule:evenodd;stroke:#d6001c;stroke-width:1;stroke-miterlimit:10;stroke-dasharray:2, 4;stroke-dashoffset:0;stroke-opacity:1" />
  <path
     d="m 487.03216,44.55398 v 137.072"
     id="path6859"
     style="mix-blend-mode:normal;fill-rule:evenodd;stroke:#ffcd00;stroke-width:10;stroke-linecap:butt;stroke-linejoin:round;stroke-miterlimit:10;stroke-dasharray:none;stroke-dashoffset:0;stroke-opacity:1" />
  <path
     d="m 467.43016,24.95298 v 0 c 0,-10.826 8.776,-19.6020004 19.602,-19.6020004 v 0 c 5.199,0 10.185,2.065 13.861,5.7410004 3.676,3.676 5.741,8.662 5.741,13.861 v 0 c 0,10.825 -8.776,19.602 -19.602,19.602 v 0 c -10.826,0 -19.602,-8.777 -19.602,-19.602 z"
     id="path6883"
     style="fill:#d6001c;fill-opacity:1;fill-rule:evenodd;stroke:#ffcd00;stroke-width:10;stroke-miterlimit:10;stroke-dasharray:none;stroke-opacity:1" />
  <path
     d="m 554.22416,201.22998 v 0 c 0,-10.826 8.777,-19.602 19.602,-19.602 v 0 c 5.199,0 10.185,2.065 13.861,5.741 3.676,3.676 5.741,8.662 5.741,13.861 v 0 c 0,10.826 -8.776,19.602 -19.602,19.602 v 0 c -10.825,0 -19.602,-8.776 -19.602,-19.602 z"
     id="path6885"
     style="fill-rule:evenodd;stroke:#ffcd00;stroke-width:10;stroke-miterlimit:10;stroke-dasharray:none;stroke-opacity:1" />
  <path
     d="m 641.01916,201.22998 v 0 c 0,-10.826 8.776,-19.602 19.602,-19.602 v 0 c 5.198,0 10.184,2.065 13.86,5.741 3.676,3.676 5.742,8.662 5.742,13.861 v 0 c 0,10.826 -8.777,19.602 -19.602,19.602 v 0 c -10.826,0 -19.602,-8.776 -19.602,-19.602 z"
     id="path6887"
     style="fill:#d6001c;fill-opacity:1;fill-rule:evenodd;stroke:#ffcd00;stroke-width:10;stroke-miterlimit:10;stroke-dasharray:none;stroke-opacity:1" />
  <path
     d="m 467.43016,201.22998 v 0 c 0,-10.826 8.776,-19.602 19.602,-19.602 v 0 c 5.199,0 10.185,2.065 13.861,5.741 3.676,3.676 5.741,8.662 5.741,13.861 v 0 c 0,10.826 -8.776,19.602 -19.602,19.602 v 0 c -10.826,0 -19.602,-8.776 -19.602,-19.602 z"
     id="path6889"
     style="fill:#d6001c;fill-opacity:1;fill-rule:evenodd;stroke:#ffcd00;stroke-width:10;stroke-linecap:butt;stroke-linejoin:round;stroke-miterlimit:10;stroke-dasharray:none;stroke-dashoffset:20;stroke-opacity:1" />
  <path
     d="m 554.22416,201.22998 v 0 c 0,-10.826 8.777,-19.602 19.602,-19.602 v 0 c 5.199,0 10.185,2.065 13.861,5.741 3.676,3.676 5.741,8.662 5.741,13.861 v 0 c 0,10.826 -8.776,19.602 -19.602,19.602 v 0 c -10.825,0 -19.602,-8.776 -19.602,-19.602 z"
     id="path6891"
     style="fill:#d6001c;fill-opacity:1;fill-rule:evenodd;stroke:#ffcd00;stroke-width:10;stroke-miterlimit:10;stroke-dasharray:none;stroke-opacity:1" />
  <path
     d="m 405.43016,24.95298 v 0 c 0,-10.826 8.776,-19.6020004 19.602,-19.6020004 v 0 c 5.199,0 10.185,2.065 13.861,5.7410004 3.676,3.676 5.741,8.662 5.741,13.861 v 0 c 0,10.825 -8.776,19.602 -19.602,19.602 v 0 c -10.826,0 -19.602,-8.777 -19.602,-19.602 z"
     id="path7626"
     style="fill:#d6001c;fill-opacity:1;fill-rule:evenodd;stroke:#ffcd00;stroke-width:10;stroke-miterlimit:10;stroke-dasharray:none;stroke-opacity:1" />
  <g
     aria-label="C"
     id="text877"
     style="font-weight:bold;font-size:322.54px;line-height:1.25;font-family:'Proxima Nova';-inkscape-font-specification:'Proxima Nova, Bold';fill:#d6001c;stroke:#ffcd00;stroke-width:10">
    <path
       d="m 117.889,227.55261 c 49.02608,0 76.11945,-26.12574 91.60137,-52.89656 l -39.34989,-19.02986 c -9.03112,17.7397 -28.38352,31.28638 -52.25148,31.28638 -37.414638,0 -65.798159,-29.99622 -65.798159,-70.63626 0,-40.640045 28.383521,-70.636266 65.798159,-70.636266 23.86796,0 43.22036,13.869221 52.25148,31.286381 l 39.34989,-19.3524 C 194.33099,30.803204 166.91508,5.0000031 117.889,5.0000031 54.993702,5.0000031 5.0000002,50.155604 5.0000002,116.27631 c 0,66.1207 49.9937018,111.2763 112.8889998,111.2763 z"
       id="path850" />
  </g>
</svg>
