<?xml version="1.0" encoding="UTF-8" standalone="no"?>
<svg
   version="1.1"
   viewBox="0 0 213.793 216.481"
   stroke-miterlimit="10"
   id="svg285"
   width="213.793"
   height="216.481"
   style="fill:none;stroke:none;stroke-linecap:square;stroke-miterlimit:10"
   sodipodi:docname="ucmllogo-icon.svg"
   inkscape:version="1.1.2 (b8e25be8, 2022-02-05)"
   inkscape:export-filename="/Users/yani/workspace/www_calgaryml/favicon.png"
   inkscape:export-xdpi="17.738277"
   inkscape:export-ydpi="17.738277"
   xmlns:inkscape="http://www.inkscape.org/namespaces/inkscape"
   xmlns:sodipodi="http://sodipodi.sourceforge.net/DTD/sodipodi-0.dtd"
   xmlns="http://www.w3.org/2000/svg"
   xmlns:svg="http://www.w3.org/2000/svg">
  <defs
     id="defs38" />
  <sodipodi:namedview
     id="namedview36"
     pagecolor="#ffffff"
     bordercolor="#666666"
     borderopacity="1.0"
     inkscape:pageshadow="2"
     inkscape:pageopacity="0.0"
     inkscape:pagecheckerboard="0"
     showgrid="false"
     fit-margin-top="0"
     fit-margin-left="0"
     fit-margin-right="0"
     fit-margin-bottom="0"
     inkscape:zoom="1"
     inkscape:cx="106.5"
     inkscape:cy="99"
     inkscape:window-width="1788"
     inkscape:window-height="1338"
     inkscape:window-x="0"
     inkscape:window-y="25"
     inkscape:window-maximized="0"
     inkscape:current-layer="svg285" />
  <path
     d="m 0.5,196.379 v 0 c 0,-10.826 8.776,-19.602 19.602,-19.602 v 0 c 5.199,0 10.185,2.065 13.861,5.741 3.676,3.676 5.741,8.662 5.741,13.861 v 0 c 0,10.826 -8.776,19.602 -19.602,19.602 v 0 C 9.276,215.981 0.5,207.205 0.5,196.379 Z"
     id="path25"
     style="fill:#000000;fill-opacity:0;fill-rule:evenodd;stroke-dasharray:8px;stroke:#d6001c;stroke-opacity:1" />
  <path
     d="M 20.102,39.703 V 176.775"
     id="path37"
     style="fill:#000000;fill-opacity:0;fill-rule:evenodd;stroke-width:1;stroke-miterlimit:10;stroke-dasharray:2, 4;stroke-dashoffset:0;stroke:#d6001c;stroke-opacity:1" />
  <path
     d="M 20.102,39.703 V 176.775"
     id="path39"
     style="mix-blend-mode:normal;fill-rule:evenodd;stroke:#d6001c;stroke-width:10;stroke-linecap:butt;stroke-linejoin:round;stroke-miterlimit:10;stroke-dasharray:none;stroke-dashoffset:0;stroke-opacity:1" />
  <path
     d="M 193.69,39.703 V 176.775"
     id="path45"
     style="fill:#000000;fill-opacity:0;fill-rule:evenodd;stroke-width:1;stroke-miterlimit:10;stroke-dasharray:2, 4;stroke-dashoffset:0;stroke:#d6001c;stroke-opacity:1" />
  <path
     d="M 193.69,39.703 V 176.775"
     id="path47"
     style="fill-rule:evenodd;stroke:#d6001c;stroke-width:10;stroke-linecap:butt;stroke-linejoin:round;stroke-miterlimit:10;stroke-dasharray:none;stroke-dashoffset:0;stroke-opacity:1" />
  <path
     d="m 20.102,39.703 86.792,137.072"
     id="path57"
     style="fill:#000000;fill-opacity:0;fill-rule:evenodd;stroke-width:1;stroke-miterlimit:10;stroke-dasharray:2, 4;stroke-dashoffset:0;stroke:#d6001c;stroke-opacity:1" />
  <path
     d="M 193.69,39.703 106.899,176.775"
     id="path69"
     style="fill:#000000;fill-opacity:0;fill-rule:evenodd;stroke-width:1;stroke-miterlimit:10;stroke-dasharray:2, 4;stroke-dashoffset:0;stroke:#d6001c;stroke-opacity:1" />
  <path
     d="m 88.645,98.078 v 0"
     id="path181"
     style="fill:#000000;fill-opacity:0;fill-rule:evenodd;stroke-width:1;stroke-miterlimit:10;stroke-dasharray:2, 4;stroke-dashoffset:0;stroke:#d6001c;stroke-opacity:1" />
  <path
     d="m 88.645,98.078 v 0"
     id="path183"
     style="fill-rule:evenodd;stroke:#d6001c;stroke-width:1;stroke-linecap:butt;stroke-linejoin:round;stroke-miterlimit:10;stroke-dasharray:2, 4;stroke-dashoffset:0;stroke-opacity:1" />
  <path
     d="m 74.785,103.82 v 0"
     id="path185"
     style="fill:#000000;fill-opacity:0;fill-rule:evenodd;stroke-width:1;stroke-miterlimit:10;stroke-dasharray:2, 4;stroke-dashoffset:0;stroke:#d6001c;stroke-opacity:1" />
  <path
     d="m 74.785,103.82 v 0"
     id="path187"
     style="fill-rule:evenodd;stroke:#d6001c;stroke-width:1;stroke-linecap:butt;stroke-linejoin:round;stroke-miterlimit:10;stroke-dasharray:2, 4;stroke-dashoffset:0;stroke-opacity:1" />
  <path
     d="M 193.69,39.703 106.899,176.775"
     id="path71"
     style="fill-rule:evenodd;stroke:#d6001c;stroke-width:10;stroke-linecap:butt;stroke-linejoin:round;stroke-miterlimit:10;stroke-dasharray:none;stroke-dashoffset:0;stroke-opacity:1" />
  <path
     d="m 20.102,39.703 86.792,137.072"
     id="path59"
     style="fill-rule:evenodd;stroke:#d6001c;stroke-width:10;stroke-linecap:butt;stroke-linejoin:round;stroke-miterlimit:10;stroke-dasharray:none;stroke-dashoffset:0;stroke-opacity:1" />
  <path
     d="m 87.294,20.102 v 0 C 87.294,9.276 96.071,0.5 106.896,0.5 v 0 c 5.199,0 10.185,2.065 13.861,5.741 3.676,3.676 5.741,8.662 5.741,13.861 v 0 c 0,10.825 -8.776,19.602 -19.602,19.602 v 0 c -10.825,0 -19.602,-8.777 -19.602,-19.602 z"
     id="path7"
     style="fill-rule:evenodd;stroke:#d6001c;stroke-width:5;stroke-miterlimit:10;stroke-dasharray:5,10;stroke-dashoffset:0;stroke-opacity:1" />
  <path
     d="m 174.089,20.102 v 0 C 174.089,9.276 182.865,0.5 193.691,0.5 v 0 c 5.198,0 10.184,2.065 13.86,5.741 3.676,3.676 5.742,8.662 5.742,13.861 v 0 c 0,10.825 -8.777,19.602 -19.602,19.602 v 0 c -10.826,0 -19.602,-8.777 -19.602,-19.602 z"
     id="path9"
     style="fill-rule:evenodd;stroke:#d6001c;stroke-width:5;stroke-miterlimit:10;stroke-dasharray:5,10;stroke-dashoffset:0;stroke-opacity:1" />
  <path
     d="m 0.5,20.102 v 0 C 0.5,9.276 9.276,0.5 20.102,0.5 v 0 c 5.199,0 10.185,2.065 13.861,5.741 3.676,3.676 5.741,8.662 5.741,13.861 v 0 c 0,10.825 -8.776,19.602 -19.602,19.602 v 0 C 9.276,39.704 0.5,30.927 0.5,20.102 Z"
     id="path11"
     style="fill-rule:evenodd;stroke:#ffcd00;stroke-opacity:1;stroke-width:10;stroke-miterlimit:10;stroke-dasharray:none" />
  <path
     d="m 87.294,196.379 v 0 c 0,-10.826 8.777,-19.602 19.602,-19.602 v 0 c 5.199,0 10.185,2.065 13.861,5.741 3.676,3.676 5.741,8.662 5.741,13.861 v 0 c 0,10.826 -8.776,19.602 -19.602,19.602 v 0 c -10.825,0 -19.602,-8.776 -19.602,-19.602 z"
     id="path21"
     style="fill-rule:evenodd;stroke:#ffcd00;stroke-opacity:1;stroke-width:10;stroke-miterlimit:10;stroke-dasharray:none" />
  <path
     d="m 174.089,196.379 v 0 c 0,-10.826 8.776,-19.602 19.602,-19.602 v 0 c 5.198,0 10.184,2.065 13.86,5.741 3.676,3.676 5.742,8.662 5.742,13.861 v 0 c 0,10.826 -8.777,19.602 -19.602,19.602 v 0 c -10.826,0 -19.602,-8.776 -19.602,-19.602 z"
     id="path23"
     style="fill-rule:evenodd;stroke:#ffcd00;stroke-opacity:1;stroke-width:10;stroke-miterlimit:10;stroke-dasharray:none" />
  <path
     d="m 0.5,196.379 v 0 c 0,-10.826 8.776,-19.602 19.602,-19.602 v 0 c 5.199,0 10.185,2.065 13.861,5.741 3.676,3.676 5.741,8.662 5.741,13.861 v 0 c 0,10.826 -8.776,19.602 -19.602,19.602 v 0 C 9.276,215.981 0.5,207.205 0.5,196.379 Z"
     id="path27"
     style="fill-rule:evenodd;stroke:#ffcd00;stroke-width:10;stroke-linecap:butt;stroke-linejoin:round;stroke-miterlimit:10;stroke-dasharray:none;stroke-dashoffset:20;stroke-opacity:1" />
</svg>
