<?xml version="1.0" encoding="UTF-8" standalone="no"?>
<svg
   version="1.1"
   viewBox="0 0 458.793 225.481"
   stroke-miterlimit="10"
   id="svg285"
   width="458.793"
   height="225.481"
   style="fill:none;stroke:none;stroke-linecap:square;stroke-miterlimit:10"
   sodipodi:docname="ucmllogo-2block.svg"
   inkscape:version="1.1.2 (b8e25be8, 2022-02-05)"
   inkscape:export-filename="/Users/yani/workspace/www_calgaryml/favicon.png"
   inkscape:export-xdpi="17.738277"
   inkscape:export-ydpi="17.738277"
   xmlns:inkscape="http://www.inkscape.org/namespaces/inkscape"
   xmlns:sodipodi="http://sodipodi.sourceforge.net/DTD/sodipodi-0.dtd"
   xmlns="http://www.w3.org/2000/svg"
   xmlns:svg="http://www.w3.org/2000/svg">
  <defs
     id="defs38" />
  <sodipodi:namedview
     id="namedview36"
     pagecolor="#ffffff"
     bordercolor="#666666"
     borderopacity="1.0"
     inkscape:pageshadow="2"
     inkscape:pageopacity="0.0"
     inkscape:pagecheckerboard="0"
     showgrid="false"
     fit-margin-top="0"
     fit-margin-left="0"
     fit-margin-right="0"
     fit-margin-bottom="0"
     inkscape:zoom="0.7721825"
     inkscape:cx="-36.908373"
     inkscape:cy="224.0403"
     inkscape:window-width="1788"
     inkscape:window-height="1338"
     inkscape:window-x="0"
     inkscape:window-y="25"
     inkscape:window-maximized="0"
     inkscape:current-layer="svg285"
     showguides="true"
     inkscape:guide-bbox="true" />
  <path
     d="m 5,200.879 v 0 c 0,-10.826 8.776,-19.602 19.602,-19.602 v 0 c 5.199,0 10.185,2.065 13.861,5.741 3.676,3.676 5.741,8.662 5.741,13.861 v 0 c 0,10.826 -8.776,19.602 -19.602,19.602 v 0 C 13.776,220.481 5,211.705 5,200.879 Z"
     id="path25"
     style="fill:#000000;fill-opacity:0;fill-rule:evenodd;stroke:#d6001c;stroke-dasharray:8px;stroke-opacity:1" />
  <path
     d="M 24.602,44.203 V 181.275"
     id="path37"
     style="fill:#000000;fill-opacity:0;fill-rule:evenodd;stroke:#d6001c;stroke-width:1;stroke-miterlimit:10;stroke-dasharray:2, 4;stroke-dashoffset:0;stroke-opacity:1" />
  <path
     d="M 24.602,44.203 V 181.275"
     id="path39"
     style="font-variation-settings:normal;opacity:1;mix-blend-mode:normal;fill:none;fill-opacity:1;fill-rule:evenodd;stroke:#d6001c;stroke-width:10;stroke-linecap:butt;stroke-linejoin:round;stroke-miterlimit:10;stroke-dasharray:none;stroke-dashoffset:0;stroke-opacity:1;stop-color:#000000;stop-opacity:1" />
  <path
     d="M 198.19,44.203 V 181.275"
     id="path47"
     style="fill-rule:evenodd;stroke:#d6001c;stroke-width:10;stroke-linecap:butt;stroke-linejoin:round;stroke-miterlimit:10;stroke-dasharray:none;stroke-dashoffset:0;stroke-opacity:1" />
  <path
     d="m 93.145,102.578 v 0"
     id="path181"
     style="fill:#000000;fill-opacity:0;fill-rule:evenodd;stroke:#d6001c;stroke-width:1;stroke-miterlimit:10;stroke-dasharray:2, 4;stroke-dashoffset:0;stroke-opacity:1" />
  <path
     d="m 93.145,102.578 v 0"
     id="path183"
     style="fill-rule:evenodd;stroke:#d6001c;stroke-width:1;stroke-linecap:butt;stroke-linejoin:round;stroke-miterlimit:10;stroke-dasharray:2, 4;stroke-dashoffset:0;stroke-opacity:1" />
  <path
     d="m 79.285,108.32 v 0"
     id="path185"
     style="fill:#000000;fill-opacity:0;fill-rule:evenodd;stroke:#d6001c;stroke-width:1;stroke-miterlimit:10;stroke-dasharray:2, 4;stroke-dashoffset:0;stroke-opacity:1" />
  <path
     d="m 79.285,108.32 v 0"
     id="path187"
     style="fill-rule:evenodd;stroke:#d6001c;stroke-width:1;stroke-linecap:butt;stroke-linejoin:round;stroke-miterlimit:10;stroke-dasharray:2, 4;stroke-dashoffset:0;stroke-opacity:1" />
  <path
     d="M 198.19,44.203 111.399,181.275"
     id="path71"
     style="fill-rule:evenodd;stroke:#d6001c;stroke-width:10;stroke-linecap:butt;stroke-linejoin:round;stroke-miterlimit:10;stroke-dasharray:none;stroke-dashoffset:0;stroke-opacity:1" />
  <path
     d="m 24.602,44.203 86.792,137.072"
     id="path59"
     style="fill-rule:evenodd;stroke:#d6001c;stroke-width:10;stroke-linecap:butt;stroke-linejoin:round;stroke-miterlimit:10;stroke-dasharray:none;stroke-dashoffset:0;stroke-opacity:1" />
  <path
     d="m 5,24.602 v 0 C 5,13.776 13.776,5 24.602,5 v 0 c 5.199,0 10.185,2.065 13.861,5.741 3.676,3.676 5.741,8.662 5.741,13.861 v 0 c 0,10.825 -8.776,19.602 -19.602,19.602 v 0 C 13.776,44.204 5,35.427 5,24.602 Z"
     id="path11"
     style="fill:#d6001c;fill-opacity:1;fill-rule:evenodd;stroke:#ffcd00;stroke-width:10;stroke-miterlimit:10;stroke-dasharray:none;stroke-opacity:1" />
  <path
     d="m 91.794,200.879 v 0 c 0,-10.826 8.777,-19.602 19.602,-19.602 v 0 c 5.199,0 10.185,2.065 13.861,5.741 3.676,3.676 5.741,8.662 5.741,13.861 v 0 c 0,10.826 -8.776,19.602 -19.602,19.602 v 0 c -10.825,0 -19.602,-8.776 -19.602,-19.602 z"
     id="path21"
     style="fill-rule:evenodd;stroke:#ffcd00;stroke-width:10;stroke-miterlimit:10;stroke-dasharray:none;stroke-opacity:1" />
  <path
     d="m 178.589,200.879 v 0 c 0,-10.826 8.776,-19.602 19.602,-19.602 v 0 c 5.198,0 10.184,2.065 13.86,5.741 3.676,3.676 5.742,8.662 5.742,13.861 v 0 c 0,10.826 -8.777,19.602 -19.602,19.602 v 0 c -10.826,0 -19.602,-8.776 -19.602,-19.602 z"
     id="path23"
     style="fill:#d6001c;fill-opacity:1;fill-rule:evenodd;stroke:#ffcd00;stroke-width:10;stroke-miterlimit:10;stroke-dasharray:none;stroke-opacity:1" />
  <path
     d="m 5,200.879 v 0 c 0,-10.826 8.776,-19.602 19.602,-19.602 v 0 c 5.199,0 10.185,2.065 13.861,5.741 3.676,3.676 5.741,8.662 5.741,13.861 v 0 c 0,10.826 -8.776,19.602 -19.602,19.602 v 0 C 13.776,220.481 5,211.705 5,200.879 Z"
     id="path27"
     style="fill:#d6001c;fill-opacity:1;fill-rule:evenodd;stroke:#ffcd00;stroke-width:10;stroke-linecap:butt;stroke-linejoin:round;stroke-miterlimit:10;stroke-dasharray:none;stroke-dashoffset:20;stroke-opacity:1" />
  <path
     d="m 91.794,200.879 v 0 c 0,-10.826 8.777,-19.602 19.602,-19.602 v 0 c 5.199,0 10.185,2.065 13.861,5.741 3.676,3.676 5.741,8.662 5.741,13.861 v 0 c 0,10.826 -8.776,19.602 -19.602,19.602 v 0 c -10.825,0 -19.602,-8.776 -19.602,-19.602 z"
     id="path6687"
     style="fill:#d6001c;fill-opacity:1;fill-rule:evenodd;stroke:#ffcd00;stroke-width:10;stroke-miterlimit:10;stroke-dasharray:none;stroke-opacity:1" />
  <path
     d="m 241,200.879 v 0 c 0,-10.826 8.776,-19.602 19.602,-19.602 v 0 c 5.199,0 10.185,2.065 13.861,5.741 3.676,3.676 5.741,8.662 5.741,13.861 v 0 c 0,10.826 -8.776,19.602 -19.602,19.602 v 0 C 249.776,220.481 241,211.705 241,200.879 Z"
     id="path6855"
     style="fill:#000000;fill-opacity:0;fill-rule:evenodd;stroke:#d6001c;stroke-dasharray:8px;stroke-opacity:1" />
  <path
     d="M 260.602,44.203 V 181.275"
     id="path6857"
     style="fill:#000000;fill-opacity:0;fill-rule:evenodd;stroke:#d6001c;stroke-width:1;stroke-miterlimit:10;stroke-dasharray:2, 4;stroke-dashoffset:0;stroke-opacity:1" />
  <path
     d="M 260.602,44.203 V 181.275"
     id="path6859"
     style="mix-blend-mode:normal;fill-rule:evenodd;stroke:#ffcd00;stroke-width:10;stroke-linecap:butt;stroke-linejoin:round;stroke-miterlimit:10;stroke-dasharray:none;stroke-dashoffset:0;stroke-opacity:1" />
  <path
     d="m 329.145,102.578 v 0"
     id="path6869"
     style="fill:#000000;fill-opacity:0;fill-rule:evenodd;stroke:#d6001c;stroke-width:1;stroke-miterlimit:10;stroke-dasharray:2, 4;stroke-dashoffset:0;stroke-opacity:1" />
  <path
     d="m 329.145,102.578 v 0"
     id="path6871"
     style="fill-rule:evenodd;stroke:#d6001c;stroke-width:1;stroke-linecap:butt;stroke-linejoin:round;stroke-miterlimit:10;stroke-dasharray:2, 4;stroke-dashoffset:0;stroke-opacity:1" />
  <path
     d="m 315.285,108.32 v 0"
     id="path6873"
     style="fill:#000000;fill-opacity:0;fill-rule:evenodd;stroke:#d6001c;stroke-width:1;stroke-miterlimit:10;stroke-dasharray:2, 4;stroke-dashoffset:0;stroke-opacity:1" />
  <path
     d="m 315.285,108.32 v 0"
     id="path6875"
     style="fill-rule:evenodd;stroke:#d6001c;stroke-width:1;stroke-linecap:butt;stroke-linejoin:round;stroke-miterlimit:10;stroke-dasharray:2, 4;stroke-dashoffset:0;stroke-opacity:1" />
  <path
     d="m 241,24.602 v 0 C 241,13.776 249.776,5 260.602,5 v 0 c 5.199,0 10.185,2.065 13.861,5.741 3.676,3.676 5.741,8.662 5.741,13.861 v 0 c 0,10.825 -8.776,19.602 -19.602,19.602 v 0 C 249.776,44.204 241,35.427 241,24.602 Z"
     id="path6883"
     style="fill:#d6001c;fill-opacity:1;fill-rule:evenodd;stroke:#ffcd00;stroke-width:10;stroke-miterlimit:10;stroke-dasharray:none;stroke-opacity:1" />
  <path
     d="m 327.794,200.879 v 0 c 0,-10.826 8.777,-19.602 19.602,-19.602 v 0 c 5.199,0 10.185,2.065 13.861,5.741 3.676,3.676 5.741,8.662 5.741,13.861 v 0 c 0,10.826 -8.776,19.602 -19.602,19.602 v 0 c -10.825,0 -19.602,-8.776 -19.602,-19.602 z"
     id="path6885"
     style="fill-rule:evenodd;stroke:#ffcd00;stroke-width:10;stroke-miterlimit:10;stroke-dasharray:none;stroke-opacity:1" />
  <path
     d="m 414.589,200.879 v 0 c 0,-10.826 8.776,-19.602 19.602,-19.602 v 0 c 5.198,0 10.184,2.065 13.86,5.741 3.676,3.676 5.742,8.662 5.742,13.861 v 0 c 0,10.826 -8.777,19.602 -19.602,19.602 v 0 c -10.826,0 -19.602,-8.776 -19.602,-19.602 z"
     id="path6887"
     style="fill:#d6001c;fill-opacity:1;fill-rule:evenodd;stroke:#ffcd00;stroke-width:10;stroke-miterlimit:10;stroke-dasharray:none;stroke-opacity:1" />
  <path
     d="m 241,200.879 v 0 c 0,-10.826 8.776,-19.602 19.602,-19.602 v 0 c 5.199,0 10.185,2.065 13.861,5.741 3.676,3.676 5.741,8.662 5.741,13.861 v 0 c 0,10.826 -8.776,19.602 -19.602,19.602 v 0 C 249.776,220.481 241,211.705 241,200.879 Z"
     id="path6889"
     style="fill:#d6001c;fill-opacity:1;fill-rule:evenodd;stroke:#ffcd00;stroke-width:10;stroke-linecap:butt;stroke-linejoin:round;stroke-miterlimit:10;stroke-dasharray:none;stroke-dashoffset:20;stroke-opacity:1" />
  <path
     d="m 327.794,200.879 v 0 c 0,-10.826 8.777,-19.602 19.602,-19.602 v 0 c 5.199,0 10.185,2.065 13.861,5.741 3.676,3.676 5.741,8.662 5.741,13.861 v 0 c 0,10.826 -8.776,19.602 -19.602,19.602 v 0 c -10.825,0 -19.602,-8.776 -19.602,-19.602 z"
     id="path6891"
     style="fill:#d6001c;fill-opacity:1;fill-rule:evenodd;stroke:#ffcd00;stroke-width:10;stroke-miterlimit:10;stroke-dasharray:none;stroke-opacity:1" />
  <path
     d="m 179,24.602 v 0 C 179,13.776 187.776,5 198.602,5 v 0 c 5.199,0 10.185,2.065 13.861,5.741 3.676,3.676 5.741,8.662 5.741,13.861 v 0 c 0,10.825 -8.776,19.602 -19.602,19.602 v 0 C 187.776,44.204 179,35.427 179,24.602 Z"
     id="path7626"
     style="fill:#d6001c;fill-opacity:1;fill-rule:evenodd;stroke:#ffcd00;stroke-width:10;stroke-miterlimit:10;stroke-dasharray:none;stroke-opacity:1" />
</svg>
