<?xml version="1.0" encoding="UTF-8" standalone="no"?>
<svg
   version="1.1"
   viewBox="0 0 685.22315 232.55261"
   stroke-miterlimit="10"
   id="svg285"
   width="685.22314"
   height="232.55261"
   style="fill:none;stroke:none;stroke-linecap:square;stroke-miterlimit:10"
   xmlns="http://www.w3.org/2000/svg"
   xmlns:svg="http://www.w3.org/2000/svg">
  <defs
     id="defs38" />
  <path
     id="text10210"
     style="font-style:normal;font-variant:normal;font-weight:bold;font-stretch:normal;font-size:322.54px;line-height:1.25;font-family:'Proxima Nova';-inkscape-font-specification:'Proxima Nova, Bold';font-variant-ligatures:normal;font-variant-caps:normal;font-variant-numeric:normal;font-variant-east-asian:normal;fill:#d6001c;fill-opacity:1;stroke:#ffcd00;stroke-width:10;stroke-miterlimit:10;stroke-dasharray:none;stroke-opacity:1"
     d="m -452.67934,-336.45175 v 129.33789 c 0,43.6298 20.85069,76.28314 65.07617,86.38672 4.77046,60.631506 52.82112,101.279292 112.49219,101.279292 49.02608,0 76.11964,-26.125664 91.60156,-52.896484 l -39.34961,-19.029297 c -9.03112,17.7397 -28.38399,31.287109 -52.25195,31.287109 -33.47591,0 -59.70437,-24.022724 -64.85938,-58.1875 51.05789,-5.36439 76.64417,-36.62675 79.27734,-81.33203 17.13878,4.2492 30.70421,15.78292 37.83399,29.5332 l 39.34961,-19.35351 c -13.57442,-23.97186 -36.99009,-47.15186 -76.93555,-51.74024 v -95.28515 h -46.44531 v 98.51367 c -36.88045,9.75523 -65.68222,36.50809 -76.48242,73.77734 -15.30017,-8.22539 -22.85938,-24.24484 -22.85938,-44.5664 v -127.72461 z m 143.82226,144.42968 c -3.61491,14.25467 -12.23265,24.98235 -25.87109,30.26953 5.54206,-12.8775 14.54398,-23.33677 25.87109,-30.26953 z" />
  <path
     d="m 231.43016,201.22998 v 0 c 0,-10.826 8.776,-19.602 19.602,-19.602 v 0 c 5.199,0 10.185,2.065 13.861,5.741 3.676,3.676 5.741,8.662 5.741,13.861 v 0 c 0,10.826 -8.776,19.602 -19.602,19.602 v 0 c -10.826,0 -19.602,-8.776 -19.602,-19.602 z"
     id="path25"
     style="fill:#000000;fill-opacity:0;fill-rule:evenodd;stroke:#d6001c;stroke-dasharray:8px;stroke-opacity:1" />
  <path
     d="m 251.03216,44.55398 v 137.072"
     id="path37"
     style="fill:#000000;fill-opacity:0;fill-rule:evenodd;stroke:#d6001c;stroke-width:1;stroke-miterlimit:10;stroke-dasharray:2, 4;stroke-dashoffset:0;stroke-opacity:1" />
  <path
     d="m 251.03216,44.55398 v 137.072"
     id="path39"
     style="font-variation-settings:normal;opacity:1;mix-blend-mode:normal;fill:none;fill-opacity:1;fill-rule:evenodd;stroke:#d6001c;stroke-width:10;stroke-linecap:butt;stroke-linejoin:round;stroke-miterlimit:10;stroke-dasharray:none;stroke-dashoffset:0;stroke-opacity:1;stop-color:#000000;stop-opacity:1" />
  <path
     d="m 424.62016,44.55398 v 137.072"
     id="path47"
     style="fill-rule:evenodd;stroke:#d6001c;stroke-width:10;stroke-linecap:butt;stroke-linejoin:round;stroke-miterlimit:10;stroke-dasharray:none;stroke-dashoffset:0;stroke-opacity:1" />
  <path
     d="m 319.57516,102.92898 v 0"
     id="path181"
     style="fill:#000000;fill-opacity:0;fill-rule:evenodd;stroke:#d6001c;stroke-width:1;stroke-miterlimit:10;stroke-dasharray:2, 4;stroke-dashoffset:0;stroke-opacity:1" />
  <path
     d="m 319.57516,102.92898 v 0"
     id="path183"
     style="fill-rule:evenodd;stroke:#d6001c;stroke-width:1;stroke-linecap:butt;stroke-linejoin:round;stroke-miterlimit:10;stroke-dasharray:2, 4;stroke-dashoffset:0;stroke-opacity:1" />
  <path
     d="m 305.71516,108.67098 v 0"
     id="path185"
     style="fill:#000000;fill-opacity:0;fill-rule:evenodd;stroke:#d6001c;stroke-width:1;stroke-miterlimit:10;stroke-dasharray:2, 4;stroke-dashoffset:0;stroke-opacity:1" />
  <path
     d="m 305.71516,108.67098 v 0"
     id="path187"
     style="fill-rule:evenodd;stroke:#d6001c;stroke-width:1;stroke-linecap:butt;stroke-linejoin:round;stroke-miterlimit:10;stroke-dasharray:2, 4;stroke-dashoffset:0;stroke-opacity:1" />
  <path
     d="m 424.62016,44.55398 -86.791,137.072"
     id="path71"
     style="fill-rule:evenodd;stroke:#d6001c;stroke-width:10;stroke-linecap:butt;stroke-linejoin:round;stroke-miterlimit:10;stroke-dasharray:none;stroke-dashoffset:0;stroke-opacity:1" />
  <path
     d="m 251.03216,44.55398 86.792,137.072"
     id="path59"
     style="fill-rule:evenodd;stroke:#d6001c;stroke-width:10;stroke-linecap:butt;stroke-linejoin:round;stroke-miterlimit:10;stroke-dasharray:none;stroke-dashoffset:0;stroke-opacity:1" />
  <path
     d="m 231.43016,24.95298 v 0 c 0,-10.826 8.776,-19.6020004 19.602,-19.6020004 v 0 c 5.199,0 10.185,2.065 13.861,5.7410004 3.676,3.676 5.741,8.662 5.741,13.861 v 0 c 0,10.825 -8.776,19.602 -19.602,19.602 v 0 c -10.826,0 -19.602,-8.777 -19.602,-19.602 z"
     id="path11"
     style="fill:#d6001c;fill-opacity:1;fill-rule:evenodd;stroke:#ffcd00;stroke-width:10;stroke-miterlimit:10;stroke-dasharray:none;stroke-opacity:1" />
  <path
     d="m 318.22416,201.22998 v 0 c 0,-10.826 8.777,-19.602 19.602,-19.602 v 0 c 5.199,0 10.185,2.065 13.861,5.741 3.676,3.676 5.741,8.662 5.741,13.861 v 0 c 0,10.826 -8.776,19.602 -19.602,19.602 v 0 c -10.825,0 -19.602,-8.776 -19.602,-19.602 z"
     id="path21"
     style="fill-rule:evenodd;stroke:#ffcd00;stroke-width:10;stroke-miterlimit:10;stroke-dasharray:none;stroke-opacity:1" />
  <path
     d="m 405.01916,201.22998 v 0 c 0,-10.826 8.776,-19.602 19.602,-19.602 v 0 c 5.198,0 10.184,2.065 13.86,5.741 3.676,3.676 5.742,8.662 5.742,13.861 v 0 c 0,10.826 -8.777,19.602 -19.602,19.602 v 0 c -10.826,0 -19.602,-8.776 -19.602,-19.602 z"
     id="path23"
     style="fill:#d6001c;fill-opacity:1;fill-rule:evenodd;stroke:#ffcd00;stroke-width:10;stroke-miterlimit:10;stroke-dasharray:none;stroke-opacity:1" />
  <path
     d="m 231.43016,201.22998 v 0 c 0,-10.826 8.776,-19.602 19.602,-19.602 v 0 c 5.199,0 10.185,2.065 13.861,5.741 3.676,3.676 5.741,8.662 5.741,13.861 v 0 c 0,10.826 -8.776,19.602 -19.602,19.602 v 0 c -10.826,0 -19.602,-8.776 -19.602,-19.602 z"
     id="path27"
     style="fill:#d6001c;fill-opacity:1;fill-rule:evenodd;stroke:#ffcd00;stroke-width:10;stroke-linecap:butt;stroke-linejoin:round;stroke-miterlimit:10;stroke-dasharray:none;stroke-dashoffset:20;stroke-opacity:1" />
  <text
     xml:space="preserve"
     style="font-style:normal;font-variant:normal;font-weight:normal;font-stretch:normal;font-size:322.54px;line-height:1.25;font-family:'Proxima Nova';-inkscape-font-specification:'Proxima Nova, Normal';font-variant-ligatures:normal;font-variant-caps:normal;font-variant-numeric:normal;font-variant-east-asian:normal;fill:#d6001c;fill-opacity:1;stroke:#ffcd00;stroke-width:10;stroke-miterlimit:10;stroke-dasharray:none;stroke-opacity:1"
     x="368.03366"
     y="-360.31787"
     id="text4536"><tspan
       id="tspan4534"
       x="368.03366"
       y="-360.31787"
       style="font-style:normal;font-variant:normal;font-weight:normal;font-stretch:normal;font-size:322.54px;font-family:'Proxima Nova';-inkscape-font-specification:'Proxima Nova, Normal';font-variant-ligatures:normal;font-variant-caps:normal;font-variant-numeric:normal;font-variant-east-asian:normal;fill:#d6001c;fill-opacity:1;stroke:#ffcd00;stroke-width:10;stroke-miterlimit:10;stroke-dasharray:none;stroke-opacity:1">UC</tspan></text>
  <path
     d="m 318.22416,201.22998 v 0 c 0,-10.826 8.777,-19.602 19.602,-19.602 v 0 c 5.199,0 10.185,2.065 13.861,5.741 3.676,3.676 5.741,8.662 5.741,13.861 v 0 c 0,10.826 -8.776,19.602 -19.602,19.602 v 0 c -10.825,0 -19.602,-8.776 -19.602,-19.602 z"
     id="path6687"
     style="fill:#d6001c;fill-opacity:1;fill-rule:evenodd;stroke:#ffcd00;stroke-width:10;stroke-miterlimit:10;stroke-dasharray:none;stroke-opacity:1" />
  <path
     d="m 317.01916,24.95298 v 0 c 0,-10.826 8.776,-19.6020004 19.602,-19.6020004 v 0 c 5.198,0 10.184,2.065 13.86,5.7410004 3.676,3.676 5.742,8.662 5.742,13.861 v 0 c 0,10.825 -8.777,19.602 -19.602,19.602 v 0 c -10.826,0 -19.602,-8.777 -19.602,-19.602 z"
     id="path6853"
     style="fill-rule:evenodd;stroke:#d6001c;stroke-width:5;stroke-miterlimit:10;stroke-dasharray:5, 10;stroke-dashoffset:0;stroke-opacity:1" />
  <path
     d="m 467.43016,201.22998 v 0 c 0,-10.826 8.776,-19.602 19.602,-19.602 v 0 c 5.199,0 10.185,2.065 13.861,5.741 3.676,3.676 5.741,8.662 5.741,13.861 v 0 c 0,10.826 -8.776,19.602 -19.602,19.602 v 0 c -10.826,0 -19.602,-8.776 -19.602,-19.602 z"
     id="path6855"
     style="fill:#000000;fill-opacity:0;fill-rule:evenodd;stroke:#d6001c;stroke-dasharray:8px;stroke-opacity:1" />
  <path
     d="m 487.03216,44.55398 v 137.072"
     id="path6857"
     style="fill:#000000;fill-opacity:0;fill-rule:evenodd;stroke:#d6001c;stroke-width:1;stroke-miterlimit:10;stroke-dasharray:2, 4;stroke-dashoffset:0;stroke-opacity:1" />
  <path
     d="m 487.03216,44.55398 v 137.072"
     id="path6859"
     style="mix-blend-mode:normal;fill-rule:evenodd;stroke:#ffcd00;stroke-width:10;stroke-linecap:butt;stroke-linejoin:round;stroke-miterlimit:10;stroke-dasharray:none;stroke-dashoffset:0;stroke-opacity:1" />
  <path
     d="m 555.57516,102.92898 v 0"
     id="path6869"
     style="fill:#000000;fill-opacity:0;fill-rule:evenodd;stroke:#d6001c;stroke-width:1;stroke-miterlimit:10;stroke-dasharray:2, 4;stroke-dashoffset:0;stroke-opacity:1" />
  <path
     d="m 555.57516,102.92898 v 0"
     id="path6871"
     style="fill-rule:evenodd;stroke:#d6001c;stroke-width:1;stroke-linecap:butt;stroke-linejoin:round;stroke-miterlimit:10;stroke-dasharray:2, 4;stroke-dashoffset:0;stroke-opacity:1" />
  <path
     d="m 541.71516,108.67098 v 0"
     id="path6873"
     style="fill:#000000;fill-opacity:0;fill-rule:evenodd;stroke:#d6001c;stroke-width:1;stroke-miterlimit:10;stroke-dasharray:2, 4;stroke-dashoffset:0;stroke-opacity:1" />
  <path
     d="m 541.71516,108.67098 v 0"
     id="path6875"
     style="fill-rule:evenodd;stroke:#d6001c;stroke-width:1;stroke-linecap:butt;stroke-linejoin:round;stroke-miterlimit:10;stroke-dasharray:2, 4;stroke-dashoffset:0;stroke-opacity:1" />
  <path
     d="m 641.01916,24.95298 v 0 c 0,-10.826 8.776,-19.6020004 19.602,-19.6020004 v 0 c 5.198,0 10.184,2.065 13.86,5.7410004 3.676,3.676 5.742,8.662 5.742,13.861 v 0 c 0,10.825 -8.777,19.602 -19.602,19.602 v 0 c -10.826,0 -19.602,-8.777 -19.602,-19.602 z"
     id="path6881"
     style="fill-rule:evenodd;stroke:#d6001c;stroke-width:5;stroke-miterlimit:10;stroke-dasharray:5, 10;stroke-dashoffset:0;stroke-opacity:1" />
  <path
     d="m 467.43016,24.95298 v 0 c 0,-10.826 8.776,-19.6020004 19.602,-19.6020004 v 0 c 5.199,0 10.185,2.065 13.861,5.7410004 3.676,3.676 5.741,8.662 5.741,13.861 v 0 c 0,10.825 -8.776,19.602 -19.602,19.602 v 0 c -10.826,0 -19.602,-8.777 -19.602,-19.602 z"
     id="path6883"
     style="fill:#d6001c;fill-opacity:1;fill-rule:evenodd;stroke:#ffcd00;stroke-width:10;stroke-miterlimit:10;stroke-dasharray:none;stroke-opacity:1" />
  <path
     d="m 554.22416,201.22998 v 0 c 0,-10.826 8.777,-19.602 19.602,-19.602 v 0 c 5.199,0 10.185,2.065 13.861,5.741 3.676,3.676 5.741,8.662 5.741,13.861 v 0 c 0,10.826 -8.776,19.602 -19.602,19.602 v 0 c -10.825,0 -19.602,-8.776 -19.602,-19.602 z"
     id="path6885"
     style="fill-rule:evenodd;stroke:#ffcd00;stroke-width:10;stroke-miterlimit:10;stroke-dasharray:none;stroke-opacity:1" />
  <path
     d="m 641.01916,201.22998 v 0 c 0,-10.826 8.776,-19.602 19.602,-19.602 v 0 c 5.198,0 10.184,2.065 13.86,5.741 3.676,3.676 5.742,8.662 5.742,13.861 v 0 c 0,10.826 -8.777,19.602 -19.602,19.602 v 0 c -10.826,0 -19.602,-8.776 -19.602,-19.602 z"
     id="path6887"
     style="fill:#d6001c;fill-opacity:1;fill-rule:evenodd;stroke:#ffcd00;stroke-width:10;stroke-miterlimit:10;stroke-dasharray:none;stroke-opacity:1" />
  <path
     d="m 467.43016,201.22998 v 0 c 0,-10.826 8.776,-19.602 19.602,-19.602 v 0 c 5.199,0 10.185,2.065 13.861,5.741 3.676,3.676 5.741,8.662 5.741,13.861 v 0 c 0,10.826 -8.776,19.602 -19.602,19.602 v 0 c -10.826,0 -19.602,-8.776 -19.602,-19.602 z"
     id="path6889"
     style="fill:#d6001c;fill-opacity:1;fill-rule:evenodd;stroke:#ffcd00;stroke-width:10;stroke-linecap:butt;stroke-linejoin:round;stroke-miterlimit:10;stroke-dasharray:none;stroke-dashoffset:20;stroke-opacity:1" />
  <path
     d="m 554.22416,201.22998 v 0 c 0,-10.826 8.777,-19.602 19.602,-19.602 v 0 c 5.199,0 10.185,2.065 13.861,5.741 3.676,3.676 5.741,8.662 5.741,13.861 v 0 c 0,10.826 -8.776,19.602 -19.602,19.602 v 0 c -10.825,0 -19.602,-8.776 -19.602,-19.602 z"
     id="path6891"
     style="fill:#d6001c;fill-opacity:1;fill-rule:evenodd;stroke:#ffcd00;stroke-width:10;stroke-miterlimit:10;stroke-dasharray:none;stroke-opacity:1" />
  <path
     d="m 553.01916,24.95298 v 0 c 0,-10.826 8.776,-19.6020004 19.602,-19.6020004 v 0 c 5.198,0 10.184,2.065 13.86,5.7410004 3.676,3.676 5.742,8.662 5.742,13.861 v 0 c 0,10.825 -8.777,19.602 -19.602,19.602 v 0 c -10.826,0 -19.602,-8.777 -19.602,-19.602 z"
     id="path6893"
     style="fill-rule:evenodd;stroke:#d6001c;stroke-width:5;stroke-miterlimit:10;stroke-dasharray:5, 10;stroke-dashoffset:0;stroke-opacity:1" />
  <path
     d="m 405.43016,24.95298 v 0 c 0,-10.826 8.776,-19.6020004 19.602,-19.6020004 v 0 c 5.199,0 10.185,2.065 13.861,5.7410004 3.676,3.676 5.741,8.662 5.741,13.861 v 0 c 0,10.825 -8.776,19.602 -19.602,19.602 v 0 c -10.826,0 -19.602,-8.777 -19.602,-19.602 z"
     id="path7626"
     style="fill:#d6001c;fill-opacity:1;fill-rule:evenodd;stroke:#ffcd00;stroke-width:10;stroke-miterlimit:10;stroke-dasharray:none;stroke-opacity:1" />
  <text
     xml:space="preserve"
     style="font-style:normal;font-variant:normal;font-weight:bold;font-stretch:normal;font-size:213.764px;line-height:1.25;font-family:'Proxima Nova';-inkscape-font-specification:'Proxima Nova, Bold';font-variant-ligatures:normal;font-variant-caps:normal;font-variant-numeric:normal;font-variant-east-asian:normal;fill:#d6001c;fill-opacity:1;stroke:#ffcd00;stroke-width:6.62752;stroke-miterlimit:10;stroke-dasharray:none;stroke-opacity:1"
     x="435.52658"
     y="-150.5578"
     id="text7850"><tspan
       id="tspan7848"
       x="435.52658"
       y="-150.5578"
       style="font-style:normal;font-variant:normal;font-weight:bold;font-stretch:normal;font-size:213.764px;font-family:'Proxima Nova';-inkscape-font-specification:'Proxima Nova, Bold';font-variant-ligatures:normal;font-variant-caps:normal;font-variant-numeric:normal;font-variant-east-asian:normal;fill:#d6001c;fill-opacity:1;stroke:#ffcd00;stroke-width:6.62752;stroke-miterlimit:10;stroke-dasharray:none;stroke-opacity:1">U</tspan></text>
  <text
     xml:space="preserve"
     style="font-style:normal;font-variant:normal;font-weight:bold;font-stretch:normal;font-size:220.917px;line-height:1.25;font-family:'Proxima Nova';-inkscape-font-specification:'Proxima Nova, Bold';font-variant-ligatures:normal;font-variant-caps:normal;font-variant-numeric:normal;font-variant-east-asian:normal;fill:#d6001c;fill-opacity:1;stroke:#ffcd00;stroke-width:6.62752;stroke-miterlimit:10;stroke-dasharray:none;stroke-opacity:1"
     x="471.97794"
     y="-84.282639"
     id="text8262"><tspan
       id="tspan8260"
       x="471.97794"
       y="-84.282639"
       style="font-style:normal;font-variant:normal;font-weight:bold;font-stretch:normal;font-size:220.917px;font-family:'Proxima Nova';-inkscape-font-specification:'Proxima Nova, Bold';font-variant-ligatures:normal;font-variant-caps:normal;font-variant-numeric:normal;font-variant-east-asian:normal;fill:#d6001c;fill-opacity:1;stroke:#ffcd00;stroke-width:6.62752;stroke-miterlimit:10;stroke-dasharray:none;stroke-opacity:1">C</tspan></text>
  <text
     xml:space="preserve"
     style="font-style:normal;font-variant:normal;font-weight:bold;font-stretch:normal;font-size:322.54px;line-height:1.25;font-family:'Proxima Nova';-inkscape-font-specification:'Proxima Nova, Bold';font-variant-ligatures:normal;font-variant-caps:normal;font-variant-numeric:normal;font-variant-east-asian:normal;fill:#d6001c;fill-opacity:1;stroke:#ffcd00;stroke-width:10;stroke-miterlimit:10;stroke-dasharray:none;stroke-opacity:1"
     x="70.033638"
     y="-121.31787"
     id="text10408"><tspan
       id="tspan10406"
       x="70.033638"
       y="-121.31787"
       style="font-style:normal;font-variant:normal;font-weight:bold;font-stretch:normal;font-size:322.54px;font-family:'Proxima Nova';-inkscape-font-specification:'Proxima Nova, Bold';font-variant-ligatures:normal;font-variant-caps:normal;font-variant-numeric:normal;font-variant-east-asian:normal;fill:#d6001c;fill-opacity:1;stroke:#ffcd00;stroke-width:10;stroke-miterlimit:10;stroke-dasharray:none;stroke-opacity:1">U</tspan></text>
  <text
     xml:space="preserve"
     style="font-style:normal;font-variant:normal;font-weight:bold;font-stretch:normal;font-size:322.54px;line-height:1.25;font-family:'Proxima Nova';-inkscape-font-specification:'Proxima Nova, Bold';font-variant-ligatures:normal;font-variant-caps:normal;font-variant-numeric:normal;font-variant-east-asian:normal;fill:#d6001c;fill-opacity:1;stroke:#ffcd00;stroke-width:10;stroke-miterlimit:10;stroke-dasharray:none;stroke-opacity:1"
     x="145.03365"
     y="-23.317875"
     id="text10412"><tspan
       id="tspan10410"
       x="145.03365"
       y="-23.317875"
       style="font-style:normal;font-variant:normal;font-weight:bold;font-stretch:normal;font-size:322.54px;font-family:'Proxima Nova';-inkscape-font-specification:'Proxima Nova, Bold';font-variant-ligatures:normal;font-variant-caps:normal;font-variant-numeric:normal;font-variant-east-asian:normal;fill:#d6001c;fill-opacity:1;stroke:#ffcd00;stroke-width:10;stroke-miterlimit:10;stroke-dasharray:none;stroke-opacity:1">C</tspan></text>
  <path
     id="text10716"
     style="font-style:normal;font-variant:normal;font-weight:bold;font-stretch:normal;font-size:322.54px;line-height:1.25;font-family:'Proxima Nova';-inkscape-font-specification:'Proxima Nova, Bold';font-variant-ligatures:normal;font-variant-caps:normal;font-variant-numeric:normal;font-variant-east-asian:normal;fill:#d6001c;fill-opacity:1;stroke:#ffcd00;stroke-width:10;stroke-miterlimit:10;stroke-dasharray:none;stroke-opacity:1"
     d="m -103.48403,427.81778 h -48.30078 c -1.45105,7.47101 -2.21484,15.30493 -2.21484,23.45898 0,66.1207 49.99337,111.27539 112.888671,111.27539 49.0260803,0 76.11964,-26.12566 91.60156,-52.89648 l -39.34961,-19.0293 c -9.0311197,17.7397 -28.38399,31.28711 -52.25195,31.28711 -37.41465,0 -65.798831,-29.99668 -65.798831,-70.63672 0,-8.32539 1.20985,-16.19333 3.42578,-23.45898 z" />
  <path
     id="path10902"
     style="font-style:normal;font-variant:normal;font-weight:bold;font-stretch:normal;font-size:322.54px;line-height:1.25;font-family:'Proxima Nova';-inkscape-font-specification:'Proxima Nova, Bold';font-variant-ligatures:normal;font-variant-caps:normal;font-variant-numeric:normal;font-variant-east-asian:normal;fill:#d6001c;fill-opacity:1;stroke:#ffcd00;stroke-width:10;stroke-miterlimit:10;stroke-dasharray:none;stroke-opacity:1"
     d="m -37.110979,-242.00058 c -55.13901,0 -100.358451,34.70742 -110.673831,87.81836 h 48.30078 c 8.601041,-28.20133 32.623051,-47.17774 62.373051,-47.17774 23.86796,0 43.2208303,13.86995 52.25195,31.28711 l 39.34961,-19.35351 c -15.15938,-26.77082 -42.57548,-52.57422 -91.60156,-52.57422 z" />
  <path
     id="text10422"
     style="font-style:normal;font-variant:normal;font-weight:bold;font-stretch:normal;font-size:322.54px;line-height:1.25;font-family:'Proxima Nova';-inkscape-font-specification:'Proxima Nova, Bold';font-variant-ligatures:normal;font-variant-caps:normal;font-variant-numeric:normal;font-variant-east-asian:normal;fill:#d6001c;fill-opacity:1;stroke:#ffcd00;stroke-width:10;stroke-miterlimit:10;stroke-dasharray:none;stroke-opacity:1"
     d="m -79.927389,-173.64902 c -8.20044,9.82047 -20.968251,15.5625 -38.312501,15.5625 -33.54416,0 -49.99219,-20.6444 -49.99219,-50.64062 v -127.72461 h -46.44726 v 129.33789 c 0,52.89656 30.64129,89.66601 96.43945,89.66601 50.262591,0 79.966861,-21.70408 90.927731,-56.20117 z" />
  <text
     xml:space="preserve"
     style="font-style:normal;font-variant:normal;font-weight:bold;font-stretch:normal;font-size:322.54px;line-height:1.25;font-family:'Proxima Nova';-inkscape-font-specification:'Proxima Nova, Bold';font-variant-ligatures:normal;font-variant-caps:normal;font-variant-numeric:normal;font-variant-east-asian:normal;fill:#d6001c;fill-opacity:1;stroke:#ffcd00;stroke-width:10;stroke-miterlimit:10;stroke-dasharray:none;stroke-opacity:1"
     x="-5.9663601"
     y="223.68213"
     id="text877"><tspan
       id="tspan875"
       x="-5.9663601"
       y="223.68213"
       style="font-style:normal;font-variant:normal;font-weight:bold;font-stretch:normal;font-size:322.54px;font-family:'Proxima Nova';-inkscape-font-specification:'Proxima Nova, Bold';font-variant-ligatures:normal;font-variant-caps:normal;font-variant-numeric:normal;font-variant-east-asian:normal;fill:#d6001c;fill-opacity:1;stroke:#ffcd00;stroke-width:10;stroke-miterlimit:10;stroke-dasharray:none;stroke-opacity:1">C</tspan></text>
</svg>
