<?xml version="1.0" encoding="utf-8"?>
<!-- Generator: Adobe Illustrator 26.0.3, SVG Export Plug-In . SVG Version: 6.00 Build 0)  -->
<svg version="1.1" id="Ebene_1" xmlns="http://www.w3.org/2000/svg" xmlns:xlink="http://www.w3.org/1999/xlink" x="0px" y="0px"
	 viewBox="0 0 455.27 473.62" style="enable-background:new 0 0 455.27 473.62;" xml:space="preserve">
<style type="text/css">
	.st0{clip-path:url(#SVGID_00000014620153926772523020000001579501551487467934_);fill:#9BC54B;}
	.st1{fill:#9BC54B;}
	.st2{clip-path:url(#SVGID_00000134939754950681666380000009668708448688642198_);fill:#9BC54B;}
	.st3{fill:#9AC43A;stroke:#99C667;stroke-miterlimit:10;}
</style>
<g>
	<defs>
		<rect id="SVGID_1_" x="-735.86" y="-153.62" width="1259.86" height="899.04"/>
	</defs>
	<clipPath id="SVGID_00000121976738328323357410000004486541185435172020_">
		<use xlink:href="#SVGID_1_"  style="overflow:visible;"/>
	</clipPath>
	<path style="clip-path:url(#SVGID_00000121976738328323357410000004486541185435172020_);fill:#9BC54B;" d="M339.84,277.86
		c1.8,8.46-3.19,16.67-11.13,18.33c-7.95,1.67-15.85-3.85-17.65-12.31c-1.8-8.46,3.19-16.67,11.13-18.33
		C330.14,263.89,338.04,269.4,339.84,277.86"/>
	<path style="clip-path:url(#SVGID_00000121976738328323357410000004486541185435172020_);fill:#9BC54B;" d="M341.58,277.42
		c0,0,7.84-5.66,14.97-2.65c7.13,3.01,8.38,13.18,10.34,18.22c1.96,5.04,6.6,6.55,6.6,6.55s-7.04,3.89-12.83,1.95
		c-5.79-1.95-6.68-4.34-8.91-8.85c-2.23-4.51-2.07-7.36-4.99-10.26c-1.5-1.48-3.79-1.77-4.72-2.65
		C341.14,278.89,341.58,277.42,341.58,277.42"/>
	<path style="clip-path:url(#SVGID_00000121976738328323357410000004486541185435172020_);fill:#9BC54B;" d="M332.26,297.46
		c12.57-1.33,13.8,4.58,15.24,6.9c1.44,2.32,3.07,19.64,3.07,24.02c0,4.38,3.88,13.4,5.08,20.97c1.2,7.56-6.03,14.59-14.19,14.73
		c-8.16,0.13-32.65,0.53-32.65,0.53l7.54,41.93c0,0,3.34,6.23-4.81,6.23H295.9c-1.07-6.1,8.02-5.84,8.02-5.84
		s-10.96-45.11-11.63-48.7c-0.67-3.58,0.38-7.26,8.89-8.82c8.51-1.57,27.07-4.98,27.07-4.98s-5.48-24.15-5.88-27.6
		C321.97,313.39,319.7,298.79,332.26,297.46"/>
	<path style="clip-path:url(#SVGID_00000121976738328323357410000004486541185435172020_);fill:#9BC54B;" d="M307,337.22
		c0,1.18-1.7,2.13-3.79,2.13H252.1v-6.01h51.11c2.09,0,3.79,0.96,3.79,2.13V337.22z"/>
</g>
<rect x="241.35" y="319.28" class="st1" width="35.29" height="4.07"/>
<polygon class="st1" points="241.35,323.35 227.69,291.05 230.34,289.94 244.01,322.24 "/>
<g>
	<defs>
		<polygon id="SVGID_00000080188650598501195960000009641680900037993116_" points="0,473.62 455.27,473.62 455.27,0 17.2,0 		"/>
	</defs>
	<clipPath id="SVGID_00000103224719257974052540000000086357152093500067_">
		<use xlink:href="#SVGID_00000080188650598501195960000009641680900037993116_"  style="overflow:visible;"/>
	</clipPath>
	<path style="clip-path:url(#SVGID_00000103224719257974052540000000086357152093500067_);fill:#9BC54B;" d="M318.41,323.25
		c1.16-0.31,5.56-7.61,5.56-7.61l4.61,12.65c0,0-2.4,4.44-4.61,6.64c-2.21,2.19-6.8,0-6.8,0l-25.03-17.56c0,0-7.23-0.75-7.72,2.45
		c-0.49,3.21-3.79,1.52-3.16-1.26c0.62-2.79,1.94-2.81,3.92-3.9c1.98-1.08,8.85-1.71,10.43-1.05
		C297.17,314.29,317.25,323.56,318.41,323.25"/>
	<path style="clip-path:url(#SVGID_00000103224719257974052540000000086357152093500067_);fill:#9BC54B;" d="M316.06,371.23
		c0,1.66,1.23,3.01,2.74,3.01h46.42c1.51,0,2.74-1.35,2.74-3.01c0-1.66-1.23-3.01-2.74-3.01H318.8
		C317.29,368.22,316.06,369.57,316.06,371.23"/>
	<path style="clip-path:url(#SVGID_00000103224719257974052540000000086357152093500067_);fill:#9BC54B;" d="M364.66,362.01
		c1.64,0.31,3.16-0.43,3.4-1.65l7.1-37.43c0.23-1.22-0.91-2.46-2.56-2.76c-1.64-0.31-3.17,0.43-3.4,1.65l-7.1,37.42
		C361.87,360.46,363.02,361.7,364.66,362.01"/>
</g>
<path class="st3" d="M187.32,367.33h26.64c-3.35-32.13-11.02-84.84-11.02-84.84c10.33-15.1,59.8-37.14,59.8-37.14
	s-15.64,3.45-31.56,9.75c6.42-13.77,7.98-31.23,7.98-31.23s-13.31,33.45-14.32,33.9c-9.07,4.06-17.55,9.04-22.51,14.83
	c-0.87-14.63-1.57-29.59-1.85-50.63c8.95-8.59,21.52-27.35,21.52-27.35c12.01-2.67,32.94-25.87,32.94-25.87
	s-17.58,14.35-28.73,18.82c13.07-14.64,18.57-28.99,18.57-28.99s-31.09,47.47-49.23,55.16c6.58-9.95,16.58-57.58,16.58-57.58
	c17.34-6.67,22.96-36.45,22.96-36.45s-12.75,28.71-21.28,30.01l5.42-39.26c0,0-12.3,48.79-21.44,78.6
	c-1.06,3.45-5.14-6.34-5.14-6.34s-1.2,4.78,2.81,13.73c0,0-3.69,8.82-5.5,12.02c-7.19-7.94-12.58-21.04-16.5-34.39
	c-0.39-1.32,5.8-15.75,5.32-25.2c-0.08-1.56-7.25,18.22-7.62,16.73c-4.96-19.73-6.85-37.72-6.85-37.72s-4.18,27.8,6.82,63.44
	c-20.06-16.44-30.49-11-30.49-11s33,8.49,46.4,45.92c0,0-0.12,0,0.63,31.88c-7.63-3.66-15.78-5.6-23.49-6.51
	c-1.12-0.13-17.78-14.28-18.88-14.37c-1.04-0.09,13.49,13.88,12.47,13.82c-15.78-0.83-28.32,2.13-28.32,2.13s57.53,3.16,58.21,17.76
	C188.34,285.57,187.32,367.33,187.32,367.33z"/>
<path class="st1" d="M136.37,208.81c3.83,7.41-0.95,17.5-0.95,17.5s-11-1.92-14.84-9.33c-3.83-7.41,0.95-17.5,0.95-17.5
	S132.54,201.4,136.37,208.81z"/>
<path class="st1" d="M160.2,217.86c0.16,9.29-8.59,16.97-8.59,16.97s-9.02-7.37-9.18-16.66c-0.16-9.29,8.59-16.97,8.59-16.97
	S160.04,208.57,160.2,217.86z"/>
<path class="st1" d="M124.17,226.12c9.22,2.36,14.5,12.88,14.5,12.88s-9.68,6.7-18.9,4.34s-14.5-12.88-14.5-12.88
	S114.95,223.76,124.17,226.12z"/>
<path class="st1" d="M174.65,236.1c-1.53,6.49-9.47,10.18-9.47,10.18s-5.46-6.84-3.92-13.33s9.47-10.18,9.47-10.18
	S176.18,229.61,174.65,236.1z"/>
<path class="st1" d="M101.37,249.41c8.2-1.54,16.28,4.85,16.28,4.85s-5.22,8.87-13.42,10.41c-8.2,1.54-16.28-4.85-16.28-4.85
	S93.17,250.95,101.37,249.41z"/>
<path class="st1" d="M128.54,276.23c-6.85,6.71-17.84,6.6-17.84,6.6s0.13-10.98,6.98-17.69c6.85-6.71,17.84-6.6,17.84-6.6
	S135.4,269.53,128.54,276.23z"/>
<path class="st1" d="M137.72,154.91c6.36,6.68,5.09,18.22,5.09,18.22s-11.59,0.72-17.96-5.96c-6.36-6.68-5.09-18.22-5.09-18.22
	S131.36,148.23,137.72,154.91z"/>
<path class="st1" d="M112.6,163.6c9.02,2.17,14.32,12.24,14.32,12.24s-9.31,6.55-18.33,4.38s-14.32-12.24-14.32-12.24
	S103.58,161.43,112.6,163.6z"/>
<path class="st1" d="M154.23,140.27c5.55,5.21,4.68,15.15,4.68,15.15s-9.86,1.48-15.41-3.73c-5.55-5.21-4.68-15.15-4.68-15.15
	S148.68,135.06,154.23,140.27z"/>
<path class="st1" d="M160.49,166.05c3.09,5.97-0.03,13.71-0.03,13.71s-8.12-1.93-11.21-7.9s0.03-13.71,0.03-13.71
	S157.41,160.09,160.49,166.05z"/>
<path class="st1" d="M197.86,156.44c-0.81,7.37-8.74,12.54-8.74,12.54s-6.62-6.77-5.82-14.14c0.81-7.37,8.74-12.54,8.74-12.54
	S198.66,149.07,197.86,156.44z"/>
<path class="st1" d="M172.61,101.32c0.49,9.55-6.72,17.68-6.72,17.68s-8-7.35-8.49-16.9s6.72-17.68,6.72-17.68
	S172.13,91.77,172.61,101.32z"/>
<path class="st1" d="M153.47,115.12c7.07,6.36,6.85,18.12,6.85,18.12s-11.67,1.45-18.74-4.91c-7.07-6.36-6.85-18.12-6.85-18.12
	S146.4,108.76,153.47,115.12z"/>
<path class="st1" d="M190.97,99.73c-1.78,6.33-10.76,9.35-10.76,9.35s-6.09-7.25-4.3-13.59s10.76-9.35,10.76-9.35
	S192.75,93.4,190.97,99.73z"/>
<path class="st1" d="M204.77,132.41c2.56,5.33-1.11,12.42-1.11,12.42s-7.83-1.56-10.39-6.89c-2.56-5.33,1.11-12.42,1.11-12.42
	S202.21,127.08,204.77,132.41z"/>
<path class="st1" d="M231.56,78c-1.96,9.71-12.17,15.84-12.17,15.84s-7.04-9.61-5.08-19.32c1.96-9.71,12.17-15.84,12.17-15.84
	S233.52,68.29,231.56,78z"/>
<path class="st1" d="M212.43,92.56c3.09,5.97-0.51,13.97-0.51,13.97s-8.61-1.68-11.7-7.65s0.51-13.97,0.51-13.97
	S209.34,86.59,212.43,92.56z"/>
<path class="st1" d="M231.88,168.5c-4.76,8.32-15.86,10.92-15.86,10.92s-3.38-10.89,1.38-19.2c4.76-8.32,15.86-10.92,15.86-10.92
	S236.64,160.18,231.88,168.5z"/>
<path class="st1" d="M278.72,133.14c-2.74,5.84-10.63,7.9-10.63,7.9s-3.44-7.39-0.7-13.23c2.74-5.84,10.63-7.9,10.63-7.9
	S281.47,127.3,278.72,133.14z"/>
<path class="st1" d="M282.8,159.48c-8.65,3.84-19.27-1.17-19.27-1.17s3.4-11.24,12.05-15.08s19.27,1.17,19.27,1.17
	S291.44,155.64,282.8,159.48z"/>
<path class="st1" d="M276.74,163.24c6.79,1.55,10.67,9.94,10.67,9.94s-7.14,5.87-13.93,4.32c-6.79-1.55-10.67-9.94-10.67-9.94
	S269.95,161.68,276.74,163.24z"/>
<path class="st1" d="M236.63,216.79c1.13,9.3-6.76,17.91-6.76,17.91s-9.73-6.47-10.86-15.77s6.76-17.91,6.76-17.91
	S235.5,207.49,236.63,216.79z"/>
<path class="st1" d="M253.23,195.76c-2.14,7.01-10.84,10.56-10.84,10.56s-5.22-7.81-3.08-14.82c2.14-7.01,10.84-10.56,10.84-10.56
	S255.37,188.75,253.23,195.76z"/>
<path class="st1" d="M252.26,271.5c-6.37-3.63-7.92-12.89-7.92-12.89s8.77-3.38,15.13,0.25c6.37,3.63,7.92,12.89,7.92,12.89
	S258.62,275.13,252.26,271.5z"/>
<path class="st1" d="M260.15,219.02c-2.14,7.01-10.84,10.56-10.84,10.56s-5.22-7.81-3.08-14.82c2.14-7.01,10.84-10.56,10.84-10.56
	S262.3,212.01,260.15,219.02z"/>
<path class="st1" d="M222.49,235.03c4.1,6.07,1.4,15.07,1.4,15.07s-9.36-0.85-13.46-6.92c-4.1-6.07-1.4-15.07-1.4-15.07
	S218.38,228.96,222.49,235.03z"/>
<path class="st1" d="M275.58,233.16c-7.76,6.06-18.95,4.68-18.95,4.68s1.38-11.2,9.13-17.25s18.95-4.68,18.95-4.68
	S283.33,227.11,275.58,233.16z"/>
<path class="st1" d="M294.43,249.64c-9.13,2.14-18.69-5.36-18.69-5.36s5.24-10.96,14.37-13.1c9.13-2.14,18.69,5.36,18.69,5.36
	S303.56,247.51,294.43,249.64z"/>
<path class="st1" d="M273.48,266.09c-7.61-3.66-10.07-14.33-10.07-14.33s9.87-4.73,17.48-1.07c7.61,3.66,10.07,14.33,10.07,14.33
	S281.09,269.76,273.48,266.09z"/>
<path class="st1" d="M137.22,184.29c6.79,1.55,10.67,9.94,10.67,9.94s-7.14,5.87-13.93,4.32c-6.79-1.55-10.67-9.94-10.67-9.94
	S130.42,182.73,137.22,184.29z"/>
<path class="st1" d="M230.21,92.79c5.62-4.12,14.5-1.56,14.5-1.56s-0.23,9.24-5.85,13.36c-5.62,4.12-14.5,1.56-14.5,1.56
	S224.59,96.91,230.21,92.79z"/>
<path class="st1" d="M259.5,115.73c-7.74,5.45-19.13,2.6-19.13,2.6s1.16-11.68,8.89-17.13c7.74-5.45,19.13-2.6,19.13-2.6
	S267.23,110.29,259.5,115.73z"/>
<path class="st1" d="M262.86,139.97c1.47,9.35-6.12,18.31-6.12,18.31s-9.97-6.2-11.44-15.54c-1.47-9.35,6.12-18.31,6.12-18.31
	S261.39,130.62,262.86,139.97z"/>
<path class="st1" d="M257.56,189.76c-3.97-6.23-0.86-15.32-0.86-15.32s9.55,1.02,13.52,7.25s0.86,15.32,0.86,15.32
	S261.53,195.99,257.56,189.76z"/>
<path class="st1" d="M180.11,136.14c0.22,5.84-5.13,10.78-5.13,10.78s-5.71-4.53-5.92-10.37c-0.22-5.84,5.13-10.78,5.13-10.78
	S179.89,130.3,180.11,136.14z"/>
<path class="st1" d="M199.77,120.31c-1.67-5.57,3.13-11.93,3.13-11.93s7.5,2.67,9.17,8.24c1.67,5.57-3.13,11.93-3.13,11.93
	S201.44,125.88,199.77,120.31z"/>
<path class="st1" d="M152.74,271.28c0.83,6.86-5.24,13.24-5.24,13.24s-7.43-4.74-8.26-11.6c-0.83-6.86,5.24-13.24,5.24-13.24
	S151.91,264.42,152.74,271.28z"/>
</svg>
