<?xml version="1.0" encoding="UTF-8" standalone="no"?>
<!-- Generator: Adobe Illustrator 26.0.3, SVG Export Plug-In . SVG Version: 6.00 Build 0)  -->

<svg
   version="1.1"
   id="Ebene_1"
   x="0px"
   y="0px"
   viewBox="0 0 283.57999 151.86345"
   xml:space="preserve"
   sodipodi:docname="pws.svg"
   width="283.57999"
   height="151.86345"
   inkscape:version="1.4.2 (ebf0e940d0, 2025-05-08)"
   xmlns:inkscape="http://www.inkscape.org/namespaces/inkscape"
   xmlns:sodipodi="http://sodipodi.sourceforge.net/DTD/sodipodi-0.dtd"
   xmlns:xlink="http://www.w3.org/1999/xlink"
   xmlns="http://www.w3.org/2000/svg"
   xmlns:svg="http://www.w3.org/2000/svg"><defs
   id="defs45"><rect
     x="195.11618"
     y="0"
     width="178.22064"
     height="177.50441"
     id="rect46" /><rect
     x="188.57597"
     y="14.170449"
     width="178.22064"
     height="150.42476"
     id="rect45" /><rect
     x="195.11618"
     y="0"
     width="178.22064"
     height="177.50441"
     id="rect46-6" /><rect
     x="195.11618"
     y="0"
     width="178.22064"
     height="177.50441"
     id="rect46-5" /></defs><sodipodi:namedview
   id="namedview45"
   pagecolor="#ffffff"
   bordercolor="#000000"
   borderopacity="0.25"
   inkscape:showpageshadow="2"
   inkscape:pageopacity="0.0"
   inkscape:pagecheckerboard="0"
   inkscape:deskcolor="#d1d1d1"
   inkscape:zoom="1.8525009"
   inkscape:cx="89.338689"
   inkscape:cy="124.9662"
   inkscape:window-width="1920"
   inkscape:window-height="1120"
   inkscape:window-x="0"
   inkscape:window-y="0"
   inkscape:window-maximized="1"
   inkscape:current-layer="Ebene_1" />
<style
   type="text/css"
   id="style1">
	.st0{clip-path:url(#SVGID_00000014620153926772523020000001579501551487467934_);fill:#9BC54B;}
	.st1{fill:#9BC54B;}
	.st2{clip-path:url(#SVGID_00000134939754950681666380000009668708448688642198_);fill:#9BC54B;}
	.st3{fill:#9AC43A;stroke:#99C667;stroke-miterlimit:10;}
</style>









































<g
   id="g45"
   transform="matrix(0.42433717,0,0,0.42433717,-121.72147,-20.13951)"><g
     id="g4"
     transform="translate(568.35536,-28.740086)">
	<defs
   id="defs1">
		<rect
   id="SVGID_1_"
   x="-735.85999"
   y="-153.62"
   width="1259.86"
   height="899.03998" />
	</defs>
	<clipPath
   id="SVGID_00000121976738328323357410000004486541185435172020_">
		<use
   xlink:href="#SVGID_1_"
   style="overflow:visible"
   id="use1" />
	</clipPath>
	<path
   style="fill:#9bc54b"
   d="m 339.84,277.86 c 1.8,8.46 -3.19,16.67 -11.13,18.33 -7.95,1.67 -15.85,-3.85 -17.65,-12.31 -1.8,-8.46 3.19,-16.67 11.13,-18.33 7.95,-1.66 15.85,3.85 17.65,12.31"
   clip-path="url(#SVGID_00000121976738328323357410000004486541185435172020_)"
   id="path1" />
	<path
   style="fill:#9bc54b"
   d="m 341.58,277.42 c 0,0 7.84,-5.66 14.97,-2.65 7.13,3.01 8.38,13.18 10.34,18.22 1.96,5.04 6.6,6.55 6.6,6.55 0,0 -7.04,3.89 -12.83,1.95 -5.79,-1.95 -6.68,-4.34 -8.91,-8.85 -2.23,-4.51 -2.07,-7.36 -4.99,-10.26 -1.5,-1.48 -3.79,-1.77 -4.72,-2.65 -0.9,-0.84 -0.46,-2.31 -0.46,-2.31"
   clip-path="url(#SVGID_00000121976738328323357410000004486541185435172020_)"
   id="path2" />
	<path
   style="fill:#9bc54b"
   d="m 332.26,297.46 c 12.57,-1.33 13.8,4.58 15.24,6.9 1.44,2.32 3.07,19.64 3.07,24.02 0,4.38 3.88,13.4 5.08,20.97 1.2,7.56 -6.03,14.59 -14.19,14.73 -8.16,0.13 -32.65,0.53 -32.65,0.53 l 7.54,41.93 c 0,0 3.34,6.23 -4.81,6.23 H 295.9 c -1.07,-6.1 8.02,-5.84 8.02,-5.84 0,0 -10.96,-45.11 -11.63,-48.7 -0.67,-3.58 0.38,-7.26 8.89,-8.82 8.51,-1.57 27.07,-4.98 27.07,-4.98 0,0 -5.48,-24.15 -5.88,-27.6 -0.4,-3.44 -2.67,-18.04 9.89,-19.37"
   clip-path="url(#SVGID_00000121976738328323357410000004486541185435172020_)"
   id="path3" />
	<path
   style="fill:#9bc54b"
   d="m 307,337.22 c 0,1.18 -1.7,2.13 -3.79,2.13 H 252.1 v -6.01 h 51.11 c 2.09,0 3.79,0.96 3.79,2.13 z"
   clip-path="url(#SVGID_00000121976738328323357410000004486541185435172020_)"
   id="path4" />
</g><rect
     x="809.70538"
     y="290.53995"
     class="st1"
     width="35.290001"
     height="4.0700002"
     id="rect4" /><polygon
     class="st1"
     points="241.35,323.35 227.69,291.05 230.34,289.94 244.01,322.24 "
     id="polygon4"
     transform="translate(568.35536,-28.740086)" /><g
     id="g7"
     transform="translate(568.35536,-28.740086)">
	<defs
   id="defs4">
		<polygon
   id="SVGID_00000080188650598501195960000009641680900037993116_"
   points="0,473.62 455.27,473.62 455.27,0 17.2,0 " />
	</defs>
	<clipPath
   id="SVGID_00000103224719257974052540000000086357152093500067_">
		<use
   xlink:href="#SVGID_00000080188650598501195960000009641680900037993116_"
   style="overflow:visible"
   id="use4" />
	</clipPath>
	<path
   style="fill:#9bc54b"
   d="m 318.41,323.25 c 1.16,-0.31 5.56,-7.61 5.56,-7.61 l 4.61,12.65 c 0,0 -2.4,4.44 -4.61,6.64 -2.21,2.19 -6.8,0 -6.8,0 l -25.03,-17.56 c 0,0 -7.23,-0.75 -7.72,2.45 -0.49,3.21 -3.79,1.52 -3.16,-1.26 0.62,-2.79 1.94,-2.81 3.92,-3.9 1.98,-1.08 8.85,-1.71 10.43,-1.05 1.56,0.68 21.64,9.95 22.8,9.64"
   clip-path="url(#SVGID_00000103224719257974052540000000086357152093500067_)"
   id="path5" />
	<path
   style="fill:#9bc54b"
   d="m 316.06,371.23 c 0,1.66 1.23,3.01 2.74,3.01 h 46.42 c 1.51,0 2.74,-1.35 2.74,-3.01 0,-1.66 -1.23,-3.01 -2.74,-3.01 H 318.8 c -1.51,0 -2.74,1.35 -2.74,3.01"
   clip-path="url(#SVGID_00000103224719257974052540000000086357152093500067_)"
   id="path6" />
	<path
   style="fill:#9bc54b"
   d="m 364.66,362.01 c 1.64,0.31 3.16,-0.43 3.4,-1.65 l 7.1,-37.43 c 0.23,-1.22 -0.91,-2.46 -2.56,-2.76 -1.64,-0.31 -3.17,0.43 -3.4,1.65 l -7.1,37.42 c -0.23,1.22 0.92,2.46 2.56,2.77"
   clip-path="url(#SVGID_00000103224719257974052540000000086357152093500067_)"
   id="path7" />
</g><path
     class="st3"
     d="m 758.50506,359.92748 h 26.64 c -3.35,-32.13 -11.02,-84.84 -11.02,-84.84 10.33,-15.1 59.8,-37.14 59.8,-37.14 0,0 -15.64,3.45 -31.56,9.75 6.42,-13.77 7.98,-31.23 7.98,-31.23 0,0 -13.31,33.45 -14.32,33.9 -9.07,4.06 -17.55,9.04 -22.51,14.83 -0.87,-14.63 -1.57,-29.59 -1.85,-50.63 8.95,-8.59 21.52,-27.35 21.52,-27.35 12.01,-2.67 32.94,-25.87 32.94,-25.87 0,0 -17.58,14.35 -28.73,18.82 13.07,-14.64 18.57,-28.99 18.57,-28.99 0,0 -31.09,47.47 -49.23,55.16 6.58,-9.95 16.58,-57.58 16.58,-57.58 17.34,-6.67 22.96,-36.45 22.96,-36.45 0,0 -12.75,28.71 -21.28,30.01 l 5.42,-39.26 c 0,0 -12.3,48.79 -21.44,78.6 -1.06,3.45 -5.14,-6.34 -5.14,-6.34 0,0 -1.2,4.78 2.81,13.73 0,0 -3.69,8.82 -5.5,12.02 -7.19,-7.94 -12.58,-21.04 -16.5,-34.39 -0.39,-1.32 5.8,-15.75 5.32,-25.2 -0.08,-1.56 -7.25,18.22 -7.62,16.73 -4.96,-19.73 -6.85,-37.72 -6.85,-37.72 0,0 -4.18,27.8 6.82,63.44 -20.06,-16.44 -30.49,-11 -30.49,-11 0,0 33,8.49 46.4,45.92 0,0 -0.12,0 0.63,31.88 -7.63,-3.66 -15.78,-5.6 -23.49,-6.51 -1.12,-0.13 -17.78,-14.28 -18.88,-14.37 -1.04,-0.09 13.49,13.88 12.47,13.82 -15.78,-0.83 -28.32,2.13 -28.32,2.13 0,0 57.53,3.16 58.21,17.76 0.68,14.61 -0.34,96.37 -0.34,96.37 z"
     id="path8" /><path
     class="st1"
     d="m 707.55506,201.40748 c 3.83,7.41 -0.95,17.5 -0.95,17.5 0,0 -11,-1.92 -14.84,-9.33 -3.83,-7.41 0.95,-17.5 0.95,-17.5 0,0 11.01,1.92 14.84,9.33 z"
     id="path9" /><path
     class="st1"
     d="m 731.38506,210.45748 c 0.16,9.29 -8.59,16.97 -8.59,16.97 0,0 -9.02,-7.37 -9.18,-16.66 -0.16,-9.29 8.59,-16.97 8.59,-16.97 0,0 9.02,7.37 9.18,16.66 z"
     id="path10" /><path
     class="st1"
     d="m 695.35506,218.71748 c 9.22,2.36 14.5,12.88 14.5,12.88 0,0 -9.68,6.7 -18.9,4.34 -9.22,-2.36 -14.5,-12.88 -14.5,-12.88 0,0 9.68,-6.7 18.9,-4.34 z"
     id="path11" /><path
     class="st1"
     d="m 745.83506,228.69748 c -1.53,6.49 -9.47,10.18 -9.47,10.18 0,0 -5.46,-6.84 -3.92,-13.33 1.54,-6.49 9.47,-10.18 9.47,-10.18 0,0 5.45,6.84 3.92,13.33 z"
     id="path12" /><path
     class="st1"
     d="m 672.55506,242.00748 c 8.2,-1.54 16.28,4.85 16.28,4.85 0,0 -5.22,8.87 -13.42,10.41 -8.2,1.54 -16.28,-4.85 -16.28,-4.85 0,0 5.22,-8.87 13.42,-10.41 z"
     id="path13" /><path
     class="st1"
     d="m 699.72506,268.82748 c -6.85,6.71 -17.84,6.6 -17.84,6.6 0,0 0.13,-10.98 6.98,-17.69 6.85,-6.71 17.84,-6.6 17.84,-6.6 0,0 -0.12,10.99 -6.98,17.69 z"
     id="path14" /><path
     class="st1"
     d="m 708.90506,147.50748 c 6.36,6.68 5.09,18.22 5.09,18.22 0,0 -11.59,0.72 -17.96,-5.96 -6.36,-6.68 -5.09,-18.22 -5.09,-18.22 0,0 11.6,-0.72 17.96,5.96 z"
     id="path15" /><path
     class="st1"
     d="m 683.78506,156.19748 c 9.02,2.17 14.32,12.24 14.32,12.24 0,0 -9.31,6.55 -18.33,4.38 -9.02,-2.17 -14.32,-12.24 -14.32,-12.24 0,0 9.31,-6.55 18.33,-4.38 z"
     id="path16" /><path
     class="st1"
     d="m 725.41506,132.86748 c 5.55,5.21 4.68,15.15 4.68,15.15 0,0 -9.86,1.48 -15.41,-3.73 -5.55,-5.21 -4.68,-15.15 -4.68,-15.15 0,0 9.86,-1.48 15.41,3.73 z"
     id="path17" /><path
     class="st1"
     d="m 731.67506,158.64748 c 3.09,5.97 -0.03,13.71 -0.03,13.71 0,0 -8.12,-1.93 -11.21,-7.9 -3.09,-5.97 0.03,-13.71 0.03,-13.71 0,0 8.13,1.94 11.21,7.9 z"
     id="path18" /><path
     class="st1"
     d="m 769.04506,149.03748 c -0.81,7.37 -8.74,12.54 -8.74,12.54 0,0 -6.62,-6.77 -5.82,-14.14 0.81,-7.37 8.74,-12.54 8.74,-12.54 0,0 6.62,6.77 5.82,14.14 z"
     id="path19" /><path
     class="st1"
     d="m 743.79506,93.917483 c 0.49,9.549997 -6.72,17.679997 -6.72,17.679997 0,0 -8,-7.35 -8.49,-16.899997 -0.49,-9.55 6.72,-17.68 6.72,-17.68 0,0 8.01,7.35 8.49,16.9 z"
     id="path20" /><path
     class="st1"
     d="m 724.65506,107.71748 c 7.07,6.36 6.85,18.12 6.85,18.12 0,0 -11.67,1.45 -18.74,-4.91 -7.07,-6.36 -6.85,-18.12 -6.85,-18.12 0,0 11.67,-1.45 18.74,4.91 z"
     id="path21" /><path
     class="st1"
     d="m 762.15506,92.327483 c -1.78,6.33 -10.76,9.349997 -10.76,9.349997 0,0 -6.09,-7.249997 -4.3,-13.589997 1.79,-6.34 10.76,-9.35 10.76,-9.35 0,0 6.08,7.26 4.3,13.59 z"
     id="path22" /><path
     class="st1"
     d="m 775.95506,125.00748 c 2.56,5.33 -1.11,12.42 -1.11,12.42 0,0 -7.83,-1.56 -10.39,-6.89 -2.56,-5.33 1.11,-12.42 1.11,-12.42 0,0 7.83,1.56 10.39,6.89 z"
     id="path23" /><path
     class="st1"
     d="m 802.74506,70.597483 c -1.96,9.71 -12.17,15.84 -12.17,15.84 0,0 -7.04,-9.61 -5.08,-19.32 1.96,-9.71 12.17,-15.84 12.17,-15.84 0,0 7.04,9.61 5.08,19.32 z"
     id="path24" /><path
     class="st1"
     d="m 783.61506,85.157483 c 3.09,5.97 -0.51,13.97 -0.51,13.97 0,0 -8.61,-1.68 -11.7,-7.65 -3.09,-5.97 0.51,-13.97 0.51,-13.97 0,0 8.61,1.68 11.7,7.65 z"
     id="path25" /><path
     class="st1"
     d="m 803.06506,161.09748 c -4.76,8.32 -15.86,10.92 -15.86,10.92 0,0 -3.38,-10.89 1.38,-19.2 4.76,-8.32 15.86,-10.92 15.86,-10.92 0,0 3.38,10.88 -1.38,19.2 z"
     id="path26" /><path
     class="st1"
     d="m 849.90506,125.73748 c -2.74,5.84 -10.63,7.9 -10.63,7.9 0,0 -3.44,-7.39 -0.7,-13.23 2.74,-5.84 10.63,-7.9 10.63,-7.9 0,0 3.45,7.39 0.7,13.23 z"
     id="path27" /><path
     class="st1"
     d="m 853.98506,152.07748 c -8.65,3.84 -19.27,-1.17 -19.27,-1.17 0,0 3.4,-11.24 12.05,-15.08 8.65,-3.84 19.27,1.17 19.27,1.17 0,0 -3.41,11.24 -12.05,15.08 z"
     id="path28" /><path
     class="st1"
     d="m 847.92506,155.83748 c 6.79,1.55 10.67,9.94 10.67,9.94 0,0 -7.14,5.87 -13.93,4.32 -6.79,-1.55 -10.67,-9.94 -10.67,-9.94 0,0 7.14,-5.88 13.93,-4.32 z"
     id="path29" /><path
     class="st1"
     d="m 807.81506,209.38748 c 1.13,9.3 -6.76,17.91 -6.76,17.91 0,0 -9.73,-6.47 -10.86,-15.77 -1.13,-9.3 6.76,-17.91 6.76,-17.91 0,0 9.73,6.47 10.86,15.77 z"
     id="path30" /><path
     class="st1"
     d="m 824.41506,188.35748 c -2.14,7.01 -10.84,10.56 -10.84,10.56 0,0 -5.22,-7.81 -3.08,-14.82 2.14,-7.01 10.84,-10.56 10.84,-10.56 0,0 5.22,7.81 3.08,14.82 z"
     id="path31" /><path
     class="st1"
     d="m 823.44506,264.09748 c -6.37,-3.63 -7.92,-12.89 -7.92,-12.89 0,0 8.77,-3.38 15.13,0.25 6.37,3.63 7.92,12.89 7.92,12.89 0,0 -8.77,3.38 -15.13,-0.25 z"
     id="path32" /><path
     class="st1"
     d="m 831.33506,211.61748 c -2.14,7.01 -10.84,10.56 -10.84,10.56 0,0 -5.22,-7.81 -3.08,-14.82 2.14,-7.01 10.84,-10.56 10.84,-10.56 0,0 5.23,7.81 3.08,14.82 z"
     id="path33" /><path
     class="st1"
     d="m 793.67506,227.62748 c 4.1,6.07 1.4,15.07 1.4,15.07 0,0 -9.36,-0.85 -13.46,-6.92 -4.1,-6.07 -1.4,-15.07 -1.4,-15.07 0,0 9.35,0.85 13.46,6.92 z"
     id="path34" /><path
     class="st1"
     d="m 846.76506,225.75748 c -7.76,6.06 -18.95,4.68 -18.95,4.68 0,0 1.38,-11.2 9.13,-17.25 7.75,-6.05 18.95,-4.68 18.95,-4.68 0,0 -1.38,11.2 -9.13,17.25 z"
     id="path35" /><path
     class="st1"
     d="m 865.61506,242.23748 c -9.13,2.14 -18.69,-5.36 -18.69,-5.36 0,0 5.24,-10.96 14.37,-13.1 9.13,-2.14 18.69,5.36 18.69,5.36 0,0 -5.24,10.97 -14.37,13.1 z"
     id="path36" /><path
     class="st1"
     d="m 844.66506,258.68748 c -7.61,-3.66 -10.07,-14.33 -10.07,-14.33 0,0 9.87,-4.73 17.48,-1.07 7.61,3.66 10.07,14.33 10.07,14.33 0,0 -9.87,4.74 -17.48,1.07 z"
     id="path37" /><path
     class="st1"
     d="m 708.40506,176.88748 c 6.79,1.55 10.67,9.94 10.67,9.94 0,0 -7.14,5.87 -13.93,4.32 -6.79,-1.55 -10.67,-9.94 -10.67,-9.94 0,0 7.13,-5.88 13.93,-4.32 z"
     id="path38" /><path
     class="st1"
     d="m 801.39506,85.387483 c 5.62,-4.12 14.5,-1.56 14.5,-1.56 0,0 -0.23,9.24 -5.85,13.36 -5.62,4.119997 -14.5,1.56 -14.5,1.56 0,0 0.23,-9.24 5.85,-13.36 z"
     id="path39" /><path
     class="st1"
     d="m 830.68506,108.32748 c -7.74,5.45 -19.13,2.6 -19.13,2.6 0,0 1.16,-11.679997 8.89,-17.129997 7.74,-5.45 19.13,-2.6 19.13,-2.6 0,0 -1.16,11.689997 -8.89,17.129997 z"
     id="path40" /><path
     class="st1"
     d="m 834.04506,132.56748 c 1.47,9.35 -6.12,18.31 -6.12,18.31 0,0 -9.97,-6.2 -11.44,-15.54 -1.47,-9.35 6.12,-18.31 6.12,-18.31 0,0 9.97,6.19 11.44,15.54 z"
     id="path41" /><path
     class="st1"
     d="m 828.74506,182.35748 c -3.97,-6.23 -0.86,-15.32 -0.86,-15.32 0,0 9.55,1.02 13.52,7.25 3.97,6.23 0.86,15.32 0.86,15.32 0,0 -9.55,-1.02 -13.52,-7.25 z"
     id="path42" /><path
     class="st1"
     d="m 751.29506,128.73748 c 0.22,5.84 -5.13,10.78 -5.13,10.78 0,0 -5.71,-4.53 -5.92,-10.37 -0.22,-5.84 5.13,-10.78 5.13,-10.78 0,0 5.7,4.53 5.92,10.37 z"
     id="path43" /><path
     class="st1"
     d="m 770.95506,112.90748 c -1.67,-5.57 3.13,-11.93 3.13,-11.93 0,0 7.5,2.67 9.17,8.24 1.67,5.57 -3.13,11.93 -3.13,11.93 0,0 -7.5,-2.67 -9.17,-8.24 z"
     id="path44" /><path
     class="st1"
     d="m 723.92506,263.87748 c 0.83,6.86 -5.24,13.24 -5.24,13.24 0,0 -7.43,-4.74 -8.26,-11.6 -0.83,-6.86 5.24,-13.24 5.24,-13.24 0,0 7.43,4.74 8.26,11.6 z"
     id="path45" /></g>
<text
   xml:space="preserve"
   id="text45"
   style="font-style:normal;font-variant:normal;font-weight:normal;font-stretch:normal;font-size:26.6667px;font-family:'Aptos Serif';-inkscape-font-specification:'Aptos Serif';text-align:start;writing-mode:lr-tb;direction:ltr;white-space:pre;shape-inside:url(#rect45);display:inline;fill:none;stroke:none;stroke-width:6.3;stroke-linecap:round;stroke-linejoin:round;paint-order:stroke fill markers"
   transform="translate(-130.52553,-10.484268)" /><text
   xml:space="preserve"
   id="text46"
   style="font-style:normal;font-variant:normal;font-weight:normal;font-stretch:normal;font-size:26.6667px;font-family:'Aptos Serif';-inkscape-font-specification:'Aptos Serif';text-align:start;writing-mode:lr-tb;direction:ltr;white-space:pre;shape-inside:url(#rect46);display:inline;fill:#99c65f;fill-opacity:0.909804;stroke:none;stroke-width:6.3;stroke-linecap:round;stroke-linejoin:round;paint-order:stroke fill markers"
   transform="translate(-196.82878,-14.288976)"><tspan
     x="195.11523"
     y="66.766965"
     id="tspan3"><tspan
   style="font-size:74.6667px"
   id="tspan1">P</tspan>
</tspan></text><text
   xml:space="preserve"
   id="text46-1"
   style="font-style:normal;font-variant:normal;font-weight:normal;font-stretch:normal;font-size:74.6667px;font-family:'Aptos Serif';-inkscape-font-specification:'Aptos Serif';text-align:start;writing-mode:lr-tb;direction:ltr;white-space:pre;shape-inside:url(#rect46-6);display:inline;fill:#99c65f;fill-opacity:0.909804;stroke:none;stroke-width:6.3;stroke-linecap:round;stroke-linejoin:round;paint-order:stroke fill markers"
   transform="translate(-151.65688,34.783964)"><tspan
     x="195.11523"
     y="66.766965"
     id="tspan4">W</tspan></text><text
   xml:space="preserve"
   id="text46-6"
   style="font-style:normal;font-variant:normal;font-weight:normal;font-stretch:normal;font-size:74.6667px;font-family:'Aptos Serif';-inkscape-font-specification:'Aptos Serif';text-align:start;writing-mode:lr-tb;direction:ltr;white-space:pre;shape-inside:url(#rect46-5);display:inline;fill:#99c65f;fill-opacity:0.909804;stroke:none;stroke-width:6.3;stroke-linecap:round;stroke-linejoin:round;paint-order:stroke fill markers"
   transform="translate(-81.36518,84.440238)"><tspan
     x="195.11523"
     y="66.766965"
     id="tspan5">S
</tspan></text></svg>
