<?xml version="1.0" encoding="UTF-8" standalone="no"?>
<svg
   xmlns="http://www.w3.org/2000/svg"
   viewBox="0 0 512.052 118.668"
   width="512.052"
   height="118.668">
  <path
     d="M 84.62996,5.6466122 C 77.209263,2.1439326 68.38433,0 60.004402,0 34.710348,0 19.580196,20.934988 21.207924,41.39926 c 0.737718,9.256093 5.282697,18.21156 12.798328,25.214942 a 42.562205,42.562205 0 0 0 8.949534,6.42982 21.285058,21.285058 0 0 1 -4.701224,-10.239059 c -1.681128,-10.284547 5.110629,-25.412721 22.455914,-25.412721 18.654587,0 39.192034,17.734911 40.928544,39.542108 1.06208,13.340245 -3.99515,25.34943 -12.545171,33.73925 17.683491,-10.2707 29.574011,-29.415785 29.574011,-51.339671 0,-23.721705 -13.91974,-44.19191 -34.0379,-53.6873168 z"
     style="fill:#0053d6"
     id="path863" />
  <path
     d="M 97.45993,77.268597 C 96.722215,68.012505 92.177236,59.057037 84.661605,52.053656 a 42.562205,42.562205 0 0 0 -8.949534,-6.429821 21.285058,21.285058 0 0 1 4.701225,10.239059 C 82.094424,66.147441 75.302667,81.275615 57.957381,81.275615 39.302794,81.275615 18.765344,63.540704 17.028838,41.73153 15.96676,28.391285 21.023989,16.382098 29.574008,7.9922802 11.890519,18.264961 0,37.410042 0,59.333929 c 0,23.721704 13.91974,44.191911 34.037897,53.687311 7.420697,3.50268 16.24563,5.64662 24.625558,5.64662 25.294054,0 40.424205,-20.93499 38.796475,-41.399263 z"
     style="fill:#0053d6"
     id="path865" />
  <path
     d="m 167.28212,29.666964 h -18.90181 v 59.333929 h 18.90181 c 20.84995,0 30.42842,-11.356514 30.42842,-29.579941 0,-18.312428 -9.57847,-29.753988 -30.42842,-29.753988 z m -0.25513,52.213857 H 156.77211 V 36.70199 h 10.25488 c 16.44341,0 22.12364,8.644954 22.12364,22.715006 0,13.985007 -5.68023,22.463825 -22.12364,22.463825 z"
     style="fill:#0053d6"
     id="path867" />
  <path
     d="m 222.75539,45.940283 c -12.54715,0 -21.10706,8.900089 -21.10706,22.206712 0,13.136532 8.64694,21.868508 21.02004,21.868508 9.91865,0 16.78359,-5.933393 19.0719,-13.816894 h -8.3918 c -1.69497,4.153375 -5.42312,6.864935 -10.6801,6.864935 -6.52674,0 -12.28806,-4.574645 -12.79833,-13.136531 h 32.97186 c 0.085,-1.524882 0.085,-2.796606 0.085,-3.985263 0,-10.84822 -7.79846,-20.001467 -20.17156,-20.001467 z M 210.04211,63.99362 c 0.93154,-7.288184 6.35664,-11.103356 12.62823,-11.103356 6.61178,0 11.61363,4.23842 11.95184,11.103356 z"
     style="fill:#0053d6"
     id="path869" />
  <path
     d="m 268.43856,45.940283 c -12.54517,0 -21.10508,8.900089 -21.10508,22.206712 0,13.136532 8.64495,21.868508 21.02003,21.868508 9.91668,0 16.78162,-5.933393 19.07191,-13.816894 h -8.3918 c -1.69695,4.153375 -5.4251,6.864935 -10.68011,6.864935 -6.52673,0 -12.29003,-4.574645 -12.79832,-13.136531 h 32.96988 c 0.085,-1.524882 0.085,-2.796606 0.085,-3.985263 0,-10.84822 -7.79846,-20.001467 -20.17156,-20.001467 z M 255.72923,63.99362 c 0.93352,-7.288184 6.35664,-11.103356 12.63022,-11.103356 6.61178,0 11.61165,4.23842 11.94985,11.103356 z"
     style="fill:#0053d6"
     id="path871" />
  <path
     d="m 316.91833,45.940283 c -7.54332,0 -12.29003,3.645081 -14.91654,7.713411 l -0.84848,-6.694845 h -7.54332 v 60.684761 h 8.39971 V 82.387138 c 2.88165,4.829781 8.13666,7.628365 14.83348,7.628365 12.37508,0 20.85192,-9.24027 20.85192,-21.953554 0,-12.713283 -8.48673,-22.121666 -20.77677,-22.121666 z m -1.35479,36.787036 c -7.8835,0 -13.56175,-5.933393 -13.56175,-14.748437 0,-8.729999 5.67825,-14.748437 13.56175,-14.748437 7.96657,0 13.55978,6.018438 13.55978,14.748437 0,8.813066 -5.59321,14.746459 -13.55978,14.746459 z"
     style="fill:#0053d6"
     id="path873" />
  <path
     d="M 372.83858,69.756922 352.32487,29.666964 h -9.83163 v 59.333929 h 8.39179 V 44.330356 l 18.73172,36.193696 h 6.44169 l 18.64668,-36.193696 v 44.670537 h 8.39179 V 29.666964 h -9.83361 z"
     style="fill:#0053d6"
     id="path875" />
  <path
     d="m 418.01346,46.958849 h -8.3918 v 42.042044 h 8.3918 z"
     style="fill:#0053d6"
     id="path877" />
  <path
     d="m 413.77504,27.970014 c -3.13679,0 -5.50817,2.205244 -5.50817,5.256986 0,3.051742 2.37336,5.340054 5.50817,5.340054 3.21985,0 5.59519,-2.288312 5.59519,-5.340054 0,-3.051742 -2.37534,-5.256986 -5.59519,-5.256986 z"
     style="fill:#0053d6"
     id="path879" />
  <path
     d="m 447.08313,45.940283 c -6.52673,0 -11.77976,3.221832 -14.4933,8.391795 l -0.59334,-7.373229 h -7.45828 v 42.042044 h 8.40169 V 67.29852 c 0,-9.153248 4.99987,-14.155098 11.86678,-14.155098 6.78187,0 10.25686,4.153375 10.25686,12.460125 v 23.397346 h 8.30675 V 64.75705 C 463.35845,52.128812 457.1699,45.940283 447.08313,45.940283 Z"
     style="fill:#0053d6"
     id="path881" />
  <path
     d="m 503.66001,27.786079 v 25.598634 c -2.88165,-4.831759 -8.13666,-7.628365 -14.91655,-7.628365 -12.37508,0 -20.76688,9.238293 -20.76688,21.953553 0,12.715261 8.3918,22.121667 20.68183,22.121667 7.5453,0 12.29004,-3.643103 15.0016,-7.713411 l 0.84847,6.696823 h 7.54332 V 27.786079 Z M 490.0132,82.541406 c -7.88152,0 -13.56175,-6.018438 -13.56175,-14.748437 0,-8.815044 5.68023,-14.748437 13.56175,-14.748437 7.96657,0 13.56176,5.933393 13.56176,14.748437 0,8.729999 -5.59321,14.748437 -13.55978,14.748437 z"
     style="fill:#0053d6"
     id="path883" />
</svg>