<?xml version="1.0" standalone="no"?>
<!DOCTYPE svg PUBLIC "-//W3C//DTD SVG 20010904//EN"
 "http://www.w3.org/TR/2001/REC-SVG-20010904/DTD/svg10.dtd">
<svg version="1.0" xmlns="http://www.w3.org/2000/svg"
 width="379.000000pt" height="379.000000pt" viewBox="0 0 379.000000 379.000000"
 preserveAspectRatio="xMidYMid meet">
<metadata>
Created by potrace 1.14, written by Peter Selinger 2001-2017
</metadata>
<g transform="translate(0.000000,379.000000) scale(0.100000,-0.100000)"
fill="#000000" stroke="none">
<path d="M2760 3780 c-60 -11 -123 -60 -158 -123 -16 -30 -17 -92 -20 -813
l-2 -782 -91 55 c-193 116 -379 167 -604 166 -481 -3 -903 -307 -1064 -765
-124 -354 -64 -747 160 -1049 273 -367 726 -531 1185 -429 283 63 571 282 719
546 72 126 125 291 141 429 3 33 6 630 6 1326 0 1235 0 1267 -19 1310 -41 93
-150 149 -253 129z m-689 -1971 c75 -21 119 -39 119 -49 0 -4 -25 -32 -56 -63
-33 -34 -52 -62 -48 -69 4 -7 3 -8 -5 -4 -7 5 -158 -139 -402 -383 -214 -215
-394 -391 -398 -391 -5 0 -22 39 -37 88 -25 76 -29 102 -29 207 0 105 4 131
29 209 72 221 257 395 485 457 88 24 251 23 342 -2z m184 -119 c-3 -5 -12 -10
-18 -10 -7 0 -6 4 3 10 19 12 23 12 15 0z m65 -16 c0 -8 -19 -13 -24 -6 -3 5
1 9 9 9 8 0 15 -2 15 -3z m-70 -23 c0 -6 -4 -12 -8 -15 -5 -3 -9 1 -9 9 0 8 4
15 9 15 4 0 8 -4 8 -9z m40 -35 c0 -2 -7 -7 -16 -10 -8 -3 -12 -2 -9 4 6 10
25 14 25 6z m4 -24 c3 -5 -1 -9 -9 -9 -8 0 -12 4 -9 9 3 4 7 8 9 8 2 0 6 -4 9
-8z m76 2 c0 -8 -19 -13 -24 -6 -3 5 1 9 9 9 8 0 15 -2 15 -3z m5 -24 c-3 -5
-12 -10 -18 -10 -7 0 -6 4 3 10 19 12 23 12 15 0z m40 0 c-3 -5 -12 -10 -18
-10 -7 0 -6 4 3 10 19 12 23 12 15 0z m-371 -26 c3 -8 2 -12 -4 -9 -6 3 -10
10 -10 16 0 14 7 11 14 -7z m246 -8 c0 -2 -7 -7 -16 -10 -8 -3 -12 -2 -9 4 6
10 25 14 25 6z m50 -22 c0 -8 -19 -13 -24 -6 -3 5 1 9 9 9 8 0 15 -2 15 -3z
m-30 -28 c0 -2 -8 -10 -17 -17 -16 -13 -17 -12 -4 4 13 16 21 21 21 13z m-343
-26 c-1 -21 -10 -18 -13 5 -1 8 2 15 6 15 5 0 8 -9 7 -20z m37 4 c3 -8 2 -12
-4 -9 -6 3 -10 10 -10 16 0 14 7 11 14 -7z m260 4 c-3 -4 -11 -5 -19 -1 -21 7
-19 12 4 10 11 0 18 -5 15 -9z m-1 -33 c-3 -9 -8 -14 -10 -11 -3 3 -2 9 2 15
9 16 15 13 8 -4z m-338 -4 c3 -5 2 -12 -3 -15 -5 -3 -9 1 -9 9 0 17 3 19 12 6z
m609 -34 c56 -147 59 -323 9 -469 -127 -368 -539 -561 -897 -420 -41 16 -45
20 -32 31 9 7 13 18 9 25 -3 6 -3 8 2 4 11 -11 36 12 28 26 -3 6 -2 8 2 3 11
-9 46 23 39 35 -3 4 0 7 8 6 7 -2 12 3 11 10 -2 6 3 12 10 12 15 0 53 41 49
53 -1 5 1 6 6 3 10 -6 58 44 54 56 -1 5 4 7 11 5 6 -1 11 4 10 10 -2 7 1 12 5
10 14 -4 92 76 85 87 -3 6 -2 8 2 3 11 -9 56 33 49 45 -3 5 0 7 8 6 7 -2 12 3
10 10 -1 8 1 11 6 8 10 -6 118 104 114 117 -1 4 1 6 6 3 11 -6 54 38 47 47 -3
4 -2 5 2 2 9 -7 53 36 47 47 -3 5 0 7 8 6 7 -2 12 3 10 10 -1 8 1 11 6 8 10
-6 58 44 54 56 -1 5 4 7 11 5 6 -1 11 4 9 11 -1 8 1 11 6 8 10 -6 118 104 114
117 -1 4 2 6 7 3 5 -4 18 5 28 18 10 14 21 26 24 26 4 0 14 -19 23 -43z m-590
-13 c3 -8 2 -12 -4 -9 -6 3 -10 10 -10 16 0 14 7 11 14 -7z m36 10 c0 -8 -19
-13 -24 -6 -3 5 1 9 9 9 8 0 15 -2 15 -3z m300 0 c0 -8 -19 -13 -24 -6 -3 5 1
9 9 9 8 0 15 -2 15 -3z m80 0 c0 -8 -19 -13 -24 -6 -3 5 1 9 9 9 8 0 15 -2 15
-3z m-346 -22 c3 -5 -1 -9 -9 -9 -8 0 -15 4 -15 9 0 4 4 8 9 8 6 0 12 -4 15
-8z m36 -2 c0 -5 -2 -10 -4 -10 -3 0 -8 5 -11 10 -3 6 -1 10 4 10 6 0 11 -4
11 -10z m-149 -33 c-10 -9 -11 -8 -5 6 3 10 9 15 12 12 3 -3 0 -11 -7 -18z
m43 15 c3 -5 -1 -9 -9 -9 -8 0 -12 4 -9 9 3 4 7 8 9 8 2 0 6 -4 9 -8z m-94
-38 c0 -8 -19 -13 -24 -6 -3 5 1 9 9 9 8 0 15 -2 15 -3z m30 2 c0 -2 -8 -10
-17 -17 -16 -13 -17 -12 -4 4 13 16 21 21 21 13z m45 -5 c-9 -8 -36 -10 -30
-2 2 4 11 8 20 8 8 0 13 -3 10 -6z m-115 -19 c0 -5 -7 -9 -15 -9 -8 0 -12 4
-9 9 3 4 9 8 15 8 5 0 9 -4 9 -8z m130 4 c0 -2 -8 -10 -17 -17 -16 -13 -17
-12 -4 4 13 16 21 21 21 13z m110 -4 c0 -5 -7 -9 -15 -9 -8 0 -12 4 -9 9 3 4
9 8 15 8 5 0 9 -4 9 -8z m-85 -11 c3 -5 2 -12 -3 -15 -5 -3 -9 1 -9 9 0 17 3
19 12 6z m-224 -24 c-10 -9 -11 -8 -5 6 3 10 9 15 12 12 3 -3 0 -11 -7 -18z
m240 0 c-10 -9 -11 -8 -5 6 3 10 9 15 12 12 3 -3 0 -11 -7 -18z m283 15 c3 -5
-1 -9 -9 -9 -8 0 -12 4 -9 9 3 4 7 8 9 8 2 0 6 -4 9 -8z m-369 -22 c-3 -5 -12
-10 -18 -10 -7 0 -6 4 3 10 19 12 23 12 15 0z m32 3 c-4 -3 -1 -13 6 -22 11
-14 10 -14 -5 -2 -16 12 -16 31 -1 31 4 0 3 -3 0 -7z m-128 -27 c8 -10 9 -16
1 -21 -6 -4 -9 -1 -8 7 2 7 -4 13 -12 13 -8 0 -14 -6 -12 -13 1 -8 -2 -11 -8
-7 -11 7 5 35 20 35 4 0 13 -6 19 -14z m235 6 c3 -5 -1 -9 -9 -9 -8 0 -15 4
-15 9 0 4 4 8 9 8 6 0 12 -4 15 -8z m-184 -16 c0 -2 -7 -7 -16 -10 -8 -3 -12
-2 -9 4 6 10 25 14 25 6z m64 -24 c3 -5 -1 -9 -9 -9 -8 0 -12 4 -9 9 3 4 7 8
9 8 2 0 6 -4 9 -8z m270 0 c2 -4 -5 -9 -17 -9 -17 -2 -19 0 -7 7 18 12 18 12
24 2z m-378 -48 c-1 -8 -6 -17 -12 -21 -5 -4 -6 -4 -2 1 4 5 3 14 -2 21 -7 8
-5 12 4 12 8 0 13 -6 12 -13z m44 2 c0 -2 -8 -10 -17 -17 -16 -13 -17 -12 -4
4 13 16 21 21 21 13z m77 -21 c0 -8 -4 -12 -9 -9 -5 3 -6 10 -3 15 9 13 12 11
12 -6z m-62 -14 c-9 -8 -36 -10 -30 -2 2 4 11 8 20 8 8 0 13 -3 10 -6z m60
-21 c3 -5 1 -10 -4 -10 -6 0 -11 5 -11 10 0 6 2 10 4 10 3 0 8 -4 11 -10z
m-55 -4 c0 -2 -8 -10 -17 -17 -16 -13 -17 -12 -4 4 13 16 21 21 21 13z m-43
-23 c0 -9 -4 -10 -14 -2 -7 6 -13 12 -13 14 0 1 6 2 13 2 8 0 14 -6 14 -14z
m-92 -13 c3 -6 -1 -7 -9 -4 -18 7 -21 14 -7 14 6 0 13 -4 16 -10z m155 6 c0
-3 -4 -8 -10 -11 -5 -3 -10 -1 -10 4 0 6 5 11 10 11 6 0 10 -2 10 -4z m40 0
c0 -2 -7 -7 -16 -10 -8 -3 -12 -2 -9 4 6 10 25 14 25 6z m-349 -39 c-10 -9
-11 -8 -5 6 3 10 9 15 12 12 3 -3 0 -11 -7 -18z m109 17 c0 -8 -19 -13 -24 -6
-3 5 1 9 9 9 8 0 15 -2 15 -3z m115 -32 c-3 -3 -11 0 -18 7 -9 10 -8 11 6 5
10 -3 15 -9 12 -12z m-94 -9 c13 -16 12 -17 -3 -4 -17 13 -22 21 -14 21 2 0
10 -8 17 -17z m56 3 c0 -15 -21 -16 -34 -1 -4 4 -3 5 4 1 6 -3 14 -2 18 4 8
14 12 13 12 -4z m-237 -2 c0 -8 -19 -13 -24 -6 -3 5 1 9 9 9 8 0 15 -2 15 -3z
m30 2 c0 -2 -8 -10 -17 -17 -16 -13 -17 -12 -4 4 13 16 21 21 21 13z m50 -11
c0 -2 -9 -3 -19 -2 -11 0 -18 5 -15 9 4 6 34 0 34 -7z m300 5 c0 -5 -2 -10 -4
-10 -3 0 -8 5 -11 10 -3 6 -1 10 4 10 6 0 11 -4 11 -10z m-420 -18 c0 -5 -7
-9 -15 -9 -8 0 -12 4 -9 9 3 4 9 8 15 8 5 0 9 -4 9 -8z m338 -27 c-3 -3 -9 2
-12 12 -6 14 -5 15 5 6 7 -7 10 -15 7 -18z m82 4 c0 -5 -4 -9 -8 -9 -5 0 -9 7
-9 15 0 8 4 12 9 9 4 -3 8 -9 8 -15z m-489 -12 c-10 -9 -11 -8 -5 6 3 10 9 15
12 12 3 -3 0 -11 -7 -18z m384 14 c3 -5 2 -12 -3 -15 -5 -3 -9 1 -9 9 0 17 3
19 12 6z m139 1 c3 -5 -1 -9 -9 -9 -8 0 -12 4 -9 9 3 4 7 8 9 8 2 0 6 -4 9 -8z
m-369 -22 c-3 -5 -12 -10 -18 -10 -7 0 -6 4 3 10 19 12 23 12 15 0z m-78 -18
c-10 -10 -14 -22 -10 -27 5 -4 2 -5 -5 -1 -11 6 -10 12 4 27 9 10 19 19 22 19
3 0 -2 -8 -11 -18z m-42 -22 c3 -6 -1 -7 -9 -4 -18 7 -21 14 -7 14 6 0 13 -4
16 -10z m-70 -21 c3 -3 -6 -5 -19 -5 -14 1 -28 4 -31 7 -3 3 6 5 19 5 14 -1
28 -4 31 -7z m60 2 c3 -5 2 -12 -3 -15 -5 -3 -9 1 -9 9 0 17 3 19 12 6z m125
3 c0 -8 -19 -13 -24 -6 -3 5 1 9 9 9 8 0 15 -2 15 -3z m5 -24 c-3 -5 -12 -10
-18 -10 -7 0 -6 4 3 10 19 12 23 12 15 0z m-108 -25 c0 -8 -4 -12 -9 -9 -4 3
-8 9 -8 15 0 5 4 9 8 9 5 0 9 -7 9 -15z m138 -15 c3 -5 1 -10 -4 -10 -6 0 -11
5 -11 10 0 6 2 10 4 10 3 0 8 -4 11 -10z m-58 -15 c0 -8 -4 -15 -9 -15 -10 0
-11 14 -1 23 9 10 10 9 10 -8z m-82 -5 c3 -5 1 -10 -4 -10 -6 0 -11 5 -11 10
0 6 2 10 4 10 3 0 8 -4 11 -10z m321 -2 c4 -7 4 -10 -1 -6 -4 4 -15 2 -24 -5
-14 -11 -14 -10 -2 6 16 20 18 21 27 5z m-176 -12 c0 -2 -7 -7 -16 -10 -8 -3
-12 -2 -9 4 6 10 25 14 25 6z"/>
</g>
</svg>
