<svg width="868" height="556" viewBox="0 0 868 556" fill="none" xmlns="http://www.w3.org/2000/svg">
<g clip-path="url(#clip0)">
<path d="M150.024 143.809L349.371 32.5524L532.52 125.953L584.849 303.141C751.022 312.716 776.721 502.304 611.014 525.654" stroke="#FC42F5" stroke-width="60.8332" stroke-linejoin="round"/>
<path d="M412.462 278.416C412.462 322.867 378.858 356.191 340.65 356.191C302.441 356.191 268.837 322.867 268.837 278.416C268.837 233.966 302.441 200.642 340.65 200.642C378.858 200.642 412.462 233.966 412.462 278.416Z" stroke="#FC42F5" stroke-width="53.2292"/>
<path d="M699.474 174.027C726.31 174.027 748.065 151.274 748.065 123.206C748.065 95.1386 726.31 72.3852 699.474 72.3852C672.638 72.3852 650.883 95.1386 650.883 123.206C650.883 151.274 672.638 174.027 699.474 174.027Z" fill="#FC42F5"/>
</g>
<defs>
<clipPath id="clip0">
<rect width="621" height="555.895" fill="white" transform="translate(135)"/>
</clipPath>
</defs>
</svg>
