<!DOCTYPE svg PUBLIC "-//W3C//DTD SVG 1.1//EN" "http://www.w3.org/Graphics/SVG/1.1/DTD/svg11.dtd">
<svg width="106.02mm" height="23.91mm" viewBox="0 0 106.02 23.91" xmlns="http://www.w3.org/2000/svg" version="1.1" xmlns:xlink="http://www.w3.org/1999/xlink">
<title>Airfoil plot (user-000) NACA 5512 Airfoil M=5.0% P=50.0% T=12.0% by AirfoilTools.com</title>
<g transform="translate(3,13.5897)"><g transform="scale(1,-1)"><line fill="none" stroke="green" stroke-width="0.1" x1="5" x2="5" y1="-5.82" y2="13.59"></line><line fill="none" stroke="green" stroke-width="0.1" x1="10" x2="10" y1="-5.82" y2="13.59"></line><line fill="none" stroke="green" stroke-width="0.1" x1="15" x2="15" y1="-5.82" y2="13.59"></line><line fill="none" stroke="green" stroke-width="0.1" x1="20" x2="20" y1="-5.82" y2="13.59"></line><line fill="none" stroke="green" stroke-width="0.1" x1="25" x2="25" y1="-5.82" y2="13.59"></line><line fill="none" stroke="green" stroke-width="0.1" x1="30" x2="30" y1="-5.82" y2="13.59"></line><line fill="none" stroke="green" stroke-width="0.1" x1="35" x2="35" y1="-5.82" y2="13.59"></line><line fill="none" stroke="green" stroke-width="0.1" x1="40" x2="40" y1="-5.82" y2="13.59"></line><line fill="none" stroke="green" stroke-width="0.1" x1="45" x2="45" y1="-5.82" y2="13.59"></line><line fill="none" stroke="green" stroke-width="0.1" x1="50" x2="50" y1="-5.82" y2="13.59"></line><line fill="none" stroke="green" stroke-width="0.1" x1="55" x2="55" y1="-5.82" y2="13.59"></line><line fill="none" stroke="green" stroke-width="0.1" x1="60" x2="60" y1="-5.82" y2="13.59"></line><line fill="none" stroke="green" stroke-width="0.1" x1="65" x2="65" y1="-5.82" y2="13.59"></line><line fill="none" stroke="green" stroke-width="0.1" x1="70" x2="70" y1="-5.82" y2="13.59"></line><line fill="none" stroke="green" stroke-width="0.1" x1="75" x2="75" y1="-5.82" y2="13.59"></line><line fill="none" stroke="green" stroke-width="0.1" x1="80" x2="80" y1="-5.82" y2="13.59"></line><line fill="none" stroke="green" stroke-width="0.1" x1="85" x2="85" y1="-5.82" y2="13.59"></line><line fill="none" stroke="green" stroke-width="0.1" x1="90" x2="90" y1="-5.82" y2="13.59"></line><line fill="none" stroke="green" stroke-width="0.1" x1="95" x2="95" y1="-5.82" y2="13.59"></line><line fill="none" stroke="green" stroke-width="0.1" x1="100" x2="100" y1="-5.82" y2="13.59"></line><line fill="none" stroke="green" stroke-width="0.1" x1="-3" x2="103.02" y1="5" y2="5"></line><line fill="none" stroke="green" stroke-width="0.1" x1="-3" x2="103.02" y1="10" y2="10"></line><line fill="none" stroke="green" stroke-width="0.1" x1="-3" x2="103.02" y1="-5" y2="-5"></line>
<path fill="none" stroke="red" stroke-width="0.2" d="M 100.02 0.12 L 99.87 0.18 L 99.43 0.33 L 98.68 0.58 L 97.64 0.93 L 96.31 1.37 L 94.7 1.88 L 92.82 2.46 L 90.67 3.1 L 88.27 3.78 L 85.64 4.49 L 82.77 5.22 L 79.7 5.94 L 76.44 6.66 L 73.01 7.35 L 69.42 8 L 65.7 8.61 L 61.88 9.15 L 57.97 9.61 L 54 10 L 50 10.29 L 45.99 10.49 L 42 10.59 L 38.05 10.58 L 34.18 10.47 L 30.41 10.25 L 26.76 9.93 L 23.26 9.51 L 19.94 9 L 16.81 8.42 L 13.9 7.76 L 11.23 7.04 L 8.81 6.27 L 6.67 5.48 L 4.8 4.66 L 3.23 3.84 L 1.96 3.02 L 1 2.22 L 0.35 1.45 L 0.02 0.71 L 0 0 L 0.29 -0.64 L 0.88 -1.2 L 1.76 -1.68 L 2.93 -2.07 L 4.38 -2.37 L 6.1 -2.6 L 8.07 -2.75 L 10.28 -2.82 L 12.73 -2.82 L 15.39 -2.76 L 18.25 -2.63 L 21.28 -2.46 L 24.49 -2.24 L 27.84 -1.99 L 31.32 -1.71 L 34.92 -1.42 L 38.6 -1.13 L 42.36 -0.83 L 46.16 -0.55 L 50 -0.29 L 53.84 -0.06 L 57.67 0.14 L 61.47 0.31 L 65.2 0.44 L 68.85 0.53 L 72.39 0.59 L 75.81 0.61 L 79.08 0.6 L 82.17 0.57 L 85.07 0.51 L 87.77 0.44 L 90.23 0.35 L 92.44 0.27 L 94.4 0.18 L 96.08 0.1 L 97.47 0.02 L 98.56 -0.04 L 99.34 -0.09 L 99.82 -0.11 L 99.98 -0.12 "></path>
<path fill="none" stroke="blue" stroke-width="0.2" d="M 0 0 L 100 0 "></path>
<line fill="none" stroke="black" stroke-width="0.2" x1="-3" x2="103.02" y1="0" y2="0"></line>
<line fill="none" stroke="black" stroke-width="0.2" x1="0" x2="0" y1="-5.82" y2="13.59"></line>
</g>
</g>
<g transform="translate(0,19.4095)"><g transform="scale(1,1)"><text fill="rgb(48,48,144)" font-size="1.8" style="font-family:Arial,Helvetica,sans-serif;" x="1" y="2">Name = NACA 5512 Airfoil M=5.0% P=50.0% T=12.0%</text><text fill="rgb(48,48,144)" font-size="1.8" style="font-family:Arial,Helvetica,sans-serif;" x="1" y="4">Chord = 100mm  Radius = 0mm  Thickness = 100%  Origin = 0%  Pitch = 0&#176; </text></g></g></svg>