<?xml version="1.0" encoding="UTF-8"?>
<svg width="240px" height="64px" viewBox="0 0 240 64" version="1.1" xmlns="http://www.w3.org/2000/svg" xmlns:xlink="http://www.w3.org/1999/xlink">
    <title>logo</title>
    <g id="Page-1" stroke="none" stroke-width="1" fill="none" fill-rule="evenodd">
        <g id="logo" transform="translate(2.000000, 0.000000)" fill-rule="nonzero">
            <path id="Jekyll" fill="#2f2f41" d="M-1.104,61.024 C2.576,61.024 5.48,60.272 7.608,58.768 C9.736,57.264 11.12,55.408 11.76,53.2 C12.08,52.08 12.296,50.8 12.408,49.36 C12.52,47.92 12.576,46.44 12.576,44.92 L12.576,44.92 L12.576,23.104 C12.576,21.92 12.664,21.048 12.84,20.488 C13.016,19.928 13.368,19.544 13.896,19.336 C14.424,19.128 15.184,19.008 16.176,18.976 L16.176,18.976 L16.176,18.016 C15.28,18.048 14.152,18.08 12.792,18.112 C11.432,18.144 10.032,18.16 8.592,18.16 C7.152,18.16 5.784,18.144 4.488,18.112 C3.192,18.08 2.144,18.048 1.344,18.016 L1.344,18.016 L1.344,18.976 C2.368,19.008 3.136,19.128 3.648,19.336 C4.16,19.544 4.504,19.928 4.68,20.488 C4.856,21.048 4.944,21.92 4.944,23.104 L4.944,23.104 L4.944,49.408 C4.944,52.128 4.704,54.24 4.224,55.744 C3.744,57.248 3.056,58.312 2.16,58.936 C1.264,59.56 0.176,59.936 -1.104,60.064 L-1.104,60.064 L-1.104,61.024 Z M30.355125,52.672 C32.147125,52.672 33.683125,52.304 34.963125,51.568 C36.243125,50.832 37.299125,49.888 38.131125,48.736 C38.963125,47.584 39.571125,46.4 39.955125,45.184 L39.955125,45.184 L39.091125,44.896 C38.099125,46.496 37.035125,47.536 35.899125,48.016 C34.763125,48.496 33.715125,48.736 32.755125,48.736 C31.763125,48.736 30.787125,48.424 29.827125,47.8 C28.867125,47.176 28.075125,46.176 27.451125,44.8 C26.827125,43.424 26.515125,41.632 26.515125,39.424 C26.515125,38.976 26.523125,38.544 26.539125,38.128 C26.555125,37.712 26.579125,37.312 26.611125,36.928 L26.593,37.168 L40.051125,37.168 C40.051125,33.5318519 39.3092869,30.87493 37.8256106,29.1972346 L37.651125,29.008 C36.051125,27.344 33.843125,26.512 31.027125,26.512 C28.755125,26.512 26.731125,27 24.955125,27.976 C23.179125,28.952 21.787125,30.432 20.779125,32.416 C19.771125,34.4 19.267125,36.88 19.267125,39.856 C19.267125,42.768 19.739125,45.168 20.683125,47.056 C21.627125,48.944 22.931125,50.352 24.595125,51.28 C26.259125,52.208 28.179125,52.672 30.355125,52.672 Z M26.4897639,36.2195236 C26.6687583,33.1746238 27.133212,30.9787826 27.883125,29.632 C28.667125,28.224 29.619125,27.52 30.739125,27.52 C31.539125,27.52 32.179125,27.92 32.659125,28.72 C33.139125,29.52 33.491125,30.584 33.715125,31.912 C33.939125,33.24 34.035125,34.688 34.003125,36.256 L34.003125,36.256 L26.487,36.256 L26.4897639,36.2195236 Z M69.7247285,52 L69.7247285,50.992 C69.1807285,50.8 68.7167285,50.48 68.3327285,50.032 C67.9487285,49.584 67.5807285,49.072 67.2287285,48.496 L67.2287285,48.496 L59.172,35.023 L62.2367285,31.84 C63.1327285,30.972 64.0164785,30.23875 64.8879785,29.64025 L65.2607285,29.392 C66.2527285,28.752 67.2447285,28.336 68.2367285,28.144 L68.2367285,28.144 L68.2367285,27.184 C67.8527285,27.216 67.3407285,27.24 66.7007285,27.256 C66.0607285,27.272 65.3807285,27.288 64.6607285,27.304 C63.9407285,27.32 63.2607285,27.328 62.6207285,27.328 C61.8847285,27.328 60.9887285,27.312 59.9327285,27.28 C58.8767285,27.248 57.9007285,27.216 57.0047285,27.184 L57.0047285,27.184 L57.0047285,28.144 C58.1247285,28.176 59.0287285,28.432 59.7167285,28.912 C60.4047285,29.392 60.7487285,30.032 60.7487285,30.832 C60.7487285,31.632 60.2047285,32.544 59.1167285,33.568 L59.1167285,33.568 L55.4687285,37.12 C55.0527285,37.568 54.5967285,37.872 54.1007285,38.032 C53.6047285,38.192 53.0207285,38.304 52.3487285,38.368 L52.588,38.342 L52.5887285,14.416 C51.7620618,14.6026667 50.8687285,14.7504444 49.9087285,14.8593333 L49.3247285,14.92 C48.1407285,15.032 46.8927285,15.088 45.5807285,15.088 C44.6207285,15.088 43.6287285,15.04 42.6047285,14.944 L42.6047285,14.944 L42.6047285,15.952 C43.7887285,15.952 44.5967285,16.296 45.0287285,16.984 C45.4607285,17.672 45.6767285,18.736 45.6767285,20.176 L45.6767285,20.176 L45.6767285,47.536 C45.6767285,48.88 45.4447285,49.792 44.9807285,50.272 C44.5167285,50.752 43.7247285,50.992 42.6047285,50.992 L42.6047285,50.992 L42.6047285,52 C43.2447285,51.968 44.1967285,51.928 45.4607285,51.88 C46.7247285,51.832 47.9807285,51.808 49.2287285,51.808 C50.4447285,51.808 51.6367285,51.832 52.8047285,51.88 C53.9727285,51.928 54.8607285,51.968 55.4687285,52 L55.4687285,52 L55.4687285,50.992 C54.4127285,50.992 53.6687285,50.752 53.2367285,50.272 C52.8047285,49.792 52.5887285,48.88 52.5887285,47.536 L52.5887285,47.536 L52.588,39.298 L52.601953,39.2981224 C53.0117489,39.3356735 53.3603204,39.4099592 53.6476673,39.5209796 L53.8127285,39.592 C54.1807285,39.768 54.5567285,40.16 54.9407285,40.768 L54.9407285,40.768 L59.6927285,49.36 C59.9807285,49.84 60.0127285,50.232 59.7887285,50.536 C59.5647285,50.84 59.1327285,50.992 58.4927285,50.992 L58.4927285,50.992 L58.4927285,52 C59.0687285,51.968 59.9487285,51.928 61.1327285,51.88 C62.3167285,51.832 63.5007285,51.808 64.6847285,51.808 C65.6447285,51.808 66.6047285,51.832 67.5647285,51.88 C68.5247285,51.928 69.2447285,51.968 69.7247285,52 L69.7247285,52 Z M76.2238594,61.024 C77.1518594,61.024 77.9678594,60.92 78.6718594,60.712 C79.3758594,60.504 79.9518594,60.208 80.3998594,59.824 C81.1998594,59.184 81.9038594,58.048 82.5118594,56.416 L82.5118594,56.416 L84.3358594,51.28 L91.1038594,32.272 C91.6158594,30.864 92.1438594,29.864 92.6878594,29.272 C93.2318594,28.68 93.8078594,28.304 94.4158594,28.144 L94.4158594,28.144 L94.4158594,27.184 C93.9998594,27.216 93.4398594,27.248 92.7358594,27.28 C92.0318594,27.312 91.3598594,27.328 90.7198594,27.328 C90.0798594,27.328 89.3278594,27.312 88.4638594,27.28 C87.5998594,27.248 86.7998594,27.216 86.0638594,27.184 L86.0638594,27.184 L86.0638594,28.144 C87.5998594,28.272 88.6718594,28.936 89.2798594,30.136 C89.8878594,31.336 89.7438594,33.232 88.8478594,35.824 L88.8478594,35.824 L85.55,45.046 L79.6798594,30.88 C79.3253978,30.0529231 79.2231493,29.4507929 79.3731138,29.0736095 L79.4158594,28.984 C79.6238594,28.616 80.0078594,28.392 80.5678594,28.312 C81.1278594,28.232 81.7278594,28.192 82.3678594,28.192 L82.3678594,28.192 L82.3678594,27.184 C81.4078594,27.248 80.3838594,27.312 79.2958594,27.376 C78.2078594,27.44 77.0078594,27.472 75.6958594,27.472 C74.6398594,27.472 73.5438594,27.448 72.4078594,27.4 C71.2718594,27.352 70.1758594,27.28 69.1198594,27.184 L69.1198594,27.184 L69.1198594,28.192 C69.5038594,28.192 69.9598594,28.328 70.4878594,28.6 C71.0158594,28.872 71.5518594,29.632 72.0958594,30.88 L72.0958594,30.88 L82.285,54.018 L81.5038594,56.32 C81.0607825,57.5310769 80.5086404,58.4422249 79.8474333,59.0534438 L79.6798594,59.2 C78.9438594,59.808 78.0958594,60.112 77.1358594,60.112 L77.1358594,60.112 L76.6078594,60.112 C76.3838594,60.112 76.1918594,60.096 76.0318594,60.064 C76.8318594,59.776 77.4318594,59.344 77.8318594,58.768 C78.2318594,58.192 78.4318594,57.584 78.4318594,56.944 C78.4318594,55.952 78.0958594,55.2 77.4238594,54.688 C76.7518594,54.176 75.8878594,53.92 74.8318594,53.92 C73.6798594,53.92 72.7518594,54.216 72.0478594,54.808 C71.3438594,55.4 70.9918594,56.192 70.9918594,57.184 C70.9918594,58.08 71.2638594,58.816 71.8078594,59.392 C72.3518594,59.968 73.0318594,60.384 73.8478594,60.64 C74.6638594,60.896 75.4558594,61.024 76.2238594,61.024 Z M108.71983,52 L108.71983,50.992 C107.59983,50.992 106.80783,50.752 106.34383,50.272 C105.87983,49.792 105.64783,48.88 105.64783,47.536 L105.64783,47.536 L105.64783,14.416 C104.65583,14.64 103.56783,14.808 102.38383,14.92 C101.19983,15.032 99.9518301,15.088 98.6398301,15.088 C97.6798301,15.088 96.6878301,15.04 95.6638301,14.944 L95.6638301,14.944 L95.6638301,15.952 C96.8478301,15.952 97.6558301,16.296 98.0878301,16.984 C98.5198301,17.672 98.7358301,18.736 98.7358301,20.176 L98.7358301,20.176 L98.7358301,47.536 C98.7358301,48.88 98.5038301,49.792 98.0398301,50.272 C97.5758301,50.752 96.7838301,50.992 95.6638301,50.992 L95.6638301,50.992 L95.6638301,52 C96.3038301,51.968 97.2558301,51.928 98.5198301,51.88 C99.7838301,51.832 101.03983,51.808 102.28783,51.808 C103.53583,51.808 104.76783,51.832 105.98383,51.88 C107.19983,51.928 108.11183,51.968 108.71983,52 L108.71983,52 Z M123.657381,52 L123.657381,50.992 C122.537381,50.992 121.745381,50.752 121.281381,50.272 C120.817381,49.792 120.585381,48.88 120.585381,47.536 L120.585381,47.536 L120.585381,14.416 C119.593381,14.64 118.505381,14.808 117.321381,14.92 C116.137381,15.032 114.889381,15.088 113.577381,15.088 C112.617381,15.088 111.625381,15.04 110.601381,14.944 L110.601381,14.944 L110.601381,15.952 C111.785381,15.952 112.593381,16.296 113.025381,16.984 C113.457381,17.672 113.673381,18.736 113.673381,20.176 L113.673381,20.176 L113.673381,47.536 C113.673381,48.88 113.441381,49.792 112.977381,50.272 C112.513381,50.752 111.721381,50.992 110.601381,50.992 L110.601381,50.992 L110.601381,52 C111.241381,51.968 112.193381,51.928 113.457381,51.88 C114.721381,51.832 115.977381,51.808 117.225381,51.808 C118.473381,51.808 119.705381,51.832 120.921381,51.88 C122.137381,51.928 123.049381,51.968 123.657381,52 L123.657381,52 Z"></path>
            <path id="Serif" fill="#E5261F" d="M141.16,52.672 C143.304,52.672 145.272,52.328 147.064,51.64 C148.856,50.952 150.304,49.92 151.408,48.544 C152.512,47.168 153.064,45.424 153.064,43.312 C153.064,41.584 152.696,40.096 151.96,38.848 C151.224,37.6 150.248,36.48 149.032,35.488 C147.816,34.496 146.44,33.504 144.904,32.512 C143.144,31.296 141.648,30.256 140.416,29.392 C139.184,28.528 138.248,27.64 137.608,26.728 C136.968,25.816 136.648,24.72 136.648,23.44 C136.648,21.904 137.144,20.704 138.136,19.84 C139.128,18.976 140.392,18.544 141.928,18.544 C143.624,18.544 145.056,19.048 146.224,20.056 C147.392,21.064 148.296,22.352 148.936,23.92 C149.576,25.488 149.96,27.104 150.088,28.768 L150.088,28.768 L151.192,28.768 C151.192,26.528 151.2,24.72 151.216,23.344 C151.232,21.968 151.264,20.856 151.312,20.008 C151.36,19.16 151.4,18.432 151.432,17.824 L151.432,17.824 L150.328,17.824 C150.136,19.232 149.784,19.936 149.272,19.936 C149.048,19.936 148.816,19.88 148.576,19.768 C148.336,19.656 148.024,19.488 147.64,19.264 C146.904,18.816 146.024,18.392 145,17.992 C143.976,17.592 142.52,17.392 140.632,17.392 C138.776,17.392 137.024,17.704 135.376,18.328 C133.728,18.952 132.4,19.912 131.392,21.208 C130.384,22.504 129.88,24.16 129.88,26.176 C129.88,27.936 130.272,29.456 131.056,30.736 C131.84,32.016 132.888,33.152 134.2,34.144 C135.512,35.136 136.92,36.128 138.424,37.12 C140.536,38.496 142.264,39.832 143.608,41.128 C144.952,42.424 145.624,44.064 145.624,46.048 C145.624,47.84 145.048,49.184 143.896,50.08 C142.744,50.976 141.336,51.424 139.672,51.424 C137.624,51.424 135.984,50.864 134.752,49.744 C133.52,48.624 132.608,47.144 132.016,45.304 C131.424,43.464 131.064,41.488 130.936,39.376 L130.936,39.376 L129.832,39.376 C129.832,41.904 129.824,43.992 129.808,45.64 C129.792,47.288 129.776,48.624 129.76,49.648 C129.744,50.672 129.704,51.568 129.64,52.336 L129.64,52.336 L130.744,52.336 C130.936,50.928 131.288,50.224 131.8,50.224 C132.184,50.224 132.728,50.448 133.432,50.896 C134.232,51.312 135.224,51.712 136.408,52.096 C137.592,52.48 139.176,52.672 141.16,52.672 Z M167.886314,52.672 C169.678314,52.672 171.214314,52.304 172.494314,51.568 C173.774314,50.832 174.830314,49.888 175.662314,48.736 C176.494314,47.584 177.102314,46.4 177.486314,45.184 L177.486314,45.184 L176.622314,44.896 C175.630314,46.496 174.566314,47.536 173.430314,48.016 C172.294314,48.496 171.246314,48.736 170.286314,48.736 C169.294314,48.736 168.318314,48.424 167.358314,47.8 C166.398314,47.176 165.606314,46.176 164.982314,44.8 C164.358314,43.424 164.046314,41.632 164.046314,39.424 C164.046314,38.976 164.054314,38.544 164.070314,38.128 C164.086314,37.712 164.110314,37.312 164.142314,36.928 L164.124,37.168 L177.582314,37.168 C177.582314,33.5318519 176.840476,30.87493 175.3568,29.1972346 L175.182314,29.008 C173.582314,27.344 171.374314,26.512 168.558314,26.512 C166.286314,26.512 164.262314,27 162.486314,27.976 C160.710314,28.952 159.318314,30.432 158.310314,32.416 C157.302314,34.4 156.798314,36.88 156.798314,39.856 C156.798314,42.768 157.270314,45.168 158.214314,47.056 C159.158314,48.944 160.462314,50.352 162.126314,51.28 C163.790314,52.208 165.710314,52.672 167.886314,52.672 Z M164.020953,36.2195236 C164.199948,33.1746238 164.664401,30.9787826 165.414314,29.632 C166.198314,28.224 167.150314,27.52 168.270314,27.52 C169.070314,27.52 169.710314,27.92 170.190314,28.72 C170.670314,29.52 171.022314,30.584 171.246314,31.912 C171.470314,33.24 171.566314,34.688 171.534314,36.256 L171.534314,36.256 L164.018,36.256 L164.020953,36.2195236 Z M194.871918,52 L194.871918,50.992 C193.367918,50.992 192.239918,50.72 191.487918,50.176 C190.735918,49.632 190.359918,48.592 190.359918,47.056 L190.359918,47.056 L190.359918,34.336 C190.359918,33.472 190.551918,32.592 190.935918,31.696 C191.319918,30.8 191.839918,30.024 192.495918,29.368 C193.151918,28.712 193.895918,28.32 194.727918,28.192 C195.175918,28.032 195.623918,28.016 196.071918,28.144 C195.463918,28.56 194.959918,29.064 194.559918,29.656 C194.159918,30.248 193.959918,30.992 193.959918,31.888 C193.959918,32.816 194.271918,33.56 194.895918,34.12 C195.519918,34.68 196.391918,34.96 197.511918,34.96 C198.631918,34.96 199.535918,34.584 200.223918,33.832 C200.911918,33.08 201.255918,32.112 201.255918,30.928 C201.255918,30.192 201.103918,29.488 200.799918,28.816 C200.495918,28.144 200.023918,27.592 199.383918,27.16 C198.743918,26.728 197.911918,26.512 196.887918,26.512 C195.863918,26.512 194.935918,26.712 194.103918,27.112 C193.271918,27.512 192.535918,28.064 191.895918,28.768 C191.255918,29.472 190.743918,30.256 190.359918,31.12 L190.359918,31.12 L190.359918,26.656 C189.367918,26.88 188.287918,27.048 187.119918,27.16 C185.951918,27.272 184.695918,27.328 183.351918,27.328 C182.391918,27.328 181.399918,27.28 180.375918,27.184 L180.375918,27.184 L180.375918,28.192 C181.559918,28.192 182.367918,28.536 182.799918,29.224 C183.231918,29.912 183.447918,30.976 183.447918,32.416 L183.447918,32.416 L183.447918,47.536 C183.447918,48.88 183.215918,49.792 182.751918,50.272 C182.287918,50.752 181.495918,50.992 180.375918,50.992 L180.375918,50.992 L180.375918,52 C181.047918,51.968 182.039918,51.928 183.351918,51.88 C184.663918,51.832 185.959918,51.808 187.239918,51.808 C188.775918,51.808 190.247918,51.832 191.655918,51.88 C193.063918,51.928 194.135918,51.968 194.871918,52 L194.871918,52 Z M209.012676,22.192 C210.356676,22.192 211.420676,21.864 212.204676,21.208 C212.988676,20.552 213.380676,19.648 213.380676,18.496 C213.380676,17.344 212.988676,16.44 212.204676,15.784 C211.420676,15.128 210.356676,14.8 209.012676,14.8 C207.668676,14.8 206.604676,15.128 205.820676,15.784 C205.036676,16.44 204.644676,17.344 204.644676,18.496 C204.644676,19.648 205.036676,20.552 205.820676,21.208 C206.604676,21.864 207.668676,22.192 209.012676,22.192 Z M215.828676,52 L215.828676,50.992 C214.708676,50.992 213.916676,50.752 213.452676,50.272 C212.988676,49.792 212.756676,48.88 212.756676,47.536 L212.756676,47.536 L212.756676,26.656 C211.764676,26.88 210.684676,27.048 209.516676,27.16 C208.348676,27.272 207.092676,27.328 205.748676,27.328 C204.788676,27.328 203.796676,27.28 202.772676,27.184 L202.772676,27.184 L202.772676,28.192 C203.956676,28.192 204.764676,28.536 205.196676,29.224 C205.628676,29.912 205.844676,30.976 205.844676,32.416 L205.844676,32.416 L205.844676,47.536 C205.844676,48.88 205.612676,49.792 205.148676,50.272 C204.684676,50.752 203.892676,50.992 202.772676,50.992 L202.772676,50.992 L202.772676,52 C203.412676,51.968 204.372676,51.928 205.652676,51.88 C206.932676,51.832 208.196676,51.808 209.444676,51.808 C210.692676,51.808 211.924676,51.832 213.140676,51.88 C214.356676,51.928 215.252676,51.968 215.828676,52 L215.828676,52 Z M232.398232,52 L232.398232,50.992 C230.990232,50.992 229.886232,50.728 229.086232,50.2 C228.286232,49.672 227.886232,48.624 227.886232,47.056 L227.886232,47.056 L227.886232,28.192 L233.022232,28.192 L233.022232,27.232 L227.886232,27.232 L227.886232,22.864 C227.886232,20.976 227.950232,19.576 228.078232,18.664 C228.206232,17.752 228.446232,17.056 228.798232,16.576 C229.054232,16.192 229.390232,15.888 229.806232,15.664 C230.222232,15.44 230.750232,15.328 231.390232,15.328 C231.870232,15.328 232.254232,15.392 232.542232,15.52 C232.830232,15.648 233.022232,15.808 233.118232,16 C232.190232,16.256 231.486232,16.704 231.006232,17.344 C230.526232,17.984 230.286232,18.72 230.286232,19.552 C230.286232,20.608 230.630232,21.44 231.318232,22.048 C232.006232,22.656 232.878232,22.96 233.934232,22.96 C234.958232,22.96 235.782232,22.624 236.406232,21.952 C237.030232,21.28 237.342232,20.512 237.342232,19.648 C237.342232,18.848 237.182232,18.136 236.862232,17.512 C236.542232,16.888 236.158232,16.4 235.710232,16.048 C235.070232,15.568 234.334232,15.184 233.502232,14.896 C232.670232,14.608 231.694232,14.464 230.574232,14.464 C229.230232,14.464 227.974232,14.696 226.806232,15.16 C225.638232,15.624 224.702232,16.192 223.998232,16.864 C222.878232,17.952 222.094232,19.24 221.646232,20.728 C221.198232,22.216 220.974232,24.384 220.974232,27.232 L220.974232,27.232 L217.710232,27.232 L217.710232,28.192 L220.974232,28.192 L220.974232,47.536 C220.974232,48.88 220.742232,49.792 220.278232,50.272 C219.814232,50.752 219.022232,50.992 217.902232,50.992 L217.902232,50.992 L217.902232,52 C218.510232,51.968 219.398232,51.928 220.566232,51.88 C221.734232,51.832 222.926232,51.808 224.142232,51.808 C225.806232,51.808 227.390232,51.832 228.894232,51.88 C230.398232,51.928 231.566232,51.968 232.398232,52 L232.398232,52 Z"></path>
        </g>
    </g>
</svg>