<?xml version="1.0" encoding="UTF-8"?>
<svg width="54px" height="54px" viewBox="0 0 54 54" version="1.1" xmlns="http://www.w3.org/2000/svg" xmlns:xlink="http://www.w3.org/1999/xlink">
    <title>logo-mobile</title>
    <g id="Page-1" stroke="none" stroke-width="1" fill="none" fill-rule="evenodd">
        <g id="logo-mobile">
            <rect id="Rectangle-6" stroke="#E5261F" stroke-width="4" fill-rule="nonzero" x="2" y="2" width="50" height="50"></rect>
            <path id="." fill="#E5261F" d="M34.402,41.895 C33.9259976,41.3769974 33.688,40.7400038 33.688,39.984 C33.688,39.2279962 33.9329975,38.5840027 34.423,38.052 C34.9130025,37.5199973 35.4939966,37.254 36.166,37.254 C36.8660035,37.254 37.4469977,37.5199973 37.909,38.052 C38.3710023,38.5840027 38.602,39.2279962 38.602,39.984 C38.602,40.7400038 38.3570024,41.3769974 37.867,41.895 C37.3769975,42.4130026 36.7960034,42.672 36.124,42.672 C35.4519966,42.672 34.8780024,42.4130026 34.402,41.895 Z"></path>
            <path id="S" fill="#E5261F" fill-rule="nonzero" d="M20.718,42.588 C22.342,42.588 23.826,42.294 25.17,41.706 C26.514,41.118 27.592,40.236 28.404,39.06 C29.216,37.884 29.622,36.4 29.622,34.608 C29.622,33.096 29.293,31.808 28.635,30.744 C27.977,29.68 27.081,28.707 25.947,27.825 C24.813,26.943 23.518,26.054 22.062,25.158 C20.802,24.374 19.633,23.639 18.555,22.953 C17.477,22.267 16.616,21.497 15.972,20.643 C15.328,19.789 15.006,18.732 15.006,17.472 C15.006,16.016 15.489,14.84 16.455,13.944 C17.421,13.048 18.646,12.6 20.13,12.6 C21.698,12.6 22.965,12.992 23.931,13.776 C24.897,14.56 25.632,15.568 26.136,16.8 C26.64,18.032 26.934,19.32 27.018,20.664 L27.018,20.664 L27.984,20.664 C27.984,18.9 27.991,17.479 28.005,16.401 C28.019,15.323 28.047,14.455 28.089,13.797 C28.131,13.139 28.166,12.572 28.194,12.096 L28.194,12.096 L27.228,12.096 C27.06,13.328 26.752,13.944 26.304,13.944 C26.108,13.944 25.905,13.895 25.695,13.797 C25.485,13.699 25.212,13.552 24.876,13.356 C24.316,12.964 23.672,12.607 22.944,12.285 C22.216,11.963 21.152,11.802 19.752,11.802 C18.38,11.802 17.092,12.061 15.888,12.579 C14.684,13.097 13.711,13.895 12.969,14.973 C12.227,16.051 11.856,17.416 11.856,19.068 C11.856,20.636 12.199,21.973 12.885,23.079 C13.571,24.185 14.488,25.158 15.636,25.998 C16.784,26.838 18.016,27.664 19.332,28.476 C21.292,29.652 22.874,30.8 24.078,31.92 C25.282,33.04 25.884,34.454 25.884,36.162 C25.884,38.122 25.317,39.543 24.183,40.425 C23.049,41.307 21.796,41.748 20.424,41.748 C18.632,41.748 17.197,41.307 16.119,40.425 C15.041,39.543 14.243,38.374 13.725,36.918 C13.207,35.462 12.892,33.894 12.78,32.214 L12.78,32.214 L11.814,32.214 C11.814,34.174 11.807,35.798 11.793,37.086 C11.779,38.374 11.765,39.417 11.751,40.215 C11.737,41.013 11.702,41.706 11.646,42.294 L11.646,42.294 L12.612,42.294 C12.78,41.062 13.088,40.446 13.536,40.446 C13.872,40.446 14.348,40.642 14.964,41.034 C15.58,41.398 16.322,41.748 17.19,42.084 C18.058,42.42 19.234,42.588 20.718,42.588 Z"></path>
        </g>
    </g>
</svg>